<svg xmlns="http://www.w3.org/2000/svg" xmlns:xlink="http://www.w3.org/1999/xlink" viewBox="0 0 39 96.18"><defs><style>.cls-1{fill:#286992;}.cls-2{isolation:isolate;}.cls-227,.cls-231,.cls-3{mix-blend-mode:multiply;}.cls-231,.cls-4{fill:#e7e7e6;}.cls-5{fill:#ccc;}.cls-6{fill:#34759e;opacity:0;}.cls-7{fill:#35769e;opacity:0;}.cls-8{fill:#36769e;opacity:0.01;}.cls-9{fill:#37769e;opacity:0.01;}.cls-10{fill:#38779e;opacity:0.02;}.cls-11{fill:#39779f;opacity:0.02;}.cls-12{fill:#3a789f;opacity:0.03;}.cls-13{fill:#3b789f;opacity:0.03;}.cls-14{fill:#3b799f;opacity:0.04;}.cls-15{fill:#3c799f;opacity:0.04;}.cls-16{fill:#3d7a9f;opacity:0.05;}.cls-17{fill:#3e7aa0;opacity:0.05;}.cls-18{fill:#3f7aa0;opacity:0.06;}.cls-19{fill:#407ba0;opacity:0.06;}.cls-20{fill:#417ba0;opacity:0.06;}.cls-21{fill:#427ca0;opacity:0.07;}.cls-22{fill:#437ca0;opacity:0.07;}.cls-23{fill:#447da1;opacity:0.08;}.cls-24{fill:#457da1;opacity:0.08;}.cls-25{fill:#467ea1;opacity:0.09;}.cls-26{fill:#477ea1;opacity:0.09;}.cls-27{fill:#487fa1;opacity:0.1;}.cls-28{fill:#497fa2;opacity:0.1;}.cls-29{fill:#4a80a2;opacity:0.11;}.cls-30{fill:#4b80a2;opacity:0.11;}.cls-31{fill:#4c81a2;opacity:0.11;}.cls-32{fill:#4d81a2;opacity:0.12;}.cls-33{fill:#4d82a2;opacity:0.12;}.cls-34{fill:#4e82a3;opacity:0.13;}.cls-35{fill:#4f83a3;opacity:0.13;}.cls-36{fill:#5083a3;opacity:0.14;}.cls-37{fill:#5183a3;opacity:0.14;}.cls-38{fill:#5284a3;opacity:0.15;}.cls-39{fill:#5384a3;opacity:0.15;}.cls-40{fill:#5485a4;opacity:0.16;}.cls-41{fill:#5585a4;opacity:0.16;}.cls-42{fill:#5686a4;opacity:0.17;}.cls-43{fill:#5787a4;opacity:0.17;}.cls-44{fill:#5887a4;opacity:0.17;}.cls-45{fill:#5988a4;opacity:0.18;}.cls-46{fill:#5988a5;opacity:0.18;}.cls-47{fill:#5a89a5;opacity:0.19;}.cls-48{fill:#5b89a5;opacity:0.19;}.cls-49{fill:#5c8aa5;opacity:0.2;}.cls-50{fill:#5d8aa5;opacity:0.2;}.cls-51{fill:#5e8ba5;opacity:0.21;}.cls-52{fill:#5f8ba6;opacity:0.21;}.cls-53{fill:#608ca6;opacity:0.22;}.cls-54{fill:#618ca6;opacity:0.22;}.cls-55,.cls-56{fill:#628da6;}.cls-55{opacity:0.22;}.cls-56{opacity:0.23;}.cls-57{fill:#638ea6;opacity:0.23;}.cls-58{fill:#648ea7;opacity:0.24;}.cls-59{fill:#658fa7;opacity:0.24;}.cls-60{fill:#668fa7;opacity:0.25;}.cls-61{fill:#6790a7;opacity:0.25;}.cls-62{fill:#6890a7;opacity:0.26;}.cls-63{fill:#6991a7;opacity:0.26;}.cls-64{fill:#6a92a8;opacity:0.27;}.cls-65{fill:#6b92a8;opacity:0.27;}.cls-66{fill:#6c93a8;opacity:0.28;}.cls-67{fill:#6d93a8;opacity:0.28;}.cls-68{fill:#6d94a8;opacity:0.28;}.cls-69{fill:#6e94a8;opacity:0.29;}.cls-70{fill:#6f95a8;opacity:0.29;}.cls-71{fill:#7095a9;opacity:0.3;}.cls-72{fill:#7196a9;opacity:0.3;}.cls-73{fill:#7296a9;opacity:0.31;}.cls-74{fill:#7397a9;opacity:0.31;}.cls-75{fill:#7497a9;opacity:0.32;}.cls-76,.cls-77{fill:#7598a9;}.cls-76{opacity:0.32;}.cls-77{opacity:0.33;}.cls-78{fill:#7699aa;opacity:0.33;}.cls-79{fill:#779aaa;opacity:0.33;}.cls-80{fill:#789aaa;opacity:0.34;}.cls-81{fill:#799baa;opacity:0.34;}.cls-82{fill:#7a9baa;opacity:0.35;}.cls-83{fill:#7b9caa;opacity:0.35;}.cls-84{fill:#7c9caa;opacity:0.36;}.cls-85{fill:#7d9daa;opacity:0.36;}.cls-86{fill:#7e9dab;opacity:0.37;}.cls-87,.cls-88{fill:#7f9eab;}.cls-87{opacity:0.37;}.cls-88{opacity:0.38;}.cls-89{fill:#809fab;opacity:0.38;}.cls-90{fill:#81a0ab;opacity:0.39;}.cls-91{fill:#82a0ab;opacity:0.39;}.cls-92{fill:#83a1ab;opacity:0.39;}.cls-93{fill:#84a1ac;opacity:0.4;}.cls-94{fill:#85a2ac;opacity:0.4;}.cls-95{fill:#86a2ac;opacity:0.41;}.cls-96{fill:#87a3ac;opacity:0.41;}.cls-97{fill:#88a4ac;opacity:0.42;}.cls-98{fill:#89a4ac;opacity:0.42;}.cls-99{fill:#8aa5ac;opacity:0.43;}.cls-100{fill:#8aa5ad;opacity:0.43;}.cls-101{fill:#8ba6ad;opacity:0.44;}.cls-102{fill:#8ca7ad;opacity:0.44;}.cls-103{fill:#8da7ad;opacity:0.44;}.cls-104{fill:#8ea8ad;opacity:0.45;}.cls-105{fill:#8fa8ad;opacity:0.45;}.cls-106{fill:#90a9ad;opacity:0.46;}.cls-107{fill:#91a9ad;opacity:0.46;}.cls-108{fill:#92aaae;opacity:0.47;}.cls-109{fill:#92abae;opacity:0.47;}.cls-110{fill:#93abae;opacity:0.48;}.cls-111{fill:#94acae;opacity:0.48;}.cls-112{fill:#95acae;opacity:0.49;}.cls-113{fill:#96adae;opacity:0.49;}.cls-114{fill:#97aeae;opacity:0.5;}.cls-115{fill:#98aeaf;opacity:0.5;}.cls-116,.cls-117{fill:#99afaf;}.cls-116{opacity:0.5;}.cls-117{opacity:0.51;}.cls-118{fill:#9ab0af;opacity:0.51;}.cls-119{fill:#9bb0af;opacity:0.52;}.cls-120{fill:#9cb1af;opacity:0.52;}.cls-121{fill:#9db2af;opacity:0.53;}.cls-122{fill:#9eb2af;opacity:0.53;}.cls-123,.cls-124{fill:#9fb3b0;}.cls-123{opacity:0.54;}.cls-124{opacity:0.54;}.cls-125{fill:#a0b4b0;opacity:0.55;}.cls-126{fill:#a1b5b0;opacity:0.55;}.cls-127{fill:#a2b5b0;opacity:0.56;}.cls-128{fill:#a3b6b0;opacity:0.56;}.cls-129{fill:#a4b6b0;opacity:0.56;}.cls-130{fill:#a5b7b0;opacity:0.57;}.cls-131{fill:#a5b8b1;opacity:0.57;}.cls-132{fill:#a6b8b1;opacity:0.58;}.cls-133{fill:#a7b9b1;opacity:0.58;}.cls-134{fill:#a8b9b1;opacity:0.59;}.cls-135{fill:#a9bab1;opacity:0.59;}.cls-136{fill:#aabbb1;opacity:0.6;}.cls-137{fill:#abbbb1;opacity:0.6;}.cls-138{fill:#abbcb1;opacity:0.61;}.cls-139{fill:#acbcb1;opacity:0.61;}.cls-140{fill:#adbdb2;opacity:0.61;}.cls-141{fill:#aebeb2;opacity:0.62;}.cls-142{fill:#afbeb2;opacity:0.62;}.cls-143{fill:#b0bfb2;opacity:0.63;}.cls-144{fill:#b1bfb2;opacity:0.63;}.cls-145{fill:#b2c0b2;opacity:0.64;}.cls-146{fill:#b2c1b2;opacity:0.64;}.cls-147{fill:#b3c1b2;opacity:0.65;}.cls-148{fill:#b4c2b2;opacity:0.65;}.cls-149{fill:#b5c2b2;opacity:0.66;}.cls-150{fill:#b6c3b3;opacity:0.66;}.cls-151{fill:#b7c4b3;opacity:0.67;}.cls-152{fill:#b8c4b3;opacity:0.67;}.cls-153{fill:#b9c5b3;opacity:0.67;}.cls-154{fill:#b9c6b3;opacity:0.68;}.cls-155{fill:#bac6b3;opacity:0.68;}.cls-156{fill:#bbc7b3;opacity:0.69;}.cls-157{fill:#bcc7b3;opacity:0.69;}.cls-158{fill:#bdc8b3;opacity:0.7;}.cls-159{fill:#bec9b4;opacity:0.7;}.cls-160{fill:#bfc9b4;opacity:0.71;}.cls-161{fill:#c0cab4;opacity:0.71;}.cls-162,.cls-163{fill:#c1cbb4;}.cls-162{opacity:0.72;}.cls-163{opacity:0.72;}.cls-164{fill:#c2ccb4;opacity:0.72;}.cls-165{fill:#c3ccb4;opacity:0.73;}.cls-166{fill:#c4cdb4;opacity:0.73;}.cls-167{fill:#c5ceb4;opacity:0.74;}.cls-168{fill:#c6ceb4;opacity:0.74;}.cls-169{fill:#c7cfb5;opacity:0.75;}.cls-170,.cls-171{fill:#c8d0b5;}.cls-170{opacity:0.75;}.cls-171{opacity:0.76;}.cls-172{fill:#c9d1b5;opacity:0.76;}.cls-173{fill:#cad2b5;opacity:0.77;}.cls-174{fill:#cbd2b5;opacity:0.77;}.cls-175{fill:#ccd3b5;opacity:0.78;}.cls-176{fill:#cdd4b5;opacity:0.78;}.cls-177{fill:#ced4b5;opacity:0.78;}.cls-178{fill:#ced5b5;opacity:0.79;}.cls-179{fill:#cfd5b5;opacity:0.79;}.cls-180{fill:#d0d6b6;opacity:0.8;}.cls-181{fill:#d1d7b6;opacity:0.8;}.cls-182{fill:#d2d7b6;opacity:0.81;}.cls-183{fill:#d3d8b6;opacity:0.81;}.cls-184{fill:#d3d9b6;opacity:0.82;}.cls-185{fill:#d4d9b6;opacity:0.82;}.cls-186{fill:#d5dab6;opacity:0.83;}.cls-187{fill:#d6dbb6;opacity:0.83;}.cls-188{fill:#d7dbb6;opacity:0.83;}.cls-189,.cls-190{fill:#d8dcb6;}.cls-189{opacity:0.84;}.cls-190{opacity:0.84;}.cls-191{fill:#d9ddb7;opacity:0.85;}.cls-192{fill:#dadeb7;opacity:0.85;}.cls-193{fill:#dbdeb7;opacity:0.86;}.cls-194{fill:#dcdfb7;opacity:0.86;}.cls-195{fill:#dde0b7;opacity:0.87;}.cls-196{fill:#dee0b7;opacity:0.87;}.cls-197{fill:#dee1b7;opacity:0.88;}.cls-198{fill:#dfe2b7;opacity:0.88;}.cls-199{fill:#e0e2b7;opacity:0.89;}.cls-200{fill:#e1e3b7;opacity:0.89;}.cls-201{fill:#e2e4b7;opacity:0.89;}.cls-202{fill:#e3e4b7;opacity:0.9;}.cls-203{fill:#e4e5b8;opacity:0.9;}.cls-204{fill:#e4e6b8;opacity:0.91;}.cls-205{fill:#e5e6b8;opacity:0.91;}.cls-206{fill:#e6e7b8;opacity:0.92;}.cls-207{fill:#e7e8b8;opacity:0.92;}.cls-208{fill:#e8e8b8;opacity:0.93;}.cls-209,.cls-210{fill:#e9e9b8;}.cls-209{opacity:0.93;}.cls-210{opacity:0.94;}.cls-211{fill:#eaeab8;opacity:0.94;}.cls-212{fill:#ebebb8;opacity:0.94;}.cls-213{fill:#ecebb8;opacity:0.95;}.cls-214{fill:#edecb8;opacity:0.95;}.cls-215{fill:#eeedb8;opacity:0.96;}.cls-216{fill:#efedb8;opacity:0.96;}.cls-217{fill:#efeeb8;opacity:0.97;}.cls-218{fill:#f0efb9;opacity:0.97;}.cls-219{fill:#f1efb9;opacity:0.98;}.cls-220{fill:#f2f0b9;opacity:0.98;}.cls-221{fill:#f3f1b9;opacity:0.99;}.cls-222{fill:#f4f1b9;opacity:0.99;}.cls-223{fill:#f4f2b9;opacity:1;}.cls-224{fill:#f5f3b9;}.cls-225{fill:#f2f2f2;}.cls-226{fill:#bdb6b6;}.cls-227,.cls-236{fill:#d9d9d9;}.cls-228{fill:#fbfbfb;}.cls-229{fill:#fff;}.cls-230{fill:#dc9598;}.cls-232{fill:#ededed;}.cls-233{clip-path:url(#clip-path);}.cls-234{fill:#d6d825;}.cls-235{fill:#2b2b2b;mix-blend-mode:screen;}.cls-237{fill:#f0f0f0;}.cls-238{fill:#f8f8f7;}</style><clipPath id="clip-path"><path class="cls-1" d="M3,24.19c1.62,2.94,5.54,4.46,8.62,4.8,1.38.15,4.18-.48,5.26.51s.52,2.74-.05,3.79c-1.72,3.19-5.33,3-8.35,2.06-2.56-.8-4-3-4.77-5.48a14.62,14.62,0,0,1-.52-2.36,19,19,0,0,1-.19-3C3,24.43,3,24.44,3,24.19Z"/></clipPath></defs><g class="cls-2"><g id="Vrstva_1" data-name="Vrstva 1"><g class="cls-3"><g class="cls-2"><path class="cls-4" d="M9.5,84.15c-4.77,2.75-4.79,7.21-.05,10s12.44,2.75,17.21,0,4.79-7.22.05-10S14.27,81.39,9.5,84.15Z"/></g></g><path class="cls-5" d="M6.53,34.57a4.57,4.57,0,0,0,1.88.8L6.83,32.45C6,33.17,5.71,33.89,6.53,34.57Z"/><path class="cls-6" d="M19.23,80.82A6.36,6.36,0,0,0,24,78.59a9.38,9.38,0,0,0,1.53-2.42A23,23,0,0,0,27,71.63a51.58,51.58,0,0,0,1.07-10c0-3.8-.63-6.34-2-8.24a7.9,7.9,0,0,0-6.76-3.17,7.89,7.89,0,0,0-6.75,3.17c-1.41,1.9-2,4.44-2,8.24a52.35,52.35,0,0,0,1.06,10,23.69,23.69,0,0,0,1.4,4.54,9.1,9.1,0,0,0,1.52,2.42A6.38,6.38,0,0,0,19.23,80.82Z"/><path class="cls-7" d="M12.49,53.42c-1.39,1.9-2,4.44-2,8.22a51.19,51.19,0,0,0,1.07,10,22.93,22.93,0,0,0,1.39,4.53,9.1,9.1,0,0,0,1.52,2.42,6.27,6.27,0,0,0,9.57,0,9.34,9.34,0,0,0,1.51-2.42,22.28,22.28,0,0,0,1.39-4.53,51.19,51.19,0,0,0,1.07-10c0-3.78-.62-6.32-2-8.22a7.85,7.85,0,0,0-6.74-3.18A7.86,7.86,0,0,0,12.49,53.42Z"/><path class="cls-8" d="M12.51,53.45c-1.38,1.9-2,4.43-2,8.2a50.81,50.81,0,0,0,1.07,9.94A22.42,22.42,0,0,0,13,76.11a9.28,9.28,0,0,0,1.51,2.41,6.23,6.23,0,0,0,9.54,0,9.28,9.28,0,0,0,1.51-2.41,23,23,0,0,0,1.39-4.52A51.55,51.55,0,0,0,28,61.66c0-3.78-.63-6.31-2-8.21a7.82,7.82,0,0,0-6.72-3.18A7.82,7.82,0,0,0,12.51,53.45Z"/><path class="cls-9" d="M12.53,53.49c-1.38,1.9-2,4.41-2,8.18a51.43,51.43,0,0,0,1.06,9.91A22.84,22.84,0,0,0,13,76.08a9.45,9.45,0,0,0,1.51,2.41,6.19,6.19,0,0,0,9.5,0,9.12,9.12,0,0,0,1.51-2.4,23.18,23.18,0,0,0,1.38-4.51,51.43,51.43,0,0,0,1.06-9.91c0-3.77-.62-6.28-2-8.18a7.78,7.78,0,0,0-6.7-3.2A7.78,7.78,0,0,0,12.53,53.49Z"/><path class="cls-10" d="M12.55,53.52c-1.37,1.9-2,4.41-2,8.16a50.28,50.28,0,0,0,1.06,9.88A22.44,22.44,0,0,0,13,76.06a9.3,9.3,0,0,0,1.5,2.39,6.17,6.17,0,0,0,9.48,0,9.3,9.3,0,0,0,1.5-2.39,23.11,23.11,0,0,0,1.37-4.5,51,51,0,0,0,1.06-9.88c0-3.75-.62-6.26-2-8.16a7.73,7.73,0,0,0-6.68-3.2A7.72,7.72,0,0,0,12.55,53.52Z"/><path class="cls-11" d="M12.56,53.55c-1.35,1.9-2,4.4-2,8.14a51.53,51.53,0,0,0,1.06,9.85A23.47,23.47,0,0,0,13,76a9.47,9.47,0,0,0,1.5,2.39,6.15,6.15,0,0,0,9.44,0A9.18,9.18,0,0,0,25.44,76a22.82,22.82,0,0,0,1.38-4.48,50.91,50.91,0,0,0,1.05-9.86c0-3.74-.62-6.24-2-8.14a7.69,7.69,0,0,0-6.66-3.21A7.72,7.72,0,0,0,12.56,53.55Z"/><path class="cls-12" d="M12.58,53.59c-1.34,1.89-2,4.38-2,8.11a50.62,50.62,0,0,0,1.06,9.83A22.81,22.81,0,0,0,13,76a9.49,9.49,0,0,0,1.49,2.38,6.11,6.11,0,0,0,9.41,0A9.21,9.21,0,0,0,25.42,76a22.1,22.1,0,0,0,1.37-4.47,50.52,50.52,0,0,0,1.05-9.83c0-3.73-.62-6.22-2-8.11a7.63,7.63,0,0,0-6.64-3.22A7.63,7.63,0,0,0,12.58,53.59Z"/><path class="cls-13" d="M12.6,53.62c-1.34,1.9-2,4.38-2,8.09a50.92,50.92,0,0,0,1,9.8A22.9,22.9,0,0,0,13.05,76a9.49,9.49,0,0,0,1.49,2.38,6.09,6.09,0,0,0,9.37,0A9.21,9.21,0,0,0,25.4,76a22.48,22.48,0,0,0,1.36-4.46,50.93,50.93,0,0,0,1.06-9.8c0-3.71-.63-6.19-2-8.09a7.63,7.63,0,0,0-6.63-3.23A7.62,7.62,0,0,0,12.6,53.62Z"/><path class="cls-14" d="M12.62,53.66c-1.33,1.89-2,4.36-1.95,8.06a49.84,49.84,0,0,0,1.05,9.77,22.62,22.62,0,0,0,1.35,4.45,9.4,9.4,0,0,0,1.48,2.37,6,6,0,0,0,9.35,0,9.4,9.4,0,0,0,1.48-2.37,23.14,23.14,0,0,0,1.36-4.44,51.58,51.58,0,0,0,1.05-9.77c0-3.71-.63-6.18-1.95-8.07a7.55,7.55,0,0,0-6.61-3.24A7.54,7.54,0,0,0,12.62,53.66Z"/><path class="cls-15" d="M12.63,53.69c-1.31,1.89-1.94,4.35-1.94,8a51.29,51.29,0,0,0,1.05,9.75,22.55,22.55,0,0,0,1.36,4.43,9.11,9.11,0,0,0,1.47,2.37,6,6,0,0,0,9.31,0,9.11,9.11,0,0,0,1.47-2.37,22.33,22.33,0,0,0,1.36-4.43,51.19,51.19,0,0,0,1.05-9.74c0-3.69-.63-6.16-1.94-8.05a7.51,7.51,0,0,0-6.59-3.25A7.52,7.52,0,0,0,12.63,53.69Z"/><path class="cls-16" d="M12.65,53.72c-1.31,1.89-1.93,4.35-1.93,8a50.88,50.88,0,0,0,1,9.71,22.27,22.27,0,0,0,1.35,4.42,9,9,0,0,0,1.47,2.36,6,6,0,0,0,9.27,0,9,9,0,0,0,1.47-2.35,22.6,22.6,0,0,0,1.35-4.43,50.79,50.79,0,0,0,1.05-9.71c0-3.68-.62-6.14-1.93-8a7.49,7.49,0,0,0-6.58-3.25A7.48,7.48,0,0,0,12.65,53.72Z"/><path class="cls-17" d="M12.67,53.76c-1.3,1.88-1.93,4.33-1.92,8a50,50,0,0,0,1,9.69,22.24,22.24,0,0,0,1.35,4.4,9.48,9.48,0,0,0,1.46,2.36,6,6,0,0,0,9.25,0,9.23,9.23,0,0,0,1.46-2.35,23.28,23.28,0,0,0,1.35-4.41,51.47,51.47,0,0,0,1-9.69c0-3.67-.62-6.12-1.92-8a7.43,7.43,0,0,0-6.56-3.27A7.4,7.4,0,0,0,12.67,53.76Z"/><path class="cls-18" d="M12.69,53.79c-1.29,1.88-1.92,4.32-1.91,8a49.57,49.57,0,0,0,1,9.66,21.64,21.64,0,0,0,1.34,4.4,9.07,9.07,0,0,0,1.46,2.34,5.92,5.92,0,0,0,9.21,0,9.34,9.34,0,0,0,1.46-2.34,23,23,0,0,0,1.34-4.4,51.07,51.07,0,0,0,1-9.66c0-3.65-.62-6.09-1.91-8a7.39,7.39,0,0,0-6.54-3.27A7.38,7.38,0,0,0,12.69,53.79Z"/><path class="cls-19" d="M12.7,53.82c-1.28,1.89-1.9,4.32-1.9,8a50.76,50.76,0,0,0,1,9.63,23.09,23.09,0,0,0,1.34,4.39,9.33,9.33,0,0,0,1.45,2.34,5.91,5.91,0,0,0,9.18,0,9,9,0,0,0,1.45-2.34,21.62,21.62,0,0,0,1.34-4.38,50.15,50.15,0,0,0,1-9.64c0-3.64-.62-6.07-1.9-8a7.35,7.35,0,0,0-6.52-3.28A7.35,7.35,0,0,0,12.7,53.82Z"/><path class="cls-20" d="M12.72,53.86c-1.27,1.88-1.9,4.3-1.89,7.93a49.84,49.84,0,0,0,1,9.61,22.42,22.42,0,0,0,1.33,4.37,9,9,0,0,0,1.45,2.33,5.87,5.87,0,0,0,9.15,0,9.06,9.06,0,0,0,1.44-2.33,22,22,0,0,0,1.33-4.37,49.74,49.74,0,0,0,1-9.6c0-3.64-.62-6.06-1.89-7.94a7.3,7.3,0,0,0-6.5-3.29A7.31,7.31,0,0,0,12.72,53.86Z"/><path class="cls-21" d="M12.74,53.89c-1.26,1.88-1.89,4.29-1.88,7.91a50.31,50.31,0,0,0,1,9.58,22.78,22.78,0,0,0,1.33,4.36,9.24,9.24,0,0,0,1.44,2.33,5.86,5.86,0,0,0,9.12,0,9.24,9.24,0,0,0,1.44-2.33,22.56,22.56,0,0,0,1.33-4.36,50.13,50.13,0,0,0,1-9.57c0-3.62-.62-6-1.88-7.92a7.26,7.26,0,0,0-6.48-3.3A7.26,7.26,0,0,0,12.74,53.89Z"/><path class="cls-22" d="M12.75,53.93c-1.25,1.87-1.87,4.28-1.86,7.88a49.83,49.83,0,0,0,1,9.55,22,22,0,0,0,1.32,4.35A8.73,8.73,0,0,0,14.68,78a5.82,5.82,0,0,0,9.08,0,9.28,9.28,0,0,0,1.44-2.32,22.59,22.59,0,0,0,1.32-4.34,50,50,0,0,0,1-9.55c0-3.61-.62-6-1.87-7.89a7.2,7.2,0,0,0-6.46-3.31A7.21,7.21,0,0,0,12.75,53.93Z"/><path class="cls-23" d="M12.77,54c-1.24,1.87-1.87,4.27-1.86,7.87a50.51,50.51,0,0,0,1,9.52,22.47,22.47,0,0,0,1.32,4.33A9.15,9.15,0,0,0,14.69,78a5.79,5.79,0,0,0,9,0,9.27,9.27,0,0,0,1.43-2.31,22.12,22.12,0,0,0,1.32-4.34,49.61,49.61,0,0,0,1-9.52c0-3.6-.61-6-1.85-7.87a7.2,7.2,0,0,0-6.45-3.32A7.2,7.2,0,0,0,12.77,54Z"/><path class="cls-24" d="M12.79,54c-1.23,1.87-1.86,4.26-1.85,7.85a49.39,49.39,0,0,0,1,9.49,22.41,22.41,0,0,0,1.31,4.32A9.09,9.09,0,0,0,14.71,78a5.76,5.76,0,0,0,9,0,9,9,0,0,0,1.42-2.3,22.58,22.58,0,0,0,1.32-4.32,51,51,0,0,0,1-9.5c0-3.58-.62-6-1.85-7.85a7.16,7.16,0,0,0-6.43-3.32A7.14,7.14,0,0,0,12.79,54Z"/><path class="cls-25" d="M12.81,54C11.58,55.9,11,58.28,11,61.85a49.78,49.78,0,0,0,1,9.46,22.51,22.51,0,0,0,1.31,4.31,9.36,9.36,0,0,0,1.42,2.31,5.74,5.74,0,0,0,9,0,9,9,0,0,0,1.42-2.3,22.51,22.51,0,0,0,1.31-4.31,50.73,50.73,0,0,0,1-9.47c0-3.57-.62-6-1.84-7.82a7.11,7.11,0,0,0-6.41-3.34A7.11,7.11,0,0,0,12.81,54Z"/><path class="cls-26" d="M12.82,54.06C11.61,55.93,11,58.3,11,61.86a49.66,49.66,0,0,0,1,9.44,22.32,22.32,0,0,0,1.3,4.29,9.55,9.55,0,0,0,1.42,2.31,5.72,5.72,0,0,0,9,0,9.36,9.36,0,0,0,1.42-2.3,21.75,21.75,0,0,0,1.3-4.3,50.31,50.31,0,0,0,1-9.43c0-3.56-.62-5.94-1.83-7.81a7.07,7.07,0,0,0-6.39-3.34A7.07,7.07,0,0,0,12.82,54.06Z"/><path class="cls-27" d="M12.84,54.09C11.64,56,11,58.32,11,61.87a50.08,50.08,0,0,0,1,9.41,23.29,23.29,0,0,0,1.3,4.29,9.11,9.11,0,0,0,1.42,2.29A5.86,5.86,0,0,0,19.22,80a5.89,5.89,0,0,0,4.46-2.17,9.08,9.08,0,0,0,1.4-2.29,22.14,22.14,0,0,0,1.31-4.28,49.35,49.35,0,0,0,1-9.41c0-3.55-.62-5.92-1.82-7.79a7,7,0,0,0-6.37-3.35A7.06,7.06,0,0,0,12.84,54.09Z"/><path class="cls-28" d="M12.86,54.13C11.66,56,11,58.35,11.05,61.88a49.06,49.06,0,0,0,1,9.39,21.61,21.61,0,0,0,1.3,4.27,9.08,9.08,0,0,0,1.4,2.29A5.85,5.85,0,0,0,19.21,80a5.87,5.87,0,0,0,4.45-2.16,9.08,9.08,0,0,0,1.4-2.29,22.08,22.08,0,0,0,1.3-4.27,49,49,0,0,0,1-9.38c0-3.54-.61-5.9-1.81-7.76a7,7,0,0,0-6.36-3.36A7,7,0,0,0,12.86,54.13Z"/><path class="cls-29" d="M12.88,54.16c-1.19,1.86-1.81,4.21-1.8,7.73a49.55,49.55,0,0,0,1,9.36,22.18,22.18,0,0,0,1.3,4.26,9,9,0,0,0,1.4,2.28,5.61,5.61,0,0,0,8.85,0A9.12,9.12,0,0,0,25,75.52a22.46,22.46,0,0,0,1.29-4.26,48.76,48.76,0,0,0,1-9.36c0-3.52-.61-5.88-1.8-7.74a7,7,0,0,0-6.34-3.37A6.94,6.94,0,0,0,12.88,54.16Z"/><path class="cls-30" d="M12.89,54.2c-1.17,1.85-1.8,4.2-1.79,7.71a49.24,49.24,0,0,0,1,9.32,21.64,21.64,0,0,0,1.29,4.25,9.28,9.28,0,0,0,1.39,2.28,5.81,5.81,0,0,0,4.41,2.15,5.78,5.78,0,0,0,4.41-2.15A9.12,9.12,0,0,0,25,75.49a23.09,23.09,0,0,0,1.29-4.25,49.24,49.24,0,0,0,1-9.33c0-3.51-.61-5.86-1.79-7.71a6.91,6.91,0,0,0-6.32-3.38A6.92,6.92,0,0,0,12.89,54.2Z"/><path class="cls-31" d="M12.91,54.23c-1.17,1.85-1.79,4.19-1.78,7.69a49.84,49.84,0,0,0,1,9.3,22.83,22.83,0,0,0,1.29,4.23,8.92,8.92,0,0,0,1.39,2.27,5.76,5.76,0,0,0,4.39,2.15,5.78,5.78,0,0,0,4.4-2.15A8.84,8.84,0,0,0,25,75.46a21.31,21.31,0,0,0,1.29-4.24,48.84,48.84,0,0,0,1-9.3c0-3.5-.61-5.83-1.78-7.69a6.88,6.88,0,0,0-6.3-3.39A6.88,6.88,0,0,0,12.91,54.23Z"/><path class="cls-32" d="M12.93,54.26c-1.16,1.86-1.78,4.18-1.77,7.67a49.43,49.43,0,0,0,1,9.27,22,22,0,0,0,1.28,4.22,9.39,9.39,0,0,0,1.38,2.27,5.79,5.79,0,0,0,4.38,2.15,5.77,5.77,0,0,0,4.38-2.15A9,9,0,0,0,25,75.43a22,22,0,0,0,1.28-4.22,48.62,48.62,0,0,0,1-9.27c0-3.49-.61-5.82-1.76-7.68a6.84,6.84,0,0,0-6.29-3.39A6.85,6.85,0,0,0,12.93,54.26Z"/><path class="cls-33" d="M12.94,54.3a13.79,13.79,0,0,0-1.75,7.64,49.11,49.11,0,0,0,1,9.24,21.69,21.69,0,0,0,1.28,4.21,9.13,9.13,0,0,0,1.38,2.26,5.7,5.7,0,0,0,4.36,2.15,5.7,5.7,0,0,0,4.36-2.15A9.06,9.06,0,0,0,25,75.4a21.91,21.91,0,0,0,1.28-4.21,49.11,49.11,0,0,0,1-9.24c0-3.48-.6-5.8-1.75-7.65a6.82,6.82,0,0,0-6.27-3.41A6.82,6.82,0,0,0,12.94,54.3Z"/><path class="cls-34" d="M13,54.33c-1.14,1.85-1.76,4.16-1.75,7.62a48.91,48.91,0,0,0,1,9.22,21.72,21.72,0,0,0,1.27,4.19,9.11,9.11,0,0,0,1.37,2.26,5.72,5.72,0,0,0,4.35,2.14,5.72,5.72,0,0,0,4.35-2.14,9.35,9.35,0,0,0,1.37-2.25,22.45,22.45,0,0,0,1.27-4.19,48.09,48.09,0,0,0,1-9.22c0-3.47-.6-5.78-1.74-7.63a6.77,6.77,0,0,0-6.25-3.41A6.77,6.77,0,0,0,13,54.33Z"/><path class="cls-35" d="M13,54.37A13.81,13.81,0,0,0,11.24,62a49.42,49.42,0,0,0,1,9.19,22.68,22.68,0,0,0,1.27,4.19,8.86,8.86,0,0,0,1.37,2.24,5.66,5.66,0,0,0,4.33,2.14,5.68,5.68,0,0,0,4.33-2.14,9,9,0,0,0,1.36-2.24,20.92,20.92,0,0,0,1.27-4.18,48.6,48.6,0,0,0,1-9.19,13.84,13.84,0,0,0-1.74-7.6,6.74,6.74,0,0,0-6.23-3.43A6.74,6.74,0,0,0,13,54.37Z"/><path class="cls-36" d="M13,54.4A13.7,13.7,0,0,0,11.27,62a49.1,49.1,0,0,0,1,9.16,21.87,21.87,0,0,0,1.26,4.18,9.14,9.14,0,0,0,1.36,2.24,5.66,5.66,0,0,0,4.32,2.14,5.64,5.64,0,0,0,4.31-2.14,9.26,9.26,0,0,0,1.36-2.23,22.56,22.56,0,0,0,1.27-4.18,49,49,0,0,0,1-9.16,13.88,13.88,0,0,0-1.73-7.58A6.7,6.7,0,0,0,19.21,51,6.69,6.69,0,0,0,13,54.4Z"/><path class="cls-37" d="M13,54.43A13.83,13.83,0,0,0,11.3,62a48.78,48.78,0,0,0,1,9.14,22.6,22.6,0,0,0,1.26,4.16,8.88,8.88,0,0,0,1.36,2.23,5.62,5.62,0,0,0,4.3,2.14,5.6,5.6,0,0,0,4.29-2.14,9,9,0,0,0,1.36-2.22,22.6,22.6,0,0,0,1.26-4.16,48.8,48.8,0,0,0,1-9.14,13.93,13.93,0,0,0-1.72-7.56A6.66,6.66,0,0,0,19.21,51,6.67,6.67,0,0,0,13,54.43Z"/><path class="cls-38" d="M13,54.47A13.91,13.91,0,0,0,11.32,62a48.47,48.47,0,0,0,1,9.1,21.56,21.56,0,0,0,1.25,4.15,9.26,9.26,0,0,0,1.36,2.23,5.6,5.6,0,0,0,4.28,2.13,5.62,5.62,0,0,0,4.28-2.13,9.29,9.29,0,0,0,1.35-2.22,21.56,21.56,0,0,0,1.25-4.15,48.47,48.47,0,0,0,1-9.1,13.77,13.77,0,0,0-1.71-7.54A6.64,6.64,0,0,0,19.21,51,6.64,6.64,0,0,0,13,54.47Z"/><path class="cls-39" d="M13.05,54.5A13.8,13.8,0,0,0,11.35,62a49.18,49.18,0,0,0,1,9.08,23.07,23.07,0,0,0,1.25,4.13,9,9,0,0,0,1.35,2.22,5.58,5.58,0,0,0,4.27,2.13,5.58,5.58,0,0,0,4.26-2.13,8.6,8.6,0,0,0,1.34-2.21,21.54,21.54,0,0,0,1.25-4.13,48.26,48.26,0,0,0,1-9.08,13.84,13.84,0,0,0-1.7-7.52A6.58,6.58,0,0,0,19.21,51,6.59,6.59,0,0,0,13.05,54.5Z"/><path class="cls-40" d="M13.07,54.53A13.84,13.84,0,0,0,11.38,62a48.77,48.77,0,0,0,1,9,22.21,22.21,0,0,0,1.24,4.12A9,9,0,0,0,15,77.41a5.53,5.53,0,0,0,4.24,2.12,5.53,5.53,0,0,0,4.25-2.12,8.6,8.6,0,0,0,1.34-2.21A21.2,21.2,0,0,0,26,71.08a48.68,48.68,0,0,0,1-9,13.9,13.9,0,0,0-1.69-7.5,6.55,6.55,0,0,0-6.14-3.47A6.55,6.55,0,0,0,13.07,54.53Z"/><path class="cls-41" d="M13.08,54.57A13.83,13.83,0,0,0,11.41,62a47.53,47.53,0,0,0,1,9,20.47,20.47,0,0,0,1.24,4.11A8.88,8.88,0,0,0,15,77.37,5.54,5.54,0,0,0,19.2,79.5a5.54,5.54,0,0,0,4.24-2.13,8.63,8.63,0,0,0,1.33-2.2A21.86,21.86,0,0,0,26,71.06a48.36,48.36,0,0,0,1-9,13.89,13.89,0,0,0-1.68-7.47,6.52,6.52,0,0,0-6.12-3.48A6.54,6.54,0,0,0,13.08,54.57Z"/><path class="cls-42" d="M13.1,54.6A14,14,0,0,0,11.43,62a49.1,49.1,0,0,0,1,9,21.34,21.34,0,0,0,1.24,4.09A8.88,8.88,0,0,0,15,77.34a5.5,5.5,0,0,0,4.21,2.12,5.52,5.52,0,0,0,4.22-2.12,8.81,8.81,0,0,0,1.33-2.2A21.17,21.17,0,0,0,26,71.05a47.33,47.33,0,0,0,1-9,13.94,13.94,0,0,0-1.66-7.45,6.5,6.5,0,0,0-6.11-3.49A6.5,6.5,0,0,0,13.1,54.6Z"/><path class="cls-43" d="M13.12,54.64a13.9,13.9,0,0,0-1.66,7.41,47.84,47.84,0,0,0,1,9,21,21,0,0,0,1.23,4.08A8.91,8.91,0,0,0,15,77.3a5.47,5.47,0,0,0,4.2,2.12,5.45,5.45,0,0,0,4.2-2.12,8.83,8.83,0,0,0,1.32-2.18A21.34,21.34,0,0,0,26,71a47.82,47.82,0,0,0,1-9,14,14,0,0,0-1.65-7.42,6.46,6.46,0,0,0-6.09-3.5A6.44,6.44,0,0,0,13.12,54.64Z"/><path class="cls-44" d="M13.14,54.67a13.85,13.85,0,0,0-1.65,7.39,47.51,47.51,0,0,0,1,8.94,22,22,0,0,0,1.23,4.08A8.9,8.9,0,0,0,15,77.27a5.45,5.45,0,0,0,4.18,2.11,5.47,5.47,0,0,0,4.19-2.11,9.13,9.13,0,0,0,1.31-2.18A22.12,22.12,0,0,0,25.93,71a47.69,47.69,0,0,0,1-8.94,14,14,0,0,0-1.64-7.41,6.44,6.44,0,0,0-6.07-3.51A6.42,6.42,0,0,0,13.14,54.67Z"/><path class="cls-45" d="M13.15,54.7a14,14,0,0,0-1.63,7.38,47.29,47.29,0,0,0,1,8.91,21.08,21.08,0,0,0,1.22,4.06A9.13,9.13,0,0,0,15,77.23a5.46,5.46,0,0,0,4.17,2.12,5.46,5.46,0,0,0,4.17-2.12,9.06,9.06,0,0,0,1.31-2.17A21.08,21.08,0,0,0,25.9,71a47.2,47.2,0,0,0,1-8.91,14,14,0,0,0-1.63-7.39,6.4,6.4,0,0,0-6.05-3.51A6.4,6.4,0,0,0,13.15,54.7Z"/><path class="cls-46" d="M13.17,54.74a13.92,13.92,0,0,0-1.63,7.35,48.57,48.57,0,0,0,1,8.88,21,21,0,0,0,1.22,4,9.13,9.13,0,0,0,1.31,2.18,5.39,5.39,0,0,0,4.15,2.11,5.42,5.42,0,0,0,4.15-2.11A9.06,9.06,0,0,0,24.66,75a22.47,22.47,0,0,0,1.22-4,48.57,48.57,0,0,0,1-8.88,14,14,0,0,0-1.63-7.36,6.35,6.35,0,0,0-6-3.53A6.36,6.36,0,0,0,13.17,54.74Z"/><path class="cls-47" d="M13.19,54.77a14,14,0,0,0-1.62,7.33,47.4,47.4,0,0,0,1,8.85,21.62,21.62,0,0,0,1.21,4,9.38,9.38,0,0,0,1.3,2.17,5.39,5.39,0,0,0,4.14,2.11,5.35,5.35,0,0,0,4.13-2.11A8.48,8.48,0,0,0,24.63,75a20.72,20.72,0,0,0,1.22-4,48.36,48.36,0,0,0,1-8.86,14,14,0,0,0-1.62-7.34,6.33,6.33,0,0,0-6-3.53A6.33,6.33,0,0,0,13.19,54.77Z"/><path class="cls-48" d="M13.2,54.8a14.15,14.15,0,0,0-1.6,7.31,47.17,47.17,0,0,0,1,8.83,21.6,21.6,0,0,0,1.21,4,9,9,0,0,0,1.3,2.17,5.35,5.35,0,0,0,4.12,2.1,5.39,5.39,0,0,0,4.12-2.1A9,9,0,0,0,24.61,75a21.37,21.37,0,0,0,1.21-4,48,48,0,0,0,1-8.83,14.06,14.06,0,0,0-1.61-7.32,6.29,6.29,0,0,0-6-3.54A6.31,6.31,0,0,0,13.2,54.8Z"/><path class="cls-49" d="M13.22,54.84a13.94,13.94,0,0,0-1.59,7.28,46.86,46.86,0,0,0,1,8.8,21.54,21.54,0,0,0,1.2,4,8.48,8.48,0,0,0,1.3,2.16,5.32,5.32,0,0,0,4.1,2.1,5.33,5.33,0,0,0,4.1-2.1A8.81,8.81,0,0,0,24.59,75a21.48,21.48,0,0,0,1.21-4,48.69,48.69,0,0,0,1-8.81,14.07,14.07,0,0,0-1.6-7.29,6.24,6.24,0,0,0-6-3.55A6.26,6.26,0,0,0,13.22,54.84Z"/><path class="cls-50" d="M13.24,54.87a14.09,14.09,0,0,0-1.59,7.26,48.25,48.25,0,0,0,1,8.77,21.18,21.18,0,0,0,1.2,4,9,9,0,0,0,1.29,2.16,5.3,5.3,0,0,0,4.09,2.1,5.29,5.29,0,0,0,4.08-2.1,8.81,8.81,0,0,0,1.29-2.14,21.65,21.65,0,0,0,1.2-4,47.38,47.38,0,0,0,1-8.77,14,14,0,0,0-1.59-7.28,6.23,6.23,0,0,0-5.95-3.56A6.24,6.24,0,0,0,13.24,54.87Z"/><path class="cls-51" d="M13.26,54.91a14,14,0,0,0-1.58,7.23,47.08,47.08,0,0,0,1,8.75,21.22,21.22,0,0,0,1.19,4A8.69,8.69,0,0,0,15.13,77a5.28,5.28,0,0,0,4.07,2.1A5.31,5.31,0,0,0,23.27,77a9,9,0,0,0,1.28-2.13,22.38,22.38,0,0,0,1.19-4,47.07,47.07,0,0,0,1-8.74,14.16,14.16,0,0,0-1.57-7.25,6.2,6.2,0,0,0-5.94-3.57A6.19,6.19,0,0,0,13.26,54.91Z"/><path class="cls-52" d="M13.27,54.94a14.08,14.08,0,0,0-1.56,7.22,47.59,47.59,0,0,0,1,8.71,22.25,22.25,0,0,0,1.19,4A8.79,8.79,0,0,0,15.14,77a5.29,5.29,0,0,0,4.06,2.09A5.29,5.29,0,0,0,23.25,77a8.89,8.89,0,0,0,1.27-2.13,21.27,21.27,0,0,0,1.2-4,47.8,47.8,0,0,0,1-8.72,14.14,14.14,0,0,0-1.56-7.23,6.18,6.18,0,0,0-5.92-3.58A6.18,6.18,0,0,0,13.27,54.94Z"/><path class="cls-53" d="M13.29,55a14,14,0,0,0-1.55,7.2,46.62,46.62,0,0,0,1,8.69,21.5,21.5,0,0,0,1.18,4A9.19,9.19,0,0,0,15.16,77a5.22,5.22,0,0,0,4,2.08,5.24,5.24,0,0,0,4-2.09,8.63,8.63,0,0,0,1.27-2.12,22,22,0,0,0,1.19-4,47.28,47.28,0,0,0,1-8.69A14.09,14.09,0,0,0,25.1,55a6.15,6.15,0,0,0-5.91-3.58A6.14,6.14,0,0,0,13.29,55Z"/><path class="cls-54" d="M13.31,55a14.14,14.14,0,0,0-1.55,7.17,47.06,47.06,0,0,0,1,8.66,21.31,21.31,0,0,0,1.19,4,8.88,8.88,0,0,0,1.26,2.13,5.23,5.23,0,0,0,4,2.09,5.2,5.2,0,0,0,4-2.09,8.82,8.82,0,0,0,1.27-2.12,21,21,0,0,0,1.18-3.94,47.16,47.16,0,0,0,1-8.67A14.11,14.11,0,0,0,25.08,55a6.12,6.12,0,0,0-5.89-3.6A6.11,6.11,0,0,0,13.31,55Z"/><path class="cls-55" d="M13.33,55a14.09,14.09,0,0,0-1.54,7.15,46.64,46.64,0,0,0,1,8.63,21,21,0,0,0,1.18,3.94,8.88,8.88,0,0,0,1.26,2.13,5.2,5.2,0,0,0,4,2.08,5.23,5.23,0,0,0,4-2.08,9.14,9.14,0,0,0,1.26-2.12,21.72,21.72,0,0,0,1.17-3.93,46.84,46.84,0,0,0,1-8.64A14.16,14.16,0,0,0,25.06,55a6.07,6.07,0,0,0-5.87-3.6A6.06,6.06,0,0,0,13.33,55Z"/><path class="cls-56" d="M13.34,55.07a14.15,14.15,0,0,0-1.52,7.13,47.38,47.38,0,0,0,.95,8.61A21,21,0,0,0,14,74.73a8.79,8.79,0,0,0,1.25,2.12,5.16,5.16,0,0,0,4,2.08,5.18,5.18,0,0,0,4-2.08,8.64,8.64,0,0,0,1.25-2.1,20.89,20.89,0,0,0,1.18-3.93,47.27,47.27,0,0,0,.95-8.6A14.24,14.24,0,0,0,25,55.07a6.06,6.06,0,0,0-5.85-3.61A6.06,6.06,0,0,0,13.34,55.07Z"/><path class="cls-57" d="M13.36,55.11a14.17,14.17,0,0,0-1.51,7.1,46.1,46.1,0,0,0,1,8.58A20.93,20.93,0,0,0,14,74.7a8.79,8.79,0,0,0,1.25,2.12,5.13,5.13,0,0,0,4,2.07,5.13,5.13,0,0,0,4-2.07,8.84,8.84,0,0,0,1.25-2.1,21.16,21.16,0,0,0,1.17-3.91,48,48,0,0,0,1-8.58A14.25,14.25,0,0,0,25,55.11a6,6,0,0,0-5.83-3.62A6,6,0,0,0,13.36,55.11Z"/><path class="cls-58" d="M13.38,55.14a14.22,14.22,0,0,0-1.51,7.08,46.64,46.64,0,0,0,1,8.55A20.57,20.57,0,0,0,14,74.67a8.83,8.83,0,0,0,1.24,2.11,5.14,5.14,0,0,0,4,2.07,5.14,5.14,0,0,0,4-2.07,8.88,8.88,0,0,0,1.24-2.09,21.89,21.89,0,0,0,1.16-3.9,46.65,46.65,0,0,0,1-8.55A14.31,14.31,0,0,0,25,55.14a6,6,0,0,0-5.81-3.63A6,6,0,0,0,13.38,55.14Z"/><path class="cls-59" d="M13.39,55.18a14.24,14.24,0,0,0-1.49,7.06,46.51,46.51,0,0,0,.95,8.52A21.63,21.63,0,0,0,14,74.64a9,9,0,0,0,1.24,2.11,5.12,5.12,0,0,0,3.94,2.07,5.12,5.12,0,0,0,3.94-2.07,8.88,8.88,0,0,0,1.24-2.09,21.63,21.63,0,0,0,1.16-3.88,46.52,46.52,0,0,0,.95-8.53A14.19,14.19,0,0,0,25,55.18a6,6,0,0,0-5.79-3.64A6,6,0,0,0,13.39,55.18Z"/><path class="cls-60" d="M13.41,55.21a14.24,14.24,0,0,0-1.48,7,46.86,46.86,0,0,0,.94,8.49A21.63,21.63,0,0,0,14,74.62a9.09,9.09,0,0,0,1.24,2.09,5.05,5.05,0,0,0,3.92,2.07,5.05,5.05,0,0,0,3.92-2.07,8.66,8.66,0,0,0,1.23-2.08,21.5,21.5,0,0,0,1.16-3.87,46.2,46.2,0,0,0,.95-8.5,14.28,14.28,0,0,0-1.48-7,5.94,5.94,0,0,0-5.78-3.65A5.94,5.94,0,0,0,13.41,55.21Z"/><path class="cls-61" d="M13.43,55.24a14.31,14.31,0,0,0-1.47,7,45.66,45.66,0,0,0,.94,8.46,20.77,20.77,0,0,0,1.15,3.87,9.07,9.07,0,0,0,1.23,2.09,5.07,5.07,0,0,0,3.91,2.06,5,5,0,0,0,3.9-2.06,8.66,8.66,0,0,0,1.23-2.08,20.42,20.42,0,0,0,1.15-3.86,45.69,45.69,0,0,0,1-8.47,14.35,14.35,0,0,0-1.47-7c-1.38-2.65-3.18-3.65-5.76-3.65A5.9,5.9,0,0,0,13.43,55.24Z"/><path class="cls-62" d="M13.45,55.28a14.18,14.18,0,0,0-1.47,7,47.32,47.32,0,0,0,.94,8.44,21.55,21.55,0,0,0,1.15,3.85,9,9,0,0,0,1.23,2.08,5,5,0,0,0,3.89,2.06,5,5,0,0,0,3.89-2.06,8.83,8.83,0,0,0,1.22-2.06,21.55,21.55,0,0,0,1.15-3.85,46.41,46.41,0,0,0,.94-8.44,14.36,14.36,0,0,0-1.46-7c-1.37-2.67-3.17-3.67-5.74-3.67S14.82,52.61,13.45,55.28Z"/><path class="cls-63" d="M13.46,55.31a14.39,14.39,0,0,0-1.45,7A46,46,0,0,0,13,70.69a21.23,21.23,0,0,0,1.14,3.84,9,9,0,0,0,1.22,2.08,5,5,0,0,0,3.88,2.06,5,5,0,0,0,3.87-2.06,9.42,9.42,0,0,0,1.22-2.06,21.23,21.23,0,0,0,1.14-3.84,46.09,46.09,0,0,0,.94-8.41,14.34,14.34,0,0,0-1.45-7c-1.37-2.67-3.15-3.67-5.72-3.67S14.83,52.64,13.46,55.31Z"/><path class="cls-64" d="M13.48,55.34A14.34,14.34,0,0,0,12,62.29,45.86,45.86,0,0,0,13,70.68a22.07,22.07,0,0,0,1.14,3.82,8.7,8.7,0,0,0,1.22,2.07,5,5,0,0,0,3.86,2.06A5,5,0,0,0,23,76.57a8.74,8.74,0,0,0,1.21-2,20.67,20.67,0,0,0,1.14-3.82,45.87,45.87,0,0,0,.94-8.39,14.4,14.4,0,0,0-1.44-7c-1.36-2.68-3.14-3.68-5.7-3.68S14.85,52.66,13.48,55.34Z"/><path class="cls-65" d="M13.5,55.38a14.33,14.33,0,0,0-1.44,6.92A46.34,46.34,0,0,0,13,70.66a21.15,21.15,0,0,0,1.13,3.81,8.89,8.89,0,0,0,1.21,2.07,5,5,0,0,0,3.84,2,5,5,0,0,0,3.85-2,9.08,9.08,0,0,0,1.2-2.05,21.09,21.09,0,0,0,1.14-3.81,46.32,46.32,0,0,0,.93-8.36,14.42,14.42,0,0,0-1.43-6.94c-1.36-2.7-3.13-3.69-5.69-3.69S14.86,52.68,13.5,55.38Z"/><path class="cls-66" d="M13.52,55.41a14.31,14.31,0,0,0-1.43,6.9A46.8,46.8,0,0,0,13,70.64a21,21,0,0,0,1.13,3.8,8.61,8.61,0,0,0,1.21,2.06,4.91,4.91,0,0,0,3.82,2,4.94,4.94,0,0,0,3.83-2,9,9,0,0,0,1.2-2,21,21,0,0,0,1.13-3.8,45,45,0,0,0,.93-8.33,14.26,14.26,0,0,0-1.42-6.92c-1.35-2.71-3.12-3.7-5.67-3.7S14.87,52.71,13.52,55.41Z"/><path class="cls-67" d="M13.53,55.45a14.45,14.45,0,0,0-1.41,6.88,46.68,46.68,0,0,0,.93,8.3,21,21,0,0,0,1.13,3.78,8.78,8.78,0,0,0,1.19,2.06,4.92,4.92,0,0,0,3.81,2,4.91,4.91,0,0,0,3.81-2,9,9,0,0,0,1.2-2,21.93,21.93,0,0,0,1.12-3.78,44.91,44.91,0,0,0,.93-8.31,14.26,14.26,0,0,0-1.41-6.89c-1.35-2.72-3.1-3.71-5.65-3.71S14.89,52.73,13.53,55.45Z"/><path class="cls-68" d="M13.55,55.48a14.4,14.4,0,0,0-1.4,6.86,45.43,45.43,0,0,0,.92,8.27,20.64,20.64,0,0,0,1.13,3.77,8.71,8.71,0,0,0,1.19,2.05,4.88,4.88,0,0,0,3.79,2,4.91,4.91,0,0,0,3.8-2,8.54,8.54,0,0,0,1.18-2,20.64,20.64,0,0,0,1.13-3.77,46.35,46.35,0,0,0,.93-8.27,14.48,14.48,0,0,0-1.41-6.88c-1.34-2.73-3.09-3.72-5.63-3.72S14.9,52.75,13.55,55.48Z"/><path class="cls-69" d="M13.57,55.51a14.49,14.49,0,0,0-1.4,6.84,45.92,45.92,0,0,0,.93,8.24,20.94,20.94,0,0,0,1.12,3.77,8.82,8.82,0,0,0,1.18,2,4.9,4.9,0,0,0,3.78,2,4.9,4.9,0,0,0,3.78-2,8.88,8.88,0,0,0,1.18-2,21.07,21.07,0,0,0,1.12-3.76,46,46,0,0,0,.93-8.25,14.43,14.43,0,0,0-1.4-6.86c-1.34-2.74-3.08-3.72-5.61-3.72S14.91,52.77,13.57,55.51Z"/><path class="cls-70" d="M13.59,55.55a14.36,14.36,0,0,0-1.39,6.81,46.6,46.6,0,0,0,.92,8.22,20.94,20.94,0,0,0,1.12,3.75,8.54,8.54,0,0,0,1.18,2,4.82,4.82,0,0,0,3.76,2,4.82,4.82,0,0,0,3.76-2,8.59,8.59,0,0,0,1.18-2,20.75,20.75,0,0,0,1.11-3.75,45.7,45.7,0,0,0,.93-8.22,14.56,14.56,0,0,0-1.38-6.83c-1.34-2.76-3.07-3.74-5.6-3.74S14.93,52.8,13.59,55.55Z"/><path class="cls-71" d="M13.6,55.58a14.6,14.6,0,0,0-1.37,6.79,45.35,45.35,0,0,0,.92,8.19,20.87,20.87,0,0,0,1.11,3.74,8.74,8.74,0,0,0,1.18,2,4.81,4.81,0,0,0,3.74,2,4.81,4.81,0,0,0,3.74-2,8.59,8.59,0,0,0,1.18-2,21.72,21.72,0,0,0,1.11-3.74,46.27,46.27,0,0,0,.92-8.19,14.66,14.66,0,0,0-1.37-6.81c-1.34-2.76-3.06-3.74-5.58-3.74S14.94,52.82,13.6,55.58Z"/><path class="cls-72" d="M13.62,55.61a14.43,14.43,0,0,0-1.36,6.77,45.82,45.82,0,0,0,.91,8.16,21.58,21.58,0,0,0,1.11,3.73,8.8,8.8,0,0,0,1.17,2,4.82,4.82,0,0,0,3.73,2,4.82,4.82,0,0,0,3.73-2,8.48,8.48,0,0,0,1.16-2,20.61,20.61,0,0,0,1.11-3.72,46,46,0,0,0,.92-8.17,14.61,14.61,0,0,0-1.36-6.79c-1.34-2.77-3-3.75-5.56-3.75S15,52.84,13.62,55.61Z"/><path class="cls-73" d="M13.64,55.65a14.54,14.54,0,0,0-1.36,6.74,45.72,45.72,0,0,0,.92,8.14,20.54,20.54,0,0,0,1.1,3.71,8.45,8.45,0,0,0,1.17,2,4.76,4.76,0,0,0,3.71,2,4.79,4.79,0,0,0,3.71-2,8.84,8.84,0,0,0,1.16-2,20.54,20.54,0,0,0,1.1-3.71,44.71,44.71,0,0,0,.92-8.14,14.49,14.49,0,0,0-1.35-6.76c-1.33-2.79-3-3.76-5.54-3.76S15,52.86,13.64,55.65Z"/><path class="cls-74" d="M13.65,55.68a14.55,14.55,0,0,0-1.34,6.73,44.38,44.38,0,0,0,.92,8.1,20.47,20.47,0,0,0,1.09,3.7,8.92,8.92,0,0,0,1.16,2,4.75,4.75,0,0,0,3.7,2,4.74,4.74,0,0,0,3.69-2,8.55,8.55,0,0,0,1.16-2,20.22,20.22,0,0,0,1.09-3.7,44.28,44.28,0,0,0,.92-8.1,14.61,14.61,0,0,0-1.34-6.75c-1.33-2.8-3-3.77-5.52-3.77S15,52.89,13.65,55.68Z"/><path class="cls-75" d="M13.67,55.72a14.55,14.55,0,0,0-1.33,6.7,44.15,44.15,0,0,0,.91,8.08,21,21,0,0,0,1.09,3.68,8.92,8.92,0,0,0,1.16,2,4.72,4.72,0,0,0,3.68,2,4.75,4.75,0,0,0,3.68-2,9.14,9.14,0,0,0,1.15-2,21,21,0,0,0,1.09-3.68A44.15,44.15,0,0,0,26,62.44a14.48,14.48,0,0,0-1.33-6.72c-1.32-2.81-3-3.78-5.5-3.78S15,52.91,13.67,55.72Z"/><path class="cls-76" d="M13.69,55.75a14.37,14.37,0,0,0-1.32,6.68,43.83,43.83,0,0,0,.91,8.05,20.39,20.39,0,0,0,1.08,3.67,9,9,0,0,0,1.15,2,4.72,4.72,0,0,0,3.67,2,4.72,4.72,0,0,0,3.66-2,8.58,8.58,0,0,0,1.14-2,20.46,20.46,0,0,0,1.09-3.68,43.83,43.83,0,0,0,.91-8,14.46,14.46,0,0,0-1.32-6.7c-1.32-2.82-3-3.79-5.48-3.79S15,52.93,13.69,55.75Z"/><path class="cls-77" d="M13.71,55.78a14.6,14.6,0,0,0-1.32,6.66,45.3,45.3,0,0,0,.91,8,21.24,21.24,0,0,0,1.08,3.67,8.6,8.6,0,0,0,1.15,2,4.66,4.66,0,0,0,3.64,2,4.68,4.68,0,0,0,3.65-2,8.8,8.8,0,0,0,1.14-2A20.26,20.26,0,0,0,25,70.49a43.52,43.52,0,0,0,.91-8,14.41,14.41,0,0,0-1.31-6.68C23.33,53,21.66,52,19.17,52S15,53,13.71,55.78Z"/><path class="cls-78" d="M13.72,55.82a14.58,14.58,0,0,0-1.3,6.63,44.17,44.17,0,0,0,.91,8A20.43,20.43,0,0,0,14.4,74.1a9,9,0,0,0,1.14,2,4.69,4.69,0,0,0,3.63,2,4.65,4.65,0,0,0,3.63-2,8.72,8.72,0,0,0,1.14-2A21.23,21.23,0,0,0,25,70.47a44.05,44.05,0,0,0,.9-8,14.41,14.41,0,0,0-1.3-6.65C23.31,53,21.65,52,19.17,52S15,53,13.72,55.82Z"/><path class="cls-79" d="M13.74,55.85a14.4,14.4,0,0,0-1.29,6.61,44.63,44.63,0,0,0,.9,8,22.1,22.1,0,0,0,1.07,3.64,8.66,8.66,0,0,0,1.14,2,4.64,4.64,0,0,0,3.61,2,4.66,4.66,0,0,0,3.62-2,9.1,9.1,0,0,0,1.13-2A20.9,20.9,0,0,0,25,70.45a44.64,44.64,0,0,0,.91-8,14.79,14.79,0,0,0-1.29-6.63C23.3,53,21.64,52,19.17,52S15.05,53,13.74,55.85Z"/><path class="cls-80" d="M13.76,55.88a14.51,14.51,0,0,0-1.28,6.59,43.41,43.41,0,0,0,.9,7.94A19.93,19.93,0,0,0,14.45,74a8.49,8.49,0,0,0,1.13,2,4.6,4.6,0,0,0,3.59,2,4.63,4.63,0,0,0,3.6-2,8.39,8.39,0,0,0,1.12-2A20,20,0,0,0,25,70.44a44.42,44.42,0,0,0,.91-7.95,14.74,14.74,0,0,0-1.28-6.61c-1.31-2.86-3-3.82-5.42-3.82S15.06,53,13.76,55.88Z"/><path class="cls-81" d="M13.78,55.92a14.52,14.52,0,0,0-1.28,6.57,44.07,44.07,0,0,0,.9,7.91A19.92,19.92,0,0,0,14.47,74a8.55,8.55,0,0,0,1.12,2,4.59,4.59,0,0,0,3.58,2,4.59,4.59,0,0,0,3.58-2,8.61,8.61,0,0,0,1.12-2,20.49,20.49,0,0,0,1.07-3.61,44,44,0,0,0,.9-7.91,14.76,14.76,0,0,0-1.27-6.59c-1.3-2.88-2.94-3.83-5.4-3.83S15.08,53,13.78,55.92Z"/><path class="cls-82" d="M13.79,56a14.76,14.76,0,0,0-1.26,6.55,43.75,43.75,0,0,0,.9,7.88A19.85,19.85,0,0,0,14.49,74a8.4,8.4,0,0,0,1.12,2,4.57,4.57,0,0,0,3.56,2,4.59,4.59,0,0,0,3.57-2A8.43,8.43,0,0,0,23.85,74a21,21,0,0,0,1.06-3.6,43.75,43.75,0,0,0,.9-7.89A14.74,14.74,0,0,0,24.55,56c-1.3-2.89-2.93-3.84-5.38-3.84S15.09,53.06,13.79,56Z"/><path class="cls-83" d="M13.81,56a14.52,14.52,0,0,0-1.25,6.52,44.21,44.21,0,0,0,.89,7.85A20.55,20.55,0,0,0,14.51,74a8.67,8.67,0,0,0,1.11,2,4.54,4.54,0,0,0,3.55,2,4.55,4.55,0,0,0,3.55-2A8.82,8.82,0,0,0,23.83,74a20.88,20.88,0,0,0,1.05-3.59,43.43,43.43,0,0,0,.9-7.86A14.61,14.61,0,0,0,24.53,56c-1.29-2.9-2.92-3.85-5.36-3.85S15.1,53.09,13.81,56Z"/><path class="cls-84" d="M13.83,56a14.61,14.61,0,0,0-1.24,6.5,44,44,0,0,0,.89,7.83,20.61,20.61,0,0,0,1,3.57,8.67,8.67,0,0,0,1.11,2,4.51,4.51,0,0,0,3.53,2,4.52,4.52,0,0,0,3.53-2A8.64,8.64,0,0,0,23.8,74a20.42,20.42,0,0,0,1.06-3.58,44,44,0,0,0,.89-7.83A14.7,14.7,0,0,0,24.51,56c-1.29-2.91-2.9-3.86-5.34-3.86S15.12,53.11,13.83,56Z"/><path class="cls-85" d="M13.85,56.05a14.68,14.68,0,0,0-1.24,6.48,43.66,43.66,0,0,0,.89,7.8,20.61,20.61,0,0,0,1.05,3.57,8.89,8.89,0,0,0,1.1,1.94,4.52,4.52,0,0,0,3.52,2,4.49,4.49,0,0,0,3.51-2,8.56,8.56,0,0,0,1.1-1.92,20.75,20.75,0,0,0,1-3.56,43.67,43.67,0,0,0,.89-7.81,14.68,14.68,0,0,0-1.23-6.5c-1.28-2.92-2.89-3.86-5.32-3.86S15.13,53.13,13.85,56.05Z"/><path class="cls-86" d="M13.86,56.09a14.74,14.74,0,0,0-1.22,6.45,43.44,43.44,0,0,0,.89,7.78,19.81,19.81,0,0,0,1,3.55,8.72,8.72,0,0,0,1.1,1.94,4.47,4.47,0,0,0,3.5,2,4.51,4.51,0,0,0,3.5-2,9,9,0,0,0,1.09-1.92,20.41,20.41,0,0,0,1-3.55,43.34,43.34,0,0,0,.89-7.78,14.69,14.69,0,0,0-1.22-6.47c-1.28-2.94-2.88-3.88-5.3-3.88S15.14,53.15,13.86,56.09Z"/><path class="cls-87" d="M13.88,56.12a14.69,14.69,0,0,0-1.21,6.43,44,44,0,0,0,.88,7.75,21.47,21.47,0,0,0,1,3.54,8.79,8.79,0,0,0,1.09,1.93,4.47,4.47,0,0,0,3.49,2,4.45,4.45,0,0,0,3.48-2,8.62,8.62,0,0,0,1.09-1.91,21.33,21.33,0,0,0,1-3.53,44.13,44.13,0,0,0,.88-7.75,14.8,14.8,0,0,0-1.21-6.46c-1.27-2.95-2.87-3.88-5.28-3.88S15.16,53.18,13.88,56.12Z"/><path class="cls-88" d="M13.9,56.15a14.65,14.65,0,0,0-1.2,6.42,42.66,42.66,0,0,0,.88,7.71,20.47,20.47,0,0,0,1,3.53,8.79,8.79,0,0,0,1.09,1.93,4.43,4.43,0,0,0,3.47,2,4.43,4.43,0,0,0,3.46-2,8.45,8.45,0,0,0,1.08-1.91,20,20,0,0,0,1-3.52,43.69,43.69,0,0,0,.88-7.72,14.78,14.78,0,0,0-1.2-6.44c-1.26-2.95-2.85-3.89-5.26-3.89S15.17,53.2,13.9,56.15Z"/><path class="cls-89" d="M13.91,56.19a14.84,14.84,0,0,0-1.19,6.39,44.3,44.3,0,0,0,.88,7.69,20.47,20.47,0,0,0,1,3.51,9.38,9.38,0,0,0,1.08,1.92,4.43,4.43,0,0,0,3.46,2,4.43,4.43,0,0,0,3.45-2,8.66,8.66,0,0,0,1.07-1.89,20.33,20.33,0,0,0,1-3.52,42.34,42.34,0,0,0,.88-7.69,14.81,14.81,0,0,0-1.18-6.41c-1.27-3-2.85-3.9-5.25-3.9S15.18,53.22,13.91,56.19Z"/><path class="cls-90" d="M13.93,56.22a14.79,14.79,0,0,0-1.18,6.37,43,43,0,0,0,.88,7.66,20.13,20.13,0,0,0,1,3.5,8.93,8.93,0,0,0,1.08,1.92,4.38,4.38,0,0,0,3.43,2,4.42,4.42,0,0,0,3.44-2,8.66,8.66,0,0,0,1.07-1.89,21,21,0,0,0,1-3.5,44,44,0,0,0,.88-7.67,14.92,14.92,0,0,0-1.18-6.39c-1.26-3-2.84-3.91-5.24-3.91S15.2,53.24,13.93,56.22Z"/><path class="cls-91" d="M14,56.26a14.81,14.81,0,0,0-1.17,6.34,42.68,42.68,0,0,0,.87,7.63,20.9,20.9,0,0,0,1,3.49,8.23,8.23,0,0,0,1.08,1.91,4.35,4.35,0,0,0,3.41,2,4.36,4.36,0,0,0,3.42-2,8.58,8.58,0,0,0,1.07-1.88,20,20,0,0,0,1-3.49,43.63,43.63,0,0,0,.88-7.64,14.94,14.94,0,0,0-1.17-6.36c-1.26-3-2.82-3.92-5.22-3.92S15.21,53.26,14,56.26Z"/><path class="cls-92" d="M14,56.29a14.64,14.64,0,0,0-1.16,6.32,42.46,42.46,0,0,0,.87,7.61,20.69,20.69,0,0,0,1,3.47,8.83,8.83,0,0,0,1.07,1.91,4.36,4.36,0,0,0,3.4,2,4.38,4.38,0,0,0,3.41-2,8.55,8.55,0,0,0,1.05-1.88,20,20,0,0,0,1-3.47,43.51,43.51,0,0,0,.88-7.62,14.89,14.89,0,0,0-1.16-6.34c-1.25-3-2.81-3.93-5.2-3.93S15.22,53.29,14,56.29Z"/><path class="cls-93" d="M14,56.32a15,15,0,0,0-1.15,6.3,43.9,43.9,0,0,0,.87,7.58,19.86,19.86,0,0,0,1,3.46,8.13,8.13,0,0,0,1.06,1.9,4.3,4.3,0,0,0,3.38,2,4.36,4.36,0,0,0,3.39-2,8.25,8.25,0,0,0,1.05-1.87,19.08,19.08,0,0,0,1-3.46,43,43,0,0,0,.88-7.58,15,15,0,0,0-1.15-6.33c-1.25-3-2.8-3.93-5.18-3.93S15.23,53.31,14,56.32Z"/><path class="cls-94" d="M14,56.36a14.91,14.91,0,0,0-1.14,6.27,43.56,43.56,0,0,0,.87,7.55,19.32,19.32,0,0,0,1,3.46,8.24,8.24,0,0,0,1,1.89,4.31,4.31,0,0,0,3.37,2,4.29,4.29,0,0,0,3.37-2,8.71,8.71,0,0,0,1-1.87,20.69,20.69,0,0,0,1-3.45,43.56,43.56,0,0,0,.87-7.55,15.06,15.06,0,0,0-1.14-6.3c-1.24-3-2.79-4-5.16-4S15.25,53.33,14,56.36Z"/><path class="cls-95" d="M14,56.39a14.73,14.73,0,0,0-1.13,6.25,42.37,42.37,0,0,0,.86,7.53,20.84,20.84,0,0,0,1,3.44,8.17,8.17,0,0,0,1.05,1.88,4.27,4.27,0,0,0,3.35,2,4.27,4.27,0,0,0,3.35-2,8.81,8.81,0,0,0,1-1.86,19.58,19.58,0,0,0,1-3.43,43.45,43.45,0,0,0,.87-7.53,14.82,14.82,0,0,0-1.13-6.28c-1.24-3-2.77-4-5.14-4S15.26,53.35,14,56.39Z"/><path class="cls-96" d="M14,56.42a14.85,14.85,0,0,0-1.12,6.24,42,42,0,0,0,.86,7.49,19.84,19.84,0,0,0,1,3.43,8.78,8.78,0,0,0,1,1.88,4.26,4.26,0,0,0,3.34,2,4.29,4.29,0,0,0,3.34-2,8.51,8.51,0,0,0,1-1.85,19.84,19.84,0,0,0,1-3.43,43,43,0,0,0,.87-7.5,15,15,0,0,0-1.12-6.26c-1.23-3.05-2.76-4-5.12-4S15.27,53.37,14,56.42Z"/><path class="cls-97" d="M14.05,56.46a15,15,0,0,0-1.11,6.21,43.85,43.85,0,0,0,.86,7.47,20.49,20.49,0,0,0,1,3.41,8.46,8.46,0,0,0,1,1.87,4.21,4.21,0,0,0,3.32,2,4.23,4.23,0,0,0,3.32-2,8.43,8.43,0,0,0,1-1.84,20.49,20.49,0,0,0,1-3.41,42.76,42.76,0,0,0,.86-7.48,14.82,14.82,0,0,0-1.11-6.23c-1.23-3.07-2.75-4-5.1-4S15.29,53.39,14.05,56.46Z"/><path class="cls-98" d="M14.07,56.49A15,15,0,0,0,13,62.68a42.31,42.31,0,0,0,.86,7.44,19.5,19.5,0,0,0,1,3.4,8.68,8.68,0,0,0,1,1.87,4.22,4.22,0,0,0,3.31,2,4.21,4.21,0,0,0,3.3-2,8.43,8.43,0,0,0,1-1.84,19.5,19.5,0,0,0,1-3.4,42.31,42.31,0,0,0,.86-7.45,15.1,15.1,0,0,0-1.09-6.21c-1.23-3.07-2.74-4-5.09-4S15.3,53.42,14.07,56.49Z"/><path class="cls-99" d="M14.09,56.53A14.88,14.88,0,0,0,13,62.69a42.92,42.92,0,0,0,.85,7.41,20.56,20.56,0,0,0,1,3.39,8.36,8.36,0,0,0,1,1.86,4.2,4.2,0,0,0,3.29,2,4.22,4.22,0,0,0,3.29-2,8.51,8.51,0,0,0,1-1.83,20.34,20.34,0,0,0,1-3.39,42,42,0,0,0,.86-7.41,15,15,0,0,0-1.08-6.19c-1.22-3.09-2.73-4-5.07-4S15.31,53.44,14.09,56.53Z"/><path class="cls-100" d="M14.1,56.56A15.16,15.16,0,0,0,13,62.7a42.82,42.82,0,0,0,.86,7.39,20.35,20.35,0,0,0,1,3.37,8.77,8.77,0,0,0,1,1.86,4.19,4.19,0,0,0,3.28,2,4.21,4.21,0,0,0,3.27-2,8.32,8.32,0,0,0,1-1.83,19.36,19.36,0,0,0,1-3.37,42.8,42.8,0,0,0,.85-7.39,15.13,15.13,0,0,0-1.07-6.17c-1.22-3.1-2.72-4-5.05-4S15.32,53.46,14.1,56.56Z"/><path class="cls-101" d="M14.12,56.59a15.28,15.28,0,0,0-1.07,6.12,42.35,42.35,0,0,0,.85,7.36,20.21,20.21,0,0,0,1,3.36,8.69,8.69,0,0,0,1,1.85,4.14,4.14,0,0,0,3.26,2,4.14,4.14,0,0,0,3.25-2,8,8,0,0,0,1-1.82,20.21,20.21,0,0,0,1-3.36,42.36,42.36,0,0,0,.86-7.36,15.43,15.43,0,0,0-1.07-6.15c-1.21-3.11-2.71-4-5-4S15.34,53.48,14.12,56.59Z"/><path class="cls-102" d="M14.14,56.63a15,15,0,0,0-1.06,6.09,42,42,0,0,0,.85,7.33,20.28,20.28,0,0,0,1,3.36,8.85,8.85,0,0,0,1,1.84,4.12,4.12,0,0,0,3.23,1.94,4.12,4.12,0,0,0,3.24-1.94,8.38,8.38,0,0,0,1-1.81,19.48,19.48,0,0,0,1-3.35,42.14,42.14,0,0,0,.86-7.34,15.12,15.12,0,0,0-1.06-6.12c-1.21-3.13-2.69-4-5-4S15.35,53.5,14.14,56.63Z"/><path class="cls-103" d="M14.16,56.66a14.93,14.93,0,0,0-1.05,6.08A42.75,42.75,0,0,0,14,70a21.31,21.31,0,0,0,1,3.34,8.75,8.75,0,0,0,1,1.83,4.08,4.08,0,0,0,3.22,1.94,4.13,4.13,0,0,0,3.23-1.94,8.73,8.73,0,0,0,1-1.8,20.28,20.28,0,0,0,1-3.34,42.76,42.76,0,0,0,.85-7.31,15.24,15.24,0,0,0-1.05-6.1c-1.2-3.14-2.68-4-5-4S15.36,53.52,14.16,56.66Z"/><path class="cls-104" d="M14.17,56.69a15.43,15.43,0,0,0-1,6.06A43.31,43.31,0,0,0,14,70a20.21,20.21,0,0,0,1,3.33,9,9,0,0,0,1,1.83,4.07,4.07,0,0,0,3.2,1.94,4.09,4.09,0,0,0,3.21-1.94,8.27,8.27,0,0,0,1-1.8,19.85,19.85,0,0,0,1-3.33,42.3,42.3,0,0,0,.85-7.28,15.22,15.22,0,0,0-1-6.08c-1.2-3.14-2.67-4-5-4S15.37,53.55,14.17,56.69Z"/><path class="cls-105" d="M14.19,56.73a15.11,15.11,0,0,0-1,6A42,42,0,0,0,14,70a21.09,21.09,0,0,0,1,3.32,9,9,0,0,0,1,1.83,4.08,4.08,0,0,0,3.19,1.93,4.05,4.05,0,0,0,3.19-1.94,8.37,8.37,0,0,0,1-1.79,19,19,0,0,0,1-3.31,41.22,41.22,0,0,0,.85-7.25,15.27,15.27,0,0,0-1-6.06c-1.19-3.16-2.65-4-5-4S15.39,53.57,14.19,56.73Z"/><path class="cls-106" d="M14.21,56.76a15.23,15.23,0,0,0-1,6A41.83,41.83,0,0,0,14,70a19.14,19.14,0,0,0,1,3.3,8.21,8.21,0,0,0,1,1.82A4,4,0,0,0,19.15,77a4.08,4.08,0,0,0,3.18-1.93,9.1,9.1,0,0,0,1-1.79,20.79,20.79,0,0,0,1-3.3,41.6,41.6,0,0,0,.84-7.22,15.22,15.22,0,0,0-1-6c-1.18-3.17-2.64-4-4.94-4S15.4,53.59,14.21,56.76Z"/><path class="cls-107" d="M14.23,56.8a15.13,15.13,0,0,0-1,6A41.26,41.26,0,0,0,14.06,70,19.71,19.71,0,0,0,15,73.26a8.43,8.43,0,0,0,1,1.82A4,4,0,0,0,19.15,77a4,4,0,0,0,3.16-1.93,8.73,8.73,0,0,0,1-1.78A19.86,19.86,0,0,0,24.24,70a41.49,41.49,0,0,0,.84-7.2,15.29,15.29,0,0,0-1-6c-1.18-3.19-2.63-4.06-4.92-4.06S15.41,53.61,14.23,56.8Z"/><path class="cls-108" d="M14.24,56.83a15.25,15.25,0,0,0-1,6A42.14,42.14,0,0,0,14.08,70,19.72,19.72,0,0,0,15,73.23,8.11,8.11,0,0,0,16,75,4,4,0,0,0,19.15,77,4,4,0,0,0,22.29,75a8.26,8.26,0,0,0,1-1.78A19.43,19.43,0,0,0,24.21,70a41.15,41.15,0,0,0,.84-7.17,15.43,15.43,0,0,0-1-6c-1.18-3.2-2.63-4.07-4.91-4.07S15.42,53.63,14.24,56.83Z"/><path class="cls-109" d="M14.26,56.86a15.42,15.42,0,0,0-1,5.94,41.79,41.79,0,0,0,.84,7.14,18.47,18.47,0,0,0,.94,3.26A8.53,8.53,0,0,0,16,75a4,4,0,0,0,3.13,1.92A4,4,0,0,0,22.27,75a7.91,7.91,0,0,0,1-1.76,19.72,19.72,0,0,0,1-3.27A41.66,41.66,0,0,0,25,62.83a15.38,15.38,0,0,0-1-6c-1.17-3.21-2.61-4.07-4.89-4.07S15.44,53.65,14.26,56.86Z"/><path class="cls-110" d="M14.28,56.9a15.29,15.29,0,0,0-1,5.92,41.32,41.32,0,0,0,.83,7.1,19.5,19.5,0,0,0,.94,3.25A8.44,8.44,0,0,0,16,75a3.94,3.94,0,0,0,3.11,1.92A4,4,0,0,0,22.26,75a8.32,8.32,0,0,0,1-1.76A19.79,19.79,0,0,0,24.16,70,41.43,41.43,0,0,0,25,62.84a15.27,15.27,0,0,0-1-5.94c-1.17-3.23-2.6-4.09-4.87-4.09S15.45,53.68,14.28,56.9Z"/><path class="cls-111" d="M14.3,56.93a15.05,15.05,0,0,0-1,5.9,41.2,41.2,0,0,0,.83,7.08,20,20,0,0,0,.93,3.24,8.85,8.85,0,0,0,1,1.79,4,4,0,0,0,3.1,1.91,3.92,3.92,0,0,0,3.09-1.92,8.23,8.23,0,0,0,1-1.75,20.44,20.44,0,0,0,.93-3.24A42.11,42.11,0,0,0,25,62.86a15.59,15.59,0,0,0-1-5.93c-1.16-3.23-2.59-4.09-4.85-4.09S15.46,53.7,14.3,56.93Z"/><path class="cls-112" d="M14.31,57a15.6,15.6,0,0,0-1,5.88,41.75,41.75,0,0,0,.83,7,20.6,20.6,0,0,0,.93,3.23,8.5,8.5,0,0,0,1,1.78,3.9,3.9,0,0,0,3.08,1.91,3.9,3.9,0,0,0,3.07-1.91,8,8,0,0,0,1-1.75,18.51,18.51,0,0,0,.93-3.22,41.88,41.88,0,0,0,.84-7.06A15.54,15.54,0,0,0,24,57c-1.16-3.24-2.57-4.1-4.83-4.1S15.47,53.72,14.31,57Z"/><path class="cls-113" d="M14.33,57a15.45,15.45,0,0,0-.95,5.85,41.28,41.28,0,0,0,.83,7,19.5,19.5,0,0,0,.92,3.22,8.76,8.76,0,0,0,1,1.78,3.89,3.89,0,0,0,3.06,1.91,3.94,3.94,0,0,0,3.06-1.91,8.46,8.46,0,0,0,.94-1.75,20.3,20.3,0,0,0,.93-3.21,41.51,41.51,0,0,0,.83-7A15.59,15.59,0,0,0,24,57c-1.15-3.26-2.56-4.11-4.81-4.11S15.48,53.74,14.33,57Z"/><path class="cls-114" d="M14.35,57a15.17,15.17,0,0,0-.94,5.83,42.19,42.19,0,0,0,.82,7,19.22,19.22,0,0,0,.92,3.2,8.88,8.88,0,0,0,1,1.77,3.87,3.87,0,0,0,3,1.91,3.87,3.87,0,0,0,3.05-1.91,8.12,8.12,0,0,0,.94-1.74,19.22,19.22,0,0,0,.92-3.2,40.93,40.93,0,0,0,.83-7A15.53,15.53,0,0,0,23.94,57c-1.14-3.27-2.55-4.12-4.8-4.12S15.5,53.76,14.35,57Z"/><path class="cls-115" d="M14.36,57.07a15.47,15.47,0,0,0-.92,5.8,39.83,39.83,0,0,0,.82,7A20.16,20.16,0,0,0,15.17,73a8.4,8.4,0,0,0,1,1.77,3.85,3.85,0,0,0,3,1.9,3.85,3.85,0,0,0,3-1.9,8.87,8.87,0,0,0,.94-1.74A19,19,0,0,0,24,69.88a40.81,40.81,0,0,0,.83-7,15.62,15.62,0,0,0-.93-5.83c-1.14-3.29-2.54-4.13-4.78-4.13S15.51,53.78,14.36,57.07Z"/><path class="cls-116" d="M14.38,57.1a15.59,15.59,0,0,0-.92,5.78,41.35,41.35,0,0,0,.82,6.94A20.32,20.32,0,0,0,15.19,73a8.78,8.78,0,0,0,.94,1.76,3.82,3.82,0,0,0,3,1.9,3.86,3.86,0,0,0,3-1.9A8.66,8.66,0,0,0,23.08,73,19.23,19.23,0,0,0,24,69.86a41.47,41.47,0,0,0,.82-7,15.36,15.36,0,0,0-.92-5.81C22.77,53.8,21.38,53,19.14,53S15.52,53.8,14.38,57.1Z"/><path class="cls-117" d="M14.4,57.13a15.77,15.77,0,0,0-.91,5.77,41.12,41.12,0,0,0,.82,6.91,20.1,20.1,0,0,0,.9,3.16,8.78,8.78,0,0,0,.94,1.76,3.8,3.8,0,0,0,3,1.9,3.83,3.83,0,0,0,3-1.9A8.66,8.66,0,0,0,23.06,73,19,19,0,0,0,24,69.85a41.24,41.24,0,0,0,.82-6.92,15.75,15.75,0,0,0-.9-5.8C22.76,53.82,21.37,53,19.14,53S15.53,53.83,14.4,57.13Z"/><path class="cls-118" d="M14.42,57.17a15.44,15.44,0,0,0-.9,5.74,40.76,40.76,0,0,0,.81,6.88,20,20,0,0,0,.9,3.15,9.21,9.21,0,0,0,.93,1.75,3.8,3.8,0,0,0,3,1.9,3.79,3.79,0,0,0,3-1.9A8.56,8.56,0,0,0,23,73a20,20,0,0,0,.9-3.15,40.77,40.77,0,0,0,.82-6.89,15.64,15.64,0,0,0-.89-5.77C22.74,53.85,21.36,53,19.14,53S15.54,53.85,14.42,57.17Z"/><path class="cls-119" d="M14.43,57.2a15.61,15.61,0,0,0-.88,5.72,40.53,40.53,0,0,0,.81,6.86,19.08,19.08,0,0,0,.9,3.14,8.61,8.61,0,0,0,.92,1.74,3.74,3.74,0,0,0,3,1.89,3.78,3.78,0,0,0,3-1.89A8.85,8.85,0,0,0,23,73a19.8,19.8,0,0,0,.9-3.14A41.45,41.45,0,0,0,24.73,63a15.79,15.79,0,0,0-.88-5.75C22.73,53.87,21.36,53,19.14,53S15.56,53.87,14.43,57.2Z"/><path class="cls-120" d="M14.45,57.23a16,16,0,0,0-.88,5.7,41.22,41.22,0,0,0,.81,6.83,20,20,0,0,0,.9,3.13,8.25,8.25,0,0,0,.91,1.73,3.76,3.76,0,0,0,2.95,1.89,3.76,3.76,0,0,0,2.95-1.89,8.45,8.45,0,0,0,.9-1.7,19.82,19.82,0,0,0,.9-3.12A40.18,40.18,0,0,0,24.7,63a15.73,15.73,0,0,0-.87-5.73c-1.11-3.34-2.48-4.17-4.69-4.17S15.57,53.89,14.45,57.23Z"/><path class="cls-121" d="M14.47,57.27a15.63,15.63,0,0,0-.87,5.67,40.61,40.61,0,0,0,.81,6.8,19.16,19.16,0,0,0,.89,3.12,8.25,8.25,0,0,0,.91,1.73,3.72,3.72,0,0,0,2.93,1.88,3.72,3.72,0,0,0,2.93-1.88,8.73,8.73,0,0,0,.9-1.7,18.73,18.73,0,0,0,.89-3.11A39.83,39.83,0,0,0,24.67,63a15.83,15.83,0,0,0-.86-5.7c-1.11-3.36-2.47-4.18-4.67-4.18S15.58,53.91,14.47,57.27Z"/><path class="cls-122" d="M14.49,57.3A15.57,15.57,0,0,0,13.63,63a40.49,40.49,0,0,0,.8,6.78,19.91,19.91,0,0,0,.89,3.1,8.64,8.64,0,0,0,.9,1.72,3.73,3.73,0,0,0,2.92,1.89,3.7,3.7,0,0,0,2.91-1.89,8.54,8.54,0,0,0,.9-1.68,19.91,19.91,0,0,0,.89-3.1A41.56,41.56,0,0,0,24.65,63a15.75,15.75,0,0,0-.86-5.68c-1.1-3.37-2.46-4.19-4.65-4.19S15.59,53.93,14.49,57.3Z"/><path class="cls-123" d="M14.5,57.34A15.89,15.89,0,0,0,13.66,63a40.13,40.13,0,0,0,.8,6.75,19.84,19.84,0,0,0,.88,3.09,8.15,8.15,0,0,0,.9,1.72,3.68,3.68,0,0,0,2.9,1.88A3.73,3.73,0,0,0,22,74.52a8.53,8.53,0,0,0,.89-1.68,19.84,19.84,0,0,0,.88-3.09A41.21,41.21,0,0,0,24.62,63a15.84,15.84,0,0,0-.85-5.66c-1.09-3.39-2.44-4.2-4.63-4.2S15.6,54,14.5,57.34Z"/><path class="cls-124" d="M14.52,57.37a15.84,15.84,0,0,0-.84,5.6,41.81,41.81,0,0,0,.8,6.72,19.37,19.37,0,0,0,.88,3.08,7.82,7.82,0,0,0,.9,1.71,3.64,3.64,0,0,0,2.88,1.88A3.67,3.67,0,0,0,22,74.48a7.69,7.69,0,0,0,.88-1.67,18.38,18.38,0,0,0,.88-3.08A40.85,40.85,0,0,0,24.59,63a15.78,15.78,0,0,0-.84-5.64c-1.09-3.4-2.43-4.21-4.61-4.21S15.61,54,14.52,57.37Z"/><path class="cls-125" d="M14.54,57.4A15.77,15.77,0,0,0,13.71,63a39.56,39.56,0,0,0,.8,6.69,19.46,19.46,0,0,0,.87,3.06,8.82,8.82,0,0,0,.89,1.71,3.64,3.64,0,0,0,2.87,1.87A3.64,3.64,0,0,0,22,74.45a7.93,7.93,0,0,0,.88-1.67,19.39,19.39,0,0,0,.88-3.06,41.7,41.7,0,0,0,.8-6.7,16,16,0,0,0-.83-5.62c-1.08-3.41-2.42-4.21-4.59-4.21S15.63,54,14.54,57.4Z"/><path class="cls-126" d="M14.55,57.44A15.86,15.86,0,0,0,13.74,63a40.11,40.11,0,0,0,.79,6.66,19.31,19.31,0,0,0,.87,3,8.44,8.44,0,0,0,.89,1.7,3.6,3.6,0,0,0,2.84,1.88A3.64,3.64,0,0,0,22,74.41a8.06,8.06,0,0,0,.88-1.66,19.31,19.31,0,0,0,.87-3,41.19,41.19,0,0,0,.8-6.67,16.08,16.08,0,0,0-.81-5.59c-1.08-3.42-2.42-4.23-4.59-4.23S15.64,54,14.55,57.44Z"/><path class="cls-127" d="M14.57,57.47a15.84,15.84,0,0,0-.8,5.54,39.63,39.63,0,0,0,.79,6.63,20.89,20.89,0,0,0,.86,3,9.19,9.19,0,0,0,.88,1.69,3.62,3.62,0,0,0,2.83,1.87A3.62,3.62,0,0,0,22,74.38a8.57,8.57,0,0,0,.87-1.66,19.4,19.4,0,0,0,.86-3A41.08,41.08,0,0,0,24.5,63a16.27,16.27,0,0,0-.8-5.57c-1.07-3.43-2.4-4.23-4.57-4.23S15.65,54,14.57,57.47Z"/><path class="cls-128" d="M14.59,57.5a16,16,0,0,0-.8,5.52,40.59,40.59,0,0,0,.79,6.61,20.93,20.93,0,0,0,.86,3,8.52,8.52,0,0,0,.88,1.68,3.58,3.58,0,0,0,2.81,1.87A3.58,3.58,0,0,0,22,74.34a8.21,8.21,0,0,0,.86-1.65,19.19,19.19,0,0,0,.87-3,40.58,40.58,0,0,0,.79-6.62,16.21,16.21,0,0,0-.79-5.55c-1.07-3.44-2.39-4.24-4.55-4.24S15.66,54.06,14.59,57.5Z"/><path class="cls-129" d="M14.61,57.54A15.84,15.84,0,0,0,13.82,63a40.22,40.22,0,0,0,.79,6.58,19.33,19.33,0,0,0,.85,3,9.08,9.08,0,0,0,.87,1.68,3.56,3.56,0,0,0,2.8,1.86,3.57,3.57,0,0,0,2.8-1.86,8.4,8.4,0,0,0,.86-1.64,19.26,19.26,0,0,0,.86-3,40.22,40.22,0,0,0,.79-6.58,16.11,16.11,0,0,0-.78-5.53c-1.06-3.46-2.38-4.25-4.53-4.25S15.67,54.08,14.61,57.54Z"/><path class="cls-130" d="M14.62,57.57A16.33,16.33,0,0,0,13.85,63a40,40,0,0,0,.78,6.56,20.53,20.53,0,0,0,.85,3,9.08,9.08,0,0,0,.87,1.68,3.53,3.53,0,0,0,2.78,1.85,3.55,3.55,0,0,0,2.79-1.86,8.55,8.55,0,0,0,.85-1.63,19.35,19.35,0,0,0,.85-3,38.93,38.93,0,0,0,.79-6.56,16,16,0,0,0-.77-5.51c-1.05-3.47-2.36-4.26-4.51-4.26S15.68,54.1,14.62,57.57Z"/><path class="cls-131" d="M14.64,57.61a15.92,15.92,0,0,0-.76,5.44,39.48,39.48,0,0,0,.78,6.53,20.1,20.1,0,0,0,.84,3,9.62,9.62,0,0,0,.86,1.67,3.54,3.54,0,0,0,2.77,1.86,3.54,3.54,0,0,0,2.77-1.86,8.86,8.86,0,0,0,.85-1.63,19,19,0,0,0,.84-3,38.45,38.45,0,0,0,.79-6.53,16.13,16.13,0,0,0-.76-5.48c-1.05-3.49-2.35-4.27-4.49-4.27S15.69,54.12,14.64,57.61Z"/><path class="cls-132" d="M14.66,57.64a16.11,16.11,0,0,0-.76,5.43,40.23,40.23,0,0,0,.78,6.49,21.21,21.21,0,0,0,.84,3,9.3,9.3,0,0,0,.86,1.67,3.49,3.49,0,0,0,2.75,1.85,3.5,3.5,0,0,0,2.75-1.86,7.91,7.91,0,0,0,.84-1.62,18.74,18.74,0,0,0,.85-3,39.13,39.13,0,0,0,.78-6.5,16.11,16.11,0,0,0-.75-5.46c-1-3.5-2.34-4.28-4.47-4.28S15.7,54.14,14.66,57.64Z"/><path class="cls-133" d="M14.68,57.67a16.34,16.34,0,0,0-.75,5.41,40,40,0,0,0,.78,6.47,19.14,19.14,0,0,0,.84,3,8.86,8.86,0,0,0,.84,1.66A3.49,3.49,0,0,0,19.13,76a3.47,3.47,0,0,0,2.73-1.85,7.91,7.91,0,0,0,.84-1.62,18.52,18.52,0,0,0,.84-3,40,40,0,0,0,.79-6.48,16.54,16.54,0,0,0-.75-5.44c-1-3.51-2.33-4.28-4.45-4.28S15.71,54.17,14.68,57.67Z"/><path class="cls-134" d="M14.69,57.71A16.21,16.21,0,0,0,14,63.09a40.74,40.74,0,0,0,.77,6.44,18.68,18.68,0,0,0,.84,3,8.57,8.57,0,0,0,.84,1.66A3.45,3.45,0,0,0,19.13,76a3.47,3.47,0,0,0,2.72-1.85,8.34,8.34,0,0,0,.83-1.61,18.75,18.75,0,0,0,.83-3,39.48,39.48,0,0,0,.79-6.45,16.37,16.37,0,0,0-.74-5.41c-1-3.53-2.31-4.3-4.43-4.3S15.72,54.19,14.69,57.71Z"/><path class="cls-135" d="M14.71,57.74A16.38,16.38,0,0,0,14,63.1a39.25,39.25,0,0,0,.78,6.41,19.73,19.73,0,0,0,.83,2.94,8.2,8.2,0,0,0,.84,1.65A3.45,3.45,0,0,0,19.13,76a3.45,3.45,0,0,0,2.7-1.85,8.54,8.54,0,0,0,.83-1.6,20.45,20.45,0,0,0,.83-2.94,40.5,40.5,0,0,0,.78-6.42,16.64,16.64,0,0,0-.73-5.4c-1-3.53-2.3-4.3-4.41-4.3S15.74,54.21,14.71,57.74Z"/><path class="cls-136" d="M14.73,57.77A16.59,16.59,0,0,0,14,63.11a40,40,0,0,0,.77,6.39,19.93,19.93,0,0,0,.83,2.93,8.37,8.37,0,0,0,.83,1.64,3.42,3.42,0,0,0,2.69,1.84,3.44,3.44,0,0,0,2.68-1.85,7.88,7.88,0,0,0,.82-1.59,18.77,18.77,0,0,0,.83-2.93,38.88,38.88,0,0,0,.78-6.39,16.57,16.57,0,0,0-.71-5.38c-1-3.54-2.3-4.31-4.4-4.31S15.75,54.23,14.73,57.77Z"/><path class="cls-137" d="M14.75,57.81A16.15,16.15,0,0,0,14,63.12a39.61,39.61,0,0,0,.77,6.36,19.85,19.85,0,0,0,.82,2.92A8.27,8.27,0,0,0,16.46,74a3.39,3.39,0,0,0,2.67,1.84A3.42,3.42,0,0,0,21.8,74a8.74,8.74,0,0,0,.81-1.59,18.69,18.69,0,0,0,.82-2.92,38.52,38.52,0,0,0,.78-6.36,16.72,16.72,0,0,0-.7-5.35c-1-3.56-2.28-4.32-4.38-4.32S15.76,54.25,14.75,57.81Z"/><path class="cls-138" d="M14.76,57.84a16.39,16.39,0,0,0-.69,5.29,40.39,40.39,0,0,0,.76,6.33,19.69,19.69,0,0,0,.82,2.91A8.85,8.85,0,0,0,16.47,74a3.4,3.4,0,0,0,2.66,1.83A3.38,3.38,0,0,0,21.78,74a8.32,8.32,0,0,0,.81-1.58,19.53,19.53,0,0,0,.82-2.9,39.36,39.36,0,0,0,.77-6.34,16.66,16.66,0,0,0-.69-5.33c-1-3.57-2.27-4.33-4.36-4.33S15.77,54.27,14.76,57.84Z"/><path class="cls-139" d="M14.78,57.88a16.54,16.54,0,0,0-.69,5.27,40.16,40.16,0,0,0,.77,6.3,19.81,19.81,0,0,0,.81,2.89A8.44,8.44,0,0,0,16.49,74a3.34,3.34,0,0,0,2.63,1.83A3.37,3.37,0,0,0,21.76,74a8.32,8.32,0,0,0,.81-1.58,19.46,19.46,0,0,0,.81-2.89,38.86,38.86,0,0,0,.77-6.31,16.49,16.49,0,0,0-.68-5.3c-1-3.59-2.26-4.34-4.35-4.34S15.78,54.29,14.78,57.88Z"/><path class="cls-140" d="M14.8,57.91a16.48,16.48,0,0,0-.68,5.25,38.51,38.51,0,0,0,.77,6.27,19.73,19.73,0,0,0,.8,2.88,9.06,9.06,0,0,0,.81,1.62,3.36,3.36,0,0,0,2.62,1.83,3.34,3.34,0,0,0,2.62-1.84,7.67,7.67,0,0,0,.8-1.57,18,18,0,0,0,.81-2.87,38.75,38.75,0,0,0,.77-6.29,16.75,16.75,0,0,0-.67-5.28c-1-3.6-2.25-4.35-4.33-4.35S15.79,54.31,14.8,57.91Z"/><path class="cls-141" d="M14.81,57.94a16.74,16.74,0,0,0-.66,5.23,39.26,39.26,0,0,0,.76,6.24,19.22,19.22,0,0,0,.8,2.87,8.63,8.63,0,0,0,.81,1.61,3.32,3.32,0,0,0,2.6,1.83,3.35,3.35,0,0,0,2.61-1.83,8.21,8.21,0,0,0,.79-1.57,19,19,0,0,0,.81-2.86,39.38,39.38,0,0,0,.76-6.25,16.71,16.71,0,0,0-.66-5.27c-1-3.61-2.23-4.35-4.31-4.35S15.8,54.33,14.81,57.94Z"/><path class="cls-142" d="M14.83,58a16.6,16.6,0,0,0-.65,5.2,37.9,37.9,0,0,0,.76,6.22,18.17,18.17,0,0,0,.79,2.85,9.29,9.29,0,0,0,.8,1.61,3.32,3.32,0,0,0,2.59,1.82,3.31,3.31,0,0,0,2.59-1.82,8.41,8.41,0,0,0,.79-1.56,19.41,19.41,0,0,0,.8-2.86,38.87,38.87,0,0,0,.76-6.22A16.83,16.83,0,0,0,23.41,58c-1-3.63-2.22-4.37-4.29-4.37S15.81,54.35,14.83,58Z"/><path class="cls-143" d="M14.85,58a16.51,16.51,0,0,0-.65,5.18A39.81,39.81,0,0,0,15,69.38a20.48,20.48,0,0,0,.79,2.84,9.17,9.17,0,0,0,.8,1.6,3.27,3.27,0,0,0,2.57,1.82,3.27,3.27,0,0,0,2.57-1.82,8.3,8.3,0,0,0,.79-1.55,19.53,19.53,0,0,0,.79-2.84,38.76,38.76,0,0,0,.76-6.2A16.52,16.52,0,0,0,23.39,58c-1-3.64-2.21-4.37-4.27-4.37S15.82,54.37,14.85,58Z"/><path class="cls-144" d="M14.87,58a16.75,16.75,0,0,0-.64,5.16A39.71,39.71,0,0,0,15,69.37a19.81,19.81,0,0,0,.78,2.83,9.42,9.42,0,0,0,.79,1.59,3.3,3.3,0,0,0,2.56,1.82,3.3,3.3,0,0,0,2.56-1.82,8.61,8.61,0,0,0,.77-1.55,19.29,19.29,0,0,0,.8-2.83A39.41,39.41,0,0,0,24,63.24a17,17,0,0,0-.64-5.2c-.95-3.65-2.19-4.38-4.25-4.38S15.83,54.4,14.87,58Z"/><path class="cls-145" d="M14.88,58.08a16.91,16.91,0,0,0-.62,5.13A37.88,37.88,0,0,0,15,69.35a21,21,0,0,0,.78,2.82,8.94,8.94,0,0,0,.79,1.58,3.23,3.23,0,0,0,2.54,1.82,3.25,3.25,0,0,0,2.54-1.82,8.19,8.19,0,0,0,.77-1.54,19.05,19.05,0,0,0,.79-2.81A39.3,39.3,0,0,0,24,63.25a17.19,17.19,0,0,0-.62-5.17c-.95-3.66-2.19-4.39-4.24-4.39S15.84,54.42,14.88,58.08Z"/><path class="cls-146" d="M14.9,58.11a16.85,16.85,0,0,0-.61,5.11A37.51,37.51,0,0,0,15,69.33a18,18,0,0,0,.78,2.81,8.31,8.31,0,0,0,.78,1.58,3.21,3.21,0,0,0,2.52,1.81,3.23,3.23,0,0,0,2.52-1.81,9.21,9.21,0,0,0,.77-1.54,17.82,17.82,0,0,0,.78-2.8A38.78,38.78,0,0,0,24,63.26a17.13,17.13,0,0,0-.61-5.15c-.95-3.67-2.18-4.4-4.22-4.4S15.85,54.44,14.9,58.11Z"/><path class="cls-147" d="M14.92,58.15a17,17,0,0,0-.61,5.09,39.77,39.77,0,0,0,.75,6.08,19.17,19.17,0,0,0,.78,2.79,9.19,9.19,0,0,0,.77,1.57,3.2,3.2,0,0,0,2.51,1.81,3.23,3.23,0,0,0,2.51-1.81,9.48,9.48,0,0,0,.76-1.53,19.73,19.73,0,0,0,.78-2.79,39.46,39.46,0,0,0,.75-6.08,17.3,17.3,0,0,0-.6-5.13c-.94-3.69-2.17-4.41-4.2-4.41S15.86,54.46,14.92,58.15Z"/><path class="cls-148" d="M14.94,58.18a17,17,0,0,0-.6,5.07,39.23,39.23,0,0,0,.75,6,19.09,19.09,0,0,0,.77,2.78,7.92,7.92,0,0,0,.77,1.57,3.18,3.18,0,0,0,2.49,1.8,3.21,3.21,0,0,0,2.49-1.8,8.72,8.72,0,0,0,.75-1.53,18.5,18.5,0,0,0,.78-2.77,39.36,39.36,0,0,0,.75-6.06,17.24,17.24,0,0,0-.59-5.11c-.93-3.7-2.15-4.42-4.18-4.42S15.87,54.48,14.94,58.18Z"/><path class="cls-149" d="M15,58.21a17.26,17.26,0,0,0-.58,5,38.84,38.84,0,0,0,.74,6,18.58,18.58,0,0,0,.77,2.77,8.1,8.1,0,0,0,.76,1.56,3.17,3.17,0,0,0,2.48,1.81,3.18,3.18,0,0,0,2.47-1.81,7.87,7.87,0,0,0,.75-1.51,18.93,18.93,0,0,0,.77-2.77,38.82,38.82,0,0,0,.75-6,17.55,17.55,0,0,0-.58-5.09c-.92-3.71-2.14-4.42-4.16-4.42S15.88,54.5,15,58.21Z"/><path class="cls-150" d="M15,58.25a16.79,16.79,0,0,0-.57,5,37.41,37.41,0,0,0,.74,6A19,19,0,0,0,15.9,72a8.39,8.39,0,0,0,.76,1.56,3.15,3.15,0,0,0,2.46,1.8,3.15,3.15,0,0,0,2.45-1.8,8.17,8.17,0,0,0,.75-1.51,19,19,0,0,0,.76-2.75,38.57,38.57,0,0,0,.75-6,17,17,0,0,0-.57-5.06c-.91-3.73-2.13-4.44-4.14-4.44S15.89,54.52,15,58.25Z"/><path class="cls-151" d="M15,58.28a17.37,17.37,0,0,0-.57,5,39.28,39.28,0,0,0,.74,6A19.84,19.84,0,0,0,15.92,72a8.61,8.61,0,0,0,.75,1.55,3.15,3.15,0,0,0,2.44,1.8,3.15,3.15,0,0,0,2.45-1.8A8.39,8.39,0,0,0,22.3,72a20.25,20.25,0,0,0,.76-2.74,39.41,39.41,0,0,0,.74-6,17.35,17.35,0,0,0-.56-5c-.9-3.74-2.11-4.44-4.13-4.44S15.9,54.54,15,58.28Z"/><path class="cls-152" d="M15,58.32a17.58,17.58,0,0,0-.55,5,37.68,37.68,0,0,0,.74,5.94A19,19,0,0,0,15.94,72a8.18,8.18,0,0,0,.75,1.54,3.1,3.1,0,0,0,2.42,1.79,3.12,3.12,0,0,0,2.43-1.79,7.76,7.76,0,0,0,.73-1.5A18.37,18.37,0,0,0,23,69.28a37.65,37.65,0,0,0,.74-6,17.16,17.16,0,0,0-.55-5c-.89-3.76-2.1-4.46-4.11-4.46S15.9,54.56,15,58.32Z"/><path class="cls-153" d="M15,58.35a17.19,17.19,0,0,0-.54,4.95,38.77,38.77,0,0,0,.73,5.92A20.41,20.41,0,0,0,16,71.94a8.73,8.73,0,0,0,.74,1.53,3.11,3.11,0,0,0,2.41,1.8,3.1,3.1,0,0,0,2.41-1.8A8,8,0,0,0,22.25,72,17.32,17.32,0,0,0,23,69.27a37.57,37.57,0,0,0,.74-5.92,17.13,17.13,0,0,0-.54-5c-.88-3.77-2.09-4.46-4.09-4.46S15.91,54.58,15,58.35Z"/><path class="cls-154" d="M15,58.38a17.16,17.16,0,0,0-.53,4.94,38.1,38.1,0,0,0,.73,5.88A18.56,18.56,0,0,0,16,71.91a9.09,9.09,0,0,0,.74,1.53,3.08,3.08,0,0,0,2.39,1.79,3.11,3.11,0,0,0,2.4-1.79A8.62,8.62,0,0,0,22.23,72a19.26,19.26,0,0,0,.75-2.7,38.23,38.23,0,0,0,.73-5.89,17.45,17.45,0,0,0-.53-5c-.87-3.78-2.08-4.47-4.07-4.47S15.92,54.6,15,58.38Z"/><path class="cls-155" d="M15.06,58.42a17.62,17.62,0,0,0-.53,4.91,38,38,0,0,0,.73,5.86A21.58,21.58,0,0,0,16,71.88a9.38,9.38,0,0,0,.73,1.52,3.06,3.06,0,0,0,2.38,1.79,3.08,3.08,0,0,0,2.38-1.79,8.39,8.39,0,0,0,.72-1.47A18.6,18.6,0,0,0,23,69.24a39.25,39.25,0,0,0,.74-5.87,18,18,0,0,0-.52-4.95c-.87-3.8-2.07-4.48-4.06-4.48S15.93,54.62,15.06,58.42Z"/><path class="cls-156" d="M15.07,58.45a18,18,0,0,0-.51,4.89,37.62,37.62,0,0,0,.73,5.83A19.9,19.9,0,0,0,16,71.85a9,9,0,0,0,.73,1.52,3,3,0,0,0,2.36,1.78c.88,0,1.68-.67,2.36-1.78a8.75,8.75,0,0,0,.71-1.47,18.44,18.44,0,0,0,.74-2.68,38.85,38.85,0,0,0,.74-5.84,18.34,18.34,0,0,0-.51-4.93c-.86-3.81-2.06-4.49-4-4.49S15.94,54.65,15.07,58.45Z"/><path class="cls-157" d="M15.09,58.48a17.56,17.56,0,0,0-.5,4.87,38.31,38.31,0,0,0,.72,5.8A19.72,19.72,0,0,0,16,71.82a9,9,0,0,0,.73,1.52c.67,1.1,1.47,1.77,2.34,1.77s1.67-.67,2.34-1.78a8.27,8.27,0,0,0,.71-1.46,19.63,19.63,0,0,0,.74-2.67,39.6,39.6,0,0,0,.73-5.81,17.87,17.87,0,0,0-.5-4.91c-.85-3.82-2.05-4.49-4-4.49S16,54.67,15.09,58.48Z"/><path class="cls-158" d="M15.11,58.52a17.37,17.37,0,0,0-.49,4.84,38.21,38.21,0,0,0,.72,5.78,19.88,19.88,0,0,0,.72,2.65,9.26,9.26,0,0,0,.72,1.51c.67,1.11,1.46,1.78,2.33,1.78s1.66-.68,2.33-1.78a9,9,0,0,0,.7-1.46,18,18,0,0,0,.73-2.65,39.5,39.5,0,0,0,.73-5.79,17.68,17.68,0,0,0-.49-4.88c-.85-3.83-2-4.51-4-4.51S16,54.69,15.11,58.52Z"/><path class="cls-159" d="M15.13,58.55a18.1,18.1,0,0,0-.49,4.82,39,39,0,0,0,.72,5.75,17.88,17.88,0,0,0,.73,2.64,8.85,8.85,0,0,0,.71,1.51c.66,1.1,1.45,1.77,2.31,1.77s1.65-.67,2.31-1.78a8.91,8.91,0,0,0,.7-1.45,19.3,19.3,0,0,0,.72-2.64,37.66,37.66,0,0,0,.73-5.75,18,18,0,0,0-.48-4.87c-.84-3.84-2-4.51-4-4.51S16,54.71,15.13,58.55Z"/><path class="cls-160" d="M15.14,58.59a17.94,17.94,0,0,0-.47,4.79,37.11,37.11,0,0,0,.72,5.72,19.13,19.13,0,0,0,.72,2.63,8.4,8.4,0,0,0,.7,1.5c.66,1.1,1.45,1.77,2.3,1.77s1.63-.67,2.29-1.77a8.16,8.16,0,0,0,.69-1.45,17.92,17.92,0,0,0,.73-2.62,38.68,38.68,0,0,0,.72-5.73,17.89,17.89,0,0,0-.47-4.84c-.83-3.86-2-4.53-4-4.53S16,54.73,15.14,58.59Z"/><path class="cls-161" d="M15.16,58.62a17.91,17.91,0,0,0-.46,4.78,38.31,38.31,0,0,0,.71,5.69,19.78,19.78,0,0,0,.72,2.62,9,9,0,0,0,.7,1.49c.65,1.1,1.43,1.76,2.28,1.76s1.62-.67,2.28-1.77a8.05,8.05,0,0,0,.68-1.44,18.79,18.79,0,0,0,.72-2.61,38.28,38.28,0,0,0,.72-5.7,18.22,18.22,0,0,0-.46-4.82c-.82-3.87-2-4.54-3.94-4.54S16,54.75,15.16,58.62Z"/><path class="cls-162" d="M15.18,58.65a17.88,17.88,0,0,0-.45,4.76,36.49,36.49,0,0,0,.71,5.66,18.27,18.27,0,0,0,.71,2.61,8.87,8.87,0,0,0,.69,1.48c.65,1.1,1.43,1.77,2.27,1.77s1.61-.67,2.26-1.77a8.65,8.65,0,0,0,.68-1.43,17.91,17.91,0,0,0,.71-2.61,36.62,36.62,0,0,0,.72-5.67,18.2,18.2,0,0,0-.45-4.8c-.81-3.88-2-4.54-3.92-4.54S16,54.77,15.18,58.65Z"/><path class="cls-163" d="M15.2,58.69a17.64,17.64,0,0,0-.45,4.73,38.68,38.68,0,0,0,.71,5.63,19.1,19.1,0,0,0,.71,2.6,8.87,8.87,0,0,0,.69,1.48c.64,1.09,1.41,1.76,2.24,1.76s1.6-.67,2.25-1.77A8.16,8.16,0,0,0,22,71.7a21,21,0,0,0,.71-2.59,37.45,37.45,0,0,0,.71-5.65A18,18,0,0,0,23,58.69c-.8-3.9-2-4.56-3.91-4.56S16,54.79,15.2,58.69Z"/><path class="cls-164" d="M15.21,58.72a18.43,18.43,0,0,0-.43,4.71A38.4,38.4,0,0,0,15.49,69a19.25,19.25,0,0,0,.7,2.58,9.19,9.19,0,0,0,.68,1.47c.64,1.09,1.41,1.76,2.23,1.76s1.59-.67,2.23-1.76A7.49,7.49,0,0,0,22,71.67a19.17,19.17,0,0,0,.71-2.58,37.05,37.05,0,0,0,.71-5.62A18.4,18.4,0,0,0,23,58.72c-.8-3.91-2-4.56-3.9-4.56S16,54.81,15.21,58.72Z"/><path class="cls-165" d="M15.23,58.75a18.4,18.4,0,0,0-.42,4.69,37.82,37.82,0,0,0,.7,5.58,20.69,20.69,0,0,0,.7,2.57,8.75,8.75,0,0,0,.68,1.47c.64,1.09,1.39,1.75,2.21,1.75s1.58-.66,2.22-1.76A8,8,0,0,0,22,71.64a17.55,17.55,0,0,0,.7-2.56,36.82,36.82,0,0,0,.71-5.59A18.4,18.4,0,0,0,23,58.75c-.78-3.92-1.95-4.57-3.88-4.57S16,54.83,15.23,58.75Z"/><path class="cls-166" d="M15.25,58.79a18.15,18.15,0,0,0-.42,4.66A37.73,37.73,0,0,0,15.54,69a18.82,18.82,0,0,0,.69,2.55A8.28,8.28,0,0,0,16.91,73c.63,1.09,1.38,1.75,2.19,1.75s1.57-.66,2.2-1.75A8.84,8.84,0,0,0,22,71.61a18.82,18.82,0,0,0,.69-2.55,37.73,37.73,0,0,0,.72-5.56A19.08,19.08,0,0,0,23,58.79c-.77-3.94-1.94-4.58-3.86-4.58S16,54.85,15.25,58.79Z"/><path class="cls-167" d="M15.26,58.82a18.58,18.58,0,0,0-.4,4.64,38.7,38.7,0,0,0,.7,5.53,19.06,19.06,0,0,0,.69,2.54A9.07,9.07,0,0,0,16.92,73c.63,1.08,1.37,1.75,2.18,1.75s1.55-.67,2.18-1.76a8.32,8.32,0,0,0,.66-1.4A18.26,18.26,0,0,0,22.63,69a37.15,37.15,0,0,0,.71-5.53,19,19,0,0,0-.4-4.69c-.76-4-1.93-4.59-3.84-4.59S16,54.87,15.26,58.82Z"/><path class="cls-168" d="M15.28,58.86a18.94,18.94,0,0,0-.39,4.62,38.14,38.14,0,0,0,.7,5.49,20.15,20.15,0,0,0,.68,2.53A8.94,8.94,0,0,0,16.94,73C17.56,74,18.3,74.7,19.1,74.7S20.64,74,21.27,73a8.73,8.73,0,0,0,.64-1.4A18.31,18.31,0,0,0,22.6,69a36.89,36.89,0,0,0,.71-5.51,18.8,18.8,0,0,0-.39-4.66c-.75-4-1.92-4.6-3.82-4.6S16,54.89,15.28,58.86Z"/><path class="cls-169" d="M15.3,58.89a18.87,18.87,0,0,0-.38,4.6A37.86,37.86,0,0,0,15.61,69a20.93,20.93,0,0,0,.68,2.52A9.68,9.68,0,0,0,17,72.92c.62,1.08,1.35,1.74,2.15,1.74s1.53-.66,2.15-1.75a8.89,8.89,0,0,0,.64-1.38A17.41,17.41,0,0,0,22.57,69a36.49,36.49,0,0,0,.71-5.48,19.22,19.22,0,0,0-.38-4.64c-.74-4-1.9-4.61-3.8-4.61S16.05,54.91,15.3,58.89Z"/><path class="cls-170" d="M15.32,58.92a18.74,18.74,0,0,0-.38,4.58,37.45,37.45,0,0,0,.7,5.44,20.85,20.85,0,0,0,.67,2.51A9.1,9.1,0,0,0,17,72.88c.61,1.08,1.34,1.74,2.13,1.74s1.51-.66,2.13-1.74a8.89,8.89,0,0,0,.64-1.38,20.55,20.55,0,0,0,.68-2.5,37.73,37.73,0,0,0,.7-5.46,19.14,19.14,0,0,0-.37-4.62c-.73-4-1.89-4.61-3.78-4.61S16.06,54.93,15.32,58.92Z"/><path class="cls-171" d="M15.33,59A19.14,19.14,0,0,0,15,63.51a38.27,38.27,0,0,0,.69,5.41,20.16,20.16,0,0,0,.67,2.5A10.68,10.68,0,0,0,17,72.85c.61,1.08,1.34,1.74,2.12,1.74s1.5-.67,2.12-1.74a9.94,9.94,0,0,0,.63-1.38A20.46,20.46,0,0,0,22.52,69a37,37,0,0,0,.7-5.42,19,19,0,0,0-.36-4.6c-.72-4-1.88-4.63-3.76-4.63S16.06,55,15.33,59Z"/><path class="cls-172" d="M15.35,59A19.06,19.06,0,0,0,15,63.52a36.77,36.77,0,0,0,.69,5.39,18.61,18.61,0,0,0,.67,2.48A9,9,0,0,0,17,72.81c.6,1.08,1.32,1.74,2.1,1.74s1.49-.66,2.1-1.74a8.77,8.77,0,0,0,.62-1.37A16.86,16.86,0,0,0,22.49,69a36.6,36.6,0,0,0,.7-5.39A18.94,18.94,0,0,0,22.84,59c-.71-4-1.86-4.63-3.74-4.63S16.07,55,15.35,59Z"/><path class="cls-173" d="M15.37,59A19,19,0,0,0,15,63.53a36.19,36.19,0,0,0,.69,5.36,18.52,18.52,0,0,0,.66,2.47A9,9,0,0,0,17,72.78c.61,1.07,1.32,1.73,2.09,1.73s1.48-.66,2.08-1.73a8.77,8.77,0,0,0,.62-1.37A19.88,19.88,0,0,0,22.47,69a37.71,37.71,0,0,0,.69-5.37A18.9,18.9,0,0,0,22.82,59c-.7-4-1.85-4.64-3.72-4.64S16.08,55,15.37,59Z"/><path class="cls-174" d="M15.39,59.06a19.24,19.24,0,0,0-.34,4.48,38.43,38.43,0,0,0,.69,5.33,18.35,18.35,0,0,0,.66,2.46A8.87,8.87,0,0,0,17,72.74c.6,1.08,1.3,1.73,2.07,1.73s1.46-.66,2.06-1.73a7.49,7.49,0,0,0,.62-1.36,17.78,17.78,0,0,0,.66-2.45,37.29,37.29,0,0,0,.69-5.34,19.81,19.81,0,0,0-.32-4.53c-.7-4-1.85-4.65-3.71-4.65S16.08,55,15.39,59.06Z"/><path class="cls-175" d="M15.4,59.09a19.78,19.78,0,0,0-.32,4.46,36.87,36.87,0,0,0,.69,5.31,18.5,18.5,0,0,0,.65,2.44A9.9,9.9,0,0,0,17,72.71c.6,1.07,1.3,1.72,2.06,1.72s1.45-.65,2-1.72a9,9,0,0,0,.61-1.35,20.2,20.2,0,0,0,.65-2.44,35.65,35.65,0,0,0,.69-5.32,19.72,19.72,0,0,0-.31-4.51C22.1,55,21,54.43,19.1,54.43S16.09,55,15.4,59.09Z"/><path class="cls-176" d="M15.42,59.13a19,19,0,0,0-.31,4.44,36.5,36.5,0,0,0,.68,5.27,19.52,19.52,0,0,0,.65,2.43,9.75,9.75,0,0,0,.62,1.4c.59,1.07,1.28,1.73,2,1.73s1.45-.66,2-1.73a8.4,8.4,0,0,0,.6-1.34,18.25,18.25,0,0,0,.66-2.43,36.42,36.42,0,0,0,.68-5.29,19.55,19.55,0,0,0-.3-4.48c-.67-4.07-1.82-4.67-3.68-4.67S16.1,55.06,15.42,59.13Z"/><path class="cls-177" d="M15.44,59.16a19,19,0,0,0-.3,4.42,36.23,36.23,0,0,0,.68,5.25,18.07,18.07,0,0,0,.64,2.41,8.29,8.29,0,0,0,.62,1.4c.58,1.07,1.27,1.72,2,1.72s1.43-.66,2-1.72a8.4,8.4,0,0,0,.6-1.34,18.16,18.16,0,0,0,.65-2.42,37.48,37.48,0,0,0,.69-5.25,20.65,20.65,0,0,0-.3-4.47c-.66-4.08-1.81-4.68-3.66-4.68S16.1,55.08,15.44,59.16Z"/><path class="cls-178" d="M15.46,59.19a20,20,0,0,0-.3,4.4,38.58,38.58,0,0,0,.68,5.22,20.23,20.23,0,0,0,.64,2.41,8.91,8.91,0,0,0,.61,1.38c.58,1.07,1.26,1.72,2,1.72s1.42-.65,2-1.72a9.79,9.79,0,0,0,.59-1.33,20,20,0,0,0,.64-2.4A37.39,37.39,0,0,0,23,63.64a19.91,19.91,0,0,0-.29-4.45c-.65-4.09-1.8-4.68-3.64-4.68S16.11,55.1,15.46,59.19Z"/><path class="cls-179" d="M15.47,59.23a20.49,20.49,0,0,0-.28,4.37,36.63,36.63,0,0,0,.68,5.19,18.39,18.39,0,0,0,.63,2.4,8.91,8.91,0,0,0,.61,1.38c.57,1.06,1.25,1.71,2,1.71s1.41-.65,2-1.71a9.79,9.79,0,0,0,.59-1.33,19.34,19.34,0,0,0,.64-2.39,38.08,38.08,0,0,0,.68-5.2,19.73,19.73,0,0,0-.28-4.42c-.64-4.11-1.78-4.7-3.62-4.7S16.12,55.12,15.47,59.23Z"/><path class="cls-180" d="M15.49,59.26a19.82,19.82,0,0,0-.27,4.35,37.84,37.84,0,0,0,.67,5.17,22.43,22.43,0,0,0,.63,2.38,9.85,9.85,0,0,0,.6,1.37c.57,1.07,1.24,1.72,2,1.72s1.4-.66,2-1.72a8.16,8.16,0,0,0,.58-1.32,19.45,19.45,0,0,0,.64-2.37A38,38,0,0,0,23,63.66a20.25,20.25,0,0,0-.27-4.4c-.63-4.12-1.77-4.7-3.6-4.7S16.12,55.14,15.49,59.26Z"/><path class="cls-181" d="M15.51,59.29a19.73,19.73,0,0,0-.26,4.33,35.92,35.92,0,0,0,.67,5.14,19.66,19.66,0,0,0,.62,2.37,8.79,8.79,0,0,0,.6,1.37c.57,1.06,1.23,1.71,1.95,1.71s1.38-.65,1.95-1.71a8.57,8.57,0,0,0,.58-1.32,17.3,17.3,0,0,0,.63-2.36,37.35,37.35,0,0,0,.68-5.15,20.16,20.16,0,0,0-.26-4.38c-.61-4.13-1.76-4.71-3.58-4.71S16.13,55.16,15.51,59.29Z"/><path class="cls-182" d="M15.52,59.33a20.81,20.81,0,0,0-.25,4.3,37,37,0,0,0,.67,5.11,19.46,19.46,0,0,0,.62,2.36,9.23,9.23,0,0,0,.59,1.36c.57,1.06,1.23,1.71,1.94,1.71s1.37-.65,1.94-1.71a9.37,9.37,0,0,0,.57-1.3,21.37,21.37,0,0,0,.63-2.36,38.5,38.5,0,0,0,.67-5.12,20.62,20.62,0,0,0-.25-4.35c-.6-4.15-1.75-4.72-3.56-4.72S16.14,55.18,15.52,59.33Z"/><path class="cls-183" d="M15.54,59.36a20.82,20.82,0,0,0-.24,4.29A36.54,36.54,0,0,0,16,68.73a19.18,19.18,0,0,0,.61,2.34,10.27,10.27,0,0,0,.59,1.36c.56,1.06,1.21,1.7,1.92,1.7s1.36-.65,1.92-1.7a9.37,9.37,0,0,0,.57-1.3,19.08,19.08,0,0,0,.62-2.34,36.68,36.68,0,0,0,.67-5.09,21.35,21.35,0,0,0-.23-4.34c-.6-4.16-1.74-4.73-3.55-4.73S16.14,55.2,15.54,59.36Z"/><path class="cls-184" d="M15.56,59.4a20.58,20.58,0,0,0-.23,4.26,37.66,37.66,0,0,0,.66,5A21.59,21.59,0,0,0,16.6,71a11.82,11.82,0,0,0,.58,1.36c.56,1,1.21,1.69,1.91,1.69s1.34-.64,1.9-1.7a8.19,8.19,0,0,0,.56-1.29,17.68,17.68,0,0,0,.62-2.33,36.06,36.06,0,0,0,.67-5.06,21.11,21.11,0,0,0-.22-4.31c-.59-4.18-1.73-4.74-3.53-4.74S16.15,55.22,15.56,59.4Z"/><path class="cls-185" d="M15.58,59.43a20.49,20.49,0,0,0-.22,4.24,37.22,37.22,0,0,0,.66,5A19.29,19.29,0,0,0,16.63,71a8.57,8.57,0,0,0,.57,1.35c.55,1,1.19,1.7,1.89,1.7s1.33-.65,1.89-1.7a9.26,9.26,0,0,0,.55-1.29,17.83,17.83,0,0,0,.61-2.31,36,36,0,0,0,.67-5,21.8,21.8,0,0,0-.21-4.29c-.57-4.19-1.72-4.75-3.51-4.75S16.15,55.25,15.58,59.43Z"/><path class="cls-186" d="M15.59,59.46a21.11,21.11,0,0,0-.21,4.22,36.92,36.92,0,0,0,.66,5A19.61,19.61,0,0,0,16.65,71a10.61,10.61,0,0,0,.56,1.34c.55,1,1.19,1.69,1.88,1.69s1.32-.65,1.87-1.7A9.11,9.11,0,0,0,21.51,71a18.91,18.91,0,0,0,.61-2.3,37.07,37.07,0,0,0,.66-5,21,21,0,0,0-.2-4.27c-.56-4.19-1.7-4.75-3.49-4.75S16.16,55.27,15.59,59.46Z"/><path class="cls-187" d="M15.61,59.5a20.87,20.87,0,0,0-.2,4.19,36.27,36.27,0,0,0,.66,5,17.73,17.73,0,0,0,.6,2.3,9.86,9.86,0,0,0,.56,1.33c.54,1,1.17,1.69,1.86,1.69s1.31-.64,1.85-1.69A9.64,9.64,0,0,0,21.49,71a20.85,20.85,0,0,0,.6-2.29,36.21,36.21,0,0,0,.66-5,20.76,20.76,0,0,0-.19-4.24c-.55-4.21-1.69-4.77-3.47-4.77S16.16,55.29,15.61,59.5Z"/><path class="cls-188" d="M15.63,59.53a21.58,21.58,0,0,0-.19,4.17,37.82,37.82,0,0,0,.65,5,21.24,21.24,0,0,0,.6,2.28,9.86,9.86,0,0,0,.56,1.33c.53,1,1.16,1.68,1.83,1.68s1.3-.64,1.84-1.69A8.23,8.23,0,0,0,21.46,71a17.39,17.39,0,0,0,.6-2.28,37.74,37.74,0,0,0,.67-5,22.12,22.12,0,0,0-.19-4.22c-.53-4.22-1.68-4.77-3.46-4.77S16.17,55.31,15.63,59.53Z"/><path class="cls-189" d="M15.65,59.56a21.48,21.48,0,0,0-.18,4.15,35.55,35.55,0,0,0,.65,4.92,19,19,0,0,0,.59,2.27,9.73,9.73,0,0,0,.55,1.32c.53,1,1.15,1.69,1.82,1.69s1.29-.65,1.83-1.69A9.37,9.37,0,0,0,21.44,71a21,21,0,0,0,.6-2.27,38.87,38.87,0,0,0,.66-4.92,22.08,22.08,0,0,0-.18-4.21c-.52-4.23-1.67-4.78-3.44-4.78S16.17,55.33,15.65,59.56Z"/><path class="cls-190" d="M15.66,59.6a22.12,22.12,0,0,0-.17,4.13,38.48,38.48,0,0,0,.65,4.88,20.93,20.93,0,0,0,.59,2.26,10.3,10.3,0,0,0,.55,1.32c.53,1,1.14,1.68,1.8,1.68s1.28-.65,1.81-1.69a9.21,9.21,0,0,0,.53-1.25A18.34,18.34,0,0,0,22,68.67a38.39,38.39,0,0,0,.66-4.89,21.87,21.87,0,0,0-.17-4.18c-.51-4.25-1.65-4.79-3.42-4.79S16.18,55.35,15.66,59.6Z"/><path class="cls-191" d="M15.68,59.63a22.06,22.06,0,0,0-.16,4.11,36.67,36.67,0,0,0,.65,4.86,19,19,0,0,0,.58,2.24,9.6,9.6,0,0,0,.54,1.31c.53,1,1.13,1.68,1.79,1.68s1.27-.64,1.79-1.68a9.21,9.21,0,0,0,.53-1.25A19,19,0,0,0,22,68.66a36.38,36.38,0,0,0,.66-4.87,22.57,22.57,0,0,0-.16-4.16c-.49-4.26-1.64-4.8-3.4-4.8S16.18,55.37,15.68,59.63Z"/><path class="cls-192" d="M15.7,59.67a21.8,21.8,0,0,0-.15,4.08,37.47,37.47,0,0,0,.64,4.83,21,21,0,0,0,.58,2.23,9.6,9.6,0,0,0,.54,1.31c.52,1,1.12,1.67,1.77,1.67s1.25-.64,1.78-1.68a8.6,8.6,0,0,0,.51-1.24A18.26,18.26,0,0,0,22,68.64a37.38,37.38,0,0,0,.65-4.84,23.31,23.31,0,0,0-.14-4.13c-.49-4.28-1.64-4.81-3.39-4.81S16.19,55.39,15.7,59.67Z"/><path class="cls-193" d="M15.71,59.7a21.77,21.77,0,0,0-.13,4.06,35.35,35.35,0,0,0,.64,4.8,20.31,20.31,0,0,0,.57,2.22,9.47,9.47,0,0,0,.53,1.3c.52,1,1.12,1.67,1.76,1.67s1.24-.64,1.76-1.67a8.6,8.6,0,0,0,.51-1.24,18.47,18.47,0,0,0,.58-2.21,37.3,37.3,0,0,0,.65-4.82,22.32,22.32,0,0,0-.13-4.11c-.48-4.29-1.62-4.82-3.37-4.82S16.19,55.41,15.71,59.7Z"/><path class="cls-194" d="M15.73,59.73a23.47,23.47,0,0,0-.13,4,38.75,38.75,0,0,0,.64,4.78,21.35,21.35,0,0,0,.57,2.21,9.85,9.85,0,0,0,.53,1.29c.51,1,1.1,1.67,1.74,1.67s1.23-.64,1.74-1.68a9,9,0,0,0,.51-1.23,20.48,20.48,0,0,0,.57-2.2,36.84,36.84,0,0,0,.65-4.79,23.12,23.12,0,0,0-.12-4.09c-.46-4.3-1.61-4.82-3.35-4.82S16.2,55.43,15.73,59.73Z"/><path class="cls-195" d="M15.75,59.77a23.2,23.2,0,0,0-.12,4,38,38,0,0,0,.64,4.75,19,19,0,0,0,.56,2.2A10.6,10.6,0,0,0,17.35,72c.51,1,1.1,1.67,1.73,1.67S20.3,73,20.81,72a11,11,0,0,0,.5-1.22,20.48,20.48,0,0,0,.57-2.2,37.76,37.76,0,0,0,.64-4.75,22.94,22.94,0,0,0-.11-4.07c-.45-4.32-1.6-4.84-3.33-4.84S16.2,55.45,15.75,59.77Z"/><path class="cls-196" d="M15.77,59.8a22.12,22.12,0,0,0-.11,4,35.78,35.78,0,0,0,.63,4.72c.17.81.36,1.55.56,2.19A11.31,11.31,0,0,0,17.37,72c.5,1,1.08,1.66,1.71,1.66S20.28,73,20.79,72a10.12,10.12,0,0,0,.49-1.21,20.68,20.68,0,0,0,.57-2.18,37.68,37.68,0,0,0,.64-4.73,22.85,22.85,0,0,0-.1-4.05C22,55.47,20.8,55,19.08,55S16.2,55.47,15.77,59.8Z"/><path class="cls-197" d="M15.78,59.83a23.13,23.13,0,0,0-.09,4,35.55,35.55,0,0,0,.63,4.69,21.36,21.36,0,0,0,.55,2.17,10.47,10.47,0,0,0,.51,1.27c.5,1,1.08,1.66,1.7,1.66s1.19-.63,1.69-1.66a9.22,9.22,0,0,0,.49-1.21,17.89,17.89,0,0,0,.56-2.17,37.21,37.21,0,0,0,.64-4.7,23.73,23.73,0,0,0-.09-4C22,55.49,20.8,55,19.08,55S16.21,55.5,15.78,59.83Z"/><path class="cls-198" d="M15.8,59.87a23.82,23.82,0,0,0-.09,4,38.47,38.47,0,0,0,.63,4.66,20.35,20.35,0,0,0,.56,2.16,9.61,9.61,0,0,0,.5,1.27c.49,1,1.06,1.66,1.68,1.66s1.18-.64,1.67-1.67a8.53,8.53,0,0,0,.49-1.2,20.78,20.78,0,0,0,.56-2.15,38.8,38.8,0,0,0,.63-4.68,23.48,23.48,0,0,0-.08-4C21.94,55.52,20.79,55,19.08,55S16.21,55.52,15.8,59.87Z"/><path class="cls-199" d="M15.82,59.9a23.69,23.69,0,0,0-.08,3.93,36.51,36.51,0,0,0,.63,4.64,18.41,18.41,0,0,0,.55,2.14,9.45,9.45,0,0,0,.5,1.26c.49,1,1,1.66,1.66,1.66s1.16-.64,1.66-1.66a10,10,0,0,0,.48-1.2,20,20,0,0,0,.55-2.14,38,38,0,0,0,.64-4.65,24.34,24.34,0,0,0-.08-4C21.94,55.54,20.78,55,19.08,55S16.22,55.54,15.82,59.9Z"/><path class="cls-200" d="M15.84,59.94a23.44,23.44,0,0,0-.07,3.9,37.91,37.91,0,0,0,.62,4.61,19.82,19.82,0,0,0,.55,2.13,11.09,11.09,0,0,0,.49,1.26c.49,1,1,1.65,1.64,1.65s1.16-.63,1.65-1.65a10.7,10.7,0,0,0,.48-1.2,19.94,19.94,0,0,0,.54-2.13,37.26,37.26,0,0,0,.64-4.62,25.22,25.22,0,0,0-.07-4c-.38-4.38-1.53-4.88-3.24-4.88S16.22,55.56,15.84,59.94Z"/><path class="cls-201" d="M15.85,60a25.69,25.69,0,0,0-.06,3.88,39.16,39.16,0,0,0,.63,4.58A20.35,20.35,0,0,0,17,70.55a8.82,8.82,0,0,0,.49,1.25c.48,1,1,1.65,1.62,1.65s1.15-.63,1.63-1.65a8.43,8.43,0,0,0,.47-1.19c.2-.62.38-1.33.55-2.11a39.34,39.34,0,0,0,.63-4.59A24,24,0,0,0,22.29,60c-.36-4.39-1.52-4.89-3.22-4.89S16.22,55.58,15.85,60Z"/><path class="cls-202" d="M15.87,60a25.55,25.55,0,0,0,0,3.86,38.83,38.83,0,0,0,.62,4.56,20.56,20.56,0,0,0,.54,2.1,11,11,0,0,0,.48,1.25c.48,1,1,1.65,1.61,1.65s1.14-.64,1.62-1.65a10.41,10.41,0,0,0,.46-1.18,20.13,20.13,0,0,0,.54-2.11,38.82,38.82,0,0,0,.63-4.56,25.17,25.17,0,0,0,0-3.92c-.36-4.4-1.52-4.89-3.21-4.89S16.23,55.6,15.87,60Z"/><path class="cls-203" d="M15.89,60a24,24,0,0,0,0,3.83,36.09,36.09,0,0,0,.62,4.53A20.68,20.68,0,0,0,17,70.5a10.55,10.55,0,0,0,.48,1.23c.47,1,1,1.65,1.59,1.65s1.12-.63,1.6-1.65a11,11,0,0,0,.46-1.17,20.46,20.46,0,0,0,.53-2.09,38.19,38.19,0,0,0,.63-4.54,26.16,26.16,0,0,0,0-3.89c-.34-4.42-1.51-4.91-3.19-4.91S16.23,55.62,15.89,60Z"/><path class="cls-204" d="M15.91,60.07a23.88,23.88,0,0,0,0,3.81,37.54,37.54,0,0,0,.61,4.5c.16.77.34,1.47.53,2.09a12.81,12.81,0,0,0,.47,1.23c.47,1,1,1.64,1.58,1.64s1.11-.63,1.58-1.64a11,11,0,0,0,.46-1.17,19.71,19.71,0,0,0,.52-2.08,37.68,37.68,0,0,0,.63-4.51,26,26,0,0,0,0-3.87c-.32-4.43-1.49-4.91-3.17-4.91S16.23,55.64,15.91,60.07Z"/><path class="cls-205" d="M15.92,60.1a26.46,26.46,0,0,0,0,3.8,39.76,39.76,0,0,0,.62,4.47A20.12,20.12,0,0,0,17,70.44a9.44,9.44,0,0,0,.47,1.22c.46,1,1,1.64,1.56,1.64s1.1-.63,1.56-1.64a10.07,10.07,0,0,0,.45-1.16,20,20,0,0,0,.53-2.07A37.19,37.19,0,0,0,22.23,64a25.86,25.86,0,0,0,0-3.85c-.31-4.44-1.48-4.92-3.15-4.92S16.23,55.66,15.92,60.1Z"/><path class="cls-206" d="M15.94,60.14a26.17,26.17,0,0,0,0,3.77,36.52,36.52,0,0,0,.62,4.44,20,20,0,0,0,.51,2.06,11.22,11.22,0,0,0,.46,1.22c.46,1,1,1.63,1.55,1.63s1.09-.62,1.55-1.63c.15-.35.3-.73.44-1.16a19.68,19.68,0,0,0,.52-2A35,35,0,0,0,22.2,64a27,27,0,0,0,0-3.82c-.29-4.46-1.47-4.93-3.13-4.93S16.24,55.68,15.94,60.14Z"/><path class="cls-207" d="M16,60.17a26,26,0,0,0,0,3.75,36,36,0,0,0,.61,4.41,20.46,20.46,0,0,0,.51,2,10.28,10.28,0,0,0,.46,1.21c.45,1,1,1.64,1.53,1.64s1.07-.63,1.53-1.64A12.16,12.16,0,0,0,21,70.44a19.57,19.57,0,0,0,.51-2A34.34,34.34,0,0,0,22.17,64a26.94,26.94,0,0,0,0-3.81c-.28-4.46-1.45-4.94-3.11-4.94S16.24,55.71,16,60.17Z"/><path class="cls-208" d="M16,60.21a27.32,27.32,0,0,0,0,3.72,36,36,0,0,0,.61,4.39c.15.74.32,1.43.5,2s.3.85.45,1.21c.45,1,1,1.63,1.52,1.63s1.06-.63,1.51-1.63A10.48,10.48,0,0,0,21,70.42c.18-.61.35-1.29.51-2a35.87,35.87,0,0,0,.61-4.4,25.22,25.22,0,0,0,0-3.78c-.26-4.48-1.44-5-3.09-5S16.24,55.73,16,60.21Z"/><path class="cls-209" d="M16,60.24a28.72,28.72,0,0,0,0,3.7,37.22,37.22,0,0,0,.61,4.36c.15.74.32,1.42.5,2a11.07,11.07,0,0,0,.45,1.21c.45,1,.95,1.62,1.5,1.62s1.05-.62,1.5-1.63A9.66,9.66,0,0,0,21,70.39a19.78,19.78,0,0,0,.51-2A37.37,37.37,0,0,0,22.12,64a27.91,27.91,0,0,0,0-3.76c-.25-4.49-1.43-5-3.07-5S16.24,55.75,16,60.24Z"/><path class="cls-210" d="M16,60.27A26.83,26.83,0,0,0,16,64a37.17,37.17,0,0,0,.61,4.34,19.56,19.56,0,0,0,.49,2,10.15,10.15,0,0,0,.45,1.2c.44,1,.94,1.62,1.48,1.62s1-.62,1.48-1.62A10.38,10.38,0,0,0,21,70.36c.18-.6.35-1.27.5-2A36.86,36.86,0,0,0,22.09,64a27.72,27.72,0,0,0,0-3.74c-.23-4.5-1.42-5-3.05-5S16.24,55.77,16,60.27Z"/><path class="cls-211" d="M16,60.31a26.5,26.5,0,0,0,0,3.65,38.57,38.57,0,0,0,.6,4.31,20.12,20.12,0,0,0,.5,2,11.59,11.59,0,0,0,.43,1.19c.44,1,.93,1.62,1.47,1.62s1-.63,1.46-1.63A10.18,10.18,0,0,0,21,70.33c.18-.59.35-1.26.5-2A38.4,38.4,0,0,0,22.06,64a29.25,29.25,0,0,0,.05-3.71c-.22-4.52-1.41-5-3-5S16.25,55.79,16,60.31Z"/><path class="cls-212" d="M16,60.34A28.25,28.25,0,0,0,16.1,64a37.85,37.85,0,0,0,.6,4.27,20,20,0,0,0,.49,2,9.46,9.46,0,0,0,.43,1.18c.43,1,.92,1.62,1.44,1.62s1-.62,1.45-1.62a10.18,10.18,0,0,0,.42-1.12c.18-.59.34-1.26.49-2A40.27,40.27,0,0,0,22,64a29,29,0,0,0,.06-3.69c-.21-4.53-1.4-5-3-5S16.25,55.81,16,60.34Z"/><path class="cls-213" d="M16.06,60.37A32,32,0,0,0,16.12,64a40.26,40.26,0,0,0,.6,4.25c.15.71.31,1.38.49,2a11.44,11.44,0,0,0,.42,1.18c.43,1,.91,1.61,1.43,1.61s1-.62,1.44-1.62a10.09,10.09,0,0,0,.4-1.11,19.32,19.32,0,0,0,.49-2A40.43,40.43,0,0,0,22,64.05a31,31,0,0,0,.07-3.68c-.19-4.54-1.39-5-3-5S16.25,55.83,16.06,60.37Z"/><path class="cls-214" d="M16.08,60.41A29.5,29.5,0,0,0,16.15,64a37.27,37.27,0,0,0,.6,4.22,20.12,20.12,0,0,0,.48,2,11.22,11.22,0,0,0,.42,1.17c.42,1,.9,1.61,1.41,1.61s1-.62,1.42-1.61a10.09,10.09,0,0,0,.4-1.11c.18-.58.34-1.24.49-1.95a39.51,39.51,0,0,0,.6-4.23,30.61,30.61,0,0,0,.08-3.65c-.17-4.56-1.37-5-3-5S16.25,55.85,16.08,60.41Z"/><path class="cls-215" d="M16.1,60.44A29.23,29.23,0,0,0,16.18,64a38.78,38.78,0,0,0,.59,4.19,19.2,19.2,0,0,0,.48,2c.13.43.27.82.41,1.17.42,1,.9,1.6,1.4,1.6s1-.61,1.4-1.61c.14-.32.27-.69.4-1.09.17-.58.34-1.24.48-2a38.94,38.94,0,0,0,.6-4.2A30.33,30.33,0,0,0,22,60.44c-.15-4.56-1.36-5-3-5S16.25,55.88,16.1,60.44Z"/><path class="cls-216" d="M16.11,60.48a31.16,31.16,0,0,0,.1,3.54,36.09,36.09,0,0,0,.59,4.17c.14.7.3,1.35.47,1.93a10.31,10.31,0,0,0,.41,1.16c.41,1,.88,1.61,1.38,1.61s1-.62,1.39-1.61c.13-.33.26-.69.39-1.09.17-.58.33-1.23.47-1.93a38.21,38.21,0,0,0,.6-4.18,32.2,32.2,0,0,0,.1-3.6c-.14-4.58-1.35-5-3-5S16.25,55.9,16.11,60.48Z"/><path class="cls-217" d="M16.13,60.51a30.75,30.75,0,0,0,.1,3.52,40.44,40.44,0,0,0,.59,4.14c.14.7.3,1.35.47,1.92s.26.81.4,1.16c.41,1,.88,1.6,1.37,1.6s1-.62,1.37-1.61c.13-.32.26-.68.38-1.08.18-.58.33-1.22.48-1.92a37.68,37.68,0,0,0,.59-4.15A29.71,29.71,0,0,0,22,60.51c-.12-4.59-1.34-5-2.93-5S16.25,55.92,16.13,60.51Z"/><path class="cls-218" d="M16.15,60.54a30.42,30.42,0,0,0,.11,3.5,39.45,39.45,0,0,0,.59,4.11c.14.69.29,1.34.46,1.91s.26.81.4,1.15c.4,1,.86,1.6,1.35,1.6s1-.61,1.35-1.6c.13-.32.26-.68.38-1.08.17-.57.33-1.21.47-1.9a37.66,37.66,0,0,0,.59-4.13A29.38,29.38,0,0,0,22,60.54c-.1-4.6-1.32-5-2.91-5S16.25,55.94,16.15,60.54Z"/><path class="cls-219" d="M16.16,60.58a32.88,32.88,0,0,0,.13,3.48,39.67,39.67,0,0,0,.58,4.08c.14.68.29,1.32.46,1.89.12.42.26.81.39,1.15.4,1,.86,1.59,1.34,1.59s.93-.61,1.34-1.6c.13-.32.25-.68.37-1.07.17-.57.32-1.21.46-1.89a36.92,36.92,0,0,0,.59-4.09A31.44,31.44,0,0,0,22,60.58c-.08-4.62-1.31-5-2.89-5S16.25,56,16.16,60.58Z"/><path class="cls-220" d="M16.18,60.61c0,1,0,2.23.14,3.46a36.21,36.21,0,0,0,.58,4.05c.13.68.29,1.32.45,1.89a11.4,11.4,0,0,0,.39,1.13c.39,1,.84,1.6,1.32,1.6s.92-.62,1.32-1.6c.13-.32.25-.68.37-1.07.16-.56.32-1.2.46-1.88.25-1.26.46-2.68.59-4.06a33.52,33.52,0,0,0,.13-3.52c-.07-4.63-1.3-5-2.87-5S16.25,56,16.18,60.61Z"/><path class="cls-221" d="M16.2,60.64c0,1,0,2.23.14,3.44a40.47,40.47,0,0,0,.58,4c.14.68.29,1.31.45,1.88a11.4,11.4,0,0,0,.39,1.13c.39,1,.83,1.59,1.3,1.59s.91-.61,1.3-1.6A9.34,9.34,0,0,0,20.72,70c.17-.56.32-1.19.46-1.86.25-1.26.46-2.67.59-4s.16-2.43.15-3.5c-.06-4.63-1.29-5.06-2.86-5.06S16.25,56,16.2,60.64Z"/><path class="cls-222" d="M16.22,60.68c0,1,0,2.21.15,3.41.13,1.36.33,2.75.58,4,.13.67.28,1.3.44,1.86.12.41.25.79.38,1.12.39,1,.82,1.59,1.29,1.59s.9-.61,1.28-1.59a10.7,10.7,0,0,0,.36-1c.16-.56.32-1.19.45-1.86a37.5,37.5,0,0,0,.59-4c.11-1.22.16-2.41.16-3.47,0-4.65-1.28-5.07-2.84-5.07S16.25,56,16.22,60.68Z"/><path class="cls-223" d="M16.23,60.71c0,1,.06,2.2.17,3.39a39.9,39.9,0,0,0,.57,4c.14.67.28,1.29.44,1.85.12.41.25.79.38,1.12.38,1,.81,1.58,1.27,1.58S20,72,20.33,71c.12-.31.24-.66.35-1,.16-.56.31-1.18.44-1.84a37.49,37.49,0,0,0,.59-4c.11-1.21.17-2.39.17-3.45,0-4.66-1.27-5.08-2.82-5.08S16.25,56.05,16.23,60.71Z"/><path class="cls-224" d="M16.25,60.75c0,4.67,1.26,11.83,2.81,11.83s2.8-7.16,2.8-11.83-1.26-5.09-2.8-5.09S16.25,56.07,16.25,60.75Z"/><path class="cls-225" d="M4.59,47.7c0-.33.08-.88.21-1.59s.29-1.35.34-1.56c.12-.43.3-1,.44-1.41.27-.76.49-1.27.52-1.33.1-.22.34-.75.54-1.11.08-.15.18-.34.27-.48.38-.61.38-.61.57-.88.34-.46.58-.73.58-.73s.2-.23.3-.32A7.31,7.31,0,0,1,9,37.72c.18-.15.44-.34.63-.48L10,37l.36-.21.7-.35A7.07,7.07,0,0,1,12.18,36l.5-.1c.19,0,.45,0,.64,0a2.34,2.34,0,0,1,.75.16,2.38,2.38,0,0,1,.41.23c.07,0,.14.13.21.18-.58-.6-1.65-.43-2.94.15-2.59,1.16-5.09,3.56-6.46,8.64-1.06,3.91-.56,8,.45,9.37-.06-.09-.13-.17-.18-.25s-.14-.24-.19-.34A5.59,5.59,0,0,1,5,53.09a11.25,11.25,0,0,1-.43-2.44c0-.31-.06-.78-.06-1.42S4.58,47.86,4.59,47.7Z"/><path class="cls-225" d="M5.29,45.25c1.37-5.08,3.87-7.48,6.46-8.64,1.29-.58,2.36-.75,2.94-.15l.3.31c-.59-.6-1.66-.43-2.94.14C9.45,38.08,7,40.47,5.59,45.56c-1.11,4.1-.51,8.4.6,9.55l-.3-.31C4.78,53.65,4.18,49.35,5.29,45.25Z"/><path class="cls-226" d="M5.59,45.56c1.37-5.09,3.86-7.48,6.46-8.65,1.28-.57,2.35-.74,2.94-.14a4.1,4.1,0,0,1,.29.4,1.51,1.51,0,0,1,.13.29,2.54,2.54,0,0,1,.14.47,4.13,4.13,0,0,1,.07.49c0,.13,0,.31,0,.44a5.12,5.12,0,0,1,0,.56,11.5,11.5,0,0,1-.15,1.16,20.69,20.69,0,0,1-.66,2.51c-.22.63-.31.92-.63,1.7s-.52,1.22-.77,1.76C12.85,47.76,12,49.34,11.63,50c-.58,1-.58,1-.91,1.58s-.66,1.09-.86,1.4l-.42.63c-.18.27-.43.63-.63.89a6.16,6.16,0,0,1-.51.63,1.56,1.56,0,0,1-.53.37,1,1,0,0,1-.23.07,1.84,1.84,0,0,1-.33,0,1.61,1.61,0,0,1-.37-.07,1.47,1.47,0,0,1-.22-.1,2.34,2.34,0,0,1-.43-.33C5.08,54,4.48,49.66,5.59,45.56Z"/><path class="cls-227" d="M12.05,36.91c1.28-.57,2.35-.74,2.94-.14a4.1,4.1,0,0,1,.29.4,1.51,1.51,0,0,1,.13.29,2.54,2.54,0,0,1,.14.47,4.13,4.13,0,0,1,.07.49c0,.13,0,.31,0,.44a5.12,5.12,0,0,1,0,.56c0,.06,0,.12,0,.18a10.57,10.57,0,0,0-5.55,8.65,16.77,16.77,0,0,0,.15,4.19L9.86,53l-.42.63-.54.77c-.16-.24-.32-.48-.44-.7a14.55,14.55,0,0,1-.93-1.9,16.29,16.29,0,0,1-.64-1.9c-.06-.25-.15-.59-.2-.84s-.15-.74-.21-1-.15-1-.21-1.88c0-.3,0-.7,0-1s0-.59,0-.84,0-.66.07-.93A11,11,0,0,1,12.05,36.91Z"/><path class="cls-228" d="M6.56,42.78a9.42,9.42,0,0,1,.13-1.15,6.58,6.58,0,0,1,.23-.93c0-.12.09-.29.14-.4a3.17,3.17,0,0,1,.17-.37,3.84,3.84,0,0,1,.18-.35c.13-.2.31-.47.45-.66s.18-.22.26-.32.21-.23.31-.32.47-.45.69-.63.28-.23.4-.32l.88-.63.49-.32,1-.62c.88-.5,1.39-.74,1.69-.89.63-.3,1.2-.51,1.2-.51.29-.11.69-.23,1-.31s.42-.09.59-.13a9.62,9.62,0,0,1,1.06-.14A8.15,8.15,0,0,1,19.8,34a9.76,9.76,0,0,1,1.2.36c.32.13.71.33,1,.5l.13.07,1.44.83c-1.3-.76-3.4.1-5.77,1.47-3.94,2.27-7.13,5.08-7.11,10.71,0,4,1.64,8.36,4,9.72l-1.43-.83a4.62,4.62,0,0,1-.85-.64,4.62,4.62,0,0,0,.85.64c-.26-.15-.6-.37-.84-.54s-.43-.32-.61-.47a11.44,11.44,0,0,1-1.13-1,12.42,12.42,0,0,1-1-1.26,14.82,14.82,0,0,1-1.11-1.81,15.78,15.78,0,0,1-.81-1.82c-.09-.25-.21-.58-.29-.82s-.22-.72-.3-1a18.19,18.19,0,0,1-.39-1.85c0-.3-.1-.7-.13-1s0-.59-.07-.84A12.78,12.78,0,0,1,6.56,42.78Z"/><path class="cls-229" d="M17.83,37.2C20.2,35.83,22.3,35,23.6,35.73l.8.52.57.47a7.93,7.93,0,0,1,2.33,3.62,5.72,5.72,0,0,1,.17.59c.06.3.13.71.17,1a11,11,0,0,1,.09,1.42c0,1-.08,1.57-.09,1.74s-.07.62-.11.89a17.75,17.75,0,0,1-.31,1.83c0,.28-.13.65-.19.93-.14.54-.32,1.27-.47,1.8-.25.88-.53,1.75-.84,2.57a22.64,22.64,0,0,1-.93,2.16,10.26,10.26,0,0,1-1,1.67,5,5,0,0,1-.66.72,4,4,0,0,1-.41.31,7.41,7.41,0,0,1-.67.4,5.64,5.64,0,0,1-1,.38,6.45,6.45,0,0,1-1.25.19,8.59,8.59,0,0,1-1.34,0A10,10,0,0,1,17,58.63l-.78-.26-.65-.28c-.28-.12-.62-.32-.88-.46-2.35-1.36-4-5.71-4-9.72C10.7,42.28,13.89,39.47,17.83,37.2Z"/><path class="cls-227" d="M25.93,42.94a4.05,4.05,0,0,1,1.78-.14c0,.26,0,.47,0,.56,0,1-.08,1.57-.09,1.74s-.07.62-.11.89a17.75,17.75,0,0,1-.31,1.83c0,.28-.13.65-.19.93-.14.54-.32,1.27-.47,1.8-.25.88-.53,1.75-.84,2.57a22.64,22.64,0,0,1-.93,2.16,10.26,10.26,0,0,1-1,1.67,5,5,0,0,1-.66.72l-.14.11a31.83,31.83,0,0,1-.84-4.29C21.34,46.35,23.26,43.7,25.93,42.94Z"/><path class="cls-230" d="M19.83,6.22c-1.69,1-6.19,5.87-8.76,10.23C8.18,21.39,8.41,23.25,9.61,24a1.76,1.76,0,0,0,1.93-.07c1-.57,2.27-2,3.93-4.79,3-5.11,5.32-12.78,4.71-13C20.17,6.07,20.06,6.09,19.83,6.22Z"/><path class="cls-225" d="M7.33,21.56c0-.11,0-.25,0-.36s.1-.56.16-.79a7.65,7.65,0,0,1,.3-1,18.08,18.08,0,0,1,1.08-2.37A32.14,32.14,0,0,1,11,13.64c.23-.34.75-1.06.95-1.33l.5-.65,1-1.28c.69-.84,1.77-2.08,2.95-3.26.21-.2.75-.73,1.26-1.16.12-.1.29-.24.42-.33l.56-.39A1.65,1.65,0,0,1,19.24,5a1,1,0,0,1,.54.12l.14.09c-.12-.08-.36,0-.67.16-1.82,1.05-6.41,6.07-9,10.54-3.09,5.23-2.86,7.41-1.48,8.25l0,0-.15-.08h0l0,0h0a2.49,2.49,0,0,1-.52-.4,2.12,2.12,0,0,1-.42-.56,3.49,3.49,0,0,1-.15-.34,2,2,0,0,1-.1-.35A3.26,3.26,0,0,1,7.33,21.56Z"/><path class="cls-228" d="M8.72,24.18l0,0a2.46,2.46,0,0,0,.74.3,2.19,2.19,0,0,0,.73.05,2.82,2.82,0,0,0,.71-.17l.39-.18a4.42,4.42,0,0,0,.41-.26,4.89,4.89,0,0,0,.74-.61c.34-.33.63-.67.78-.84A23.25,23.25,0,0,0,15.05,20a35.33,35.33,0,0,0,1.81-3.28c.35-.73.62-1.32.81-1.75.11-.26.27-.62.37-.88.44-1.07.48-1.18.69-1.74.48-1.28.71-2,.84-2.43.07-.22.16-.51.22-.73.11-.39.25-.92.35-1.31,0-.17.09-.39.12-.56.09-.54.09-.54.12-.84a1.83,1.83,0,0,0,0-.68,1,1,0,0,0-.14-.3,1,1,0,0,0-.27-.26h0c-.12-.08-.36,0-.67.16-1.82,1.05-6.41,6.07-9,10.54C7.11,21.16,7.34,23.34,8.72,24.18Zm2.35-7.73c2.57-4.36,7.07-9.26,8.76-10.23.23-.13.34-.15.35-.14.61.27-1.7,7.94-4.71,13.05-1.66,2.8-2.94,4.22-3.93,4.79A1.76,1.76,0,0,1,9.61,24C8.41,23.25,8.17,21.39,11.07,16.45Z"/><path class="cls-231" d="M7.37,21.2c0-.24.1-.56.16-.79a7.65,7.65,0,0,1,.3-1,18.08,18.08,0,0,1,1.08-2.37A32.14,32.14,0,0,1,11,13.64l.08-.12a17.53,17.53,0,0,1,7.66-1.2v0c-.21.56-.25.67-.69,1.74-.1.26-.26.62-.37.88-.19.43-.46,1-.81,1.75A35.33,35.33,0,0,1,15.05,20a23.25,23.25,0,0,1-1.78,2.5c-.15.17-.44.51-.78.84a4.89,4.89,0,0,1-.74.61,4.42,4.42,0,0,1-.41.26l-.39.18a2.82,2.82,0,0,1-.71.17,2.19,2.19,0,0,1-.73-.05,2.46,2.46,0,0,1-.74-.3h0l-.15-.08h0l0,0h0a2.49,2.49,0,0,1-.52-.4,2.12,2.12,0,0,1-.42-.56,3.49,3.49,0,0,1-.15-.34,2,2,0,0,1-.1-.35,3.26,3.26,0,0,1-.06-.88C7.34,21.45,7.35,21.31,7.37,21.2Z"/><g class="cls-3"><g class="cls-2"><path class="cls-232" d="M13,34.28c-2.33,1.35-2.34,3.52,0,4.86a9.2,9.2,0,0,0,8.39,0c2.33-1.34,2.34-3.51,0-4.86A9.26,9.26,0,0,0,13,34.28Z"/></g></g><path class="cls-1" d="M3,24.19c1.62,2.94,5.54,4.46,8.62,4.8,1.38.15,4.18-.48,5.26.51s.52,2.74-.05,3.79c-1.72,3.19-5.33,3-8.35,2.06-2.56-.8-4-3-4.77-5.48a14.62,14.62,0,0,1-.52-2.36,19,19,0,0,1-.19-3C3,24.43,3,24.44,3,24.19Z"/><g class="cls-233"><path class="cls-234" d="M2.9,25.89c-.13,0-.26.05-.27.38v.23a16.51,16.51,0,0,0,.27,3.17A4,4,0,0,0,5,30.29a12.41,12.41,0,0,1-2.07-4.4Z"/><path class="cls-234" d="M10.82,31.26a11.37,11.37,0,0,1,1,.87.67.67,0,0,1-.08,1h0A2.84,2.84,0,0,1,8.39,33L5.9,30.91l2.91-.3A2.85,2.85,0,0,1,10.82,31.26Z"/></g><path class="cls-235" d="M8.64,28.33a14.15,14.15,0,0,0,3,.66c1.38.15,4.18-.48,5.26.51s.52,2.74-.05,3.79c-1.72,3.19-5.33,3-8.35,2.06a6.11,6.11,0,0,1-2.61-1.63A9,9,0,0,0,8.64,28.33Z"/><path class="cls-229" d="M6.52,34.58c3.58,1.75,9.78,2.55,10.82-2.64.5-2.52-1.16-2.88-3.3-2.84a16.62,16.62,0,0,1-7.55-1.52c-3.16-1.58-4.63-4-3.19-7.31a8.26,8.26,0,0,1,2-2.74,12.72,12.72,0,0,1,1.2-1c.18-.14,1.37-.88.78-.52,6.56-4,13.65-4.45,20,.22a11.51,11.51,0,0,1,4.23,10.62c-.67,5.28-6,10.13-11.79,10.87-6.93.89-9.86-.36-13.21-3.14C7,34.82,6.49,34.55,6.52,34.58Z"/><path class="cls-236" d="M30.46,20.16a12.24,12.24,0,0,1,.71,1.89,42.08,42.08,0,0,1-1.61,5.13c-1.21,3-2.25,4.63-3.14,5.35-.68.55-1.38.18-2-.06-1.3-.54-1.92-2,.35-7.25S30,19.24,30.46,20.16Z"/><path class="cls-229" d="M26.31,42.61l.21,0Z"/><path class="cls-229" d="M32.25,63.22l.24,0Z"/><path class="cls-225" d="M22.9,46.53c0-.13,0-.31.06-.45a7.73,7.73,0,0,1,.19-.8,3.46,3.46,0,0,1,.33-.71c.11-.18.27-.41.4-.58a3.31,3.31,0,0,1,.26-.27l.27-.24.57-.39c.17-.09.39-.2.56-.27l.31-.11.35-.08.11,0a3.42,3.42,0,0,0-1.22.45c-2,1.15-3,3.66-.9,9.22,1.9,5,6.34,10.51,8.06,10.94l-.2,0a2.41,2.41,0,0,1-.33-.15A5.25,5.25,0,0,1,31,62.5a11,11,0,0,1-.88-.81c-.15-.15-.34-.35-.48-.51l-.49-.55c-.16-.18-.36-.43-.51-.62-.32-.4-.73-.94-1-1.35-.16-.22-.36-.52-.51-.74-.35-.51-.78-1.21-1-1.55,0,0-.46-.77-.91-1.64-.15-.3-.44-.86-.79-1.66s-.5-1.28-.62-1.64c-.23-.68-.37-1.19-.44-1.46s-.18-.72-.28-1.3c0-.18-.06-.41-.08-.59s0-.38-.05-.55A7.05,7.05,0,0,1,22.9,46.53Z"/><path class="cls-225" d="M25.09,43.06a3.22,3.22,0,0,1,1.43-.47l.25,0a3.31,3.31,0,0,0-1.44.47c-2,1.15-3,3.67-.9,9.23,2,5.3,6.8,11.06,8.31,11l-.25,0c-1.5.09-6.3-5.67-8.3-11C22.09,46.72,23.1,44.21,25.09,43.06Z"/><path class="cls-229" d="M25.33,43a3.31,3.31,0,0,1,1.44-.47h.44a2.41,2.41,0,0,1,.37.07,2.35,2.35,0,0,1,.35.11l.33.15.34.21a3.7,3.7,0,0,1,.65.55,8.24,8.24,0,0,1,.65.76,9.74,9.74,0,0,1,.63,1c.21.36.45.86.63,1.23s.44,1,.63,1.51.27.77.38,1.11.2.63.27.9l.24.93c.07.28.16.66.22.94.12.58.27,1.35.36,1.93.14.86.24,1.68.27,1.9,0,.5.13,1.26.16,1.81,0,.25,0,.59.05.85s0,.56,0,.8,0,.52,0,.74c0,.66-.06,1.12-.07,1.28a7.29,7.29,0,0,1-.17,1c0,.1-.08.24-.12.34a1.9,1.9,0,0,1-.22.33.61.61,0,0,1-.15.13,1.11,1.11,0,0,1-.3.08c-1.51.1-6.3-5.66-8.31-11C22.34,46.71,23.35,44.19,25.33,43Z"/><path class="cls-229" d="M35.79,15.37c-1.68,1-6.18,5.86-8.75,10.22-2.9,4.94-2.67,6.8-1.47,7.54a1.76,1.76,0,0,0,1.93-.07c1-.57,2.28-2,3.93-4.79,3-5.11,5.32-12.78,4.72-13C36.14,15.21,36,15.23,35.79,15.37Z"/><path class="cls-237" d="M23.3,30.71c0-.11,0-.26,0-.37s.11-.56.16-.79a9.78,9.78,0,0,1,.31-1,17.2,17.2,0,0,1,1.07-2.37A34.19,34.19,0,0,1,27,22.79c.23-.35.75-1.07,1-1.34s.34-.46.5-.65c.65-.84.65-.84,1-1.28.69-.84,1.76-2.08,3-3.26.21-.2.75-.73,1.25-1.16.13-.1.29-.24.42-.33s.39-.28.57-.39a1.65,1.65,0,0,1,.59-.22,1,1,0,0,1,.53.12l.15.09c-.13-.08-.36,0-.67.17-1.82,1.05-6.42,6.06-9.06,10.53-3.09,5.23-2.85,7.41-1.47,8.25l0,0-.14-.09h0l0,0h0a3,3,0,0,1-.51-.4,2.28,2.28,0,0,1-.42-.57,2.07,2.07,0,0,1-.15-.34,2,2,0,0,1-.1-.35A3.21,3.21,0,0,1,23.3,30.71Z"/><path class="cls-238" d="M24.69,33.32l0,0a2.5,2.5,0,0,0,.74.29,2.26,2.26,0,0,0,.74,0,2.82,2.82,0,0,0,.71-.17,2.49,2.49,0,0,0,.39-.18l.41-.26a5.11,5.11,0,0,0,.73-.61,9.46,9.46,0,0,0,.78-.84A20.75,20.75,0,0,0,31,29.13a36,36,0,0,0,1.82-3.28c.35-.73.62-1.32.81-1.75l.37-.88c.43-1.07.48-1.18.69-1.74.48-1.28.71-2,.84-2.43.07-.22.16-.51.22-.73.11-.39.25-.91.35-1.31,0-.16.09-.39.12-.56.09-.54.09-.54.12-.84a2.07,2.07,0,0,0,0-.68,1.19,1.19,0,0,0-.14-.3.81.81,0,0,0-.27-.25h0c-.13-.08-.36,0-.67.17-1.82,1.05-6.42,6.06-9.06,10.53C23.07,30.3,23.31,32.48,24.69,33.32ZM27,25.59c2.57-4.36,7.07-9.26,8.75-10.22.24-.14.35-.16.36-.14.6.26-1.7,7.93-4.72,13-1.65,2.8-2.94,4.22-3.93,4.79a1.76,1.76,0,0,1-1.93.07C24.37,32.39,24.14,30.53,27,25.59Z"/></g></g></svg>