<svg xmlns="http://www.w3.org/2000/svg" viewBox="0 0 36.74 84.86"><defs><style>.cls-1{isolation:isolate;}.cls-2,.cls-226{mix-blend-mode:multiply;}.cls-3{fill:#e7e7e6;}.cls-4{fill:#bababa;}.cls-5{fill:#34759e;opacity:0;}.cls-6{fill:#35769e;opacity:0;}.cls-7{fill:#36769e;opacity:0.01;}.cls-8{fill:#37769e;opacity:0.01;}.cls-9{fill:#38779e;opacity:0.02;}.cls-10{fill:#39779f;opacity:0.02;}.cls-11{fill:#3a789f;opacity:0.03;}.cls-12{fill:#3b789f;opacity:0.03;}.cls-13{fill:#3b799f;opacity:0.04;}.cls-14{fill:#3c799f;opacity:0.04;}.cls-15{fill:#3d7a9f;opacity:0.05;}.cls-16{fill:#3e7aa0;opacity:0.05;}.cls-17{fill:#3f7aa0;opacity:0.06;}.cls-18{fill:#407ba0;opacity:0.06;}.cls-19{fill:#417ba0;opacity:0.06;}.cls-20{fill:#427ca0;opacity:0.07;}.cls-21{fill:#437ca0;opacity:0.07;}.cls-22{fill:#447da1;opacity:0.08;}.cls-23{fill:#457da1;opacity:0.08;}.cls-24{fill:#467ea1;opacity:0.09;}.cls-25{fill:#477ea1;opacity:0.09;}.cls-26{fill:#487fa1;opacity:0.1;}.cls-27{fill:#497fa2;opacity:0.1;}.cls-28{fill:#4a80a2;opacity:0.11;}.cls-29{fill:#4b80a2;opacity:0.11;}.cls-30{fill:#4c81a2;opacity:0.11;}.cls-31{fill:#4d81a2;opacity:0.12;}.cls-32{fill:#4d82a2;opacity:0.12;}.cls-33{fill:#4e82a3;opacity:0.13;}.cls-34{fill:#4f83a3;opacity:0.13;}.cls-35{fill:#5083a3;opacity:0.14;}.cls-36{fill:#5183a3;opacity:0.14;}.cls-37{fill:#5284a3;opacity:0.15;}.cls-38{fill:#5384a3;opacity:0.15;}.cls-39{fill:#5485a4;opacity:0.16;}.cls-40{fill:#5585a4;opacity:0.16;}.cls-41{fill:#5686a4;opacity:0.17;}.cls-42{fill:#5787a4;opacity:0.17;}.cls-43{fill:#5887a4;opacity:0.17;}.cls-44{fill:#5988a4;opacity:0.18;}.cls-45{fill:#5988a5;opacity:0.18;}.cls-46{fill:#5a89a5;opacity:0.19;}.cls-47{fill:#5b89a5;opacity:0.19;}.cls-48{fill:#5c8aa5;opacity:0.2;}.cls-49{fill:#5d8aa5;opacity:0.2;}.cls-50{fill:#5e8ba5;opacity:0.21;}.cls-51{fill:#5f8ba6;opacity:0.21;}.cls-52{fill:#608ca6;opacity:0.22;}.cls-53{fill:#618ca6;opacity:0.22;}.cls-54,.cls-55{fill:#628da6;}.cls-54{opacity:0.22;}.cls-55{opacity:0.23;}.cls-56{fill:#638ea6;opacity:0.23;}.cls-57{fill:#648ea7;opacity:0.24;}.cls-58{fill:#658fa7;opacity:0.24;}.cls-59{fill:#668fa7;opacity:0.25;}.cls-60{fill:#6790a7;opacity:0.25;}.cls-61{fill:#6890a7;opacity:0.26;}.cls-62{fill:#6991a7;opacity:0.26;}.cls-63{fill:#6a92a8;opacity:0.27;}.cls-64{fill:#6b92a8;opacity:0.27;}.cls-65{fill:#6c93a8;opacity:0.28;}.cls-66{fill:#6d93a8;opacity:0.28;}.cls-67{fill:#6d94a8;opacity:0.28;}.cls-68{fill:#6e94a8;opacity:0.29;}.cls-69{fill:#6f95a8;opacity:0.29;}.cls-70{fill:#7095a9;opacity:0.3;}.cls-71{fill:#7196a9;opacity:0.3;}.cls-72{fill:#7296a9;opacity:0.31;}.cls-73{fill:#7397a9;opacity:0.31;}.cls-74{fill:#7497a9;opacity:0.32;}.cls-75,.cls-76{fill:#7598a9;}.cls-75{opacity:0.32;}.cls-76{opacity:0.33;}.cls-77{fill:#7699aa;opacity:0.33;}.cls-78{fill:#779aaa;opacity:0.33;}.cls-79{fill:#789aaa;opacity:0.34;}.cls-80{fill:#799baa;opacity:0.34;}.cls-81{fill:#7a9baa;opacity:0.35;}.cls-82{fill:#7b9caa;opacity:0.35;}.cls-83{fill:#7c9caa;opacity:0.36;}.cls-84{fill:#7d9daa;opacity:0.36;}.cls-85{fill:#7e9dab;opacity:0.37;}.cls-86,.cls-87{fill:#7f9eab;}.cls-86{opacity:0.37;}.cls-87{opacity:0.38;}.cls-88{fill:#809fab;opacity:0.38;}.cls-89{fill:#81a0ab;opacity:0.39;}.cls-90{fill:#82a0ab;opacity:0.39;}.cls-91{fill:#83a1ab;opacity:0.39;}.cls-92{fill:#84a1ac;opacity:0.4;}.cls-93{fill:#85a2ac;opacity:0.4;}.cls-94{fill:#86a2ac;opacity:0.41;}.cls-95{fill:#87a3ac;opacity:0.41;}.cls-96{fill:#88a4ac;opacity:0.42;}.cls-97{fill:#89a4ac;opacity:0.42;}.cls-98{fill:#8aa5ac;opacity:0.43;}.cls-99{fill:#8aa5ad;opacity:0.43;}.cls-100{fill:#8ba6ad;opacity:0.44;}.cls-101{fill:#8ca7ad;opacity:0.44;}.cls-102{fill:#8da7ad;opacity:0.44;}.cls-103{fill:#8ea8ad;opacity:0.45;}.cls-104{fill:#8fa8ad;opacity:0.45;}.cls-105{fill:#90a9ad;opacity:0.46;}.cls-106{fill:#91a9ad;opacity:0.46;}.cls-107{fill:#92aaae;opacity:0.47;}.cls-108{fill:#92abae;opacity:0.47;}.cls-109{fill:#93abae;opacity:0.48;}.cls-110{fill:#94acae;opacity:0.48;}.cls-111{fill:#95acae;opacity:0.49;}.cls-112{fill:#96adae;opacity:0.49;}.cls-113{fill:#97aeae;opacity:0.5;}.cls-114{fill:#98aeaf;opacity:0.5;}.cls-115,.cls-116{fill:#99afaf;}.cls-115{opacity:0.5;}.cls-116{opacity:0.51;}.cls-117{fill:#9ab0af;opacity:0.51;}.cls-118{fill:#9bb0af;opacity:0.52;}.cls-119{fill:#9cb1af;opacity:0.52;}.cls-120{fill:#9db2af;opacity:0.53;}.cls-121{fill:#9eb2af;opacity:0.53;}.cls-122,.cls-123{fill:#9fb3b0;}.cls-122{opacity:0.54;}.cls-123{opacity:0.54;}.cls-124{fill:#a0b4b0;opacity:0.55;}.cls-125{fill:#a1b5b0;opacity:0.55;}.cls-126{fill:#a2b5b0;opacity:0.56;}.cls-127{fill:#a3b6b0;opacity:0.56;}.cls-128{fill:#a4b6b0;opacity:0.56;}.cls-129{fill:#a5b7b0;opacity:0.57;}.cls-130{fill:#a5b8b1;opacity:0.57;}.cls-131{fill:#a6b8b1;opacity:0.58;}.cls-132{fill:#a7b9b1;opacity:0.58;}.cls-133{fill:#a8b9b1;opacity:0.59;}.cls-134{fill:#a9bab1;opacity:0.59;}.cls-135{fill:#aabbb1;opacity:0.6;}.cls-136{fill:#abbbb1;opacity:0.6;}.cls-137{fill:#abbcb1;opacity:0.61;}.cls-138{fill:#acbcb1;opacity:0.61;}.cls-139{fill:#adbdb2;opacity:0.61;}.cls-140{fill:#aebeb2;opacity:0.62;}.cls-141{fill:#afbeb2;opacity:0.62;}.cls-142{fill:#b0bfb2;opacity:0.63;}.cls-143{fill:#b1bfb2;opacity:0.63;}.cls-144{fill:#b2c0b2;opacity:0.64;}.cls-145{fill:#b2c1b2;opacity:0.64;}.cls-146{fill:#b3c1b2;opacity:0.65;}.cls-147{fill:#b4c2b2;opacity:0.65;}.cls-148{fill:#b5c2b2;opacity:0.66;}.cls-149{fill:#b6c3b3;opacity:0.66;}.cls-150{fill:#b7c4b3;opacity:0.67;}.cls-151{fill:#b8c4b3;opacity:0.67;}.cls-152{fill:#b9c5b3;opacity:0.67;}.cls-153{fill:#b9c6b3;opacity:0.68;}.cls-154{fill:#bac6b3;opacity:0.68;}.cls-155{fill:#bbc7b3;opacity:0.69;}.cls-156{fill:#bcc7b3;opacity:0.69;}.cls-157{fill:#bdc8b3;opacity:0.7;}.cls-158{fill:#bec9b4;opacity:0.7;}.cls-159{fill:#bfc9b4;opacity:0.71;}.cls-160{fill:#c0cab4;opacity:0.71;}.cls-161,.cls-162{fill:#c1cbb4;}.cls-161{opacity:0.72;}.cls-162{opacity:0.72;}.cls-163{fill:#c2ccb4;opacity:0.72;}.cls-164{fill:#c3ccb4;opacity:0.73;}.cls-165{fill:#c4cdb4;opacity:0.73;}.cls-166{fill:#c5ceb4;opacity:0.74;}.cls-167{fill:#c6ceb4;opacity:0.74;}.cls-168{fill:#c7cfb5;opacity:0.75;}.cls-169,.cls-170{fill:#c8d0b5;}.cls-169{opacity:0.75;}.cls-170{opacity:0.76;}.cls-171{fill:#c9d1b5;opacity:0.76;}.cls-172{fill:#cad2b5;opacity:0.77;}.cls-173{fill:#cbd2b5;opacity:0.77;}.cls-174{fill:#ccd3b5;opacity:0.78;}.cls-175{fill:#cdd4b5;opacity:0.78;}.cls-176{fill:#ced4b5;opacity:0.78;}.cls-177{fill:#ced5b5;opacity:0.79;}.cls-178{fill:#cfd5b5;opacity:0.79;}.cls-179{fill:#d0d6b6;opacity:0.8;}.cls-180{fill:#d1d7b6;opacity:0.8;}.cls-181{fill:#d2d7b6;opacity:0.81;}.cls-182{fill:#d3d8b6;opacity:0.81;}.cls-183{fill:#d3d9b6;opacity:0.82;}.cls-184{fill:#d4d9b6;opacity:0.82;}.cls-185{fill:#d5dab6;opacity:0.83;}.cls-186{fill:#d6dbb6;opacity:0.83;}.cls-187{fill:#d7dbb6;opacity:0.83;}.cls-188,.cls-189{fill:#d8dcb6;}.cls-188{opacity:0.84;}.cls-189{opacity:0.84;}.cls-190{fill:#d9ddb7;opacity:0.85;}.cls-191{fill:#dadeb7;opacity:0.85;}.cls-192{fill:#dbdeb7;opacity:0.86;}.cls-193{fill:#dcdfb7;opacity:0.86;}.cls-194{fill:#dde0b7;opacity:0.87;}.cls-195{fill:#dee0b7;opacity:0.87;}.cls-196{fill:#dee1b7;opacity:0.88;}.cls-197{fill:#dfe2b7;opacity:0.88;}.cls-198{fill:#e0e2b7;opacity:0.89;}.cls-199{fill:#e1e3b7;opacity:0.89;}.cls-200{fill:#e2e4b7;opacity:0.89;}.cls-201{fill:#e3e4b7;opacity:0.9;}.cls-202{fill:#e4e5b8;opacity:0.9;}.cls-203{fill:#e4e6b8;opacity:0.91;}.cls-204{fill:#e5e6b8;opacity:0.91;}.cls-205{fill:#e6e7b8;opacity:0.92;}.cls-206{fill:#e7e8b8;opacity:0.92;}.cls-207{fill:#e8e8b8;opacity:0.93;}.cls-208,.cls-209{fill:#e9e9b8;}.cls-208{opacity:0.93;}.cls-209{opacity:0.94;}.cls-210{fill:#eaeab8;opacity:0.94;}.cls-211{fill:#ebebb8;opacity:0.94;}.cls-212{fill:#ecebb8;opacity:0.95;}.cls-213{fill:#edecb8;opacity:0.95;}.cls-214{fill:#eeedb8;opacity:0.96;}.cls-215{fill:#efedb8;opacity:0.96;}.cls-216{fill:#efeeb8;opacity:0.97;}.cls-217{fill:#f0efb9;opacity:0.97;}.cls-218{fill:#f1efb9;opacity:0.98;}.cls-219{fill:#f2f0b9;opacity:0.98;}.cls-220{fill:#f3f1b9;opacity:0.99;}.cls-221{fill:#f4f1b9;opacity:0.99;}.cls-222{fill:#f4f2b9;opacity:1;}.cls-223{fill:#f5f3b9;}.cls-224{fill:#f2f2f2;}.cls-225{fill:#bdb6b6;}.cls-226{fill:#d9d9d9;}.cls-227{fill:#fbfbfb;}.cls-228{fill:#fff;}.cls-229{fill:#ededed;}.cls-230{fill:#f0f0f0;}.cls-231{fill:#f8f8f7;}.cls-232{fill:#dc9598;}.cls-233{fill:#286992;}</style></defs><g class="cls-1"><g id="Vrstva_1" data-name="Vrstva 1"><g class="cls-2"><g class="cls-1"><path class="cls-3" d="M10.84,72.83c-4.77,2.75-4.79,7.21-.06,10s12.45,2.75,17.21,0,4.8-7.22.06-10S15.61,70.07,10.84,72.83Z"/></g></g><path class="cls-4" d="M30.33,19.17l.42,0c.17.09.26.19.18.34l-.49.38Z"/><path class="cls-5" d="M19.47,69.5a6.36,6.36,0,0,0,4.8-2.23,9.38,9.38,0,0,0,1.53-2.42,23,23,0,0,0,1.39-4.54,51.58,51.58,0,0,0,1.07-10c0-3.8-.63-6.34-2-8.24a7.9,7.9,0,0,0-6.76-3.17,7.89,7.89,0,0,0-6.75,3.17c-1.41,1.9-2,4.44-2,8.24a51.58,51.58,0,0,0,1.07,10,23,23,0,0,0,1.39,4.54,9.1,9.1,0,0,0,1.52,2.42A6.39,6.39,0,0,0,19.47,69.5Z"/><path class="cls-6" d="M12.73,42.1c-1.39,1.9-2,4.44-2,8.22a52,52,0,0,0,1.07,10,23.14,23.14,0,0,0,1.39,4.53,9.1,9.1,0,0,0,1.52,2.42,6.27,6.27,0,0,0,9.57,0,9.34,9.34,0,0,0,1.51-2.42,22.28,22.28,0,0,0,1.39-4.53,51.19,51.19,0,0,0,1.07-10c0-3.78-.62-6.32-2-8.22a7.85,7.85,0,0,0-6.74-3.18A7.86,7.86,0,0,0,12.73,42.1Z"/><path class="cls-7" d="M12.75,42.13c-1.38,1.9-2,4.43-2,8.2a50.81,50.81,0,0,0,1.07,9.94,22.42,22.42,0,0,0,1.38,4.52A9.28,9.28,0,0,0,14.7,67.2a6.23,6.23,0,0,0,9.54,0,9.28,9.28,0,0,0,1.51-2.41,22.81,22.81,0,0,0,1.39-4.52,51.55,51.55,0,0,0,1.06-9.93c0-3.78-.63-6.31-2-8.21A7.81,7.81,0,0,0,19.47,39,7.82,7.82,0,0,0,12.75,42.13Z"/><path class="cls-8" d="M12.77,42.17c-1.38,1.9-2,4.41-2,8.18a51.43,51.43,0,0,0,1.06,9.91,22.84,22.84,0,0,0,1.38,4.5,9.45,9.45,0,0,0,1.51,2.41,6.19,6.19,0,0,0,9.5,0,9.18,9.18,0,0,0,1.51-2.41,22.84,22.84,0,0,0,1.38-4.5,51.43,51.43,0,0,0,1.06-9.91c0-3.77-.62-6.28-2-8.18a7.78,7.78,0,0,0-6.7-3.2A7.78,7.78,0,0,0,12.77,42.17Z"/><path class="cls-9" d="M12.79,42.2c-1.37,1.9-2,4.41-2,8.16a50.28,50.28,0,0,0,1.06,9.88,23.11,23.11,0,0,0,1.37,4.5,9.3,9.3,0,0,0,1.5,2.39,6.17,6.17,0,0,0,9.48,0,9.3,9.3,0,0,0,1.5-2.39,23.11,23.11,0,0,0,1.37-4.5,51,51,0,0,0,1.06-9.88c0-3.75-.62-6.26-2-8.16A7.72,7.72,0,0,0,19.47,39,7.72,7.72,0,0,0,12.79,42.2Z"/><path class="cls-10" d="M12.8,42.23c-1.35,1.9-2,4.4-2,8.14a51.53,51.53,0,0,0,1.06,9.85,23.47,23.47,0,0,0,1.37,4.49,9.47,9.47,0,0,0,1.5,2.39,6.15,6.15,0,0,0,9.44,0,9.18,9.18,0,0,0,1.49-2.39,22.82,22.82,0,0,0,1.38-4.48,50.91,50.91,0,0,0,1.05-9.86c0-3.74-.62-6.24-2-8.14A7.69,7.69,0,0,0,19.47,39,7.72,7.72,0,0,0,12.8,42.23Z"/><path class="cls-11" d="M12.82,42.27c-1.34,1.89-2,4.38-2,8.11a51.41,51.41,0,0,0,1.06,9.83,22.81,22.81,0,0,0,1.36,4.47,9.49,9.49,0,0,0,1.49,2.38,6.11,6.11,0,0,0,9.41,0,9,9,0,0,0,1.49-2.38A22.1,22.1,0,0,0,27,60.21a50.52,50.52,0,0,0,1-9.83c0-3.73-.62-6.22-2-8.11a7.63,7.63,0,0,0-6.64-3.22A7.64,7.64,0,0,0,12.82,42.27Z"/><path class="cls-12" d="M12.84,42.3c-1.34,1.9-2,4.38-2,8.09a50.92,50.92,0,0,0,1,9.8,22.9,22.9,0,0,0,1.36,4.46A9.49,9.49,0,0,0,14.78,67a6.1,6.1,0,0,0,9.38,0,9.47,9.47,0,0,0,1.48-2.38A22.48,22.48,0,0,0,27,60.19a50.93,50.93,0,0,0,1.06-9.8c0-3.71-.63-6.19-2-8.09a7.63,7.63,0,0,0-6.63-3.23A7.62,7.62,0,0,0,12.84,42.3Z"/><path class="cls-13" d="M12.86,42.34c-1.33,1.89-2,4.36-1.95,8.06A49.84,49.84,0,0,0,12,60.17a21.92,21.92,0,0,0,1.36,4.45A9.11,9.11,0,0,0,14.79,67a6,6,0,0,0,9.35,0,9.4,9.4,0,0,0,1.48-2.37A23.14,23.14,0,0,0,27,60.18,51.58,51.58,0,0,0,28,50.41c0-3.71-.63-6.18-2-8.07a7.55,7.55,0,0,0-6.61-3.24A7.54,7.54,0,0,0,12.86,42.34Z"/><path class="cls-14" d="M12.87,42.37c-1.31,1.89-1.94,4.35-1.94,8A51.29,51.29,0,0,0,12,60.16a22.55,22.55,0,0,0,1.36,4.43A9.11,9.11,0,0,0,14.81,67a6,6,0,0,0,9.31,0,9.11,9.11,0,0,0,1.47-2.37A22.33,22.33,0,0,0,27,60.16,51.19,51.19,0,0,0,28,50.42c0-3.69-.63-6.16-1.94-8.05a7.5,7.5,0,0,0-6.59-3.25A7.52,7.52,0,0,0,12.87,42.37Z"/><path class="cls-15" d="M12.89,42.4c-1.31,1.89-1.93,4.35-1.93,8a50.88,50.88,0,0,0,1,9.71,22.27,22.27,0,0,0,1.35,4.42,9,9,0,0,0,1.47,2.36,6,6,0,0,0,9.27,0,9,9,0,0,0,1.47-2.35,22.6,22.6,0,0,0,1.35-4.43,50.79,50.79,0,0,0,1-9.71c0-3.68-.62-6.14-1.93-8a7.49,7.49,0,0,0-6.58-3.25A7.48,7.48,0,0,0,12.89,42.4Z"/><path class="cls-16" d="M12.91,42.44c-1.3,1.88-1.93,4.33-1.92,8a50.74,50.74,0,0,0,1,9.69,22.24,22.24,0,0,0,1.35,4.4,9.48,9.48,0,0,0,1.46,2.36,6,6,0,0,0,9.25,0,9.41,9.41,0,0,0,1.46-2.35,23.28,23.28,0,0,0,1.35-4.41,51.47,51.47,0,0,0,1-9.69c0-3.67-.62-6.12-1.92-8a7.42,7.42,0,0,0-6.56-3.27A7.4,7.4,0,0,0,12.91,42.44Z"/><path class="cls-17" d="M12.93,42.47c-1.29,1.88-1.92,4.32-1.91,8a49.57,49.57,0,0,0,1,9.66A21.53,21.53,0,0,0,13.4,64.5a9,9,0,0,0,1.46,2.35,5.92,5.92,0,0,0,9.21,0,9.34,9.34,0,0,0,1.46-2.34,23,23,0,0,0,1.34-4.4,51.07,51.07,0,0,0,1-9.66c0-3.65-.62-6.09-1.91-8a7.39,7.39,0,0,0-6.54-3.27A7.38,7.38,0,0,0,12.93,42.47Z"/><path class="cls-18" d="M12.94,42.5c-1.28,1.89-1.9,4.32-1.9,8a50.76,50.76,0,0,0,1,9.63,23.09,23.09,0,0,0,1.34,4.39,9.33,9.33,0,0,0,1.45,2.34,5.91,5.91,0,0,0,9.18,0,9,9,0,0,0,1.45-2.34,21.62,21.62,0,0,0,1.34-4.38,50.15,50.15,0,0,0,1-9.64c0-3.64-.62-6.07-1.9-8a7.35,7.35,0,0,0-6.52-3.28A7.35,7.35,0,0,0,12.94,42.5Z"/><path class="cls-19" d="M13,42.54c-1.27,1.88-1.9,4.3-1.89,7.93a49.84,49.84,0,0,0,1,9.61,22.42,22.42,0,0,0,1.33,4.37,9,9,0,0,0,1.45,2.33,5.87,5.87,0,0,0,9.15,0,9.06,9.06,0,0,0,1.44-2.33,22,22,0,0,0,1.33-4.37,49.74,49.74,0,0,0,1-9.6c0-3.64-.62-6.06-1.89-7.94a7.3,7.3,0,0,0-6.5-3.29A7.31,7.31,0,0,0,13,42.54Z"/><path class="cls-20" d="M13,42.57c-1.26,1.88-1.89,4.29-1.88,7.91a50.31,50.31,0,0,0,1,9.58,22.78,22.78,0,0,0,1.33,4.36,9.24,9.24,0,0,0,1.44,2.33,5.86,5.86,0,0,0,9.12,0,9.24,9.24,0,0,0,1.44-2.33,22.56,22.56,0,0,0,1.33-4.36,50.13,50.13,0,0,0,1-9.57c0-3.62-.62-6-1.88-7.92a7.26,7.26,0,0,0-6.48-3.3A7.26,7.26,0,0,0,13,42.57Z"/><path class="cls-21" d="M13,42.61c-1.25,1.87-1.87,4.28-1.86,7.88a49.83,49.83,0,0,0,1,9.55,22,22,0,0,0,1.32,4.35,8.73,8.73,0,0,0,1.44,2.32,5.82,5.82,0,0,0,9.08,0,9,9,0,0,0,1.44-2.32,22.59,22.59,0,0,0,1.32-4.34,50,50,0,0,0,1-9.55c0-3.61-.61-6-1.86-7.89a7.23,7.23,0,0,0-6.47-3.31A7.23,7.23,0,0,0,13,42.61Z"/><path class="cls-22" d="M13,42.64c-1.24,1.87-1.87,4.27-1.86,7.87a50.51,50.51,0,0,0,1,9.52,22.47,22.47,0,0,0,1.32,4.33,9.15,9.15,0,0,0,1.43,2.32,5.79,5.79,0,0,0,9.05,0,9.27,9.27,0,0,0,1.43-2.31A22.12,22.12,0,0,0,26.73,60a49.61,49.61,0,0,0,1-9.52c0-3.6-.61-6-1.85-7.87a7.2,7.2,0,0,0-6.45-3.32A7.2,7.2,0,0,0,13,42.64Z"/><path class="cls-23" d="M13,42.67c-1.23,1.87-1.86,4.26-1.85,7.85a49.39,49.39,0,0,0,1,9.49,22.41,22.41,0,0,0,1.31,4.32A9.09,9.09,0,0,0,15,66.64a5.76,5.76,0,0,0,9,0,9,9,0,0,0,1.42-2.3A22.58,22.58,0,0,0,26.71,60a51,51,0,0,0,1-9.5c0-3.58-.62-6-1.85-7.85a7.15,7.15,0,0,0-6.43-3.32A7.14,7.14,0,0,0,13,42.67Z"/><path class="cls-24" d="M13.05,42.71c-1.23,1.87-1.85,4.25-1.84,7.82a49.78,49.78,0,0,0,1,9.46,22.51,22.51,0,0,0,1.31,4.31A9.36,9.36,0,0,0,15,66.61a5.74,5.74,0,0,0,9,0,9,9,0,0,0,1.42-2.3A22.51,22.51,0,0,0,26.68,60a50.73,50.73,0,0,0,1-9.47c0-3.57-.62-6-1.84-7.82a7.11,7.11,0,0,0-6.41-3.34A7.11,7.11,0,0,0,13.05,42.71Z"/><path class="cls-25" d="M13.06,42.74c-1.21,1.87-1.83,4.24-1.82,7.8a49.66,49.66,0,0,0,1,9.44,22.32,22.32,0,0,0,1.3,4.29A9.55,9.55,0,0,0,15,66.58a5.71,5.71,0,0,0,9,0,9.11,9.11,0,0,0,1.42-2.29,21.75,21.75,0,0,0,1.3-4.3,48.7,48.7,0,0,0,1-9.43c0-3.57-.62-5.94-1.83-7.81a7.07,7.07,0,0,0-6.39-3.34A7.07,7.07,0,0,0,13.06,42.74Z"/><path class="cls-26" d="M13.08,42.77c-1.2,1.87-1.83,4.23-1.82,7.78a50.08,50.08,0,0,0,1,9.41,23.29,23.29,0,0,0,1.3,4.29A9.11,9.11,0,0,0,15,66.54a5.86,5.86,0,0,0,4.46,2.17,5.89,5.89,0,0,0,4.46-2.17,9.08,9.08,0,0,0,1.4-2.29A22.14,22.14,0,0,0,26.63,60a49.35,49.35,0,0,0,1-9.41c0-3.55-.62-5.92-1.82-7.79a7,7,0,0,0-6.37-3.35A7.06,7.06,0,0,0,13.08,42.77Z"/><path class="cls-27" d="M13.1,42.81c-1.2,1.86-1.82,4.22-1.81,7.75a49.06,49.06,0,0,0,1,9.39,21.61,21.61,0,0,0,1.3,4.27A9.08,9.08,0,0,0,15,66.51a5.87,5.87,0,0,0,4.44,2.16,5.87,5.87,0,0,0,4.45-2.16,9.08,9.08,0,0,0,1.4-2.29A22.08,22.08,0,0,0,26.6,60a49,49,0,0,0,1-9.38c0-3.54-.61-5.9-1.81-7.76a7,7,0,0,0-6.36-3.36A7,7,0,0,0,13.1,42.81Z"/><path class="cls-28" d="M13.12,42.84c-1.19,1.86-1.81,4.21-1.8,7.73a49.55,49.55,0,0,0,1,9.36,22.18,22.18,0,0,0,1.3,4.26A9,9,0,0,0,15,66.47a5.61,5.61,0,0,0,8.85,0,9,9,0,0,0,1.4-2.28,22.11,22.11,0,0,0,1.29-4.25,48.76,48.76,0,0,0,1-9.36c0-3.52-.61-5.88-1.8-7.74a7,7,0,0,0-6.34-3.37A6.94,6.94,0,0,0,13.12,42.84Z"/><path class="cls-29" d="M13.13,42.88c-1.17,1.85-1.8,4.19-1.78,7.71a49.22,49.22,0,0,0,1,9.32,21.64,21.64,0,0,0,1.29,4.25A9.28,9.28,0,0,0,15,66.44a5.81,5.81,0,0,0,4.41,2.15,5.78,5.78,0,0,0,4.41-2.15,9.12,9.12,0,0,0,1.4-2.27,23.09,23.09,0,0,0,1.29-4.25,49.24,49.24,0,0,0,1-9.33c0-3.51-.61-5.86-1.79-7.71a6.91,6.91,0,0,0-6.32-3.38A6.92,6.92,0,0,0,13.13,42.88Z"/><path class="cls-30" d="M13.15,42.91C12,44.76,11.36,47.1,11.37,50.6a49.84,49.84,0,0,0,1,9.3,22.83,22.83,0,0,0,1.29,4.23,8.92,8.92,0,0,0,1.39,2.27,5.76,5.76,0,0,0,4.39,2.15,5.78,5.78,0,0,0,4.4-2.15,8.84,8.84,0,0,0,1.38-2.26,21.31,21.31,0,0,0,1.29-4.24,48.84,48.84,0,0,0,1-9.3c0-3.5-.61-5.83-1.78-7.69a6.88,6.88,0,0,0-6.3-3.39A6.88,6.88,0,0,0,13.15,42.91Z"/><path class="cls-31" d="M13.17,42.94C12,44.8,11.39,47.12,11.4,50.61a49.43,49.43,0,0,0,1,9.27,22,22,0,0,0,1.28,4.22,9.39,9.39,0,0,0,1.38,2.27,5.79,5.79,0,0,0,4.38,2.15,5.77,5.77,0,0,0,4.38-2.15,9,9,0,0,0,1.38-2.26,22,22,0,0,0,1.28-4.22,48.7,48.7,0,0,0,1-9.27c0-3.49-.61-5.82-1.76-7.68a6.84,6.84,0,0,0-6.29-3.39A6.84,6.84,0,0,0,13.17,42.94Z"/><path class="cls-32" d="M13.19,43c-1.15,1.85-1.78,4.17-1.76,7.64a49.11,49.11,0,0,0,1,9.24,21.69,21.69,0,0,0,1.28,4.21,9.13,9.13,0,0,0,1.38,2.26,5.7,5.7,0,0,0,4.36,2.15,5.7,5.7,0,0,0,4.36-2.15,9.06,9.06,0,0,0,1.38-2.25,21.69,21.69,0,0,0,1.28-4.21,49.11,49.11,0,0,0,1-9.24c0-3.48-.6-5.8-1.75-7.65a6.82,6.82,0,0,0-6.27-3.41A6.79,6.79,0,0,0,13.19,43Z"/><path class="cls-33" d="M13.2,43c-1.14,1.85-1.76,4.16-1.75,7.62a48.91,48.91,0,0,0,1,9.22A21.72,21.72,0,0,0,13.73,64,9.42,9.42,0,0,0,15.1,66.3a5.72,5.72,0,0,0,4.35,2.14A5.72,5.72,0,0,0,23.8,66.3a9.35,9.35,0,0,0,1.37-2.25,22.45,22.45,0,0,0,1.27-4.19,48.09,48.09,0,0,0,1-9.22c0-3.47-.6-5.78-1.74-7.63a6.77,6.77,0,0,0-6.25-3.41A6.78,6.78,0,0,0,13.2,43Z"/><path class="cls-34" d="M13.22,43a13.87,13.87,0,0,0-1.74,7.6,49.42,49.42,0,0,0,1,9.19A22.68,22.68,0,0,0,13.75,64a8.86,8.86,0,0,0,1.37,2.24,5.66,5.66,0,0,0,4.33,2.14,5.66,5.66,0,0,0,4.33-2.14A9.14,9.14,0,0,0,25.14,64a20.92,20.92,0,0,0,1.27-4.18,48.6,48.6,0,0,0,1-9.19A13.9,13.9,0,0,0,25.68,43a6.75,6.75,0,0,0-6.23-3.42A6.75,6.75,0,0,0,13.22,43Z"/><path class="cls-35" d="M13.24,43.08a13.7,13.7,0,0,0-1.73,7.57,49,49,0,0,0,1,9.16A21.87,21.87,0,0,0,13.77,64a9.14,9.14,0,0,0,1.36,2.24,5.66,5.66,0,0,0,4.32,2.14,5.64,5.64,0,0,0,4.31-2.14A9.26,9.26,0,0,0,25.12,64a22.56,22.56,0,0,0,1.27-4.18,49.1,49.1,0,0,0,1-9.16,13.88,13.88,0,0,0-1.73-7.58,6.71,6.71,0,0,0-6.21-3.44A6.69,6.69,0,0,0,13.24,43.08Z"/><path class="cls-36" d="M13.25,43.11a13.83,13.83,0,0,0-1.71,7.55,48.78,48.78,0,0,0,1,9.14A22.6,22.6,0,0,0,13.79,64a8.88,8.88,0,0,0,1.36,2.23,5.62,5.62,0,0,0,4.3,2.14,5.64,5.64,0,0,0,4.3-2.14A9.29,9.29,0,0,0,25.1,64a22.6,22.6,0,0,0,1.26-4.16,48.8,48.8,0,0,0,1-9.14,13.84,13.84,0,0,0-1.72-7.56,6.66,6.66,0,0,0-6.19-3.44A6.67,6.67,0,0,0,13.25,43.11Z"/><path class="cls-37" d="M13.27,43.15a13.91,13.91,0,0,0-1.71,7.53,48.47,48.47,0,0,0,1,9.1,21.56,21.56,0,0,0,1.25,4.15,9.26,9.26,0,0,0,1.36,2.23,5.6,5.6,0,0,0,4.28,2.13,5.62,5.62,0,0,0,4.28-2.13,9,9,0,0,0,1.35-2.22,21.56,21.56,0,0,0,1.25-4.15,48.47,48.47,0,0,0,1-9.1,13.77,13.77,0,0,0-1.71-7.54,6.64,6.64,0,0,0-6.17-3.46A6.64,6.64,0,0,0,13.27,43.15Z"/><path class="cls-38" d="M13.29,43.18a13.8,13.8,0,0,0-1.7,7.51,48.89,48.89,0,0,0,1,9.07,23,23,0,0,0,1.25,4.14,9,9,0,0,0,1.35,2.22,5.6,5.6,0,0,0,4.27,2.13,5.58,5.58,0,0,0,4.26-2.13,8.91,8.91,0,0,0,1.35-2.21,22.34,22.34,0,0,0,1.24-4.13,48.35,48.35,0,0,0,1-9.08,13.84,13.84,0,0,0-1.7-7.52,6.58,6.58,0,0,0-6.15-3.46A6.59,6.59,0,0,0,13.29,43.18Z"/><path class="cls-39" d="M13.31,43.21a13.84,13.84,0,0,0-1.69,7.49,48.77,48.77,0,0,0,1,9,22.21,22.21,0,0,0,1.24,4.12,9,9,0,0,0,1.35,2.22,5.53,5.53,0,0,0,4.25,2.12,5.53,5.53,0,0,0,4.24-2.12A8.6,8.6,0,0,0,25,63.88a21.2,21.2,0,0,0,1.25-4.12,48.77,48.77,0,0,0,1-9,13.9,13.9,0,0,0-1.69-7.5,6.55,6.55,0,0,0-6.13-3.47A6.55,6.55,0,0,0,13.31,43.21Z"/><path class="cls-40" d="M13.32,43.25a13.83,13.83,0,0,0-1.67,7.46,47.53,47.53,0,0,0,1,9,20.47,20.47,0,0,0,1.24,4.11,8.88,8.88,0,0,0,1.33,2.21,5.54,5.54,0,0,0,4.23,2.13,5.54,5.54,0,0,0,4.24-2.13A8.63,8.63,0,0,0,25,63.85a21.86,21.86,0,0,0,1.24-4.11,48.36,48.36,0,0,0,1-9,14,14,0,0,0-1.67-7.47,6.54,6.54,0,0,0-6.13-3.48A6.54,6.54,0,0,0,13.32,43.25Z"/><path class="cls-41" d="M13.34,43.28a14,14,0,0,0-1.67,7.44,49,49,0,0,0,1,9,21.34,21.34,0,0,0,1.24,4.09A8.88,8.88,0,0,0,15.23,66a5.5,5.5,0,0,0,4.21,2.12A5.52,5.52,0,0,0,23.66,66,8.81,8.81,0,0,0,25,63.82a21.17,21.17,0,0,0,1.23-4.09,47.33,47.33,0,0,0,1-9,13.94,13.94,0,0,0-1.66-7.45,6.5,6.5,0,0,0-6.11-3.49A6.5,6.5,0,0,0,13.34,43.28Z"/><path class="cls-42" d="M13.36,43.32a13.9,13.9,0,0,0-1.66,7.41,47.84,47.84,0,0,0,1,9,21,21,0,0,0,1.23,4.08A8.91,8.91,0,0,0,15.24,66a5.47,5.47,0,0,0,4.2,2.12A5.45,5.45,0,0,0,23.64,66,9.16,9.16,0,0,0,25,63.8a22.13,22.13,0,0,0,1.23-4.09,47.82,47.82,0,0,0,1-9,14,14,0,0,0-1.65-7.42,6.46,6.46,0,0,0-6.09-3.5A6.44,6.44,0,0,0,13.36,43.32Z"/><path class="cls-43" d="M13.38,43.35a13.85,13.85,0,0,0-1.65,7.39,47.51,47.51,0,0,0,1,8.94,22,22,0,0,0,1.23,4.08A8.9,8.9,0,0,0,15.26,66a5.45,5.45,0,0,0,4.18,2.11A5.47,5.47,0,0,0,23.63,66a9.13,9.13,0,0,0,1.31-2.18,22.12,22.12,0,0,0,1.23-4.07,47.69,47.69,0,0,0,1-8.94,14,14,0,0,0-1.64-7.41,6.44,6.44,0,0,0-6.07-3.51A6.42,6.42,0,0,0,13.38,43.35Z"/><path class="cls-44" d="M13.39,43.38a14,14,0,0,0-1.63,7.38,47.29,47.29,0,0,0,1,8.91A21.3,21.3,0,0,0,14,63.73a9.13,9.13,0,0,0,1.31,2.18A5.46,5.46,0,0,0,19.44,68a5.46,5.46,0,0,0,4.17-2.12,9.06,9.06,0,0,0,1.31-2.17,21.08,21.08,0,0,0,1.22-4.06,47.2,47.2,0,0,0,1-8.91,14,14,0,0,0-1.63-7.39,6.4,6.4,0,0,0-6-3.51A6.4,6.4,0,0,0,13.39,43.38Z"/><path class="cls-45" d="M13.41,43.42a13.92,13.92,0,0,0-1.63,7.35,48.57,48.57,0,0,0,1,8.88A21,21,0,0,0,14,63.7a9.13,9.13,0,0,0,1.31,2.18A5.39,5.39,0,0,0,19.44,68a5.42,5.42,0,0,0,4.15-2.11,9.06,9.06,0,0,0,1.31-2.17,22.47,22.47,0,0,0,1.22-4.05,48.57,48.57,0,0,0,1-8.88,14,14,0,0,0-1.63-7.36,6.35,6.35,0,0,0-6-3.53A6.36,6.36,0,0,0,13.41,43.42Z"/><path class="cls-46" d="M13.43,43.45a14,14,0,0,0-1.62,7.33,47.4,47.4,0,0,0,1,8.85,21.86,21.86,0,0,0,1.21,4,9.38,9.38,0,0,0,1.3,2.17A5.39,5.39,0,0,0,19.44,68a5.35,5.35,0,0,0,4.13-2.11,8.79,8.79,0,0,0,1.31-2.16,21.5,21.5,0,0,0,1.21-4,48.46,48.46,0,0,0,1-8.86,14,14,0,0,0-1.62-7.34,6.33,6.33,0,0,0-6-3.53A6.33,6.33,0,0,0,13.43,43.45Z"/><path class="cls-47" d="M13.44,43.48a14.15,14.15,0,0,0-1.6,7.31,47.17,47.17,0,0,0,1,8.83,21.6,21.6,0,0,0,1.21,4,9,9,0,0,0,1.3,2.17,5.35,5.35,0,0,0,4.12,2.1,5.39,5.39,0,0,0,4.12-2.1,9,9,0,0,0,1.29-2.16,21.37,21.37,0,0,0,1.21-4,48,48,0,0,0,1-8.83,14.06,14.06,0,0,0-1.61-7.32,6.29,6.29,0,0,0-6-3.54A6.31,6.31,0,0,0,13.44,43.48Z"/><path class="cls-48" d="M13.46,43.52a13.94,13.94,0,0,0-1.59,7.28,46.86,46.86,0,0,0,1,8.8,21.54,21.54,0,0,0,1.2,4,8.48,8.48,0,0,0,1.3,2.16,5.32,5.32,0,0,0,4.1,2.1,5.33,5.33,0,0,0,4.1-2.1,8.81,8.81,0,0,0,1.29-2.14,21.48,21.48,0,0,0,1.21-4,48.69,48.69,0,0,0,1-8.81,14,14,0,0,0-1.6-7.29,6.24,6.24,0,0,0-6-3.55A6.26,6.26,0,0,0,13.46,43.52Z"/><path class="cls-49" d="M13.48,43.55a14.09,14.09,0,0,0-1.59,7.26,48.25,48.25,0,0,0,1,8.77,21.18,21.18,0,0,0,1.2,4,9,9,0,0,0,1.29,2.16,5.31,5.31,0,0,0,4.09,2.1,5.29,5.29,0,0,0,4.08-2.1,8.81,8.81,0,0,0,1.29-2.14,21.65,21.65,0,0,0,1.2-4,47.38,47.38,0,0,0,1-8.77,14,14,0,0,0-1.59-7.28A6.23,6.23,0,0,0,19.44,40,6.24,6.24,0,0,0,13.48,43.55Z"/><path class="cls-50" d="M13.5,43.59a14,14,0,0,0-1.58,7.23,47.08,47.08,0,0,0,1,8.75,21.22,21.22,0,0,0,1.19,4,8.69,8.69,0,0,0,1.29,2.15,5.28,5.28,0,0,0,4.07,2.1,5.29,5.29,0,0,0,4.07-2.1,9.25,9.25,0,0,0,1.28-2.13,22.38,22.38,0,0,0,1.19-4,47.07,47.07,0,0,0,1-8.74,14.16,14.16,0,0,0-1.57-7.25A6.2,6.2,0,0,0,19.44,40,6.19,6.19,0,0,0,13.5,43.59Z"/><path class="cls-51" d="M13.51,43.62A14.08,14.08,0,0,0,12,50.84a47.59,47.59,0,0,0,1,8.71,22.25,22.25,0,0,0,1.19,4,8.79,8.79,0,0,0,1.28,2.14,5.29,5.29,0,0,0,4.06,2.09,5.29,5.29,0,0,0,4-2.09,8.89,8.89,0,0,0,1.27-2.13,21.27,21.27,0,0,0,1.2-4,47.8,47.8,0,0,0,1-8.72,14.14,14.14,0,0,0-1.56-7.23A6.18,6.18,0,0,0,19.44,40,6.18,6.18,0,0,0,13.51,43.62Z"/><path class="cls-52" d="M13.53,43.65A14,14,0,0,0,12,50.85a46.62,46.62,0,0,0,1,8.69,21.5,21.5,0,0,0,1.18,4,9.19,9.19,0,0,0,1.28,2.14,5.22,5.22,0,0,0,4,2.08,5.24,5.24,0,0,0,4-2.09,8.63,8.63,0,0,0,1.27-2.12,22,22,0,0,0,1.19-4,47.28,47.28,0,0,0,1-8.69,14.09,14.09,0,0,0-1.55-7.21,6.15,6.15,0,0,0-5.91-3.58A6.14,6.14,0,0,0,13.53,43.65Z"/><path class="cls-53" d="M13.55,43.69A14.14,14.14,0,0,0,12,50.86a47.06,47.06,0,0,0,1,8.66,21.31,21.31,0,0,0,1.19,3.95,8.88,8.88,0,0,0,1.26,2.13,5.23,5.23,0,0,0,4,2.09,5.2,5.2,0,0,0,4-2.09,8.82,8.82,0,0,0,1.27-2.12,21,21,0,0,0,1.18-3.94,47.16,47.16,0,0,0,1-8.67,14.11,14.11,0,0,0-1.54-7.18,6.12,6.12,0,0,0-5.89-3.6A6.11,6.11,0,0,0,13.55,43.69Z"/><path class="cls-54" d="M13.57,43.72A14.09,14.09,0,0,0,12,50.87a46.64,46.64,0,0,0,1,8.63,21,21,0,0,0,1.18,3.94,8.88,8.88,0,0,0,1.26,2.13,5.2,5.2,0,0,0,4,2.08,5.23,5.23,0,0,0,4-2.08,9.14,9.14,0,0,0,1.26-2.12,22.49,22.49,0,0,0,1.18-3.93,47.7,47.7,0,0,0,.95-8.64,14.16,14.16,0,0,0-1.53-7.16,6.07,6.07,0,0,0-5.87-3.6A6.06,6.06,0,0,0,13.57,43.72Z"/><path class="cls-55" d="M13.58,43.75a14.15,14.15,0,0,0-1.52,7.13A47.38,47.38,0,0,0,13,59.49a21,21,0,0,0,1.18,3.92,8.79,8.79,0,0,0,1.25,2.12,5.16,5.16,0,0,0,4,2.08,5.18,5.18,0,0,0,4-2.08,8.64,8.64,0,0,0,1.25-2.1,20.89,20.89,0,0,0,1.18-3.93,47.27,47.27,0,0,0,.95-8.6,14.13,14.13,0,0,0-1.52-7.15,6.06,6.06,0,0,0-5.85-3.61A6.06,6.06,0,0,0,13.58,43.75Z"/><path class="cls-56" d="M13.6,43.79a14.17,14.17,0,0,0-1.51,7.1A47,47,0,0,0,13,59.47a20.93,20.93,0,0,0,1.17,3.91,8.79,8.79,0,0,0,1.25,2.12,5.15,5.15,0,0,0,4,2.07,5.13,5.13,0,0,0,4-2.07,8.84,8.84,0,0,0,1.25-2.1,21.16,21.16,0,0,0,1.17-3.91,48,48,0,0,0,1-8.58,14.25,14.25,0,0,0-1.52-7.12,6,6,0,0,0-5.83-3.62A6,6,0,0,0,13.6,43.79Z"/><path class="cls-57" d="M13.62,43.82a14.22,14.22,0,0,0-1.51,7.08,46.64,46.64,0,0,0,1,8.55,20.57,20.57,0,0,0,1.17,3.9,8.53,8.53,0,0,0,1.25,2.11,5.11,5.11,0,0,0,3.95,2.07,5.14,5.14,0,0,0,4-2.07,8.88,8.88,0,0,0,1.24-2.09,21.64,21.64,0,0,0,1.16-3.9,45.8,45.8,0,0,0,1-8.55,14.31,14.31,0,0,0-1.51-7.1,6,6,0,0,0-5.81-3.63A6,6,0,0,0,13.62,43.82Z"/><path class="cls-58" d="M13.64,43.86a14.12,14.12,0,0,0-1.5,7.06,46.51,46.51,0,0,0,.95,8.52,21.63,21.63,0,0,0,1.16,3.88,9,9,0,0,0,1.24,2.11,5.12,5.12,0,0,0,3.94,2.07,5.12,5.12,0,0,0,3.94-2.07,8.88,8.88,0,0,0,1.24-2.09,21.63,21.63,0,0,0,1.16-3.88,46.52,46.52,0,0,0,.95-8.53,14.19,14.19,0,0,0-1.5-7.07,6,6,0,0,0-5.79-3.64A6,6,0,0,0,13.64,43.86Z"/><path class="cls-59" d="M13.65,43.89a14.22,14.22,0,0,0-1.48,7,46.86,46.86,0,0,0,.94,8.49,21.63,21.63,0,0,0,1.16,3.88,9.09,9.09,0,0,0,1.24,2.09,5.05,5.05,0,0,0,3.92,2.07,5.05,5.05,0,0,0,3.92-2.07,8.66,8.66,0,0,0,1.23-2.08,21.5,21.5,0,0,0,1.16-3.87,46.2,46.2,0,0,0,1-8.5,14.28,14.28,0,0,0-1.48-7,5.94,5.94,0,0,0-5.78-3.65A5.94,5.94,0,0,0,13.65,43.89Z"/><path class="cls-60" d="M13.67,43.92a14.31,14.31,0,0,0-1.47,7,45.66,45.66,0,0,0,.94,8.46,20.77,20.77,0,0,0,1.15,3.87,9.07,9.07,0,0,0,1.23,2.09,5.07,5.07,0,0,0,3.91,2.06,5.08,5.08,0,0,0,3.91-2.06,9,9,0,0,0,1.22-2.08,20.42,20.42,0,0,0,1.15-3.86A45.69,45.69,0,0,0,26.66,51a14.35,14.35,0,0,0-1.47-7c-1.38-2.65-3.18-3.65-5.76-3.65A5.9,5.9,0,0,0,13.67,43.92Z"/><path class="cls-61" d="M13.69,44a14.18,14.18,0,0,0-1.47,7,47.32,47.32,0,0,0,.94,8.44,21.55,21.55,0,0,0,1.15,3.85,9,9,0,0,0,1.23,2.08,5,5,0,0,0,3.89,2.06,5,5,0,0,0,3.89-2.06,8.7,8.7,0,0,0,1.22-2.07,21.17,21.17,0,0,0,1.15-3.84A46.41,46.41,0,0,0,26.63,51a14.36,14.36,0,0,0-1.46-7c-1.37-2.67-3.17-3.67-5.74-3.67S15.06,41.29,13.69,44Z"/><path class="cls-62" d="M13.7,44a14.39,14.39,0,0,0-1.45,7,46,46,0,0,0,.94,8.41,21.23,21.23,0,0,0,1.14,3.84,9,9,0,0,0,1.22,2.08,5,5,0,0,0,3.88,2.06,5,5,0,0,0,3.87-2.06,9.42,9.42,0,0,0,1.22-2.06,21.23,21.23,0,0,0,1.14-3.84A46.09,46.09,0,0,0,26.6,51a14.34,14.34,0,0,0-1.45-7c-1.37-2.67-3.15-3.67-5.72-3.67S15.07,41.32,13.7,44Z"/><path class="cls-63" d="M13.72,44A14.34,14.34,0,0,0,12.28,51a45.86,45.86,0,0,0,.93,8.39,22.34,22.34,0,0,0,1.14,3.82,8.7,8.7,0,0,0,1.22,2.07,5,5,0,0,0,3.86,2.06,5,5,0,0,0,3.85-2.06,8.74,8.74,0,0,0,1.21-2,20.67,20.67,0,0,0,1.14-3.82A45.87,45.87,0,0,0,26.57,51a14.4,14.4,0,0,0-1.44-7c-1.36-2.68-3.14-3.68-5.7-3.68S15.09,41.34,13.72,44Z"/><path class="cls-64" d="M13.74,44.06A14.22,14.22,0,0,0,12.31,51a45.44,45.44,0,0,0,.93,8.36,21.15,21.15,0,0,0,1.13,3.81,8.89,8.89,0,0,0,1.21,2.07,5,5,0,0,0,3.84,2,5,5,0,0,0,3.85-2,9.08,9.08,0,0,0,1.2-2,21.09,21.09,0,0,0,1.14-3.81A45.44,45.44,0,0,0,26.54,51a14.42,14.42,0,0,0-1.43-6.94c-1.36-2.7-3.13-3.69-5.69-3.69S15.1,41.36,13.74,44.06Z"/><path class="cls-65" d="M13.76,44.09A14.31,14.31,0,0,0,12.33,51a46.8,46.8,0,0,0,.93,8.33,21,21,0,0,0,1.13,3.8,8.61,8.61,0,0,0,1.21,2.06,4.94,4.94,0,0,0,3.82,2,4.94,4.94,0,0,0,3.83-2,9,9,0,0,0,1.2-2,21,21,0,0,0,1.13-3.8A45,45,0,0,0,26.51,51a14.26,14.26,0,0,0-1.42-6.92c-1.35-2.71-3.12-3.7-5.67-3.7S15.11,41.39,13.76,44.09Z"/><path class="cls-66" d="M13.77,44.13A14.45,14.45,0,0,0,12.36,51a46.68,46.68,0,0,0,.93,8.3,21,21,0,0,0,1.13,3.78,8.78,8.78,0,0,0,1.19,2.06,4.92,4.92,0,0,0,3.81,2,4.89,4.89,0,0,0,3.81-2,8.65,8.65,0,0,0,1.2-2,21.93,21.93,0,0,0,1.12-3.78A44.91,44.91,0,0,0,26.48,51a14.26,14.26,0,0,0-1.41-6.89c-1.35-2.72-3.1-3.71-5.65-3.71S15.13,41.41,13.77,44.13Z"/><path class="cls-67" d="M13.79,44.16A14.4,14.4,0,0,0,12.39,51a45.43,45.43,0,0,0,.92,8.27,20.64,20.64,0,0,0,1.13,3.77,8.71,8.71,0,0,0,1.19,2,4.88,4.88,0,0,0,3.79,2,4.91,4.91,0,0,0,3.8-2,8.54,8.54,0,0,0,1.18-2,20.64,20.64,0,0,0,1.13-3.77A46.35,46.35,0,0,0,26.46,51a14.46,14.46,0,0,0-1.41-6.87c-1.34-2.73-3.09-3.72-5.63-3.72S15.14,41.43,13.79,44.16Z"/><path class="cls-68" d="M13.81,44.19A14.49,14.49,0,0,0,12.41,51a45.92,45.92,0,0,0,.93,8.24A20.94,20.94,0,0,0,14.46,63a8.49,8.49,0,0,0,1.19,2,4.86,4.86,0,0,0,3.77,2,4.9,4.9,0,0,0,3.78-2,8.88,8.88,0,0,0,1.18-2A21.07,21.07,0,0,0,25.5,59.3a46,46,0,0,0,.93-8.25A14.43,14.43,0,0,0,25,44.19c-1.34-2.74-3.08-3.72-5.61-3.72S15.15,41.45,13.81,44.19Z"/><path class="cls-69" d="M13.83,44.23A14.36,14.36,0,0,0,12.44,51a46.6,46.6,0,0,0,.92,8.22A20.94,20.94,0,0,0,14.48,63a8.54,8.54,0,0,0,1.18,2,4.82,4.82,0,0,0,3.76,2,4.82,4.82,0,0,0,3.76-2,8.59,8.59,0,0,0,1.18-2,20.75,20.75,0,0,0,1.11-3.75,45.7,45.7,0,0,0,.93-8.22A14.56,14.56,0,0,0,25,44.23c-1.34-2.76-3.07-3.74-5.6-3.74S15.17,41.48,13.83,44.23Z"/><path class="cls-70" d="M13.84,44.26a14.6,14.6,0,0,0-1.37,6.79,45.35,45.35,0,0,0,.92,8.19A20.87,20.87,0,0,0,14.5,63a8.74,8.74,0,0,0,1.18,2,4.81,4.81,0,0,0,3.74,2,4.81,4.81,0,0,0,3.74-2,8.59,8.59,0,0,0,1.18-2,21.72,21.72,0,0,0,1.11-3.74,46.27,46.27,0,0,0,.92-8.19A14.66,14.66,0,0,0,25,44.26c-1.34-2.76-3.06-3.74-5.58-3.74S15.18,41.5,13.84,44.26Z"/><path class="cls-71" d="M13.86,44.29a14.43,14.43,0,0,0-1.36,6.77,45.82,45.82,0,0,0,.91,8.16A21.58,21.58,0,0,0,14.52,63a8.8,8.8,0,0,0,1.17,2,4.82,4.82,0,0,0,3.73,2,4.82,4.82,0,0,0,3.73-2,8.48,8.48,0,0,0,1.16-2,20.61,20.61,0,0,0,1.11-3.72,46,46,0,0,0,.92-8.17A14.61,14.61,0,0,0,25,44.29c-1.33-2.77-3.05-3.75-5.56-3.75S15.2,41.52,13.86,44.29Z"/><path class="cls-72" d="M13.88,44.33a14.54,14.54,0,0,0-1.36,6.74,45.72,45.72,0,0,0,.92,8.14,20.54,20.54,0,0,0,1.1,3.71,8.45,8.45,0,0,0,1.17,2,4.76,4.76,0,0,0,3.71,2,4.79,4.79,0,0,0,3.71-2,8.84,8.84,0,0,0,1.16-2,20.54,20.54,0,0,0,1.1-3.71,44.71,44.71,0,0,0,.92-8.14A14.49,14.49,0,0,0,25,44.33c-1.33-2.79-3-3.76-5.54-3.76S15.21,41.54,13.88,44.33Z"/><path class="cls-73" d="M13.89,44.36a14.55,14.55,0,0,0-1.34,6.73,44.38,44.38,0,0,0,.92,8.1,20.47,20.47,0,0,0,1.09,3.7,8.92,8.92,0,0,0,1.16,2,4.75,4.75,0,0,0,3.7,2,4.74,4.74,0,0,0,3.69-2,8.55,8.55,0,0,0,1.16-2,21,21,0,0,0,1.1-3.7,44.28,44.28,0,0,0,.91-8.11,14.59,14.59,0,0,0-1.34-6.74c-1.33-2.8-3-3.77-5.52-3.77S15.22,41.57,13.89,44.36Z"/><path class="cls-74" d="M13.91,44.4a14.55,14.55,0,0,0-1.33,6.7,44.15,44.15,0,0,0,.91,8.08,21,21,0,0,0,1.09,3.68,8.92,8.92,0,0,0,1.16,2,4.72,4.72,0,0,0,3.68,2,4.75,4.75,0,0,0,3.68-2,9.14,9.14,0,0,0,1.15-2,21,21,0,0,0,1.09-3.68,44.15,44.15,0,0,0,.91-8.08,14.36,14.36,0,0,0-1.33-6.72c-1.32-2.81-3-3.78-5.5-3.78S15.24,41.59,13.91,44.4Z"/><path class="cls-75" d="M13.93,44.43a14.37,14.37,0,0,0-1.32,6.68,43.83,43.83,0,0,0,.91,8,20.39,20.39,0,0,0,1.08,3.67,9,9,0,0,0,1.15,2,4.72,4.72,0,0,0,3.67,2,4.72,4.72,0,0,0,3.66-2,8.58,8.58,0,0,0,1.14-2,20.46,20.46,0,0,0,1.09-3.68,43.83,43.83,0,0,0,.91-8,14.46,14.46,0,0,0-1.32-6.7c-1.32-2.82-3-3.79-5.48-3.79S15.25,41.61,13.93,44.43Z"/><path class="cls-76" d="M14,44.46a14.6,14.6,0,0,0-1.32,6.66,45.3,45.3,0,0,0,.91,8,21.24,21.24,0,0,0,1.08,3.67,8.6,8.6,0,0,0,1.15,2,4.67,4.67,0,0,0,3.65,2,4.68,4.68,0,0,0,3.64-2,8.8,8.8,0,0,0,1.14-2,20.26,20.26,0,0,0,1.08-3.66,43.52,43.52,0,0,0,.91-8,14.41,14.41,0,0,0-1.31-6.68c-1.31-2.83-3-3.79-5.46-3.79S15.26,41.63,14,44.46Z"/><path class="cls-77" d="M14,44.5a14.58,14.58,0,0,0-1.3,6.63,44.17,44.17,0,0,0,.91,8,20.43,20.43,0,0,0,1.07,3.65,9,9,0,0,0,1.14,2,4.69,4.69,0,0,0,3.63,2,4.65,4.65,0,0,0,3.63-2,8.72,8.72,0,0,0,1.14-2,21.23,21.23,0,0,0,1.08-3.65,44.05,44.05,0,0,0,.9-8,14.41,14.41,0,0,0-1.3-6.65c-1.31-2.85-3-3.81-5.45-3.81S15.28,41.66,14,44.5Z"/><path class="cls-78" d="M14,44.53a14.4,14.4,0,0,0-1.29,6.61,44.63,44.63,0,0,0,.9,8,22.1,22.1,0,0,0,1.07,3.64,8.66,8.66,0,0,0,1.14,2,4.64,4.64,0,0,0,3.61,2,4.66,4.66,0,0,0,3.62-2,9.1,9.1,0,0,0,1.13-2,20.9,20.9,0,0,0,1.07-3.64,44.64,44.64,0,0,0,.91-8,14.79,14.79,0,0,0-1.29-6.63c-1.31-2.85-3-3.81-5.44-3.81S15.29,41.68,14,44.53Z"/><path class="cls-79" d="M14,44.56a14.51,14.51,0,0,0-1.28,6.59,43.31,43.31,0,0,0,.9,7.94,19.93,19.93,0,0,0,1.07,3.63,8.49,8.49,0,0,0,1.13,2,4.6,4.6,0,0,0,3.59,2,4.63,4.63,0,0,0,3.6-2,8.39,8.39,0,0,0,1.12-1.95,20,20,0,0,0,1.07-3.62,44.42,44.42,0,0,0,.91-7.95,14.74,14.74,0,0,0-1.28-6.61c-1.31-2.86-3-3.82-5.42-3.82S15.3,41.7,14,44.56Z"/><path class="cls-80" d="M14,44.6a14.52,14.52,0,0,0-1.28,6.57,44.07,44.07,0,0,0,.9,7.91,20.17,20.17,0,0,0,1.07,3.61,8.55,8.55,0,0,0,1.12,2,4.59,4.59,0,0,0,3.58,2,4.59,4.59,0,0,0,3.58-2,8.25,8.25,0,0,0,1.12-1.95,20.49,20.49,0,0,0,1.07-3.61,44,44,0,0,0,.9-7.91,14.76,14.76,0,0,0-1.27-6.59c-1.3-2.88-2.94-3.83-5.4-3.83S15.32,41.72,14,44.6Z"/><path class="cls-81" d="M14,44.63a14.76,14.76,0,0,0-1.26,6.55,43.75,43.75,0,0,0,.9,7.88,19.85,19.85,0,0,0,1.06,3.6,8.4,8.4,0,0,0,1.12,2,4.57,4.57,0,0,0,3.56,2,4.59,4.59,0,0,0,3.57-2,8.3,8.3,0,0,0,1.11-1.94,20.55,20.55,0,0,0,1.06-3.59,43.75,43.75,0,0,0,.9-7.89,14.74,14.74,0,0,0-1.26-6.57c-1.3-2.89-2.93-3.84-5.38-3.84S15.33,41.74,14,44.63Z"/><path class="cls-82" d="M14.05,44.67a14.52,14.52,0,0,0-1.25,6.52A44.21,44.21,0,0,0,13.69,59a20.55,20.55,0,0,0,1.06,3.59,8.67,8.67,0,0,0,1.11,2,4.54,4.54,0,0,0,3.55,2,4.55,4.55,0,0,0,3.55-2,8.43,8.43,0,0,0,1.11-1.93,20.62,20.62,0,0,0,1.05-3.59,43.43,43.43,0,0,0,.9-7.86,14.61,14.61,0,0,0-1.25-6.54c-1.29-2.9-2.92-3.85-5.36-3.85S15.34,41.77,14.05,44.67Z"/><path class="cls-83" d="M14.07,44.7a14.61,14.61,0,0,0-1.24,6.5A44,44,0,0,0,13.72,59a20.61,20.61,0,0,0,1,3.57,8.67,8.67,0,0,0,1.11,2,4.51,4.51,0,0,0,3.53,2,4.52,4.52,0,0,0,3.53-2A8.64,8.64,0,0,0,24,62.63a20.42,20.42,0,0,0,1.06-3.58A44,44,0,0,0,26,51.22a14.7,14.7,0,0,0-1.24-6.52c-1.29-2.91-2.9-3.86-5.34-3.86S15.36,41.79,14.07,44.7Z"/><path class="cls-84" d="M14.09,44.73a14.68,14.68,0,0,0-1.24,6.48,43.66,43.66,0,0,0,.89,7.8,20.22,20.22,0,0,0,1,3.56,8.74,8.74,0,0,0,1.1,1.95,4.52,4.52,0,0,0,3.52,2,4.49,4.49,0,0,0,3.51-2A8.56,8.56,0,0,0,24,62.6,20.75,20.75,0,0,0,25.07,59,43.67,43.67,0,0,0,26,51.23a14.68,14.68,0,0,0-1.23-6.5c-1.28-2.92-2.89-3.86-5.32-3.86S15.37,41.81,14.09,44.73Z"/><path class="cls-85" d="M14.1,44.77a14.74,14.74,0,0,0-1.22,6.45A43.44,43.44,0,0,0,13.77,59a19.81,19.81,0,0,0,1,3.55,8.72,8.72,0,0,0,1.1,1.94,4.5,4.5,0,0,0,3.5,2,4.51,4.51,0,0,0,3.5-2A9,9,0,0,0,24,62.57,20.41,20.41,0,0,0,25,59a43.34,43.34,0,0,0,.89-7.78,14.69,14.69,0,0,0-1.22-6.47c-1.27-2.94-2.88-3.88-5.3-3.88S15.38,41.83,14.1,44.77Z"/><path class="cls-86" d="M14.12,44.8a14.69,14.69,0,0,0-1.21,6.43A44,44,0,0,0,13.79,59a21.47,21.47,0,0,0,1,3.54,8.79,8.79,0,0,0,1.09,1.93,4.47,4.47,0,0,0,3.49,2,4.45,4.45,0,0,0,3.48-2A8.86,8.86,0,0,0,24,62.54,21.33,21.33,0,0,0,25,59a44.13,44.13,0,0,0,.88-7.75,14.8,14.8,0,0,0-1.21-6.46c-1.27-2.95-2.87-3.88-5.28-3.88S15.4,41.85,14.12,44.8Z"/><path class="cls-87" d="M14.14,44.83a14.63,14.63,0,0,0-1.2,6.41A42.67,42.67,0,0,0,13.82,59a20.47,20.47,0,0,0,1,3.53,8.79,8.79,0,0,0,1.09,1.93,4.43,4.43,0,0,0,3.47,2,4.43,4.43,0,0,0,3.46-2A8.45,8.45,0,0,0,24,62.51,20,20,0,0,0,25,59a43.69,43.69,0,0,0,.88-7.72,14.94,14.94,0,0,0-1.19-6.44c-1.27-2.95-2.86-3.89-5.27-3.89S15.41,41.88,14.14,44.83Z"/><path class="cls-88" d="M14.15,44.87A14.84,14.84,0,0,0,13,51.26,44.3,44.3,0,0,0,13.84,59a21.41,21.41,0,0,0,1,3.51A9.38,9.38,0,0,0,16,64.38a4.43,4.43,0,0,0,3.46,2,4.43,4.43,0,0,0,3.45-2,8.66,8.66,0,0,0,1.07-1.89A20.33,20.33,0,0,0,25,59a43.37,43.37,0,0,0,.89-7.69,14.94,14.94,0,0,0-1.19-6.41c-1.27-3-2.85-3.9-5.25-3.9S15.42,41.9,14.15,44.87Z"/><path class="cls-89" d="M14.17,44.9A14.79,14.79,0,0,0,13,51.27a43,43,0,0,0,.88,7.66,20.13,20.13,0,0,0,1,3.5A8.93,8.93,0,0,0,16,64.35a4.38,4.38,0,0,0,3.43,2,4.42,4.42,0,0,0,3.44-2,8.66,8.66,0,0,0,1.07-1.89,21,21,0,0,0,1-3.5,44,44,0,0,0,.88-7.67,14.92,14.92,0,0,0-1.18-6.39C23.38,41.92,21.8,41,19.4,41S15.44,41.92,14.17,44.9Z"/><path class="cls-90" d="M14.19,44.94A14.81,14.81,0,0,0,13,51.28a42.68,42.68,0,0,0,.87,7.63,20.9,20.9,0,0,0,1,3.49A8.61,8.61,0,0,0,16,64.31a4.35,4.35,0,0,0,3.41,2,4.36,4.36,0,0,0,3.42-2,8.58,8.58,0,0,0,1.07-1.88,20.9,20.9,0,0,0,1-3.49,43.63,43.63,0,0,0,.88-7.64,14.94,14.94,0,0,0-1.17-6.36C23.36,41.94,21.8,41,19.4,41S15.45,41.94,14.19,44.94Z"/><path class="cls-91" d="M14.21,45a14.64,14.64,0,0,0-1.16,6.32,42.46,42.46,0,0,0,.87,7.61,20.69,20.69,0,0,0,1,3.47A8.83,8.83,0,0,0,16,64.28a4.36,4.36,0,0,0,3.4,2,4.38,4.38,0,0,0,3.41-2,8.55,8.55,0,0,0,1.05-1.88,20.26,20.26,0,0,0,1-3.47,43.51,43.51,0,0,0,.88-7.62A14.89,14.89,0,0,0,24.6,45C23.35,42,21.79,41,19.4,41S15.46,42,14.21,45Z"/><path class="cls-92" d="M14.22,45a15,15,0,0,0-1.15,6.3,43.9,43.9,0,0,0,.87,7.58,19.86,19.86,0,0,0,1,3.46A8.13,8.13,0,0,0,16,64.24a4.3,4.3,0,0,0,3.38,2,4.36,4.36,0,0,0,3.39-2,8.47,8.47,0,0,0,1.05-1.87,19.86,19.86,0,0,0,1-3.46,44,44,0,0,0,.87-7.58A15,15,0,0,0,24.58,45c-1.25-3-2.8-3.93-5.18-3.93S15.47,42,14.22,45Z"/><path class="cls-93" d="M14.24,45a14.91,14.91,0,0,0-1.14,6.27A43.56,43.56,0,0,0,14,58.86a19.32,19.32,0,0,0,1,3.46A8.24,8.24,0,0,0,16,64.21a4.31,4.31,0,0,0,3.37,2,4.29,4.29,0,0,0,3.37-2,8.71,8.71,0,0,0,1.05-1.87,20.69,20.69,0,0,0,1-3.45,43.56,43.56,0,0,0,.87-7.55A15.06,15.06,0,0,0,24.56,45c-1.24-3-2.79-3.95-5.16-3.95S15.49,42,14.24,45Z"/><path class="cls-94" d="M14.26,45.07a14.73,14.73,0,0,0-1.13,6.25A42.37,42.37,0,0,0,14,58.85a20.84,20.84,0,0,0,1,3.44,8.17,8.17,0,0,0,1.05,1.88,4.27,4.27,0,0,0,3.35,2,4.27,4.27,0,0,0,3.35-2,8.39,8.39,0,0,0,1.05-1.86,19.58,19.58,0,0,0,1-3.43,43.45,43.45,0,0,0,.87-7.53,14.82,14.82,0,0,0-1.13-6.28c-1.24-3-2.77-4-5.14-4S15.5,42,14.26,45.07Z"/><path class="cls-95" d="M14.28,45.1a14.85,14.85,0,0,0-1.12,6.24A42,42,0,0,0,14,58.83a19.84,19.84,0,0,0,1,3.43,8.78,8.78,0,0,0,1,1.88,4.26,4.26,0,0,0,3.34,2,4.29,4.29,0,0,0,3.34-2,8.51,8.51,0,0,0,1-1.85,19.84,19.84,0,0,0,1-3.43,43,43,0,0,0,.87-7.5,15,15,0,0,0-1.12-6.26c-1.23-3.05-2.76-4-5.12-4S15.51,42.05,14.28,45.1Z"/><path class="cls-96" d="M14.29,45.14a15,15,0,0,0-1.11,6.21A43.85,43.85,0,0,0,14,58.82a20.49,20.49,0,0,0,1,3.41,8.46,8.46,0,0,0,1,1.87,4.21,4.21,0,0,0,3.32,2,4.23,4.23,0,0,0,3.32-2,8.43,8.43,0,0,0,1-1.84,20.49,20.49,0,0,0,1-3.41,42.87,42.87,0,0,0,.86-7.48,14.82,14.82,0,0,0-1.11-6.23c-1.23-3.07-2.75-4-5.1-4S15.53,42.07,14.29,45.14Z"/><path class="cls-97" d="M14.31,45.17a15.18,15.18,0,0,0-1.1,6.19,42.31,42.31,0,0,0,.86,7.44,19.5,19.5,0,0,0,1,3.4,8.68,8.68,0,0,0,1,1.87,4.22,4.22,0,0,0,3.31,2,4.21,4.21,0,0,0,3.3-2,8.43,8.43,0,0,0,1-1.84,19.5,19.5,0,0,0,1-3.4,42.31,42.31,0,0,0,.86-7.45,15.1,15.1,0,0,0-1.09-6.21c-1.23-3.08-2.74-4-5.09-4S15.54,42.1,14.31,45.17Z"/><path class="cls-98" d="M14.33,45.21a14.88,14.88,0,0,0-1.09,6.16,42.92,42.92,0,0,0,.85,7.41,20.56,20.56,0,0,0,1,3.39,8.36,8.36,0,0,0,1,1.86,4.2,4.2,0,0,0,3.29,2,4.22,4.22,0,0,0,3.29-2,8.51,8.51,0,0,0,1-1.83,20.34,20.34,0,0,0,1-3.39,42,42,0,0,0,.86-7.41,15,15,0,0,0-1.08-6.19c-1.22-3.09-2.73-4-5.07-4S15.55,42.12,14.33,45.21Z"/><path class="cls-99" d="M14.34,45.24a15,15,0,0,0-1.07,6.14,41.84,41.84,0,0,0,.85,7.39,20.35,20.35,0,0,0,1,3.37,8.77,8.77,0,0,0,1,1.86,4.19,4.19,0,0,0,3.28,2,4.21,4.21,0,0,0,3.27-2,8.32,8.32,0,0,0,1-1.83,19.36,19.36,0,0,0,1-3.37,43.82,43.82,0,0,0,.86-7.39,15.28,15.28,0,0,0-1.08-6.17c-1.22-3.1-2.72-4-5.05-4S15.56,42.14,14.34,45.24Z"/><path class="cls-100" d="M14.36,45.27a15.28,15.28,0,0,0-1.07,6.12,42.35,42.35,0,0,0,.85,7.36,20.21,20.21,0,0,0,1,3.36,8.69,8.69,0,0,0,1,1.85,4.14,4.14,0,0,0,3.26,1.95A4.14,4.14,0,0,0,22.65,64a8,8,0,0,0,1-1.82,19.92,19.92,0,0,0,1-3.36,42.36,42.36,0,0,0,.86-7.36,15.43,15.43,0,0,0-1.07-6.15c-1.21-3.11-2.71-4-5-4S15.58,42.16,14.36,45.27Z"/><path class="cls-101" d="M14.38,45.31a15,15,0,0,0-1.06,6.09,42,42,0,0,0,.85,7.33,20.28,20.28,0,0,0,1,3.36,8.85,8.85,0,0,0,1,1.84,4.12,4.12,0,0,0,3.23,1.94,4.12,4.12,0,0,0,3.24-1.94,8.38,8.38,0,0,0,1-1.81,19.48,19.48,0,0,0,1-3.35,42.14,42.14,0,0,0,.86-7.34,15.12,15.12,0,0,0-1.06-6.12c-1.21-3.13-2.69-4-5-4S15.59,42.18,14.38,45.31Z"/><path class="cls-102" d="M14.4,45.34a14.93,14.93,0,0,0-1.05,6.08,42.75,42.75,0,0,0,.84,7.3,21.31,21.31,0,0,0,1,3.34,8.75,8.75,0,0,0,1,1.83,4.08,4.08,0,0,0,3.22,1.94,4.13,4.13,0,0,0,3.23-1.94,8.73,8.73,0,0,0,1-1.8,20.28,20.28,0,0,0,1-3.34,42.76,42.76,0,0,0,.85-7.31,15.24,15.24,0,0,0-1.05-6.1c-1.2-3.14-2.68-4-5-4S15.6,42.2,14.4,45.34Z"/><path class="cls-103" d="M14.41,45.37a15.43,15.43,0,0,0-1,6.06,43.31,43.31,0,0,0,.85,7.27,20.5,20.5,0,0,0,1,3.33,9,9,0,0,0,1,1.83,4.07,4.07,0,0,0,3.2,1.94,4.09,4.09,0,0,0,3.21-1.94,8.27,8.27,0,0,0,1-1.8,19.85,19.85,0,0,0,1-3.33,42.3,42.3,0,0,0,.85-7.28,15.22,15.22,0,0,0-1-6.08c-1.19-3.14-2.67-4-5-4S15.61,42.23,14.41,45.37Z"/><path class="cls-104" d="M14.43,45.41a15.11,15.11,0,0,0-1,6,42,42,0,0,0,.84,7.24,21.09,21.09,0,0,0,1,3.32,9.51,9.51,0,0,0,1,1.83,4.08,4.08,0,0,0,3.19,1.93,4.05,4.05,0,0,0,3.19-1.94,8.37,8.37,0,0,0,1-1.79,19,19,0,0,0,1-3.31,41.22,41.22,0,0,0,.85-7.25,15.27,15.27,0,0,0-1-6.06c-1.19-3.16-2.65-4-5-4S15.63,42.25,14.43,45.41Z"/><path class="cls-105" d="M14.45,45.44a15.23,15.23,0,0,0-1,6,41.83,41.83,0,0,0,.84,7.22,19.14,19.14,0,0,0,1,3.3,8.21,8.21,0,0,0,1,1.82,4,4,0,0,0,3.17,1.93,4.08,4.08,0,0,0,3.18-1.93,9.1,9.1,0,0,0,1-1.79,20.48,20.48,0,0,0,1-3.3,41.6,41.6,0,0,0,.84-7.22,15.22,15.22,0,0,0-1-6c-1.18-3.17-2.64-4-4.94-4S15.64,42.27,14.45,45.44Z"/><path class="cls-106" d="M14.47,45.48a15.13,15.13,0,0,0-1,6,41.26,41.26,0,0,0,.84,7.19,19.71,19.71,0,0,0,.95,3.29,8.43,8.43,0,0,0,1,1.82,4,4,0,0,0,3.16,1.92,4,4,0,0,0,3.16-1.93,8.73,8.73,0,0,0,1-1.78,19.86,19.86,0,0,0,.95-3.28,41.49,41.49,0,0,0,.84-7.2,15.49,15.49,0,0,0-1-6c-1.19-3.19-2.64-4.06-4.93-4.06S15.65,42.29,14.47,45.48Z"/><path class="cls-107" d="M14.48,45.51a15.25,15.25,0,0,0-1,6,42.14,42.14,0,0,0,.84,7.17,19.72,19.72,0,0,0,.95,3.27,8.11,8.11,0,0,0,1,1.81,4,4,0,0,0,3.14,1.93,4,4,0,0,0,3.14-1.93,8.26,8.26,0,0,0,1-1.78,19.43,19.43,0,0,0,.95-3.27,41.15,41.15,0,0,0,.84-7.17,15.43,15.43,0,0,0-1-6c-1.18-3.2-2.63-4.07-4.91-4.07S15.66,42.31,14.48,45.51Z"/><path class="cls-108" d="M14.5,45.54a15.42,15.42,0,0,0-1,5.94,41.79,41.79,0,0,0,.84,7.14,18.47,18.47,0,0,0,.94,3.26,8.53,8.53,0,0,0,1,1.81,4,4,0,0,0,3.13,1.92,4,4,0,0,0,3.12-1.93,7.91,7.91,0,0,0,1-1.76,19.72,19.72,0,0,0,.95-3.27,41.66,41.66,0,0,0,.83-7.14,15.38,15.38,0,0,0-1-6c-1.17-3.21-2.61-4.07-4.89-4.07S15.68,42.33,14.5,45.54Z"/><path class="cls-109" d="M14.52,45.58a15.29,15.29,0,0,0-1,5.92,41.32,41.32,0,0,0,.83,7.1,19.5,19.5,0,0,0,.94,3.25,8.44,8.44,0,0,0,1,1.8,3.94,3.94,0,0,0,3.11,1.92,4,4,0,0,0,3.11-1.92,8.32,8.32,0,0,0,1-1.76,19.79,19.79,0,0,0,.94-3.25,41.43,41.43,0,0,0,.83-7.12,15.27,15.27,0,0,0-1-5.94c-1.17-3.23-2.6-4.09-4.87-4.09S15.69,42.36,14.52,45.58Z"/><path class="cls-110" d="M14.54,45.61a15.05,15.05,0,0,0-1,5.9,41.2,41.2,0,0,0,.83,7.08,20,20,0,0,0,.93,3.24,8.85,8.85,0,0,0,1,1.79,4,4,0,0,0,3.1,1.91,3.92,3.92,0,0,0,3.09-1.92,8.23,8.23,0,0,0,1-1.75,20.44,20.44,0,0,0,.93-3.24,42.11,42.11,0,0,0,.84-7.08,15.56,15.56,0,0,0-1-5.93c-1.16-3.23-2.59-4.09-4.85-4.09S15.7,42.38,14.54,45.61Z"/><path class="cls-111" d="M14.55,45.64a15.6,15.6,0,0,0-1,5.88,41.75,41.75,0,0,0,.83,7,20.6,20.6,0,0,0,.93,3.23,8.5,8.5,0,0,0,1,1.78,3.9,3.9,0,0,0,3.08,1.91,3.9,3.9,0,0,0,3.07-1.91,8,8,0,0,0,.95-1.75,18.51,18.51,0,0,0,.93-3.22,40.87,40.87,0,0,0,.84-7.06,15.5,15.5,0,0,0-1-5.91c-1.16-3.24-2.57-4.1-4.83-4.1S15.71,42.4,14.55,45.64Z"/><path class="cls-112" d="M14.57,45.68a15.45,15.45,0,0,0-1,5.85,41.28,41.28,0,0,0,.83,7,19.5,19.5,0,0,0,.92,3.22,8.76,8.76,0,0,0,1,1.78,3.89,3.89,0,0,0,3.06,1.91,3.94,3.94,0,0,0,3.06-1.91,8.46,8.46,0,0,0,.94-1.75,20,20,0,0,0,.93-3.21,41.51,41.51,0,0,0,.83-7,15.59,15.59,0,0,0-.95-5.88c-1.15-3.26-2.56-4.11-4.81-4.11S15.72,42.42,14.57,45.68Z"/><path class="cls-113" d="M14.59,45.71a15.56,15.56,0,0,0-.94,5.83,42.19,42.19,0,0,0,.82,7,19.22,19.22,0,0,0,.92,3.2,8.88,8.88,0,0,0,.95,1.77,3.87,3.87,0,0,0,3,1.91,3.87,3.87,0,0,0,3.05-1.91,8.12,8.12,0,0,0,.94-1.74,19.22,19.22,0,0,0,.92-3.2,41,41,0,0,0,.83-7,15.53,15.53,0,0,0-.94-5.86c-1.14-3.27-2.55-4.12-4.8-4.12S15.74,42.44,14.59,45.71Z"/><path class="cls-114" d="M14.6,45.75a15.47,15.47,0,0,0-.92,5.8,39.83,39.83,0,0,0,.82,7,20.16,20.16,0,0,0,.91,3.19,8.4,8.4,0,0,0,.95,1.77,3.85,3.85,0,0,0,3,1.9,3.85,3.85,0,0,0,3-1.9,8.37,8.37,0,0,0,.94-1.74,19,19,0,0,0,.91-3.18,40.81,40.81,0,0,0,.83-7,15.42,15.42,0,0,0-.93-5.83c-1.14-3.29-2.54-4.13-4.78-4.13S15.75,42.46,14.6,45.75Z"/><path class="cls-115" d="M14.62,45.78a15.59,15.59,0,0,0-.92,5.78,41.35,41.35,0,0,0,.82,6.94,20.32,20.32,0,0,0,.91,3.18,8.78,8.78,0,0,0,.94,1.76,3.82,3.82,0,0,0,3,1.9,3.86,3.86,0,0,0,3-1.9,8.66,8.66,0,0,0,.92-1.72,19.23,19.23,0,0,0,.92-3.18,41.47,41.47,0,0,0,.82-6.95,15.36,15.36,0,0,0-.92-5.81c-1.13-3.3-2.52-4.14-4.76-4.14S15.76,42.48,14.62,45.78Z"/><path class="cls-116" d="M14.64,45.81a15.75,15.75,0,0,0-.91,5.76,41.12,41.12,0,0,0,.82,6.92,20.1,20.1,0,0,0,.9,3.16,8.78,8.78,0,0,0,.94,1.76,3.8,3.8,0,0,0,3,1.9,3.83,3.83,0,0,0,3-1.9,8.66,8.66,0,0,0,.92-1.72,19,19,0,0,0,.91-3.16A41.24,41.24,0,0,0,25,51.61a15.75,15.75,0,0,0-.9-5.8c-1.13-3.31-2.52-4.14-4.75-4.14S15.77,42.51,14.64,45.81Z"/><path class="cls-117" d="M14.66,45.85a15.44,15.44,0,0,0-.9,5.74,40.76,40.76,0,0,0,.81,6.88,20,20,0,0,0,.9,3.15,9.21,9.21,0,0,0,.93,1.75,3.8,3.8,0,0,0,3,1.9,3.79,3.79,0,0,0,3-1.9,8.56,8.56,0,0,0,.92-1.71,20,20,0,0,0,.9-3.15A40.77,40.77,0,0,0,25,51.62a15.64,15.64,0,0,0-.89-5.77c-1.13-3.32-2.51-4.16-4.73-4.16S15.78,42.53,14.66,45.85Z"/><path class="cls-118" d="M14.67,45.88a15.61,15.61,0,0,0-.88,5.72,40.53,40.53,0,0,0,.81,6.86,19.08,19.08,0,0,0,.9,3.14,8.61,8.61,0,0,0,.92,1.74,3.74,3.74,0,0,0,3,1.89,3.77,3.77,0,0,0,3-1.89,8.85,8.85,0,0,0,.92-1.71,19.8,19.8,0,0,0,.9-3.14A41.45,41.45,0,0,0,25,51.63a15.79,15.79,0,0,0-.88-5.75c-1.12-3.33-2.49-4.16-4.71-4.16S15.8,42.55,14.67,45.88Z"/><path class="cls-119" d="M14.69,45.91a16,16,0,0,0-.88,5.7,41.22,41.22,0,0,0,.81,6.83,20,20,0,0,0,.9,3.13,8.25,8.25,0,0,0,.91,1.73,3.76,3.76,0,0,0,2.95,1.89,3.76,3.76,0,0,0,2.95-1.89,8.45,8.45,0,0,0,.9-1.7,19.51,19.51,0,0,0,.9-3.12,40.18,40.18,0,0,0,.81-6.84,15.73,15.73,0,0,0-.87-5.73c-1.11-3.34-2.48-4.17-4.69-4.17S15.81,42.57,14.69,45.91Z"/><path class="cls-120" d="M14.71,46a15.63,15.63,0,0,0-.87,5.67,40.61,40.61,0,0,0,.81,6.8,19.16,19.16,0,0,0,.89,3.12,8.25,8.25,0,0,0,.91,1.73,3.72,3.72,0,0,0,2.93,1.88,3.72,3.72,0,0,0,2.93-1.88,8.73,8.73,0,0,0,.9-1.7,18.73,18.73,0,0,0,.89-3.11,39.83,39.83,0,0,0,.81-6.81,15.83,15.83,0,0,0-.86-5.7c-1.11-3.36-2.47-4.18-4.67-4.18S15.82,42.59,14.71,46Z"/><path class="cls-121" d="M14.73,46a15.57,15.57,0,0,0-.86,5.65,40.49,40.49,0,0,0,.8,6.78,19.91,19.91,0,0,0,.89,3.1,8.64,8.64,0,0,0,.9,1.72,3.73,3.73,0,0,0,2.92,1.89,3.7,3.7,0,0,0,2.91-1.89,8,8,0,0,0,.9-1.68,19.91,19.91,0,0,0,.89-3.1,41.69,41.69,0,0,0,.81-6.79A15.75,15.75,0,0,0,24,46c-1.1-3.37-2.46-4.19-4.65-4.19S15.83,42.61,14.73,46Z"/><path class="cls-122" d="M14.74,46a15.89,15.89,0,0,0-.84,5.62,40.13,40.13,0,0,0,.8,6.75,19.84,19.84,0,0,0,.88,3.09,8.15,8.15,0,0,0,.9,1.72,3.68,3.68,0,0,0,2.9,1.88,3.73,3.73,0,0,0,2.9-1.88,8.53,8.53,0,0,0,.89-1.68,19.84,19.84,0,0,0,.88-3.09,41.21,41.21,0,0,0,.81-6.75A15.84,15.84,0,0,0,24,46c-1.09-3.39-2.44-4.2-4.63-4.2S15.84,42.63,14.74,46Z"/><path class="cls-123" d="M14.76,46.05a15.84,15.84,0,0,0-.84,5.6,41.81,41.81,0,0,0,.8,6.72,19.37,19.37,0,0,0,.88,3.08,7.82,7.82,0,0,0,.9,1.71A3.64,3.64,0,0,0,19.38,65a3.67,3.67,0,0,0,2.88-1.88,7.69,7.69,0,0,0,.88-1.67A18.38,18.38,0,0,0,24,58.41a40.85,40.85,0,0,0,.81-6.72A15.78,15.78,0,0,0,24,46.05c-1.09-3.4-2.43-4.21-4.61-4.21S15.85,42.65,14.76,46.05Z"/><path class="cls-124" d="M14.78,46.08A15.77,15.77,0,0,0,14,51.67a39.56,39.56,0,0,0,.8,6.69,19.46,19.46,0,0,0,.87,3.06,8.82,8.82,0,0,0,.89,1.71A3.64,3.64,0,0,0,19.38,65a3.64,3.64,0,0,0,2.86-1.87,7.93,7.93,0,0,0,.88-1.67A19.39,19.39,0,0,0,24,58.4a41.7,41.7,0,0,0,.8-6.7A16,16,0,0,0,24,46.08c-1.08-3.41-2.42-4.21-4.59-4.21S15.87,42.68,14.78,46.08Z"/><path class="cls-125" d="M14.8,46.12A15.61,15.61,0,0,0,14,51.68a40.11,40.11,0,0,0,.79,6.66,19.31,19.31,0,0,0,.87,3,8.44,8.44,0,0,0,.89,1.7A3.6,3.6,0,0,0,19.38,65a3.64,3.64,0,0,0,2.84-1.88,8.06,8.06,0,0,0,.88-1.66,19,19,0,0,0,.87-3,41.19,41.19,0,0,0,.8-6.67A16.08,16.08,0,0,0,24,46.12c-1.08-3.42-2.41-4.23-4.58-4.23S15.88,42.7,14.8,46.12Z"/><path class="cls-126" d="M14.81,46.15a15.84,15.84,0,0,0-.8,5.54,39.63,39.63,0,0,0,.79,6.63,20.89,20.89,0,0,0,.86,3,9.19,9.19,0,0,0,.88,1.69,3.62,3.62,0,0,0,2.83,1.87,3.62,3.62,0,0,0,2.84-1.87,8.87,8.87,0,0,0,.87-1.66,19.09,19.09,0,0,0,.86-3,41.08,41.08,0,0,0,.8-6.65,16.27,16.27,0,0,0-.8-5.57c-1.07-3.43-2.4-4.23-4.57-4.23S15.89,42.72,14.81,46.15Z"/><path class="cls-127" d="M14.83,46.18A16,16,0,0,0,14,51.7a40.59,40.59,0,0,0,.79,6.61,20.93,20.93,0,0,0,.86,3A8.52,8.52,0,0,0,16.56,63a3.58,3.58,0,0,0,2.81,1.87A3.58,3.58,0,0,0,22.19,63a8.21,8.21,0,0,0,.86-1.65,19.19,19.19,0,0,0,.87-3,40.58,40.58,0,0,0,.79-6.62,16.21,16.21,0,0,0-.79-5.55c-1.07-3.44-2.39-4.24-4.55-4.24S15.9,42.74,14.83,46.18Z"/><path class="cls-128" d="M14.85,46.22a15.84,15.84,0,0,0-.79,5.49,40.22,40.22,0,0,0,.79,6.58,19.33,19.33,0,0,0,.85,3A9.08,9.08,0,0,0,16.57,63a3.56,3.56,0,0,0,2.8,1.86A3.56,3.56,0,0,0,22.17,63,8.4,8.4,0,0,0,23,61.35a19.26,19.26,0,0,0,.86-3,40.22,40.22,0,0,0,.79-6.58,16.11,16.11,0,0,0-.78-5.53C22.84,42.76,21.52,42,19.37,42S15.91,42.76,14.85,46.22Z"/><path class="cls-129" d="M14.86,46.25a16.33,16.33,0,0,0-.77,5.47,39.72,39.72,0,0,0,.78,6.55,20.33,20.33,0,0,0,.85,3A8.67,8.67,0,0,0,16.59,63a3.52,3.52,0,0,0,2.78,1.86A3.55,3.55,0,0,0,22.16,63,8.55,8.55,0,0,0,23,61.32a19.35,19.35,0,0,0,.85-3,38.93,38.93,0,0,0,.79-6.56,16,16,0,0,0-.77-5.51C22.83,42.78,21.52,42,19.37,42S15.92,42.78,14.86,46.25Z"/><path class="cls-130" d="M14.88,46.29a15.92,15.92,0,0,0-.76,5.44,39.48,39.48,0,0,0,.78,6.53,20.45,20.45,0,0,0,.84,3,9.62,9.62,0,0,0,.86,1.67,3.54,3.54,0,0,0,2.77,1.86,3.53,3.53,0,0,0,2.77-1.86A8.86,8.86,0,0,0,23,61.29a19,19,0,0,0,.84-3,38.45,38.45,0,0,0,.79-6.53,16.13,16.13,0,0,0-.76-5.48C22.81,42.8,21.51,42,19.37,42S15.93,42.8,14.88,46.29Z"/><path class="cls-131" d="M14.9,46.32a16.11,16.11,0,0,0-.76,5.43,40.23,40.23,0,0,0,.78,6.49,19.85,19.85,0,0,0,.85,3,8.68,8.68,0,0,0,.85,1.67,3.51,3.51,0,0,0,2.75,1.85,3.5,3.5,0,0,0,2.75-1.86A7.91,7.91,0,0,0,23,61.26a18.74,18.74,0,0,0,.85-3,39.13,39.13,0,0,0,.78-6.5,16.11,16.11,0,0,0-.75-5.46c-1-3.5-2.34-4.28-4.47-4.28S15.94,42.82,14.9,46.32Z"/><path class="cls-132" d="M14.92,46.35a16.34,16.34,0,0,0-.75,5.41A40,40,0,0,0,15,58.23a19.14,19.14,0,0,0,.84,3,8.86,8.86,0,0,0,.84,1.66,3.49,3.49,0,0,0,2.74,1.85,3.47,3.47,0,0,0,2.73-1.85,7.91,7.91,0,0,0,.84-1.62,18.52,18.52,0,0,0,.84-3,40,40,0,0,0,.79-6.48,16.54,16.54,0,0,0-.75-5.44c-1-3.51-2.32-4.28-4.45-4.28S16,42.84,14.92,46.35Z"/><path class="cls-133" d="M14.93,46.39a16.21,16.21,0,0,0-.73,5.38A40.74,40.74,0,0,0,15,58.21a18.68,18.68,0,0,0,.84,2.95,8.57,8.57,0,0,0,.84,1.66,3.45,3.45,0,0,0,2.72,1.84,3.47,3.47,0,0,0,2.72-1.85,8.34,8.34,0,0,0,.83-1.61,18.44,18.44,0,0,0,.83-3,39.48,39.48,0,0,0,.79-6.45,16.37,16.37,0,0,0-.74-5.41c-1-3.53-2.31-4.3-4.43-4.3S16,42.87,14.93,46.39Z"/><path class="cls-134" d="M15,46.42a16.34,16.34,0,0,0-.73,5.36A39.25,39.25,0,0,0,15,58.19a19.73,19.73,0,0,0,.83,2.94,8.2,8.2,0,0,0,.84,1.65,3.45,3.45,0,0,0,2.7,1.85,3.45,3.45,0,0,0,2.7-1.85,8.34,8.34,0,0,0,.83-1.61,19.93,19.93,0,0,0,.83-2.93,40.5,40.5,0,0,0,.78-6.42,16.6,16.6,0,0,0-.73-5.4c-1-3.53-2.3-4.3-4.41-4.3S16,42.89,15,46.42Z"/><path class="cls-135" d="M15,46.45a16.59,16.59,0,0,0-.72,5.34A40,40,0,0,0,15,58.18a19.93,19.93,0,0,0,.83,2.93,8.37,8.37,0,0,0,.83,1.64,3.42,3.42,0,0,0,2.69,1.84,3.44,3.44,0,0,0,2.68-1.85,7.88,7.88,0,0,0,.82-1.59,18.77,18.77,0,0,0,.83-2.93,38.88,38.88,0,0,0,.78-6.39,16.57,16.57,0,0,0-.71-5.38c-1-3.54-2.3-4.31-4.4-4.31S16,42.91,15,46.45Z"/><path class="cls-136" d="M15,46.49a16.15,16.15,0,0,0-.71,5.31,39.61,39.61,0,0,0,.77,6.36,19.85,19.85,0,0,0,.82,2.92,8.27,8.27,0,0,0,.83,1.63,3.39,3.39,0,0,0,2.67,1.84A3.42,3.42,0,0,0,22,62.71a8.74,8.74,0,0,0,.81-1.59,18.69,18.69,0,0,0,.82-2.92,38.52,38.52,0,0,0,.78-6.36,16.44,16.44,0,0,0-.7-5.35c-1-3.56-2.28-4.32-4.38-4.32S16,42.93,15,46.49Z"/><path class="cls-137" d="M15,46.52a16.39,16.39,0,0,0-.69,5.29,40.39,40.39,0,0,0,.76,6.33,20,20,0,0,0,.82,2.91,8.85,8.85,0,0,0,.82,1.63,3.4,3.4,0,0,0,2.66,1.83A3.38,3.38,0,0,0,22,62.67a8.32,8.32,0,0,0,.81-1.58,19.53,19.53,0,0,0,.82-2.9,39.36,39.36,0,0,0,.77-6.34,16.66,16.66,0,0,0-.69-5.33c-1-3.57-2.27-4.33-4.36-4.33S16,43,15,46.52Z"/><path class="cls-138" d="M15,46.56a16.54,16.54,0,0,0-.69,5.27,40.16,40.16,0,0,0,.77,6.3A19.81,19.81,0,0,0,15.91,61a8.44,8.44,0,0,0,.82,1.62,3.34,3.34,0,0,0,2.63,1.83A3.36,3.36,0,0,0,22,62.64a8.32,8.32,0,0,0,.81-1.58,19.46,19.46,0,0,0,.81-2.89,38.86,38.86,0,0,0,.77-6.31,16.49,16.49,0,0,0-.68-5.3c-1-3.59-2.26-4.34-4.35-4.34S16,43,15,46.56Z"/><path class="cls-139" d="M15,46.59a16.48,16.48,0,0,0-.68,5.25,38.51,38.51,0,0,0,.77,6.27,19.73,19.73,0,0,0,.8,2.88,9.06,9.06,0,0,0,.81,1.62,3.36,3.36,0,0,0,2.62,1.83A3.36,3.36,0,0,0,22,62.6,8.21,8.21,0,0,0,22.78,61a18,18,0,0,0,.81-2.87,38.75,38.75,0,0,0,.77-6.29,16.75,16.75,0,0,0-.67-5.28c-1-3.6-2.25-4.35-4.33-4.35S16,43,15,46.59Z"/><path class="cls-140" d="M15.05,46.62a16.74,16.74,0,0,0-.66,5.23,39.26,39.26,0,0,0,.76,6.24A19.22,19.22,0,0,0,16,61a8.63,8.63,0,0,0,.81,1.61,3.32,3.32,0,0,0,2.6,1.83A3.35,3.35,0,0,0,22,62.57,8.21,8.21,0,0,0,22.76,61a19,19,0,0,0,.81-2.86,39.38,39.38,0,0,0,.76-6.25,16.71,16.71,0,0,0-.66-5.27c-1-3.61-2.23-4.35-4.31-4.35S16,43,15.05,46.62Z"/><path class="cls-141" d="M15.07,46.66a16.6,16.6,0,0,0-.65,5.2,37.9,37.9,0,0,0,.76,6.22A19.33,19.33,0,0,0,16,60.93a9.29,9.29,0,0,0,.8,1.61,3.32,3.32,0,0,0,2.59,1.82A3.31,3.31,0,0,0,22,62.54,8.41,8.41,0,0,0,22.74,61a19.41,19.41,0,0,0,.8-2.86,38.87,38.87,0,0,0,.76-6.22,16.83,16.83,0,0,0-.65-5.24c-1-3.63-2.22-4.37-4.29-4.37S16.05,43,15.07,46.66Z"/><path class="cls-142" d="M15.09,46.69a16.81,16.81,0,0,0-.65,5.18,39.81,39.81,0,0,0,.76,6.19A20.48,20.48,0,0,0,16,60.9a9.17,9.17,0,0,0,.8,1.6,3.27,3.27,0,0,0,2.57,1.82,3.27,3.27,0,0,0,2.57-1.82A8.3,8.3,0,0,0,22.72,61a19.53,19.53,0,0,0,.79-2.84,38.76,38.76,0,0,0,.76-6.2,16.52,16.52,0,0,0-.64-5.22c-1-3.64-2.21-4.37-4.27-4.37S16.06,43.05,15.09,46.69Z"/><path class="cls-143" d="M15.11,46.72a16.75,16.75,0,0,0-.64,5.16,39.71,39.71,0,0,0,.76,6.17A19.81,19.81,0,0,0,16,60.88a8.73,8.73,0,0,0,.8,1.59,3.27,3.27,0,0,0,2.55,1.82,3.3,3.3,0,0,0,2.56-1.82,8.61,8.61,0,0,0,.77-1.55,19.29,19.29,0,0,0,.8-2.83,39.41,39.41,0,0,0,.76-6.17,17,17,0,0,0-.64-5.2c-.95-3.65-2.19-4.38-4.25-4.38S16.07,43.08,15.11,46.72Z"/><path class="cls-144" d="M15.12,46.76a16.91,16.91,0,0,0-.62,5.13A37.88,37.88,0,0,0,15.25,58,19.57,19.57,0,0,0,16,60.85a8.31,8.31,0,0,0,.78,1.58,3.23,3.23,0,0,0,2.54,1.82,3.25,3.25,0,0,0,2.54-1.82,8.19,8.19,0,0,0,.77-1.54,19.05,19.05,0,0,0,.79-2.81,39.3,39.3,0,0,0,.76-6.15,17.19,17.19,0,0,0-.62-5.17c-1-3.66-2.19-4.39-4.24-4.39S16.08,43.1,15.12,46.76Z"/><path class="cls-145" d="M15.14,46.79a16.85,16.85,0,0,0-.61,5.11A37.51,37.51,0,0,0,15.28,58a18,18,0,0,0,.78,2.81,8.61,8.61,0,0,0,.78,1.58,3.21,3.21,0,0,0,2.52,1.81,3.23,3.23,0,0,0,2.52-1.81,9.21,9.21,0,0,0,.77-1.54,17.82,17.82,0,0,0,.78-2.8,38.78,38.78,0,0,0,.76-6.12,17.13,17.13,0,0,0-.61-5.15c-.94-3.67-2.18-4.4-4.22-4.4S16.09,43.12,15.14,46.79Z"/><path class="cls-146" d="M15.16,46.83a17,17,0,0,0-.61,5.09A39.77,39.77,0,0,0,15.3,58a19.17,19.17,0,0,0,.78,2.79,9.19,9.19,0,0,0,.77,1.57,3.2,3.2,0,0,0,2.51,1.81,3.23,3.23,0,0,0,2.51-1.81,9.48,9.48,0,0,0,.76-1.53A19.73,19.73,0,0,0,23.41,58,39.46,39.46,0,0,0,24.16,52a17.3,17.3,0,0,0-.6-5.13c-.94-3.69-2.17-4.41-4.2-4.41S16.1,43.14,15.16,46.83Z"/><path class="cls-147" d="M15.18,46.86a17,17,0,0,0-.6,5.07,39.23,39.23,0,0,0,.75,6,19.09,19.09,0,0,0,.77,2.78,7.92,7.92,0,0,0,.77,1.57,3.18,3.18,0,0,0,2.49,1.8,3.21,3.21,0,0,0,2.49-1.8,8.72,8.72,0,0,0,.75-1.53A18.5,18.5,0,0,0,23.38,58,39.36,39.36,0,0,0,24.13,52a17.24,17.24,0,0,0-.59-5.11c-.93-3.7-2.15-4.42-4.18-4.42S16.11,43.16,15.18,46.86Z"/><path class="cls-148" d="M15.19,46.89a17.26,17.26,0,0,0-.58,5,38.84,38.84,0,0,0,.74,6,18.58,18.58,0,0,0,.77,2.77,8.1,8.1,0,0,0,.76,1.56,3.19,3.19,0,0,0,2.48,1.81,3.18,3.18,0,0,0,2.47-1.81,8.17,8.17,0,0,0,.75-1.51A18.93,18.93,0,0,0,23.35,58a38.82,38.82,0,0,0,.75-6,17.55,17.55,0,0,0-.58-5.09c-.92-3.71-2.14-4.42-4.16-4.42S16.12,43.18,15.19,46.89Z"/><path class="cls-149" d="M15.21,46.93a16.79,16.79,0,0,0-.57,5,37.41,37.41,0,0,0,.74,6,19,19,0,0,0,.76,2.75,8.39,8.39,0,0,0,.76,1.56,3.15,3.15,0,0,0,2.46,1.8,3.15,3.15,0,0,0,2.45-1.8,8.17,8.17,0,0,0,.75-1.51A19,19,0,0,0,23.32,58a38.72,38.72,0,0,0,.75-6,17,17,0,0,0-.57-5.06c-.91-3.73-2.13-4.44-4.14-4.44S16.13,43.2,15.21,46.93Z"/><path class="cls-150" d="M15.23,47a17.37,17.37,0,0,0-.57,5,39.28,39.28,0,0,0,.74,6,19.84,19.84,0,0,0,.76,2.74,8.61,8.61,0,0,0,.75,1.55A3.15,3.15,0,0,0,19.35,64a3.15,3.15,0,0,0,2.45-1.8,8.39,8.39,0,0,0,.74-1.5A20.25,20.25,0,0,0,23.3,58,38.18,38.18,0,0,0,24,52a17.35,17.35,0,0,0-.56-5c-.9-3.74-2.11-4.44-4.13-4.44S16.14,43.22,15.23,47Z"/><path class="cls-151" d="M15.25,47a17.3,17.3,0,0,0-.56,5,37.68,37.68,0,0,0,.74,5.94,18.45,18.45,0,0,0,.75,2.73,8,8,0,0,0,.75,1.55A3.1,3.1,0,0,0,19.35,64a3.12,3.12,0,0,0,2.43-1.79,7.76,7.76,0,0,0,.73-1.5A18.37,18.37,0,0,0,23.27,58,37.65,37.65,0,0,0,24,52a17.28,17.28,0,0,0-.55-5c-.89-3.75-2.1-4.45-4.11-4.45S16.14,43.24,15.25,47Z"/><path class="cls-152" d="M15.26,47A17.19,17.19,0,0,0,14.72,52a38.77,38.77,0,0,0,.73,5.92,20.41,20.41,0,0,0,.75,2.72,8.73,8.73,0,0,0,.74,1.53A3.11,3.11,0,0,0,19.35,64a3.1,3.1,0,0,0,2.41-1.8,8,8,0,0,0,.73-1.49A17.32,17.32,0,0,0,23.24,58,37.57,37.57,0,0,0,24,52a17.13,17.13,0,0,0-.54-5c-.88-3.77-2.09-4.46-4.09-4.46S16.15,43.26,15.26,47Z"/><path class="cls-153" d="M15.28,47.06A17.16,17.16,0,0,0,14.75,52a38.1,38.1,0,0,0,.73,5.88,18.56,18.56,0,0,0,.74,2.71A9.09,9.09,0,0,0,17,62.12a3.08,3.08,0,0,0,2.39,1.79,3.11,3.11,0,0,0,2.4-1.79,8.62,8.62,0,0,0,.72-1.49,19.26,19.26,0,0,0,.75-2.7A38.39,38.39,0,0,0,24,52a17.45,17.45,0,0,0-.53-5c-.87-3.78-2.08-4.47-4.07-4.47S16.16,43.28,15.28,47.06Z"/><path class="cls-154" d="M15.3,47.1A17.62,17.62,0,0,0,14.77,52a39.27,39.27,0,0,0,.73,5.86,22.08,22.08,0,0,0,.74,2.69A8.61,8.61,0,0,0,17,62.08a3,3,0,0,0,2.37,1.79,3.07,3.07,0,0,0,2.38-1.79,8.39,8.39,0,0,0,.72-1.47,18.6,18.6,0,0,0,.74-2.69,39.25,39.25,0,0,0,.74-5.87,18,18,0,0,0-.52-4.95c-.87-3.8-2.07-4.48-4.06-4.48S16.17,43.3,15.3,47.1Z"/><path class="cls-155" d="M15.31,47.13A18,18,0,0,0,14.8,52a37.62,37.62,0,0,0,.73,5.83,19.9,19.9,0,0,0,.73,2.68A9,9,0,0,0,17,62.05a3,3,0,0,0,2.36,1.78c.88,0,1.68-.67,2.36-1.78a8.75,8.75,0,0,0,.71-1.47,18.44,18.44,0,0,0,.74-2.68,38.85,38.85,0,0,0,.74-5.84,18.34,18.34,0,0,0-.51-4.93c-.86-3.81-2.06-4.49-4-4.49S16.18,43.33,15.31,47.13Z"/><path class="cls-156" d="M15.33,47.16a17.56,17.56,0,0,0-.5,4.87,38.31,38.31,0,0,0,.72,5.8,19.72,19.72,0,0,0,.73,2.67A9,9,0,0,0,17,62c.67,1.1,1.47,1.77,2.34,1.77S21,63.12,21.69,62a8.27,8.27,0,0,0,.71-1.46,19.63,19.63,0,0,0,.74-2.67,39.6,39.6,0,0,0,.73-5.81,17.87,17.87,0,0,0-.5-4.91c-.85-3.82-2.05-4.49-4-4.49S16.19,43.35,15.33,47.16Z"/><path class="cls-157" d="M15.35,47.2A17.37,17.37,0,0,0,14.86,52a38.21,38.21,0,0,0,.72,5.78,18.4,18.4,0,0,0,.73,2.65A8.51,8.51,0,0,0,17,62c.67,1.11,1.46,1.78,2.33,1.78S21,63.08,21.68,62a9,9,0,0,0,.7-1.46,18,18,0,0,0,.73-2.65,39.5,39.5,0,0,0,.73-5.79,17.68,17.68,0,0,0-.49-4.88c-.85-3.83-2-4.51-4-4.51S16.2,43.37,15.35,47.2Z"/><path class="cls-158" d="M15.37,47.23a18.1,18.1,0,0,0-.49,4.82,39,39,0,0,0,.72,5.75,19.21,19.21,0,0,0,.73,2.64A8.85,8.85,0,0,0,17,62c.66,1.1,1.45,1.77,2.31,1.77s1.65-.67,2.31-1.78a8.91,8.91,0,0,0,.7-1.45,19.3,19.3,0,0,0,.72-2.64,37.66,37.66,0,0,0,.73-5.75,18,18,0,0,0-.48-4.87c-.84-3.84-2-4.52-4-4.52S16.21,43.39,15.37,47.23Z"/><path class="cls-159" d="M15.38,47.27a17.94,17.94,0,0,0-.47,4.79,37.11,37.11,0,0,0,.72,5.72,19.13,19.13,0,0,0,.72,2.63,9.15,9.15,0,0,0,.7,1.5c.66,1.1,1.45,1.77,2.3,1.77S21,63,21.64,61.91a8.16,8.16,0,0,0,.69-1.45,17.92,17.92,0,0,0,.73-2.62,38.68,38.68,0,0,0,.72-5.73,17.89,17.89,0,0,0-.47-4.84c-.83-3.86-2-4.53-4-4.53S16.22,43.41,15.38,47.27Z"/><path class="cls-160" d="M15.4,47.3a17.91,17.91,0,0,0-.46,4.78,38.31,38.31,0,0,0,.71,5.69,19.78,19.78,0,0,0,.72,2.62,9,9,0,0,0,.7,1.49c.65,1.1,1.43,1.76,2.28,1.76S21,63,21.63,61.87a8.05,8.05,0,0,0,.68-1.44A18.79,18.79,0,0,0,23,57.82a37,37,0,0,0,.72-5.7,18.22,18.22,0,0,0-.46-4.82c-.82-3.87-2-4.54-3.94-4.54S16.22,43.43,15.4,47.3Z"/><path class="cls-161" d="M15.42,47.33A17.88,17.88,0,0,0,15,52.09a36.49,36.49,0,0,0,.71,5.66,18.27,18.27,0,0,0,.71,2.61,9.74,9.74,0,0,0,.69,1.48c.65,1.1,1.43,1.77,2.27,1.77s1.61-.67,2.26-1.77a8.65,8.65,0,0,0,.68-1.43A17.91,17.91,0,0,0,23,57.8a36.62,36.62,0,0,0,.72-5.67,18.2,18.2,0,0,0-.45-4.8c-.81-3.88-2-4.54-3.92-4.54S16.23,43.45,15.42,47.33Z"/><path class="cls-162" d="M15.44,47.37A17.64,17.64,0,0,0,15,52.1a38.68,38.68,0,0,0,.71,5.63,20.68,20.68,0,0,0,.71,2.6,8.87,8.87,0,0,0,.69,1.48c.64,1.09,1.41,1.76,2.25,1.76s1.59-.67,2.24-1.77a8.16,8.16,0,0,0,.68-1.42A21,21,0,0,0,23,57.79a37.45,37.45,0,0,0,.71-5.65,18,18,0,0,0-.44-4.77c-.8-3.9-2-4.56-3.9-4.56S16.24,43.47,15.44,47.37Z"/><path class="cls-163" d="M15.45,47.4A18.43,18.43,0,0,0,15,52.11a38.4,38.4,0,0,0,.71,5.61,19.25,19.25,0,0,0,.7,2.58,9.19,9.19,0,0,0,.68,1.47c.64,1.09,1.41,1.76,2.23,1.76s1.59-.67,2.24-1.76a8.16,8.16,0,0,0,.66-1.42A19.17,19.17,0,0,0,23,57.77a37.05,37.05,0,0,0,.71-5.62,18.4,18.4,0,0,0-.42-4.75c-.79-3.91-2-4.56-3.9-4.56S16.25,43.49,15.45,47.4Z"/><path class="cls-164" d="M15.47,47.43a18.4,18.4,0,0,0-.42,4.69,37.82,37.82,0,0,0,.7,5.58,20.69,20.69,0,0,0,.7,2.57,8.75,8.75,0,0,0,.68,1.47c.64,1.09,1.39,1.75,2.21,1.75s1.58-.67,2.22-1.76a8,8,0,0,0,.66-1.41,17.55,17.55,0,0,0,.7-2.56,36.82,36.82,0,0,0,.71-5.59,18.4,18.4,0,0,0-.41-4.74c-.78-3.92-1.95-4.57-3.88-4.57S16.26,43.51,15.47,47.43Z"/><path class="cls-165" d="M15.49,47.47a17.76,17.76,0,0,0-.41,4.66,36.42,36.42,0,0,0,.7,5.56,18.82,18.82,0,0,0,.69,2.55,8.28,8.28,0,0,0,.68,1.46c.63,1.09,1.38,1.75,2.19,1.75s1.57-.66,2.2-1.75a8.84,8.84,0,0,0,.66-1.41,20.31,20.31,0,0,0,.7-2.55,39.12,39.12,0,0,0,.71-5.56,19.08,19.08,0,0,0-.41-4.71c-.77-3.94-1.94-4.58-3.86-4.58S16.26,43.53,15.49,47.47Z"/><path class="cls-166" d="M15.5,47.5a18.58,18.58,0,0,0-.4,4.64,38.7,38.7,0,0,0,.7,5.53,19.06,19.06,0,0,0,.69,2.54,9.07,9.07,0,0,0,.67,1.46c.63,1.08,1.37,1.75,2.18,1.75s1.55-.67,2.18-1.76a8.32,8.32,0,0,0,.66-1.4,18.26,18.26,0,0,0,.69-2.54,37.15,37.15,0,0,0,.71-5.53,19,19,0,0,0-.4-4.69c-.76-4-1.93-4.59-3.84-4.59S16.27,43.55,15.5,47.5Z"/><path class="cls-167" d="M15.52,47.54a18.94,18.94,0,0,0-.39,4.62,38.14,38.14,0,0,0,.7,5.49,20.15,20.15,0,0,0,.68,2.53,8.94,8.94,0,0,0,.67,1.45c.62,1.09,1.36,1.75,2.16,1.75s1.54-.67,2.17-1.75a8.73,8.73,0,0,0,.64-1.4,18.31,18.31,0,0,0,.69-2.52,36.89,36.89,0,0,0,.71-5.51,18.8,18.8,0,0,0-.39-4.66c-.75-4-1.92-4.6-3.82-4.6S16.28,43.57,15.52,47.54Z"/><path class="cls-168" d="M15.54,47.57a18.87,18.87,0,0,0-.38,4.6,37.86,37.86,0,0,0,.69,5.47,20.93,20.93,0,0,0,.68,2.52,9.68,9.68,0,0,0,.66,1.44c.62,1.08,1.35,1.74,2.15,1.74s1.53-.66,2.15-1.75a8.89,8.89,0,0,0,.64-1.38,17.41,17.41,0,0,0,.68-2.52,36.49,36.49,0,0,0,.71-5.48,19.22,19.22,0,0,0-.38-4.64c-.74-4-1.9-4.61-3.8-4.61S16.29,43.59,15.54,47.57Z"/><path class="cls-169" d="M15.56,47.6a18.74,18.74,0,0,0-.38,4.58,37.45,37.45,0,0,0,.7,5.44,20.85,20.85,0,0,0,.67,2.51,9.1,9.1,0,0,0,.66,1.43c.61,1.08,1.34,1.74,2.13,1.74s1.51-.66,2.13-1.74a8.89,8.89,0,0,0,.64-1.38,20.55,20.55,0,0,0,.68-2.5,37.73,37.73,0,0,0,.7-5.46,19.14,19.14,0,0,0-.37-4.62c-.73-4-1.89-4.61-3.78-4.61S16.3,43.61,15.56,47.6Z"/><path class="cls-170" d="M15.57,47.64a19.14,19.14,0,0,0-.36,4.55,38.27,38.27,0,0,0,.69,5.41,20.16,20.16,0,0,0,.67,2.5,10.68,10.68,0,0,0,.65,1.43c.61,1.08,1.34,1.74,2.12,1.74s1.5-.67,2.12-1.74a10.51,10.51,0,0,0,.63-1.38,20.46,20.46,0,0,0,.67-2.49,37,37,0,0,0,.7-5.42,18.52,18.52,0,0,0-.36-4.6c-.72-4-1.88-4.63-3.76-4.63S16.3,43.64,15.57,47.64Z"/><path class="cls-171" d="M15.59,47.67a19.06,19.06,0,0,0-.35,4.53,36.77,36.77,0,0,0,.69,5.39,18.61,18.61,0,0,0,.67,2.48,9,9,0,0,0,.64,1.42c.6,1.08,1.32,1.74,2.1,1.74s1.49-.66,2.1-1.74a8.77,8.77,0,0,0,.62-1.37,16.86,16.86,0,0,0,.67-2.48,36.6,36.6,0,0,0,.7-5.39,18.94,18.94,0,0,0-.35-4.58c-.71-4-1.86-4.63-3.74-4.63S16.31,43.66,15.59,47.67Z"/><path class="cls-172" d="M15.61,47.7a19,19,0,0,0-.34,4.51A36.19,36.19,0,0,0,16,57.57,18.52,18.52,0,0,0,16.62,60a9,9,0,0,0,.63,1.42c.61,1.07,1.32,1.73,2.09,1.73s1.48-.66,2.08-1.73A7.93,7.93,0,0,0,22,60.09a19.88,19.88,0,0,0,.67-2.46,37.71,37.71,0,0,0,.69-5.37,19.43,19.43,0,0,0-.33-4.56c-.71-4-1.86-4.64-3.73-4.64S16.32,43.68,15.61,47.7Z"/><path class="cls-173" d="M15.63,47.74a19.24,19.24,0,0,0-.34,4.48A38.43,38.43,0,0,0,16,57.55,18.35,18.35,0,0,0,16.64,60a8.87,8.87,0,0,0,.63,1.41c.6,1.08,1.3,1.73,2.07,1.73s1.46-.66,2.06-1.73A7.49,7.49,0,0,0,22,60.06a17.78,17.78,0,0,0,.66-2.45,37.29,37.29,0,0,0,.69-5.34,19.81,19.81,0,0,0-.32-4.53c-.7-4-1.85-4.65-3.71-4.65S16.32,43.7,15.63,47.74Z"/><path class="cls-174" d="M15.64,47.77a19.78,19.78,0,0,0-.32,4.46A36.87,36.87,0,0,0,16,57.54,18.5,18.5,0,0,0,16.66,60a9.9,9.9,0,0,0,.62,1.41c.6,1.07,1.3,1.72,2.06,1.72s1.45-.65,2.05-1.72A9,9,0,0,0,22,60a20.2,20.2,0,0,0,.65-2.44,35.65,35.65,0,0,0,.69-5.32A19.72,19.72,0,0,0,23,47.77c-.68-4.05-1.84-4.66-3.69-4.66S16.33,43.72,15.64,47.77Z"/><path class="cls-175" d="M15.66,47.81a19,19,0,0,0-.31,4.44A36.5,36.5,0,0,0,16,57.52,19.52,19.52,0,0,0,16.68,60a9.75,9.75,0,0,0,.62,1.4c.59,1.07,1.28,1.73,2,1.73s1.45-.66,2-1.73A8.4,8.4,0,0,0,22,60a18.25,18.25,0,0,0,.66-2.43,36.42,36.42,0,0,0,.68-5.29,19.55,19.55,0,0,0-.3-4.48c-.67-4.07-1.82-4.67-3.68-4.67S16.34,43.74,15.66,47.81Z"/><path class="cls-176" d="M15.68,47.84a19,19,0,0,0-.3,4.42,36.23,36.23,0,0,0,.68,5.25,18.07,18.07,0,0,0,.64,2.41,8.29,8.29,0,0,0,.62,1.4c.58,1.07,1.27,1.72,2,1.72s1.43-.66,2-1.72A8.4,8.4,0,0,0,22,60a18.16,18.16,0,0,0,.65-2.42,37.48,37.48,0,0,0,.69-5.25,20.65,20.65,0,0,0-.3-4.47c-.66-4.08-1.81-4.68-3.66-4.68S16.34,43.76,15.68,47.84Z"/><path class="cls-177" d="M15.7,47.87a20,20,0,0,0-.3,4.4,38.58,38.58,0,0,0,.68,5.22,20.23,20.23,0,0,0,.64,2.41,8.91,8.91,0,0,0,.61,1.38c.58,1.07,1.26,1.72,2,1.72s1.42-.65,2-1.72A9.79,9.79,0,0,0,21.93,60a20,20,0,0,0,.64-2.4,37.39,37.39,0,0,0,.69-5.23A19.91,19.91,0,0,0,23,47.87c-.65-4.09-1.8-4.68-3.64-4.68S16.35,43.78,15.7,47.87Z"/><path class="cls-178" d="M15.71,47.91a20.49,20.49,0,0,0-.28,4.37,36.63,36.63,0,0,0,.68,5.19,18.39,18.39,0,0,0,.63,2.4,8.91,8.91,0,0,0,.61,1.38c.57,1.06,1.25,1.71,2,1.71s1.41-.65,2-1.71a9.79,9.79,0,0,0,.59-1.33,19.34,19.34,0,0,0,.64-2.39,38.08,38.08,0,0,0,.68-5.2A19.73,19.73,0,0,0,23,47.91c-.64-4.11-1.78-4.7-3.62-4.7S16.36,43.8,15.71,47.91Z"/><path class="cls-179" d="M15.73,47.94a19.82,19.82,0,0,0-.27,4.35,37.84,37.84,0,0,0,.67,5.17,22.43,22.43,0,0,0,.63,2.38,9.85,9.85,0,0,0,.6,1.37c.57,1.07,1.24,1.72,2,1.72s1.4-.66,2-1.72a8.16,8.16,0,0,0,.58-1.32,19.45,19.45,0,0,0,.64-2.37,38,38,0,0,0,.68-5.18,20.25,20.25,0,0,0-.27-4.4c-.63-4.12-1.77-4.7-3.6-4.7S16.36,43.82,15.73,47.94Z"/><path class="cls-180" d="M15.75,48a19.73,19.73,0,0,0-.26,4.33,35.92,35.92,0,0,0,.67,5.14,19.66,19.66,0,0,0,.62,2.37,8.79,8.79,0,0,0,.6,1.37c.57,1.06,1.23,1.71,1.95,1.71s1.38-.65,2-1.71a8.57,8.57,0,0,0,.58-1.32,17.3,17.3,0,0,0,.63-2.36,37.35,37.35,0,0,0,.68-5.15A20.16,20.16,0,0,0,22.91,48c-.61-4.13-1.76-4.71-3.58-4.71S16.37,43.84,15.75,48Z"/><path class="cls-181" d="M15.76,48a20.81,20.81,0,0,0-.25,4.3,38.56,38.56,0,0,0,.67,5.11,19.46,19.46,0,0,0,.62,2.36,9.23,9.23,0,0,0,.59,1.36c.57,1.06,1.23,1.71,1.94,1.71s1.37-.65,1.94-1.71a9.37,9.37,0,0,0,.57-1.3,21.37,21.37,0,0,0,.63-2.36,38.5,38.5,0,0,0,.67-5.12A20.62,20.62,0,0,0,22.89,48c-.6-4.15-1.75-4.72-3.56-4.72S16.38,43.86,15.76,48Z"/><path class="cls-182" d="M15.78,48a20.82,20.82,0,0,0-.24,4.29,36.54,36.54,0,0,0,.67,5.08,19.18,19.18,0,0,0,.61,2.34,10.27,10.27,0,0,0,.59,1.36c.56,1.06,1.21,1.7,1.92,1.7s1.36-.65,1.92-1.7a9.37,9.37,0,0,0,.57-1.3,19.08,19.08,0,0,0,.62-2.34,36.68,36.68,0,0,0,.67-5.09A21.35,21.35,0,0,0,22.88,48c-.6-4.16-1.74-4.73-3.55-4.73S16.38,43.88,15.78,48Z"/><path class="cls-183" d="M15.8,48.08a20.58,20.58,0,0,0-.23,4.26,37.66,37.66,0,0,0,.66,5,21.59,21.59,0,0,0,.61,2.33,11.82,11.82,0,0,0,.58,1.36c.56,1.05,1.21,1.69,1.91,1.69s1.35-.64,1.9-1.7a9.21,9.21,0,0,0,.57-1.29,19.48,19.48,0,0,0,.61-2.33,36.06,36.06,0,0,0,.67-5.06,21.11,21.11,0,0,0-.22-4.31c-.59-4.18-1.73-4.74-3.53-4.74S16.39,43.9,15.8,48.08Z"/><path class="cls-184" d="M15.82,48.11a20.44,20.44,0,0,0-.22,4.24,37.22,37.22,0,0,0,.66,5,19.29,19.29,0,0,0,.61,2.32A8.57,8.57,0,0,0,17.44,61c.55,1.05,1.19,1.7,1.89,1.7s1.33-.65,1.89-1.7a8.2,8.2,0,0,0,.55-1.29,19.51,19.51,0,0,0,.62-2.31,37.51,37.51,0,0,0,.66-5,21.06,21.06,0,0,0-.21-4.29c-.57-4.19-1.72-4.75-3.51-4.75S16.39,43.93,15.82,48.11Z"/><path class="cls-185" d="M15.83,48.14a21.11,21.11,0,0,0-.21,4.22,36.92,36.92,0,0,0,.66,5,19.61,19.61,0,0,0,.61,2.31A10.61,10.61,0,0,0,17.45,61c.55,1,1.19,1.69,1.88,1.69s1.32-.65,1.87-1.7a9.11,9.11,0,0,0,.55-1.28,18.91,18.91,0,0,0,.61-2.3,37.07,37.07,0,0,0,.66-5,21,21,0,0,0-.2-4.27c-.56-4.19-1.7-4.75-3.49-4.75S16.4,44,15.83,48.14Z"/><path class="cls-186" d="M15.85,48.18a20.87,20.87,0,0,0-.2,4.19,36.27,36.27,0,0,0,.66,5,17.73,17.73,0,0,0,.6,2.3A9.86,9.86,0,0,0,17.47,61c.54,1.05,1.17,1.69,1.86,1.69S20.64,62,21.18,61a9.64,9.64,0,0,0,.55-1.28,20.85,20.85,0,0,0,.6-2.29,37.81,37.81,0,0,0,.67-5,21.43,21.43,0,0,0-.2-4.24c-.55-4.21-1.69-4.77-3.47-4.77S16.4,44,15.85,48.18Z"/><path class="cls-187" d="M15.87,48.21a21.58,21.58,0,0,0-.19,4.17,37.82,37.82,0,0,0,.65,4.95,21.24,21.24,0,0,0,.6,2.28,9.86,9.86,0,0,0,.56,1.33c.53,1,1.16,1.68,1.83,1.68s1.3-.64,1.85-1.69a10.32,10.32,0,0,0,.54-1.27,18.53,18.53,0,0,0,.59-2.27,37.74,37.74,0,0,0,.67-5,22.12,22.12,0,0,0-.19-4.22c-.53-4.22-1.68-4.77-3.46-4.77S16.41,44,15.87,48.21Z"/><path class="cls-188" d="M15.89,48.24a21.48,21.48,0,0,0-.18,4.15,35.55,35.55,0,0,0,.65,4.92A19,19,0,0,0,17,59.58a9.73,9.73,0,0,0,.55,1.32c.53,1,1.15,1.69,1.82,1.69s1.29-.65,1.83-1.69a9.37,9.37,0,0,0,.53-1.26,21,21,0,0,0,.6-2.27,39.11,39.11,0,0,0,.66-4.92,22.08,22.08,0,0,0-.18-4.21c-.52-4.23-1.67-4.78-3.44-4.78S16.41,44,15.89,48.24Z"/><path class="cls-189" d="M15.9,48.28a22.12,22.12,0,0,0-.17,4.13,38.48,38.48,0,0,0,.65,4.88A20.93,20.93,0,0,0,17,59.55a10.3,10.3,0,0,0,.55,1.32c.53,1,1.14,1.68,1.8,1.68s1.28-.65,1.81-1.69a9.21,9.21,0,0,0,.53-1.25,18.34,18.34,0,0,0,.59-2.26,38.39,38.39,0,0,0,.66-4.89,21.87,21.87,0,0,0-.17-4.18c-.51-4.25-1.65-4.79-3.42-4.79S16.42,44,15.9,48.28Z"/><path class="cls-190" d="M15.92,48.31a22.06,22.06,0,0,0-.16,4.11,36.67,36.67,0,0,0,.65,4.86A19,19,0,0,0,17,59.52a9.6,9.6,0,0,0,.54,1.31c.53,1,1.13,1.68,1.79,1.68s1.27-.64,1.79-1.68a9.21,9.21,0,0,0,.53-1.25,19,19,0,0,0,.58-2.24,36.38,36.38,0,0,0,.66-4.87,22.57,22.57,0,0,0-.16-4.16c-.49-4.26-1.64-4.8-3.4-4.8S16.42,44.05,15.92,48.31Z"/><path class="cls-191" d="M15.94,48.35a21.8,21.8,0,0,0-.15,4.08,37.47,37.47,0,0,0,.64,4.83A21,21,0,0,0,17,59.49a9.6,9.6,0,0,0,.54,1.31c.52,1,1.12,1.67,1.77,1.67s1.25-.64,1.78-1.68a9.87,9.87,0,0,0,.52-1.24,21,21,0,0,0,.58-2.23,37.38,37.38,0,0,0,.65-4.84,23.31,23.31,0,0,0-.14-4.13c-.49-4.28-1.64-4.81-3.39-4.81S16.43,44.07,15.94,48.35Z"/><path class="cls-192" d="M16,48.38a21.77,21.77,0,0,0-.13,4.06,35.35,35.35,0,0,0,.64,4.8A20.31,20.31,0,0,0,17,59.46a9.47,9.47,0,0,0,.53,1.3c.52,1,1.12,1.67,1.76,1.67s1.24-.64,1.76-1.67a8.6,8.6,0,0,0,.51-1.24,18.47,18.47,0,0,0,.58-2.21,37.3,37.3,0,0,0,.65-4.82,22.32,22.32,0,0,0-.13-4.11c-.48-4.29-1.62-4.82-3.37-4.82S16.43,44.09,16,48.38Z"/><path class="cls-193" d="M16,48.41a23.47,23.47,0,0,0-.13,4,38.75,38.75,0,0,0,.64,4.78,21.35,21.35,0,0,0,.57,2.21,9.85,9.85,0,0,0,.53,1.29c.51,1,1.1,1.67,1.74,1.67s1.23-.64,1.74-1.68a9,9,0,0,0,.51-1.23,20.48,20.48,0,0,0,.57-2.2,36.84,36.84,0,0,0,.65-4.79,23.12,23.12,0,0,0-.12-4.09c-.46-4.3-1.61-4.82-3.35-4.82S16.44,44.11,16,48.41Z"/><path class="cls-194" d="M16,48.45a23.2,23.2,0,0,0-.12,4,38,38,0,0,0,.64,4.75,21.25,21.25,0,0,0,.56,2.2,10.6,10.6,0,0,0,.52,1.28c.51,1,1.1,1.67,1.73,1.67s1.22-.64,1.73-1.67a11,11,0,0,0,.5-1.22,20.48,20.48,0,0,0,.57-2.2,37.76,37.76,0,0,0,.64-4.75,22.94,22.94,0,0,0-.11-4.07c-.45-4.32-1.6-4.84-3.33-4.84S16.44,44.13,16,48.45Z"/><path class="cls-195" d="M16,48.48a22.12,22.12,0,0,0-.11,4,37.53,37.53,0,0,0,.63,4.72c.17.81.36,1.55.56,2.19a11.31,11.31,0,0,0,.52,1.28c.5,1,1.08,1.66,1.71,1.66s1.2-.64,1.71-1.67a12,12,0,0,0,.5-1.21,20.8,20.8,0,0,0,.56-2.18,37.68,37.68,0,0,0,.64-4.73,22.85,22.85,0,0,0-.1-4.05c-.43-4.33-1.59-4.84-3.31-4.84S16.45,44.15,16,48.48Z"/><path class="cls-196" d="M16,48.51a23.13,23.13,0,0,0-.09,4,35.55,35.55,0,0,0,.63,4.69,21.36,21.36,0,0,0,.55,2.17,10.47,10.47,0,0,0,.51,1.27c.5,1,1.08,1.66,1.7,1.66s1.19-.63,1.69-1.66a9.22,9.22,0,0,0,.49-1.21,17.89,17.89,0,0,0,.56-2.17,37.21,37.21,0,0,0,.64-4.7,23.73,23.73,0,0,0-.09-4c-.42-4.34-1.57-4.85-3.29-4.85S16.45,44.17,16,48.51Z"/><path class="cls-197" d="M16,48.55a23.82,23.82,0,0,0-.09,4,38.47,38.47,0,0,0,.63,4.66,20.35,20.35,0,0,0,.56,2.16,9.61,9.61,0,0,0,.5,1.27c.49,1,1.06,1.66,1.68,1.66s1.18-.64,1.67-1.67a8.53,8.53,0,0,0,.49-1.2A20.78,20.78,0,0,0,22,57.23a38.79,38.79,0,0,0,.64-4.68,24.44,24.44,0,0,0-.09-4c-.41-4.35-1.56-4.86-3.27-4.86S16.45,44.2,16,48.55Z"/><path class="cls-198" d="M16.06,48.58A23.69,23.69,0,0,0,16,52.51a36.51,36.51,0,0,0,.63,4.64,18.41,18.41,0,0,0,.55,2.14,9.45,9.45,0,0,0,.5,1.26c.49,1,1.05,1.66,1.66,1.66s1.16-.64,1.66-1.66a10,10,0,0,0,.48-1.2A20,20,0,0,0,22,57.21a38,38,0,0,0,.64-4.65,24.34,24.34,0,0,0-.08-4c-.39-4.36-1.55-4.87-3.25-4.87S16.46,44.22,16.06,48.58Z"/><path class="cls-199" d="M16.08,48.62a23.44,23.44,0,0,0-.07,3.9,37.91,37.91,0,0,0,.62,4.61,19.82,19.82,0,0,0,.55,2.13,11.09,11.09,0,0,0,.49,1.26c.49,1,1,1.65,1.64,1.65s1.16-.63,1.65-1.65a10.7,10.7,0,0,0,.48-1.2A19.94,19.94,0,0,0,22,57.19a37.26,37.26,0,0,0,.64-4.62,24.05,24.05,0,0,0-.07-4c-.38-4.38-1.53-4.88-3.24-4.88S16.46,44.24,16.08,48.62Z"/><path class="cls-200" d="M16.09,48.65A24.54,24.54,0,0,0,16,52.53a37.16,37.16,0,0,0,.62,4.58,20.35,20.35,0,0,0,.54,2.12,8.82,8.82,0,0,0,.49,1.25c.48,1,1,1.65,1.62,1.65s1.15-.63,1.63-1.65a8.43,8.43,0,0,0,.47-1.19c.2-.62.38-1.33.55-2.11a39.34,39.34,0,0,0,.63-4.59,24,24,0,0,0-.06-3.94c-.36-4.39-1.52-4.89-3.22-4.89S16.46,44.26,16.09,48.65Z"/><path class="cls-201" d="M16.11,48.68a25.55,25.55,0,0,0-.05,3.86,38.83,38.83,0,0,0,.62,4.56,20.56,20.56,0,0,0,.54,2.1,11,11,0,0,0,.48,1.25c.48,1,1,1.64,1.61,1.64s1.14-.63,1.62-1.64a11.2,11.2,0,0,0,.46-1.18,20.13,20.13,0,0,0,.54-2.11,38.82,38.82,0,0,0,.63-4.56,25.17,25.17,0,0,0,0-3.92c-.36-4.4-1.52-4.89-3.21-4.89S16.47,44.28,16.11,48.68Z"/><path class="cls-202" d="M16.13,48.72a24,24,0,0,0,0,3.83,36.09,36.09,0,0,0,.62,4.53,20.68,20.68,0,0,0,.53,2.1,10.55,10.55,0,0,0,.48,1.23c.47,1,1,1.65,1.59,1.65s1.12-.63,1.6-1.65a11,11,0,0,0,.46-1.17,20.46,20.46,0,0,0,.53-2.09,36.24,36.24,0,0,0,.63-4.54,26.16,26.16,0,0,0,0-3.89c-.34-4.42-1.51-4.91-3.19-4.91S16.47,44.3,16.13,48.72Z"/><path class="cls-203" d="M16.15,48.75a23.88,23.88,0,0,0,0,3.81,37.54,37.54,0,0,0,.61,4.5c.16.77.34,1.47.53,2.09a12.81,12.81,0,0,0,.47,1.23c.47,1,1,1.64,1.58,1.64s1.11-.63,1.58-1.64a11,11,0,0,0,.46-1.17,19.71,19.71,0,0,0,.52-2.08,35.75,35.75,0,0,0,.63-4.51,26,26,0,0,0,0-3.87c-.32-4.43-1.49-4.91-3.17-4.91S16.47,44.32,16.15,48.75Z"/><path class="cls-204" d="M16.16,48.78a26.46,26.46,0,0,0,0,3.8,39.76,39.76,0,0,0,.62,4.47,20.12,20.12,0,0,0,.52,2.07,9.44,9.44,0,0,0,.47,1.22c.46,1,1,1.64,1.56,1.64s1.1-.63,1.56-1.64a10.07,10.07,0,0,0,.45-1.16,20,20,0,0,0,.53-2.07,37.19,37.19,0,0,0,.62-4.48,25.86,25.86,0,0,0,0-3.85c-.31-4.44-1.48-4.92-3.15-4.92S16.47,44.34,16.16,48.78Z"/><path class="cls-205" d="M16.18,48.82a27.69,27.69,0,0,0,0,3.77A36.52,36.52,0,0,0,16.79,57a20,20,0,0,0,.51,2.06,11.22,11.22,0,0,0,.46,1.22c.46,1,1,1.63,1.55,1.63s1.09-.62,1.55-1.63c.15-.35.3-.73.44-1.16a19.68,19.68,0,0,0,.52-2,35,35,0,0,0,.62-4.46,27,27,0,0,0,0-3.82c-.29-4.46-1.47-4.93-3.13-4.93S16.48,44.36,16.18,48.82Z"/><path class="cls-206" d="M16.2,48.85a26,26,0,0,0,0,3.75A36,36,0,0,0,16.81,57a20.46,20.46,0,0,0,.51,2.05,10.28,10.28,0,0,0,.46,1.21c.45,1,1,1.64,1.53,1.64s1.07-.63,1.53-1.64a12.16,12.16,0,0,0,.44-1.15,19.57,19.57,0,0,0,.51-2,34.34,34.34,0,0,0,.62-4.42,26.94,26.94,0,0,0,0-3.81c-.28-4.46-1.45-4.94-3.11-4.94S16.48,44.39,16.2,48.85Z"/><path class="cls-207" d="M16.21,48.89a27.32,27.32,0,0,0,0,3.72A36,36,0,0,0,16.84,57c.15.74.32,1.43.5,2,.14.45.3.85.45,1.21.45,1,1,1.63,1.52,1.63s1.06-.63,1.51-1.63a10.48,10.48,0,0,0,.44-1.14c.18-.61.36-1.29.51-2a35.87,35.87,0,0,0,.61-4.4,25.22,25.22,0,0,0,0-3.78c-.26-4.48-1.44-5-3.09-5S16.48,44.41,16.21,48.89Z"/><path class="cls-208" d="M16.23,48.92a28.72,28.72,0,0,0,0,3.7A39.46,39.46,0,0,0,16.86,57c.15.74.32,1.42.5,2a11.07,11.07,0,0,0,.45,1.21c.45,1,1,1.62,1.5,1.62s1.05-.62,1.5-1.63a10.38,10.38,0,0,0,.42-1.13,19.78,19.78,0,0,0,.51-2,37.37,37.37,0,0,0,.62-4.37,27.91,27.91,0,0,0,0-3.76c-.24-4.49-1.43-5-3.07-5S16.48,44.43,16.23,48.92Z"/><path class="cls-209" d="M16.25,49a26.83,26.83,0,0,0,0,3.68A37.17,37.17,0,0,0,16.89,57a19.56,19.56,0,0,0,.49,2,10.15,10.15,0,0,0,.45,1.2c.44,1,.94,1.62,1.48,1.62s1-.62,1.48-1.62A10.38,10.38,0,0,0,21.21,59c.18-.6.35-1.27.5-2a36.86,36.86,0,0,0,.62-4.34,27.72,27.72,0,0,0,0-3.74c-.23-4.5-1.42-5-3.05-5S16.49,44.45,16.25,49Z"/><path class="cls-210" d="M16.27,49a26.5,26.5,0,0,0,0,3.65,38.57,38.57,0,0,0,.6,4.31,20.12,20.12,0,0,0,.5,2,11.59,11.59,0,0,0,.43,1.19c.44,1,.93,1.61,1.47,1.61s1-.62,1.46-1.62A10.18,10.18,0,0,0,21.19,59c.18-.59.35-1.26.5-2a38.73,38.73,0,0,0,.61-4.32A29.25,29.25,0,0,0,22.35,49c-.22-4.52-1.41-5-3-5S16.49,44.47,16.27,49Z"/><path class="cls-211" d="M16.28,49a28.25,28.25,0,0,0,.06,3.64,37.85,37.85,0,0,0,.6,4.27c.14.72.31,1.39.49,2a11.37,11.37,0,0,0,.43,1.18c.43,1,.92,1.62,1.45,1.62s1-.62,1.45-1.62c.14-.33.28-.71.41-1.12.18-.59.34-1.26.49-2a40.27,40.27,0,0,0,.61-4.29A29,29,0,0,0,22.33,49c-.21-4.53-1.4-5-3-5S16.49,44.49,16.28,49Z"/><path class="cls-212" d="M16.3,49.05a32,32,0,0,0,.06,3.62,40.26,40.26,0,0,0,.6,4.25c.15.71.31,1.38.49,2a11.44,11.44,0,0,0,.42,1.18c.43,1,.91,1.61,1.43,1.61s1-.62,1.44-1.62a10.09,10.09,0,0,0,.4-1.11,19.32,19.32,0,0,0,.49-2,40.43,40.43,0,0,0,.61-4.26,31,31,0,0,0,.07-3.68c-.19-4.54-1.39-5-3-5S16.49,44.51,16.3,49.05Z"/><path class="cls-213" d="M16.32,49.09a29.5,29.5,0,0,0,.07,3.59A37.27,37.27,0,0,0,17,56.9a20.12,20.12,0,0,0,.48,2A11.22,11.22,0,0,0,17.89,60c.42,1,.9,1.61,1.41,1.61s1-.62,1.42-1.61a10.09,10.09,0,0,0,.4-1.11c.18-.58.34-1.24.49-2a39.51,39.51,0,0,0,.6-4.23,30.61,30.61,0,0,0,.08-3.65c-.17-4.56-1.37-5-3-5S16.49,44.53,16.32,49.09Z"/><path class="cls-214" d="M16.34,49.12a29.23,29.23,0,0,0,.08,3.57A38.78,38.78,0,0,0,17,56.88a19.2,19.2,0,0,0,.48,1.95c.13.43.27.82.41,1.17.42,1,.9,1.6,1.4,1.6s1-.61,1.4-1.61c.14-.32.27-.69.4-1.09.17-.58.34-1.24.48-1.95a38.94,38.94,0,0,0,.6-4.2,30.33,30.33,0,0,0,.09-3.63c-.15-4.56-1.36-5-3-5S16.49,44.56,16.34,49.12Z"/><path class="cls-215" d="M16.35,49.16a31.16,31.16,0,0,0,.1,3.54A36.09,36.09,0,0,0,17,56.87c.14.7.3,1.35.47,1.93A10.31,10.31,0,0,0,17.92,60c.41,1,.88,1.61,1.38,1.61s1-.62,1.39-1.61c.13-.33.26-.69.39-1.09.17-.58.33-1.23.47-1.93a38.21,38.21,0,0,0,.6-4.18,32.2,32.2,0,0,0,.1-3.6c-.14-4.58-1.35-5-2.95-5S16.49,44.58,16.35,49.16Z"/><path class="cls-216" d="M16.37,49.19a30.75,30.75,0,0,0,.1,3.52,40.44,40.44,0,0,0,.59,4.14c.14.7.3,1.35.47,1.92s.26.81.4,1.16c.41,1,.88,1.6,1.37,1.6s1-.62,1.37-1.61c.13-.32.26-.68.38-1.08.18-.58.33-1.22.48-1.92a37.68,37.68,0,0,0,.59-4.15,29.71,29.71,0,0,0,.11-3.58c-.12-4.59-1.34-5-2.93-5S16.49,44.6,16.37,49.19Z"/><path class="cls-217" d="M16.39,49.22a30.42,30.42,0,0,0,.11,3.5,39.45,39.45,0,0,0,.59,4.11c.14.69.29,1.34.46,1.91s.26.81.4,1.15c.4,1,.86,1.6,1.35,1.6s.95-.61,1.35-1.6c.13-.32.26-.68.38-1.08.17-.57.33-1.21.47-1.9a37.66,37.66,0,0,0,.59-4.13,29.38,29.38,0,0,0,.12-3.56c-.1-4.6-1.32-5-2.91-5S16.49,44.62,16.39,49.22Z"/><path class="cls-218" d="M16.41,49.26a30.28,30.28,0,0,0,.12,3.48,39.67,39.67,0,0,0,.58,4.08c.14.68.29,1.32.46,1.89s.26.81.39,1.15c.41,1,.86,1.59,1.34,1.59s.93-.61,1.34-1.6c.13-.32.25-.68.37-1.07.17-.57.32-1.21.46-1.89a36.92,36.92,0,0,0,.59-4.09,31.44,31.44,0,0,0,.13-3.54c-.08-4.62-1.31-5-2.89-5S16.49,44.64,16.41,49.26Z"/><path class="cls-219" d="M16.42,49.29c0,1.05,0,2.23.14,3.46a36.55,36.55,0,0,0,.58,4c.13.68.29,1.32.45,1.89A11.4,11.4,0,0,0,18,59.82c.39,1,.84,1.59,1.32,1.59s.92-.61,1.32-1.59c.13-.32.25-.68.37-1.07.16-.56.32-1.2.46-1.88.25-1.26.46-2.68.59-4.06a33.52,33.52,0,0,0,.13-3.52c-.07-4.63-1.3-5-2.87-5S16.49,44.66,16.42,49.29Z"/><path class="cls-220" d="M16.44,49.32c0,1,0,2.23.14,3.44a40.47,40.47,0,0,0,.58,4c.14.68.29,1.31.45,1.88A11.4,11.4,0,0,0,18,59.79c.39,1,.83,1.59,1.3,1.59s.91-.61,1.3-1.6A9.34,9.34,0,0,0,21,58.72c.17-.56.32-1.19.46-1.86.25-1.26.46-2.67.59-4s.16-2.43.15-3.5c-.06-4.63-1.29-5.06-2.86-5.06S16.49,44.69,16.44,49.32Z"/><path class="cls-221" d="M16.46,49.36c0,1,0,2.21.15,3.41.13,1.36.33,2.75.58,4,.13.67.28,1.3.44,1.86.12.41.25.79.38,1.12.39,1,.82,1.59,1.29,1.59s.9-.61,1.28-1.59a10.7,10.7,0,0,0,.36-1c.16-.56.32-1.19.45-1.86a37.5,37.5,0,0,0,.59-4c.11-1.22.17-2.41.16-3.47,0-4.65-1.28-5.07-2.84-5.07S16.49,44.71,16.46,49.36Z"/><path class="cls-222" d="M16.47,49.39c0,1,.06,2.2.17,3.39a39.9,39.9,0,0,0,.57,4c.14.67.28,1.29.44,1.85.12.41.25.78.38,1.12.38,1,.81,1.58,1.27,1.58s.89-.61,1.27-1.59c.12-.31.24-.66.35-1,.16-.56.31-1.18.44-1.84a37.49,37.49,0,0,0,.59-4c.11-1.21.17-2.39.17-3.45,0-4.66-1.27-5.08-2.82-5.08S16.49,44.73,16.47,49.39Z"/><path class="cls-223" d="M16.49,49.43c0,4.67,1.26,11.83,2.81,11.83s2.8-7.16,2.8-11.83-1.26-5.09-2.8-5.09S16.49,44.75,16.49,49.43Z"/><path class="cls-224" d="M6.05,36.38c0-.33.08-.88.21-1.59a15.55,15.55,0,0,1,.34-1.56c.12-.43.3-1,.44-1.41a14.22,14.22,0,0,1,.52-1.33c.1-.22.34-.75.54-1.11.08-.15.18-.34.27-.48.38-.61.38-.61.57-.88.34-.46.58-.73.58-.73s.2-.23.3-.32a7.31,7.31,0,0,1,.61-.57c.18-.15.44-.34.63-.48l.35-.23.36-.21.7-.35a7.07,7.07,0,0,1,1.17-.42,4.42,4.42,0,0,1,.5-.1c.19,0,.45,0,.64,0a2.34,2.34,0,0,1,.75.16,2.38,2.38,0,0,1,.41.23c.07,0,.14.13.21.18-.59-.6-1.66-.43-2.94.15-2.59,1.16-5.09,3.56-6.46,8.64-1.06,3.91-.56,8,.45,9.37A3,3,0,0,1,7,43.05a2.9,2.9,0,0,1-.19-.34,5.59,5.59,0,0,1-.36-.94A11.25,11.25,0,0,1,6,39.33C6,39,6,38.55,6,37.91S6,36.54,6.05,36.38Z"/><path class="cls-224" d="M6.75,33.93c1.37-5.08,3.87-7.48,6.46-8.64,1.28-.58,2.35-.75,2.94-.15l.29.31c-.58-.6-1.65-.43-2.93.14-2.6,1.17-5.09,3.56-6.46,8.65-1.11,4.1-.51,8.4.6,9.55l-.3-.31C6.24,42.33,5.64,38,6.75,33.93Z"/><path class="cls-225" d="M7.05,34.24c1.37-5.09,3.86-7.48,6.46-8.65,1.28-.57,2.35-.74,2.93-.14a3,3,0,0,1,.3.4,1.51,1.51,0,0,1,.13.29,2.54,2.54,0,0,1,.14.47,4.13,4.13,0,0,1,.07.49c0,.13,0,.31,0,.44a5.12,5.12,0,0,1,0,.56,11.5,11.5,0,0,1-.15,1.16,20.69,20.69,0,0,1-.66,2.51c-.22.63-.32.92-.63,1.7s-.52,1.22-.77,1.76c-.55,1.21-1.39,2.79-1.77,3.46-.58,1-.58,1-.91,1.58s-.66,1.09-.86,1.4l-.42.63c-.18.27-.44.63-.63.89a8,8,0,0,1-.51.63,1.78,1.78,0,0,1-.53.37,1,1,0,0,1-.23.07,1.84,1.84,0,0,1-.33,0,1.61,1.61,0,0,1-.37-.07,1.47,1.47,0,0,1-.22-.1,2.34,2.34,0,0,1-.43-.33C6.54,42.64,5.94,38.34,7.05,34.24Z"/><path class="cls-226" d="M13.51,25.59c1.28-.57,2.35-.74,2.93-.14a3,3,0,0,1,.3.4,1.51,1.51,0,0,1,.13.29,2.54,2.54,0,0,1,.14.47,4.13,4.13,0,0,1,.07.49c0,.13,0,.31,0,.44a5.12,5.12,0,0,1,0,.56c0,.06,0,.12,0,.18a10.57,10.57,0,0,0-5.55,8.65,16.77,16.77,0,0,0,.15,4.19l-.34.55-.42.63-.54.77c-.16-.24-.32-.48-.44-.7A13.38,13.38,0,0,1,9,40.47a16.29,16.29,0,0,1-.64-1.9c-.07-.25-.15-.59-.2-.84s-.15-.74-.21-1-.15-1-.21-1.88c0-.3,0-.7,0-1s0-.59,0-.84,0-.66.07-.93A11,11,0,0,1,13.51,25.59Z"/><path class="cls-227" d="M8,31.46a9.42,9.42,0,0,1,.13-1.15,6.58,6.58,0,0,1,.23-.93c0-.12.09-.29.14-.4a3.17,3.17,0,0,1,.17-.37,3.84,3.84,0,0,1,.18-.35l.44-.66.27-.32c.09-.1.21-.23.31-.32s.47-.45.68-.63L11,26l.88-.63.49-.32,1-.62c.88-.5,1.39-.74,1.69-.89.62-.3,1.2-.51,1.2-.51.29-.11.69-.23,1-.31s.42-.09.59-.13a9.31,9.31,0,0,1,1.06-.14,8.15,8.15,0,0,1,2.38.19,9.76,9.76,0,0,1,1.2.36c.32.13.71.33,1,.5l.13.06,1.44.84c-1.31-.76-3.4.1-5.77,1.47-3.94,2.27-7.13,5.08-7.11,10.71,0,4,1.64,8.36,4,9.72l-1.43-.83a4.62,4.62,0,0,1-.85-.64,4.62,4.62,0,0,0,.85.64c-.26-.15-.6-.37-.84-.54s-.43-.32-.62-.47a12.69,12.69,0,0,1-1.13-1,13.8,13.8,0,0,1-1-1.26A14.82,14.82,0,0,1,10,40.35a15.78,15.78,0,0,1-.81-1.82c-.1-.25-.21-.58-.29-.82s-.22-.72-.3-1a18.19,18.19,0,0,1-.39-1.85c-.05-.3-.1-.7-.13-1S8,33.25,8,33A11,11,0,0,1,8,31.46Z"/><path class="cls-228" d="M19.29,25.88c2.37-1.37,4.46-2.23,5.77-1.47l.79.52c.19.13.41.33.58.47a8.39,8.39,0,0,1,.94,1A8,8,0,0,1,28.76,29a5.72,5.72,0,0,1,.17.59c.06.3.13.71.17,1A13.21,13.21,0,0,1,29.19,32a16.44,16.44,0,0,1-.1,1.74c0,.27-.06.62-.1.89-.18,1.23-.2,1.31-.31,1.83-.05.28-.13.65-.2.93-.13.54-.31,1.27-.46,1.8-.25.88-.54,1.75-.84,2.57-.45,1.19-.86,2-.93,2.16a10.26,10.26,0,0,1-1,1.67,5.06,5.06,0,0,1-.67.72,3,3,0,0,1-.4.31,7.41,7.41,0,0,1-.67.4,5.48,5.48,0,0,1-1.05.38,6.26,6.26,0,0,1-1.24.19,8.59,8.59,0,0,1-1.34,0,10,10,0,0,1-1.41-.28c-.24-.07-.55-.18-.78-.26L17,46.77c-.27-.12-.61-.32-.87-.46-2.35-1.36-4-5.71-4-9.72C12.16,31,15.35,28.15,19.29,25.88Z"/><path class="cls-226" d="M27.39,31.62a4,4,0,0,1,1.78-.14c0,.26,0,.47,0,.56a16.44,16.44,0,0,1-.1,1.74c0,.27-.06.62-.1.89-.18,1.23-.2,1.31-.31,1.83-.05.28-.13.65-.2.93-.13.54-.31,1.27-.46,1.8-.25.88-.54,1.75-.84,2.57-.45,1.19-.86,2-.93,2.16a10.26,10.26,0,0,1-1,1.67,5.06,5.06,0,0,1-.67.72l-.13.11a31.83,31.83,0,0,1-.84-4.29C22.8,35,24.72,32.38,27.39,31.62Z"/><g class="cls-2"><g class="cls-1"><path class="cls-229" d="M14.43,23c-2.33,1.35-2.34,3.52,0,4.86a9.2,9.2,0,0,0,8.39,0c2.33-1.34,2.34-3.51,0-4.86A9.26,9.26,0,0,0,14.43,23Z"/></g></g><path class="cls-228" d="M27.77,31.29l.21,0Z"/><path class="cls-228" d="M33.71,51.9l.24,0Z"/><path class="cls-224" d="M24.36,35.21c0-.13,0-.32.06-.45a7.73,7.73,0,0,1,.19-.8,4.22,4.22,0,0,1,.32-.71c.12-.18.28-.41.41-.58a3.31,3.31,0,0,1,.26-.27l.27-.24c.17-.12.39-.28.57-.39s.39-.2.56-.27l.31-.11.35-.08.11,0a3.35,3.35,0,0,0-1.22.45c-2,1.15-3,3.66-.9,9.22,1.9,5,6.34,10.51,8.06,10.94l-.2,0a2,2,0,0,1-.33-.15,5.25,5.25,0,0,1-.77-.53,11,11,0,0,1-.88-.81c-.15-.15-.34-.35-.48-.51l-.5-.55-.5-.62c-.32-.4-.73-.94-1-1.35-.16-.22-.36-.52-.51-.74-.35-.51-.78-1.21-1-1.55,0,0-.46-.77-.91-1.64-.15-.3-.44-.86-.79-1.66s-.5-1.28-.62-1.64c-.23-.68-.37-1.19-.44-1.46s-.18-.72-.28-1.3c0-.18-.06-.41-.08-.59a4.89,4.89,0,0,1,0-.55A7.05,7.05,0,0,1,24.36,35.21Z"/><path class="cls-224" d="M26.55,31.74A3.22,3.22,0,0,1,28,31.27l.25,0a3.31,3.31,0,0,0-1.44.47c-2,1.15-3,3.67-.9,9.23,2,5.3,6.8,11.06,8.31,11l-.25,0c-1.5.09-6.3-5.67-8.3-11C23.55,35.4,24.56,32.89,26.55,31.74Z"/><path class="cls-228" d="M26.79,31.72a3.31,3.31,0,0,1,1.44-.47h.44a2.09,2.09,0,0,1,.36.07,2.15,2.15,0,0,1,.36.11l.32.15a2.5,2.5,0,0,1,.35.21,4.11,4.11,0,0,1,.65.55,6.55,6.55,0,0,1,.64.76,7.82,7.82,0,0,1,.64,1c.21.36.45.86.63,1.23s.44,1,.63,1.51.27.77.38,1.11.2.63.27.9l.24.93c.07.28.16.66.22.94.12.58.27,1.35.36,1.93.14.86.24,1.68.27,1.9,0,.5.13,1.26.16,1.81,0,.25,0,.59.05.85s0,.56,0,.8,0,.52,0,.74c0,.66,0,1.12-.06,1.28A7.29,7.29,0,0,1,35,51c0,.1-.08.24-.13.34a1.42,1.42,0,0,1-.21.33.61.61,0,0,1-.15.13,1.11,1.11,0,0,1-.3.08c-1.51.1-6.3-5.66-8.31-11C23.79,35.39,24.81,32.87,26.79,31.72Z"/><path class="cls-230" d="M1.52,3.51A1.84,1.84,0,0,1,1.62,3a1.36,1.36,0,0,1,.1-.21l.05-.06a1.3,1.3,0,0,1,.3-.23l.24-.12a2.46,2.46,0,0,1,.38-.14l.59-.13L3.77,2l.49,0h.83c.17,0,.4,0,.57,0l.45,0s.5.06,1.2.23a10.31,10.31,0,0,1,1.08.31,6.36,6.36,0,0,1,.86.33c.15.06.33.15.49.23h0l.11.05.13.07.24.14.15.08C7.85,2,4.11,1.78,2.67,2.61a1.35,1.35,0,0,0-.45.4c-1,1.43.84,7.27,3.55,9.57a6.7,6.7,0,0,0,1,.69l-.14-.09c-.28-.16-.46-.29-.52-.33s-.35-.26-.54-.43A7.27,7.27,0,0,1,5,11.88a5.24,5.24,0,0,1-.44-.5c-.19-.24-.43-.57-.61-.83s-.27-.42-.38-.61a17.55,17.55,0,0,1-.89-1.76c-.14-.32-.31-.75-.42-1.08S2,6.51,1.86,6a13.3,13.3,0,0,1-.31-1.62A5.67,5.67,0,0,1,1.52,3.51Z"/><path class="cls-231" d="M5.77,12.58a6.7,6.7,0,0,0,1,.69l.22.12.32.15c.12.05.28.12.41.16l.31.09a3.53,3.53,0,0,0,1.19.1,3.26,3.26,0,0,0,1.12-.32,4.21,4.21,0,0,0,.94-.65,5.48,5.48,0,0,0,.47-.48c.1-.11.16-.19.27-.33s.26-.35.26-.35l.17-.24.21-.33.19-.33.33-.66.13-.33a5,5,0,0,0,.29-1.36,3.33,3.33,0,0,0,0-.7,3.27,3.27,0,0,0-.14-.74,4.75,4.75,0,0,0-.17-.49A5.6,5.6,0,0,0,13,6a6.61,6.61,0,0,0-.55-.79c-.13-.15-.31-.36-.46-.5a5.68,5.68,0,0,0-.51-.47,7.27,7.27,0,0,0-1.07-.76C7.85,2,4.11,1.78,2.67,2.61a1.35,1.35,0,0,0-.45.4C1.27,4.44,3.06,10.28,5.77,12.58Zm-2.7-9a.61.61,0,0,1,.18-.13C4.71,2.58,9.22,3,11.58,5c2.54,2.2,2.11,4.4.77,6.42a5.61,5.61,0,0,1-1.72,1.77c-1,.61-2.34.55-4-.81C4,10.16,2.41,4.47,3.07,3.57Z"/><path class="cls-232" d="M3.25,3.44a.61.61,0,0,0-.18.13c-.66.9,1,6.59,3.61,8.84,1.61,1.36,2.91,1.42,4,.81a5.61,5.61,0,0,0,1.72-1.77c1.34-2,1.77-4.22-.77-6.42C9.22,3,4.71,2.58,3.25,3.44Z"/><path class="cls-226" d="M3.91,10.55l0,0a13.5,13.5,0,0,1,.48-1.32,11,11,0,0,1,.76-1.44A11.53,11.53,0,0,1,6.59,5.84,13.19,13.19,0,0,1,8,4.54c.25-.2.59-.46.86-.64s.55-.35.78-.5a1.75,1.75,0,0,1,.27-.16l.1,0,.24.14.15.08a7.27,7.27,0,0,1,1.07.76,5.68,5.68,0,0,1,.51.47c.15.14.33.35.46.5A6.61,6.61,0,0,1,13,6a5.6,5.6,0,0,1,.27.55,4.75,4.75,0,0,1,.17.49,3.27,3.27,0,0,1,.14.74,3.33,3.33,0,0,1,0,.7,5,5,0,0,1-.29,1.36l-.13.33-.33.66-.19.33-.21.33-.17.24s-.13.19-.26.35-.17.22-.27.33a5.48,5.48,0,0,1-.47.48,4.21,4.21,0,0,1-.94.65,3.26,3.26,0,0,1-1.12.32A3.53,3.53,0,0,1,8,13.79l-.31-.09c-.13,0-.29-.11-.41-.16L7,13.39l-.22-.12-.14-.09c-.28-.16-.46-.29-.52-.33s-.35-.26-.54-.43A7.27,7.27,0,0,1,5,11.88a5.24,5.24,0,0,1-.44-.5C4.33,11.14,4.09,10.81,3.91,10.55Z"/><path class="cls-228" d="M3.84,13.48a12.68,12.68,0,0,1,.33-1.94,12.52,12.52,0,0,1,.59-1.69,9.9,9.9,0,0,1,.76-1.44A12.55,12.55,0,0,1,7,6.5a14.36,14.36,0,0,1,1.4-1.3c.25-.2.59-.45.85-.63s.55-.36.79-.51.66-.37,1-.52.56-.27.8-.37a14.72,14.72,0,0,1,1.67-.61c.23-.06.53-.16.76-.21l.75-.16c.22,0,.52-.1.75-.13L16.42,2c.43,0,1-.07,1.45-.08h.72l.72,0c.23,0,.52.05.74.08s.54.07.77.11.53.09.75.15.58.13.83.21c.47.15,1.09.36,1.55.53.29.11.67.29.95.42l.8.42c.31.18.73.44,1,.64s.53.38.76.55A10.28,10.28,0,0,1,28.55,6a13,13,0,0,1,1.07,1.16,18.65,18.65,0,0,1,1.09,1.59,11.2,11.2,0,0,1,1.12,2.66,11.6,11.6,0,0,1,.35,1.84c-.71.06-1.19.64-1.79,1.66-1,1.64-.84,4.47-.19,4.77a.9.9,0,0,0,.73-.11c0-.06-.25.46-.41.73a14.36,14.36,0,0,1-1.14,1.55,13.72,13.72,0,0,1-1,1,9.28,9.28,0,0,1-.82.71c-.45.34-1.06.77-1.54,1.06-.28.17-.66.37-1,.52s-.56.27-.8.37a9,9,0,0,1-.86.34c-.23.09-.54.19-.78.26a13.25,13.25,0,0,1-1.54.38,12.45,12.45,0,0,1-1.48.22l-.72.06-.73,0h-.72c-.49,0-1.17-.08-1.46-.11s-.94-.14-1.52-.27a15.33,15.33,0,0,1-1.6-.45c-.29-.09-.66-.24-.93-.35l-.8-.36c-.32-.15-.74-.38-1.05-.56C9.61,24.39,9,24,8.55,23.63a11.54,11.54,0,0,1-1.06-.91,14.67,14.67,0,0,1-1.07-1.17c-.36-.46-.79-1.1-1.1-1.59a15.45,15.45,0,0,1-.76-1.59c-.11-.27-.22-.65-.31-.93A10.16,10.16,0,0,1,4,16.35c-.06-.29-.11-.68-.14-1A13.25,13.25,0,0,1,3.84,13.48Z"/><path class="cls-233" d="M30.39,14.88c.52-.9,1-1.45,1.54-1.62v0c0,.09,0,.18,0,.26v0c0,.08,0,.17,0,.25v.28a11.8,11.8,0,0,1-.39,3.06A16.86,16.86,0,0,1,30.94,19a1.42,1.42,0,0,0-.08.18,1,1,0,0,0-.07.15l0,0-.1.19h0a.2.2,0,0,0,0,.08.63.63,0,0,1-.43,0C29.55,19.35,29.43,16.52,30.39,14.88Z"/><path class="cls-226" d="M15.12,14a2.32,2.32,0,0,1,0-.56,1.8,1.8,0,0,1,.06-.22l0-.07a1.25,1.25,0,0,1,.25-.29l.21-.17a2.39,2.39,0,0,1,.34-.21c.16-.09.38-.19.54-.26l.47-.17c.14,0,.33-.1.48-.13s.57-.13.81-.17l.56-.08.45-.05s.51,0,1.22,0c.14,0,.51,0,1.13.07.27,0,.64.08.91.14l.53.12h0l.12,0,.14,0,.27.08.16.05a8.37,8.37,0,0,1,1.21.51l.6.35c.17.11.39.28.56.4a6.26,6.26,0,0,1,.7.65c.12.14.27.33.38.49a3.23,3.23,0,0,1,.27.44,4.18,4.18,0,0,1,.3.68,6.62,6.62,0,0,1,.16.69,5,5,0,0,1,0,1.39c0,.11,0,.25-.05.35s-.12.51-.18.72-.08.25-.12.36l-.13.36-.12.28-.18.4a3.15,3.15,0,0,1-.19.37,5,5,0,0,1-.36.57,3.81,3.81,0,0,1-.78.84,3.34,3.34,0,0,1-.52.34,3.66,3.66,0,0,1-.51.21,3.59,3.59,0,0,1-1.18.16l-.32,0a3.35,3.35,0,0,1-.44-.07l-.34-.08-.24-.07-.15,0a5.5,5.5,0,0,1-.59-.22c-.07,0-.39-.18-.61-.3s-.48-.28-.68-.41-.38-.27-.53-.4-.55-.46-.77-.67-.36-.36-.51-.52a17.37,17.37,0,0,1-1.24-1.53c-.2-.29-.46-.67-.64-1s-.32-.53-.59-1a11.25,11.25,0,0,1-.65-1.52A4.36,4.36,0,0,1,15.12,14Z"/><path class="cls-230" d="M16.76,12.41a2.21,2.21,0,0,1,.09-.56,1.86,1.86,0,0,1,.1-.2l.05-.06a1,1,0,0,1,.31-.23l.23-.12a3.57,3.57,0,0,1,.38-.14l.59-.14L19,10.9l.5,0c.25,0,.58,0,.83,0a5.27,5.27,0,0,1,.56,0l.46.05a11.25,11.25,0,0,1,1.19.22c.14,0,.5.12,1.09.31.26.09.61.22.86.33l.49.23h0l.11,0,.13.07a2,2,0,0,1,.25.14l.14.08c-2.53-1.47-6.27-1.73-7.7-.9a1.25,1.25,0,0,0-.45.39c-.95,1.44.84,7.27,3.55,9.58a7.58,7.58,0,0,0,1,.69l-.14-.09a3.81,3.81,0,0,1-.53-.34,6.57,6.57,0,0,1-.54-.42c-.17-.15-.4-.37-.57-.54s-.31-.35-.44-.5-.43-.58-.6-.83-.28-.42-.39-.61a17.55,17.55,0,0,1-.89-1.76c-.13-.32-.3-.76-.42-1.08s-.19-.59-.35-1.15a11.4,11.4,0,0,1-.31-1.63A4.39,4.39,0,0,1,16.76,12.41Z"/><path class="cls-231" d="M21,21.48a7.58,7.58,0,0,0,1,.69l.22.12.31.15.41.16.32.09a3.76,3.76,0,0,0,1.18.1c.15,0,.39-.06.55-.1a3.61,3.61,0,0,0,.57-.22,4.1,4.1,0,0,0,.94-.65c.1-.09.28-.26.48-.48l.27-.33.26-.35c.05-.08.11-.16.16-.25a3.53,3.53,0,0,0,.21-.32c.06-.1.14-.23.19-.33s.24-.46.33-.66a2,2,0,0,0,.13-.34,4.58,4.58,0,0,0,.3-1.35,4.33,4.33,0,0,0,0-.71,3.86,3.86,0,0,0-.14-.73,4,4,0,0,0-.17-.49c-.08-.17-.19-.39-.28-.55a5.54,5.54,0,0,0-.54-.79l-.46-.51-.51-.47a8.45,8.45,0,0,0-1.08-.75c-2.53-1.47-6.27-1.73-7.7-.9a1.25,1.25,0,0,0-.45.39C16.51,13.34,18.3,19.17,21,21.48Zm-2.71-9a.86.86,0,0,1,.18-.13c1.47-.86,6-.42,8.34,1.59,2.54,2.2,2.1,4.4.76,6.41a5.35,5.35,0,0,1-1.72,1.78c-1,.6-2.33.54-3.94-.82C19.27,19.06,17.64,13.37,18.3,12.47Z"/><path class="cls-228" d="M18.48,12.34a.86.86,0,0,0-.18.13c-.66.9,1,6.59,3.62,8.83,1.61,1.36,2.91,1.42,3.94.82a5.35,5.35,0,0,0,1.72-1.78c1.34-2,1.78-4.21-.76-6.41C24.46,11.92,20,11.48,18.48,12.34Z"/></g></g></svg>