<svg xmlns="http://www.w3.org/2000/svg" viewBox="0 0 37.19 85.88"><defs><style>.cls-1{isolation:isolate;}.cls-2,.cls-226{mix-blend-mode:multiply;}.cls-3{fill:#e7e7e6;}.cls-4{fill:#bababa;}.cls-5{fill:#34759e;opacity:0;}.cls-6{fill:#35769e;opacity:0;}.cls-7{fill:#36769e;opacity:0.01;}.cls-8{fill:#37769e;opacity:0.01;}.cls-9{fill:#38779e;opacity:0.02;}.cls-10{fill:#39779f;opacity:0.02;}.cls-11{fill:#3a789f;opacity:0.03;}.cls-12{fill:#3b789f;opacity:0.03;}.cls-13{fill:#3b799f;opacity:0.04;}.cls-14{fill:#3c799f;opacity:0.04;}.cls-15{fill:#3d7a9f;opacity:0.05;}.cls-16{fill:#3e7aa0;opacity:0.05;}.cls-17{fill:#3f7aa0;opacity:0.06;}.cls-18{fill:#407ba0;opacity:0.06;}.cls-19{fill:#417ba0;opacity:0.06;}.cls-20{fill:#427ca0;opacity:0.07;}.cls-21{fill:#437ca0;opacity:0.07;}.cls-22{fill:#447da1;opacity:0.08;}.cls-23{fill:#457da1;opacity:0.08;}.cls-24{fill:#467ea1;opacity:0.09;}.cls-25{fill:#477ea1;opacity:0.09;}.cls-26{fill:#487fa1;opacity:0.1;}.cls-27{fill:#497fa2;opacity:0.1;}.cls-28{fill:#4a80a2;opacity:0.11;}.cls-29{fill:#4b80a2;opacity:0.11;}.cls-30{fill:#4c81a2;opacity:0.11;}.cls-31{fill:#4d81a2;opacity:0.12;}.cls-32{fill:#4d82a2;opacity:0.12;}.cls-33{fill:#4e82a3;opacity:0.13;}.cls-34{fill:#4f83a3;opacity:0.13;}.cls-35{fill:#5083a3;opacity:0.14;}.cls-36{fill:#5183a3;opacity:0.14;}.cls-37{fill:#5284a3;opacity:0.15;}.cls-38{fill:#5384a3;opacity:0.15;}.cls-39{fill:#5485a4;opacity:0.16;}.cls-40{fill:#5585a4;opacity:0.16;}.cls-41{fill:#5686a4;opacity:0.17;}.cls-42{fill:#5787a4;opacity:0.17;}.cls-43{fill:#5887a4;opacity:0.17;}.cls-44{fill:#5988a4;opacity:0.18;}.cls-45{fill:#5988a5;opacity:0.18;}.cls-46{fill:#5a89a5;opacity:0.19;}.cls-47{fill:#5b89a5;opacity:0.19;}.cls-48{fill:#5c8aa5;opacity:0.2;}.cls-49{fill:#5d8aa5;opacity:0.2;}.cls-50{fill:#5e8ba5;opacity:0.21;}.cls-51{fill:#5f8ba6;opacity:0.21;}.cls-52{fill:#608ca6;opacity:0.22;}.cls-53{fill:#618ca6;opacity:0.22;}.cls-54,.cls-55{fill:#628da6;}.cls-54{opacity:0.22;}.cls-55{opacity:0.23;}.cls-56{fill:#638ea6;opacity:0.23;}.cls-57{fill:#648ea7;opacity:0.24;}.cls-58{fill:#658fa7;opacity:0.24;}.cls-59{fill:#668fa7;opacity:0.25;}.cls-60{fill:#6790a7;opacity:0.25;}.cls-61{fill:#6890a7;opacity:0.26;}.cls-62{fill:#6991a7;opacity:0.26;}.cls-63{fill:#6a92a8;opacity:0.27;}.cls-64{fill:#6b92a8;opacity:0.27;}.cls-65{fill:#6c93a8;opacity:0.28;}.cls-66{fill:#6d93a8;opacity:0.28;}.cls-67{fill:#6d94a8;opacity:0.28;}.cls-68{fill:#6e94a8;opacity:0.29;}.cls-69{fill:#6f95a8;opacity:0.29;}.cls-70{fill:#7095a9;opacity:0.3;}.cls-71{fill:#7196a9;opacity:0.3;}.cls-72{fill:#7296a9;opacity:0.31;}.cls-73{fill:#7397a9;opacity:0.31;}.cls-74{fill:#7497a9;opacity:0.32;}.cls-75,.cls-76{fill:#7598a9;}.cls-75{opacity:0.32;}.cls-76{opacity:0.33;}.cls-77{fill:#7699aa;opacity:0.33;}.cls-78{fill:#779aaa;opacity:0.33;}.cls-79{fill:#789aaa;opacity:0.34;}.cls-80{fill:#799baa;opacity:0.34;}.cls-81{fill:#7a9baa;opacity:0.35;}.cls-82{fill:#7b9caa;opacity:0.35;}.cls-83{fill:#7c9caa;opacity:0.36;}.cls-84{fill:#7d9daa;opacity:0.36;}.cls-85{fill:#7e9dab;opacity:0.37;}.cls-86,.cls-87{fill:#7f9eab;}.cls-86{opacity:0.37;}.cls-87{opacity:0.38;}.cls-88{fill:#809fab;opacity:0.38;}.cls-89{fill:#81a0ab;opacity:0.39;}.cls-90{fill:#82a0ab;opacity:0.39;}.cls-91{fill:#83a1ab;opacity:0.39;}.cls-92{fill:#84a1ac;opacity:0.4;}.cls-93{fill:#85a2ac;opacity:0.4;}.cls-94{fill:#86a2ac;opacity:0.41;}.cls-95{fill:#87a3ac;opacity:0.41;}.cls-96{fill:#88a4ac;opacity:0.42;}.cls-97{fill:#89a4ac;opacity:0.42;}.cls-98{fill:#8aa5ac;opacity:0.43;}.cls-99{fill:#8aa5ad;opacity:0.43;}.cls-100{fill:#8ba6ad;opacity:0.44;}.cls-101{fill:#8ca7ad;opacity:0.44;}.cls-102{fill:#8da7ad;opacity:0.44;}.cls-103{fill:#8ea8ad;opacity:0.45;}.cls-104{fill:#8fa8ad;opacity:0.45;}.cls-105{fill:#90a9ad;opacity:0.46;}.cls-106{fill:#91a9ad;opacity:0.46;}.cls-107{fill:#92aaae;opacity:0.47;}.cls-108{fill:#92abae;opacity:0.47;}.cls-109{fill:#93abae;opacity:0.48;}.cls-110{fill:#94acae;opacity:0.48;}.cls-111{fill:#95acae;opacity:0.49;}.cls-112{fill:#96adae;opacity:0.49;}.cls-113{fill:#97aeae;opacity:0.5;}.cls-114{fill:#98aeaf;opacity:0.5;}.cls-115,.cls-116{fill:#99afaf;}.cls-115{opacity:0.5;}.cls-116{opacity:0.51;}.cls-117{fill:#9ab0af;opacity:0.51;}.cls-118{fill:#9bb0af;opacity:0.52;}.cls-119{fill:#9cb1af;opacity:0.52;}.cls-120{fill:#9db2af;opacity:0.53;}.cls-121{fill:#9eb2af;opacity:0.53;}.cls-122,.cls-123{fill:#9fb3b0;}.cls-122{opacity:0.54;}.cls-123{opacity:0.54;}.cls-124{fill:#a0b4b0;opacity:0.55;}.cls-125{fill:#a1b5b0;opacity:0.55;}.cls-126{fill:#a2b5b0;opacity:0.56;}.cls-127{fill:#a3b6b0;opacity:0.56;}.cls-128{fill:#a4b6b0;opacity:0.56;}.cls-129{fill:#a5b7b0;opacity:0.57;}.cls-130{fill:#a5b8b1;opacity:0.57;}.cls-131{fill:#a6b8b1;opacity:0.58;}.cls-132{fill:#a7b9b1;opacity:0.58;}.cls-133{fill:#a8b9b1;opacity:0.59;}.cls-134{fill:#a9bab1;opacity:0.59;}.cls-135{fill:#aabbb1;opacity:0.6;}.cls-136{fill:#abbbb1;opacity:0.6;}.cls-137{fill:#abbcb1;opacity:0.61;}.cls-138{fill:#acbcb1;opacity:0.61;}.cls-139{fill:#adbdb2;opacity:0.61;}.cls-140{fill:#aebeb2;opacity:0.62;}.cls-141{fill:#afbeb2;opacity:0.62;}.cls-142{fill:#b0bfb2;opacity:0.63;}.cls-143{fill:#b1bfb2;opacity:0.63;}.cls-144{fill:#b2c0b2;opacity:0.64;}.cls-145{fill:#b2c1b2;opacity:0.64;}.cls-146{fill:#b3c1b2;opacity:0.65;}.cls-147{fill:#b4c2b2;opacity:0.65;}.cls-148{fill:#b5c2b2;opacity:0.66;}.cls-149{fill:#b6c3b3;opacity:0.66;}.cls-150{fill:#b7c4b3;opacity:0.67;}.cls-151{fill:#b8c4b3;opacity:0.67;}.cls-152{fill:#b9c5b3;opacity:0.67;}.cls-153{fill:#b9c6b3;opacity:0.68;}.cls-154{fill:#bac6b3;opacity:0.68;}.cls-155{fill:#bbc7b3;opacity:0.69;}.cls-156{fill:#bcc7b3;opacity:0.69;}.cls-157{fill:#bdc8b3;opacity:0.7;}.cls-158{fill:#bec9b4;opacity:0.7;}.cls-159{fill:#bfc9b4;opacity:0.71;}.cls-160{fill:#c0cab4;opacity:0.71;}.cls-161,.cls-162{fill:#c1cbb4;}.cls-161{opacity:0.72;}.cls-162{opacity:0.72;}.cls-163{fill:#c2ccb4;opacity:0.72;}.cls-164{fill:#c3ccb4;opacity:0.73;}.cls-165{fill:#c4cdb4;opacity:0.73;}.cls-166{fill:#c5ceb4;opacity:0.74;}.cls-167{fill:#c6ceb4;opacity:0.74;}.cls-168{fill:#c7cfb5;opacity:0.75;}.cls-169,.cls-170{fill:#c8d0b5;}.cls-169{opacity:0.75;}.cls-170{opacity:0.76;}.cls-171{fill:#c9d1b5;opacity:0.76;}.cls-172{fill:#cad2b5;opacity:0.77;}.cls-173{fill:#cbd2b5;opacity:0.77;}.cls-174{fill:#ccd3b5;opacity:0.78;}.cls-175{fill:#cdd4b5;opacity:0.78;}.cls-176{fill:#ced4b5;opacity:0.78;}.cls-177{fill:#ced5b5;opacity:0.79;}.cls-178{fill:#cfd5b5;opacity:0.79;}.cls-179{fill:#d0d6b6;opacity:0.8;}.cls-180{fill:#d1d7b6;opacity:0.8;}.cls-181{fill:#d2d7b6;opacity:0.81;}.cls-182{fill:#d3d8b6;opacity:0.81;}.cls-183{fill:#d3d9b6;opacity:0.82;}.cls-184{fill:#d4d9b6;opacity:0.82;}.cls-185{fill:#d5dab6;opacity:0.83;}.cls-186{fill:#d6dbb6;opacity:0.83;}.cls-187{fill:#d7dbb6;opacity:0.83;}.cls-188,.cls-189{fill:#d8dcb6;}.cls-188{opacity:0.84;}.cls-189{opacity:0.84;}.cls-190{fill:#d9ddb7;opacity:0.85;}.cls-191{fill:#dadeb7;opacity:0.85;}.cls-192{fill:#dbdeb7;opacity:0.86;}.cls-193{fill:#dcdfb7;opacity:0.86;}.cls-194{fill:#dde0b7;opacity:0.87;}.cls-195{fill:#dee0b7;opacity:0.87;}.cls-196{fill:#dee1b7;opacity:0.88;}.cls-197{fill:#dfe2b7;opacity:0.88;}.cls-198{fill:#e0e2b7;opacity:0.89;}.cls-199{fill:#e1e3b7;opacity:0.89;}.cls-200{fill:#e2e4b7;opacity:0.89;}.cls-201{fill:#e3e4b7;opacity:0.9;}.cls-202{fill:#e4e5b8;opacity:0.9;}.cls-203{fill:#e4e6b8;opacity:0.91;}.cls-204{fill:#e5e6b8;opacity:0.91;}.cls-205{fill:#e6e7b8;opacity:0.92;}.cls-206{fill:#e7e8b8;opacity:0.92;}.cls-207{fill:#e8e8b8;opacity:0.93;}.cls-208,.cls-209{fill:#e9e9b8;}.cls-208{opacity:0.93;}.cls-209{opacity:0.94;}.cls-210{fill:#eaeab8;opacity:0.94;}.cls-211{fill:#ebebb8;opacity:0.94;}.cls-212{fill:#ecebb8;opacity:0.95;}.cls-213{fill:#edecb8;opacity:0.95;}.cls-214{fill:#eeedb8;opacity:0.96;}.cls-215{fill:#efedb8;opacity:0.96;}.cls-216{fill:#efeeb8;opacity:0.97;}.cls-217{fill:#f0efb9;opacity:0.97;}.cls-218{fill:#f1efb9;opacity:0.98;}.cls-219{fill:#f2f0b9;opacity:0.98;}.cls-220{fill:#f3f1b9;opacity:0.99;}.cls-221{fill:#f4f1b9;opacity:0.99;}.cls-222{fill:#f4f2b9;opacity:1;}.cls-223{fill:#f5f3b9;}.cls-224{fill:#f2f2f2;}.cls-225{fill:#bdb6b6;}.cls-226{fill:#d9d9d9;}.cls-227{fill:#fbfbfb;}.cls-228{fill:#fff;}.cls-229{fill:#ededed;}.cls-230{fill:#f0f0f0;}.cls-231{fill:#f8f8f7;}.cls-232{fill:#dc9598;}.cls-233{fill:#286992;}</style></defs><g class="cls-1"><g id="Vrstva_1" data-name="Vrstva 1"><g class="cls-2"><g class="cls-1"><path class="cls-3" d="M25.7,73.84c4.76,2.76,4.79,7.22.05,10s-12.44,2.76-17.21,0-4.79-7.21,0-10S20.93,71.09,25.7,73.84Z"/></g></g><path class="cls-4" d="M6.2,20.18l-.42,0c-.16.09-.25.19-.18.35l.5.38Z"/><path class="cls-5" d="M17.06,70.51a6.4,6.4,0,0,1-4.8-2.22,9.26,9.26,0,0,1-1.52-2.42,23.33,23.33,0,0,1-1.4-4.55,52.17,52.17,0,0,1-1.06-10c0-3.8.62-6.35,2-8.25a7.91,7.91,0,0,1,6.75-3.17,7.93,7.93,0,0,1,6.76,3.17c1.4,1.9,2,4.45,2,8.25a51.4,51.4,0,0,1-1.07,10,23.38,23.38,0,0,1-1.39,4.55,9.55,9.55,0,0,1-1.53,2.42A6.38,6.38,0,0,1,17.06,70.51Z"/><path class="cls-6" d="M10.33,43.11a7.85,7.85,0,0,1,6.73-3.17,7.85,7.85,0,0,1,6.74,3.17c1.4,1.9,2,4.44,2,8.23a51.09,51.09,0,0,1-1.07,10,23.32,23.32,0,0,1-1.38,4.54,9.75,9.75,0,0,1-1.52,2.41,6.25,6.25,0,0,1-9.57,0,9.2,9.2,0,0,1-1.52-2.41A23,23,0,0,1,9.37,61.3a51.08,51.08,0,0,1-1.06-10C8.3,47.55,8.93,45,10.33,43.11Z"/><path class="cls-7" d="M10.34,43.15A7.84,7.84,0,0,1,17.06,40a7.82,7.82,0,0,1,6.72,3.19c1.39,1.9,2,4.42,2,8.2a51.74,51.74,0,0,1-1.06,9.94,23,23,0,0,1-1.39,4.52,9.18,9.18,0,0,1-1.51,2.41,6.23,6.23,0,0,1-9.54,0,9.73,9.73,0,0,1-1.51-2.41A23.08,23.08,0,0,1,9.4,61.29a51.76,51.76,0,0,1-1.07-9.94C8.33,47.58,9,45.05,10.34,43.15Z"/><path class="cls-8" d="M10.36,43.18A7.78,7.78,0,0,1,17.06,40a7.79,7.79,0,0,1,6.71,3.19c1.37,1.9,2,4.42,2,8.18a51.37,51.37,0,0,1-1.07,9.91,22.3,22.3,0,0,1-1.38,4.51,9.19,9.19,0,0,1-1.5,2.4,6.2,6.2,0,0,1-9.51,0,9.19,9.19,0,0,1-1.5-2.4,22.91,22.91,0,0,1-1.39-4.51,52.15,52.15,0,0,1-1.06-9.91C8.36,47.6,9,45.08,10.36,43.18Z"/><path class="cls-9" d="M10.38,43.22A7.74,7.74,0,0,1,17.07,40a7.74,7.74,0,0,1,6.68,3.21c1.36,1.89,2,4.4,2,8.15a51,51,0,0,1-1.06,9.88,22.84,22.84,0,0,1-1.38,4.5,9.36,9.36,0,0,1-1.5,2.4,6.18,6.18,0,0,1-9.47,0,9.36,9.36,0,0,1-1.5-2.4,22.72,22.72,0,0,1-1.38-4.49,51.15,51.15,0,0,1-1.06-9.89C8.39,47.62,9,45.11,10.38,43.22Z"/><path class="cls-10" d="M10.4,43.25A7.7,7.7,0,0,1,17.07,40a7.67,7.67,0,0,1,6.66,3.21c1.36,1.9,2,4.39,2,8.13a50.84,50.84,0,0,1-1.06,9.86,22.21,22.21,0,0,1-1.37,4.48,9.38,9.38,0,0,1-1.49,2.39,6.15,6.15,0,0,1-9.44,0,9.13,9.13,0,0,1-1.5-2.39,22.66,22.66,0,0,1-1.37-4.48,50.74,50.74,0,0,1-1.06-9.85C8.42,47.65,9.05,45.15,10.4,43.25Z"/><path class="cls-11" d="M10.42,43.28a7.66,7.66,0,0,1,6.65-3.22,7.65,7.65,0,0,1,6.64,3.22c1.35,1.9,2,4.39,2,8.12a50.42,50.42,0,0,1-1.05,9.82,21.9,21.9,0,0,1-1.37,4.47,9.11,9.11,0,0,1-1.49,2.39,6.11,6.11,0,0,1-9.41,0,9.38,9.38,0,0,1-1.49-2.39,22.59,22.59,0,0,1-1.36-4.47A50.44,50.44,0,0,1,8.45,51.4C8.45,47.67,9.08,45.18,10.42,43.28Z"/><path class="cls-12" d="M10.44,43.32a7.59,7.59,0,0,1,6.63-3.23,7.6,7.6,0,0,1,6.63,3.23c1.33,1.89,2,4.37,2,8.09a51.1,51.1,0,0,1-1.06,9.8,22.57,22.57,0,0,1-1.36,4.45A9.19,9.19,0,0,1,21.76,68a6.08,6.08,0,0,1-9.38,0,9.13,9.13,0,0,1-1.48-2.37,22.85,22.85,0,0,1-1.37-4.46,51.09,51.09,0,0,1-1-9.8C8.48,47.69,9.1,45.21,10.44,43.32Z"/><path class="cls-13" d="M10.46,43.35a7.54,7.54,0,0,1,6.61-3.24,7.55,7.55,0,0,1,6.61,3.24c1.32,1.89,1.95,4.37,1.95,8.07a51.58,51.58,0,0,1-1.05,9.77,22.78,22.78,0,0,1-1.36,4.45A9.3,9.3,0,0,1,21.74,68a6.06,6.06,0,0,1-9.34,0,9.3,9.3,0,0,1-1.48-2.37,22.57,22.57,0,0,1-1.36-4.45,50.61,50.61,0,0,1-1.05-9.77C8.5,47.72,9.13,45.24,10.46,43.35Z"/><path class="cls-14" d="M10.48,43.38a7.52,7.52,0,0,1,6.59-3.24,7.52,7.52,0,0,1,6.59,3.24c1.32,1.89,1.95,4.36,1.94,8a49.54,49.54,0,0,1-1.05,9.74,22.5,22.5,0,0,1-1.35,4.44A9.06,9.06,0,0,1,21.72,68a6,6,0,0,1-9.31,0,9,9,0,0,1-1.47-2.36,22.6,22.6,0,0,1-1.35-4.43,49.72,49.72,0,0,1-1.05-9.75C8.53,47.74,9.16,45.27,10.48,43.38Z"/><path class="cls-15" d="M10.5,43.42a7.45,7.45,0,0,1,6.57-3.26,7.45,7.45,0,0,1,6.57,3.26c1.31,1.89,1.94,4.34,1.93,8a50.17,50.17,0,0,1-1,9.72,22.7,22.7,0,0,1-1.35,4.42,9.22,9.22,0,0,1-1.47,2.36,6,6,0,0,1-9.28,0A9.22,9.22,0,0,1,11,65.58a23,23,0,0,1-1.35-4.42,50.17,50.17,0,0,1-1-9.72C8.56,47.76,9.19,45.31,10.5,43.42Z"/><path class="cls-16" d="M10.52,43.45a7.42,7.42,0,0,1,6.55-3.26,7.45,7.45,0,0,1,6.56,3.26c1.29,1.89,1.92,4.34,1.92,8a50.67,50.67,0,0,1-1.05,9.69,22.41,22.41,0,0,1-1.34,4.41,9,9,0,0,1-1.47,2.35,6,6,0,0,1-9.24,0A8.71,8.71,0,0,1,11,65.55a22.15,22.15,0,0,1-1.35-4.41,49.77,49.77,0,0,1-1-9.68C8.59,47.79,9.22,45.34,10.52,43.45Z"/><path class="cls-17" d="M10.53,43.49a7.4,7.4,0,0,1,6.54-3.28,7.37,7.37,0,0,1,6.54,3.28c1.29,1.88,1.92,4.32,1.91,8a51.07,51.07,0,0,1-1,9.66,23,23,0,0,1-1.34,4.4,9.23,9.23,0,0,1-1.46,2.35,5.94,5.94,0,0,1-9.21,0A9,9,0,0,1,11,65.52a21.53,21.53,0,0,1-1.34-4.39,49.57,49.57,0,0,1-1-9.66C8.62,47.81,9.25,45.37,10.53,43.49Z"/><path class="cls-18" d="M10.55,43.52a7.35,7.35,0,0,1,6.52-3.28,7.35,7.35,0,0,1,6.52,3.28c1.28,1.88,1.91,4.31,1.9,7.95a50.15,50.15,0,0,1-1,9.64,22.33,22.33,0,0,1-1.33,4.38,9.17,9.17,0,0,1-1.46,2.34,5.91,5.91,0,0,1-9.18,0A9.15,9.15,0,0,1,11,65.49a22.75,22.75,0,0,1-1.34-4.38,50.76,50.76,0,0,1-1-9.63C8.65,47.83,9.27,45.4,10.55,43.52Z"/><path class="cls-19" d="M10.57,43.55a7.31,7.31,0,0,1,6.5-3.29,7.29,7.29,0,0,1,6.5,3.29c1.27,1.88,1.9,4.31,1.89,7.94a49.64,49.64,0,0,1-1,9.6,22.68,22.68,0,0,1-1.33,4.37,9.33,9.33,0,0,1-1.45,2.34,5.89,5.89,0,0,1-9.15,0,9.26,9.26,0,0,1-1.45-2.33A22.42,22.42,0,0,1,9.72,61.1a50.64,50.64,0,0,1-1-9.61C8.68,47.86,9.3,45.43,10.57,43.55Z"/><path class="cls-20" d="M10.59,43.59a7.27,7.27,0,0,1,6.48-3.3,7.28,7.28,0,0,1,6.49,3.3c1.26,1.87,1.88,4.29,1.88,7.91a50.14,50.14,0,0,1-1,9.57,21.88,21.88,0,0,1-1.33,4.36,8.8,8.8,0,0,1-1.44,2.33,5.83,5.83,0,0,1-9.11,0,8.73,8.73,0,0,1-1.44-2.32,22.09,22.09,0,0,1-1.33-4.36,50.33,50.33,0,0,1-1-9.58C8.7,47.88,9.33,45.47,10.59,43.59Z"/><path class="cls-21" d="M10.61,43.62a7.24,7.24,0,0,1,6.47-3.31,7.23,7.23,0,0,1,6.46,3.31c1.25,1.88,1.88,4.28,1.87,7.89a50,50,0,0,1-1,9.55,21.86,21.86,0,0,1-1.33,4.34,9.22,9.22,0,0,1-1.43,2.33,6,6,0,0,1-4.54,2.18,6,6,0,0,1-4.55-2.18,9.33,9.33,0,0,1-1.43-2.32,22.66,22.66,0,0,1-1.33-4.35,49.83,49.83,0,0,1-1-9.55C8.73,47.91,9.36,45.5,10.61,43.62Z"/><path class="cls-22" d="M10.63,43.65a7.18,7.18,0,0,1,6.45-3.31,7.16,7.16,0,0,1,6.44,3.31c1.24,1.88,1.87,4.28,1.86,7.87a49.61,49.61,0,0,1-1,9.52A22.12,22.12,0,0,1,23,65.38a9.09,9.09,0,0,1-1.43,2.31,5.79,5.79,0,0,1-9,0,9.09,9.09,0,0,1-1.43-2.31A22.47,22.47,0,0,1,9.8,61.05a49.7,49.7,0,0,1-1-9.52C8.76,47.93,9.39,45.53,10.63,43.65Z"/><path class="cls-23" d="M10.65,43.69a7.14,7.14,0,0,1,6.43-3.33,7.17,7.17,0,0,1,6.43,3.33c1.23,1.87,1.85,4.26,1.84,7.84a50.28,50.28,0,0,1-1,9.5A22.1,22.1,0,0,1,23,65.35a9.55,9.55,0,0,1-1.42,2.31,5.77,5.77,0,0,1-9,0,9.09,9.09,0,0,1-1.43-2.31A22.41,22.41,0,0,1,9.83,61a49.39,49.39,0,0,1-1-9.49C8.79,48,9.42,45.56,10.65,43.69Z"/><path class="cls-24" d="M10.67,43.72a7.1,7.1,0,0,1,6.41-3.33,7.1,7.1,0,0,1,6.41,3.33c1.22,1.87,1.85,4.25,1.84,7.82a49.1,49.1,0,0,1-1,9.47A22.51,22.51,0,0,1,23,65.32a9,9,0,0,1-1.42,2.3,5.89,5.89,0,0,1-4.49,2.18,5.93,5.93,0,0,1-4.5-2.18,9,9,0,0,1-1.41-2.3A21.65,21.65,0,0,1,9.85,61a50,50,0,0,1-1-9.47C8.82,48,9.44,45.59,10.67,43.72Z"/><path class="cls-25" d="M10.69,43.76a7.05,7.05,0,0,1,6.39-3.35,7.08,7.08,0,0,1,6.39,3.35c1.21,1.86,1.84,4.24,1.83,7.79a49.49,49.49,0,0,1-1,9.44A22.39,22.39,0,0,1,23,65.29a9,9,0,0,1-1.42,2.3,5.88,5.88,0,0,1-4.47,2.17,5.91,5.91,0,0,1-4.48-2.17,9.09,9.09,0,0,1-1.41-2.29A22.61,22.61,0,0,1,9.88,61a49.66,49.66,0,0,1-1-9.44C8.85,48,9.47,45.62,10.69,43.76Z"/><path class="cls-26" d="M10.7,43.79a7,7,0,0,1,6.38-3.35,7,7,0,0,1,6.37,3.35c1.21,1.86,1.83,4.23,1.82,7.78a49.35,49.35,0,0,1-1,9.41A21.73,21.73,0,0,1,23,65.26a9.66,9.66,0,0,1-1.41,2.3,5.89,5.89,0,0,1-4.46,2.16,5.88,5.88,0,0,1-4.46-2.16,9.09,9.09,0,0,1-1.41-2.29A21.84,21.84,0,0,1,9.91,61a49.27,49.27,0,0,1-1-9.41C8.88,48,9.5,45.66,10.7,43.79Z"/><path class="cls-27" d="M10.72,43.82a7,7,0,0,1,6.36-3.36,7,7,0,0,1,6.36,3.36c1.19,1.87,1.82,4.22,1.8,7.76a49.84,49.84,0,0,1-1,9.38,22.3,22.3,0,0,1-1.3,4.27,9.09,9.09,0,0,1-1.41,2.29,5.82,5.82,0,0,1-4.44,2.16,5.82,5.82,0,0,1-4.44-2.16,9.32,9.32,0,0,1-1.41-2.28A23,23,0,0,1,9.93,61a49.86,49.86,0,0,1-1-9.39C8.9,48.05,9.53,45.69,10.72,43.82Z"/><path class="cls-28" d="M10.74,43.86a7,7,0,0,1,6.34-3.37,7,7,0,0,1,6.34,3.37c1.18,1.86,1.81,4.21,1.8,7.73a49.37,49.37,0,0,1-1,9.35,22.23,22.23,0,0,1-1.29,4.26,9.08,9.08,0,0,1-1.4,2.29,5.84,5.84,0,0,1-4.43,2.15,5.84,5.84,0,0,1-4.43-2.15,9.28,9.28,0,0,1-1.39-2.28A22.18,22.18,0,0,1,10,61,49.53,49.53,0,0,1,9,51.6C8.93,48.07,9.56,45.72,10.74,43.86Z"/><path class="cls-29" d="M10.76,43.89a6.92,6.92,0,0,1,6.32-3.38,6.91,6.91,0,0,1,6.32,3.38c1.18,1.86,1.8,4.2,1.79,7.71a49.24,49.24,0,0,1-1,9.33,22.72,22.72,0,0,1-1.29,4.24,9,9,0,0,1-1.4,2.28,5.79,5.79,0,0,1-4.41,2.16,5.79,5.79,0,0,1-4.41-2.16,9.21,9.21,0,0,1-1.39-2.27A22,22,0,0,1,10,60.94a49.34,49.34,0,0,1-1-9.33C9,48.09,9.58,45.75,10.76,43.89Z"/><path class="cls-30" d="M10.78,43.92a6.89,6.89,0,0,1,6.3-3.38,6.89,6.89,0,0,1,6.3,3.38c1.17,1.86,1.8,4.19,1.78,7.69a48.93,48.93,0,0,1-1,9.3,22.27,22.27,0,0,1-1.28,4.24,9.4,9.4,0,0,1-1.39,2.27,5.78,5.78,0,0,1-4.4,2.15,5.76,5.76,0,0,1-4.39-2.15,9.1,9.1,0,0,1-1.39-2.27A21.93,21.93,0,0,1,10,60.92a48.94,48.94,0,0,1-1-9.3C9,48.12,9.61,45.78,10.78,43.92Z"/><path class="cls-31" d="M10.8,44a6.84,6.84,0,0,1,6.28-3.4A6.85,6.85,0,0,1,23.37,44c1.16,1.85,1.78,4.18,1.76,7.66a48.51,48.51,0,0,1-1,9.27,21.93,21.93,0,0,1-1.28,4.23,9.14,9.14,0,0,1-1.39,2.26,5.72,5.72,0,0,1-4.38,2.15,5.76,5.76,0,0,1-4.38-2.15,9.13,9.13,0,0,1-1.38-2.26A21.59,21.59,0,0,1,10,60.9a49.43,49.43,0,0,1-1-9.27C9,48.14,9.64,45.81,10.8,44Z"/><path class="cls-32" d="M10.82,44a6.79,6.79,0,0,1,6.26-3.41A6.82,6.82,0,0,1,23.35,44c1.15,1.85,1.77,4.17,1.76,7.64a49.23,49.23,0,0,1-1,9.25,22.94,22.94,0,0,1-1.27,4.21,9.32,9.32,0,0,1-1.38,2.26,5.74,5.74,0,0,1-4.37,2.14,5.74,5.74,0,0,1-4.36-2.14,8.93,8.93,0,0,1-1.37-2.25,22.13,22.13,0,0,1-1.28-4.21,49.23,49.23,0,0,1-1-9.25C9.05,48.17,9.67,45.84,10.82,44Z"/><path class="cls-33" d="M10.84,44a6.76,6.76,0,0,1,6.24-3.42A6.77,6.77,0,0,1,23.33,44c1.14,1.84,1.76,4.15,1.75,7.62a49.63,49.63,0,0,1-1,9.21,22,22,0,0,1-1.28,4.2,8.93,8.93,0,0,1-1.37,2.25,5.71,5.71,0,0,1-4.35,2.15,5.71,5.71,0,0,1-4.34-2.15,8.86,8.86,0,0,1-1.37-2.24,21.36,21.36,0,0,1-1.27-4.2,48.91,48.91,0,0,1-1-9.22C9.08,48.19,9.7,45.87,10.84,44Z"/><path class="cls-34" d="M10.86,44.06a6.73,6.73,0,0,1,6.23-3.43,6.75,6.75,0,0,1,6.23,3.43,13.76,13.76,0,0,1,1.73,7.6,48.59,48.59,0,0,1-1,9.19A21.82,21.82,0,0,1,22.78,65a9.21,9.21,0,0,1-1.36,2.25,5.69,5.69,0,0,1-4.33,2.14,5.66,5.66,0,0,1-4.33-2.14A8.86,8.86,0,0,1,11.39,65a22.56,22.56,0,0,1-1.27-4.18,49.51,49.51,0,0,1-1-9.19C9.1,48.21,9.72,45.91,10.86,44.06Z"/><path class="cls-35" d="M10.88,44.09a6.69,6.69,0,0,1,6.21-3.43,6.7,6.7,0,0,1,6.21,3.43A13.88,13.88,0,0,1,25,51.67a49.1,49.1,0,0,1-1,9.16A21.7,21.7,0,0,1,22.76,65a9.14,9.14,0,0,1-1.36,2.24,5.64,5.64,0,0,1-4.31,2.14,5.66,5.66,0,0,1-4.32-2.14A8.88,8.88,0,0,1,11.41,65a22.49,22.49,0,0,1-1.26-4.17,49.1,49.1,0,0,1-1-9.16A13.77,13.77,0,0,1,10.88,44.09Z"/><path class="cls-36" d="M10.89,44.13a6.68,6.68,0,0,1,6.2-3.45,6.67,6.67,0,0,1,6.19,3.45A13.89,13.89,0,0,1,25,51.68a48.79,48.79,0,0,1-1,9.13A21.41,21.41,0,0,1,22.74,65a8.84,8.84,0,0,1-1.36,2.24,5.62,5.62,0,0,1-4.29,2.13,5.64,5.64,0,0,1-4.3-2.13A9.07,9.07,0,0,1,11.43,65a21.47,21.47,0,0,1-1.25-4.16,48.79,48.79,0,0,1-1-9.13A13.85,13.85,0,0,1,10.89,44.13Z"/><path class="cls-37" d="M10.91,44.16a6.63,6.63,0,0,1,6.18-3.45,6.62,6.62,0,0,1,6.17,3.45A13.78,13.78,0,0,1,25,51.69a49.41,49.41,0,0,1-1,9.11,22.11,22.11,0,0,1-1.26,4.14,8.87,8.87,0,0,1-1.35,2.23,5.57,5.57,0,0,1-4.28,2.13,5.57,5.57,0,0,1-4.28-2.13A8.8,8.8,0,0,1,11.46,65a22.11,22.11,0,0,1-1.26-4.14,48.56,48.56,0,0,1-1-9.11A13.89,13.89,0,0,1,10.91,44.16Z"/><path class="cls-38" d="M10.93,44.19a6.62,6.62,0,0,1,6.16-3.46,6.62,6.62,0,0,1,6.16,3.46,13.92,13.92,0,0,1,1.69,7.51,48.16,48.16,0,0,1-1,9.08,21.32,21.32,0,0,1-1.25,4.13,9.05,9.05,0,0,1-1.35,2.23,5.56,5.56,0,0,1-4.26,2.13,5.6,5.6,0,0,1-4.27-2.13,9.28,9.28,0,0,1-1.34-2.22,21.11,21.11,0,0,1-1.25-4.13,48.16,48.16,0,0,1-1-9.08A14,14,0,0,1,10.93,44.19Z"/><path class="cls-39" d="M11,44.23a6.55,6.55,0,0,1,6.14-3.47,6.55,6.55,0,0,1,6.14,3.47,13.89,13.89,0,0,1,1.69,7.48,47.86,47.86,0,0,1-1,9,21.6,21.6,0,0,1-1.24,4.13,9.2,9.2,0,0,1-1.34,2.21,5.58,5.58,0,0,1-4.25,2.13,5.58,5.58,0,0,1-4.25-2.13,9.33,9.33,0,0,1-1.34-2.2,22.45,22.45,0,0,1-1.24-4.12,48.89,48.89,0,0,1-1-9.06A13.93,13.93,0,0,1,11,44.23Z"/><path class="cls-40" d="M11,44.26a6.53,6.53,0,0,1,6.12-3.48,6.53,6.53,0,0,1,6.12,3.48,13.89,13.89,0,0,1,1.68,7.47,48.45,48.45,0,0,1-1,9,22.33,22.33,0,0,1-1.24,4.11,9.2,9.2,0,0,1-1.34,2.21,5.51,5.51,0,0,1-4.23,2.12,5.54,5.54,0,0,1-4.23-2.12,9.33,9.33,0,0,1-1.34-2.2,22.09,22.09,0,0,1-1.24-4.11,49.31,49.31,0,0,1-1-9A14,14,0,0,1,11,44.26Z"/><path class="cls-41" d="M11,44.3a6.5,6.5,0,0,1,6.1-3.49,6.49,6.49,0,0,1,6.1,3.49,13.87,13.87,0,0,1,1.67,7.44,47.31,47.31,0,0,1-1,9,21.29,21.29,0,0,1-1.23,4.1A9,9,0,0,1,21.31,67a5.51,5.51,0,0,1-4.22,2.12A5.47,5.47,0,0,1,12.88,67a8.74,8.74,0,0,1-1.33-2.19,22,22,0,0,1-1.24-4.1,48.14,48.14,0,0,1-1-9A13.91,13.91,0,0,1,11,44.3Z"/><path class="cls-42" d="M11,44.33a6.46,6.46,0,0,1,6.08-3.5,6.47,6.47,0,0,1,6.09,3.5,13.92,13.92,0,0,1,1.65,7.42,47.81,47.81,0,0,1-1,9,21.9,21.9,0,0,1-1.23,4.09A9,9,0,0,1,21.29,67a5.48,5.48,0,0,1-4.2,2.12A5.5,5.5,0,0,1,12.89,67a9.22,9.22,0,0,1-1.32-2.19,22,22,0,0,1-1.23-4.08,47.93,47.93,0,0,1-1-9A14,14,0,0,1,11,44.33Z"/><path class="cls-43" d="M11,44.36a6.41,6.41,0,0,1,6.06-3.5,6.43,6.43,0,0,1,6.07,3.5,14,14,0,0,1,1.65,7.4,48.36,48.36,0,0,1-1,8.94,21.2,21.2,0,0,1-1.22,4.07A9,9,0,0,1,21.28,67a5.48,5.48,0,0,1-4.19,2.12A5.46,5.46,0,0,1,12.91,67a9,9,0,0,1-1.32-2.18,21.65,21.65,0,0,1-1.23-4.07,48.35,48.35,0,0,1-1-8.94A13.91,13.91,0,0,1,11,44.36Z"/><path class="cls-44" d="M11.05,44.4a6.39,6.39,0,0,1,6-3.52,6.4,6.4,0,0,1,6.05,3.52,13.88,13.88,0,0,1,1.64,7.37,48,48,0,0,1-1,8.91,22.6,22.6,0,0,1-1.22,4.06,9.22,9.22,0,0,1-1.32,2.19A5.42,5.42,0,0,1,17.09,69a5.41,5.41,0,0,1-4.16-2.11,9,9,0,0,1-1.32-2.18,22.35,22.35,0,0,1-1.22-4.06,48,48,0,0,1-1-8.91A13.94,13.94,0,0,1,11.05,44.4Z"/><path class="cls-45" d="M11.06,44.43a6.37,6.37,0,0,1,6-3.52,6.35,6.35,0,0,1,6,3.52,13.92,13.92,0,0,1,1.63,7.35,47.08,47.08,0,0,1-1,8.89,21.86,21.86,0,0,1-1.21,4,8.94,8.94,0,0,1-1.31,2.18A5.41,5.41,0,0,1,17.09,69a5.41,5.41,0,0,1-4.15-2.11,8.66,8.66,0,0,1-1.3-2.16,21,21,0,0,1-1.22-4.05,47,47,0,0,1-1-8.89A14.09,14.09,0,0,1,11.06,44.43Z"/><path class="cls-46" d="M11.08,44.46a6.33,6.33,0,0,1,6-3.53,6.33,6.33,0,0,1,6,3.53,14,14,0,0,1,1.61,7.33,47.49,47.49,0,0,1-1,8.86,20.72,20.72,0,0,1-1.22,4,8.62,8.62,0,0,1-1.3,2.18A5.39,5.39,0,0,1,17.1,69,5.39,5.39,0,0,1,13,66.86a8.84,8.84,0,0,1-1.3-2.16,22.59,22.59,0,0,1-1.22-4,47.38,47.38,0,0,1-1-8.85A14.18,14.18,0,0,1,11.08,44.46Z"/><path class="cls-47" d="M11.1,44.5a6.31,6.31,0,0,1,6-3.54,6.3,6.3,0,0,1,6,3.54,14,14,0,0,1,1.61,7.3,47.94,47.94,0,0,1-1,8.83,21,21,0,0,1-1.21,4,8.66,8.66,0,0,1-1.3,2.16,5.33,5.33,0,0,1-4.11,2.11A5.34,5.34,0,0,1,13,66.82a8.89,8.89,0,0,1-1.3-2.15,21.6,21.6,0,0,1-1.21-4,47.26,47.26,0,0,1-1-8.83A14.07,14.07,0,0,1,11.1,44.5Z"/><path class="cls-48" d="M11.12,44.53a6.27,6.27,0,0,1,6-3.55,6.26,6.26,0,0,1,6,3.55,14.07,14.07,0,0,1,1.6,7.29,47.8,47.8,0,0,1-1,8.8,21.48,21.48,0,0,1-1.21,4,9.15,9.15,0,0,1-1.29,2.16,5.33,5.33,0,0,1-4.1,2.1A5.35,5.35,0,0,1,13,66.79a9.42,9.42,0,0,1-1.29-2.15,21.54,21.54,0,0,1-1.2-4,46.86,46.86,0,0,1-1-8.8A14,14,0,0,1,11.12,44.53Z"/><path class="cls-49" d="M11.14,44.57a6.23,6.23,0,0,1,6-3.56,6.24,6.24,0,0,1,6,3.56,14.09,14.09,0,0,1,1.58,7.26,46.54,46.54,0,0,1-1,8.77,21.65,21.65,0,0,1-1.2,4,8.57,8.57,0,0,1-1.29,2.15,5.29,5.29,0,0,1-4.08,2.1A5.33,5.33,0,0,1,13,66.75a8.79,8.79,0,0,1-1.28-2.14,20.68,20.68,0,0,1-1.2-4,46.54,46.54,0,0,1-1-8.77A14,14,0,0,1,11.14,44.57Z"/><path class="cls-50" d="M11.16,44.6A6.21,6.21,0,0,1,17.1,41,6.22,6.22,0,0,1,23,44.6a14,14,0,0,1,1.57,7.24,47.05,47.05,0,0,1-1,8.74,21.52,21.52,0,0,1-1.2,4,9.06,9.06,0,0,1-1.28,2.15,5.28,5.28,0,0,1-4.07,2.09A5.3,5.3,0,0,1,13,66.72a8.79,8.79,0,0,1-1.28-2.14,21.16,21.16,0,0,1-1.2-4,48,48,0,0,1-1-8.75A14.08,14.08,0,0,1,11.16,44.6Z"/><path class="cls-51" d="M11.18,44.63a6.17,6.17,0,0,1,5.92-3.57A6.17,6.17,0,0,1,23,44.63a14.12,14.12,0,0,1,1.57,7.22,47.81,47.81,0,0,1-1,8.72,20.6,20.6,0,0,1-1.19,4,8.79,8.79,0,0,1-1.28,2.14,5.24,5.24,0,0,1-4,2.1,5.24,5.24,0,0,1-4.05-2.1,8.72,8.72,0,0,1-1.28-2.13,21.87,21.87,0,0,1-1.19-4,47.62,47.62,0,0,1-1-8.72A14.13,14.13,0,0,1,11.18,44.63Z"/><path class="cls-52" d="M11.2,44.67a6.14,6.14,0,0,1,5.9-3.59A6.14,6.14,0,0,1,23,44.67a14.11,14.11,0,0,1,1.56,7.19,47.28,47.28,0,0,1-1,8.69,22,22,0,0,1-1.19,4,9.1,9.1,0,0,1-1.27,2.14,5.25,5.25,0,0,1-4,2.09,5.27,5.27,0,0,1-4-2.09,9.16,9.16,0,0,1-1.27-2.12,21.26,21.26,0,0,1-1.18-4,47.5,47.5,0,0,1-1-8.7A14.15,14.15,0,0,1,11.2,44.67Z"/><path class="cls-53" d="M11.22,44.7a6.08,6.08,0,0,1,5.88-3.59A6.12,6.12,0,0,1,23,44.7a14.07,14.07,0,0,1,1.54,7.17,47,47,0,0,1-1,8.66,20.91,20.91,0,0,1-1.18,4,9,9,0,0,1-1.27,2.14,5.24,5.24,0,0,1-4,2.08,5.22,5.22,0,0,1-4-2.09,8.54,8.54,0,0,1-1.26-2.11,22.11,22.11,0,0,1-1.19-4,47.06,47.06,0,0,1-1-8.66A14.22,14.22,0,0,1,11.22,44.7Z"/><path class="cls-54" d="M11.23,44.74a6.09,6.09,0,0,1,5.87-3.61A6.09,6.09,0,0,1,23,44.74a14.08,14.08,0,0,1,1.53,7.14,46.83,46.83,0,0,1-.95,8.64,21.66,21.66,0,0,1-1.18,3.93,9,9,0,0,1-1.26,2.13,5.2,5.2,0,0,1-4,2.08,5.17,5.17,0,0,1-4-2.08,8.93,8.93,0,0,1-1.26-2.11,21,21,0,0,1-1.18-3.94,46.64,46.64,0,0,1-1-8.63A14.22,14.22,0,0,1,11.23,44.74Z"/><path class="cls-55" d="M11.25,44.77a6,6,0,0,1,5.85-3.61A6,6,0,0,1,23,44.77a14.15,14.15,0,0,1,1.53,7.13,46.42,46.42,0,0,1-1,8.6,21.41,21.41,0,0,1-1.17,3.93,9,9,0,0,1-1.26,2.12,5.17,5.17,0,0,1-4,2.07,5.2,5.2,0,0,1-4-2.07,9.26,9.26,0,0,1-1.25-2.11,21.05,21.05,0,0,1-1.17-3.92,46.53,46.53,0,0,1-1-8.61A14.2,14.2,0,0,1,11.25,44.77Z"/><path class="cls-56" d="M11.27,44.8a6,6,0,0,1,5.83-3.62,6,6,0,0,1,5.83,3.62,14.1,14.1,0,0,1,1.52,7.11,47.15,47.15,0,0,1-.95,8.58,22,22,0,0,1-1.17,3.91,9.26,9.26,0,0,1-1.25,2.11,5.18,5.18,0,0,1-4,2.08,5.17,5.17,0,0,1-4-2.08,9,9,0,0,1-1.25-2.1,21.46,21.46,0,0,1-1.17-3.91,47,47,0,0,1-1-8.58A14.25,14.25,0,0,1,11.27,44.8Z"/><path class="cls-57" d="M11.29,44.84a6,6,0,0,1,5.81-3.63,6,6,0,0,1,5.82,3.63,14.23,14.23,0,0,1,1.5,7.08,46.73,46.73,0,0,1-1,8.55,21.89,21.89,0,0,1-1.16,3.9,9.26,9.26,0,0,1-1.25,2.11,5.11,5.11,0,0,1-4,2.07,5.14,5.14,0,0,1-4-2.07,9.17,9.17,0,0,1-1.24-2.1,20.68,20.68,0,0,1-1.17-3.89,46.84,46.84,0,0,1-1-8.56A14.16,14.16,0,0,1,11.29,44.84Z"/><path class="cls-58" d="M11.31,44.87a6,6,0,0,1,5.8-3.64,6,6,0,0,1,5.79,3.64,14.18,14.18,0,0,1,1.49,7.06,46.3,46.3,0,0,1-.94,8.52,21.51,21.51,0,0,1-1.16,3.89A8.64,8.64,0,0,1,21,66.44a5.07,5.07,0,0,1-3.93,2.07,5.07,5.07,0,0,1-3.94-2.07,9,9,0,0,1-1.24-2.08,21.76,21.76,0,0,1-1.16-3.89,46.42,46.42,0,0,1-.95-8.53A14.22,14.22,0,0,1,11.31,44.87Z"/><path class="cls-59" d="M11.33,44.9a5.93,5.93,0,0,1,5.78-3.64,5.93,5.93,0,0,1,5.77,3.64,14.34,14.34,0,0,1,1.49,7,46.2,46.2,0,0,1-.95,8.5,20.72,20.72,0,0,1-1.16,3.87A8.81,8.81,0,0,1,21,66.41a5.07,5.07,0,0,1-3.92,2.06,5.1,5.1,0,0,1-3.93-2.06A9,9,0,0,1,12,64.33a21.38,21.38,0,0,1-1.16-3.88A46.86,46.86,0,0,1,9.85,52,14.3,14.3,0,0,1,11.33,44.9Z"/><path class="cls-60" d="M11.35,44.94c1.37-2.65,3.17-3.66,5.76-3.66s4.38,1,5.76,3.66a14.26,14.26,0,0,1,1.47,7,46.74,46.74,0,0,1-.94,8.47,21.62,21.62,0,0,1-1.16,3.86A8.54,8.54,0,0,1,21,66.37a5.06,5.06,0,0,1-3.9,2.07,5.06,5.06,0,0,1-3.91-2.07A8.92,8.92,0,0,1,12,64.3a22.55,22.55,0,0,1-1.15-3.86A46.74,46.74,0,0,1,9.88,52,14.21,14.21,0,0,1,11.35,44.94Z"/><path class="cls-61" d="M11.37,45c1.37-2.66,3.16-3.66,5.74-3.66s4.37,1,5.74,3.66a14.33,14.33,0,0,1,1.46,7,46.22,46.22,0,0,1-.94,8.44,20.53,20.53,0,0,1-1.15,3.85A8.85,8.85,0,0,1,21,66.34a5,5,0,0,1-3.89,2.06,5,5,0,0,1-3.89-2.06A8.57,8.57,0,0,1,12,64.27a20.53,20.53,0,0,1-1.15-3.85A46.33,46.33,0,0,1,9.9,52,14.26,14.26,0,0,1,11.37,45Z"/><path class="cls-62" d="M11.39,45c1.36-2.68,3.15-3.68,5.72-3.68s4.35,1,5.72,3.68a14.22,14.22,0,0,1,1.45,7,46.07,46.07,0,0,1-.93,8.41,21.29,21.29,0,0,1-1.15,3.83A8.64,8.64,0,0,1,21,66.3a5,5,0,0,1-3.87,2.06,5,5,0,0,1-3.88-2.06A8.61,8.61,0,0,1,12,64.24a21.29,21.29,0,0,1-1.15-3.83A47,47,0,0,1,9.93,52,14.26,14.26,0,0,1,11.39,45Z"/><path class="cls-63" d="M11.41,45c1.36-2.69,3.14-3.68,5.7-3.68s4.34,1,5.7,3.68a14.31,14.31,0,0,1,1.45,7,46.56,46.56,0,0,1-.94,8.38,20.21,20.21,0,0,1-1.14,3.82A9,9,0,0,1,21,66.27a5,5,0,0,1-3.86,2,5,5,0,0,1-3.86-2A9,9,0,0,1,12,64.21a21,21,0,0,1-1.14-3.82A46.67,46.67,0,0,1,10,52,14.23,14.23,0,0,1,11.41,45Z"/><path class="cls-64" d="M11.42,45.07c1.36-2.69,3.13-3.69,5.69-3.69s4.33,1,5.69,3.69A14.38,14.38,0,0,1,24.23,52a47.13,47.13,0,0,1-.93,8.35,21.22,21.22,0,0,1-1.14,3.82A8.81,8.81,0,0,1,21,66.23a4.93,4.93,0,0,1-3.84,2,4.93,4.93,0,0,1-3.84-2,8.74,8.74,0,0,1-1.21-2,20.91,20.91,0,0,1-1.13-3.81A46.24,46.24,0,0,1,10,52,14.42,14.42,0,0,1,11.42,45.07Z"/><path class="cls-65" d="M11.44,45.11c1.36-2.71,3.12-3.7,5.67-3.7s4.31,1,5.67,3.7A14.38,14.38,0,0,1,24.2,52a45.22,45.22,0,0,1-.93,8.33,21,21,0,0,1-1.13,3.8,9.39,9.39,0,0,1-1.2,2.06,5,5,0,0,1-3.83,2,4.94,4.94,0,0,1-3.82-2,8.51,8.51,0,0,1-1.2-2A21,21,0,0,1,11,60.36,46.11,46.11,0,0,1,10,52,14.47,14.47,0,0,1,11.44,45.11Z"/><path class="cls-66" d="M11.46,45.14c1.35-2.72,3.11-3.71,5.65-3.71s4.3,1,5.65,3.71A14.35,14.35,0,0,1,24.18,52a46.47,46.47,0,0,1-.93,8.3,21.14,21.14,0,0,1-1.13,3.79,8.72,8.72,0,0,1-1.2,2,4.9,4.9,0,0,1-3.81,2,4.93,4.93,0,0,1-3.81-2,8.76,8.76,0,0,1-1.19-2A20.9,20.9,0,0,1,11,60.34a46.58,46.58,0,0,1-.93-8.3A14.44,14.44,0,0,1,11.46,45.14Z"/><path class="cls-67" d="M11.48,45.17c1.35-2.73,3.09-3.71,5.63-3.71s4.28,1,5.63,3.71A14.42,14.42,0,0,1,24.15,52a46.35,46.35,0,0,1-.93,8.28,21.2,21.2,0,0,1-1.12,3.77,9.07,9.07,0,0,1-1.19,2,4.9,4.9,0,0,1-3.8,2,4.9,4.9,0,0,1-3.79-2,9.13,9.13,0,0,1-1.19-2A21.2,21.2,0,0,1,11,60.33a46.35,46.35,0,0,1-.93-8.28A14.51,14.51,0,0,1,11.48,45.17Z"/><path class="cls-68" d="M11.5,45.21c1.34-2.74,3.08-3.73,5.61-3.73s4.27,1,5.62,3.73A14.42,14.42,0,0,1,24.12,52a46,46,0,0,1-.92,8.25,21.66,21.66,0,0,1-1.12,3.76,9,9,0,0,1-1.19,2,4.85,4.85,0,0,1-3.78,2,4.85,4.85,0,0,1-3.77-2,8.83,8.83,0,0,1-1.19-2A20.88,20.88,0,0,1,11,60.31a45.13,45.13,0,0,1-.93-8.25A14.39,14.39,0,0,1,11.5,45.21Z"/><path class="cls-69" d="M11.52,45.24c1.34-2.75,3.07-3.73,5.59-3.73s4.26,1,5.6,3.73a14.42,14.42,0,0,1,1.38,6.82,45.57,45.57,0,0,1-.92,8.21A20.75,20.75,0,0,1,22.06,64a8.63,8.63,0,0,1-1.19,2,4.84,4.84,0,0,1-3.76,2,4.87,4.87,0,0,1-3.76-2,8.8,8.8,0,0,1-1.17-2,20.69,20.69,0,0,1-1.12-3.75,45.58,45.58,0,0,1-.92-8.22A14.37,14.37,0,0,1,11.52,45.24Z"/><path class="cls-70" d="M11.54,45.28c1.33-2.77,3.06-3.75,5.58-3.75s4.23,1,5.57,3.75a14.41,14.41,0,0,1,1.38,6.79,46.38,46.38,0,0,1-.92,8.19A21.32,21.32,0,0,1,22,64a8.54,8.54,0,0,1-1.18,2,4.82,4.82,0,0,1-3.74,2,4.83,4.83,0,0,1-3.75-2,8.72,8.72,0,0,1-1.17-2,20.49,20.49,0,0,1-1.11-3.73,45.36,45.36,0,0,1-.92-8.2A14.37,14.37,0,0,1,11.54,45.28Z"/><path class="cls-71" d="M11.56,45.31c1.33-2.78,3-3.75,5.56-3.75s4.22,1,5.55,3.75A14.48,14.48,0,0,1,24,52.08a45.94,45.94,0,0,1-.92,8.16A20.42,20.42,0,0,1,22,64a8.74,8.74,0,0,1-1.18,2,4.78,4.78,0,0,1-3.72,2,4.79,4.79,0,0,1-3.73-2,8.94,8.94,0,0,1-1.17-2,20.42,20.42,0,0,1-1.1-3.72,45,45,0,0,1-.92-8.16A14.49,14.49,0,0,1,11.56,45.31Z"/><path class="cls-72" d="M11.58,45.34c1.33-2.78,3-3.76,5.54-3.76s4.21,1,5.54,3.76A14.47,14.47,0,0,1,24,52.09a44.6,44.6,0,0,1-.92,8.13A20.92,20.92,0,0,1,22,63.94a8.56,8.56,0,0,1-1.16,2,4.77,4.77,0,0,1-3.71,2,4.79,4.79,0,0,1-3.72-2,9.15,9.15,0,0,1-1.16-2,22.29,22.29,0,0,1-1.1-3.71,46.66,46.66,0,0,1-.92-8.14A14.55,14.55,0,0,1,11.58,45.34Z"/><path class="cls-73" d="M11.59,45.38c1.33-2.8,3-3.77,5.53-3.77s4.19,1,5.52,3.77A14.47,14.47,0,0,1,24,52.1a44.47,44.47,0,0,1-.91,8.11,20.66,20.66,0,0,1-1.1,3.7,8.56,8.56,0,0,1-1.16,2,4.75,4.75,0,0,1-3.69,2,4.77,4.77,0,0,1-3.7-2,8.6,8.6,0,0,1-1.15-2,20.41,20.41,0,0,1-1.1-3.7,45.39,45.39,0,0,1-.92-8.11A14.56,14.56,0,0,1,11.59,45.38Z"/><path class="cls-74" d="M11.61,45.41c1.33-2.81,3-3.78,5.51-3.78s4.18,1,5.5,3.78A14.41,14.41,0,0,1,24,52.11,45.06,45.06,0,0,1,23,60.19,19.8,19.8,0,0,1,22,63.88a8.47,8.47,0,0,1-1.15,2,4.73,4.73,0,0,1-3.68,2,4.73,4.73,0,0,1-3.68-2,8.32,8.32,0,0,1-1.15-2,20.59,20.59,0,0,1-1.09-3.69,45,45,0,0,1-.92-8.08A14.67,14.67,0,0,1,11.61,45.41Z"/><path class="cls-75" d="M11.63,45.44c1.32-2.82,3-3.78,5.49-3.78s4.17,1,5.49,3.78a14.66,14.66,0,0,1,1.32,6.68A44.61,44.61,0,0,1,23,60.17a20.21,20.21,0,0,1-1.09,3.68,8.47,8.47,0,0,1-1.15,2,4.7,4.7,0,0,1-3.66,2,4.7,4.7,0,0,1-3.66-2,8.32,8.32,0,0,1-1.15-2,21.17,21.17,0,0,1-1.09-3.67,45.64,45.64,0,0,1-.91-8.06A14.62,14.62,0,0,1,11.63,45.44Z"/><path class="cls-76" d="M11.65,45.48c1.32-2.83,3-3.8,5.47-3.8s4.15,1,5.47,3.8a14.53,14.53,0,0,1,1.31,6.65,44.39,44.39,0,0,1-.91,8,20.26,20.26,0,0,1-1.08,3.66,8.52,8.52,0,0,1-1.14,2,4.7,4.7,0,0,1-3.65,2,4.7,4.7,0,0,1-3.65-2,8.58,8.58,0,0,1-1.14-2,21.1,21.1,0,0,1-1.08-3.66,44.39,44.39,0,0,1-.91-8A14.62,14.62,0,0,1,11.65,45.48Z"/><path class="cls-77" d="M11.67,45.51c1.31-2.84,3-3.8,5.45-3.8s4.14,1,5.45,3.8a14.37,14.37,0,0,1,1.3,6.64,44,44,0,0,1-.9,8,21,21,0,0,1-1.08,3.65,9,9,0,0,1-1.14,2,4.64,4.64,0,0,1-3.63,2,4.66,4.66,0,0,1-3.63-2,8.56,8.56,0,0,1-1.13-2,20,20,0,0,1-1.08-3.64,44.17,44.17,0,0,1-.91-8A14.75,14.75,0,0,1,11.67,45.51Z"/><path class="cls-78" d="M11.69,45.55c1.31-2.86,3-3.82,5.43-3.82s4.13,1,5.43,3.82a14.52,14.52,0,0,1,1.3,6.61,44.53,44.53,0,0,1-.91,8,20.06,20.06,0,0,1-1.07,3.64,9.35,9.35,0,0,1-1.13,2,4.66,4.66,0,0,1-3.62,2,4.63,4.63,0,0,1-3.61-2,8.41,8.41,0,0,1-1.13-1.95,21.1,21.1,0,0,1-1.08-3.64,44.63,44.63,0,0,1-.9-8A14.46,14.46,0,0,1,11.69,45.55Z"/><path class="cls-79" d="M11.71,45.58c1.3-2.87,2.95-3.82,5.41-3.82s4.11,1,5.42,3.82a14.62,14.62,0,0,1,1.28,6.59,44.4,44.4,0,0,1-.9,7.94,20,20,0,0,1-1.07,3.62,8.64,8.64,0,0,1-1.13,2,4.61,4.61,0,0,1-3.6,2,4.64,4.64,0,0,1-3.6-2,9,9,0,0,1-1.12-1.95,19.93,19.93,0,0,1-1.07-3.63,44.3,44.3,0,0,1-.9-7.94A14.55,14.55,0,0,1,11.71,45.58Z"/><path class="cls-80" d="M11.73,45.61c1.3-2.87,2.94-3.83,5.39-3.83s4.1,1,5.4,3.83a14.56,14.56,0,0,1,1.27,6.57,44,44,0,0,1-.9,7.91,21,21,0,0,1-1.06,3.62,9,9,0,0,1-1.13,2,4.61,4.61,0,0,1-3.58,2,4.61,4.61,0,0,1-3.58-2,8.91,8.91,0,0,1-1.12-1.94,20.82,20.82,0,0,1-1.06-3.61,44.08,44.08,0,0,1-.9-7.92A14.52,14.52,0,0,1,11.73,45.61Z"/><path class="cls-81" d="M11.75,45.65c1.29-2.89,2.92-3.84,5.37-3.84s4.09.95,5.38,3.84a14.47,14.47,0,0,1,1.26,6.54,44.66,44.66,0,0,1-.89,7.89,21,21,0,0,1-1.06,3.6,9.08,9.08,0,0,1-1.12,2,4.56,4.56,0,0,1-3.57,2,4.56,4.56,0,0,1-3.56-2,8.51,8.51,0,0,1-1.11-1.94,20.62,20.62,0,0,1-1.07-3.6,44.66,44.66,0,0,1-.89-7.89A14.53,14.53,0,0,1,11.75,45.65Z"/><path class="cls-82" d="M11.77,45.68c1.29-2.9,2.91-3.85,5.35-3.85s4.07,1,5.36,3.85a14.68,14.68,0,0,1,1.26,6.52,43.43,43.43,0,0,1-.9,7.86,20.88,20.88,0,0,1-1.05,3.59,9.08,9.08,0,0,1-1.12,2,4.54,4.54,0,0,1-3.55,2,4.52,4.52,0,0,1-3.54-2,8.43,8.43,0,0,1-1.11-1.93,20.68,20.68,0,0,1-1.06-3.58,44.43,44.43,0,0,1-.89-7.87A14.65,14.65,0,0,1,11.77,45.68Z"/><path class="cls-83" d="M11.78,45.71c1.29-2.91,2.91-3.85,5.35-3.85s4.05.94,5.34,3.85a14.64,14.64,0,0,1,1.24,6.5A44,44,0,0,1,22.82,60a20.75,20.75,0,0,1-1.05,3.58,8.59,8.59,0,0,1-1.11,1.95,4.55,4.55,0,0,1-3.53,2,4.55,4.55,0,0,1-3.54-2,8.8,8.8,0,0,1-1.1-1.93,20.61,20.61,0,0,1-1.05-3.57,45,45,0,0,1-.9-7.83A14.89,14.89,0,0,1,11.78,45.71Z"/><path class="cls-84" d="M11.8,45.75c1.29-2.93,2.9-3.87,5.33-3.87s4,.95,5.32,3.87a14.7,14.7,0,0,1,1.23,6.48,43.76,43.76,0,0,1-.89,7.8,20.81,20.81,0,0,1-1,3.56,8.81,8.81,0,0,1-1.11,2,4.49,4.49,0,0,1-3.51,2,4.53,4.53,0,0,1-3.52-2,8.8,8.8,0,0,1-1.1-1.93,20.28,20.28,0,0,1-1-3.56,43.67,43.67,0,0,1-.9-7.8A14.76,14.76,0,0,1,11.8,45.75Z"/><path class="cls-85" d="M11.82,45.78c1.28-2.93,2.88-3.87,5.31-3.87s4,.94,5.3,3.87a14.64,14.64,0,0,1,1.22,6.46A43.32,43.32,0,0,1,22.77,60a20.34,20.34,0,0,1-1.05,3.55,8.48,8.48,0,0,1-1.09,1.94,4.48,4.48,0,0,1-3.5,2,4.47,4.47,0,0,1-3.5-2,8.46,8.46,0,0,1-1.09-1.91,20.61,20.61,0,0,1-1-3.55,44.37,44.37,0,0,1-.89-7.78A14.74,14.74,0,0,1,11.82,45.78Z"/><path class="cls-86" d="M11.84,45.82c1.27-3,2.87-3.89,5.29-3.89s4,.94,5.29,3.89a14.8,14.8,0,0,1,1.21,6.43A43.92,43.92,0,0,1,22.74,60a19.44,19.44,0,0,1-1,3.54,8.7,8.7,0,0,1-1.09,1.94,4.45,4.45,0,0,1-3.48,2,4.48,4.48,0,0,1-3.49-2,8.85,8.85,0,0,1-1.08-1.91,19.44,19.44,0,0,1-1-3.54,43.11,43.11,0,0,1-.89-7.75A14.75,14.75,0,0,1,11.84,45.82Z"/><path class="cls-87" d="M11.86,45.85c1.27-3,2.86-3.89,5.27-3.89s4,.93,5.27,3.89a14.78,14.78,0,0,1,1.2,6.41A43.69,43.69,0,0,1,22.72,60a20.27,20.27,0,0,1-1,3.52,8.39,8.39,0,0,1-1.08,1.93,4.45,4.45,0,0,1-3.47,2,4.46,4.46,0,0,1-3.47-2,8.16,8.16,0,0,1-1.08-1.9,20.33,20.33,0,0,1-1-3.52,42.89,42.89,0,0,1-.89-7.73A14.85,14.85,0,0,1,11.86,45.85Z"/><path class="cls-88" d="M11.88,45.88c1.26-3,2.85-3.9,5.25-3.9s4,.93,5.25,3.9a14.73,14.73,0,0,1,1.19,6.39A43.35,43.35,0,0,1,22.69,60a19.94,19.94,0,0,1-1,3.51,8.39,8.39,0,0,1-1.08,1.93,4.41,4.41,0,0,1-3.45,2,4.41,4.41,0,0,1-3.45-2,9,9,0,0,1-1.08-1.9,21.11,21.11,0,0,1-1-3.51,43.36,43.36,0,0,1-.88-7.7A14.83,14.83,0,0,1,11.88,45.88Z"/><path class="cls-89" d="M11.9,45.92c1.26-3,2.83-3.91,5.23-3.91s4,.93,5.23,3.91a14.74,14.74,0,0,1,1.18,6.36,43,43,0,0,1-.87,7.66,20.47,20.47,0,0,1-1,3.51,8.83,8.83,0,0,1-1.07,1.91,4.41,4.41,0,0,1-3.44,2,4.38,4.38,0,0,1-3.43-2,8.27,8.27,0,0,1-1.07-1.89,20.06,20.06,0,0,1-1-3.5,43,43,0,0,1-.88-7.66A14.86,14.86,0,0,1,11.9,45.92Z"/><path class="cls-90" d="M11.92,46C13.17,43,14.74,42,17.13,42s4,.93,5.22,3.92a14.84,14.84,0,0,1,1.17,6.34,43.63,43.63,0,0,1-.88,7.64,20.26,20.26,0,0,1-1,3.49,8.83,8.83,0,0,1-1.07,1.91,4.38,4.38,0,0,1-3.42,2,4.39,4.39,0,0,1-3.42-2,8.65,8.65,0,0,1-1.06-1.89,19.86,19.86,0,0,1-1-3.48,42.91,42.91,0,0,1-.88-7.64A14.81,14.81,0,0,1,11.92,46Z"/><path class="cls-91" d="M11.94,46c1.25-3,2.81-3.92,5.19-3.92s3.94.92,5.2,3.92a15,15,0,0,1,1.16,6.33,44.24,44.24,0,0,1-.87,7.6,20.12,20.12,0,0,1-1,3.48,8.35,8.35,0,0,1-1.07,1.9,4.32,4.32,0,0,1-3.4,2,4.33,4.33,0,0,1-3.4-2,8.57,8.57,0,0,1-1.06-1.88,20.62,20.62,0,0,1-1-3.47,43.28,43.28,0,0,1-.87-7.61A14.78,14.78,0,0,1,11.94,46Z"/><path class="cls-92" d="M12,46c1.25-3,2.8-3.94,5.18-3.94S21.06,43,22.31,46a14.86,14.86,0,0,1,1.15,6.3,42.23,42.23,0,0,1-.87,7.58,20.84,20.84,0,0,1-1,3.46,9,9,0,0,1-1.06,1.9,4.33,4.33,0,0,1-3.39,2,4.32,4.32,0,0,1-3.38-2,8.72,8.72,0,0,1-1.06-1.87,21.13,21.13,0,0,1-1-3.46,42.24,42.24,0,0,1-.87-7.59A15,15,0,0,1,12,46Z"/><path class="cls-93" d="M12,46.05c1.25-3,2.79-3.94,5.16-3.94s3.92.91,5.16,3.94a14.65,14.65,0,0,1,1.14,6.28,42.7,42.7,0,0,1-.86,7.55,20.69,20.69,0,0,1-1,3.45,8.65,8.65,0,0,1-1.06,1.89,4.29,4.29,0,0,1-3.37,2,4.32,4.32,0,0,1-3.37-2,8.38,8.38,0,0,1-1-1.86,19,19,0,0,1-1-3.45,41.81,41.81,0,0,1-.87-7.56A14.92,14.92,0,0,1,12,46.05Z"/><path class="cls-94" d="M12,46.09c1.24-3.05,2.78-4,5.14-4s3.9.92,5.15,4a15,15,0,0,1,1.13,6.25,43.33,43.33,0,0,1-.87,7.52,19.71,19.71,0,0,1-1,3.44,9.07,9.07,0,0,1-1.05,1.89,4.29,4.29,0,0,1-3.36,2,4.3,4.3,0,0,1-3.35-2,8.61,8.61,0,0,1-1-1.86,20.55,20.55,0,0,1-1-3.44,43.33,43.33,0,0,1-.87-7.53A15.12,15.12,0,0,1,12,46.09Z"/><path class="cls-95" d="M12,46.12c1.24-3,2.77-4,5.13-4s3.88.91,5.12,4a15,15,0,0,1,1.12,6.23,43.09,43.09,0,0,1-.86,7.5,20.63,20.63,0,0,1-1,3.42,8.55,8.55,0,0,1-1.05,1.88,4.24,4.24,0,0,1-3.33,2,4.24,4.24,0,0,1-3.34-2,8.29,8.29,0,0,1-1-1.85,20.63,20.63,0,0,1-1-3.42,43.11,43.11,0,0,1-.87-7.5A15.08,15.08,0,0,1,12,46.12Z"/><path class="cls-96" d="M12,46.15c1.23-3.06,2.75-4,5.11-4s3.87.91,5.1,4a14.91,14.91,0,0,1,1.11,6.21,42.64,42.64,0,0,1-.86,7.47,20.56,20.56,0,0,1-1,3.41,9,9,0,0,1-1,1.88,4.27,4.27,0,0,1-3.32,2,4.24,4.24,0,0,1-3.32-2,8.29,8.29,0,0,1-1-1.85,19.64,19.64,0,0,1-1-3.41,42.66,42.66,0,0,1-.87-7.47A15.22,15.22,0,0,1,12,46.15Z"/><path class="cls-97" d="M12.05,46.19c1.22-3.08,2.74-4,5.09-4s3.86.9,5.08,4a14.77,14.77,0,0,1,1.1,6.18,42.29,42.29,0,0,1-.85,7.44,21.57,21.57,0,0,1-1,3.41,8.79,8.79,0,0,1-1,1.86,4.19,4.19,0,0,1-3.3,2,4.25,4.25,0,0,1-3.31-2,8.41,8.41,0,0,1-1-1.84,20.06,20.06,0,0,1-1-3.4A43.27,43.27,0,0,1,11,52.4,15.09,15.09,0,0,1,12.05,46.19Z"/><path class="cls-98" d="M12.07,46.22c1.22-3.09,2.73-4,5.07-4s3.84.9,5.07,4a15.09,15.09,0,0,1,1.09,6.17,43.16,43.16,0,0,1-.86,7.41,20.63,20.63,0,0,1-1,3.39,9,9,0,0,1-1,1.86,4.2,4.2,0,0,1-3.29,2,4.19,4.19,0,0,1-3.29-2,8.57,8.57,0,0,1-1-1.83,19.63,19.63,0,0,1-1-3.39A43.16,43.16,0,0,1,11,52.41,15,15,0,0,1,12.07,46.22Z"/><path class="cls-99" d="M12.09,46.25c1.21-3.1,2.71-4,5.05-4s3.83.89,5.05,4a15,15,0,0,1,1.08,6.15,42.58,42.58,0,0,1-.85,7.38,19.5,19.5,0,0,1-1,3.38,8.5,8.5,0,0,1-1,1.85A4.16,4.16,0,0,1,17.14,67,4.16,4.16,0,0,1,13.87,65a8.67,8.67,0,0,1-1-1.82,20.2,20.2,0,0,1-1-3.38A42.59,42.59,0,0,1,11,52.42,15,15,0,0,1,12.09,46.25Z"/><path class="cls-100" d="M12.11,46.29c1.21-3.11,2.7-4,5-4s3.82.9,5,4a14.9,14.9,0,0,1,1.07,6.12,42.24,42.24,0,0,1-.85,7.35,20.35,20.35,0,0,1-1,3.37,8.1,8.1,0,0,1-1,1.85,4.11,4.11,0,0,1-3.25,1.94A4.17,4.17,0,0,1,13.88,65a9.42,9.42,0,0,1-1-1.82,20.21,20.21,0,0,1-1-3.36A42.46,42.46,0,0,1,11,52.43,15,15,0,0,1,12.11,46.29Z"/><path class="cls-101" d="M12.13,46.32c1.2-3.12,2.69-4,5-4s3.81.89,5,4a15.4,15.4,0,0,1,1.06,6.1,44,44,0,0,1-.85,7.33,20.36,20.36,0,0,1-1,3.35,8.4,8.4,0,0,1-1,1.84,4.12,4.12,0,0,1-3.24,2,4.12,4.12,0,0,1-3.24-2,8.14,8.14,0,0,1-1-1.81,20.07,20.07,0,0,1-1-3.35,42.12,42.12,0,0,1-.85-7.33A15.17,15.17,0,0,1,12.13,46.32Z"/><path class="cls-102" d="M12.14,46.36c1.21-3.14,2.69-4,5-4s3.79.89,5,4a15.08,15.08,0,0,1,1.05,6.07,41.67,41.67,0,0,1-.85,7.3,20,20,0,0,1-1,3.34,8.4,8.4,0,0,1-1,1.84,4.1,4.1,0,0,1-3.22,1.94,4.1,4.1,0,0,1-3.22-1.94,8.14,8.14,0,0,1-1-1.81,20,20,0,0,1-1-3.34,41.67,41.67,0,0,1-.85-7.3A15.25,15.25,0,0,1,12.14,46.36Z"/><path class="cls-103" d="M12.16,46.39c1.2-3.15,2.67-4,5-4s3.78.88,5,4a15,15,0,0,1,1,6,42.52,42.52,0,0,1-.84,7.28,20,20,0,0,1-1,3.32,8.49,8.49,0,0,1-1,1.83,4.09,4.09,0,0,1-3.21,1.94,4.1,4.1,0,0,1-3.21-1.94,8.46,8.46,0,0,1-1-1.8,19.14,19.14,0,0,1-1-3.32,41.45,41.45,0,0,1-.85-7.28A15.34,15.34,0,0,1,12.16,46.39Z"/><path class="cls-104" d="M12.18,46.42c1.19-3.16,2.66-4,5-4s3.77.88,5,4a15.18,15.18,0,0,1,1,6,42,42,0,0,1-.84,7.25,19.93,19.93,0,0,1-1,3.31,8.3,8.3,0,0,1-1,1.83,4,4,0,0,1-3.19,1.93A4.1,4.1,0,0,1,14,64.84,8.46,8.46,0,0,1,13,63a20.63,20.63,0,0,1-1-3.31,42,42,0,0,1-.84-7.25A15.11,15.11,0,0,1,12.18,46.42Z"/><path class="cls-105" d="M12.2,46.46c1.19-3.18,2.65-4.05,4.94-4.05s3.76.87,4.95,4.05a15.4,15.4,0,0,1,1,6,42.61,42.61,0,0,1-.85,7.22,19.57,19.57,0,0,1-1,3.3,8.73,8.73,0,0,1-1,1.83,4.06,4.06,0,0,1-3.18,1.93A4,4,0,0,1,14,64.8,8.09,8.09,0,0,1,13,63a19.14,19.14,0,0,1-1-3.3,42.85,42.85,0,0,1-.85-7.23A15.34,15.34,0,0,1,12.2,46.46Z"/><path class="cls-106" d="M12.22,46.49c1.18-3.19,2.63-4.06,4.92-4.06s3.74.88,4.93,4.06a15.33,15.33,0,0,1,1,6,41.49,41.49,0,0,1-.84,7.19A20.29,20.29,0,0,1,21.29,63a8.8,8.8,0,0,1-1,1.81,4,4,0,0,1-3.16,1.93A4,4,0,0,1,14,64.77,8.32,8.32,0,0,1,13,63a19.71,19.71,0,0,1-.95-3.29,42.5,42.5,0,0,1-.85-7.2A15.29,15.29,0,0,1,12.22,46.49Z"/><path class="cls-107" d="M12.24,46.52c1.18-3.19,2.62-4.06,4.91-4.06s3.72.87,4.9,4.06a15.31,15.31,0,0,1,1,6,41,41,0,0,1-.84,7.16,19.93,19.93,0,0,1-.94,3.28,9.6,9.6,0,0,1-1,1.81,4,4,0,0,1-3.14,1.92A4,4,0,0,1,14,64.73,8.42,8.42,0,0,1,13,63a19.57,19.57,0,0,1-.95-3.28,41.9,41.9,0,0,1-.84-7.16A15.47,15.47,0,0,1,12.24,46.52Z"/><path class="cls-108" d="M12.26,46.56c1.17-3.21,2.61-4.08,4.89-4.08s3.71.87,4.88,4.08a15.16,15.16,0,0,1,1,5.94,41.66,41.66,0,0,1-.83,7.13,20.81,20.81,0,0,1-.94,3.27,8.7,8.7,0,0,1-1,1.8,4,4,0,0,1-3.12,1.92A4,4,0,0,1,14,64.7a8.42,8.42,0,0,1-1-1.77,19.36,19.36,0,0,1-.94-3.26,41.79,41.79,0,0,1-.84-7.14A15.32,15.32,0,0,1,12.26,46.56Z"/><path class="cls-109" d="M12.28,46.59c1.16-3.22,2.6-4.08,4.87-4.08s3.7.86,4.87,4.08a15.48,15.48,0,0,1,1,5.92,41.44,41.44,0,0,1-.84,7.11,19.86,19.86,0,0,1-.93,3.25,9.19,9.19,0,0,1-1,1.8,4,4,0,0,1-3.11,1.91A3.94,3.94,0,0,1,14,64.66a7.68,7.68,0,0,1-1-1.76,18.59,18.59,0,0,1-.94-3.25,41.44,41.44,0,0,1-.84-7.11A15.46,15.46,0,0,1,12.28,46.59Z"/><path class="cls-110" d="M12.3,46.63c1.16-3.24,2.58-4.1,4.85-4.1s3.68.86,4.85,4.1a15.37,15.37,0,0,1,1,5.89,42,42,0,0,1-.83,7.08,20.44,20.44,0,0,1-.93,3.24,9.09,9.09,0,0,1-1,1.79,3.92,3.92,0,0,1-3.09,1.92,4,4,0,0,1-3.1-1.92,8.79,8.79,0,0,1-1-1.76,19.51,19.51,0,0,1-.94-3.23,42.21,42.21,0,0,1-.83-7.09A15.35,15.35,0,0,1,12.3,46.63Z"/><path class="cls-111" d="M12.31,46.66c1.16-3.25,2.58-4.1,4.84-4.1s3.67.85,4.83,4.1a15.31,15.31,0,0,1,1,5.87,40.63,40.63,0,0,1-.83,7,19.36,19.36,0,0,1-.92,3.23,9.09,9.09,0,0,1-1,1.79,3.9,3.9,0,0,1-3.07,1.91,3.92,3.92,0,0,1-3.08-1.92,8.6,8.6,0,0,1-1-1.74,20.6,20.6,0,0,1-.93-3.23,41.74,41.74,0,0,1-.83-7.06A15.5,15.5,0,0,1,12.31,46.66Z"/><path class="cls-112" d="M12.33,46.69c1.15-3.26,2.57-4.11,4.82-4.11s3.66.86,4.81,4.11a15.26,15.26,0,0,1,.95,5.85,40.5,40.5,0,0,1-.82,7,20.3,20.3,0,0,1-.93,3.21,7.83,7.83,0,0,1-.95,1.78,3.89,3.89,0,0,1-3.06,1.91,3.89,3.89,0,0,1-3.06-1.91,8.6,8.6,0,0,1-.95-1.74,19.5,19.5,0,0,1-.92-3.22,41.27,41.27,0,0,1-.83-7A15.44,15.44,0,0,1,12.33,46.69Z"/><path class="cls-113" d="M12.35,46.73c1.15-3.27,2.55-4.12,4.8-4.12s3.65.85,4.8,4.12a15.56,15.56,0,0,1,.94,5.83,40.93,40.93,0,0,1-.83,7,19.22,19.22,0,0,1-.92,3.2,8.05,8.05,0,0,1-.95,1.78,3.87,3.87,0,0,1-3,1.9,3.87,3.87,0,0,1-3-1.9,8.37,8.37,0,0,1-.94-1.74,20.16,20.16,0,0,1-.93-3.2,42.19,42.19,0,0,1-.82-7A15.55,15.55,0,0,1,12.35,46.73Z"/><path class="cls-114" d="M12.37,46.76c1.14-3.28,2.54-4.13,4.78-4.13s3.64.85,4.78,4.13a15.5,15.5,0,0,1,.93,5.81,41.83,41.83,0,0,1-.82,7,19.66,19.66,0,0,1-.92,3.19,8.55,8.55,0,0,1-.94,1.76,3.85,3.85,0,0,1-3,1.91,3.87,3.87,0,0,1-3-1.91,8.76,8.76,0,0,1-.93-1.73,19.08,19.08,0,0,1-.92-3.19,40.8,40.8,0,0,1-.82-7A15.49,15.49,0,0,1,12.37,46.76Z"/><path class="cls-115" d="M12.39,46.79c1.14-3.29,2.53-4.13,4.76-4.13s3.62.84,4.76,4.13a15.45,15.45,0,0,1,.92,5.79A41.48,41.48,0,0,1,22,59.52a19.29,19.29,0,0,1-.91,3.18,8.55,8.55,0,0,1-.94,1.76,3.83,3.83,0,0,1-3,1.9,3.83,3.83,0,0,1-3-1.9,8.27,8.27,0,0,1-.93-1.73,18.87,18.87,0,0,1-.91-3.17,39.49,39.49,0,0,1-.82-7A15.64,15.64,0,0,1,12.39,46.79Z"/><path class="cls-116" d="M12.41,46.83c1.13-3.31,2.52-4.15,4.74-4.15s3.61.84,4.75,4.15a15.56,15.56,0,0,1,.9,5.76A40,40,0,0,1,22,59.5a20.17,20.17,0,0,1-.91,3.17,8.2,8.2,0,0,1-.93,1.75,3.83,3.83,0,0,1-3,1.9,3.8,3.8,0,0,1-3-1.9,8.18,8.18,0,0,1-.93-1.72,20,20,0,0,1-.91-3.16,41.12,41.12,0,0,1-.82-6.92A15.71,15.71,0,0,1,12.41,46.83Z"/><path class="cls-117" d="M12.43,46.86c1.12-3.32,2.5-4.15,4.72-4.15s3.6.83,4.73,4.15a15.69,15.69,0,0,1,.9,5.74A40.89,40.89,0,0,1,22,59.49a19.22,19.22,0,0,1-.9,3.15,8.45,8.45,0,0,1-.93,1.75,3.77,3.77,0,0,1-3,1.89,3.83,3.83,0,0,1-3-1.89,8.16,8.16,0,0,1-.91-1.72,18.87,18.87,0,0,1-.91-3.15,40.77,40.77,0,0,1-.82-6.89A15.83,15.83,0,0,1,12.43,46.86Z"/><path class="cls-118" d="M12.45,46.9c1.12-3.34,2.49-4.17,4.7-4.17s3.59.83,4.71,4.17a15.54,15.54,0,0,1,.89,5.71,41.45,41.45,0,0,1-.81,6.86,20.12,20.12,0,0,1-.9,3.14,8.57,8.57,0,0,1-.92,1.74,3.79,3.79,0,0,1-3,1.9,3.77,3.77,0,0,1-3-1.9,8,8,0,0,1-.91-1.7,20.12,20.12,0,0,1-.9-3.14,40.54,40.54,0,0,1-.82-6.87A15.5,15.5,0,0,1,12.45,46.9Z"/><path class="cls-119" d="M12.47,46.93c1.11-3.35,2.48-4.17,4.68-4.17s3.58.82,4.69,4.17a15.48,15.48,0,0,1,.88,5.69,39.94,39.94,0,0,1-.81,6.83A19,19,0,0,1,21,62.58a8.57,8.57,0,0,1-.92,1.74,3.75,3.75,0,0,1-3,1.89,3.75,3.75,0,0,1-2.94-1.89,8.23,8.23,0,0,1-.91-1.7,20,20,0,0,1-.9-3.13,41.09,41.09,0,0,1-.81-6.83A15.67,15.67,0,0,1,12.47,46.93Z"/><path class="cls-120" d="M12.48,47c1.11-3.36,2.47-4.18,4.68-4.18s3.56.83,4.67,4.18a15.68,15.68,0,0,1,.86,5.68,40.85,40.85,0,0,1-.8,6.8A20.88,20.88,0,0,1,21,62.55a8.75,8.75,0,0,1-.91,1.73,3.72,3.72,0,0,1-2.93,1.89,3.73,3.73,0,0,1-2.93-1.89,8.36,8.36,0,0,1-.91-1.69,19.74,19.74,0,0,1-.89-3.11,40.85,40.85,0,0,1-.81-6.81A15.85,15.85,0,0,1,12.48,47Z"/><path class="cls-121" d="M12.5,47c1.1-3.37,2.46-4.19,4.66-4.19s3.54.82,4.65,4.19a15.94,15.94,0,0,1,.86,5.65,40.51,40.51,0,0,1-.81,6.77,19.67,19.67,0,0,1-.88,3.1,8.75,8.75,0,0,1-.91,1.73,3.69,3.69,0,0,1-2.91,1.88,3.72,3.72,0,0,1-2.92-1.88,8.35,8.35,0,0,1-.89-1.69,18.59,18.59,0,0,1-.89-3.1,40.5,40.5,0,0,1-.81-6.78A16,16,0,0,1,12.5,47Z"/><path class="cls-122" d="M12.52,47c1.1-3.38,2.45-4.2,4.64-4.2s3.53.82,4.63,4.2a15.7,15.7,0,0,1,.85,5.63,40,40,0,0,1-.8,6.74A19.67,19.67,0,0,1,21,62.5a8.55,8.55,0,0,1-.91,1.71,3.66,3.66,0,0,1-2.89,1.88,3.68,3.68,0,0,1-2.9-1.88,8.53,8.53,0,0,1-.89-1.68,18.24,18.24,0,0,1-.88-3.09,40.15,40.15,0,0,1-.81-6.75A15.9,15.9,0,0,1,12.52,47Z"/><path class="cls-123" d="M12.54,47.06c1.09-3.39,2.44-4.2,4.62-4.2s3.52.81,4.61,4.2a15.64,15.64,0,0,1,.84,5.61,39.78,39.78,0,0,1-.8,6.72,20.08,20.08,0,0,1-.87,3.08,9.41,9.41,0,0,1-.9,1.71,3.66,3.66,0,0,1-2.88,1.88,3.67,3.67,0,0,1-2.88-1.88,8.53,8.53,0,0,1-.89-1.68,19.54,19.54,0,0,1-.88-3.07,39.78,39.78,0,0,1-.8-6.73A16.07,16.07,0,0,1,12.54,47.06Z"/><path class="cls-124" d="M12.56,47.1c1.08-3.41,2.42-4.22,4.6-4.22s3.51.81,4.6,4.22a16,16,0,0,1,.82,5.58,40.46,40.46,0,0,1-.79,6.69,20.76,20.76,0,0,1-.87,3.07,9,9,0,0,1-.9,1.7A3.63,3.63,0,0,1,17.16,66a3.66,3.66,0,0,1-2.87-1.88,8.67,8.67,0,0,1-.88-1.67,19.15,19.15,0,0,1-.87-3.06,39.43,39.43,0,0,1-.8-6.7A16,16,0,0,1,12.56,47.1Z"/><path class="cls-125" d="M12.58,47.13c1.08-3.42,2.41-4.22,4.58-4.22s3.5.8,4.58,4.22a15.92,15.92,0,0,1,.82,5.56,41.33,41.33,0,0,1-.8,6.67,19.63,19.63,0,0,1-.87,3,8.44,8.44,0,0,1-.88,1.7A3.64,3.64,0,0,1,17.16,66a3.62,3.62,0,0,1-2.85-1.87,8.6,8.6,0,0,1-.87-1.66,19.63,19.63,0,0,1-.87-3.05,39.32,39.32,0,0,1-.8-6.67A15.91,15.91,0,0,1,12.58,47.13Z"/><path class="cls-126" d="M12.6,47.17c1.07-3.44,2.4-4.24,4.56-4.24s3.49.8,4.56,4.24a15.76,15.76,0,0,1,.81,5.53,39.87,39.87,0,0,1-.79,6.64,19.48,19.48,0,0,1-.87,3A7.86,7.86,0,0,1,20,64.07a3.59,3.59,0,0,1-2.83,1.87,3.59,3.59,0,0,1-2.83-1.87,8.22,8.22,0,0,1-.87-1.65,19.48,19.48,0,0,1-.87-3,39.87,39.87,0,0,1-.79-6.64A15.75,15.75,0,0,1,12.6,47.17Z"/><path class="cls-127" d="M12.62,47.2C13.68,43.75,15,43,17.16,43s3.48.79,4.55,4.24a16.2,16.2,0,0,1,.79,5.51,39.51,39.51,0,0,1-.79,6.61,18.09,18.09,0,0,1-.86,3A8.33,8.33,0,0,1,20,64a3.59,3.59,0,0,1-2.82,1.87A3.63,3.63,0,0,1,14.34,64a8.76,8.76,0,0,1-.86-1.65,19.09,19.09,0,0,1-.86-3,40.47,40.47,0,0,1-.8-6.61A16.18,16.18,0,0,1,12.62,47.2Z"/><path class="cls-128" d="M12.64,47.23C13.7,43.77,15,43,17.16,43s3.46.8,4.53,4.25a16,16,0,0,1,.78,5.5,40.21,40.21,0,0,1-.78,6.58,20.25,20.25,0,0,1-.86,3A8.24,8.24,0,0,1,20,64a3.55,3.55,0,0,1-2.8,1.87A3.58,3.58,0,0,1,14.36,64a8.12,8.12,0,0,1-.86-1.64,19.18,19.18,0,0,1-.85-3,40.22,40.22,0,0,1-.8-6.59A16.12,16.12,0,0,1,12.64,47.23Z"/><path class="cls-129" d="M12.66,47.27C13.71,43.8,15,43,17.16,43s3.45.79,4.51,4.26a16,16,0,0,1,.78,5.47,39.86,39.86,0,0,1-.79,6.55,19,19,0,0,1-.85,3A8.5,8.5,0,0,1,20,64a3.56,3.56,0,0,1-2.79,1.86A3.54,3.54,0,0,1,14.38,64a7.63,7.63,0,0,1-.85-1.64,18.65,18.65,0,0,1-.86-3,41,41,0,0,1-.79-6.56A16.17,16.17,0,0,1,12.66,47.27Z"/><path class="cls-130" d="M12.67,47.3C13.72,43.82,15,43,17.16,43s3.44.79,4.49,4.27a16.21,16.21,0,0,1,.77,5.45,40.59,40.59,0,0,1-.78,6.52,20,20,0,0,1-.85,3,8.5,8.5,0,0,1-.86,1.68,3.52,3.52,0,0,1-2.77,1.85,3.53,3.53,0,0,1-2.76-1.86,8,8,0,0,1-.85-1.63,19.05,19.05,0,0,1-.85-3,40.85,40.85,0,0,1-.79-6.54A16.42,16.42,0,0,1,12.67,47.3Z"/><path class="cls-131" d="M12.69,47.33c1-3.49,2.34-4.27,4.47-4.27s3.43.78,4.48,4.27a16.17,16.17,0,0,1,.75,5.43,39.25,39.25,0,0,1-.78,6.5,19.44,19.44,0,0,1-.84,3,8.86,8.86,0,0,1-.85,1.66,3.52,3.52,0,0,1-2.76,1.85,3.51,3.51,0,0,1-2.75-1.85,9.08,9.08,0,0,1-.84-1.62,19.12,19.12,0,0,1-.84-3,39.14,39.14,0,0,1-.79-6.5A16.39,16.39,0,0,1,12.69,47.33Z"/><path class="cls-132" d="M12.71,47.37c1-3.51,2.33-4.29,4.46-4.29s3.41.78,4.45,4.29a16,16,0,0,1,.74,5.4,39.84,39.84,0,0,1-.77,6.47,20.13,20.13,0,0,1-.84,3,9.18,9.18,0,0,1-.85,1.66,3.49,3.49,0,0,1-2.73,1.85,3.48,3.48,0,0,1-2.74-1.86,8.65,8.65,0,0,1-.84-1.61,20.13,20.13,0,0,1-.84-3A39.85,39.85,0,0,1,12,52.81,16.26,16.26,0,0,1,12.71,47.37Z"/><path class="cls-133" d="M12.73,47.4c1-3.52,2.32-4.29,4.44-4.29s3.4.77,4.43,4.29a16.22,16.22,0,0,1,.74,5.38,39.48,39.48,0,0,1-.78,6.44,20.05,20.05,0,0,1-.83,3,8.21,8.21,0,0,1-.85,1.65,3.44,3.44,0,0,1-2.71,1.85,3.48,3.48,0,0,1-2.72-1.85,8.08,8.08,0,0,1-.83-1.61,18.68,18.68,0,0,1-.84-2.95A39.74,39.74,0,0,1,12,52.82,16.46,16.46,0,0,1,12.73,47.4Z"/><path class="cls-134" d="M12.75,47.44c1-3.54,2.3-4.31,4.42-4.31s3.39.77,4.41,4.31a16.05,16.05,0,0,1,.73,5.35,40.35,40.35,0,0,1-.77,6.42,19.73,19.73,0,0,1-.83,2.94,8.75,8.75,0,0,1-.84,1.65,3.44,3.44,0,0,1-2.7,1.84,3.46,3.46,0,0,1-2.71-1.85,8.53,8.53,0,0,1-.82-1.6,18.6,18.6,0,0,1-.83-2.94A39.24,39.24,0,0,1,12,52.83,16.3,16.3,0,0,1,12.75,47.44Z"/><path class="cls-135" d="M12.77,47.47c1-3.55,2.29-4.31,4.4-4.31s3.38.76,4.4,4.31a16.31,16.31,0,0,1,.71,5.34,40,40,0,0,1-.77,6.38,20,20,0,0,1-.82,2.93,9,9,0,0,1-.84,1.64,3.41,3.41,0,0,1-2.68,1.84,3.44,3.44,0,0,1-2.69-1.84,8.53,8.53,0,0,1-.82-1.6,19.77,19.77,0,0,1-.83-2.92,40.1,40.1,0,0,1-.77-6.4A16.54,16.54,0,0,1,12.77,47.47Z"/><path class="cls-136" d="M12.79,47.5c1-3.56,2.28-4.32,4.38-4.32s3.37.76,4.38,4.32a16.53,16.53,0,0,1,.71,5.32,39.89,39.89,0,0,1-.77,6.36,21.4,21.4,0,0,1-.82,2.91,9.64,9.64,0,0,1-.83,1.64,3.41,3.41,0,0,1-2.67,1.84,3.41,3.41,0,0,1-2.67-1.85,8.13,8.13,0,0,1-.82-1.59,19.34,19.34,0,0,1-.82-2.91,39.6,39.6,0,0,1-.77-6.37A16.48,16.48,0,0,1,12.79,47.5Z"/><path class="cls-137" d="M12.81,47.54c1-3.58,2.27-4.33,4.36-4.33s3.36.75,4.36,4.33a16.64,16.64,0,0,1,.7,5.29,39.24,39.24,0,0,1-.77,6.33,19.61,19.61,0,0,1-.81,2.9,8.54,8.54,0,0,1-.83,1.63,3.38,3.38,0,0,1-2.65,1.84,3.38,3.38,0,0,1-2.65-1.84,7.87,7.87,0,0,1-.81-1.59,18.39,18.39,0,0,1-.82-2.9,40.41,40.41,0,0,1-.78-6.33A16.59,16.59,0,0,1,12.81,47.54Z"/><path class="cls-138" d="M12.83,47.57c1-3.59,2.25-4.34,4.34-4.34s3.35.76,4.34,4.34a16.3,16.3,0,0,1,.69,5.27,38.87,38.87,0,0,1-.77,6.3A18.31,18.31,0,0,1,20.62,62a8.84,8.84,0,0,1-.81,1.63,3.39,3.39,0,0,1-2.64,1.83,3.38,3.38,0,0,1-2.64-1.84,8.21,8.21,0,0,1-.8-1.57,19.73,19.73,0,0,1-.82-2.89,41.52,41.52,0,0,1-.77-6.31A16.56,16.56,0,0,1,12.83,47.57Z"/><path class="cls-139" d="M12.84,47.6c1-3.59,2.25-4.34,4.33-4.34s3.34.75,4.33,4.34a16.55,16.55,0,0,1,.67,5.25,38.76,38.76,0,0,1-.76,6.28A18.48,18.48,0,0,1,20.6,62a8.63,8.63,0,0,1-.81,1.61,3.34,3.34,0,0,1-2.62,1.83,3.34,3.34,0,0,1-2.62-1.83,8.52,8.52,0,0,1-.8-1.57,18.48,18.48,0,0,1-.81-2.88,39.62,39.62,0,0,1-.77-6.28A16.82,16.82,0,0,1,12.84,47.6Z"/><path class="cls-140" d="M12.86,47.64c1-3.61,2.24-4.36,4.31-4.36s3.33.75,4.31,4.36a16.64,16.64,0,0,1,.67,5.22,39.39,39.39,0,0,1-.77,6.25,19.93,19.93,0,0,1-.8,2.87,8.63,8.63,0,0,1-.8,1.61,3.33,3.33,0,0,1-2.61,1.82,3.33,3.33,0,0,1-2.6-1.83,8.72,8.72,0,0,1-.8-1.56,19.41,19.41,0,0,1-.8-2.86,39.52,39.52,0,0,1-.77-6.26A16.9,16.9,0,0,1,12.86,47.64Z"/><path class="cls-141" d="M12.88,47.67c1-3.62,2.22-4.36,4.29-4.36s3.32.74,4.29,4.36a16.57,16.57,0,0,1,.66,5.2,39,39,0,0,1-.76,6.22,19.77,19.77,0,0,1-.8,2.86,8,8,0,0,1-.8,1.6,3.3,3.3,0,0,1-2.59,1.83,3.33,3.33,0,0,1-2.59-1.83A8.4,8.4,0,0,1,13.8,62a18.11,18.11,0,0,1-.8-2.85,39.14,39.14,0,0,1-.77-6.23A16.88,16.88,0,0,1,12.88,47.67Z"/><path class="cls-142" d="M12.9,47.71c1-3.64,2.21-4.38,4.27-4.38s3.31.74,4.28,4.38a16.8,16.8,0,0,1,.64,5.18,38.64,38.64,0,0,1-.76,6.19,18.34,18.34,0,0,1-.79,2.84,8.83,8.83,0,0,1-.79,1.6,3.31,3.31,0,0,1-2.58,1.82,3.3,3.3,0,0,1-2.57-1.82A8.4,8.4,0,0,1,13.82,62a19.1,19.1,0,0,1-.8-2.84,39.79,39.79,0,0,1-.76-6.2A17,17,0,0,1,12.9,47.71Z"/><path class="cls-143" d="M12.92,47.74c1-3.65,2.2-4.38,4.25-4.38s3.3.73,4.26,4.38a16.73,16.73,0,0,1,.63,5.16,38.26,38.26,0,0,1-.75,6.16,19.37,19.37,0,0,1-.79,2.83,8.41,8.41,0,0,1-.79,1.59,3.25,3.25,0,0,1-2.56,1.82,3.27,3.27,0,0,1-2.55-1.82,8,8,0,0,1-.78-1.55,18.86,18.86,0,0,1-.79-2.82,39.56,39.56,0,0,1-.76-6.17A17,17,0,0,1,12.92,47.74Z"/><path class="cls-144" d="M12.94,47.77c1-3.66,2.19-4.39,4.24-4.39s3.28.73,4.23,4.39A17,17,0,0,1,22,52.91,39.05,39.05,0,0,1,21.28,59a18.94,18.94,0,0,1-.78,2.82,8.73,8.73,0,0,1-.79,1.59,3.23,3.23,0,0,1-2.53,1.81,3.24,3.24,0,0,1-2.54-1.81,8.3,8.3,0,0,1-.78-1.55,19.13,19.13,0,0,1-.78-2.81A37.89,37.89,0,0,1,12.32,53,17.26,17.26,0,0,1,12.94,47.77Z"/><path class="cls-145" d="M13,47.81c.94-3.68,2.17-4.4,4.22-4.4s3.27.72,4.21,4.4A16.81,16.81,0,0,1,22,52.92,40,40,0,0,1,21.26,59a20.29,20.29,0,0,1-.78,2.8,8.31,8.31,0,0,1-.78,1.58,3.24,3.24,0,0,1-2.52,1.82,3.26,3.26,0,0,1-2.53-1.82,8.08,8.08,0,0,1-.76-1.53,19.25,19.25,0,0,1-.79-2.8A38.92,38.92,0,0,1,12.35,53,16.77,16.77,0,0,1,13,47.81Z"/><path class="cls-146" d="M13,47.84c.93-3.69,2.16-4.41,4.2-4.41s3.26.72,4.2,4.41a17.1,17.1,0,0,1,.6,5.09A37.15,37.15,0,0,1,21.23,59a19.25,19.25,0,0,1-.77,2.79,8.31,8.31,0,0,1-.78,1.58,3.2,3.2,0,0,1-2.5,1.81,3.22,3.22,0,0,1-2.51-1.81,8.08,8.08,0,0,1-.76-1.53,18,18,0,0,1-.78-2.79A38.54,38.54,0,0,1,12.38,53,16.75,16.75,0,0,1,13,47.84Z"/><path class="cls-147" d="M13,47.87c.92-3.7,2.15-4.41,4.18-4.41s3.25.71,4.18,4.41A16.71,16.71,0,0,1,22,52.94,38.16,38.16,0,0,1,21.21,59a19.45,19.45,0,0,1-.77,2.78,9.07,9.07,0,0,1-.77,1.56,3.2,3.2,0,0,1-2.49,1.81,3.19,3.19,0,0,1-2.49-1.81,8.29,8.29,0,0,1-.76-1.52A18.74,18.74,0,0,1,13.16,59,36.91,36.91,0,0,1,12.41,53,17,17,0,0,1,13,47.87Z"/><path class="cls-148" d="M13,47.91c.91-3.72,2.13-4.43,4.16-4.43s3.24.71,4.16,4.43a17.2,17.2,0,0,1,.59,5,38.82,38.82,0,0,1-.75,6,20.78,20.78,0,0,1-.76,2.77,9.07,9.07,0,0,1-.77,1.56,3.17,3.17,0,0,1-2.47,1.8,3.19,3.19,0,0,1-2.48-1.8A9,9,0,0,1,14,61.79,20.09,20.09,0,0,1,13.18,59a39,39,0,0,1-.75-6A17.11,17.11,0,0,1,13,47.91Z"/><path class="cls-149" d="M13,47.94c.91-3.73,2.13-4.43,4.15-4.43s3.23.71,4.14,4.43a17.12,17.12,0,0,1,.58,5,38.45,38.45,0,0,1-.74,6,20.19,20.19,0,0,1-.76,2.76,9,9,0,0,1-.76,1.55,3.14,3.14,0,0,1-2.46,1.8,3.15,3.15,0,0,1-2.46-1.8A7.87,7.87,0,0,1,14,61.76,18.27,18.27,0,0,1,13.21,59a38.59,38.59,0,0,1-.75-6A17.84,17.84,0,0,1,13,47.94Z"/><path class="cls-150" d="M13.05,48c.91-3.75,2.12-4.45,4.13-4.45s3.22.71,4.13,4.45a17.31,17.31,0,0,1,.56,5,38.35,38.35,0,0,1-.74,6,20.34,20.34,0,0,1-.75,2.74,9.33,9.33,0,0,1-.76,1.55A3.13,3.13,0,0,1,17.18,65a3.14,3.14,0,0,1-2.44-1.8A8.85,8.85,0,0,1,14,61.73,18.37,18.37,0,0,1,13.24,59a38.34,38.34,0,0,1-.75-6A17.61,17.61,0,0,1,13.05,48Z"/><path class="cls-151" d="M13.07,48c.9-3.75,2.11-4.45,4.11-4.45s3.21.7,4.11,4.45a17,17,0,0,1,.55,5,37.67,37.67,0,0,1-.73,5.94,18.37,18.37,0,0,1-.76,2.73,8.84,8.84,0,0,1-.74,1.54A3.13,3.13,0,0,1,17.18,65a3.14,3.14,0,0,1-2.43-1.8A9.41,9.41,0,0,1,14,61.71,19.09,19.09,0,0,1,13.26,59,39.17,39.17,0,0,1,12.52,53,17.54,17.54,0,0,1,13.07,48Z"/><path class="cls-152" d="M13.09,48c.89-3.76,2.09-4.46,4.09-4.46s3.2.7,4.09,4.46a17.55,17.55,0,0,1,.55,5,38.5,38.5,0,0,1-.74,5.91,18.64,18.64,0,0,1-.75,2.72,8.84,8.84,0,0,1-.74,1.54A3.08,3.08,0,0,1,17.18,65a3.12,3.12,0,0,1-2.41-1.79A9.41,9.41,0,0,1,14,61.68,20,20,0,0,1,13.29,59,38.47,38.47,0,0,1,12.55,53,17.52,17.52,0,0,1,13.09,48Z"/><path class="cls-153" d="M13.11,48.08c.88-3.78,2.08-4.47,4.07-4.47s3.19.69,4.08,4.47A17.77,17.77,0,0,1,21.79,53a38.39,38.39,0,0,1-.73,5.89,20.06,20.06,0,0,1-.75,2.7,8.73,8.73,0,0,1-.73,1.53,3.09,3.09,0,0,1-2.4,1.79,3.06,3.06,0,0,1-2.39-1.79,8.5,8.5,0,0,1-.72-1.48,17.48,17.48,0,0,1-.75-2.7,38.37,38.37,0,0,1-.74-5.9A17.33,17.33,0,0,1,13.11,48.08Z"/><path class="cls-154" d="M13.13,48.11c.87-3.79,2.07-4.48,4-4.48s3.18.69,4.06,4.48A17.37,17.37,0,0,1,21.76,53,37.85,37.85,0,0,1,21,58.88a18.25,18.25,0,0,1-.74,2.69,8.73,8.73,0,0,1-.73,1.53,3.07,3.07,0,0,1-2.38,1.79c-.88,0-1.69-.68-2.37-1.79a7.84,7.84,0,0,1-.72-1.48,19.48,19.48,0,0,1-.75-2.69,38,38,0,0,1-.73-5.87A17.63,17.63,0,0,1,13.13,48.11Z"/><path class="cls-155" d="M13.15,48.14c.86-3.8,2-4.49,4-4.49s3.17.69,4,4.49A17.3,17.3,0,0,1,21.73,53,38.7,38.7,0,0,1,21,58.86a19.4,19.4,0,0,1-.74,2.68,7.69,7.69,0,0,1-.73,1.52,3,3,0,0,1-2.36,1.79c-.87,0-1.68-.68-2.36-1.79a8.06,8.06,0,0,1-.71-1.47,19.4,19.4,0,0,1-.74-2.68,37.46,37.46,0,0,1-.73-5.83A17.63,17.63,0,0,1,13.15,48.14Z"/><path class="cls-156" d="M13.17,48.18c.85-3.82,2-4.5,4-4.5s3.15.68,4,4.5A17.83,17.83,0,0,1,21.71,53,37.21,37.21,0,0,1,21,58.85a19.72,19.72,0,0,1-.73,2.67A8.85,8.85,0,0,1,19.53,63c-.67,1.11-1.47,1.78-2.34,1.78s-1.68-.68-2.35-1.78a8.75,8.75,0,0,1-.71-1.47,19.15,19.15,0,0,1-.73-2.66,37.21,37.21,0,0,1-.73-5.81A17.82,17.82,0,0,1,13.17,48.18Z"/><path class="cls-157" d="M13.19,48.21c.84-3.83,2-4.51,4-4.51s3.15.68,4,4.51a17.88,17.88,0,0,1,.49,4.85A37.92,37.92,0,0,1,21,58.83a20,20,0,0,1-.73,2.66A9.23,9.23,0,0,1,19.51,63c-.66,1.1-1.46,1.77-2.32,1.77S15.53,64.1,14.86,63a7.63,7.63,0,0,1-.7-1.46,17.7,17.7,0,0,1-.73-2.65,36.83,36.83,0,0,1-.73-5.78A17.8,17.8,0,0,1,13.19,48.21Z"/><path class="cls-158" d="M13.2,48.25c.84-3.85,2-4.52,4-4.52s3.14.67,4,4.52a17.64,17.64,0,0,1,.48,4.82,37.53,37.53,0,0,1-.72,5.74,19.88,19.88,0,0,1-.72,2.65A8.74,8.74,0,0,1,19.5,63c-.66,1.1-1.46,1.77-2.31,1.77s-1.65-.67-2.32-1.77a8.51,8.51,0,0,1-.69-1.45,18.24,18.24,0,0,1-.73-2.64,37.79,37.79,0,0,1-.72-5.76A18,18,0,0,1,13.2,48.25Z"/><path class="cls-159" d="M13.22,48.28c.83-3.86,2-4.53,4-4.53s3.13.67,4,4.53a17.57,17.57,0,0,1,.47,4.8,38.71,38.71,0,0,1-.71,5.72,19.53,19.53,0,0,1-.72,2.63,9.11,9.11,0,0,1-.71,1.5C18.83,64,18,64.7,17.19,64.7s-1.64-.68-2.3-1.78a8.39,8.39,0,0,1-.69-1.44,19.53,19.53,0,0,1-.72-2.63,38.69,38.69,0,0,1-.73-5.73A18.34,18.34,0,0,1,13.22,48.28Z"/><path class="cls-160" d="M13.24,48.31c.82-3.87,2-4.53,4-4.53s3.12.66,3.94,4.53a17.91,17.91,0,0,1,.47,4.78,38.15,38.15,0,0,1-.72,5.69,21.06,21.06,0,0,1-.71,2.62,9.43,9.43,0,0,1-.7,1.49c-.66,1.1-1.44,1.77-2.28,1.77s-1.63-.67-2.28-1.77a9.21,9.21,0,0,1-.69-1.44,18.07,18.07,0,0,1-.71-2.62,38,38,0,0,1-.73-5.7A18.31,18.31,0,0,1,13.24,48.31Z"/><path class="cls-161" d="M13.26,48.35c.81-3.89,2-4.55,3.93-4.55s3.11.66,3.93,4.55a18.18,18.18,0,0,1,.45,4.75,39.22,39.22,0,0,1-.71,5.67,20.68,20.68,0,0,1-.71,2.6,9.43,9.43,0,0,1-.7,1.49C18.8,64,18,64.62,17.19,64.62s-1.61-.67-2.26-1.77a7.94,7.94,0,0,1-.68-1.43,19,19,0,0,1-.72-2.6,39.23,39.23,0,0,1-.72-5.67A18.54,18.54,0,0,1,13.26,48.35Z"/><path class="cls-162" d="M13.28,48.38c.8-3.9,2-4.55,3.91-4.55s3.1.66,3.91,4.55a18.1,18.1,0,0,1,.44,4.73,37.48,37.48,0,0,1-.71,5.64,19,19,0,0,1-.7,2.59,9.31,9.31,0,0,1-.69,1.48c-.65,1.1-1.42,1.76-2.25,1.76s-1.6-.67-2.25-1.76a8.69,8.69,0,0,1-.67-1.43,18.93,18.93,0,0,1-.71-2.59,37.49,37.49,0,0,1-.72-5.64A18.46,18.46,0,0,1,13.28,48.38Z"/><path class="cls-163" d="M13.3,48.41c.79-3.91,2-4.56,3.89-4.56s3.1.66,3.89,4.56a18.07,18.07,0,0,1,.43,4.71,36.92,36.92,0,0,1-.7,5.61,20.88,20.88,0,0,1-.7,2.58,9.31,9.31,0,0,1-.69,1.48c-.64,1.09-1.4,1.76-2.23,1.76S15.6,63.88,15,62.78a8.56,8.56,0,0,1-.67-1.42,17.36,17.36,0,0,1-.7-2.57,37.22,37.22,0,0,1-.72-5.62A18.44,18.44,0,0,1,13.3,48.41Z"/><path class="cls-164" d="M13.32,48.45c.78-3.92,1.95-4.57,3.87-4.57s3.09.65,3.87,4.57a17.87,17.87,0,0,1,.43,4.69,38.17,38.17,0,0,1-.71,5.58,19.5,19.5,0,0,1-.7,2.57,9.49,9.49,0,0,1-.67,1.46c-.64,1.09-1.4,1.76-2.22,1.76s-1.57-.67-2.21-1.76a9.27,9.27,0,0,1-.67-1.41,20.69,20.69,0,0,1-.7-2.57,38,38,0,0,1-.71-5.59A18.68,18.68,0,0,1,13.32,48.45Z"/><path class="cls-165" d="M13.34,48.48c.77-3.93,1.94-4.58,3.85-4.58s3.08.65,3.86,4.58a18.74,18.74,0,0,1,.41,4.67,39,39,0,0,1-.7,5.55,21,21,0,0,1-.7,2.56,10,10,0,0,1-.67,1.46c-.63,1.09-1.38,1.75-2.2,1.75s-1.56-.67-2.2-1.76a8.72,8.72,0,0,1-.65-1.4,17.55,17.55,0,0,1-.7-2.56,37.56,37.56,0,0,1-.71-5.56A18.61,18.61,0,0,1,13.34,48.48Z"/><path class="cls-166" d="M13.36,48.52c.76-4,1.92-4.59,3.83-4.59s3.07.64,3.84,4.59a18.58,18.58,0,0,1,.4,4.64,37,37,0,0,1-.7,5.52A18.82,18.82,0,0,1,20,61.23a8.51,8.51,0,0,1-.67,1.45c-.62,1.09-1.37,1.75-2.18,1.75s-1.55-.66-2.18-1.75a8.29,8.29,0,0,1-.65-1.4,19.06,19.06,0,0,1-.69-2.54A37.29,37.29,0,0,1,13,53.2,18,18,0,0,1,13.36,48.52Z"/><path class="cls-167" d="M13.38,48.55c.75-4,1.91-4.6,3.81-4.6s3.06.64,3.82,4.6a18.46,18.46,0,0,1,.4,4.62,38.28,38.28,0,0,1-.7,5.5A18.89,18.89,0,0,1,20,61.2a9.37,9.37,0,0,1-.66,1.45c-.62,1.08-1.36,1.74-2.17,1.74s-1.54-.66-2.16-1.75a7.82,7.82,0,0,1-.65-1.39,18.89,18.89,0,0,1-.69-2.53,38.28,38.28,0,0,1-.7-5.5A18.41,18.41,0,0,1,13.38,48.55Z"/><path class="cls-168" d="M13.39,48.58c.75-4,1.91-4.6,3.8-4.6s3.06.63,3.81,4.6a18.91,18.91,0,0,1,.38,4.6,37.87,37.87,0,0,1-.7,5.47A18.8,18.8,0,0,1,20,61.17a9.23,9.23,0,0,1-.66,1.44c-.62,1.09-1.35,1.75-2.15,1.75s-1.52-.67-2.14-1.75a7.82,7.82,0,0,1-.65-1.39,20.24,20.24,0,0,1-.68-2.51,37.82,37.82,0,0,1-.7-5.48A18.9,18.9,0,0,1,13.39,48.58Z"/><path class="cls-169" d="M13.41,48.62c.74-4,1.89-4.62,3.79-4.62s3,.63,3.78,4.62a19.21,19.21,0,0,1,.37,4.57,38.7,38.7,0,0,1-.69,5.44A20.24,20.24,0,0,1,20,61.14a9.25,9.25,0,0,1-.65,1.44c-.62,1.08-1.35,1.74-2.13,1.74s-1.52-.66-2.14-1.75a7.71,7.71,0,0,1-.63-1.38,17.1,17.1,0,0,1-.68-2.5,37.41,37.41,0,0,1-.7-5.45A19.19,19.19,0,0,1,13.41,48.62Z"/><path class="cls-170" d="M13.43,48.65c.73-4,1.88-4.62,3.77-4.62s3,.62,3.76,4.62a18.63,18.63,0,0,1,.36,4.55,37,37,0,0,1-.69,5.42A18.78,18.78,0,0,1,20,61.11a8,8,0,0,1-.65,1.43c-.61,1.08-1.33,1.74-2.11,1.74s-1.51-.66-2.12-1.74a8.48,8.48,0,0,1-.63-1.38,17.89,17.89,0,0,1-.68-2.49,38.41,38.41,0,0,1-.7-5.42A19.58,19.58,0,0,1,13.43,48.65Z"/><path class="cls-171" d="M13.45,48.69c.71-4,1.87-4.64,3.75-4.64s3,.62,3.74,4.64a19,19,0,0,1,.36,4.53,38,38,0,0,1-.7,5.38,18.29,18.29,0,0,1-.66,2.48,9.56,9.56,0,0,1-.64,1.43c-.61,1.07-1.33,1.73-2.1,1.73s-1.49-.66-2.1-1.73a8.76,8.76,0,0,1-.63-1.37,20.26,20.26,0,0,1-.67-2.48,38.13,38.13,0,0,1-.7-5.4A19.37,19.37,0,0,1,13.45,48.69Z"/><path class="cls-172" d="M13.47,48.72c.7-4,1.86-4.64,3.73-4.64s3,.61,3.73,4.64a19.47,19.47,0,0,1,.34,4.51,37.76,37.76,0,0,1-.69,5.36,18.35,18.35,0,0,1-.66,2.46,9,9,0,0,1-.64,1.42c-.6,1.08-1.31,1.74-2.08,1.74s-1.48-.66-2.09-1.74a10.21,10.21,0,0,1-.62-1.36,18.52,18.52,0,0,1-.66-2.47,37.52,37.52,0,0,1-.7-5.37A19.83,19.83,0,0,1,13.47,48.72Z"/><path class="cls-173" d="M13.49,48.75c.69-4,1.84-4.65,3.71-4.65s3,.61,3.71,4.65a19.39,19.39,0,0,1,.33,4.49,36,36,0,0,1-.69,5.33A20.59,20.59,0,0,1,19.9,61a10.4,10.4,0,0,1-.63,1.41c-.6,1.07-1.31,1.73-2.07,1.73s-1.47-.66-2.07-1.73a9.08,9.08,0,0,1-.61-1.36,20.19,20.19,0,0,1-.67-2.45,39,39,0,0,1-.69-5.34A19.8,19.8,0,0,1,13.49,48.75Z"/><path class="cls-174" d="M13.51,48.79c.68-4.06,1.83-4.66,3.69-4.66s3,.6,3.69,4.66a19.22,19.22,0,0,1,.32,4.46,36.92,36.92,0,0,1-.68,5.3A20.4,20.4,0,0,1,19.88,61a8.74,8.74,0,0,1-.63,1.4c-.59,1.07-1.29,1.73-2.05,1.73s-1.46-.66-2-1.73a8.52,8.52,0,0,1-.61-1.35,18,18,0,0,1-.66-2.44,38.34,38.34,0,0,1-.69-5.31A19.08,19.08,0,0,1,13.51,48.79Z"/><path class="cls-175" d="M13.53,48.82c.67-4.07,1.82-4.67,3.67-4.67s3,.6,3.67,4.67a19.64,19.64,0,0,1,.32,4.44,37.9,37.9,0,0,1-.69,5.28A18.84,18.84,0,0,1,19.86,61a10.27,10.27,0,0,1-.62,1.4c-.59,1.07-1.29,1.72-2,1.72s-1.44-.66-2-1.72a10.08,10.08,0,0,1-.6-1.35,19.52,19.52,0,0,1-.65-2.43,37.9,37.9,0,0,1-.69-5.28A19.54,19.54,0,0,1,13.53,48.82Z"/><path class="cls-176" d="M13.55,48.85c.66-4.08,1.8-4.67,3.65-4.67s3,.59,3.66,4.67a20.22,20.22,0,0,1,.3,4.42,37.47,37.47,0,0,1-.68,5.25,19.92,19.92,0,0,1-.64,2.42,9.6,9.6,0,0,1-.62,1.39c-.59,1.07-1.27,1.72-2,1.72s-1.43-.65-2-1.72a9.39,9.39,0,0,1-.6-1.34,18.07,18.07,0,0,1-.64-2.41,37.42,37.42,0,0,1-.69-5.26A19.46,19.46,0,0,1,13.55,48.85Z"/><path class="cls-177" d="M13.56,48.89c.65-4.1,1.8-4.69,3.64-4.69s3,.6,3.64,4.69a19.44,19.44,0,0,1,.29,4.39,35.64,35.64,0,0,1-.68,5.22,18.07,18.07,0,0,1-.64,2.41,8.64,8.64,0,0,1-.61,1.39c-.58,1.06-1.26,1.72-2,1.72s-1.42-.66-2-1.72A8.41,8.41,0,0,1,14.61,61a17.41,17.41,0,0,1-.65-2.4,38.52,38.52,0,0,1-.68-5.23A20.53,20.53,0,0,1,13.56,48.89Z"/><path class="cls-178" d="M13.58,48.92c.64-4.11,1.79-4.69,3.62-4.69s3,.59,3.62,4.69a19.36,19.36,0,0,1,.28,4.38,36.81,36.81,0,0,1-.67,5.19,19.34,19.34,0,0,1-.64,2.39,8.93,8.93,0,0,1-.6,1.38c-.58,1.07-1.25,1.72-2,1.72s-1.4-.66-2-1.72a7.7,7.7,0,0,1-.59-1.32A19.84,19.84,0,0,1,14,58.55a36.91,36.91,0,0,1-.68-5.21A20.44,20.44,0,0,1,13.58,48.92Z"/><path class="cls-179" d="M13.6,49c.63-4.12,1.78-4.71,3.6-4.71s3,.59,3.61,4.71a21,21,0,0,1,.27,4.35,37.7,37.7,0,0,1-.68,5.16,17.63,17.63,0,0,1-.63,2.38,8.93,8.93,0,0,1-.6,1.38c-.57,1.06-1.24,1.71-2,1.71s-1.39-.65-2-1.71a8.57,8.57,0,0,1-.58-1.32A18,18,0,0,1,14,58.53a35,35,0,0,1-.68-5.17A20.31,20.31,0,0,1,13.6,49Z"/><path class="cls-180" d="M13.62,49c.62-4.13,1.76-4.71,3.58-4.71s3,.58,3.59,4.71a20.32,20.32,0,0,1,.26,4.33,37.06,37.06,0,0,1-.67,5.13,17.87,17.87,0,0,1-.63,2.37,9.38,9.38,0,0,1-.59,1.37c-.57,1.06-1.24,1.71-2,1.71s-1.38-.65-1.95-1.71a9,9,0,0,1-.58-1.31A21.59,21.59,0,0,1,14,58.51a35.74,35.74,0,0,1-.67-5.14A20.88,20.88,0,0,1,13.62,49Z"/><path class="cls-181" d="M13.64,49c.61-4.14,1.75-4.72,3.57-4.72s2.95.58,3.56,4.72A20.23,20.23,0,0,1,21,53.33a37,37,0,0,1-.67,5.11,20,20,0,0,1-.62,2.36,10.27,10.27,0,0,1-.59,1.36c-.56,1.06-1.22,1.71-1.93,1.71s-1.38-.66-1.94-1.71a8.88,8.88,0,0,1-.57-1.31,17.53,17.53,0,0,1-.63-2.35,37.12,37.12,0,0,1-.68-5.12A20.72,20.72,0,0,1,13.64,49Z"/><path class="cls-182" d="M13.66,49.06c.59-4.16,1.74-4.73,3.55-4.73s2.94.57,3.54,4.73A20,20,0,0,1,21,53.34a36.54,36.54,0,0,1-.66,5.08,19.77,19.77,0,0,1-.62,2.35,9.59,9.59,0,0,1-.58,1.35c-.56,1.06-1.22,1.71-1.92,1.71s-1.36-.65-1.93-1.71a9.39,9.39,0,0,1-.56-1.3,17.44,17.44,0,0,1-.62-2.34,36.48,36.48,0,0,1-.68-5.09A20.53,20.53,0,0,1,13.66,49.06Z"/><path class="cls-183" d="M13.68,49.09c.58-4.17,1.72-4.74,3.53-4.74s2.94.57,3.53,4.74A21.35,21.35,0,0,1,21,53.35a36.25,36.25,0,0,1-.67,5.06,19.48,19.48,0,0,1-.61,2.33,8.55,8.55,0,0,1-.58,1.35c-.55,1-1.2,1.7-1.9,1.7s-1.35-.65-1.91-1.7a9.39,9.39,0,0,1-.56-1.3,19.19,19.19,0,0,1-.62-2.32,38,38,0,0,1-.67-5.07A21.09,21.09,0,0,1,13.68,49.09Z"/><path class="cls-184" d="M13.7,49.12c.57-4.18,1.71-4.74,3.51-4.74s2.93.56,3.51,4.74a21.25,21.25,0,0,1,.22,4.24,37.15,37.15,0,0,1-.66,5,19.29,19.29,0,0,1-.61,2.32,10.16,10.16,0,0,1-.57,1.35c-.55,1-1.2,1.69-1.89,1.69s-1.34-.65-1.89-1.7a9.08,9.08,0,0,1-.56-1.28,19.29,19.29,0,0,1-.61-2.32,37.3,37.3,0,0,1-.67-5A21,21,0,0,1,13.7,49.12Z"/><path class="cls-185" d="M13.72,49.16c.56-4.2,1.7-4.76,3.49-4.76s2.93.56,3.49,4.76a21,21,0,0,1,.21,4.21,36.71,36.71,0,0,1-.66,5,19.2,19.2,0,0,1-.6,2.31A9.47,9.47,0,0,1,19.08,62c-.55,1-1.18,1.69-1.87,1.69s-1.32-.64-1.87-1.69a9.63,9.63,0,0,1-.56-1.28,21.28,21.28,0,0,1-.6-2.31,36.71,36.71,0,0,1-.67-5A20.85,20.85,0,0,1,13.72,49.16Z"/><path class="cls-186" d="M13.74,49.19c.54-4.21,1.69-4.76,3.47-4.76s2.92.55,3.47,4.76a21,21,0,0,1,.2,4.2,38.12,38.12,0,0,1-.65,5,21.46,21.46,0,0,1-.6,2.29A8.85,8.85,0,0,1,19.06,62c-.54,1-1.17,1.69-1.85,1.69S15.9,63,15.35,62a9,9,0,0,1-.54-1.27,19.22,19.22,0,0,1-.61-2.29,36.63,36.63,0,0,1-.66-5A21.49,21.49,0,0,1,13.74,49.19Z"/><path class="cls-187" d="M13.75,49.23c.54-4.23,1.68-4.78,3.46-4.78s2.92.55,3.46,4.78a21.54,21.54,0,0,1,.19,4.17,37.66,37.66,0,0,1-.66,4.94,19.22,19.22,0,0,1-.59,2.28A9.86,9.86,0,0,1,19.05,62c-.54,1-1.16,1.69-1.84,1.69S15.91,63,15.37,62a9,9,0,0,1-.54-1.27,21.24,21.24,0,0,1-.6-2.28,36,36,0,0,1-.66-4.95A22.11,22.11,0,0,1,13.75,49.23Z"/><path class="cls-188" d="M13.77,49.26c.53-4.24,1.67-4.78,3.44-4.78s2.91.54,3.44,4.78a21.44,21.44,0,0,1,.18,4.15,37.21,37.21,0,0,1-.65,4.91,20.54,20.54,0,0,1-.59,2.27A9.86,9.86,0,0,1,19,61.92c-.53,1-1.15,1.68-1.82,1.68s-1.29-.64-1.82-1.69a8.83,8.83,0,0,1-.54-1.26,18.83,18.83,0,0,1-.59-2.26,35.69,35.69,0,0,1-.66-4.93A21.26,21.26,0,0,1,13.77,49.26Z"/><path class="cls-189" d="M13.79,49.29c.51-4.25,1.66-4.79,3.42-4.79s2.91.54,3.42,4.79a21.34,21.34,0,0,1,.17,4.13,36.68,36.68,0,0,1-.65,4.89,21.69,21.69,0,0,1-.58,2.26A11,11,0,0,1,19,61.88c-.53,1-1.14,1.68-1.81,1.68s-1.27-.64-1.81-1.68a10.87,10.87,0,0,1-.53-1.26,20.71,20.71,0,0,1-.59-2.25,36.83,36.83,0,0,1-.65-4.9A21.94,21.94,0,0,1,13.79,49.29Z"/><path class="cls-190" d="M13.81,49.33c.5-4.27,1.64-4.8,3.4-4.8s2.9.53,3.4,4.8a21.09,21.09,0,0,1,.16,4.1,36.24,36.24,0,0,1-.64,4.86,19.15,19.15,0,0,1-.59,2.25A8.91,8.91,0,0,1,19,61.85c-.52,1-1.13,1.68-1.79,1.68s-1.26-.65-1.79-1.69a8.73,8.73,0,0,1-.52-1.25,18,18,0,0,1-.59-2.24,36.17,36.17,0,0,1-.65-4.87A21.69,21.69,0,0,1,13.81,49.33Z"/><path class="cls-191" d="M13.83,49.36c.49-4.28,1.63-4.81,3.38-4.81s2.9.54,3.39,4.81a22.69,22.69,0,0,1,.15,4.08,37.46,37.46,0,0,1-.65,4.83,19,19,0,0,1-.58,2.24,9.47,9.47,0,0,1-.53,1.3c-.52,1-1.13,1.68-1.78,1.68s-1.25-.64-1.77-1.68a9.64,9.64,0,0,1-.52-1.24,18.85,18.85,0,0,1-.58-2.23,36.15,36.15,0,0,1-.65-4.84A21.69,21.69,0,0,1,13.83,49.36Z"/><path class="cls-192" d="M13.85,49.39c.47-4.28,1.62-4.81,3.36-4.81s2.89.53,3.37,4.81a22.62,22.62,0,0,1,.14,4.06,39,39,0,0,1-.64,4.81,19.18,19.18,0,0,1-.58,2.22,9.47,9.47,0,0,1-.53,1.3c-.51,1-1.11,1.67-1.76,1.67s-1.24-.64-1.75-1.68a8.92,8.92,0,0,1-.52-1.23,20.8,20.8,0,0,1-.58-2.22,39,39,0,0,1-.65-4.81A23.27,23.27,0,0,1,13.85,49.39Z"/><path class="cls-193" d="M13.87,49.43c.46-4.3,1.61-4.83,3.35-4.83s2.88.53,3.34,4.83a22.43,22.43,0,0,1,.13,4,35.12,35.12,0,0,1-.64,4.77,20.7,20.7,0,0,1-.57,2.21A11.51,11.51,0,0,1,19,61.74c-.52,1-1.11,1.67-1.74,1.67s-1.23-.64-1.75-1.67A10.4,10.4,0,0,1,15,60.51a21.12,21.12,0,0,1-.57-2.2,36.84,36.84,0,0,1-.65-4.79A23,23,0,0,1,13.87,49.43Z"/><path class="cls-194" d="M13.89,49.46c.44-4.31,1.59-4.83,3.33-4.83s2.87.52,3.33,4.83a22.4,22.4,0,0,1,.11,4A36.46,36.46,0,0,1,20,58.23a20.9,20.9,0,0,1-.57,2.19,9.88,9.88,0,0,1-.52,1.29c-.51,1-1.09,1.66-1.72,1.66S16,62.74,15.49,61.7a8.82,8.82,0,0,1-.5-1.22,20.9,20.9,0,0,1-.57-2.19,36.38,36.38,0,0,1-.65-4.76A22.93,22.93,0,0,1,13.89,49.46Z"/><path class="cls-195" d="M13.91,49.5c.43-4.33,1.58-4.85,3.31-4.85s2.87.52,3.31,4.85a23,23,0,0,1,.11,4A37.52,37.52,0,0,1,20,58.21a18.58,18.58,0,0,1-.56,2.18,10.66,10.66,0,0,1-.51,1.28c-.51,1-1.09,1.67-1.71,1.67S16,62.7,15.51,61.67a8.82,8.82,0,0,1-.5-1.22,18.08,18.08,0,0,1-.56-2.18,35.69,35.69,0,0,1-.65-4.73A23.64,23.64,0,0,1,13.91,49.5Z"/><path class="cls-196" d="M13.92,49.53c.42-4.34,1.58-4.85,3.3-4.85s2.87.51,3.29,4.85a24,24,0,0,1,.1,4A39,39,0,0,1,20,58.19a20,20,0,0,1-.56,2.17,11.37,11.37,0,0,1-.51,1.28c-.5,1-1.07,1.66-1.69,1.66s-1.19-.64-1.7-1.67A9.48,9.48,0,0,1,15,60.42a20.35,20.35,0,0,1-.56-2.16,37.12,37.12,0,0,1-.64-4.71A23.63,23.63,0,0,1,13.92,49.53Z"/><path class="cls-197" d="M13.94,49.56c.41-4.35,1.57-4.86,3.28-4.86s2.86.51,3.27,4.86a22.8,22.8,0,0,1,.09,3.95A37,37,0,0,1,20,58.18a20.9,20.9,0,0,1-.55,2.15,9.06,9.06,0,0,1-.51,1.27c-.49,1-1.06,1.66-1.67,1.66S16,62.63,15.54,61.6a10.85,10.85,0,0,1-.49-1.21,19.65,19.65,0,0,1-.55-2.15,36.73,36.73,0,0,1-.64-4.67A23.57,23.57,0,0,1,13.94,49.56Z"/><path class="cls-198" d="M14,49.6c.4-4.37,1.55-4.87,3.26-4.87s2.86.5,3.26,4.87a23.69,23.69,0,0,1,.07,3.92,36,36,0,0,1-.62,4.64c-.17.79-.35,1.52-.55,2.15a9.45,9.45,0,0,1-.5,1.26c-.49,1-1.05,1.65-1.66,1.65s-1.17-.63-1.66-1.66a8.92,8.92,0,0,1-.48-1.19,18.41,18.41,0,0,1-.55-2.14,36.41,36.41,0,0,1-.64-4.65A24.38,24.38,0,0,1,14,49.6Z"/><path class="cls-199" d="M14,49.63c.38-4.38,1.54-4.88,3.24-4.88s2.86.5,3.24,4.88a24.6,24.6,0,0,1,.07,3.9,37.37,37.37,0,0,1-.63,4.61,20.8,20.8,0,0,1-.54,2.14,9.29,9.29,0,0,1-.5,1.25c-.48,1-1,1.66-1.64,1.66s-1.16-.64-1.65-1.66a10.55,10.55,0,0,1-.47-1.19,20.45,20.45,0,0,1-.55-2.13,37.8,37.8,0,0,1-.63-4.62A24.27,24.27,0,0,1,14,49.63Z"/><path class="cls-200" d="M14,49.66c.37-4.39,1.53-4.88,3.22-4.88s2.85.49,3.22,4.88a23.43,23.43,0,0,1,.06,3.89,37.42,37.42,0,0,1-.62,4.58,21,21,0,0,1-.54,2.12,11.66,11.66,0,0,1-.49,1.25c-.48,1-1,1.65-1.63,1.65s-1.14-.63-1.63-1.65c-.16-.36-.32-.75-.47-1.19a20.35,20.35,0,0,1-.54-2.12A37,37,0,0,1,14,53.6,24.13,24.13,0,0,1,14,49.66Z"/><path class="cls-201" d="M14,49.7c.35-4.41,1.51-4.9,3.2-4.9s2.85.49,3.2,4.9a23.17,23.17,0,0,1,0,3.86,36.67,36.67,0,0,1-.62,4.55c-.16.78-.34,1.49-.53,2.11a10.69,10.69,0,0,1-.49,1.24c-.47,1-1,1.65-1.61,1.65s-1.13-.63-1.61-1.65a12.61,12.61,0,0,1-.47-1.18c-.19-.62-.37-1.33-.53-2.1A34.94,34.94,0,0,1,14,53.61,25,25,0,0,1,14,49.7Z"/><path class="cls-202" d="M14,49.73c.34-4.41,1.5-4.9,3.18-4.9s2.85.49,3.19,4.9a26.79,26.79,0,0,1,0,3.84,40.34,40.34,0,0,1-.62,4.52c-.16.78-.34,1.48-.53,2.1a11.51,11.51,0,0,1-.48,1.24c-.47,1-1,1.64-1.6,1.64s-1.12-.63-1.59-1.64a8.81,8.81,0,0,1-.46-1.18,19.69,19.69,0,0,1-.54-2.09A36.25,36.25,0,0,1,14,53.62,24.89,24.89,0,0,1,14,49.73Z"/><path class="cls-203" d="M14.06,49.77c.32-4.43,1.49-4.92,3.16-4.92s2.84.49,3.17,4.92a26.46,26.46,0,0,1,0,3.81,37.81,37.81,0,0,1-.62,4.5,20.23,20.23,0,0,1-.53,2.08,9.06,9.06,0,0,1-.47,1.23c-.47,1-1,1.64-1.58,1.64s-1.11-.62-1.58-1.64a9.58,9.58,0,0,1-.45-1.17,20,20,0,0,1-.53-2.07A38,38,0,0,1,14,53.64,24.62,24.62,0,0,1,14.06,49.77Z"/><path class="cls-204" d="M14.08,49.8c.3-4.44,1.48-4.92,3.14-4.92s2.84.48,3.15,4.92a25,25,0,0,1,0,3.79,35.13,35.13,0,0,1-.62,4.47,17.83,17.83,0,0,1-.52,2.07,10.68,10.68,0,0,1-.46,1.23c-.47,1-1,1.64-1.57,1.64s-1.09-.63-1.56-1.64a10.84,10.84,0,0,1-.45-1.16,20.12,20.12,0,0,1-.52-2.07,37.17,37.17,0,0,1-.63-4.48A25.76,25.76,0,0,1,14.08,49.8Z"/><path class="cls-205" d="M14.09,49.83c.3-4.45,1.47-4.93,3.13-4.93s2.84.48,3.13,4.93a24.8,24.8,0,0,1,0,3.77,37,37,0,0,1-.61,4.45,19.68,19.68,0,0,1-.52,2.05,10.48,10.48,0,0,1-.46,1.22c-.46,1-1,1.64-1.55,1.64s-1.08-.63-1.54-1.64a10.63,10.63,0,0,1-.45-1.15c-.19-.61-.36-1.3-.52-2.06a38.77,38.77,0,0,1-.62-4.45A27.12,27.12,0,0,1,14.09,49.83Z"/><path class="cls-206" d="M14.11,49.87c.28-4.47,1.46-4.94,3.12-4.94s2.83.47,3.11,4.94a27.37,27.37,0,0,1,0,3.74A38.56,38.56,0,0,1,19.72,58a20.46,20.46,0,0,1-.51,2,11.07,11.07,0,0,1-.45,1.21c-.46,1-1,1.63-1.53,1.63s-1.08-.62-1.54-1.63a10.74,10.74,0,0,1-.43-1.15,19.46,19.46,0,0,1-.52-2,38.42,38.42,0,0,1-.62-4.43A26.8,26.8,0,0,1,14.11,49.87Z"/><path class="cls-207" d="M14.13,49.9c.27-4.48,1.45-4.95,3.1-4.95s2.82.47,3.09,4.95a25.83,25.83,0,0,1,0,3.73A37.87,37.87,0,0,1,19.7,58a20.23,20.23,0,0,1-.51,2,10.87,10.87,0,0,1-.45,1.2c-.45,1-1,1.63-1.51,1.63s-1.07-.62-1.52-1.63a10.53,10.53,0,0,1-.43-1.14,20,20,0,0,1-.51-2,37.9,37.9,0,0,1-.62-4.4A28.2,28.2,0,0,1,14.13,49.9Z"/><path class="cls-208" d="M14.15,49.93c.25-4.49,1.43-5,3.08-5s2.82.46,3.07,5a27.17,27.17,0,0,1,0,3.71A37.52,37.52,0,0,1,19.67,58a19.89,19.89,0,0,1-.5,2,10.87,10.87,0,0,1-.45,1.2c-.44,1-.95,1.63-1.49,1.63s-1.05-.63-1.5-1.63a10.53,10.53,0,0,1-.43-1.14c-.18-.6-.35-1.28-.51-2a40.17,40.17,0,0,1-.61-4.38A28,28,0,0,1,14.15,49.93Z"/><path class="cls-209" d="M14.17,50c.23-4.51,1.42-5,3.06-5s2.82.46,3.06,5a28.66,28.66,0,0,1,0,3.68,37,37,0,0,1-.6,4.33c-.15.73-.32,1.41-.5,2-.14.44-.29.84-.44,1.2-.44,1-.94,1.62-1.48,1.62s-1-.63-1.48-1.63a11.76,11.76,0,0,1-.43-1.13c-.18-.59-.35-1.27-.5-2a36.87,36.87,0,0,1-.61-4.34A27.84,27.84,0,0,1,14.17,50Z"/><path class="cls-210" d="M14.19,50c.22-4.51,1.41-5,3-5s2.82.46,3,5a30.26,30.26,0,0,1,0,3.66,36.19,36.19,0,0,1-.61,4.3,19.56,19.56,0,0,1-.49,2,10.72,10.72,0,0,1-.44,1.19c-.43,1-.93,1.62-1.46,1.62s-1-.62-1.47-1.62c-.14-.34-.28-.71-.41-1.13a19.22,19.22,0,0,1-.5-2,36.36,36.36,0,0,1-.61-4.31A29.39,29.39,0,0,1,14.19,50Z"/><path class="cls-211" d="M14.21,50c.2-4.53,1.4-5,3-5s2.82.46,3,5a29.9,29.9,0,0,1-.05,3.63A38.35,38.35,0,0,1,19.6,58c-.15.72-.31,1.39-.49,2a10.79,10.79,0,0,1-.43,1.19c-.43,1-.92,1.61-1.45,1.61s-1-.62-1.45-1.62c-.14-.33-.28-.7-.41-1.11-.18-.59-.35-1.26-.5-2a38.21,38.21,0,0,1-.6-4.29A29,29,0,0,1,14.21,50Z"/><path class="cls-212" d="M14.23,50.07c.18-4.54,1.38-5,3-5s2.82.45,3,5a27.77,27.77,0,0,1-.06,3.61,37.49,37.49,0,0,1-.6,4.25,19.66,19.66,0,0,1-.48,2,10.59,10.59,0,0,1-.43,1.18c-.42,1-.91,1.61-1.43,1.61s-1-.62-1.43-1.61c-.14-.33-.28-.7-.41-1.11-.18-.59-.34-1.25-.49-2a37.67,37.67,0,0,1-.6-4.26A28.83,28.83,0,0,1,14.23,50.07Z"/><path class="cls-213" d="M14.25,50.1c.17-4.55,1.37-5,3-5s2.81.45,3,5a29.55,29.55,0,0,1-.08,3.59,39,39,0,0,1-.59,4.22c-.15.72-.31,1.38-.48,2a10.65,10.65,0,0,1-.42,1.18c-.43,1-.91,1.61-1.42,1.61s-1-.62-1.42-1.62c-.14-.33-.27-.69-.4-1.1-.17-.58-.34-1.24-.48-2a36.81,36.81,0,0,1-.6-4.23A28.57,28.57,0,0,1,14.25,50.1Z"/><path class="cls-214" d="M14.27,50.14c.15-4.57,1.36-5,3-5s2.81.44,3,5a31.21,31.21,0,0,1-.08,3.56,38.94,38.94,0,0,1-.6,4.2c-.14.7-.3,1.36-.47,2A10.25,10.25,0,0,1,18.63,61c-.42,1-.89,1.61-1.4,1.61s-1-.62-1.4-1.61a10.74,10.74,0,0,1-.39-1.1A19.66,19.66,0,0,1,15,58a38.74,38.74,0,0,1-.61-4.21A30,30,0,0,1,14.27,50.14Z"/><path class="cls-215" d="M14.28,50.17c.14-4.58,1.35-5,3-5s2.81.44,2.95,5a31.13,31.13,0,0,1-.09,3.55,41.24,41.24,0,0,1-.59,4.16c-.14.7-.3,1.36-.47,1.94-.13.42-.27.81-.41,1.16-.42,1-.89,1.6-1.39,1.6s-1-.62-1.38-1.61a9.75,9.75,0,0,1-.39-1.09c-.17-.58-.33-1.23-.48-1.93a41,41,0,0,1-.6-4.17A32.37,32.37,0,0,1,14.28,50.17Z"/><path class="cls-216" d="M14.3,50.2c.12-4.59,1.34-5,2.93-5s2.81.43,2.93,5a30.87,30.87,0,0,1-.1,3.53,38.19,38.19,0,0,1-.59,4.14c-.14.69-.29,1.34-.47,1.92a10.93,10.93,0,0,1-.4,1.15c-.41,1-.87,1.6-1.37,1.6s-.95-.61-1.36-1.6a10.53,10.53,0,0,1-.39-1.09c-.17-.57-.33-1.22-.47-1.91a41,41,0,0,1-.6-4.15A32,32,0,0,1,14.3,50.2Z"/><path class="cls-217" d="M14.32,50.24c.11-4.6,1.33-5,2.91-5s2.81.44,2.92,5a33.09,33.09,0,0,1-.12,3.5,37.31,37.31,0,0,1-.58,4.11c-.14.69-.3,1.33-.47,1.91a11,11,0,0,1-.39,1.15c-.41,1-.87,1.6-1.36,1.6s-.94-.62-1.35-1.61c-.13-.32-.26-.68-.38-1.07-.17-.58-.32-1.22-.46-1.91a37.1,37.1,0,0,1-.6-4.12A34.29,34.29,0,0,1,14.32,50.24Z"/><path class="cls-218" d="M14.34,50.27c.09-4.61,1.32-5,2.9-5s2.8.43,2.89,5A32.55,32.55,0,0,1,20,53.75a39.25,39.25,0,0,1-.59,4.08c-.14.69-.29,1.33-.46,1.9a10.79,10.79,0,0,1-.39,1.14c-.4,1-.85,1.6-1.33,1.6s-.94-.62-1.34-1.6a10.22,10.22,0,0,1-.37-1.07c-.17-.57-.33-1.21-.47-1.9a39.05,39.05,0,0,1-.59-4.09A33.89,33.89,0,0,1,14.34,50.27Z"/><path class="cls-219" d="M14.36,50.31c.07-4.63,1.3-5.06,2.88-5.06s2.8.43,2.87,5.06A32.15,32.15,0,0,1,20,53.76c-.13,1.38-.33,2.79-.58,4.06-.14.68-.29,1.31-.46,1.88a10.79,10.79,0,0,1-.39,1.14c-.39,1-.84,1.59-1.31,1.59s-.93-.61-1.32-1.6c-.13-.31-.25-.67-.37-1.06-.17-.57-.32-1.2-.46-1.88a38.66,38.66,0,0,1-.59-4.07A33.49,33.49,0,0,1,14.36,50.31Z"/><path class="cls-220" d="M14.38,50.34c0-4.64,1.29-5.06,2.86-5.06s2.8.42,2.86,5.06c0,1,0,2.22-.15,3.43a38.3,38.3,0,0,1-.58,4,19.07,19.07,0,0,1-.45,1.87c-.12.42-.25.8-.38,1.13-.39,1-.83,1.59-1.3,1.59s-.92-.61-1.31-1.59c-.12-.32-.24-.67-.36-1.06-.16-.56-.32-1.19-.45-1.87a38.08,38.08,0,0,1-.59-4A33.16,33.16,0,0,1,14.38,50.34Z"/><path class="cls-221" d="M14.4,50.37c0-4.65,1.28-5.07,2.84-5.07s2.8.42,2.84,5.07a31.5,31.5,0,0,1-.16,3.41,37.75,37.75,0,0,1-.57,4c-.14.67-.29,1.3-.45,1.86a10.64,10.64,0,0,1-.38,1.13c-.38,1-.82,1.58-1.28,1.58s-.9-.61-1.29-1.59q-.18-.46-.36-1c-.16-.56-.31-1.19-.45-1.85-.25-1.25-.45-2.65-.58-4A33,33,0,0,1,14.4,50.37Z"/><path class="cls-222" d="M14.42,50.41c0-4.67,1.26-5.08,2.82-5.08s2.8.41,2.82,5.08c0,1,0,2.2-.16,3.39a39.87,39.87,0,0,1-.58,4c-.13.66-.28,1.28-.44,1.84s-.24.79-.37,1.12c-.38,1-.81,1.59-1.27,1.59s-.89-.61-1.27-1.59c-.12-.31-.24-.67-.35-1a18.39,18.39,0,0,1-.45-1.84,39.65,39.65,0,0,1-.58-4A32.59,32.59,0,0,1,14.42,50.41Z"/><path class="cls-223" d="M20,50.44c0,4.67-1.25,11.84-2.8,11.84s-2.8-7.17-2.8-11.84,1.25-5.09,2.8-5.09S20,45.77,20,50.44Z"/><path class="cls-224" d="M30.48,37.4c0-.33-.08-.89-.2-1.6s-.29-1.34-.35-1.55c-.12-.43-.29-1-.44-1.42-.26-.75-.49-1.27-.51-1.32-.1-.23-.34-.76-.54-1.12l-.27-.48a7.58,7.58,0,0,0-.58-.87A7.4,7.4,0,0,0,27,28.3L26.72,28c-.36-.36-.43-.42-.61-.58s-.44-.34-.64-.48l-.34-.22-.36-.21-.71-.35a7.89,7.89,0,0,0-1.17-.43c-.15,0-.34-.08-.49-.1s-.45,0-.64,0a2.49,2.49,0,0,0-.75.15,2.71,2.71,0,0,0-.41.23,1.9,1.9,0,0,0-.21.19c.58-.6,1.65-.44,2.94.14,2.59,1.17,5.08,3.56,6.46,8.65,1.05,3.9.56,8-.45,9.36l.17-.24a4,4,0,0,0,.2-.35,6.57,6.57,0,0,0,.36-.93,12.9,12.9,0,0,0,.43-2.44c0-.32.06-.79.05-1.43A14.63,14.63,0,0,0,30.48,37.4Z"/><path class="cls-224" d="M29.79,35c-1.38-5.09-3.87-7.48-6.46-8.65-1.29-.58-2.36-.74-2.94-.14l-.3.31c.58-.61,1.65-.44,2.94.14,2.59,1.16,5.08,3.56,6.46,8.65,1.1,4.09.51,8.39-.6,9.54l.3-.31C30.3,43.34,30.89,39,29.79,35Z"/><path class="cls-225" d="M29.49,35.26c-1.38-5.09-3.87-7.49-6.46-8.65-1.29-.58-2.36-.75-2.94-.14a3.58,3.58,0,0,0-.29.39,2.59,2.59,0,0,0-.14.29,3.79,3.79,0,0,0-.14.48,3.93,3.93,0,0,0-.06.48c0,.14,0,.32,0,.45s0,.39,0,.56c0,.35.1.81.16,1.15a19.09,19.09,0,0,0,.66,2.52c.21.62.31.91.63,1.7s.52,1.22.77,1.76c.55,1.2,1.38,2.79,1.76,3.46l.91,1.58c.32.54.67,1.08.87,1.39l.41.64.63.89a7.19,7.19,0,0,0,.51.62,1.62,1.62,0,0,0,.53.37l.24.08.32,0a1.51,1.51,0,0,0,.37-.07,2.29,2.29,0,0,0,.23-.1,2.24,2.24,0,0,0,.43-.33C30,43.65,30.59,39.35,29.49,35.26Z"/><path class="cls-226" d="M23,26.61c-1.29-.58-2.36-.75-2.94-.14a3.58,3.58,0,0,0-.29.39,2.59,2.59,0,0,0-.14.29,3.79,3.79,0,0,0-.14.48,3.93,3.93,0,0,0-.06.48c0,.14,0,.32,0,.45s0,.39,0,.56,0,.11,0,.17A10.6,10.6,0,0,1,25,38a16.32,16.32,0,0,1-.16,4.19l.35.54.41.64.54.76c.17-.23.32-.48.45-.69a15.37,15.37,0,0,0,.93-1.91,18.13,18.13,0,0,0,.63-1.89c.07-.26.15-.59.21-.85s.15-.73.2-1.05a15.46,15.46,0,0,0,.21-1.88c0-.3,0-.7,0-1s0-.58,0-.84,0-.66-.07-.92A11,11,0,0,0,23,26.61Z"/><path class="cls-227" d="M28.52,32.47a8.53,8.53,0,0,0-.14-1.15,8.4,8.4,0,0,0-.22-.93c-.05-.12-.1-.28-.15-.4l-.16-.37a2.37,2.37,0,0,0-.19-.35c-.12-.2-.3-.46-.44-.65A4.15,4.15,0,0,0,27,28.3l-.3-.33L26,27.35,25.55,27c-.51-.38-.51-.38-.88-.63l-.48-.31-1-.62c-.89-.5-1.39-.75-1.69-.89-.63-.31-1.2-.51-1.21-.52l-1-.31-.59-.13a9.44,9.44,0,0,0-1.05-.14,8.56,8.56,0,0,0-2.39.19,10.37,10.37,0,0,0-1.2.37,10.62,10.62,0,0,0-1,.49l-.13.07-1.43.83c1.3-.75,3.4.11,5.77,1.47,3.93,2.28,7.12,5.09,7.11,10.72,0,4-1.64,8.35-4,9.72l1.43-.83a4.52,4.52,0,0,0,.84-.65,4.52,4.52,0,0,1-.84.65l.84-.54.61-.47a11.66,11.66,0,0,0,1.13-1.06,15.81,15.81,0,0,0,1-1.26,14.64,14.64,0,0,0,1.1-1.8,17.64,17.64,0,0,0,.82-1.83c.09-.24.21-.57.28-.82s.22-.72.31-1,.24-.95.39-1.85c.05-.29.1-.69.13-1s.05-.58.07-.83C28.56,33.34,28.53,32.79,28.52,32.47Z"/><path class="cls-228" d="M17.25,26.89c-2.37-1.36-4.47-2.22-5.77-1.47-.25.15-.57.36-.8.53s-.41.32-.58.47a8.41,8.41,0,0,0-.94,1A8.19,8.19,0,0,0,7.77,30c0,.18-.12.42-.16.6s-.14.7-.18,1a12.63,12.63,0,0,0-.08,1.42c0,1,.07,1.58.09,1.75s.06.62.1.88c.19,1.24.2,1.31.31,1.84.06.27.13.65.2.92.13.55.31,1.27.47,1.81.25.88.53,1.74.84,2.56A22.14,22.14,0,0,0,10.29,45a9.41,9.41,0,0,0,1,1.66,4.15,4.15,0,0,0,.66.73c.12.09.27.22.4.31a6.61,6.61,0,0,0,.68.39,5.68,5.68,0,0,0,1,.39,7.06,7.06,0,0,0,1.25.19,8,8,0,0,0,1.34,0,8.66,8.66,0,0,0,1.4-.28,7.3,7.3,0,0,0,.79-.26c.2-.07.45-.19.65-.27s.61-.32.88-.46c2.35-1.37,4-5.72,4-9.72C24.37,32,21.18,29.17,17.25,26.89Z"/><path class="cls-226" d="M9.15,32.63a4.09,4.09,0,0,0-1.79-.13c0,.25,0,.46,0,.55,0,1,.07,1.58.09,1.75s.06.62.1.88c.19,1.24.2,1.31.31,1.84.06.27.13.65.2.92.13.55.31,1.27.47,1.81.25.88.53,1.74.84,2.56A22.14,22.14,0,0,0,10.29,45a9.41,9.41,0,0,0,1,1.66,4.15,4.15,0,0,0,.66.73l.13.1a30.35,30.35,0,0,0,.84-4.29C13.74,36.05,11.81,33.39,9.15,32.63Z"/><g class="cls-2"><g class="cls-1"><path class="cls-229" d="M22.11,24c2.32,1.34,2.33,3.52,0,4.86a9.26,9.26,0,0,1-8.39,0c-2.32-1.34-2.34-3.52,0-4.86A9.28,9.28,0,0,1,22.11,24Z"/></g></g><path class="cls-228" d="M8.77,32.31l-.22,0Z"/><path class="cls-228" d="M2.82,52.92l-.24,0A.67.67,0,0,0,2.82,52.92Z"/><path class="cls-224" d="M12.17,36.23a3.26,3.26,0,0,0-.05-.45,6.68,6.68,0,0,0-.2-.8,4,4,0,0,0-.32-.72c-.11-.18-.28-.41-.41-.58a3.07,3.07,0,0,0-.25-.26,2.91,2.91,0,0,0-.27-.24c-.17-.13-.4-.29-.58-.4l-.55-.27c-.09,0-.22-.07-.31-.1a2.37,2.37,0,0,0-.36-.09h-.1a3.46,3.46,0,0,1,1.22.44c2,1.15,3,3.67.9,9.23C9,47,4.54,52.48,2.82,52.92L3,52.87c.1,0,.23-.1.33-.14a4.86,4.86,0,0,0,.76-.53A9.32,9.32,0,0,0,5,51.38l.48-.5L6,50.32c.16-.18.36-.43.51-.61.32-.4.72-1,1-1.36.16-.21.36-.51.52-.73.35-.51.78-1.22,1-1.56,0,0,.47-.77.91-1.63.16-.3.45-.87.79-1.67s.5-1.27.62-1.63c.24-.68.37-1.19.45-1.47s.18-.71.28-1.3c0-.17.06-.41.08-.58a5.27,5.27,0,0,0,0-.56A5.62,5.62,0,0,0,12.17,36.23Z"/><path class="cls-224" d="M10,32.75a3.31,3.31,0,0,0-1.44-.47H8.31a3.22,3.22,0,0,1,1.43.47c2,1.15,3,3.66.9,9.22-2,5.3-6.8,11.06-8.3,11h.24c1.51.1,6.31-5.66,8.31-11C13,36.42,12,33.9,10,32.75Z"/><path class="cls-228" d="M9.74,32.74a3.22,3.22,0,0,0-1.43-.47,3.23,3.23,0,0,0-.44,0,2.2,2.2,0,0,0-.37.06l-.36.11-.32.15a2.8,2.8,0,0,0-.34.21,4.7,4.7,0,0,0-.66.55,7.53,7.53,0,0,0-.64.76c-.1.15-.34.48-.64,1s-.45.86-.63,1.24-.44,1-.62,1.51c-.13.32-.28.77-.39,1.1s-.19.63-.26.9-.18.65-.25.93-.16.66-.21,1c-.12.57-.27,1.34-.37,1.92-.14.86-.24,1.68-.26,1.9-.05.5-.14,1.26-.17,1.81,0,.26,0,.6,0,.85s0,.56,0,.8v.74c0,.66.05,1.12.07,1.29a5.68,5.68,0,0,0,.17,1,2.06,2.06,0,0,0,.12.35,1.67,1.67,0,0,0,.21.33.48.48,0,0,0,.16.12,1.32,1.32,0,0,0,.3.09c1.5.09,6.3-5.67,8.3-11C12.74,36.4,11.73,33.89,9.74,32.74Z"/><path class="cls-230" d="M35,4.52A2.21,2.21,0,0,0,34.92,4a1.24,1.24,0,0,0-.1-.2l0-.07a1.46,1.46,0,0,0-.31-.23l-.23-.12-.38-.13c-.18-.05-.41-.11-.59-.14L32.77,3a4.19,4.19,0,0,0-.5,0c-.25,0-.58,0-.83,0l-.56,0-.46,0a11.25,11.25,0,0,0-1.19.22c-.14,0-.5.12-1.09.31-.26.09-.61.22-.86.33l-.49.23h0l-.11.06-.13.07-.25.13-.14.09c2.53-1.47,6.27-1.73,7.7-.91a1.37,1.37,0,0,1,.45.4c.95,1.43-.84,7.27-3.55,9.57a6.7,6.7,0,0,1-1,.69l.14-.08c.29-.17.47-.3.53-.34s.35-.26.54-.42l.57-.54c.14-.15.31-.35.44-.51s.43-.57.6-.82.28-.43.39-.61a16.29,16.29,0,0,0,.89-1.77c.13-.32.3-.75.42-1.08s.19-.59.35-1.14A11.74,11.74,0,0,0,35,5.34,4.5,4.5,0,0,0,35,4.52Z"/><path class="cls-231" d="M34.31,4a1.37,1.37,0,0,0-.45-.4c-1.43-.82-5.17-.56-7.7.91a6.75,6.75,0,0,0-1.08.75c-.16.13-.36.32-.51.47l-.46.51a5.46,5.46,0,0,0-.54.78l-.28.56a4,4,0,0,0-.17.49,4.86,4.86,0,0,0-.14.73,4.33,4.33,0,0,0,0,.71,4.58,4.58,0,0,0,.3,1.35,2.37,2.37,0,0,0,.13.34c.09.2.22.46.33.66s.13.23.19.33l.21.32c.05.08.11.16.16.25s.14.19.26.35l.27.32c.2.23.38.39.48.49a3.73,3.73,0,0,0,.94.64,2.34,2.34,0,0,0,.57.22,2.78,2.78,0,0,0,.55.1,3.38,3.38,0,0,0,1.18-.09l.32-.09.41-.16.31-.16.22-.12a6.7,6.7,0,0,0,1-.69C33.47,11.29,35.26,5.45,34.31,4Zm-4.46,9.4c-1.61,1.36-2.91,1.42-3.94.82a5.45,5.45,0,0,1-1.72-1.78c-1.34-2-1.78-4.22.76-6.41,2.36-2,6.87-2.45,8.34-1.6a.72.72,0,0,1,.18.14C34.13,5.49,32.5,11.18,29.85,13.42Z"/><path class="cls-232" d="M33.29,4.45a.72.72,0,0,1,.18.14c.66.9-1,6.59-3.62,8.83-1.61,1.36-2.91,1.42-3.94.82a5.45,5.45,0,0,1-1.72-1.78c-1.34-2-1.78-4.22.76-6.41C27.31,4,31.82,3.6,33.29,4.45Z"/><path class="cls-226" d="M32.62,11.57l0,0a13.7,13.7,0,0,0-.49-1.33,10.44,10.44,0,0,0-.76-1.44A11.4,11.4,0,0,0,30,6.86a12.25,12.25,0,0,0-1.4-1.3,10.49,10.49,0,0,0-.85-.64c-.23-.16-.55-.36-.79-.51l-.26-.16-.1.06-.25.13-.14.09a6.75,6.75,0,0,0-1.08.75c-.16.13-.36.32-.51.47l-.46.51a5.46,5.46,0,0,0-.54.78l-.28.56a4,4,0,0,0-.17.49,4.86,4.86,0,0,0-.14.73,4.33,4.33,0,0,0,0,.71,4.58,4.58,0,0,0,.3,1.35,2.37,2.37,0,0,0,.13.34c.09.2.22.46.33.66s.13.23.19.33l.21.32c.05.08.11.16.16.25s.14.19.26.35l.27.32c.2.23.38.39.48.49a3.73,3.73,0,0,0,.94.64,2.34,2.34,0,0,0,.57.22,2.78,2.78,0,0,0,.55.1,3.38,3.38,0,0,0,1.18-.09l.32-.09.41-.16.31-.16.22-.12.14-.08c.29-.17.47-.3.53-.34s.35-.26.54-.42l.57-.54c.14-.15.31-.35.44-.51S32.45,11.82,32.62,11.57Z"/><path class="cls-228" d="M32.69,14.49a11.57,11.57,0,0,0-.33-1.94,11.16,11.16,0,0,0-.59-1.68A9.84,9.84,0,0,0,31,9.43a11.53,11.53,0,0,0-1.46-1.91,14.25,14.25,0,0,0-1.39-1.3c-.25-.2-.6-.46-.86-.64s-.55-.35-.79-.51-.66-.37-.95-.52-.55-.26-.79-.37c-.58-.25-1.36-.52-1.67-.61s-.53-.15-.76-.2L21.6,3.2l-.75-.13L20.12,3c-.44,0-1-.07-1.45-.07-.22,0-.51,0-.72,0l-.73,0C17,3,16.7,3,16.48,3l-.76.12c-.23,0-.53.09-.75.15s-.59.13-.83.21c-.47.14-1.1.35-1.56.53-.29.11-.66.28-.94.42s-.56.29-.8.41-.73.44-1,.64l-.75.55A12.51,12.51,0,0,0,6.91,8.15c-.36.45-.78,1.1-1.09,1.59a11.22,11.22,0,0,0-1.11,2.65,10.57,10.57,0,0,0-.35,1.84c.71.07,1.19.64,1.79,1.67,1,1.64.84,4.46.19,4.77a1,1,0,0,1-.74-.12c0-.06.25.47.41.73a16,16,0,0,0,1.14,1.56c.28.33.69.73,1,1s.57.51.83.7c.44.34,1.06.77,1.54,1.07.27.17.66.37,1,.52s.55.26.79.37l.86.34.78.26s.61.19,1.54.38c.32.06.84.15,1.48.22.22,0,.51.05.73.05l.72,0h.73c.48,0,1.17-.09,1.46-.12s.93-.13,1.52-.26a15.8,15.8,0,0,0,1.6-.46c.28-.09.65-.23.92-.35l.8-.35a9.63,9.63,0,0,0,1.05-.57,16,16,0,0,0,1.54-1,10.38,10.38,0,0,0,1.07-.92,11.88,11.88,0,0,0,1.07-1.17A15.94,15.94,0,0,0,31.21,21,12.89,12.89,0,0,0,32,19.38c.12-.27.23-.64.32-.92s.19-.76.26-1.1.1-.68.13-1A12.05,12.05,0,0,0,32.69,14.49Z"/><path class="cls-233" d="M6.15,15.9c-.53-.9-1-1.45-1.54-1.62v0c0,.09,0,.17,0,.26v0a2.18,2.18,0,0,0,0,.25v0a1.93,1.93,0,0,0,0,.24A12.19,12.19,0,0,0,5,18.21,16.34,16.34,0,0,0,5.6,20l.08.18a.91.91,0,0,0,.07.14l0,0,.1.19h0a.3.3,0,0,0,0,.08.58.58,0,0,0,.43,0C7,20.36,7.11,17.54,6.15,15.9Z"/><path class="cls-226" d="M21.42,15.06a2,2,0,0,0,0-.56.79.79,0,0,0-.05-.22l0-.08a1.72,1.72,0,0,0-.24-.29l-.21-.16a4,4,0,0,0-.34-.22L20,13.28a3.61,3.61,0,0,0-.46-.17L19.07,13l-.81-.17-.57-.08-.45,0s-.5,0-1.22,0c-.14,0-.5,0-1.12.07-.28,0-.64.09-.91.14l-.53.13h0l-.11,0-.15,0-.27.08-.15,0a6.69,6.69,0,0,0-1.21.51A4.48,4.48,0,0,0,11,14c-.18.11-.4.27-.56.39a5.55,5.55,0,0,0-.7.66c-.12.14-.28.33-.39.48s-.19.3-.27.44a4.12,4.12,0,0,0-.29.69,3.69,3.69,0,0,0-.16.69,4.55,4.55,0,0,0,0,1.38l.06.36c0,.21.12.5.18.71l.11.37.14.36c0,.09.07.18.11.27s.09.22.18.4.13.25.19.38.29.46.36.57a4.25,4.25,0,0,0,.78.83,3.61,3.61,0,0,0,.52.34,3.06,3.06,0,0,0,.51.21,3.37,3.37,0,0,0,1.18.16l.33,0,.43-.07.34-.08.24-.08.16-.05a5.93,5.93,0,0,0,.58-.22,6.81,6.81,0,0,0,.62-.29l.67-.41c.17-.11.38-.27.54-.4s.54-.47.77-.68.36-.35.5-.51a14.75,14.75,0,0,0,1.25-1.54c.2-.28.46-.67.64-1s.31-.54.59-1.05a13.8,13.8,0,0,0,.65-1.52A5.72,5.72,0,0,0,21.42,15.06Z"/><path class="cls-230" d="M19.78,13.42a1.89,1.89,0,0,0-.1-.55,1.36,1.36,0,0,0-.1-.21l0-.06a1.65,1.65,0,0,0-.3-.23L19,12.25l-.38-.14L18,12a3.86,3.86,0,0,0-.49-.06l-.49,0h-.83l-.57,0-.45.06a11.66,11.66,0,0,0-1.2.22,10.31,10.31,0,0,0-1.08.31,8,8,0,0,0-.86.33c-.15.06-.33.15-.49.23h0l-.11.05-.13.07-.24.14-.15.08c2.53-1.47,6.27-1.73,7.71-.9a1.47,1.47,0,0,1,.45.4c1,1.43-.84,7.27-3.56,9.57a6.64,6.64,0,0,1-.95.69l.14-.08c.28-.17.46-.3.52-.34s.35-.26.54-.42.41-.38.57-.54.32-.35.44-.51.43-.57.61-.82.27-.43.38-.62a16.5,16.5,0,0,0,.89-1.76c.14-.32.31-.75.42-1.08s.2-.59.36-1.15a13.3,13.3,0,0,0,.31-1.62A5.67,5.67,0,0,0,19.78,13.42Z"/><path class="cls-231" d="M19.08,12.92a1.47,1.47,0,0,0-.45-.4c-1.44-.83-5.18-.57-7.71.9a7.27,7.27,0,0,0-1.07.76,5.68,5.68,0,0,0-.51.47c-.15.14-.33.35-.46.5a7.53,7.53,0,0,0-.55.79,4.83,4.83,0,0,0-.27.56,4.59,4.59,0,0,0-.17.48,3.38,3.38,0,0,0-.14.74,4.49,4.49,0,0,0,0,.7A5.48,5.48,0,0,0,8,19.78c0,.1.09.24.13.33l.33.67c.06.1.13.23.19.32l.21.33.17.25.26.35.27.32a5.48,5.48,0,0,0,.47.48,4.21,4.21,0,0,0,.94.65,3.42,3.42,0,0,0,.58.22,2.56,2.56,0,0,0,.54.1,3.27,3.27,0,0,0,1.19-.1,1.81,1.81,0,0,0,.31-.09c.13,0,.29-.11.41-.16l.32-.15.22-.12a6.64,6.64,0,0,0,.95-.69C18.24,20.19,20,14.35,19.08,12.92Zm-4.46,9.4c-1.61,1.36-2.91,1.42-3.95.82A5.66,5.66,0,0,1,9,21.36c-1.34-2-1.77-4.22.76-6.42,2.37-2,6.88-2.45,8.34-1.59a.61.61,0,0,1,.18.13C18.89,14.38,17.26,20.07,14.62,22.32Z"/><path class="cls-228" d="M18.05,13.35a.61.61,0,0,1,.18.13c.66.9-1,6.59-3.61,8.84-1.61,1.36-2.91,1.42-3.95.82A5.66,5.66,0,0,1,9,21.36c-1.34-2-1.77-4.22.76-6.42C12.08,12.94,16.59,12.49,18.05,13.35Z"/></g></g></svg>