<svg xmlns="http://www.w3.org/2000/svg" xmlns:xlink="http://www.w3.org/1999/xlink" viewBox="0 0 51.32 96.3"><defs><style>.cls-1{fill:#286992;}.cls-2{isolation:isolate;}.cls-227,.cls-231,.cls-3{mix-blend-mode:multiply;}.cls-231,.cls-4{fill:#e7e7e6;}.cls-5{fill:#ccc;}.cls-6{fill:#34759e;opacity:0;}.cls-7{fill:#35769e;opacity:0;}.cls-8{fill:#36769e;opacity:0.01;}.cls-9{fill:#37769e;opacity:0.01;}.cls-10{fill:#38779e;opacity:0.02;}.cls-11{fill:#39779f;opacity:0.02;}.cls-12{fill:#3a789f;opacity:0.03;}.cls-13{fill:#3b789f;opacity:0.03;}.cls-14{fill:#3b799f;opacity:0.04;}.cls-15{fill:#3c799f;opacity:0.04;}.cls-16{fill:#3d7a9f;opacity:0.05;}.cls-17{fill:#3e7aa0;opacity:0.05;}.cls-18{fill:#3f7aa0;opacity:0.06;}.cls-19{fill:#407ba0;opacity:0.06;}.cls-20{fill:#417ba0;opacity:0.06;}.cls-21{fill:#427ca0;opacity:0.07;}.cls-22{fill:#437ca0;opacity:0.07;}.cls-23{fill:#447da1;opacity:0.08;}.cls-24{fill:#457da1;opacity:0.08;}.cls-25{fill:#467ea1;opacity:0.09;}.cls-26{fill:#477ea1;opacity:0.09;}.cls-27{fill:#487fa1;opacity:0.1;}.cls-28{fill:#497fa2;opacity:0.1;}.cls-29{fill:#4a80a2;opacity:0.11;}.cls-30{fill:#4b80a2;opacity:0.11;}.cls-31{fill:#4c81a2;opacity:0.11;}.cls-32{fill:#4d81a2;opacity:0.12;}.cls-33{fill:#4d82a2;opacity:0.12;}.cls-34{fill:#4e82a3;opacity:0.13;}.cls-35{fill:#4f83a3;opacity:0.13;}.cls-36{fill:#5083a3;opacity:0.14;}.cls-37{fill:#5183a3;opacity:0.14;}.cls-38{fill:#5284a3;opacity:0.15;}.cls-39{fill:#5384a3;opacity:0.15;}.cls-40{fill:#5485a4;opacity:0.16;}.cls-41{fill:#5585a4;opacity:0.16;}.cls-42{fill:#5686a4;opacity:0.17;}.cls-43{fill:#5787a4;opacity:0.17;}.cls-44{fill:#5887a4;opacity:0.17;}.cls-45{fill:#5988a4;opacity:0.18;}.cls-46{fill:#5988a5;opacity:0.18;}.cls-47{fill:#5a89a5;opacity:0.19;}.cls-48{fill:#5b89a5;opacity:0.19;}.cls-49{fill:#5c8aa5;opacity:0.2;}.cls-50{fill:#5d8aa5;opacity:0.2;}.cls-51{fill:#5e8ba5;opacity:0.21;}.cls-52{fill:#5f8ba6;opacity:0.21;}.cls-53{fill:#608ca6;opacity:0.22;}.cls-54{fill:#618ca6;opacity:0.22;}.cls-55,.cls-56{fill:#628da6;}.cls-55{opacity:0.22;}.cls-56{opacity:0.23;}.cls-57{fill:#638ea6;opacity:0.23;}.cls-58{fill:#648ea7;opacity:0.24;}.cls-59{fill:#658fa7;opacity:0.24;}.cls-60{fill:#668fa7;opacity:0.25;}.cls-61{fill:#6790a7;opacity:0.25;}.cls-62{fill:#6890a7;opacity:0.26;}.cls-63{fill:#6991a7;opacity:0.26;}.cls-64{fill:#6a92a8;opacity:0.27;}.cls-65{fill:#6b92a8;opacity:0.27;}.cls-66{fill:#6c93a8;opacity:0.28;}.cls-67{fill:#6d93a8;opacity:0.28;}.cls-68{fill:#6d94a8;opacity:0.28;}.cls-69{fill:#6e94a8;opacity:0.29;}.cls-70{fill:#6f95a8;opacity:0.29;}.cls-71{fill:#7095a9;opacity:0.3;}.cls-72{fill:#7196a9;opacity:0.3;}.cls-73{fill:#7296a9;opacity:0.31;}.cls-74{fill:#7397a9;opacity:0.31;}.cls-75{fill:#7497a9;opacity:0.32;}.cls-76,.cls-77{fill:#7598a9;}.cls-76{opacity:0.32;}.cls-77{opacity:0.33;}.cls-78{fill:#7699aa;opacity:0.33;}.cls-79{fill:#779aaa;opacity:0.33;}.cls-80{fill:#789aaa;opacity:0.34;}.cls-81{fill:#799baa;opacity:0.34;}.cls-82{fill:#7a9baa;opacity:0.35;}.cls-83{fill:#7b9caa;opacity:0.35;}.cls-84{fill:#7c9caa;opacity:0.36;}.cls-85{fill:#7d9daa;opacity:0.36;}.cls-86{fill:#7e9dab;opacity:0.37;}.cls-87,.cls-88{fill:#7f9eab;}.cls-87{opacity:0.37;}.cls-88{opacity:0.38;}.cls-89{fill:#809fab;opacity:0.38;}.cls-90{fill:#81a0ab;opacity:0.39;}.cls-91{fill:#82a0ab;opacity:0.39;}.cls-92{fill:#83a1ab;opacity:0.39;}.cls-93{fill:#84a1ac;opacity:0.4;}.cls-94{fill:#85a2ac;opacity:0.4;}.cls-95{fill:#86a2ac;opacity:0.41;}.cls-96{fill:#87a3ac;opacity:0.41;}.cls-97{fill:#88a4ac;opacity:0.42;}.cls-98{fill:#89a4ac;opacity:0.42;}.cls-99{fill:#8aa5ac;opacity:0.43;}.cls-100{fill:#8aa5ad;opacity:0.43;}.cls-101{fill:#8ba6ad;opacity:0.44;}.cls-102{fill:#8ca7ad;opacity:0.44;}.cls-103{fill:#8da7ad;opacity:0.44;}.cls-104{fill:#8ea8ad;opacity:0.45;}.cls-105{fill:#8fa8ad;opacity:0.45;}.cls-106{fill:#90a9ad;opacity:0.46;}.cls-107{fill:#91a9ad;opacity:0.46;}.cls-108{fill:#92aaae;opacity:0.47;}.cls-109{fill:#92abae;opacity:0.47;}.cls-110{fill:#93abae;opacity:0.48;}.cls-111{fill:#94acae;opacity:0.48;}.cls-112{fill:#95acae;opacity:0.49;}.cls-113{fill:#96adae;opacity:0.49;}.cls-114{fill:#97aeae;opacity:0.5;}.cls-115{fill:#98aeaf;opacity:0.5;}.cls-116,.cls-117{fill:#99afaf;}.cls-116{opacity:0.5;}.cls-117{opacity:0.51;}.cls-118{fill:#9ab0af;opacity:0.51;}.cls-119{fill:#9bb0af;opacity:0.52;}.cls-120{fill:#9cb1af;opacity:0.52;}.cls-121{fill:#9db2af;opacity:0.53;}.cls-122{fill:#9eb2af;opacity:0.53;}.cls-123,.cls-124{fill:#9fb3b0;}.cls-123{opacity:0.54;}.cls-124{opacity:0.54;}.cls-125{fill:#a0b4b0;opacity:0.55;}.cls-126{fill:#a1b5b0;opacity:0.55;}.cls-127{fill:#a2b5b0;opacity:0.56;}.cls-128{fill:#a3b6b0;opacity:0.56;}.cls-129{fill:#a4b6b0;opacity:0.56;}.cls-130{fill:#a5b7b0;opacity:0.57;}.cls-131{fill:#a5b8b1;opacity:0.57;}.cls-132{fill:#a6b8b1;opacity:0.58;}.cls-133{fill:#a7b9b1;opacity:0.58;}.cls-134{fill:#a8b9b1;opacity:0.59;}.cls-135{fill:#a9bab1;opacity:0.59;}.cls-136{fill:#aabbb1;opacity:0.6;}.cls-137{fill:#abbbb1;opacity:0.6;}.cls-138{fill:#abbcb1;opacity:0.61;}.cls-139{fill:#acbcb1;opacity:0.61;}.cls-140{fill:#adbdb2;opacity:0.61;}.cls-141{fill:#aebeb2;opacity:0.62;}.cls-142{fill:#afbeb2;opacity:0.62;}.cls-143{fill:#b0bfb2;opacity:0.63;}.cls-144{fill:#b1bfb2;opacity:0.63;}.cls-145{fill:#b2c0b2;opacity:0.64;}.cls-146{fill:#b2c1b2;opacity:0.64;}.cls-147{fill:#b3c1b2;opacity:0.65;}.cls-148{fill:#b4c2b2;opacity:0.65;}.cls-149{fill:#b5c2b2;opacity:0.66;}.cls-150{fill:#b6c3b3;opacity:0.66;}.cls-151{fill:#b7c4b3;opacity:0.67;}.cls-152{fill:#b8c4b3;opacity:0.67;}.cls-153{fill:#b9c5b3;opacity:0.67;}.cls-154{fill:#b9c6b3;opacity:0.68;}.cls-155{fill:#bac6b3;opacity:0.68;}.cls-156{fill:#bbc7b3;opacity:0.69;}.cls-157{fill:#bcc7b3;opacity:0.69;}.cls-158{fill:#bdc8b3;opacity:0.7;}.cls-159{fill:#bec9b4;opacity:0.7;}.cls-160{fill:#bfc9b4;opacity:0.71;}.cls-161{fill:#c0cab4;opacity:0.71;}.cls-162,.cls-163{fill:#c1cbb4;}.cls-162{opacity:0.72;}.cls-163{opacity:0.72;}.cls-164{fill:#c2ccb4;opacity:0.72;}.cls-165{fill:#c3ccb4;opacity:0.73;}.cls-166{fill:#c4cdb4;opacity:0.73;}.cls-167{fill:#c5ceb4;opacity:0.74;}.cls-168{fill:#c6ceb4;opacity:0.74;}.cls-169{fill:#c7cfb5;opacity:0.75;}.cls-170,.cls-171{fill:#c8d0b5;}.cls-170{opacity:0.75;}.cls-171{opacity:0.76;}.cls-172{fill:#c9d1b5;opacity:0.76;}.cls-173{fill:#cad2b5;opacity:0.77;}.cls-174{fill:#cbd2b5;opacity:0.77;}.cls-175{fill:#ccd3b5;opacity:0.78;}.cls-176{fill:#cdd4b5;opacity:0.78;}.cls-177{fill:#ced4b5;opacity:0.78;}.cls-178{fill:#ced5b5;opacity:0.79;}.cls-179{fill:#cfd5b5;opacity:0.79;}.cls-180{fill:#d0d6b6;opacity:0.8;}.cls-181{fill:#d1d7b6;opacity:0.8;}.cls-182{fill:#d2d7b6;opacity:0.81;}.cls-183{fill:#d3d8b6;opacity:0.81;}.cls-184{fill:#d3d9b6;opacity:0.82;}.cls-185{fill:#d4d9b6;opacity:0.82;}.cls-186{fill:#d5dab6;opacity:0.83;}.cls-187{fill:#d6dbb6;opacity:0.83;}.cls-188{fill:#d7dbb6;opacity:0.83;}.cls-189,.cls-190{fill:#d8dcb6;}.cls-189{opacity:0.84;}.cls-190{opacity:0.84;}.cls-191{fill:#d9ddb7;opacity:0.85;}.cls-192{fill:#dadeb7;opacity:0.85;}.cls-193{fill:#dbdeb7;opacity:0.86;}.cls-194{fill:#dcdfb7;opacity:0.86;}.cls-195{fill:#dde0b7;opacity:0.87;}.cls-196{fill:#dee0b7;opacity:0.87;}.cls-197{fill:#dee1b7;opacity:0.88;}.cls-198{fill:#dfe2b7;opacity:0.88;}.cls-199{fill:#e0e2b7;opacity:0.89;}.cls-200{fill:#e1e3b7;opacity:0.89;}.cls-201{fill:#e2e4b7;opacity:0.89;}.cls-202{fill:#e3e4b7;opacity:0.9;}.cls-203{fill:#e4e5b8;opacity:0.9;}.cls-204{fill:#e4e6b8;opacity:0.91;}.cls-205{fill:#e5e6b8;opacity:0.91;}.cls-206{fill:#e6e7b8;opacity:0.92;}.cls-207{fill:#e7e8b8;opacity:0.92;}.cls-208{fill:#e8e8b8;opacity:0.93;}.cls-209,.cls-210{fill:#e9e9b8;}.cls-209{opacity:0.93;}.cls-210{opacity:0.94;}.cls-211{fill:#eaeab8;opacity:0.94;}.cls-212{fill:#ebebb8;opacity:0.94;}.cls-213{fill:#ecebb8;opacity:0.95;}.cls-214{fill:#edecb8;opacity:0.95;}.cls-215{fill:#eeedb8;opacity:0.96;}.cls-216{fill:#efedb8;opacity:0.96;}.cls-217{fill:#efeeb8;opacity:0.97;}.cls-218{fill:#f0efb9;opacity:0.97;}.cls-219{fill:#f1efb9;opacity:0.98;}.cls-220{fill:#f2f0b9;opacity:0.98;}.cls-221{fill:#f3f1b9;opacity:0.99;}.cls-222{fill:#f4f1b9;opacity:0.99;}.cls-223{fill:#f4f2b9;opacity:1;}.cls-224{fill:#f5f3b9;}.cls-225{fill:#f2f2f2;}.cls-226{fill:#bdb6b6;}.cls-227,.cls-236{fill:#d9d9d9;}.cls-228{fill:#fbfbfb;}.cls-229{fill:#fff;}.cls-230{fill:#dc9598;}.cls-232{fill:#ededed;}.cls-233{clip-path:url(#clip-path);}.cls-234{fill:#d6d825;}.cls-235{fill:#2b2b2b;mix-blend-mode:screen;}.cls-237{fill:#f0f0f0;}.cls-238{fill:#f8f8f7;}</style><clipPath id="clip-path"><path class="cls-1" d="M39.59,24.32C38,27.25,34.05,28.77,31,29.11c-1.38.15-4.18-.48-5.25.51s-.52,2.75.05,3.8c1.72,3.19,5.33,3,8.34,2,2.57-.8,4-3,4.78-5.48a14.74,14.74,0,0,0,.52-2.35,19.2,19.2,0,0,0,.18-3C39.59,24.56,39.6,24.56,39.59,24.32Z"/></clipPath></defs><g class="cls-2"><g id="Vrstva_1" data-name="Vrstva 1"><g class="cls-3"><g class="cls-2"><path class="cls-4" d="M33.1,84.27c4.77,2.75,4.8,7.22.06,10S20.72,97,16,94.24s-4.79-7.22-.06-10S28.33,81.52,33.1,84.27Z"/></g></g><path class="cls-5" d="M36.08,34.7a4.44,4.44,0,0,1-1.88.79l1.58-2.92C36.56,33.3,36.9,34,36.08,34.7Z"/><path class="cls-6" d="M23.37,80.94a6.38,6.38,0,0,1-4.8-2.23,9.1,9.1,0,0,1-1.52-2.42,23,23,0,0,1-1.4-4.54,52.35,52.35,0,0,1-1.06-10c0-3.79.62-6.34,2-8.24a7.91,7.91,0,0,1,6.75-3.17,7.93,7.93,0,0,1,6.76,3.17c1.4,1.9,2,4.45,2,8.24a51.58,51.58,0,0,1-1.07,10,23,23,0,0,1-1.39,4.54,9.38,9.38,0,0,1-1.53,2.42A6.36,6.36,0,0,1,23.37,80.94Z"/><path class="cls-7" d="M16.64,53.54a7.86,7.86,0,0,1,6.73-3.18,7.86,7.86,0,0,1,6.74,3.18c1.4,1.9,2,4.44,2,8.23a51.09,51.09,0,0,1-1.07,10,23,23,0,0,1-1.38,4.53,9.63,9.63,0,0,1-1.52,2.42,6.27,6.27,0,0,1-9.57,0,9.36,9.36,0,0,1-1.52-2.42,22.93,22.93,0,0,1-1.39-4.53,51.08,51.08,0,0,1-1.06-10C14.61,58,15.24,55.44,16.64,53.54Z"/><path class="cls-8" d="M16.65,53.58a7.82,7.82,0,0,1,6.72-3.19,7.8,7.8,0,0,1,6.72,3.19c1.39,1.9,2,4.42,2,8.2A51.55,51.55,0,0,1,31,71.71a22.93,22.93,0,0,1-1.39,4.53,9,9,0,0,1-1.51,2.4,6.22,6.22,0,0,1-9.54,0,9.48,9.48,0,0,1-1.51-2.4,23.08,23.08,0,0,1-1.38-4.52,51.76,51.76,0,0,1-1.07-9.94C14.64,58,15.27,55.48,16.65,53.58Z"/><path class="cls-9" d="M16.67,53.61a7.79,7.79,0,0,1,6.7-3.2,7.8,7.8,0,0,1,6.71,3.2c1.37,1.9,2,4.42,2,8.18A51.45,51.45,0,0,1,31,71.7a22.51,22.51,0,0,1-1.38,4.51,9.36,9.36,0,0,1-1.5,2.4,6.2,6.2,0,0,1-9.51,0,9.36,9.36,0,0,1-1.5-2.4,23.12,23.12,0,0,1-1.39-4.51,52.15,52.15,0,0,1-1.06-9.91C14.67,58,15.3,55.51,16.67,53.61Z"/><path class="cls-10" d="M16.69,53.64a7.74,7.74,0,0,1,6.69-3.2,7.73,7.73,0,0,1,6.68,3.2c1.36,1.9,2,4.41,2,8.16A51,51,0,0,1,31,71.68a23.06,23.06,0,0,1-1.38,4.5,9.13,9.13,0,0,1-1.5,2.39,6.16,6.16,0,0,1-9.47,0,9.13,9.13,0,0,1-1.5-2.39,22.84,22.84,0,0,1-1.38-4.5A51.84,51.84,0,0,1,14.7,61.8C14.7,58.05,15.33,55.54,16.69,53.64Z"/><path class="cls-11" d="M16.71,53.68a7.7,7.7,0,0,1,6.67-3.22A7.67,7.67,0,0,1,30,53.68c1.36,1.89,2,4.39,2,8.13A50.93,50.93,0,0,1,31,71.67a22.21,22.21,0,0,1-1.37,4.48,9.56,9.56,0,0,1-1.49,2.39,6.15,6.15,0,0,1-9.44,0,9.13,9.13,0,0,1-1.5-2.39,22.87,22.87,0,0,1-1.37-4.48,50.84,50.84,0,0,1-1.06-9.86C14.73,58.07,15.36,55.57,16.71,53.68Z"/><path class="cls-12" d="M16.73,53.71a7.63,7.63,0,0,1,6.65-3.22A7.63,7.63,0,0,1,30,53.71c1.35,1.9,2,4.39,2,8.11a50.52,50.52,0,0,1-1,9.83,23.45,23.45,0,0,1-1.37,4.47,9.21,9.21,0,0,1-1.49,2.38,6.11,6.11,0,0,1-9.41,0,9.49,9.49,0,0,1-1.49-2.38,22.81,22.81,0,0,1-1.36-4.47,50.46,50.46,0,0,1-1.06-9.83C14.76,58.1,15.39,55.61,16.73,53.71Z"/><path class="cls-13" d="M16.75,53.74a7.62,7.62,0,0,1,6.63-3.23A7.63,7.63,0,0,1,30,53.74c1.33,1.9,2,4.38,2,8.09a50.93,50.93,0,0,1-1.06,9.8,22.48,22.48,0,0,1-1.36,4.46,9.19,9.19,0,0,1-1.48,2.38,6.08,6.08,0,0,1-9.38,0,9.19,9.19,0,0,1-1.48-2.38,22.52,22.52,0,0,1-1.37-4.45,51.09,51.09,0,0,1-1.05-9.8C14.79,58.12,15.41,55.64,16.75,53.74Z"/><path class="cls-14" d="M16.77,53.78a7.54,7.54,0,0,1,6.61-3.24A7.55,7.55,0,0,1,30,53.78c1.32,1.89,2,4.36,2,8.07a51.58,51.58,0,0,1-1.05,9.77,22.45,22.45,0,0,1-1.36,4.44,9.19,9.19,0,0,1-1.48,2.38,6.06,6.06,0,0,1-9.34,0,9.19,9.19,0,0,1-1.48-2.38,22.45,22.45,0,0,1-1.36-4.44,50.78,50.78,0,0,1-1-9.77C14.81,58.14,15.44,55.67,16.77,53.78Z"/><path class="cls-15" d="M16.79,53.81a7.53,7.53,0,0,1,6.59-3.25A7.53,7.53,0,0,1,30,53.81c1.32,1.89,2,4.36,1.94,8a49.7,49.7,0,0,1-1.05,9.74A22.39,22.39,0,0,1,29.51,76,9.39,9.39,0,0,1,28,78.4a6,6,0,0,1-9.32,0A9.5,9.5,0,0,1,17.25,76,22.5,22.5,0,0,1,15.9,71.6a49.54,49.54,0,0,1-1.05-9.74C14.84,58.17,15.47,55.7,16.79,53.81Z"/><path class="cls-16" d="M16.81,53.85a7.45,7.45,0,0,1,6.57-3.26A7.45,7.45,0,0,1,30,53.85c1.31,1.88,1.94,4.34,1.93,8a50.07,50.07,0,0,1-1,9.71A23,23,0,0,1,29.49,76,9.11,9.11,0,0,1,28,78.37a6,6,0,0,1-9.28,0A9.22,9.22,0,0,1,17.27,76a23.41,23.41,0,0,1-1.35-4.42,50.17,50.17,0,0,1-1-9.72C14.87,58.19,15.5,55.73,16.81,53.85Z"/><path class="cls-17" d="M16.83,53.88a7.43,7.43,0,0,1,6.55-3.27,7.46,7.46,0,0,1,6.56,3.27c1.29,1.89,1.92,4.33,1.92,8a50.67,50.67,0,0,1-1.05,9.69A22.63,22.63,0,0,1,29.47,76,9,9,0,0,1,28,78.33a6,6,0,0,1-9.24,0A9,9,0,0,1,17.3,76,22.36,22.36,0,0,1,16,71.57a49.79,49.79,0,0,1-1-9.69C14.9,58.21,15.53,55.77,16.83,53.88Z"/><path class="cls-18" d="M16.84,53.91a7.41,7.41,0,0,1,6.54-3.27,7.39,7.39,0,0,1,6.54,3.27c1.29,1.89,1.92,4.33,1.91,8a51.07,51.07,0,0,1-1,9.66A23,23,0,0,1,29.45,76,9.6,9.6,0,0,1,28,78.3a5.94,5.94,0,0,1-9.21,0A9.13,9.13,0,0,1,17.32,76,21.73,21.73,0,0,1,16,71.56a49.67,49.67,0,0,1-1-9.67C14.93,58.24,15.56,55.8,16.84,53.91Z"/><path class="cls-19" d="M16.86,54a7.34,7.34,0,0,1,6.52-3.29A7.34,7.34,0,0,1,29.9,54c1.28,1.88,1.91,4.31,1.9,7.95a50,50,0,0,1-1,9.63,22.23,22.23,0,0,1-1.33,4.39A9.34,9.34,0,0,1,28,78.26a5.91,5.91,0,0,1-9.18,0,9.15,9.15,0,0,1-1.45-2.34A22.75,22.75,0,0,1,16,71.54a50.85,50.85,0,0,1-1-9.63C15,58.26,15.58,55.83,16.86,54Z"/><path class="cls-20" d="M16.88,54a7.31,7.31,0,0,1,6.5-3.29A7.32,7.32,0,0,1,29.89,54c1.26,1.88,1.89,4.3,1.88,7.93a49.82,49.82,0,0,1-1,9.61,22.91,22.91,0,0,1-1.33,4.37A9.33,9.33,0,0,1,28,78.23a5.89,5.89,0,0,1-9.15,0,9.33,9.33,0,0,1-1.45-2.34A22,22,0,0,1,16,71.52a50.45,50.45,0,0,1-1-9.6C15,58.29,15.61,55.86,16.88,54Z"/><path class="cls-21" d="M16.9,54a7.27,7.27,0,0,1,6.48-3.3A7.28,7.28,0,0,1,29.87,54c1.26,1.88,1.88,4.3,1.88,7.92a50.14,50.14,0,0,1-1,9.57,22.09,22.09,0,0,1-1.33,4.36,9,9,0,0,1-1.44,2.33,5.85,5.85,0,0,1-9.11,0,9.07,9.07,0,0,1-1.44-2.32,22.3,22.3,0,0,1-1.33-4.36,50.33,50.33,0,0,1-1-9.58C15,58.31,15.64,55.89,16.9,54Z"/><path class="cls-22" d="M16.92,54.05a7.24,7.24,0,0,1,6.47-3.31,7.23,7.23,0,0,1,6.46,3.31c1.25,1.87,1.88,4.28,1.87,7.89a50,50,0,0,1-1,9.55,22.07,22.07,0,0,1-1.33,4.34,9.22,9.22,0,0,1-1.43,2.33,5.83,5.83,0,0,1-9.09,0,9.33,9.33,0,0,1-1.43-2.32,22.66,22.66,0,0,1-1.33-4.35,50.82,50.82,0,0,1-1-9.55C15,58.33,15.67,55.92,16.92,54.05Z"/><path class="cls-23" d="M16.94,54.08a7.19,7.19,0,0,1,6.45-3.32,7.17,7.17,0,0,1,6.44,3.32C31.07,56,31.7,58.35,31.69,62a49.7,49.7,0,0,1-1,9.52,21.79,21.79,0,0,1-1.32,4.33,9,9,0,0,1-1.43,2.32,5.79,5.79,0,0,1-9,0,9.09,9.09,0,0,1-1.43-2.31,22.82,22.82,0,0,1-1.32-4.34,49.53,49.53,0,0,1-1-9.52C15.07,58.36,15.7,56,16.94,54.08Z"/><path class="cls-24" d="M17,54.12a7.14,7.14,0,0,1,6.43-3.33,7.17,7.17,0,0,1,6.43,3.33C31.05,56,31.67,58.38,31.66,62a50.09,50.09,0,0,1-1,9.49,21.67,21.67,0,0,1-1.32,4.32,9.14,9.14,0,0,1-1.42,2.32,5.77,5.77,0,0,1-9,0,9.27,9.27,0,0,1-1.43-2.31,22.63,22.63,0,0,1-1.31-4.32,49.41,49.41,0,0,1-1-9.5C15.1,58.38,15.73,56,17,54.12Z"/><path class="cls-25" d="M17,54.15a7.11,7.11,0,0,1,6.41-3.34,7.11,7.11,0,0,1,6.41,3.34C31,56,31.65,58.4,31.64,62a49.19,49.19,0,0,1-1,9.47,22.51,22.51,0,0,1-1.31,4.31,9.18,9.18,0,0,1-1.42,2.3,5.74,5.74,0,0,1-9,0,9,9,0,0,1-1.41-2.3,21.77,21.77,0,0,1-1.32-4.31,49.78,49.78,0,0,1-1-9.46C15.13,58.4,15.75,56,17,54.15Z"/><path class="cls-26" d="M17,54.18a7,7,0,0,1,6.39-3.34,7.07,7.07,0,0,1,6.39,3.34c1.21,1.87,1.84,4.24,1.83,7.8a49.58,49.58,0,0,1-1,9.44,22.61,22.61,0,0,1-1.31,4.3A9.18,9.18,0,0,1,27.86,78a5.7,5.7,0,0,1-8.95,0,9,9,0,0,1-1.41-2.3,22.27,22.27,0,0,1-1.31-4.29,49.66,49.66,0,0,1-1-9.44C15.16,58.43,15.78,56.05,17,54.18Z"/><path class="cls-27" d="M17,54.22a7,7,0,0,1,6.38-3.36,7,7,0,0,1,6.37,3.36C31,56.08,31.59,58.45,31.58,62a49.18,49.18,0,0,1-1,9.41,21.84,21.84,0,0,1-1.3,4.29A9.09,9.09,0,0,1,27.85,78a5.67,5.67,0,0,1-8.92,0,8.92,8.92,0,0,1-1.41-2.29,21.52,21.52,0,0,1-1.3-4.28,49.27,49.27,0,0,1-1-9.41C15.19,58.45,15.81,56.08,17,54.22Z"/><path class="cls-28" d="M17,54.25a7,7,0,0,1,6.36-3.36,7,7,0,0,1,6.36,3.36c1.19,1.86,1.82,4.22,1.8,7.75a49.86,49.86,0,0,1-1,9.39,22.3,22.3,0,0,1-1.3,4.27A9.09,9.09,0,0,1,27.83,78,5.64,5.64,0,0,1,19,78a9.51,9.51,0,0,1-1.41-2.28,23.17,23.17,0,0,1-1.3-4.28,49.67,49.67,0,0,1-1-9.38C15.21,58.47,15.84,56.11,17,54.25Z"/><path class="cls-29" d="M17.05,54.28a7,7,0,0,1,6.34-3.37,7,7,0,0,1,6.34,3.37c1.18,1.86,1.81,4.21,1.8,7.74a49.55,49.55,0,0,1-1,9.35,22.23,22.23,0,0,1-1.29,4.26,8.83,8.83,0,0,1-1.4,2.28,5.62,5.62,0,0,1-8.86,0,9.21,9.21,0,0,1-1.39-2.27,22.18,22.18,0,0,1-1.3-4.26,49.55,49.55,0,0,1-1-9.36C15.24,58.5,15.87,56.15,17.05,54.28Z"/><path class="cls-30" d="M17.07,54.32a6.92,6.92,0,0,1,6.32-3.38,6.91,6.91,0,0,1,6.32,3.38c1.18,1.86,1.8,4.2,1.79,7.71a49.13,49.13,0,0,1-1,9.32A22.61,22.61,0,0,1,29.2,75.6a9,9,0,0,1-1.4,2.28,5.6,5.6,0,0,1-8.82,0,9.4,9.4,0,0,1-1.39-2.27,22.34,22.34,0,0,1-1.29-4.25,49.25,49.25,0,0,1-1-9.33C15.27,58.52,15.89,56.18,17.07,54.32Z"/><path class="cls-31" d="M17.09,54.35A6.88,6.88,0,0,1,23.39,51a6.88,6.88,0,0,1,6.3,3.39c1.17,1.86,1.8,4.19,1.78,7.69a48.93,48.93,0,0,1-1,9.3,21.93,21.93,0,0,1-1.28,4.23,9,9,0,0,1-1.39,2.27,5.55,5.55,0,0,1-8.79,0,8.85,8.85,0,0,1-1.39-2.26,22.15,22.15,0,0,1-1.28-4.23,48.94,48.94,0,0,1-1-9.3C15.3,58.55,15.92,56.21,17.09,54.35Z"/><path class="cls-32" d="M17.11,54.39A6.84,6.84,0,0,1,23.39,51a6.85,6.85,0,0,1,6.29,3.4c1.16,1.85,1.78,4.17,1.77,7.66a49.43,49.43,0,0,1-1,9.27,22,22,0,0,1-1.28,4.22,9,9,0,0,1-1.39,2.27,5.54,5.54,0,0,1-8.76,0,9.13,9.13,0,0,1-1.38-2.26,22,22,0,0,1-1.28-4.22,49.43,49.43,0,0,1-1-9.27C15.33,58.57,16,56.24,17.11,54.39Z"/><path class="cls-33" d="M17.13,54.42A6.79,6.79,0,0,1,23.39,51a6.82,6.82,0,0,1,6.27,3.41c1.15,1.85,1.77,4.17,1.76,7.64a49.23,49.23,0,0,1-1,9.25,22.94,22.94,0,0,1-1.27,4.21,9.24,9.24,0,0,1-1.38,2.25,5.51,5.51,0,0,1-8.73,0,8.75,8.75,0,0,1-1.37-2.25,21.69,21.69,0,0,1-1.28-4.21,49,49,0,0,1-1-9.24C15.36,58.59,16,56.27,17.13,54.42Z"/><path class="cls-34" d="M17.15,54.45A6.75,6.75,0,0,1,23.39,51a6.76,6.76,0,0,1,6.25,3.41c1.14,1.85,1.76,4.16,1.75,7.62a49.73,49.73,0,0,1-1,9.22,22,22,0,0,1-1.28,4.2,8.93,8.93,0,0,1-1.37,2.25,5.48,5.48,0,0,1-8.69,0,8.86,8.86,0,0,1-1.37-2.24,21.36,21.36,0,0,1-1.27-4.2,48.91,48.91,0,0,1-1-9.22C15.39,58.62,16,56.3,17.15,54.45Z"/><path class="cls-35" d="M17.17,54.49a6.74,6.74,0,0,1,6.23-3.43,6.75,6.75,0,0,1,6.23,3.43,13.72,13.72,0,0,1,1.73,7.59,48.59,48.59,0,0,1-1,9.19,21.72,21.72,0,0,1-1.27,4.19,9,9,0,0,1-1.36,2.24,5.67,5.67,0,0,1-4.33,2.15,5.67,5.67,0,0,1-4.33-2.15,8.62,8.62,0,0,1-1.37-2.23,22.45,22.45,0,0,1-1.27-4.19,49.42,49.42,0,0,1-1-9.19C15.41,58.64,16,56.33,17.17,54.49Z"/><path class="cls-36" d="M17.19,54.52a6.69,6.69,0,0,1,6.21-3.43,6.7,6.7,0,0,1,6.21,3.43,13.88,13.88,0,0,1,1.73,7.58,49.1,49.1,0,0,1-1,9.16,21.7,21.7,0,0,1-1.27,4.17,9.14,9.14,0,0,1-1.36,2.24,5.42,5.42,0,0,1-8.63,0,9.07,9.07,0,0,1-1.36-2.23,22.49,22.49,0,0,1-1.26-4.17,49.12,49.12,0,0,1-1-9.17A13.71,13.71,0,0,1,17.19,54.52Z"/><path class="cls-37" d="M17.2,54.55a6.69,6.69,0,0,1,6.2-3.44,6.67,6.67,0,0,1,6.19,3.44,13.93,13.93,0,0,1,1.72,7.56,48.79,48.79,0,0,1-1,9.13,21.85,21.85,0,0,1-1.26,4.16,8.6,8.6,0,0,1-1.36,2.23,5.38,5.38,0,0,1-8.59,0,8.69,8.69,0,0,1-1.35-2.22,21.15,21.15,0,0,1-1.26-4.16,48.79,48.79,0,0,1-1-9.13A13.91,13.91,0,0,1,17.2,54.55Z"/><path class="cls-38" d="M17.22,54.59a6.63,6.63,0,0,1,6.18-3.45,6.62,6.62,0,0,1,6.17,3.45,13.73,13.73,0,0,1,1.71,7.53,49.3,49.3,0,0,1-1,9.1A22.24,22.24,0,0,1,29,75.37a8.87,8.87,0,0,1-1.35,2.23,5.6,5.6,0,0,1-4.28,2.13,5.6,5.6,0,0,1-4.28-2.13,9,9,0,0,1-1.35-2.22,22.24,22.24,0,0,1-1.26-4.15,48.46,48.46,0,0,1-1-9.1A13.89,13.89,0,0,1,17.22,54.59Z"/><path class="cls-39" d="M17.24,54.62a6.6,6.6,0,0,1,6.16-3.46,6.6,6.6,0,0,1,6.16,3.46,13.92,13.92,0,0,1,1.69,7.51,48.25,48.25,0,0,1-1,9.08A21.54,21.54,0,0,1,29,75.34a8.8,8.8,0,0,1-1.35,2.22,5.34,5.34,0,0,1-8.53,0,9.2,9.2,0,0,1-1.34-2.21,21.54,21.54,0,0,1-1.25-4.13,48.25,48.25,0,0,1-1-9.08A13.93,13.93,0,0,1,17.24,54.62Z"/><path class="cls-40" d="M17.26,54.66a6.55,6.55,0,0,1,6.14-3.47,6.55,6.55,0,0,1,6.14,3.47,13.89,13.89,0,0,1,1.69,7.48,47.86,47.86,0,0,1-1,9A21.26,21.26,0,0,1,29,75.31a9.28,9.28,0,0,1-1.34,2.22,5.58,5.58,0,0,1-4.25,2.13,5.58,5.58,0,0,1-4.25-2.13,9.2,9.2,0,0,1-1.34-2.21,22,22,0,0,1-1.24-4.12,47.85,47.85,0,0,1-1-9.05A13.85,13.85,0,0,1,17.26,54.66Z"/><path class="cls-41" d="M17.28,54.69a6.53,6.53,0,0,1,6.12-3.48,6.53,6.53,0,0,1,6.12,3.48,13.85,13.85,0,0,1,1.68,7.46,48.36,48.36,0,0,1-1,9A21.86,21.86,0,0,1,29,75.28a9.28,9.28,0,0,1-1.34,2.22,5.54,5.54,0,0,1-4.23,2.12,5.52,5.52,0,0,1-4.23-2.13,9.06,9.06,0,0,1-1.34-2.19,22.33,22.33,0,0,1-1.24-4.11,49.33,49.33,0,0,1-1-9A14,14,0,0,1,17.28,54.69Z"/><path class="cls-42" d="M17.3,54.72a6.49,6.49,0,0,1,6.1-3.48,6.48,6.48,0,0,1,6.1,3.48,13.92,13.92,0,0,1,1.67,7.44,47.33,47.33,0,0,1-1,9A21.29,21.29,0,0,1,29,75.26a9,9,0,0,1-1.33,2.2,5.51,5.51,0,0,1-4.22,2.12,5.5,5.5,0,0,1-4.21-2.12,8.92,8.92,0,0,1-1.33-2.19,22,22,0,0,1-1.24-4.1,48.15,48.15,0,0,1-1-9A14,14,0,0,1,17.3,54.72Z"/><path class="cls-43" d="M17.32,54.76a6.46,6.46,0,0,1,6.08-3.5,6.47,6.47,0,0,1,6.09,3.5,13.92,13.92,0,0,1,1.65,7.42,47.81,47.81,0,0,1-1,9,22.13,22.13,0,0,1-1.23,4.09,9,9,0,0,1-1.33,2.2,5.47,5.47,0,0,1-4.2,2.11,5.49,5.49,0,0,1-4.2-2.11,9.22,9.22,0,0,1-1.32-2.19,21.9,21.9,0,0,1-1.23-4.09,47.82,47.82,0,0,1-1-9A14,14,0,0,1,17.32,54.76Z"/><path class="cls-44" d="M17.34,54.79a6.41,6.41,0,0,1,6.06-3.5,6.43,6.43,0,0,1,6.07,3.5,14,14,0,0,1,1.65,7.4,48.55,48.55,0,0,1-1,8.94,21.42,21.42,0,0,1-1.22,4.07,9,9,0,0,1-1.32,2.19,5.48,5.48,0,0,1-4.19,2.12,5.46,5.46,0,0,1-4.18-2.12,9,9,0,0,1-1.32-2.18,21.88,21.88,0,0,1-1.23-4.07,48.35,48.35,0,0,1-1-8.94A13.91,13.91,0,0,1,17.34,54.79Z"/><path class="cls-45" d="M17.36,54.82a6.38,6.38,0,0,1,6-3.51,6.39,6.39,0,0,1,6.05,3.51,13.94,13.94,0,0,1,1.64,7.38,48,48,0,0,1-1,8.91,22.6,22.6,0,0,1-1.22,4.06,9.22,9.22,0,0,1-1.32,2.19,5.45,5.45,0,0,1-4.17,2.11,5.44,5.44,0,0,1-4.16-2.11,9.35,9.35,0,0,1-1.32-2.18,22.6,22.6,0,0,1-1.22-4.06,48,48,0,0,1-1-8.91A14,14,0,0,1,17.36,54.82Z"/><path class="cls-46" d="M17.37,54.86a6.37,6.37,0,0,1,6-3.52,6.35,6.35,0,0,1,6,3.52,13.92,13.92,0,0,1,1.63,7.35,46.88,46.88,0,0,1-1,8.88,21.75,21.75,0,0,1-1.21,4,8.94,8.94,0,0,1-1.31,2.18,5.41,5.41,0,0,1-4.16,2.11,5.41,5.41,0,0,1-4.15-2.11A8.73,8.73,0,0,1,18,75.15a21.06,21.06,0,0,1-1.22-4,47.08,47.08,0,0,1-1-8.89A14.07,14.07,0,0,1,17.37,54.86Z"/><path class="cls-47" d="M17.39,54.89a6.33,6.33,0,0,1,6-3.53,6.33,6.33,0,0,1,6,3.53A14,14,0,0,1,31,62.22a47.58,47.58,0,0,1-1,8.86,20.72,20.72,0,0,1-1.22,4,8.8,8.8,0,0,1-1.3,2.18,5.39,5.39,0,0,1-4.13,2.1,5.39,5.39,0,0,1-4.14-2.1A8.73,8.73,0,0,1,18,75.12a21.5,21.5,0,0,1-1.21-4,46.68,46.68,0,0,1-1-8.86A14.12,14.12,0,0,1,17.39,54.89Z"/><path class="cls-48" d="M17.41,54.93a6.29,6.29,0,0,1,6-3.54,6.29,6.29,0,0,1,6,3.54A14,14,0,0,1,31,62.23a48,48,0,0,1-1,8.83,20.65,20.65,0,0,1-1.21,4,8.73,8.73,0,0,1-1.3,2.17,5.35,5.35,0,0,1-4.11,2.1,5.35,5.35,0,0,1-4.12-2.1A9.09,9.09,0,0,1,18,75.1a21.73,21.73,0,0,1-1.21-4,47.08,47.08,0,0,1-1-8.83A14.06,14.06,0,0,1,17.41,54.93Z"/><path class="cls-49" d="M17.43,55a6.27,6.27,0,0,1,6-3.55,6.26,6.26,0,0,1,6,3.55A14,14,0,0,1,31,62.24,47.7,47.7,0,0,1,30,71a21.48,21.48,0,0,1-1.21,4,9,9,0,0,1-1.29,2.17,5.33,5.33,0,0,1-4.1,2.1,5.32,5.32,0,0,1-4.1-2.1A9.09,9.09,0,0,1,18,75.07a21.54,21.54,0,0,1-1.2-4,47,47,0,0,1-1-8.8A14,14,0,0,1,17.43,55Z"/><path class="cls-50" d="M17.45,55a6.24,6.24,0,0,1,6-3.55,6.25,6.25,0,0,1,6,3.55A14.14,14.14,0,0,1,31,62.26,46.64,46.64,0,0,1,30,71a21.65,21.65,0,0,1-1.2,4,8.57,8.57,0,0,1-1.29,2.15,5.29,5.29,0,0,1-4.08,2.1,5.33,5.33,0,0,1-4.09-2.1A8.79,8.79,0,0,1,18,75a20.68,20.68,0,0,1-1.2-4,46.54,46.54,0,0,1-1-8.77A14.07,14.07,0,0,1,17.45,55Z"/><path class="cls-51" d="M17.47,55a6.19,6.19,0,0,1,5.94-3.57A6.2,6.2,0,0,1,29.35,55a14,14,0,0,1,1.57,7.24A47.05,47.05,0,0,1,30,71a21.52,21.52,0,0,1-1.2,4,9.06,9.06,0,0,1-1.28,2.15,5.31,5.31,0,0,1-4.07,2.09,5.3,5.3,0,0,1-4.07-2.09A9,9,0,0,1,18.06,75a21.16,21.16,0,0,1-1.2-4,48.14,48.14,0,0,1-1-8.75A14.08,14.08,0,0,1,17.47,55Z"/><path class="cls-52" d="M17.49,55.06a6.17,6.17,0,0,1,5.92-3.57,6.17,6.17,0,0,1,5.92,3.57,14.07,14.07,0,0,1,1.57,7.22,46.75,46.75,0,0,1-1,8.71,20.5,20.5,0,0,1-1.19,4,8.79,8.79,0,0,1-1.28,2.14,5.23,5.23,0,0,1-4.05,2.09,5.26,5.26,0,0,1-4.05-2.09A8.72,8.72,0,0,1,18.08,75a22.12,22.12,0,0,1-1.19-4,47.62,47.62,0,0,1-1-8.72A14.13,14.13,0,0,1,17.49,55.06Z"/><path class="cls-53" d="M17.51,55.1a6.14,6.14,0,0,1,5.9-3.59,6.14,6.14,0,0,1,5.9,3.59,14.08,14.08,0,0,1,1.56,7.19,47.47,47.47,0,0,1-1,8.69,22,22,0,0,1-1.19,4,9.1,9.1,0,0,1-1.27,2.14,5.25,5.25,0,0,1-4,2.09,5.27,5.27,0,0,1-4-2.09A9.23,9.23,0,0,1,18.1,75a21.26,21.26,0,0,1-1.18-4,47.3,47.3,0,0,1-1-8.69A14.12,14.12,0,0,1,17.51,55.1Z"/><path class="cls-54" d="M17.53,55.13a6.08,6.08,0,0,1,5.88-3.59,6.11,6.11,0,0,1,5.89,3.59,14.07,14.07,0,0,1,1.54,7.17,47,47,0,0,1-1,8.66,21.37,21.37,0,0,1-1.18,4A8.89,8.89,0,0,1,27.43,77a5.22,5.22,0,0,1-4,2.09,5.22,5.22,0,0,1-4-2.09,8.73,8.73,0,0,1-1.26-2.11,22.11,22.11,0,0,1-1.19-4,47.16,47.16,0,0,1-1-8.67A14.2,14.2,0,0,1,17.53,55.13Z"/><path class="cls-55" d="M17.55,55.16a6.08,6.08,0,0,1,5.86-3.6,6.1,6.1,0,0,1,5.87,3.6,14.12,14.12,0,0,1,1.53,7.15A46.83,46.83,0,0,1,29.86,71a21.91,21.91,0,0,1-1.18,3.93A9.22,9.22,0,0,1,27.42,77a5.23,5.23,0,0,1-4,2.08,5.2,5.2,0,0,1-4-2.08,8.93,8.93,0,0,1-1.26-2.11A21.24,21.24,0,0,1,17,71a46.74,46.74,0,0,1-1-8.63A14.17,14.17,0,0,1,17.55,55.16Z"/><path class="cls-56" d="M17.56,55.2a6,6,0,0,1,5.85-3.61,6,6,0,0,1,5.85,3.61,14.13,14.13,0,0,1,1.53,7.12,46.43,46.43,0,0,1-1,8.61,21.05,21.05,0,0,1-1.17,3.92A8.61,8.61,0,0,1,27.4,77a5.15,5.15,0,0,1-4,2.08,5.18,5.18,0,0,1-4-2.08,9,9,0,0,1-1.25-2.1A21.05,21.05,0,0,1,17,71a46.53,46.53,0,0,1-1-8.61A14.2,14.2,0,0,1,17.56,55.2Z"/><path class="cls-57" d="M17.58,55.23a6,6,0,0,1,5.83-3.62,6,6,0,0,1,5.83,3.62,14.08,14.08,0,0,1,1.52,7.1,47,47,0,0,1-1,8.58,21.46,21.46,0,0,1-1.17,3.91,9.13,9.13,0,0,1-1.25,2.12,5.16,5.16,0,0,1-4,2.07,5.16,5.16,0,0,1-4-2.07,9,9,0,0,1-1.25-2.1A21.71,21.71,0,0,1,17,70.93a47.06,47.06,0,0,1-.95-8.58A14.25,14.25,0,0,1,17.58,55.23Z"/><path class="cls-58" d="M17.6,55.26a6,6,0,0,1,5.81-3.62,6,6,0,0,1,5.82,3.62,14.27,14.27,0,0,1,1.5,7.09,46.83,46.83,0,0,1-.95,8.55,21.89,21.89,0,0,1-1.16,3.9,8.64,8.64,0,0,1-1.25,2.1,5.12,5.12,0,0,1-4,2.08,5.12,5.12,0,0,1-3.95-2.08,8.88,8.88,0,0,1-1.24-2.09,20.57,20.57,0,0,1-1.17-3.9,46.64,46.64,0,0,1-.95-8.55A14.21,14.21,0,0,1,17.6,55.26Z"/><path class="cls-59" d="M17.62,55.3a6,6,0,0,1,5.8-3.64,6,6,0,0,1,5.79,3.64,14.18,14.18,0,0,1,1.49,7.06,46.3,46.3,0,0,1-.94,8.52,21.76,21.76,0,0,1-1.16,3.89,8.64,8.64,0,0,1-1.25,2.1,5.07,5.07,0,0,1-3.93,2.07,5.1,5.1,0,0,1-3.94-2.07,8.88,8.88,0,0,1-1.24-2.09,21.63,21.63,0,0,1-1.16-3.88,46.52,46.52,0,0,1-.95-8.53A14.22,14.22,0,0,1,17.62,55.3Z"/><path class="cls-60" d="M17.64,55.33a5.93,5.93,0,0,1,5.78-3.64,5.93,5.93,0,0,1,5.77,3.64,14.34,14.34,0,0,1,1.49,7,46,46,0,0,1-.95,8.49,20.84,20.84,0,0,1-1.16,3.88,8.54,8.54,0,0,1-1.23,2.09,5.05,5.05,0,0,1-3.92,2.07,5.09,5.09,0,0,1-3.93-2.07,8.59,8.59,0,0,1-1.23-2.08,21.25,21.25,0,0,1-1.16-3.87,46.87,46.87,0,0,1-.94-8.5A14.28,14.28,0,0,1,17.64,55.33Z"/><path class="cls-61" d="M17.66,55.37c1.37-2.66,3.17-3.66,5.76-3.66s4.38,1,5.76,3.66a14.24,14.24,0,0,1,1.47,7,46.74,46.74,0,0,1-.94,8.47,21.62,21.62,0,0,1-1.16,3.86,8.54,8.54,0,0,1-1.23,2.09,5,5,0,0,1-3.9,2.06,5.05,5.05,0,0,1-3.91-2.06,8.92,8.92,0,0,1-1.23-2.07,22.55,22.55,0,0,1-1.15-3.86,46.74,46.74,0,0,1-.94-8.47A14.18,14.18,0,0,1,17.66,55.37Z"/><path class="cls-62" d="M17.68,55.4c1.37-2.66,3.16-3.66,5.74-3.66s4.37,1,5.74,3.66a14.33,14.33,0,0,1,1.46,7,46.32,46.32,0,0,1-.94,8.44,20.53,20.53,0,0,1-1.15,3.85,8.78,8.78,0,0,1-1.22,2.08,5,5,0,0,1-3.89,2.07,5,5,0,0,1-3.89-2.07,8.5,8.5,0,0,1-1.22-2.06,20.76,20.76,0,0,1-1.15-3.85,46.43,46.43,0,0,1-.95-8.44A14.26,14.26,0,0,1,17.68,55.4Z"/><path class="cls-63" d="M17.7,55.43c1.36-2.67,3.15-3.67,5.72-3.67s4.35,1,5.72,3.67a14.28,14.28,0,0,1,1.45,7,46,46,0,0,1-.93,8.41,21.17,21.17,0,0,1-1.15,3.84,8.64,8.64,0,0,1-1.22,2.08,5,5,0,0,1-3.87,2.06,5,5,0,0,1-3.88-2.06,8.81,8.81,0,0,1-1.21-2.06,21.17,21.17,0,0,1-1.15-3.84,46.88,46.88,0,0,1-.94-8.41A14.33,14.33,0,0,1,17.7,55.43Z"/><path class="cls-64" d="M17.72,55.47c1.36-2.69,3.14-3.68,5.7-3.68s4.34,1,5.7,3.68a14.26,14.26,0,0,1,1.45,6.94,46.67,46.67,0,0,1-.94,8.39,20.44,20.44,0,0,1-1.14,3.82,8.69,8.69,0,0,1-1.21,2.07,5,5,0,0,1-3.86,2.06,5,5,0,0,1-3.86-2.06,8.74,8.74,0,0,1-1.21-2,21.22,21.22,0,0,1-1.14-3.82,46.67,46.67,0,0,1-.94-8.39A14.21,14.21,0,0,1,17.72,55.47Z"/><path class="cls-65" d="M17.73,55.5c1.36-2.7,3.13-3.69,5.69-3.69s4.33,1,5.69,3.69a14.38,14.38,0,0,1,1.43,6.93,46.21,46.21,0,0,1-.93,8.35,20.85,20.85,0,0,1-1.14,3.81,8.69,8.69,0,0,1-1.21,2.07,5,5,0,0,1-3.84,2,5,5,0,0,1-3.84-2,8.74,8.74,0,0,1-1.21-2,20.91,20.91,0,0,1-1.13-3.81,46.34,46.34,0,0,1-.94-8.36A14.42,14.42,0,0,1,17.73,55.5Z"/><path class="cls-66" d="M17.75,55.53c1.36-2.7,3.12-3.69,5.67-3.69s4.31,1,5.67,3.69a14.45,14.45,0,0,1,1.42,6.91,45.22,45.22,0,0,1-.93,8.33,21.14,21.14,0,0,1-1.13,3.79,9.24,9.24,0,0,1-1.2,2.07,4.94,4.94,0,0,1-3.83,2,4.91,4.91,0,0,1-3.82-2,8.14,8.14,0,0,1-1.2-2,21.14,21.14,0,0,1-1.13-3.79,46.12,46.12,0,0,1-.94-8.34A14.49,14.49,0,0,1,17.75,55.53Z"/><path class="cls-67" d="M17.77,55.57c1.35-2.72,3.11-3.71,5.65-3.71s4.3,1,5.65,3.71a14.32,14.32,0,0,1,1.42,6.88,46.68,46.68,0,0,1-.93,8.3,21.14,21.14,0,0,1-1.13,3.79,8.72,8.72,0,0,1-1.2,2,4.9,4.9,0,0,1-3.81,2,4.93,4.93,0,0,1-3.81-2,8.63,8.63,0,0,1-1.19-2,20.77,20.77,0,0,1-1.13-3.78,46.68,46.68,0,0,1-.93-8.3A14.42,14.42,0,0,1,17.77,55.57Z"/><path class="cls-68" d="M17.79,55.6c1.35-2.73,3.09-3.71,5.63-3.71s4.28,1,5.63,3.71a14.42,14.42,0,0,1,1.41,6.86,46.25,46.25,0,0,1-.93,8.27,21.07,21.07,0,0,1-1.12,3.78,9.07,9.07,0,0,1-1.19,2,4.93,4.93,0,0,1-3.8,2,4.88,4.88,0,0,1-3.79-2,8.83,8.83,0,0,1-1.19-2,21.07,21.07,0,0,1-1.12-3.78,46.14,46.14,0,0,1-.93-8.27A14.49,14.49,0,0,1,17.79,55.6Z"/><path class="cls-69" d="M17.81,55.64c1.34-2.75,3.08-3.73,5.61-3.73s4.27,1,5.62,3.73a14.42,14.42,0,0,1,1.39,6.83,46,46,0,0,1-.92,8.25,21.66,21.66,0,0,1-1.12,3.76,9.21,9.21,0,0,1-1.19,2,4.85,4.85,0,0,1-3.78,2,4.88,4.88,0,0,1-3.77-2,8.83,8.83,0,0,1-1.19-2,20.88,20.88,0,0,1-1.11-3.76,45.13,45.13,0,0,1-.93-8.25A14.36,14.36,0,0,1,17.81,55.64Z"/><path class="cls-70" d="M17.83,55.67c1.34-2.75,3.07-3.73,5.59-3.73s4.26,1,5.6,3.73a14.37,14.37,0,0,1,1.38,6.81,45.68,45.68,0,0,1-.92,8.22,20.75,20.75,0,0,1-1.11,3.75,8.84,8.84,0,0,1-1.19,2,4.83,4.83,0,0,1-3.76,2,4.86,4.86,0,0,1-3.76-2,9.25,9.25,0,0,1-1.17-2,20.69,20.69,0,0,1-1.12-3.75,45.68,45.68,0,0,1-.92-8.22A14.34,14.34,0,0,1,17.83,55.67Z"/><path class="cls-71" d="M17.85,55.7C19.18,52.94,20.91,52,23.43,52s4.23,1,5.57,3.74a14.46,14.46,0,0,1,1.38,6.79,46.17,46.17,0,0,1-.92,8.19,21.45,21.45,0,0,1-1.11,3.74,8.54,8.54,0,0,1-1.18,2,4.82,4.82,0,0,1-3.74,2,4.83,4.83,0,0,1-3.75-2,8.94,8.94,0,0,1-1.17-2,20.74,20.74,0,0,1-1.11-3.73,45.46,45.46,0,0,1-.92-8.2A14.41,14.41,0,0,1,17.85,55.7Z"/><path class="cls-72" d="M17.87,55.74C19.2,53,20.91,52,23.43,52s4.22,1,5.55,3.75a14.48,14.48,0,0,1,1.37,6.77,46,46,0,0,1-.92,8.16,20.67,20.67,0,0,1-1.1,3.72,8.74,8.74,0,0,1-1.18,2,4.78,4.78,0,0,1-3.72,2,4.82,4.82,0,0,1-3.73-2,8.94,8.94,0,0,1-1.17-2,20.42,20.42,0,0,1-1.1-3.72,45,45,0,0,1-.92-8.17A14.41,14.41,0,0,1,17.87,55.74Z"/><path class="cls-73" d="M17.89,55.77C19.22,53,20.92,52,23.43,52s4.21,1,5.54,3.76a14.44,14.44,0,0,1,1.35,6.75,44.7,44.7,0,0,1-.92,8.13,20.54,20.54,0,0,1-1.1,3.71,8.44,8.44,0,0,1-1.16,2,4.77,4.77,0,0,1-3.71,2,4.76,4.76,0,0,1-3.71-2,8.86,8.86,0,0,1-1.17-2,22.29,22.29,0,0,1-1.1-3.71,46.55,46.55,0,0,1-.92-8.13A14.52,14.52,0,0,1,17.89,55.77Z"/><path class="cls-74" d="M17.9,55.8C19.23,53,20.93,52,23.43,52S27.62,53,29,55.8a14.55,14.55,0,0,1,1.34,6.73,44.27,44.27,0,0,1-.91,8.1,20.17,20.17,0,0,1-1.1,3.7,8.44,8.44,0,0,1-1.16,2,4.74,4.74,0,0,1-3.69,2,4.77,4.77,0,0,1-3.7-2,8.6,8.6,0,0,1-1.15-2,20.66,20.66,0,0,1-1.1-3.7,45.39,45.39,0,0,1-.92-8.11A14.74,14.74,0,0,1,17.9,55.8Z"/><path class="cls-75" d="M17.92,55.84c1.33-2.81,3-3.78,5.51-3.78s4.18,1,5.5,3.78a14.41,14.41,0,0,1,1.34,6.7,45.06,45.06,0,0,1-.92,8.08,19.8,19.8,0,0,1-1.09,3.69,8.47,8.47,0,0,1-1.15,2,4.75,4.75,0,0,1-3.68,2,4.72,4.72,0,0,1-3.68-2,8.32,8.32,0,0,1-1.15-2,20.59,20.59,0,0,1-1.09-3.69,45.06,45.06,0,0,1-.92-8.08A14.61,14.61,0,0,1,17.92,55.84Z"/><path class="cls-76" d="M17.94,55.87c1.32-2.82,3-3.78,5.49-3.78s4.17,1,5.49,3.78a14.63,14.63,0,0,1,1.32,6.68,44.71,44.71,0,0,1-.91,8,20.46,20.46,0,0,1-1.09,3.68,8.68,8.68,0,0,1-1.15,2,4.7,4.7,0,0,1-3.66,2,4.7,4.7,0,0,1-3.66-2,8.52,8.52,0,0,1-1.15-2,21.17,21.17,0,0,1-1.09-3.67,45.64,45.64,0,0,1-.91-8.06A14.59,14.59,0,0,1,17.94,55.87Z"/><path class="cls-77" d="M18,55.91c1.32-2.84,3-3.8,5.47-3.8s4.15,1,5.47,3.8a14.53,14.53,0,0,1,1.31,6.65,44.5,44.5,0,0,1-.91,8,20.51,20.51,0,0,1-1.08,3.66,8.74,8.74,0,0,1-1.14,2,4.7,4.7,0,0,1-3.65,2,4.7,4.7,0,0,1-3.65-2,8.58,8.58,0,0,1-1.14-2,21.1,21.1,0,0,1-1.08-3.66,44.39,44.39,0,0,1-.91-8A14.6,14.6,0,0,1,18,55.91Z"/><path class="cls-78" d="M18,55.94c1.31-2.84,3-3.8,5.45-3.8s4.14,1,5.45,3.8a14.35,14.35,0,0,1,1.3,6.63,44.05,44.05,0,0,1-.9,8,21.23,21.23,0,0,1-1.08,3.65,9,9,0,0,1-1.14,2,4.66,4.66,0,0,1-3.63,2,4.66,4.66,0,0,1-3.63-2,8.56,8.56,0,0,1-1.13-2,19.89,19.89,0,0,1-1.08-3.65,44.07,44.07,0,0,1-.91-8A14.68,14.68,0,0,1,18,55.94Z"/><path class="cls-79" d="M18,56c1.31-2.85,3-3.81,5.43-3.81s4.13,1,5.43,3.81a14.55,14.55,0,0,1,1.3,6.61,44.64,44.64,0,0,1-.91,8,20.06,20.06,0,0,1-1.07,3.64,9,9,0,0,1-1.13,2,4.63,4.63,0,0,1-3.62,2,4.64,4.64,0,0,1-3.61-2,8.7,8.7,0,0,1-1.13-2,20.7,20.7,0,0,1-1.08-3.63,44.73,44.73,0,0,1-.9-8A14.54,14.54,0,0,1,18,56Z"/><path class="cls-80" d="M18,56c1.3-2.87,2.95-3.82,5.41-3.82s4.11,1,5.42,3.82a14.62,14.62,0,0,1,1.28,6.59,44.4,44.4,0,0,1-.9,7.94,20,20,0,0,1-1.07,3.62,8.64,8.64,0,0,1-1.13,2,4.61,4.61,0,0,1-3.6,2,4.64,4.64,0,0,1-3.6-2,9.08,9.08,0,0,1-1.12-2,20,20,0,0,1-1.07-3.62,44.3,44.3,0,0,1-.9-7.94A14.55,14.55,0,0,1,18,56Z"/><path class="cls-81" d="M18,56c1.3-2.88,2.94-3.83,5.39-3.83s4.1.95,5.4,3.83a14.56,14.56,0,0,1,1.27,6.57,44.07,44.07,0,0,1-.9,7.91,20.82,20.82,0,0,1-1.06,3.61,8.56,8.56,0,0,1-1.13,2,4.59,4.59,0,0,1-3.58,2,4.61,4.61,0,0,1-3.58-2,8.91,8.91,0,0,1-1.12-1.94,21,21,0,0,1-1.06-3.62,44,44,0,0,1-.9-7.91A14.52,14.52,0,0,1,18,56Z"/><path class="cls-82" d="M18.06,56.07c1.29-2.88,2.93-3.83,5.37-3.83s4.09.95,5.38,3.83a14.54,14.54,0,0,1,1.26,6.55,44.65,44.65,0,0,1-.89,7.88,20.43,20.43,0,0,1-1.06,3.6,8.93,8.93,0,0,1-1.12,2,4.56,4.56,0,0,1-3.57,2,4.59,4.59,0,0,1-3.56-2,8.73,8.73,0,0,1-1.11-1.94,20.89,20.89,0,0,1-1.07-3.6,44.66,44.66,0,0,1-.89-7.89A14.61,14.61,0,0,1,18.06,56.07Z"/><path class="cls-83" d="M18.08,56.11c1.29-2.9,2.91-3.85,5.35-3.85s4.07,1,5.36,3.85a14.68,14.68,0,0,1,1.26,6.52,43.43,43.43,0,0,1-.9,7.86,20.75,20.75,0,0,1-1,3.58A8.85,8.85,0,0,1,27,76a4.53,4.53,0,0,1-3.55,2,4.52,4.52,0,0,1-3.54-2,8.43,8.43,0,0,1-1.11-1.93,20.55,20.55,0,0,1-1.06-3.59,44.32,44.32,0,0,1-.89-7.86A14.61,14.61,0,0,1,18.08,56.11Z"/><path class="cls-84" d="M18.09,56.14c1.29-2.91,2.91-3.85,5.35-3.85s4,.94,5.34,3.85A14.64,14.64,0,0,1,30,62.64a44,44,0,0,1-.89,7.83,20.75,20.75,0,0,1-1.05,3.58A8.81,8.81,0,0,1,27,76a4.54,4.54,0,0,1-3.53,2,4.54,4.54,0,0,1-3.54-2,8.8,8.8,0,0,1-1.1-1.93,20.61,20.61,0,0,1-1.05-3.57,45,45,0,0,1-.9-7.84A14.87,14.87,0,0,1,18.09,56.14Z"/><path class="cls-85" d="M18.11,56.18c1.29-2.93,2.9-3.87,5.33-3.87s4,.94,5.32,3.87A14.68,14.68,0,0,1,30,62.65a43.66,43.66,0,0,1-.89,7.8,20.68,20.68,0,0,1-1,3.57A8.51,8.51,0,0,1,27,76a4.5,4.5,0,0,1-3.51,2,4.52,4.52,0,0,1-3.52-2A8.72,8.72,0,0,1,18.82,74a20.28,20.28,0,0,1-1-3.56,43.67,43.67,0,0,1-.9-7.8A14.76,14.76,0,0,1,18.11,56.18Z"/><path class="cls-86" d="M18.13,56.21c1.28-2.94,2.88-3.87,5.31-3.87s4,.94,5.3,3.87A14.6,14.6,0,0,1,30,62.66a43.43,43.43,0,0,1-.88,7.78A21.61,21.61,0,0,1,28,74a8.89,8.89,0,0,1-1.1,1.94,4.48,4.48,0,0,1-3.5,2,4.47,4.47,0,0,1-3.5-2A8.33,8.33,0,0,1,18.85,74a20.08,20.08,0,0,1-1.05-3.55,44.26,44.26,0,0,1-.89-7.77A14.71,14.71,0,0,1,18.13,56.21Z"/><path class="cls-87" d="M18.15,56.24c1.27-2.94,2.87-3.88,5.29-3.88s4,.94,5.29,3.88a14.7,14.7,0,0,1,1.21,6.44,43.92,43.92,0,0,1-.89,7.74A19.44,19.44,0,0,1,28,74a8.4,8.4,0,0,1-1.09,1.93,4.44,4.44,0,0,1-3.48,2,4.47,4.47,0,0,1-3.49-2A8.76,8.76,0,0,1,18.87,74a19.94,19.94,0,0,1-1-3.54,43.11,43.11,0,0,1-.89-7.75A14.83,14.83,0,0,1,18.15,56.24Z"/><path class="cls-88" d="M18.17,56.28c1.27-3,2.86-3.89,5.27-3.89s4,.93,5.27,3.89a14.75,14.75,0,0,1,1.2,6.41A43.79,43.79,0,0,1,29,70.41a20.27,20.27,0,0,1-1,3.52,8.39,8.39,0,0,1-1.08,1.93,4.46,4.46,0,0,1-3.47,2,4.45,4.45,0,0,1-3.47-2A9,9,0,0,1,18.89,74a20.47,20.47,0,0,1-1-3.53A42.68,42.68,0,0,1,17,62.71,14.85,14.85,0,0,1,18.17,56.28Z"/><path class="cls-89" d="M18.19,56.31c1.26-3,2.85-3.9,5.25-3.9s4,.93,5.25,3.9a14.7,14.7,0,0,1,1.19,6.39A43.35,43.35,0,0,1,29,70.39a20.2,20.2,0,0,1-1,3.51,8.11,8.11,0,0,1-1.08,1.92,4.4,4.4,0,0,1-3.45,2,4.43,4.43,0,0,1-3.45-2,8.68,8.68,0,0,1-1.08-1.89,21.41,21.41,0,0,1-1-3.51,43.46,43.46,0,0,1-.88-7.7A14.79,14.79,0,0,1,18.19,56.31Z"/><path class="cls-90" d="M18.21,56.34c1.26-3,2.83-3.9,5.23-3.9s4,.92,5.23,3.9a14.79,14.79,0,0,1,1.18,6.37A43,43,0,0,1,29,70.37a20.06,20.06,0,0,1-1,3.5,8.68,8.68,0,0,1-1.07,1.92,4.41,4.41,0,0,1-3.44,2,4.38,4.38,0,0,1-3.43-2,8.27,8.27,0,0,1-1.07-1.89,19.23,19.23,0,0,1-1-3.5A43,43,0,0,1,17,62.73,14.92,14.92,0,0,1,18.21,56.34Z"/><path class="cls-91" d="M18.23,56.38c1.25-3,2.82-3.92,5.21-3.92s4,.93,5.22,3.92a14.84,14.84,0,0,1,1.17,6.34A43.85,43.85,0,0,1,29,70.36a20.12,20.12,0,0,1-1,3.48,8.6,8.6,0,0,1-1.07,1.91,4.36,4.36,0,0,1-3.42,2,4.38,4.38,0,0,1-3.42-2A8.57,8.57,0,0,1,19,73.87a20,20,0,0,1-1-3.49,42.69,42.69,0,0,1-.88-7.63A14.81,14.81,0,0,1,18.23,56.38Z"/><path class="cls-92" d="M18.25,56.41c1.25-3,2.81-3.92,5.19-3.92s3.94.92,5.2,3.92a14.94,14.94,0,0,1,1.16,6.32,44.25,44.25,0,0,1-.87,7.61,20.12,20.12,0,0,1-1,3.48,8.35,8.35,0,0,1-1.07,1.9,4.32,4.32,0,0,1-3.4,2,4.36,4.36,0,0,1-3.4-2A8.57,8.57,0,0,1,19,73.84a19.73,19.73,0,0,1-1-3.47,43.28,43.28,0,0,1-.87-7.61A14.78,14.78,0,0,1,18.25,56.41Z"/><path class="cls-93" d="M18.26,56.45c1.25-3,2.8-3.94,5.18-3.94s3.93.92,5.18,3.94a14.81,14.81,0,0,1,1.15,6.29,42,42,0,0,1-.87,7.58,21,21,0,0,1-1,3.47,9,9,0,0,1-1.06,1.9,4.31,4.31,0,0,1-3.39,2,4.3,4.3,0,0,1-3.38-2A8.26,8.26,0,0,1,19,73.81a20.55,20.55,0,0,1-1-3.46,42,42,0,0,1-.87-7.58A15,15,0,0,1,18.26,56.45Z"/><path class="cls-94" d="M18.28,56.48c1.25-3,2.79-3.95,5.16-3.95s3.92.92,5.16,3.95a14.65,14.65,0,0,1,1.14,6.28,42.81,42.81,0,0,1-.86,7.55,21,21,0,0,1-1,3.45,8.65,8.65,0,0,1-1.06,1.89,4.29,4.29,0,0,1-3.37,2,4.32,4.32,0,0,1-3.37-2,8.61,8.61,0,0,1-1-1.86,19.19,19.19,0,0,1-1-3.45,41.91,41.91,0,0,1-.87-7.56A14.92,14.92,0,0,1,18.28,56.48Z"/><path class="cls-95" d="M18.3,56.51c1.24-3,2.78-3.95,5.14-3.95s3.9.91,5.15,3.95a15.07,15.07,0,0,1,1.13,6.26,43.33,43.33,0,0,1-.87,7.52,20,20,0,0,1-1,3.44,9.07,9.07,0,0,1-1.05,1.89,4.32,4.32,0,0,1-3.36,2,4.29,4.29,0,0,1-3.35-2,8.29,8.29,0,0,1-1-1.85,20.84,20.84,0,0,1-1-3.44,43.33,43.33,0,0,1-.87-7.53A15.2,15.2,0,0,1,18.3,56.51Z"/><path class="cls-96" d="M18.32,56.55c1.24-3.06,2.77-4,5.13-4s3.88.91,5.12,4a14.93,14.93,0,0,1,1.12,6.23,43,43,0,0,1-.86,7.49,20.77,20.77,0,0,1-1,3.43,8.55,8.55,0,0,1-1,1.88,4.24,4.24,0,0,1-3.33,2,4.24,4.24,0,0,1-3.34-2,8.52,8.52,0,0,1-1-1.85,20.48,20.48,0,0,1-1-3.43,43,43,0,0,1-.87-7.5A15.06,15.06,0,0,1,18.32,56.55Z"/><path class="cls-97" d="M18.34,56.58c1.23-3.06,2.75-4,5.11-4s3.87.91,5.1,4a14.91,14.91,0,0,1,1.11,6.21,42.64,42.64,0,0,1-.86,7.47,20.56,20.56,0,0,1-1,3.41,9,9,0,0,1-1,1.88,4.25,4.25,0,0,1-3.32,2,4.21,4.21,0,0,1-3.32-2,8.44,8.44,0,0,1-1-1.84,19.64,19.64,0,0,1-1-3.41,42.77,42.77,0,0,1-.87-7.47A15.19,15.19,0,0,1,18.34,56.58Z"/><path class="cls-98" d="M18.36,56.61c1.22-3.07,2.74-4,5.09-4s3.86.91,5.08,4a14.85,14.85,0,0,1,1.1,6.19,42.29,42.29,0,0,1-.85,7.44,21.42,21.42,0,0,1-1,3.4,8.88,8.88,0,0,1-1,1.87,4.22,4.22,0,0,1-3.3,2,4.25,4.25,0,0,1-3.31-2,8.41,8.41,0,0,1-1-1.84,20.35,20.35,0,0,1-1-3.4,43.27,43.27,0,0,1-.86-7.44A15.17,15.17,0,0,1,18.36,56.61Z"/><path class="cls-99" d="M18.38,56.65c1.22-3.09,2.73-4,5.07-4s3.84.9,5.07,4a15,15,0,0,1,1.09,6.16,42.93,42.93,0,0,1-.86,7.41,20.06,20.06,0,0,1-1,3.39,9.13,9.13,0,0,1-1,1.87,4.2,4.2,0,0,1-3.29,2,4.22,4.22,0,0,1-3.29-2,8.41,8.41,0,0,1-1-1.84,19.24,19.24,0,0,1-1-3.38,43.16,43.16,0,0,1-.86-7.42A15,15,0,0,1,18.38,56.65Z"/><path class="cls-100" d="M18.4,56.68c1.21-3.1,2.71-4,5.05-4s3.83.9,5.05,4a15,15,0,0,1,1.08,6.14,42.69,42.69,0,0,1-.85,7.39,19.77,19.77,0,0,1-1,3.38,8.5,8.5,0,0,1-1,1.85,4.16,4.16,0,0,1-3.27,2,4.16,4.16,0,0,1-3.27-2,8.51,8.51,0,0,1-1-1.83,20.06,20.06,0,0,1-1-3.37,42.7,42.7,0,0,1-.86-7.39A14.94,14.94,0,0,1,18.4,56.68Z"/><path class="cls-101" d="M18.42,56.72c1.21-3.12,2.7-4,5-4s3.82.89,5,4a14.9,14.9,0,0,1,1.07,6.12,42.35,42.35,0,0,1-.85,7.35,20.35,20.35,0,0,1-1,3.37,8.48,8.48,0,0,1-1,1.85,4.17,4.17,0,0,1-3.26,1.94,4.17,4.17,0,0,1-3.26-1.94,9.42,9.42,0,0,1-1-1.82,20.35,20.35,0,0,1-1-3.37,42.24,42.24,0,0,1-.85-7.36A15,15,0,0,1,18.42,56.72Z"/><path class="cls-102" d="M18.44,56.75c1.2-3.13,2.69-4,5-4s3.81.9,5,4a15.36,15.36,0,0,1,1.06,6.1,43.11,43.11,0,0,1-.85,7.33,20.36,20.36,0,0,1-1,3.35,8.4,8.4,0,0,1-1,1.84,4.11,4.11,0,0,1-3.24,1.94,4.14,4.14,0,0,1-3.24-1.94,8.14,8.14,0,0,1-1-1.81,20.36,20.36,0,0,1-1-3.35,42.12,42.12,0,0,1-.85-7.34A15.12,15.12,0,0,1,18.44,56.75Z"/><path class="cls-103" d="M18.45,56.78c1.21-3.13,2.69-4,5-4s3.79.89,5,4a15.17,15.17,0,0,1,1.05,6.08,41.67,41.67,0,0,1-.85,7.3,20.28,20.28,0,0,1-1,3.34,8.4,8.4,0,0,1-1,1.84,4.1,4.1,0,0,1-3.22,1.94,4.1,4.1,0,0,1-3.22-1.94,8.14,8.14,0,0,1-1-1.81,20,20,0,0,1-1-3.34,41.67,41.67,0,0,1-.85-7.3A15.27,15.27,0,0,1,18.45,56.78Z"/><path class="cls-104" d="M18.47,56.82c1.2-3.15,2.67-4,5-4s3.78.89,5,4a15,15,0,0,1,1,6,42.29,42.29,0,0,1-.84,7.27,19.85,19.85,0,0,1-1,3.33,8.49,8.49,0,0,1-1,1.83,4.09,4.09,0,0,1-3.21,1.94,4.1,4.1,0,0,1-3.21-1.94,8.71,8.71,0,0,1-1-1.8,19.14,19.14,0,0,1-1-3.32,41.56,41.56,0,0,1-.85-7.28A15.34,15.34,0,0,1,18.47,56.82Z"/><path class="cls-105" d="M18.49,56.85c1.19-3.16,2.66-4,5-4s3.77.88,5,4a15.11,15.11,0,0,1,1,6,42.17,42.17,0,0,1-.84,7.25,19.93,19.93,0,0,1-1,3.31,8.54,8.54,0,0,1-1,1.83,4.07,4.07,0,0,1-3.19,1.93,4.1,4.1,0,0,1-3.19-1.93,8.71,8.71,0,0,1-1-1.8,20.94,20.94,0,0,1-1-3.31,42.06,42.06,0,0,1-.84-7.25A15.11,15.11,0,0,1,18.49,56.85Z"/><path class="cls-106" d="M18.51,56.88c1.19-3.17,2.65-4.05,4.94-4.05s3.76.88,4.95,4.05a15.45,15.45,0,0,1,1,6,42.61,42.61,0,0,1-.85,7.22,19.85,19.85,0,0,1-.95,3.3,8.64,8.64,0,0,1-1,1.82,4,4,0,0,1-3.18,1.93,4,4,0,0,1-3.17-1.93,8,8,0,0,1-1-1.79,18.62,18.62,0,0,1-1-3.3,42.61,42.61,0,0,1-.85-7.22A15.43,15.43,0,0,1,18.51,56.88Z"/><path class="cls-107" d="M18.53,56.92c1.18-3.19,2.63-4.06,4.92-4.06s3.74.87,4.93,4.06a15.13,15.13,0,0,1,1,6,41.26,41.26,0,0,1-.84,7.19,19.71,19.71,0,0,1-.95,3.29,8.64,8.64,0,0,1-1,1.82,4,4,0,0,1-3.16,1.93A4,4,0,0,1,20.3,75.2a8.32,8.32,0,0,1-1-1.78,20,20,0,0,1-.95-3.29,42.5,42.5,0,0,1-.85-7.2A15.29,15.29,0,0,1,18.53,56.92Z"/><path class="cls-108" d="M18.55,57c1.18-3.2,2.62-4.07,4.91-4.07s3.72.88,4.9,4.07a15.25,15.25,0,0,1,1,6,41.15,41.15,0,0,1-.84,7.17,19.78,19.78,0,0,1-.94,3.27,9,9,0,0,1-1,1.81,4,4,0,0,1-3.14,1.93,4,4,0,0,1-3.15-1.93,8.42,8.42,0,0,1-1-1.77,19.86,19.86,0,0,1-.95-3.28,43,43,0,0,1-.84-7.17A15.42,15.42,0,0,1,18.55,57Z"/><path class="cls-109" d="M18.57,57c1.17-3.21,2.61-4.08,4.89-4.08s3.71.87,4.88,4.08a15.16,15.16,0,0,1,1,5.94,41.66,41.66,0,0,1-.83,7.13,20.81,20.81,0,0,1-.94,3.27,8.7,8.7,0,0,1-1,1.8,4,4,0,0,1-3.12,1.92,4,4,0,0,1-3.13-1.92,8.42,8.42,0,0,1-1-1.77,19.93,19.93,0,0,1-.94-3.26A41.79,41.79,0,0,1,17.58,63,15.32,15.32,0,0,1,18.57,57Z"/><path class="cls-110" d="M18.59,57c1.16-3.22,2.6-4.09,4.87-4.09s3.7.87,4.87,4.09a15.48,15.48,0,0,1,1,5.92,41.33,41.33,0,0,1-.84,7.1,19.71,19.71,0,0,1-.93,3.26,8.82,8.82,0,0,1-1,1.79A4,4,0,0,1,23.46,77a3.94,3.94,0,0,1-3.11-1.92,8.32,8.32,0,0,1-1-1.76,18.59,18.59,0,0,1-.94-3.25A41.44,41.44,0,0,1,17.61,63,15.46,15.46,0,0,1,18.59,57Z"/><path class="cls-111" d="M18.61,57.05C19.77,53.82,21.19,53,23.46,53s3.68.86,4.85,4.09a15.43,15.43,0,0,1,1,5.9A42.1,42.1,0,0,1,28.45,70a20.75,20.75,0,0,1-.93,3.24,9.09,9.09,0,0,1-1,1.79A3.93,3.93,0,0,1,23.46,77a4,4,0,0,1-3.1-1.91,8.79,8.79,0,0,1-.95-1.76,19.36,19.36,0,0,1-.94-3.24A42,42,0,0,1,17.64,63,15.4,15.4,0,0,1,18.61,57.05Z"/><path class="cls-112" d="M18.62,57.09C19.78,53.84,21.2,53,23.46,53s3.67.86,4.83,4.11a15.31,15.31,0,0,1,1,5.87A40.63,40.63,0,0,1,28.42,70a19.64,19.64,0,0,1-.92,3.23,9,9,0,0,1-1,1.78,3.89,3.89,0,0,1-3.07,1.92A4,4,0,0,1,20.38,75a8.43,8.43,0,0,1-.95-1.75,20.14,20.14,0,0,1-.93-3.22A41.86,41.86,0,0,1,17.67,63,15.5,15.5,0,0,1,18.62,57.09Z"/><path class="cls-113" d="M18.64,57.12C19.79,53.86,21.21,53,23.46,53s3.66.85,4.82,4.11A15.47,15.47,0,0,1,29.22,63a40.5,40.5,0,0,1-.82,7,20.62,20.62,0,0,1-.93,3.21A8.05,8.05,0,0,1,26.52,75a3.89,3.89,0,0,1-3.06,1.91A3.89,3.89,0,0,1,20.4,75a9,9,0,0,1-.95-1.75A19.08,19.08,0,0,1,18.53,70a41.39,41.39,0,0,1-.83-7A15.44,15.44,0,0,1,18.64,57.12Z"/><path class="cls-114" d="M18.66,57.15c1.15-3.27,2.55-4.12,4.8-4.12s3.65.85,4.8,4.12A15.6,15.6,0,0,1,29.2,63a41.16,41.16,0,0,1-.83,7,19.22,19.22,0,0,1-.92,3.2A8,8,0,0,1,26.5,75a3.85,3.85,0,0,1-3,1.91,3.85,3.85,0,0,1-3-1.91,8.28,8.28,0,0,1-.94-1.73,20.47,20.47,0,0,1-.93-3.2,42.18,42.18,0,0,1-.82-7A15.58,15.58,0,0,1,18.66,57.15Z"/><path class="cls-115" d="M18.68,57.19c1.14-3.29,2.54-4.13,4.78-4.13s3.64.85,4.78,4.13a15.48,15.48,0,0,1,.93,5.8,41.71,41.71,0,0,1-.82,7,19.08,19.08,0,0,1-.92,3.19,8.39,8.39,0,0,1-.94,1.77,3.83,3.83,0,0,1-3,1.9,3.88,3.88,0,0,1-3-1.9,8.76,8.76,0,0,1-.93-1.73A19.37,19.37,0,0,1,18.58,70a40.8,40.8,0,0,1-.82-7A15.46,15.46,0,0,1,18.68,57.19Z"/><path class="cls-116" d="M18.7,57.22c1.14-3.29,2.53-4.14,4.76-4.14s3.62.85,4.76,4.14A15.45,15.45,0,0,1,29.14,63,41.48,41.48,0,0,1,28.32,70a18.87,18.87,0,0,1-.91,3.17,8.06,8.06,0,0,1-.94,1.76,3.82,3.82,0,0,1-3,1.91,3.82,3.82,0,0,1-3-1.91,8.18,8.18,0,0,1-.93-1.72A19.29,19.29,0,0,1,18.61,70,39.49,39.49,0,0,1,17.79,63,15.6,15.6,0,0,1,18.7,57.22Z"/><path class="cls-117" d="M18.72,57.26c1.13-3.31,2.52-4.15,4.74-4.15s3.61.84,4.75,4.15a15.48,15.48,0,0,1,.9,5.76,40.1,40.1,0,0,1-.81,6.91,20.5,20.5,0,0,1-.91,3.17,8.45,8.45,0,0,1-.93,1.75,3.83,3.83,0,0,1-3,1.9,3.8,3.8,0,0,1-3-1.9,8.18,8.18,0,0,1-.93-1.72A20,20,0,0,1,18.63,70a41.12,41.12,0,0,1-.82-6.92A15.67,15.67,0,0,1,18.72,57.26Z"/><path class="cls-118" d="M18.74,57.29c1.12-3.32,2.5-4.16,4.72-4.16s3.6.84,4.73,4.16a15.65,15.65,0,0,1,.9,5.74,40.65,40.65,0,0,1-.82,6.88,19.36,19.36,0,0,1-.9,3.16,8.45,8.45,0,0,1-.93,1.75,3.8,3.8,0,0,1-3,1.89,3.82,3.82,0,0,1-3-1.9,7.83,7.83,0,0,1-.91-1.71A18.87,18.87,0,0,1,18.66,70a40.77,40.77,0,0,1-.82-6.89A15.83,15.83,0,0,1,18.74,57.29Z"/><path class="cls-119" d="M18.76,57.32c1.12-3.33,2.49-4.16,4.7-4.16s3.59.83,4.71,4.16A15.59,15.59,0,0,1,29.06,63a41.57,41.57,0,0,1-.81,6.86,20.12,20.12,0,0,1-.9,3.14,8.57,8.57,0,0,1-.92,1.74,3.77,3.77,0,0,1-3,1.89,3.78,3.78,0,0,1-3-1.89,8.07,8.07,0,0,1-.91-1.71,19.66,19.66,0,0,1-.9-3.13,40.54,40.54,0,0,1-.82-6.87A15.56,15.56,0,0,1,18.76,57.32Z"/><path class="cls-120" d="M18.78,57.36c1.11-3.35,2.48-4.18,4.68-4.18S27,54,28.15,57.36A15.48,15.48,0,0,1,29,63.05a40.06,40.06,0,0,1-.81,6.83A19,19,0,0,1,27.33,73a9.14,9.14,0,0,1-.92,1.74,3.74,3.74,0,0,1-2.95,1.88,3.73,3.73,0,0,1-2.94-1.89,7.75,7.75,0,0,1-.91-1.7,19.51,19.51,0,0,1-.9-3.12,41.21,41.21,0,0,1-.81-6.84A15.65,15.65,0,0,1,18.78,57.36Z"/><path class="cls-121" d="M18.8,57.39c1.1-3.36,2.46-4.18,4.67-4.18S27,54,28.14,57.39A15.65,15.65,0,0,1,29,63.06a40.6,40.6,0,0,1-.8,6.8A20.69,20.69,0,0,1,27.31,73a8.75,8.75,0,0,1-.91,1.73,3.75,3.75,0,0,1-2.93,1.89,3.73,3.73,0,0,1-2.93-1.89A8.64,8.64,0,0,1,19.63,73a19.58,19.58,0,0,1-.89-3.12,40.73,40.73,0,0,1-.81-6.8A15.61,15.61,0,0,1,18.8,57.39Z"/><path class="cls-122" d="M18.81,57.42c1.1-3.37,2.46-4.19,4.66-4.19s3.54.82,4.65,4.19A16,16,0,0,1,29,63.07a40.5,40.5,0,0,1-.81,6.78,19.67,19.67,0,0,1-.88,3.1,8.75,8.75,0,0,1-.91,1.73,3.69,3.69,0,0,1-2.91,1.88,3.73,3.73,0,0,1-2.92-1.89A8.53,8.53,0,0,1,19.66,73a18.87,18.87,0,0,1-.89-3.1A40.5,40.5,0,0,1,18,63.11,16,16,0,0,1,18.81,57.42Z"/><path class="cls-123" d="M18.83,57.46c1.1-3.39,2.45-4.2,4.64-4.2s3.53.82,4.63,4.2A15.7,15.7,0,0,1,29,63.09a40.14,40.14,0,0,1-.8,6.74,19.84,19.84,0,0,1-.88,3.09,8.65,8.65,0,0,1-.91,1.72,3.66,3.66,0,0,1-2.89,1.88,3.68,3.68,0,0,1-2.9-1.88A8.53,8.53,0,0,1,19.68,73a18.8,18.8,0,0,1-.88-3.09A40.15,40.15,0,0,1,18,63.12,15.9,15.9,0,0,1,18.83,57.46Z"/><path class="cls-124" d="M18.85,57.49c1.09-3.39,2.44-4.21,4.62-4.21s3.52.82,4.61,4.21a15.64,15.64,0,0,1,.84,5.61,39.91,39.91,0,0,1-.8,6.72,19.61,19.61,0,0,1-.87,3.07,9.2,9.2,0,0,1-.9,1.72,3.67,3.67,0,0,1-2.88,1.87,3.66,3.66,0,0,1-2.88-1.88,8.16,8.16,0,0,1-.89-1.67,19.54,19.54,0,0,1-.88-3.07,40,40,0,0,1-.8-6.73A16.07,16.07,0,0,1,18.85,57.49Z"/><path class="cls-125" d="M18.87,57.53c1.08-3.41,2.42-4.22,4.6-4.22s3.51.81,4.6,4.22a16,16,0,0,1,.82,5.58,40.46,40.46,0,0,1-.79,6.69,21.12,21.12,0,0,1-.87,3.07,9,9,0,0,1-.9,1.7,3.63,3.63,0,0,1-2.86,1.88,3.68,3.68,0,0,1-2.87-1.88,9,9,0,0,1-.88-1.67,19.46,19.46,0,0,1-.87-3.06,39.43,39.43,0,0,1-.8-6.7A15.91,15.91,0,0,1,18.87,57.53Z"/><path class="cls-126" d="M18.89,57.56c1.08-3.42,2.41-4.23,4.58-4.23s3.5.81,4.58,4.23a15.92,15.92,0,0,1,.82,5.56,41.21,41.21,0,0,1-.8,6.66,19.46,19.46,0,0,1-.87,3.06,8.71,8.71,0,0,1-.88,1.7,3.62,3.62,0,0,1-2.85,1.87,3.61,3.61,0,0,1-2.85-1.88,8.05,8.05,0,0,1-.87-1.66,19,19,0,0,1-.87-3.05,39.08,39.08,0,0,1-.8-6.67A15.89,15.89,0,0,1,18.89,57.56Z"/><path class="cls-127" d="M18.91,57.59c1.07-3.43,2.4-4.23,4.56-4.23s3.49.8,4.56,4.23a15.86,15.86,0,0,1,.81,5.54,39.87,39.87,0,0,1-.79,6.64,19.48,19.48,0,0,1-.87,3,8.11,8.11,0,0,1-.88,1.69,3.59,3.59,0,0,1-2.83,1.87,3.59,3.59,0,0,1-2.83-1.87,8.22,8.22,0,0,1-.87-1.65,19.48,19.48,0,0,1-.87-3,39.87,39.87,0,0,1-.79-6.64A15.81,15.81,0,0,1,18.91,57.59Z"/><path class="cls-128" d="M18.93,57.63c1.06-3.45,2.38-4.25,4.54-4.25s3.48.8,4.55,4.25a16.16,16.16,0,0,1,.79,5.51A39.51,39.51,0,0,1,28,69.75a18.37,18.37,0,0,1-.86,3,8.61,8.61,0,0,1-.87,1.69,3.58,3.58,0,0,1-2.82,1.86,3.62,3.62,0,0,1-2.82-1.86,9.08,9.08,0,0,1-.86-1.65,19.09,19.09,0,0,1-.86-3,40.6,40.6,0,0,1-.8-6.61A16.14,16.14,0,0,1,18.93,57.63Z"/><path class="cls-129" d="M19,57.66c1.06-3.46,2.37-4.25,4.52-4.25s3.46.79,4.53,4.25a15.9,15.9,0,0,1,.78,5.49A40.21,40.21,0,0,1,28,69.73a20.4,20.4,0,0,1-.86,3,8.51,8.51,0,0,1-.87,1.68,3.54,3.54,0,0,1-2.8,1.86,3.56,3.56,0,0,1-2.8-1.86,8.4,8.4,0,0,1-.86-1.64,19.5,19.5,0,0,1-.85-3,40.36,40.36,0,0,1-.8-6.59A16.08,16.08,0,0,1,19,57.66Z"/><path class="cls-130" d="M19,57.69c1.05-3.47,2.36-4.26,4.5-4.26s3.45.79,4.51,4.26a16.08,16.08,0,0,1,.78,5.48A39.86,39.86,0,0,1,28,69.72a19.35,19.35,0,0,1-.85,3,8.5,8.5,0,0,1-.86,1.68,3.56,3.56,0,0,1-2.79,1.86,3.54,3.54,0,0,1-2.78-1.86,7.88,7.88,0,0,1-.85-1.64,19.28,19.28,0,0,1-.86-3,41,41,0,0,1-.79-6.56A16.27,16.27,0,0,1,19,57.69Z"/><path class="cls-131" d="M19,57.73c1.05-3.49,2.36-4.27,4.49-4.27s3.44.79,4.49,4.27a16.17,16.17,0,0,1,.77,5.45A40.59,40.59,0,0,1,28,69.7a20,20,0,0,1-.85,3,8.14,8.14,0,0,1-.86,1.67,3.53,3.53,0,0,1-2.77,1.86,3.53,3.53,0,0,1-2.76-1.86,8,8,0,0,1-.85-1.63,18.88,18.88,0,0,1-.85-3,40.59,40.59,0,0,1-.79-6.53A16.42,16.42,0,0,1,19,57.73Z"/><path class="cls-132" d="M19,57.76c1-3.5,2.34-4.28,4.47-4.28s3.43.79,4.48,4.28a16.17,16.17,0,0,1,.75,5.43,39.13,39.13,0,0,1-.78,6.49,18.81,18.81,0,0,1-.84,3,9,9,0,0,1-.85,1.67,3.52,3.52,0,0,1-2.76,1.85,3.54,3.54,0,0,1-2.75-1.85,8.86,8.86,0,0,1-.84-1.63,19,19,0,0,1-.84-3,39.38,39.38,0,0,1-.79-6.51A16.36,16.36,0,0,1,19,57.76Z"/><path class="cls-133" d="M19,57.8c1-3.51,2.33-4.29,4.46-4.29s3.41.78,4.45,4.29a16,16,0,0,1,.74,5.4,40,40,0,0,1-.77,6.47,19.62,19.62,0,0,1-.84,3,8.56,8.56,0,0,1-.85,1.66,3.47,3.47,0,0,1-2.73,1.85,3.47,3.47,0,0,1-2.74-1.85,8.44,8.44,0,0,1-.84-1.62,19.62,19.62,0,0,1-.84-3,39.85,39.85,0,0,1-.78-6.47A16.22,16.22,0,0,1,19,57.8Z"/><path class="cls-134" d="M19,57.83c1-3.52,2.32-4.3,4.44-4.3s3.4.78,4.43,4.3a16.18,16.18,0,0,1,.74,5.38,39.62,39.62,0,0,1-.78,6.44,20.41,20.41,0,0,1-.83,3,8.48,8.48,0,0,1-.85,1.65,3.47,3.47,0,0,1-2.71,1.85,3.48,3.48,0,0,1-2.72-1.85,8.08,8.08,0,0,1-.83-1.61,19,19,0,0,1-.84-3,39.74,39.74,0,0,1-.78-6.45A16.46,16.46,0,0,1,19,57.83Z"/><path class="cls-135" d="M19.06,57.86c1-3.53,2.3-4.3,4.42-4.3s3.39.77,4.41,4.3a16.16,16.16,0,0,1,.73,5.36,40.35,40.35,0,0,1-.77,6.42A20.45,20.45,0,0,1,27,72.58a9,9,0,0,1-.84,1.64,3.43,3.43,0,0,1-2.7,1.85,3.48,3.48,0,0,1-2.71-1.85,8.53,8.53,0,0,1-.82-1.6,18.6,18.6,0,0,1-.83-2.94,39.24,39.24,0,0,1-.78-6.42A16.4,16.4,0,0,1,19.06,57.86Z"/><path class="cls-136" d="M19.08,57.9c1-3.55,2.29-4.32,4.4-4.32s3.38.77,4.4,4.32a16.28,16.28,0,0,1,.71,5.33,40,40,0,0,1-.77,6.39A20,20,0,0,1,27,72.55a9,9,0,0,1-.84,1.64A3.41,3.41,0,0,1,23.48,76a3.44,3.44,0,0,1-2.69-1.84,8.53,8.53,0,0,1-.82-1.6,19.93,19.93,0,0,1-.83-2.93,40,40,0,0,1-.77-6.39A16.5,16.5,0,0,1,19.08,57.9Z"/><path class="cls-137" d="M19.1,57.93c1-3.56,2.28-4.32,4.38-4.32s3.37.76,4.38,4.32a16.47,16.47,0,0,1,.71,5.31,39.61,39.61,0,0,1-.77,6.36A21.17,21.17,0,0,1,27,72.52a9.16,9.16,0,0,1-.83,1.63A3.41,3.41,0,0,1,23.48,76a3.39,3.39,0,0,1-2.67-1.84A8.13,8.13,0,0,1,20,72.56a19.69,19.69,0,0,1-.82-2.91,39.73,39.73,0,0,1-.77-6.37A16.48,16.48,0,0,1,19.1,57.93Z"/><path class="cls-138" d="M19.12,58c1-3.57,2.27-4.33,4.36-4.33s3.36.76,4.36,4.33a16.71,16.71,0,0,1,.7,5.3,39.38,39.38,0,0,1-.77,6.33,19.61,19.61,0,0,1-.81,2.9,8.85,8.85,0,0,1-.83,1.63A3.36,3.36,0,0,1,23.48,76a3.39,3.39,0,0,1-2.65-1.83A8.15,8.15,0,0,1,20,72.53a18.39,18.39,0,0,1-.82-2.9,39.23,39.23,0,0,1-.77-6.34A16.38,16.38,0,0,1,19.12,58Z"/><path class="cls-139" d="M19.14,58c1-3.59,2.25-4.34,4.34-4.34s3.35.75,4.34,4.34a16.26,16.26,0,0,1,.69,5.27,38.87,38.87,0,0,1-.77,6.3,18.31,18.31,0,0,1-.81,2.89,8.43,8.43,0,0,1-.81,1.62,3.38,3.38,0,0,1-2.64,1.84,3.38,3.38,0,0,1-2.64-1.84A8.31,8.31,0,0,1,20,72.5a18.31,18.31,0,0,1-.81-2.89,40,40,0,0,1-.78-6.3A16.48,16.48,0,0,1,19.14,58Z"/><path class="cls-140" d="M19.15,58c1-3.6,2.25-4.35,4.33-4.35s3.34.75,4.33,4.35a16.51,16.51,0,0,1,.67,5.25,38.5,38.5,0,0,1-.76,6.27,18.48,18.48,0,0,1-.81,2.88,8.43,8.43,0,0,1-.81,1.62,3.34,3.34,0,0,1-2.62,1.83,3.34,3.34,0,0,1-2.62-1.83,8.52,8.52,0,0,1-.8-1.57,18.48,18.48,0,0,1-.81-2.88,39.91,39.91,0,0,1-.77-6.28A16.78,16.78,0,0,1,19.15,58Z"/><path class="cls-141" d="M19.17,58.07c1-3.62,2.24-4.36,4.31-4.36s3.33.75,4.31,4.36a16.64,16.64,0,0,1,.67,5.22,39.39,39.39,0,0,1-.77,6.25,19.41,19.41,0,0,1-.8,2.86,8.63,8.63,0,0,1-.8,1.61,3.32,3.32,0,0,1-2.61,1.83A3.33,3.33,0,0,1,20.88,74a9.07,9.07,0,0,1-.8-1.56,19.57,19.57,0,0,1-.8-2.87,39.25,39.25,0,0,1-.77-6.25A16.9,16.9,0,0,1,19.17,58.07Z"/><path class="cls-142" d="M19.19,58.1c1-3.63,2.22-4.37,4.29-4.37s3.32.75,4.29,4.37a16.57,16.57,0,0,1,.66,5.2,39,39,0,0,1-.76,6.22,19.77,19.77,0,0,1-.8,2.86,8.23,8.23,0,0,1-.8,1.6,3.29,3.29,0,0,1-2.59,1.82A3.32,3.32,0,0,1,20.89,74a8.4,8.4,0,0,1-.78-1.56,18.11,18.11,0,0,1-.8-2.85,39.14,39.14,0,0,1-.77-6.23A16.88,16.88,0,0,1,19.19,58.1Z"/><path class="cls-143" d="M19.21,58.13c1-3.63,2.21-4.37,4.27-4.37s3.31.74,4.28,4.37a16.84,16.84,0,0,1,.64,5.18,38.64,38.64,0,0,1-.76,6.19,18.17,18.17,0,0,1-.79,2.85,8.41,8.41,0,0,1-.79,1.59,3.3,3.3,0,0,1-2.58,1.83,3.29,3.29,0,0,1-2.57-1.83,8,8,0,0,1-.78-1.55,19.45,19.45,0,0,1-.8-2.84,39.79,39.79,0,0,1-.76-6.2A17.12,17.12,0,0,1,19.21,58.13Z"/><path class="cls-144" d="M19.23,58.17c1-3.65,2.2-4.39,4.25-4.39s3.3.74,4.26,4.39a16.71,16.71,0,0,1,.63,5.15,38.25,38.25,0,0,1-.75,6.17,19.37,19.37,0,0,1-.79,2.83A8.73,8.73,0,0,1,26,73.91a3.27,3.27,0,0,1-2.56,1.82,3.27,3.27,0,0,1-2.55-1.82,8.3,8.3,0,0,1-.78-1.55,19,19,0,0,1-.79-2.83,39.41,39.41,0,0,1-.76-6.17A16.94,16.94,0,0,1,19.23,58.17Z"/><path class="cls-145" d="M19.25,58.2c.95-3.66,2.19-4.39,4.24-4.39s3.28.73,4.23,4.39a17,17,0,0,1,.63,5.14,39.05,39.05,0,0,1-.76,6.13,19.29,19.29,0,0,1-.78,2.82A8.73,8.73,0,0,1,26,73.88a3.23,3.23,0,0,1-2.53,1.81A3.25,3.25,0,0,1,21,73.87a7.9,7.9,0,0,1-.78-1.54,19.13,19.13,0,0,1-.78-2.81,38,38,0,0,1-.76-6.14A17.26,17.26,0,0,1,19.25,58.2Z"/><path class="cls-146" d="M19.27,58.23c.94-3.67,2.17-4.4,4.22-4.4s3.27.73,4.21,4.4a16.88,16.88,0,0,1,.62,5.12,40.16,40.16,0,0,1-.75,6.11,20.69,20.69,0,0,1-.78,2.8A8.31,8.31,0,0,1,26,73.84a3.23,3.23,0,0,1-2.52,1.81A3.24,3.24,0,0,1,21,73.84a8.18,8.18,0,0,1-.76-1.54,18.55,18.55,0,0,1-.79-2.8,38.65,38.65,0,0,1-.75-6.11A16.88,16.88,0,0,1,19.27,58.23Z"/><path class="cls-147" d="M19.29,58.27c.93-3.69,2.16-4.41,4.2-4.41s3.26.72,4.2,4.41a17.06,17.06,0,0,1,.6,5.09,37.28,37.28,0,0,1-.75,6.08,19.25,19.25,0,0,1-.77,2.79A8.61,8.61,0,0,1,26,73.81a3.21,3.21,0,0,1-2.5,1.8A3.2,3.2,0,0,1,21,73.8a8.29,8.29,0,0,1-.76-1.52,18,18,0,0,1-.78-2.79,38.54,38.54,0,0,1-.75-6.09A16.71,16.71,0,0,1,19.29,58.27Z"/><path class="cls-148" d="M19.31,58.3c.92-3.7,2.15-4.42,4.18-4.42s3.25.72,4.18,4.42a16.67,16.67,0,0,1,.59,5.07,38,38,0,0,1-.74,6.05,18.74,18.74,0,0,1-.77,2.78A8.83,8.83,0,0,1,26,73.77a3.2,3.2,0,0,1-2.49,1.81A3.21,3.21,0,0,1,21,73.77a8.29,8.29,0,0,1-.76-1.52,19.09,19.09,0,0,1-.77-2.78,37,37,0,0,1-.75-6.06A17,17,0,0,1,19.31,58.3Z"/><path class="cls-149" d="M19.33,58.34c.91-3.72,2.13-4.43,4.16-4.43s3.24.71,4.16,4.43a17.11,17.11,0,0,1,.59,5,39,39,0,0,1-.75,6,20.19,20.19,0,0,1-.76,2.76A9.19,9.19,0,0,1,26,73.74a3.17,3.17,0,0,1-2.47,1.8A3.19,3.19,0,0,1,21,73.73a8.5,8.5,0,0,1-.75-1.51,19.87,19.87,0,0,1-.77-2.77,38.67,38.67,0,0,1-.75-6A17.07,17.07,0,0,1,19.33,58.34Z"/><path class="cls-150" d="M19.34,58.37c.91-3.73,2.13-4.44,4.15-4.44s3.23.71,4.14,4.44a17.09,17.09,0,0,1,.58,5,38.43,38.43,0,0,1-.74,6,20,20,0,0,1-.76,2.75A9.07,9.07,0,0,1,26,73.7a3.17,3.17,0,0,1-2.46,1.8A3.15,3.15,0,0,1,21,73.7a8.17,8.17,0,0,1-.74-1.51,19,19,0,0,1-.77-2.75,38.57,38.57,0,0,1-.75-6A17.72,17.72,0,0,1,19.34,58.37Z"/><path class="cls-151" d="M19.36,58.4c.91-3.74,2.12-4.44,4.13-4.44s3.22.7,4.13,4.44a17.4,17.4,0,0,1,.56,5,38.05,38.05,0,0,1-.74,6,20.52,20.52,0,0,1-.75,2.75,9.33,9.33,0,0,1-.76,1.55,3.11,3.11,0,0,1-2.44,1.79,3.14,3.14,0,0,1-2.44-1.8,8.39,8.39,0,0,1-.74-1.5,18.53,18.53,0,0,1-.76-2.74,38.06,38.06,0,0,1-.75-6A17.73,17.73,0,0,1,19.36,58.4Z"/><path class="cls-152" d="M19.38,58.44c.9-3.76,2.11-4.46,4.11-4.46s3.21.7,4.11,4.46a16.9,16.9,0,0,1,.55,5,38,38,0,0,1-.73,5.94,19.09,19.09,0,0,1-.76,2.73,8.84,8.84,0,0,1-.74,1.54,3.13,3.13,0,0,1-2.43,1.8,3.14,3.14,0,0,1-2.43-1.8,9.12,9.12,0,0,1-.73-1.5,18.57,18.57,0,0,1-.76-2.72,39.17,39.17,0,0,1-.74-5.95A17.54,17.54,0,0,1,19.38,58.44Z"/><path class="cls-153" d="M19.4,58.47C20.29,54.7,21.49,54,23.49,54s3.2.7,4.09,4.46a17.55,17.55,0,0,1,.55,5,38.5,38.5,0,0,1-.74,5.91,18.64,18.64,0,0,1-.75,2.72,9.21,9.21,0,0,1-.74,1.54,3.11,3.11,0,0,1-2.41,1.79,3.11,3.11,0,0,1-2.41-1.8,9,9,0,0,1-.73-1.49,19.43,19.43,0,0,1-.75-2.71,38.78,38.78,0,0,1-.74-5.92A17.52,17.52,0,0,1,19.4,58.47Z"/><path class="cls-154" d="M19.42,58.5C20.3,54.72,21.5,54,23.49,54s3.19.7,4.08,4.47a17.89,17.89,0,0,1,.53,4.94,38.1,38.1,0,0,1-.73,5.88A19.82,19.82,0,0,1,26.62,72a8.73,8.73,0,0,1-.73,1.53,3.09,3.09,0,0,1-2.4,1.79,3.08,3.08,0,0,1-2.39-1.79,8.5,8.5,0,0,1-.72-1.48,17.32,17.32,0,0,1-.75-2.71,38.09,38.09,0,0,1-.74-5.89A17.45,17.45,0,0,1,19.42,58.5Z"/><path class="cls-155" d="M19.44,58.54c.87-3.79,2.07-4.48,4-4.48s3.18.69,4.06,4.48a17.33,17.33,0,0,1,.52,4.91,38,38,0,0,1-.73,5.86A18.25,18.25,0,0,1,26.6,72a8.07,8.07,0,0,1-.73,1.53,3.05,3.05,0,0,1-2.38,1.78c-.88,0-1.69-.67-2.37-1.79a7.74,7.74,0,0,1-.72-1.47,19.89,19.89,0,0,1-.75-2.69,38,38,0,0,1-.73-5.87A17.63,17.63,0,0,1,19.44,58.54Z"/><path class="cls-156" d="M19.46,58.57c.86-3.8,2.05-4.49,4-4.49s3.17.69,4,4.49A17.3,17.3,0,0,1,28,63.46a38.7,38.7,0,0,1-.72,5.83A19.4,19.4,0,0,1,26.58,72a8.27,8.27,0,0,1-.73,1.52,3,3,0,0,1-2.36,1.78c-.87,0-1.68-.67-2.36-1.78A8.39,8.39,0,0,1,20.42,72a19.4,19.4,0,0,1-.74-2.68A37.59,37.59,0,0,1,19,63.5,17.6,17.6,0,0,1,19.46,58.57Z"/><path class="cls-157" d="M19.48,58.61c.85-3.82,2-4.5,4-4.5s3.15.68,4,4.5A17.79,17.79,0,0,1,28,63.47a37.36,37.36,0,0,1-.73,5.81,20,20,0,0,1-.73,2.66,9,9,0,0,1-.72,1.52c-.67,1.11-1.47,1.78-2.34,1.78s-1.68-.68-2.35-1.78A8.75,8.75,0,0,1,20.44,72a20,20,0,0,1-.73-2.66A37.36,37.36,0,0,1,19,63.52,17.82,17.82,0,0,1,19.48,58.61Z"/><path class="cls-158" d="M19.5,58.64c.84-3.83,2-4.51,4-4.51s3.15.68,4,4.51A17.8,17.8,0,0,1,28,63.48a38,38,0,0,1-.72,5.78,19.38,19.38,0,0,1-.73,2.65,7.86,7.86,0,0,1-.72,1.51c-.66,1.11-1.46,1.78-2.32,1.78s-1.66-.67-2.33-1.78a7.63,7.63,0,0,1-.7-1.46,18,18,0,0,1-.73-2.65A36.83,36.83,0,0,1,19,63.53,17.75,17.75,0,0,1,19.5,58.64Z"/><path class="cls-159" d="M19.51,58.67c.84-3.84,2-4.51,4-4.51s3.14.67,4,4.51A17.77,17.77,0,0,1,28,63.5a37.53,37.53,0,0,1-.72,5.74,19.88,19.88,0,0,1-.72,2.65,9.11,9.11,0,0,1-.71,1.5c-.66,1.1-1.46,1.77-2.31,1.77s-1.65-.67-2.32-1.77a8.28,8.28,0,0,1-.69-1.46,17.88,17.88,0,0,1-.73-2.64A37.5,37.5,0,0,1,19,63.54,18.12,18.12,0,0,1,19.51,58.67Z"/><path class="cls-160" d="M19.53,58.71c.83-3.86,2-4.53,4-4.53s3.13.67,4,4.53a17.57,17.57,0,0,1,.47,4.8,38.71,38.71,0,0,1-.71,5.72,19.53,19.53,0,0,1-.72,2.63,8.62,8.62,0,0,1-.71,1.49c-.65,1.1-1.44,1.77-2.29,1.77s-1.64-.67-2.3-1.77a8.39,8.39,0,0,1-.69-1.44,19.53,19.53,0,0,1-.72-2.63,38.69,38.69,0,0,1-.73-5.73A18.3,18.3,0,0,1,19.53,58.71Z"/><path class="cls-161" d="M19.55,58.74c.82-3.87,2-4.53,3.95-4.53s3.12.66,3.94,4.53a17.91,17.91,0,0,1,.47,4.78,38.31,38.31,0,0,1-.72,5.69,21.06,21.06,0,0,1-.71,2.62,9.43,9.43,0,0,1-.7,1.49c-.66,1.1-1.44,1.77-2.28,1.77s-1.63-.68-2.28-1.77a9.21,9.21,0,0,1-.69-1.44,18.07,18.07,0,0,1-.71-2.62,38.29,38.29,0,0,1-.73-5.7A18.22,18.22,0,0,1,19.55,58.74Z"/><path class="cls-162" d="M19.57,58.77c.81-3.88,2-4.54,3.93-4.54s3.11.66,3.93,4.54a18.3,18.3,0,0,1,.45,4.76,39.09,39.09,0,0,1-.71,5.66,20.87,20.87,0,0,1-.71,2.61,9.3,9.3,0,0,1-.7,1.48c-.65,1.1-1.42,1.77-2.26,1.77s-1.61-.67-2.26-1.77a7.94,7.94,0,0,1-.68-1.43,19,19,0,0,1-.72-2.6,39.19,39.19,0,0,1-.72-5.68A18.63,18.63,0,0,1,19.57,58.77Z"/><path class="cls-163" d="M19.59,58.81c.8-3.9,2-4.55,3.91-4.55s3.1.65,3.91,4.55a18.1,18.1,0,0,1,.44,4.73,37.48,37.48,0,0,1-.71,5.64,19.43,19.43,0,0,1-.7,2.59,9.74,9.74,0,0,1-.69,1.48C25.1,74.34,24.33,75,23.5,75s-1.6-.67-2.25-1.76a9.54,9.54,0,0,1-.67-1.43,18.93,18.93,0,0,1-.71-2.59,37.45,37.45,0,0,1-.72-5.65A18.43,18.43,0,0,1,19.59,58.81Z"/><path class="cls-164" d="M19.61,58.84c.79-3.91,2-4.56,3.89-4.56s3.1.65,3.89,4.56a18.07,18.07,0,0,1,.43,4.71,37.08,37.08,0,0,1-.7,5.61,20.88,20.88,0,0,1-.7,2.58,9.18,9.18,0,0,1-.69,1.47c-.64,1.1-1.4,1.76-2.23,1.76s-1.59-.67-2.23-1.76a9,9,0,0,1-.67-1.42,17.86,17.86,0,0,1-.7-2.58,37.09,37.09,0,0,1-.72-5.61A18.39,18.39,0,0,1,19.61,58.84Z"/><path class="cls-165" d="M19.63,58.88c.78-3.93,1.95-4.57,3.87-4.57s3.09.64,3.87,4.57a17.83,17.83,0,0,1,.43,4.68,37.83,37.83,0,0,1-.71,5.58,18.68,18.68,0,0,1-.7,2.57,9.2,9.2,0,0,1-.67,1.47c-.64,1.09-1.4,1.75-2.22,1.75s-1.57-.66-2.21-1.75a9,9,0,0,1-.67-1.42,20.5,20.5,0,0,1-.7-2.56,38.13,38.13,0,0,1-.71-5.59A18.68,18.68,0,0,1,19.63,58.88Z"/><path class="cls-166" d="M19.65,58.91c.77-3.94,1.94-4.58,3.85-4.58s3.08.64,3.86,4.58a18.7,18.7,0,0,1,.41,4.66,39.11,39.11,0,0,1-.7,5.56,20.31,20.31,0,0,1-.7,2.55,9.07,9.07,0,0,1-.67,1.46c-.63,1.09-1.38,1.76-2.2,1.76s-1.56-.67-2.2-1.76a8.85,8.85,0,0,1-.65-1.41,17.39,17.39,0,0,1-.7-2.55,37.56,37.56,0,0,1-.71-5.56A18.61,18.61,0,0,1,19.65,58.91Z"/><path class="cls-167" d="M19.67,58.94c.76-3.95,1.92-4.58,3.83-4.58s3.07.64,3.84,4.58a18.67,18.67,0,0,1,.4,4.65,37.35,37.35,0,0,1-.7,5.52,19.24,19.24,0,0,1-.69,2.55,8.51,8.51,0,0,1-.67,1.45c-.62,1.09-1.37,1.75-2.18,1.75s-1.55-.67-2.18-1.75a8.29,8.29,0,0,1-.65-1.4A19.06,19.06,0,0,1,20,69.17a37.29,37.29,0,0,1-.71-5.54A18.13,18.13,0,0,1,19.67,58.94Z"/><path class="cls-168" d="M19.69,59c.75-4,1.91-4.6,3.81-4.6s3.06.64,3.82,4.6a18.41,18.41,0,0,1,.4,4.62,38.28,38.28,0,0,1-.7,5.5,19.32,19.32,0,0,1-.69,2.53,8.83,8.83,0,0,1-.66,1.44c-.62,1.09-1.36,1.75-2.17,1.75s-1.54-.66-2.16-1.75a7.82,7.82,0,0,1-.65-1.39A18.89,18.89,0,0,1,20,69.15a38.24,38.24,0,0,1-.7-5.51A18.37,18.37,0,0,1,19.69,59Z"/><path class="cls-169" d="M19.7,59c.75-4,1.91-4.6,3.8-4.6s3.06.63,3.81,4.6a18.87,18.87,0,0,1,.38,4.6,37.87,37.87,0,0,1-.7,5.47,19.22,19.22,0,0,1-.68,2.52A9.23,9.23,0,0,1,25.65,73c-.62,1.08-1.35,1.74-2.15,1.74S22,74.12,21.36,73a8.17,8.17,0,0,1-.65-1.39A20,20,0,0,1,20,69.13a37.82,37.82,0,0,1-.7-5.48A18.81,18.81,0,0,1,19.7,59Z"/><path class="cls-170" d="M19.72,59.05c.74-4,1.89-4.62,3.79-4.62s3,.63,3.78,4.62a19.21,19.21,0,0,1,.37,4.57A38.88,38.88,0,0,1,27,69.06a20.24,20.24,0,0,1-.68,2.51A9.11,9.11,0,0,1,25.64,73c-.62,1.09-1.35,1.75-2.13,1.75S22,74.08,21.37,73a7.71,7.71,0,0,1-.63-1.38,17.1,17.1,0,0,1-.68-2.5,37.41,37.41,0,0,1-.7-5.45A19.14,19.14,0,0,1,19.72,59.05Z"/><path class="cls-171" d="M19.74,59.08c.73-4,1.88-4.62,3.77-4.62s3,.62,3.76,4.62a18.63,18.63,0,0,1,.36,4.55,37.18,37.18,0,0,1-.69,5.42,18.78,18.78,0,0,1-.67,2.49A8.28,8.28,0,0,1,25.62,73c-.61,1.08-1.33,1.74-2.11,1.74S22,74.05,21.39,73a8.89,8.89,0,0,1-.63-1.38,18.29,18.29,0,0,1-.68-2.49,38.41,38.41,0,0,1-.7-5.42A19.53,19.53,0,0,1,19.74,59.08Z"/><path class="cls-172" d="M19.76,59.11c.71-4,1.87-4.63,3.75-4.63s3,.62,3.74,4.63a19,19,0,0,1,.36,4.53,38,38,0,0,1-.7,5.39,18.7,18.7,0,0,1-.66,2.48,9.56,9.56,0,0,1-.64,1.43c-.61,1.07-1.33,1.73-2.1,1.73S22,74,21.41,72.93a8.76,8.76,0,0,1-.63-1.37,20.07,20.07,0,0,1-.67-2.47,38.32,38.32,0,0,1-.7-5.4A19.46,19.46,0,0,1,19.76,59.11Z"/><path class="cls-173" d="M19.78,59.15c.7-4,1.86-4.64,3.73-4.64s3,.61,3.73,4.64a19.42,19.42,0,0,1,.34,4.5A37.39,37.39,0,0,1,26.89,69a18.12,18.12,0,0,1-.66,2.47,9,9,0,0,1-.64,1.42c-.6,1.08-1.31,1.73-2.08,1.73S22,74,21.42,72.9a9.81,9.81,0,0,1-.62-1.37,18.35,18.35,0,0,1-.66-2.46,37.71,37.71,0,0,1-.7-5.37A19.83,19.83,0,0,1,19.78,59.15Z"/><path class="cls-174" d="M19.8,59.18c.69-4,1.84-4.65,3.71-4.65s3,.61,3.71,4.65a19.39,19.39,0,0,1,.33,4.49A36,36,0,0,1,26.86,69a20.4,20.4,0,0,1-.65,2.45,10,10,0,0,1-.63,1.42c-.6,1.07-1.31,1.72-2.07,1.72s-1.47-.65-2.07-1.73a8.52,8.52,0,0,1-.61-1.35,19.88,19.88,0,0,1-.67-2.46,38.57,38.57,0,0,1-.69-5.34A19.75,19.75,0,0,1,19.8,59.18Z"/><path class="cls-175" d="M19.82,59.21c.68-4.05,1.83-4.65,3.69-4.65s3,.6,3.69,4.65a19.31,19.31,0,0,1,.32,4.47,36.92,36.92,0,0,1-.68,5.3,19.71,19.71,0,0,1-.65,2.44,8.87,8.87,0,0,1-.63,1.41c-.59,1.07-1.29,1.73-2,1.73s-1.46-.66-2.05-1.73a9,9,0,0,1-.61-1.35A18.42,18.42,0,0,1,20.19,69a38.28,38.28,0,0,1-.69-5.32A19.12,19.12,0,0,1,19.82,59.21Z"/><path class="cls-176" d="M19.84,59.25c.67-4.07,1.82-4.67,3.67-4.67s3,.6,3.67,4.67a19.64,19.64,0,0,1,.32,4.44A37.76,37.76,0,0,1,26.81,69a18.59,18.59,0,0,1-.64,2.44,10.27,10.27,0,0,1-.62,1.4c-.59,1.07-1.29,1.72-2,1.72s-1.44-.66-2-1.73a9.39,9.39,0,0,1-.6-1.34A19.52,19.52,0,0,1,20.22,69a37.9,37.9,0,0,1-.69-5.28A19.54,19.54,0,0,1,19.84,59.25Z"/><path class="cls-177" d="M19.86,59.28c.66-4.08,1.8-4.67,3.65-4.67s3,.59,3.66,4.67a20.17,20.17,0,0,1,.3,4.42A37.47,37.47,0,0,1,26.79,69a20.42,20.42,0,0,1-.64,2.42,9.6,9.6,0,0,1-.62,1.39c-.59,1.07-1.27,1.72-2,1.72s-1.43-.65-2-1.72a9.39,9.39,0,0,1-.6-1.34A18.07,18.07,0,0,1,20.25,69a37.82,37.82,0,0,1-.69-5.26A19.46,19.46,0,0,1,19.86,59.28Z"/><path class="cls-178" d="M19.87,59.32c.65-4.1,1.8-4.69,3.64-4.69s3,.59,3.64,4.69a19.35,19.35,0,0,1,.29,4.39,35.64,35.64,0,0,1-.68,5.22,18.07,18.07,0,0,1-.64,2.41,9.5,9.5,0,0,1-.61,1.39c-.58,1.06-1.26,1.71-2,1.71s-1.42-.65-2-1.72a7.9,7.9,0,0,1-.59-1.33,17.81,17.81,0,0,1-.65-2.4,38.52,38.52,0,0,1-.68-5.23A20.53,20.53,0,0,1,19.87,59.32Z"/><path class="cls-179" d="M19.89,59.35c.64-4.11,1.79-4.69,3.62-4.69s3,.58,3.62,4.69a19.31,19.31,0,0,1,.28,4.37,36.44,36.44,0,0,1-.67,5.19,19.54,19.54,0,0,1-.64,2.4,8.93,8.93,0,0,1-.6,1.38c-.58,1.06-1.25,1.72-2,1.72s-1.4-.66-2-1.72a8.28,8.28,0,0,1-.59-1.33A19.34,19.34,0,0,1,20.3,69a36.58,36.58,0,0,1-.68-5.2A20.44,20.44,0,0,1,19.89,59.35Z"/><path class="cls-180" d="M19.91,59.38c.63-4.12,1.78-4.7,3.6-4.7s3,.58,3.61,4.7a21.13,21.13,0,0,1,.27,4.35,37.84,37.84,0,0,1-.68,5.17,18,18,0,0,1-.63,2.38,8.93,8.93,0,0,1-.6,1.38c-.57,1.06-1.24,1.71-2,1.71s-1.39-.65-2-1.72A8.43,8.43,0,0,1,21,71.34,18.47,18.47,0,0,1,20.33,69a35.1,35.1,0,0,1-.68-5.18A20.35,20.35,0,0,1,19.91,59.38Z"/><path class="cls-181" d="M19.93,59.42c.62-4.14,1.76-4.71,3.58-4.71s3,.57,3.59,4.71a20.28,20.28,0,0,1,.26,4.33,37.46,37.46,0,0,1-.67,5.13,17.87,17.87,0,0,1-.63,2.37,9.88,9.88,0,0,1-.59,1.37c-.57,1.06-1.24,1.71-2,1.71s-1.38-.65-2-1.71A9.5,9.5,0,0,1,21,71.31a21.59,21.59,0,0,1-.63-2.37,35.88,35.88,0,0,1-.67-5.15A20.78,20.78,0,0,1,19.93,59.42Z"/><path class="cls-182" d="M20,59.45c.61-4.15,1.75-4.72,3.57-4.72s2.95.58,3.56,4.72a20.23,20.23,0,0,1,.25,4.31,37,37,0,0,1-.67,5.11A19.77,19.77,0,0,1,26,71.22a9.88,9.88,0,0,1-.59,1.37c-.56,1-1.22,1.7-1.93,1.7s-1.38-.65-1.94-1.71a8.31,8.31,0,0,1-.57-1.3,18,18,0,0,1-.63-2.35,37.12,37.12,0,0,1-.68-5.12A20.68,20.68,0,0,1,20,59.45Z"/><path class="cls-183" d="M20,59.48c.59-4.15,1.74-4.72,3.55-4.72s2.94.57,3.54,4.72a20.14,20.14,0,0,1,.24,4.29,36.54,36.54,0,0,1-.66,5.08A19.08,19.08,0,0,1,26,71.19a9.26,9.26,0,0,1-.58,1.36c-.56,1.06-1.22,1.7-1.92,1.7s-1.36-.65-1.93-1.7a9.39,9.39,0,0,1-.56-1.3,17.44,17.44,0,0,1-.62-2.34,36.48,36.48,0,0,1-.68-5.09A20.59,20.59,0,0,1,20,59.48Z"/><path class="cls-184" d="M20,59.52c.58-4.17,1.72-4.74,3.53-4.74s2.94.57,3.53,4.74a21.3,21.3,0,0,1,.23,4.26,36.11,36.11,0,0,1-.67,5A19.68,19.68,0,0,1,26,71.17a9,9,0,0,1-.58,1.35c-.55,1-1.2,1.7-1.9,1.7s-1.35-.65-1.91-1.71a8.74,8.74,0,0,1-.56-1.29,18.89,18.89,0,0,1-.62-2.33,37.6,37.6,0,0,1-.67-5.06A21.09,21.09,0,0,1,20,59.52Z"/><path class="cls-185" d="M20,59.55c.57-4.18,1.71-4.74,3.51-4.74s2.93.56,3.51,4.74a21.25,21.25,0,0,1,.22,4.24,37.37,37.37,0,0,1-.66,5A19.8,19.8,0,0,1,26,71.14a10,10,0,0,1-.57,1.34c-.55,1-1.2,1.7-1.89,1.7s-1.34-.65-1.89-1.7a9.24,9.24,0,0,1-.56-1.29,19.1,19.1,0,0,1-.61-2.31,37.51,37.51,0,0,1-.67-5A21,21,0,0,1,20,59.55Z"/><path class="cls-186" d="M20,59.59c.56-4.2,1.7-4.76,3.49-4.76s2.93.56,3.49,4.76a21,21,0,0,1,.21,4.21,36.71,36.71,0,0,1-.66,5,19.71,19.71,0,0,1-.6,2.31,10,10,0,0,1-.57,1.34c-.55,1-1.18,1.69-1.87,1.69s-1.32-.65-1.87-1.69a8.2,8.2,0,0,1-.55-1.29,18.91,18.91,0,0,1-.61-2.3,36.65,36.65,0,0,1-.67-5A20.75,20.75,0,0,1,20,59.59Z"/><path class="cls-187" d="M20.05,59.62c.54-4.21,1.69-4.76,3.47-4.76s2.92.55,3.47,4.76a20.87,20.87,0,0,1,.2,4.19,37.9,37.9,0,0,1-.65,5,21.06,21.06,0,0,1-.6,2.3,9.86,9.86,0,0,1-.56,1.33c-.55,1-1.18,1.69-1.86,1.69s-1.31-.64-1.86-1.69a9,9,0,0,1-.54-1.27,19.22,19.22,0,0,1-.61-2.29,36.57,36.57,0,0,1-.66-5A21.43,21.43,0,0,1,20.05,59.62Z"/><path class="cls-188" d="M20.06,59.65c.54-4.22,1.68-4.77,3.46-4.77s2.92.55,3.46,4.77a21.65,21.65,0,0,1,.19,4.18,37.66,37.66,0,0,1-.66,4.94,19.22,19.22,0,0,1-.59,2.28,9.86,9.86,0,0,1-.56,1.33c-.54,1-1.16,1.69-1.84,1.69s-1.3-.65-1.84-1.69a10.1,10.1,0,0,1-.54-1.27,21.24,21.24,0,0,1-.6-2.28,36.19,36.19,0,0,1-.66-4.95A22.26,22.26,0,0,1,20.06,59.65Z"/><path class="cls-189" d="M20.08,59.69c.53-4.24,1.67-4.78,3.44-4.78s2.91.54,3.44,4.78a21.4,21.4,0,0,1,.18,4.15,37.21,37.21,0,0,1-.65,4.91A21.15,21.15,0,0,1,25.9,71a9.19,9.19,0,0,1-.56,1.32c-.53,1-1.15,1.69-1.82,1.69s-1.29-.65-1.82-1.69a9.35,9.35,0,0,1-.54-1.26,19,19,0,0,1-.59-2.27,35.55,35.55,0,0,1-.66-4.92A21.22,21.22,0,0,1,20.08,59.69Z"/><path class="cls-190" d="M20.1,59.72c.51-4.25,1.66-4.79,3.42-4.79s2.91.54,3.42,4.79a21.3,21.3,0,0,1,.17,4.13,36.75,36.75,0,0,1-.65,4.88A20.46,20.46,0,0,1,25.88,71a11.2,11.2,0,0,1-.55,1.32c-.53,1-1.14,1.68-1.81,1.68s-1.27-.64-1.81-1.68a10.87,10.87,0,0,1-.53-1.26,20.71,20.71,0,0,1-.59-2.25,36.83,36.83,0,0,1-.65-4.9A21.94,21.94,0,0,1,20.1,59.72Z"/><path class="cls-191" d="M20.12,59.75c.5-4.26,1.65-4.79,3.4-4.79s2.9.53,3.4,4.79a21.23,21.23,0,0,1,.16,4.11,36.24,36.24,0,0,1-.64,4.86A19,19,0,0,1,25.85,71a8.09,8.09,0,0,1-.54,1.31c-.52,1-1.13,1.68-1.79,1.68s-1.26-.64-1.79-1.68A9.24,9.24,0,0,1,21.21,71a18.45,18.45,0,0,1-.59-2.24A36.38,36.38,0,0,1,20,63.91,21.83,21.83,0,0,1,20.12,59.75Z"/><path class="cls-192" d="M20.14,59.79c.49-4.28,1.63-4.81,3.38-4.81s2.9.53,3.39,4.81a22.69,22.69,0,0,1,.15,4.08,37.46,37.46,0,0,1-.65,4.83,19,19,0,0,1-.58,2.24,10,10,0,0,1-.53,1.3c-.52,1-1.13,1.68-1.78,1.68s-1.25-.65-1.77-1.68A9.24,9.24,0,0,1,21.23,71a18.66,18.66,0,0,1-.58-2.22A36.08,36.08,0,0,1,20,63.92,21.62,21.62,0,0,1,20.14,59.79Z"/><path class="cls-193" d="M20.16,59.82c.47-4.29,1.62-4.81,3.36-4.81s2.89.52,3.37,4.81A22.58,22.58,0,0,1,27,63.88a39.24,39.24,0,0,1-.64,4.81,19.18,19.18,0,0,1-.58,2.22,9.85,9.85,0,0,1-.53,1.29c-.51,1-1.11,1.68-1.76,1.68s-1.24-.64-1.75-1.68A8.58,8.58,0,0,1,21.25,71c-.21-.64-.4-1.39-.58-2.21A39.13,39.13,0,0,1,20,63.93,23.19,23.19,0,0,1,20.16,59.82Z"/><path class="cls-194" d="M20.18,59.86c.46-4.31,1.61-4.83,3.35-4.83s2.88.52,3.34,4.83a22.36,22.36,0,0,1,.13,4,35.05,35.05,0,0,1-.64,4.78,21.35,21.35,0,0,1-.57,2.21,11.51,11.51,0,0,1-.52,1.29c-.52,1-1.11,1.67-1.74,1.67s-1.23-.64-1.75-1.67a11.15,11.15,0,0,1-.51-1.23,20.7,20.7,0,0,1-.57-2.21A36.45,36.45,0,0,1,20.05,64,23,23,0,0,1,20.18,59.86Z"/><path class="cls-195" d="M20.2,59.89c.44-4.31,1.59-4.83,3.33-4.83s2.87.52,3.33,4.83a22.32,22.32,0,0,1,.11,4,36.24,36.24,0,0,1-.63,4.75,20.48,20.48,0,0,1-.57,2.2,9.19,9.19,0,0,1-.52,1.28c-.51,1-1.09,1.67-1.72,1.67s-1.22-.64-1.73-1.67a8.82,8.82,0,0,1-.5-1.22,20.9,20.9,0,0,1-.57-2.19A36.38,36.38,0,0,1,20.08,64,22.89,22.89,0,0,1,20.2,59.89Z"/><path class="cls-196" d="M20.22,59.92c.43-4.32,1.58-4.84,3.31-4.84s2.87.52,3.31,4.84a23.17,23.17,0,0,1,.11,4,37.78,37.78,0,0,1-.64,4.72,18.58,18.58,0,0,1-.56,2.18,11.37,11.37,0,0,1-.51,1.28c-.51,1-1.09,1.66-1.71,1.66s-1.21-.63-1.71-1.66a9.36,9.36,0,0,1-.5-1.22,18.58,18.58,0,0,1-.56-2.18A35.92,35.92,0,0,1,20.11,64,23.76,23.76,0,0,1,20.22,59.92Z"/><path class="cls-197" d="M20.23,60c.42-4.34,1.58-4.85,3.3-4.85s2.87.51,3.29,4.85a24,24,0,0,1,.1,4,39,39,0,0,1-.63,4.69,20.58,20.58,0,0,1-.56,2.17,11.37,11.37,0,0,1-.51,1.28c-.5,1-1.07,1.66-1.69,1.66s-1.19-.64-1.7-1.67a10.12,10.12,0,0,1-.49-1.21,20,20,0,0,1-.56-2.17,37,37,0,0,1-.64-4.7A23.58,23.58,0,0,1,20.23,60Z"/><path class="cls-198" d="M20.25,60c.41-4.35,1.57-4.86,3.28-4.86s2.86.51,3.27,4.86a22.8,22.8,0,0,1,.09,3.95,36.58,36.58,0,0,1-.63,4.66,20.48,20.48,0,0,1-.55,2.16A9.06,9.06,0,0,1,25.2,72c-.49,1-1.06,1.66-1.67,1.66s-1.18-.64-1.68-1.66a10.85,10.85,0,0,1-.49-1.21,20.26,20.26,0,0,1-.55-2.15A36.64,36.64,0,0,1,20.17,64,23.48,23.48,0,0,1,20.25,60Z"/><path class="cls-199" d="M20.27,60c.4-4.36,1.55-4.86,3.26-4.86s2.86.5,3.26,4.86A23.83,23.83,0,0,1,26.86,64a36.51,36.51,0,0,1-.62,4.64c-.17.79-.35,1.51-.55,2.14a10.19,10.19,0,0,1-.5,1.27c-.49,1-1.05,1.65-1.66,1.65S22.36,73,21.87,72a8.56,8.56,0,0,1-.48-1.2,17.42,17.42,0,0,1-.55-2.14A36.17,36.17,0,0,1,20.2,64,24.43,24.43,0,0,1,20.27,60Z"/><path class="cls-200" d="M20.29,60.06c.38-4.38,1.54-4.88,3.24-4.88s2.86.5,3.24,4.88a24.57,24.57,0,0,1,.07,3.9,37.64,37.64,0,0,1-.63,4.61,19.94,19.94,0,0,1-.54,2.13,9.45,9.45,0,0,1-.5,1.26c-.48,1-1,1.65-1.64,1.65S22.37,73,21.89,72a8.92,8.92,0,0,1-.48-1.19,21.13,21.13,0,0,1-.55-2.13A37.8,37.8,0,0,1,20.23,64,24.25,24.25,0,0,1,20.29,60.06Z"/><path class="cls-201" d="M20.31,60.09c.37-4.39,1.53-4.88,3.22-4.88s2.85.49,3.22,4.88A23.31,23.31,0,0,1,26.81,64a36.9,36.9,0,0,1-.62,4.58,20.57,20.57,0,0,1-.54,2.13,11.66,11.66,0,0,1-.49,1.25c-.48,1-1,1.65-1.63,1.65s-1.14-.64-1.63-1.66a12.61,12.61,0,0,1-.47-1.18,20.35,20.35,0,0,1-.54-2.12A37.31,37.31,0,0,1,20.26,64,24.13,24.13,0,0,1,20.31,60.09Z"/><path class="cls-202" d="M20.33,60.13c.35-4.41,1.51-4.9,3.2-4.9s2.85.49,3.2,4.9A23,23,0,0,1,26.78,64a36.83,36.83,0,0,1-.62,4.56c-.16.77-.34,1.49-.53,2.11a10.69,10.69,0,0,1-.49,1.24c-.47,1-1,1.65-1.61,1.65s-1.13-.63-1.61-1.65a12.61,12.61,0,0,1-.47-1.18c-.19-.62-.37-1.33-.53-2.11A34.55,34.55,0,0,1,20.29,64,25,25,0,0,1,20.33,60.13Z"/><path class="cls-203" d="M20.35,60.16c.34-4.42,1.5-4.9,3.18-4.9s2.85.48,3.19,4.9a26.77,26.77,0,0,1,0,3.84,40.34,40.34,0,0,1-.62,4.52c-.16.77-.34,1.48-.53,2.1a11.51,11.51,0,0,1-.48,1.24c-.47,1-1,1.64-1.6,1.64s-1.12-.63-1.59-1.65a8.16,8.16,0,0,1-.46-1.17,19.69,19.69,0,0,1-.54-2.09,36.25,36.25,0,0,1-.62-4.54A24.89,24.89,0,0,1,20.35,60.16Z"/><path class="cls-204" d="M20.37,60.19c.32-4.43,1.49-4.91,3.16-4.91s2.84.48,3.17,4.91a26.62,26.62,0,0,1,0,3.82,38.09,38.09,0,0,1-.62,4.5,20.92,20.92,0,0,1-.53,2.08,9.06,9.06,0,0,1-.47,1.23c-.47,1-1,1.64-1.58,1.64s-1.11-.63-1.58-1.64a10.26,10.26,0,0,1-.45-1.17A19.59,19.59,0,0,1,21,68.57a37.68,37.68,0,0,1-.63-4.51A24.65,24.65,0,0,1,20.37,60.19Z"/><path class="cls-205" d="M20.39,60.23c.3-4.44,1.48-4.92,3.14-4.92s2.84.48,3.15,4.92a25,25,0,0,1,0,3.79,35.38,35.38,0,0,1-.62,4.47,17.83,17.83,0,0,1-.52,2.07,10.68,10.68,0,0,1-.46,1.23c-.47,1-1,1.63-1.57,1.63S22.44,72.8,22,71.78a10.07,10.07,0,0,1-.45-1.16A19.9,19.9,0,0,1,21,68.56a37.34,37.34,0,0,1-.63-4.49A25.62,25.62,0,0,1,20.39,60.23Z"/><path class="cls-206" d="M20.4,60.26c.3-4.45,1.47-4.93,3.13-4.93s2.84.48,3.14,4.93a26.27,26.27,0,0,1,0,3.77,36.54,36.54,0,0,1-.61,4.44,19.9,19.9,0,0,1-.52,2.06,10.48,10.48,0,0,1-.46,1.22c-.46,1-1,1.64-1.55,1.64s-1.08-.63-1.54-1.64a10.07,10.07,0,0,1-.45-1.16c-.19-.6-.36-1.29-.52-2a38.77,38.77,0,0,1-.62-4.45A27.12,27.12,0,0,1,20.4,60.26Z"/><path class="cls-207" d="M20.42,60.29c.28-4.46,1.46-4.93,3.12-4.93s2.83.47,3.11,4.93a27.53,27.53,0,0,1,0,3.75A38.56,38.56,0,0,1,26,68.46a19.57,19.57,0,0,1-.51,2,11.28,11.28,0,0,1-.45,1.22c-.46,1-1,1.63-1.53,1.63s-1.08-.63-1.54-1.64a10.53,10.53,0,0,1-.43-1.14,20.34,20.34,0,0,1-.52-2,38.25,38.25,0,0,1-.62-4.42A27,27,0,0,1,20.42,60.29Z"/><path class="cls-208" d="M20.44,60.33c.27-4.48,1.45-4.95,3.1-4.95s2.82.47,3.09,4.95a25.69,25.69,0,0,1,0,3.72A38,38,0,0,1,26,68.44a20,20,0,0,1-.51,2,10.35,10.35,0,0,1-.45,1.21c-.45,1-1,1.63-1.51,1.63s-1.07-.62-1.52-1.63a10.53,10.53,0,0,1-.43-1.14,20,20,0,0,1-.51-2,37.9,37.9,0,0,1-.62-4.4A28.21,28.21,0,0,1,20.44,60.33Z"/><path class="cls-209" d="M20.46,60.36c.25-4.49,1.43-5,3.08-5s2.82.46,3.07,5a27,27,0,0,1,0,3.7A37.22,37.22,0,0,1,26,68.42a20.81,20.81,0,0,1-.5,2,11.68,11.68,0,0,1-.45,1.2c-.44,1-1,1.62-1.49,1.62s-1.05-.62-1.5-1.63a9.6,9.6,0,0,1-.43-1.13c-.18-.6-.35-1.28-.51-2a39.65,39.65,0,0,1-.61-4.37A28,28,0,0,1,20.46,60.36Z"/><path class="cls-210" d="M20.48,60.4c.23-4.51,1.42-5,3.06-5s2.82.46,3.06,5a28.67,28.67,0,0,1,0,3.68,37,37,0,0,1-.6,4.33c-.15.73-.32,1.41-.5,2-.14.44-.29.84-.44,1.19-.44,1-.94,1.63-1.48,1.63s-1-.63-1.48-1.63c-.15-.34-.29-.71-.43-1.13-.18-.59-.35-1.27-.5-2a37,37,0,0,1-.61-4.35A27.68,27.68,0,0,1,20.48,60.4Z"/><path class="cls-211" d="M20.5,60.43c.22-4.52,1.41-5,3-5s2.82.45,3,5a30.26,30.26,0,0,1,0,3.66,36.48,36.48,0,0,1-.61,4.3,20.23,20.23,0,0,1-.49,2A10.72,10.72,0,0,1,25,71.58c-.43,1-.93,1.62-1.46,1.62s-1-.62-1.47-1.63a11.73,11.73,0,0,1-.41-1.12,19.22,19.22,0,0,1-.5-2,36.24,36.24,0,0,1-.61-4.32A29.25,29.25,0,0,1,20.5,60.43Z"/><path class="cls-212" d="M20.52,60.46c.2-4.53,1.4-5,3-5s2.82.45,3,5a30,30,0,0,1,0,3.64,37.85,37.85,0,0,1-.6,4.27c-.15.73-.31,1.4-.49,2A10.59,10.59,0,0,1,25,71.54c-.43,1-.92,1.62-1.45,1.62s-1-.62-1.45-1.62a11.73,11.73,0,0,1-.41-1.12c-.18-.59-.35-1.25-.5-2a38,38,0,0,1-.6-4.28A29.2,29.2,0,0,1,20.52,60.46Z"/><path class="cls-213" d="M20.54,60.5c.18-4.54,1.38-5,3-5s2.82.45,3,5a27.79,27.79,0,0,1-.06,3.61,37.81,37.81,0,0,1-.6,4.25,19.66,19.66,0,0,1-.48,2A10.59,10.59,0,0,1,25,71.51c-.42,1-.91,1.61-1.43,1.61s-1-.62-1.43-1.62c-.14-.33-.28-.7-.41-1.1-.18-.59-.34-1.25-.49-2a37.67,37.67,0,0,1-.6-4.26A28.86,28.86,0,0,1,20.54,60.5Z"/><path class="cls-214" d="M20.56,60.53c.17-4.55,1.37-5,3-5s2.81.45,3,5a29.55,29.55,0,0,1-.08,3.59,39.71,39.71,0,0,1-.59,4.22c-.15.71-.31,1.38-.48,2A10.45,10.45,0,0,1,25,71.47c-.43,1-.91,1.61-1.42,1.61s-1-.61-1.42-1.61c-.14-.33-.27-.7-.4-1.1-.17-.59-.34-1.25-.48-2a37.13,37.13,0,0,1-.6-4.23A28.64,28.64,0,0,1,20.56,60.53Z"/><path class="cls-215" d="M20.58,60.56c.15-4.56,1.36-5,3-5s2.81.44,3,5a31.34,31.34,0,0,1-.08,3.57,38.94,38.94,0,0,1-.6,4.2c-.14.7-.3,1.36-.47,1.94a11.22,11.22,0,0,1-.42,1.17c-.42,1-.89,1.61-1.4,1.61s-1-.62-1.4-1.61a10.74,10.74,0,0,1-.39-1.1,19.66,19.66,0,0,1-.48-1.94,39.11,39.11,0,0,1-.61-4.21A30.2,30.2,0,0,1,20.58,60.56Z"/><path class="cls-216" d="M20.59,60.6c.14-4.58,1.35-5,2.95-5s2.81.44,2.95,5a31,31,0,0,1-.09,3.54,41,41,0,0,1-.59,4.17c-.14.7-.3,1.35-.47,1.93s-.27.82-.41,1.16c-.42,1-.89,1.61-1.39,1.61s-1-.62-1.38-1.61a9.75,9.75,0,0,1-.39-1.09c-.17-.58-.33-1.23-.48-1.93a40.8,40.8,0,0,1-.6-4.18A32.2,32.2,0,0,1,20.59,60.6Z"/><path class="cls-217" d="M20.61,60.63c.12-4.59,1.34-5,2.93-5s2.81.44,2.93,5a30.63,30.63,0,0,1-.1,3.52,37.84,37.84,0,0,1-.59,4.14,18.65,18.65,0,0,1-.47,1.92,10.39,10.39,0,0,1-.4,1.16c-.41,1-.87,1.6-1.37,1.6s-.95-.61-1.36-1.6a10.53,10.53,0,0,1-.39-1.09c-.17-.57-.33-1.22-.47-1.92a40.2,40.2,0,0,1-.6-4.15A31.86,31.86,0,0,1,20.61,60.63Z"/><path class="cls-218" d="M20.63,60.67c.11-4.61,1.33-5,2.91-5s2.81.43,2.92,5a33.18,33.18,0,0,1-.12,3.5,37.65,37.65,0,0,1-.58,4.11c-.14.69-.3,1.33-.47,1.91a10.79,10.79,0,0,1-.39,1.14c-.41,1-.87,1.6-1.36,1.6s-.94-.61-1.35-1.6c-.13-.32-.26-.68-.38-1.08-.17-.57-.32-1.21-.46-1.9a37.44,37.44,0,0,1-.6-4.12A34.29,34.29,0,0,1,20.63,60.67Z"/><path class="cls-219" d="M20.65,60.7c.09-4.62,1.32-5.05,2.9-5.05s2.8.43,2.89,5.05a32.72,32.72,0,0,1-.12,3.48,39.25,39.25,0,0,1-.59,4.08c-.14.68-.29,1.33-.46,1.9a10.79,10.79,0,0,1-.39,1.14c-.4,1-.85,1.6-1.33,1.6s-.94-.62-1.34-1.6a9.68,9.68,0,0,1-.37-1.08c-.17-.56-.33-1.2-.47-1.89a39.05,39.05,0,0,1-.59-4.09A34,34,0,0,1,20.65,60.7Z"/><path class="cls-220" d="M20.67,60.73c.07-4.62,1.3-5,2.88-5s2.8.43,2.87,5a32.33,32.33,0,0,1-.13,3.46c-.13,1.38-.33,2.79-.58,4-.14.68-.29,1.32-.46,1.89a9.85,9.85,0,0,1-.39,1.13c-.39,1-.84,1.6-1.31,1.6s-.93-.61-1.32-1.6c-.13-.32-.25-.67-.37-1.06-.17-.57-.32-1.2-.46-1.88a39,39,0,0,1-.59-4.07A33.57,33.57,0,0,1,20.67,60.73Z"/><path class="cls-221" d="M20.69,60.77c0-4.64,1.29-5.07,2.86-5.07s2.8.43,2.86,5.07c0,1,0,2.22-.15,3.43a38.3,38.3,0,0,1-.58,4c-.13.67-.28,1.3-.45,1.87-.12.41-.25.79-.38,1.13-.39,1-.83,1.59-1.3,1.59s-.92-.61-1.31-1.59c-.12-.32-.24-.68-.36-1.06-.16-.57-.32-1.2-.45-1.87a38.08,38.08,0,0,1-.59-4A33.16,33.16,0,0,1,20.69,60.77Z"/><path class="cls-222" d="M20.71,60.8c0-4.65,1.28-5.07,2.84-5.07s2.8.42,2.84,5.07a31.73,31.73,0,0,1-.16,3.41,37.75,37.75,0,0,1-.57,4c-.14.67-.29,1.3-.45,1.86a10.43,10.43,0,0,1-.38,1.12c-.38,1-.82,1.59-1.28,1.59s-.9-.61-1.29-1.59c-.12-.31-.24-.67-.36-1-.16-.56-.31-1.19-.45-1.86a40.26,40.26,0,0,1-.58-4A32.82,32.82,0,0,1,20.71,60.8Z"/><path class="cls-223" d="M20.73,60.83c0-4.66,1.26-5.08,2.82-5.08s2.8.42,2.82,5.08c0,1-.05,2.21-.16,3.39a39.44,39.44,0,0,1-.58,4c-.13.67-.28,1.29-.44,1.85-.12.41-.24.79-.37,1.12-.38,1-.81,1.58-1.27,1.58s-.89-.6-1.27-1.58c-.12-.32-.24-.67-.35-1-.17-.56-.32-1.18-.45-1.84a39.85,39.85,0,0,1-.58-4A32.34,32.34,0,0,1,20.73,60.83Z"/><path class="cls-224" d="M26.35,60.87c0,4.67-1.25,11.84-2.8,11.84s-2.8-7.17-2.8-11.84,1.25-5.09,2.8-5.09S26.35,56.19,26.35,60.87Z"/><path class="cls-225" d="M38,47.82c0-.33-.08-.88-.2-1.59s-.29-1.35-.35-1.56c-.12-.42-.29-1-.44-1.41-.26-.75-.49-1.27-.51-1.33-.11-.22-.34-.75-.54-1.11-.08-.14-.19-.34-.28-.48a8.07,8.07,0,0,0-.57-.88,7.93,7.93,0,0,0-.58-.73l-.29-.32c-.36-.35-.43-.42-.61-.57L33,37.36l-.34-.22a2.71,2.71,0,0,0-.37-.21c-.2-.12-.49-.26-.7-.36a7.72,7.72,0,0,0-1.17-.42c-.15,0-.34-.08-.5-.1s-.44,0-.63,0a2.2,2.2,0,0,0-.75.15,2.06,2.06,0,0,0-.41.23l-.21.18c.58-.6,1.65-.43,2.94.15,2.59,1.16,5.08,3.56,6.46,8.65,1,3.9.56,8-.46,9.36a3,3,0,0,0,.18-.25,2.77,2.77,0,0,0,.2-.34,8.12,8.12,0,0,0,.36-.94A12.61,12.61,0,0,0,38,50.77c0-.31,0-.78,0-1.42A14.71,14.71,0,0,0,38,47.82Z"/><path class="cls-225" d="M37.32,45.38c-1.38-5.09-3.87-7.49-6.46-8.65-1.29-.58-2.36-.75-2.94-.15l-.3.31c.58-.6,1.65-.43,2.94.15,2.59,1.16,5.08,3.56,6.46,8.65,1.1,4.09.51,8.39-.6,9.54l.29-.31C37.82,53.77,38.42,49.47,37.32,45.38Z"/><path class="cls-226" d="M37,45.69C35.64,40.6,33.15,38.2,30.56,37c-1.29-.58-2.36-.75-2.94-.15a3.35,3.35,0,0,0-.29.4,2.59,2.59,0,0,0-.14.29,4.19,4.19,0,0,0-.14.47,4.13,4.13,0,0,0-.07.49c0,.13,0,.31,0,.45s0,.39,0,.56c0,.35.1.81.16,1.15a19.63,19.63,0,0,0,.65,2.51c.22.63.32.92.64,1.71s.52,1.21.76,1.75c.56,1.21,1.39,2.8,1.77,3.46l.91,1.59c.32.53.67,1.08.87,1.39l.41.63.63.89a8,8,0,0,0,.51.63,1.62,1.62,0,0,0,.53.37,1,1,0,0,0,.24.07,1.66,1.66,0,0,0,.32,0,1.51,1.51,0,0,0,.37-.07,2.29,2.29,0,0,0,.23-.1,2.6,2.6,0,0,0,.43-.33C37.53,54.08,38.12,49.78,37,45.69Z"/><path class="cls-227" d="M30.56,37c-1.29-.58-2.36-.75-2.94-.15a3.35,3.35,0,0,0-.29.4,2.59,2.59,0,0,0-.14.29,4.19,4.19,0,0,0-.14.47,4.13,4.13,0,0,0-.07.49c0,.13,0,.31,0,.45s0,.39,0,.56a1.11,1.11,0,0,0,0,.17,10.59,10.59,0,0,1,5.55,8.66,16.25,16.25,0,0,1-.16,4.18c.13.22.25.41.35.55l.41.63.54.77a7.19,7.19,0,0,0,.44-.7,14.6,14.6,0,0,0,.94-1.9,19.67,19.67,0,0,0,.63-1.9c.07-.25.15-.59.21-.84s.15-.73.2-1.05a17.92,17.92,0,0,0,.21-1.88c0-.3,0-.7,0-1s0-.59,0-.84,0-.66-.06-.93A11,11,0,0,0,30.56,37Z"/><path class="cls-228" d="M36.05,42.9a10.56,10.56,0,0,0-.14-1.15,7.73,7.73,0,0,0-.22-.93c0-.12-.1-.29-.15-.4l-.16-.37a3.9,3.9,0,0,0-.19-.35c-.12-.2-.3-.46-.44-.65s-.19-.23-.27-.33-.21-.23-.31-.32-.47-.44-.68-.62l-.41-.33c-.51-.38-.51-.38-.88-.63l-.48-.31-1-.62c-.89-.5-1.39-.75-1.69-.9-.63-.3-1.2-.51-1.21-.51l-1-.31c-.17-.05-.41-.09-.59-.13a9.31,9.31,0,0,0-1.06-.14,8.15,8.15,0,0,0-2.38.19,8.32,8.32,0,0,0-1.2.37,9.61,9.61,0,0,0-1,.49l-.13.07L19,35.85c1.3-.76,3.4.11,5.77,1.47C28.71,39.6,31.9,42.4,31.89,48c0,4-1.64,8.35-4,9.72l1.44-.83a5,5,0,0,0,.84-.65,5,5,0,0,1-.84.65l.84-.55c.19-.13.43-.32.61-.46a11.66,11.66,0,0,0,1.13-1.06,13.88,13.88,0,0,0,2.14-3.07A16.1,16.1,0,0,0,34.87,50c.09-.25.2-.57.28-.82s.22-.72.31-1,.24-.95.39-1.85c0-.3.1-.69.13-1s.05-.59.06-.84A13.31,13.31,0,0,0,36.05,42.9Z"/><path class="cls-229" d="M24.78,37.32C22.41,36,20.31,35.09,19,35.85c-.25.15-.57.36-.8.53s-.41.32-.58.47a7.63,7.63,0,0,0-.94,1,8,8,0,0,0-1.39,2.61c-.05.18-.12.41-.16.6s-.14.7-.18,1a12.63,12.63,0,0,0-.08,1.42c0,1,.07,1.58.09,1.75s.06.62.1.88c.19,1.24.2,1.31.31,1.83.06.28.13.65.2.93.13.54.31,1.27.47,1.81.25.87.53,1.74.84,2.56a22.14,22.14,0,0,0,.93,2.17,9.81,9.81,0,0,0,1,1.66,3.77,3.77,0,0,0,.66.72c.12.1.27.23.4.32s.47.29.67.39a6.63,6.63,0,0,0,1.05.39,6.92,6.92,0,0,0,1.25.18,7.33,7.33,0,0,0,1.34,0,8.66,8.66,0,0,0,1.4-.28c.24-.06.55-.18.79-.26l.65-.28c.27-.11.61-.31.87-.45,2.36-1.37,4-5.72,4-9.72C31.9,42.4,28.71,39.6,24.78,37.32Z"/><path class="cls-227" d="M16.67,43.06a4,4,0,0,0-1.78-.13c0,.25,0,.46,0,.55,0,1,.07,1.58.09,1.75s.06.62.1.88c.19,1.24.2,1.31.31,1.83.06.28.13.65.2.93.13.54.31,1.27.47,1.81.25.87.53,1.74.84,2.56a22.14,22.14,0,0,0,.93,2.17,9.81,9.81,0,0,0,1,1.66,3.77,3.77,0,0,0,.66.72l.13.11a30.35,30.35,0,0,0,.84-4.29C21.27,46.47,19.34,43.82,16.67,43.06Z"/><path class="cls-230" d="M22.78,6.35c1.69,1,6.18,5.87,8.75,10.22,2.9,4.94,2.67,6.81,1.47,7.54A1.76,1.76,0,0,1,31.07,24c-1-.56-2.27-2-3.93-4.79-3-5.1-5.32-12.78-4.72-13C22.43,6.19,22.54,6.21,22.78,6.35Z"/><path class="cls-225" d="M35.27,21.69c0-.11,0-.26,0-.37s-.11-.56-.16-.79-.21-.69-.3-1a19.32,19.32,0,0,0-1.08-2.36,34.63,34.63,0,0,0-2.09-3.44c-.23-.34-.75-1.07-1-1.34l-.49-.65c-.66-.84-.66-.84-1-1.27a42.76,42.76,0,0,0-2.95-3.26C26,7,25.44,6.51,24.94,6.09l-.42-.34L24,5.37a1.48,1.48,0,0,0-.59-.22.8.8,0,0,0-.53.12l-.15.08c.13-.08.36,0,.67.17,1.82,1.05,6.42,6.06,9.06,10.53,3.09,5.24,2.85,7.41,1.47,8.25l0,0,.14-.09h0l0,0h0a3,3,0,0,0,.51-.4,2.8,2.8,0,0,0,.43-.57,3.49,3.49,0,0,0,.15-.34,3.58,3.58,0,0,0,.09-.35A3.21,3.21,0,0,0,35.27,21.69Z"/><path class="cls-228" d="M32.41,16.05c-2.64-4.47-7.24-9.48-9.06-10.53-.31-.18-.54-.25-.67-.17h0a.83.83,0,0,0-.27.26.89.89,0,0,0-.14.29,2.07,2.07,0,0,0,0,.68,6.86,6.86,0,0,0,.13.85,3.61,3.61,0,0,0,.12.55c.09.4.23.92.34,1.31.06.22.15.51.22.73.13.4.37,1.15.84,2.43.21.56.26.67.69,1.74.11.27.26.62.38.88.18.43.45,1,.8,1.75a36,36,0,0,0,1.82,3.28,20.75,20.75,0,0,0,1.78,2.5,9.46,9.46,0,0,0,.78.84,5.11,5.11,0,0,0,.73.61,3.75,3.75,0,0,0,.41.26,2.18,2.18,0,0,0,.4.18,2.4,2.4,0,0,0,1.44.12,2.5,2.5,0,0,0,.74-.29l0,0C35.26,23.46,35.5,21.29,32.41,16.05ZM33,24.11A1.76,1.76,0,0,1,31.07,24c-1-.56-2.27-2-3.93-4.79-3-5.1-5.32-12.78-4.72-13,0,0,.12,0,.36.14,1.69,1,6.18,5.87,8.75,10.22C34.43,21.51,34.2,23.38,33,24.11Z"/><path class="cls-231" d="M35.24,21.32c0-.24-.11-.56-.16-.79s-.21-.69-.3-1a19.32,19.32,0,0,0-1.08-2.36,34.63,34.63,0,0,0-2.09-3.44l-.09-.13a17.48,17.48,0,0,0-7.65-1.2v0c.21.56.26.67.69,1.74.11.27.26.62.38.88.18.43.45,1,.8,1.75a36,36,0,0,0,1.82,3.28,20.75,20.75,0,0,0,1.78,2.5,9.46,9.46,0,0,0,.78.84,5.11,5.11,0,0,0,.73.61,3.75,3.75,0,0,0,.41.26,2.18,2.18,0,0,0,.4.18,2.4,2.4,0,0,0,1.44.12,2.5,2.5,0,0,0,.74-.29h0l.14-.09h0l0,0h0a3,3,0,0,0,.51-.4,2.8,2.8,0,0,0,.43-.57,3.49,3.49,0,0,0,.15-.34,3.58,3.58,0,0,0,.09-.35,3.21,3.21,0,0,0,.06-.87C35.27,21.58,35.25,21.43,35.24,21.32Z"/><g class="cls-3"><g class="cls-2"><path class="cls-232" d="M29.64,34.41c2.32,1.34,2.33,3.51,0,4.86a9.26,9.26,0,0,1-8.39,0c-2.32-1.35-2.34-3.52,0-4.86A9.22,9.22,0,0,1,29.64,34.41Z"/></g></g><path class="cls-1" d="M39.59,24.32C38,27.25,34.05,28.77,31,29.11c-1.38.15-4.18-.48-5.25.51s-.52,2.75.05,3.8c1.72,3.19,5.33,3,8.34,2,2.57-.8,4-3,4.78-5.48a14.74,14.74,0,0,0,.52-2.35,19.2,19.2,0,0,0,.18-3C39.59,24.56,39.6,24.56,39.59,24.32Z"/><g class="cls-233"><path class="cls-234" d="M39.7,26c.13,0,.27.05.27.37v.23a16.29,16.29,0,0,1-.28,3.17,3.87,3.87,0,0,1-2,.62A12.46,12.46,0,0,0,39.7,26Z"/><path class="cls-234" d="M31.78,31.39a12.72,12.72,0,0,0-1,.86.67.67,0,0,0,.09,1.06h0a2.84,2.84,0,0,0,3.32-.22L36.7,31l-2.91-.29A2.76,2.76,0,0,0,31.78,31.39Z"/></g><path class="cls-235" d="M34,28.46a15,15,0,0,1-3,.65c-1.38.15-4.18-.48-5.25.51s-.52,2.75.05,3.8c1.72,3.19,5.33,3,8.34,2a6.16,6.16,0,0,0,2.62-1.62A9,9,0,0,1,34,28.46Z"/><path class="cls-229" d="M36.08,34.7c-3.57,1.76-9.78,2.56-10.82-2.64-.5-2.51,1.16-2.87,3.31-2.84a16.62,16.62,0,0,0,7.55-1.52c3.16-1.57,4.63-4,3.18-7.31a8.48,8.48,0,0,0-2-2.74,12.72,12.72,0,0,0-1.2-1c-.19-.14-1.38-.87-.78-.52-6.56-4-13.66-4.45-20,.22A11.51,11.51,0,0,0,11.08,27c.67,5.29,6,10.14,11.79,10.87,6.94.89,9.87-.35,13.21-3.14C35.6,34.94,36.12,34.67,36.08,34.7Z"/><path class="cls-236" d="M12.14,20.28a12.2,12.2,0,0,0-.7,1.89A40.54,40.54,0,0,0,13,27.31c1.21,3,2.26,4.63,3.15,5.34.68.55,1.38.18,2-.06,1.3-.54,1.91-2-.36-7.25S12.58,19.36,12.14,20.28Z"/><path class="cls-229" d="M16.3,42.74a1.46,1.46,0,0,0-.22,0Z"/><path class="cls-229" d="M10.35,63.34l-.24,0A.53.53,0,0,0,10.35,63.34Z"/><path class="cls-225" d="M19.7,46.66a3.59,3.59,0,0,0-.05-.46,7.79,7.79,0,0,0-.2-.8,3.54,3.54,0,0,0-.32-.71c-.11-.18-.28-.41-.41-.58l-.25-.27-.27-.24c-.17-.12-.4-.28-.58-.39s-.38-.19-.55-.27l-.32-.11-.35-.08h-.1a3.28,3.28,0,0,1,1.22.44c2,1.15,3,3.66.9,9.22-1.91,5.05-6.35,10.51-8.07,10.94l.2,0a2.07,2.07,0,0,0,.34-.15,4.48,4.48,0,0,0,.76-.52c.52-.44.88-.82.89-.82l.48-.5.49-.56c.16-.18.36-.43.51-.61.31-.4.72-1,1-1.36.16-.22.36-.51.51-.74.36-.5.79-1.21,1-1.55,0,0,.47-.77.91-1.63.16-.31.45-.87.79-1.67s.5-1.27.62-1.63c.24-.68.37-1.2.45-1.47s.18-.72.28-1.3c0-.17.06-.41.08-.59a4.91,4.91,0,0,0,0-.55A5.58,5.58,0,0,0,19.7,46.66Z"/><path class="cls-225" d="M17.52,43.18a3.31,3.31,0,0,0-1.44-.47h-.24a3.27,3.27,0,0,1,1.43.47c2,1.14,3,3.66.9,9.22-2,5.3-6.8,11.06-8.3,11h.24c1.51.09,6.3-5.66,8.31-11C20.52,46.84,19.5,44.33,17.52,43.18Z"/><path class="cls-229" d="M17.27,43.17a3.27,3.27,0,0,0-1.43-.47,2.85,2.85,0,0,0-.81.07l-.36.11-.32.15a2.8,2.8,0,0,0-.34.21,4.7,4.7,0,0,0-.66.55,6.55,6.55,0,0,0-.64.76,11.2,11.2,0,0,0-.64,1c-.2.36-.45.86-.63,1.24s-.44,1-.62,1.5-.28.78-.39,1.11-.19.63-.26.9-.18.65-.25.93-.16.66-.22,1c-.11.57-.26,1.34-.36,1.92C9.2,55,9.1,55.77,9.08,56c-.06.5-.14,1.26-.17,1.81,0,.25,0,.59-.05.85s0,.56,0,.8v.74c0,.66.05,1.12.07,1.28a4.69,4.69,0,0,0,.17,1,2.42,2.42,0,0,0,.12.35,1.36,1.36,0,0,0,.21.32.51.51,0,0,0,.16.13,1.32,1.32,0,0,0,.3.09c1.5.09,6.3-5.67,8.3-11C20.27,46.83,19.26,44.31,17.27,43.17Z"/><path class="cls-229" d="M6.81,15.49c1.69,1,6.19,5.87,8.76,10.22,2.89,4.94,2.66,6.81,1.46,7.54a1.76,1.76,0,0,1-1.93-.07c-1-.56-2.27-2-3.93-4.79-3-5.1-5.32-12.78-4.71-13C6.47,15.33,6.58,15.36,6.81,15.49Z"/><path class="cls-237" d="M19.3,30.83a2.31,2.31,0,0,0,0-.37c0-.24-.1-.55-.16-.79s-.21-.69-.3-1a20.13,20.13,0,0,0-1.08-2.36,31.13,31.13,0,0,0-2.09-3.44c-.23-.34-.75-1.07-1-1.34l-.5-.65c-.66-.84-.66-.84-1-1.27-.7-.84-1.77-2.09-2.95-3.26-.21-.21-.75-.74-1.26-1.16-.12-.11-.29-.24-.42-.34s-.39-.27-.56-.38a1.47,1.47,0,0,0-.6-.22.82.82,0,0,0-.53.12l-.14.08c.12-.08.35,0,.67.17,1.82,1.05,6.41,6.07,9.05,10.53,3.09,5.24,2.85,7.41,1.47,8.25l0,0,.15-.08h0l0,0h0a2.9,2.9,0,0,0,.52-.4,2.11,2.11,0,0,0,.42-.57c.05-.1.11-.23.15-.33a2.68,2.68,0,0,0,.1-.35A3.66,3.66,0,0,0,19.3,30.83Z"/><path class="cls-238" d="M16.44,25.19c-2.64-4.46-7.23-9.48-9-10.53-.32-.18-.55-.25-.67-.17h0a1,1,0,0,0-.27.26,1.44,1.44,0,0,0-.13.29,1.83,1.83,0,0,0,0,.68,5,5,0,0,0,.12.85c0,.17.08.39.12.55.1.4.24.92.35,1.31.06.22.15.51.22.73.12.4.36,1.15.84,2.43.2.56.25.67.68,1.74.11.27.27.62.38.88.18.43.46,1,.81,1.75a33.06,33.06,0,0,0,1.81,3.28,23.25,23.25,0,0,0,1.78,2.5,8.23,8.23,0,0,0,.78.84,6.34,6.34,0,0,0,.74.62c.19.12.25.17.4.25a2.18,2.18,0,0,0,.4.18,2.4,2.4,0,0,0,1.44.12,2.5,2.5,0,0,0,.74-.29l0,0C19.29,32.6,19.53,30.43,16.44,25.19ZM17,33.25a1.76,1.76,0,0,1-1.93-.07c-1-.56-2.27-2-3.93-4.79-3-5.1-5.32-12.78-4.71-13,0,0,.12,0,.35.14,1.69,1,6.19,5.87,8.76,10.22C18.46,30.65,18.23,32.52,17,33.25Z"/></g></g></svg>