<?xml version="1.0" encoding="UTF-8" standalone="no"?>
<svg
   xmlns:dc="http://purl.org/dc/elements/1.1/"
   xmlns:cc="http://creativecommons.org/ns#"
   xmlns:rdf="http://www.w3.org/1999/02/22-rdf-syntax-ns#"
   xmlns:svg="http://www.w3.org/2000/svg"
   xmlns="http://www.w3.org/2000/svg"
   xmlns:sodipodi="http://sodipodi.sourceforge.net/DTD/sodipodi-0.dtd"
   xmlns:inkscape="http://www.inkscape.org/namespaces/inkscape"
   id="Layer_1"
   viewBox="0 0 32 32"
   enable-background="new 0 0 32 32"
   version="1.1"
   sodipodi:docname="arrow_jump.svg"
   inkscape:version="0.92.4 5da689c313, 2019-01-14">
  <defs
     id="defs21" />
  <sodipodi:namedview
     pagecolor="#ffffff"
     bordercolor="#666666"
     borderopacity="1"
     objecttolerance="10"
     gridtolerance="10"
     guidetolerance="10"
     inkscape:pageopacity="0"
     inkscape:pageshadow="2"
     inkscape:window-width="1920"
     inkscape:window-height="1017"
     id="namedview19"
     showgrid="false"
     inkscape:zoom="29.5"
     inkscape:cx="11.933786"
     inkscape:cy="19.204402"
     inkscape:window-x="0"
     inkscape:window-y="30"
     inkscape:window-maximized="1"
     inkscape:current-layer="Layer_1" />
  <path
     style="opacity:1;vector-effect:none;fill:#ffffff;fill-opacity:1;stroke:#979797;stroke-width:2.20000005;stroke-linecap:butt;stroke-linejoin:miter;stroke-miterlimit:4;stroke-dasharray:none;stroke-dashoffset:0;stroke-opacity:1"
     d="M 15.950371,4.2596252 C 14.401724,4.3395202 13.214003,5.1830416 12.332229,6.093107 11.450455,7.0031724 10.802403,8.062184 10.323586,9.1110959 9.5402583,10.827086 8.3897971,13.757513 7.772223,19.424234 c -0.2648146,2.42988 -0.2076264,4.805112 -0.1134259,6.666281 0.043995,0.869237 0.5878749,1.661198 1.7029562,1.655444 1.1720807,-0.0061 1.7418507,-0.904218 1.7832347,-1.705455 0.24455,-4.734788 1.008546,-10.824009 2.990563,-15.189254 0.313135,-0.685963 0.772205,-1.3943319 1.206047,-1.8420939 0.433842,-0.4477611 0.770016,-0.5611032 0.849976,-0.5656933 0.243852,-0.013998 0.530202,0.067128 0.969144,0.3977083 0.384383,0.2894892 0.815864,0.7613209 1.20174,1.2764009 l 0.638919,0.852848 -1.335267,1.171588 c -0.191322,0.16787 -0.304858,0.571019 -0.06604,0.852847 0.238815,0.281819 0.602243,0.259859 0.923199,0.282847 l 4.791165,0.343149 c 0.204478,0.01464 0.353971,0.05269 0.605896,-0.192393 0.251923,-0.245079 0.297485,-0.426027 0.304382,-0.625997 l 0.17804,-5.1615893 C 24.413142,7.3395996 24.466772,7.0755474 24.303682,6.8942713 24.140594,6.7130002 23.790741,6.6220607 23.53411,6.8540703 l -1.451563,1.312294 -0.21393,-0.2512597 C 21.301606,7.249151 20.394428,6.0347978 19.680503,5.4929593 18.845295,4.859071 17.82513,4.2666002 16.570017,4.2581968 c -0.213285,-0.00143 -0.437256,-0.00798 -0.619646,0.00143 z"
     id="path4537-3-7"
     inkscape:connector-curvature="0"
     sodipodi:nodetypes="ssssssscsssscssssssssscssss" />
  <path
     style="opacity:1;vector-effect:none;fill:#ffffff;fill-opacity:1;stroke:none;stroke-width:0.88090181px;stroke-linecap:butt;stroke-linejoin:miter;stroke-miterlimit:4;stroke-dasharray:none;stroke-dashoffset:0;stroke-opacity:1"
     d="M 15.950616,4.2593074 C 14.401969,4.3392026 13.214248,5.1827238 12.332474,6.0927892 11.4507,7.0028546 10.802648,8.0618662 10.323831,9.1107781 9.5405032,10.826767 8.390042,13.757194 7.7724679,19.423915 c -0.2648146,2.42988 -0.2076264,4.805112 -0.1134259,6.666281 0.043995,0.869237 0.5878749,1.661198 1.7029562,1.655444 1.1720808,-0.0061 1.7418508,-0.904218 1.7832348,-1.705455 0.24455,-4.734788 1.008546,-10.824009 2.990563,-15.189254 0.313135,-0.685963 0.772205,-1.3943307 1.206047,-1.8420927 0.433842,-0.4477611 0.770016,-0.5611032 0.849976,-0.5656933 0.243852,-0.013998 0.530202,0.067128 0.969144,0.3977083 0.384383,0.2894892 0.815864,0.7613209 1.20174,1.2763997 l 0.638919,0.852848 -1.335267,1.171588 c -0.191322,0.16787 -0.304858,0.571019 -0.06604,0.852847 0.238815,0.281819 0.602243,0.259859 0.923199,0.282847 l 4.791165,0.343149 c 0.204478,0.01464 0.353971,0.05269 0.605896,-0.192393 0.251923,-0.245079 0.297485,-0.426027 0.304382,-0.625997 l 0.17804,-5.1615881 c 0.01039,-0.3012721 0.06402,-0.5653243 -0.09907,-0.7466004 -0.163088,-0.1812711 -0.512941,-0.2722106 -0.769572,-0.040201 l -1.451563,1.312294 -0.21393,-0.2512597 C 21.301851,7.2488332 20.394673,6.03448 19.680748,5.4926415 18.84554,4.8587532 17.825375,4.2662824 16.570262,4.257879 16.356977,4.256449 16.133006,4.249899 15.950616,4.259309 Z"
     id="path4537-3"
     inkscape:connector-curvature="0"
     sodipodi:nodetypes="ssssssscsssscssssssssscssss" />
  <metadata
     id="metadata4637">
    <rdf:RDF>
      <cc:Work
         rdf:about="">
        <dc:title></dc:title>
        <dc:format>image/svg+xml</dc:format>
        <dc:type
           rdf:resource="http://purl.org/dc/dcmitype/StillImage" />
      </cc:Work>
    </rdf:RDF>
  </metadata>
</svg>
