<?xml version="1.0" encoding="UTF-8" standalone="no"?>
<svg
   xmlns:dc="http://purl.org/dc/elements/1.1/"
   xmlns:cc="http://creativecommons.org/ns#"
   xmlns:rdf="http://www.w3.org/1999/02/22-rdf-syntax-ns#"
   xmlns:svg="http://www.w3.org/2000/svg"
   xmlns="http://www.w3.org/2000/svg"
   xmlns:sodipodi="http://sodipodi.sourceforge.net/DTD/sodipodi-0.dtd"
   xmlns:inkscape="http://www.inkscape.org/namespaces/inkscape"
   id="Layer_1"
   viewBox="0 0 32 32"
   enable-background="new 0 0 32 32"
   version="1.1"
   sodipodi:docname="arrow_cw.svg"
   inkscape:version="0.92.4 5da689c313, 2019-01-14">
  <defs
     id="defs21" />
  <sodipodi:namedview
     pagecolor="#ffffff"
     bordercolor="#666666"
     borderopacity="1"
     objecttolerance="10"
     gridtolerance="10"
     guidetolerance="10"
     inkscape:pageopacity="0"
     inkscape:pageshadow="2"
     inkscape:window-width="1920"
     inkscape:window-height="1017"
     id="namedview19"
     showgrid="false"
     inkscape:zoom="14.75"
     inkscape:cx="-3.0138767"
     inkscape:cy="7.8795506"
     inkscape:window-x="0"
     inkscape:window-y="30"
     inkscape:window-maximized="1"
     inkscape:current-layer="Layer_1" />
  <metadata
     id="metadata4637">
    <rdf:RDF>
      <cc:Work
         rdf:about="">
        <dc:title />
        <dc:format>image/svg+xml</dc:format>
        <dc:type
           rdf:resource="http://purl.org/dc/dcmitype/StillImage" />
      </cc:Work>
    </rdf:RDF>
  </metadata>
  <path
     style="opacity:1;vector-effect:none;fill:#ffffff;fill-opacity:1;stroke:#979797;stroke-width:2.20000005;stroke-linecap:butt;stroke-linejoin:miter;stroke-miterlimit:4;stroke-dasharray:none;stroke-dashoffset:0;stroke-opacity:1"
     d="m 21.850994,3.4212626 c -0.300536,-0.054146 -0.715585,0.1253953 -0.791167,0.552019 L 20.631877,6.3863423 19.146635,6.1328092 C 18.02495,5.9413359 16.90679,5.8749611 15.809352,5.9889604 12.51704,6.330959 9.460807,8.0898138 7.527267,10.903189 4.949215,14.654356 4.835355,19.59337 7.237772,23.459376 c 2.402417,3.866006 6.89751,6.049843 11.387417,5.302619 1.183148,-0.196902 2.049043,-0.552315 2.791838,-1.095686 0.879734,-0.643547 1.531783,-1.852063 0.842957,-3.242491 -0.644765,-1.301485 -1.73649,-1.271058 -2.411758,-1.178093 -0.613321,0.08444 -0.8333,0.283472 -1.960262,0.445607 -2.502553,0.36004 -4.964102,-0.786742 -6.29877,-2.934512 -1.335629,-2.149312 -1.273242,-4.867814 0.160031,-6.953283 1.433272,-2.085467 3.969091,-3.213634 6.43363,-2.639622 l 1.551767,0.36142 -0.420757,2.1847 c -0.06039,0.31299 0.137123,0.799953 0.589779,0.895458 0.452658,0.0955 0.793953,-0.206151 1.129211,-0.429748 l 5.005932,-3.339086 c 0.213591,-0.142452 0.388419,-0.218609 0.449527,-0.654511 0.06111,-0.4359022 -0.03131,-0.6509544 -0.178012,-0.8541014 L 22.523487,4.0847643 C 22.302459,3.7787032 22.151529,3.4754196 21.850994,3.4212626 Z"
     id="path4537-3-5-6-2"
     inkscape:connector-curvature="0"
     sodipodi:nodetypes="cccssssssssssssccccccccc" />
  <path
     style="opacity:1;vector-effect:none;fill:#ffffff;fill-opacity:1;stroke:none;stroke-width:1.10321009px;stroke-linecap:butt;stroke-linejoin:miter;stroke-miterlimit:4;stroke-dasharray:none;stroke-dashoffset:0;stroke-opacity:1"
     d="M 21.850994,3.421263 C 21.550458,3.367117 21.135409,3.5466583 21.059827,3.973282 L 20.631877,6.3863427 19.146635,6.1328096 C 18.02495,5.9413363 16.90679,5.8749615 15.809352,5.9889608 12.51704,6.3309594 9.460807,8.0898142 7.527267,10.903189 4.949215,14.654356 4.835355,19.59337 7.237772,23.459376 c 2.402417,3.866006 6.89751,6.049843 11.387417,5.302619 1.183148,-0.196902 2.049043,-0.552315 2.791838,-1.095686 0.879734,-0.643547 1.531783,-1.852063 0.842957,-3.242491 -0.644765,-1.301485 -1.73649,-1.271058 -2.411758,-1.178093 -0.613321,0.08444 -0.8333,0.283472 -1.960262,0.445607 -2.502553,0.36004 -4.964102,-0.786742 -6.29877,-2.934512 -1.335629,-2.149312 -1.273242,-4.867814 0.160031,-6.953283 1.433272,-2.085467 3.969091,-3.213634 6.43363,-2.639622 l 1.551767,0.36142 -0.420757,2.1847 c -0.06039,0.31299 0.137123,0.799953 0.589779,0.895458 0.452658,0.0955 0.793953,-0.206151 1.129211,-0.429748 l 5.005932,-3.339086 c 0.213591,-0.142452 0.388419,-0.218609 0.449527,-0.654511 0.06111,-0.4359018 -0.03131,-0.650954 -0.178012,-0.854101 L 22.523487,4.0847647 C 22.302459,3.7787036 22.151529,3.47542 21.850994,3.421263 Z"
     id="path4537-3-5-6"
     inkscape:connector-curvature="0"
     sodipodi:nodetypes="cccssssssssssssccccccccc" />
</svg>
