<?xml version="1.0" encoding="UTF-8" standalone="no"?>
<svg
   xmlns:dc="http://purl.org/dc/elements/1.1/"
   xmlns:cc="http://creativecommons.org/ns#"
   xmlns:rdf="http://www.w3.org/1999/02/22-rdf-syntax-ns#"
   xmlns:svg="http://www.w3.org/2000/svg"
   xmlns="http://www.w3.org/2000/svg"
   xmlns:sodipodi="http://sodipodi.sourceforge.net/DTD/sodipodi-0.dtd"
   xmlns:inkscape="http://www.inkscape.org/namespaces/inkscape"
   id="Layer_1"
   viewBox="0 0 32 32"
   enable-background="new 0 0 32 32"
   version="1.1"
   sodipodi:docname="arrow_forward.svg"
   inkscape:version="0.92.4 5da689c313, 2019-01-14">
  <defs
     id="defs21" />
  <sodipodi:namedview
     pagecolor="#ffffff"
     bordercolor="#666666"
     borderopacity="1"
     objecttolerance="10"
     gridtolerance="10"
     guidetolerance="10"
     inkscape:pageopacity="0"
     inkscape:pageshadow="2"
     inkscape:window-width="1920"
     inkscape:window-height="1017"
     id="namedview19"
     showgrid="false"
     inkscape:zoom="45.254834"
     inkscape:cx="17.520092"
     inkscape:cy="18.045191"
     inkscape:window-x="0"
     inkscape:window-y="30"
     inkscape:window-maximized="1"
     inkscape:current-layer="Layer_1" />
  <path
     style="opacity:1;vector-effect:none;fill:#ffffff;fill-opacity:1;stroke:#979797;stroke-width:2.20000005;stroke-linecap:butt;stroke-linejoin:miter;stroke-miterlimit:4;stroke-dasharray:none;stroke-dashoffset:0;stroke-opacity:1"
     d="m 17.45113,13.247878 -7.7179893,0.142173 c -1.1837636,0.02181 -2.1991599,0.833091 -2.2138444,2.518502 -0.014684,1.68541 0.7528562,2.511306 2.0310504,2.579433 l 8.0023363,0.42652 v 2.41695 c 0,0.346244 0.30999,0.824023 0.81242,0.83273 0.50243,0.0087 0.805526,-0.383087 1.117077,-0.690556 l 4.651104,-4.590174 c 0.198487,-0.195887 0.369811,-0.314627 0.345279,-0.792109 -0.02453,-0.477482 -0.167316,-0.686878 -0.36559,-0.873351 l -5.118242,-4.813589 c -0.29872,-0.28094 -0.521364,-0.5727796 -0.853041,-0.5686926 -0.331677,0.0041 -0.737101,0.3365096 -0.730821,0.7515006 z"
     id="path4537-3-3"
     inkscape:connector-curvature="0"
     sodipodi:nodetypes="cszscszsszsszsc" />
  <metadata
     id="metadata4637">
    <rdf:RDF>
      <cc:Work
         rdf:about="">
        <dc:title />
        <dc:format>image/svg+xml</dc:format>
        <dc:type
           rdf:resource="http://purl.org/dc/dcmitype/StillImage" />
      </cc:Work>
    </rdf:RDF>
  </metadata>
  <path
     style="opacity:1;vector-effect:none;fill:#ffffff;fill-opacity:1;stroke:none;stroke-width:1.19831932px;stroke-linecap:butt;stroke-linejoin:miter;stroke-miterlimit:4;stroke-dasharray:none;stroke-dashoffset:0;stroke-opacity:1"
     d="m 17.45113,13.247878 -7.7179893,0.142173 c -1.1837636,0.02181 -2.1991599,0.833091 -2.2138444,2.518502 -0.014684,1.68541 0.7528562,2.511306 2.0310504,2.579433 l 8.0023363,0.42652 v 2.41695 c 0,0.346244 0.30999,0.824023 0.81242,0.83273 0.50243,0.0087 0.805526,-0.383087 1.117077,-0.690556 l 4.651104,-4.590174 c 0.198487,-0.195887 0.369811,-0.314627 0.345279,-0.792109 -0.02453,-0.477482 -0.167316,-0.686878 -0.36559,-0.873351 l -5.118242,-4.813589 c -0.29872,-0.28094 -0.521364,-0.57278 -0.853041,-0.568693 -0.331677,0.0041 -0.737101,0.33651 -0.730821,0.751501 z"
     id="path4537-3"
     inkscape:connector-curvature="0"
     sodipodi:nodetypes="cszscszsszsszsc" />
</svg>
