<svg xmlns="http://www.w3.org/2000/svg" xmlns:xlink="http://www.w3.org/1999/xlink" viewBox="0 0 128 121.93" width="128" height="122">
    <defs>
        <radialGradient id="Nepojmenovaný_přechod_23" cx="77.69" cy="57.93" r="50.6" gradientTransform="matrix(-1, 0, 0, 1, 141.68, 0)" gradientUnits="userSpaceOnUse">
            <stop offset="0" stop-color="#286992"/>
            <stop offset="1" stop-color="#286992"/>
        </radialGradient>
        <radialGradient id="Nepojmenovaný_přechod_23-2" cx="118.49" cy="57" r="8.29" gradientTransform="matrix(-1, 0, 0, 1, 141.8, 0.25)" xlink:href="#Nepojmenovaný_přechod_23"/>
        <radialGradient id="Nepojmenovaný_přechod_23-3" cx="119.84" cy="40.79" r="18.23" xlink:href="#Nepojmenovaný_přechod_23"/>
        <radialGradient id="Nepojmenovaný_přechod_23-4" cx="112.84" cy="45.84" r="12.76" xlink:href="#Nepojmenovaný_přechod_23"/>
        <radialGradient id="Nepojmenovaný_přechod_23-5" cx="124.72" cy="32.41" r="7.5" xlink:href="#Nepojmenovaný_přechod_23"/>
        <radialGradient id="Nepojmenovaný_přechod_23-6" cx="126.76" cy="37.05" r="5.64" xlink:href="#Nepojmenovaný_přechod_23"/>
        <radialGradient id="Nepojmenovaný_přechod_23-7" cx="106.29" cy="43.43" r="7.53" xlink:href="#Nepojmenovaný_přechod_23"/>
        <radialGradient id="Nepojmenovaný_přechod_23-8" cx="116.79" cy="40.09" r="5.5" xlink:href="#Nepojmenovaný_přechod_23"/>
        <radialGradient id="Nepojmenovaný_přechod_23-9" cx="111.99" cy="48.43" r="3.8" xlink:href="#Nepojmenovaný_přechod_23"/>
        <style>
            .cls-7{fill:#b5b5b5;mix-blend-mode:multiply}.cls-9{fill:#ebebeb}.cls-10{fill:#c6c6c6}.cls-17{fill:#0096cb}.cls-20{fill:#fff;opacity:.35;mix-blend-mode:overlay}
        </style>
    </defs>
    <g style="isolation:isolate">
        <g id="Vrstva_1" data-name="Vrstva 1">
            <g id="layer1">
                <path id="path10" d="M128,57.93l-64,32-64-32,64-32Z" style="fill:#a2c037"/>
                <path id="path837" d="M128,89.93l-64,32v-32l64-32Z" style="fill:#b5b295"/>
                <path id="path839" d="M64,121.93l-64-32v-32l64,32Z" style="fill:#d6d3ad"/>
            </g>
            <polygon points="22.64 46.83 43.62 58 64.26 68.99 84.57 79.4 105.72 69.03 84.74 57.86 64.1 46.87 43.79 36.46 22.64 46.83" style="fill:#f7e080;mix-blend-mode:color"/>
            <polygon points="-0.02 57.95 63.98 89.95 127.98 57.95 63.98 25.91 -0.02 57.95" style="fill:url(#Nepojmenovaný_přechod_23);mix-blend-mode:hard-light"/>
            <path class="cls-7" d="M105.47,55.12a11.12,11.12,0,0,1,8.73-.07c2.45,1.16,2.5,3.09.12,4.29a11.12,11.12,0,0,1-8.73.08C103.15,58.25,103.09,56.33,105.47,55.12Z"/>
            <path d="M105.79,58.29a10.66,10.66,0,0,0,8.33-.07c1.12-.57,1.67-1.3,1.67-2v.66c0,.73-.55,1.46-1.67,2a10.66,10.66,0,0,1-8.33.07c-1.18-.57-1.78-1.32-1.78-2.07v-.66C104,57,104.6,57.72,105.79,58.29Z" style="fill:#a2a1a1"/>
            <path class="cls-9" d="M105.67,54.19a10.57,10.57,0,0,1,8.33-.07c2.34,1.11,2.39,3,.12,4.1a10.66,10.66,0,0,1-8.33.07C103.46,57.18,103.4,55.34,105.67,54.19Z"/>
            <path class="cls-10" d="M106.92,52.37c0,.4.26.8.89,1.1a5.34,5.34,0,0,0,4.15,0c.59-.3.86-.69.83-1.07l1.15,3.75c0,.53-.34,1.06-1.14,1.48a7.28,7.28,0,0,1-5.72,0h0c-.86-.41-1.27-1-1.22-1.5Z"/>
            <path class="cls-9" d="M107.45,51.6l.88-.62c-.48.34-.44.79.09,1.11l.14.07a3.17,3.17,0,0,0,1.41.26,3,3,0,0,0,1.21-.28c.64-.32.69-.82.19-1.17l.88.62c.81.55.71,1.33-.29,1.84a4.8,4.8,0,0,1-1.92.44,5.13,5.13,0,0,1-2.23-.4l-.22-.12C106.74,52.85,106.69,52.13,107.45,51.6Z"/>
            <path class="cls-10" d="M108.75,41.9c0,.13.1.26.3.36a1.84,1.84,0,0,0,1.42,0c.19-.09.29-.22.28-.35l1,9.6c0,.23-.17.47-.53.65a3.36,3.36,0,0,1-2.62,0c-.38-.18-.57-.42-.56-.66Z"/>
            <path d="M107.73,32.7a5.13,5.13,0,0,0,4,0,1.34,1.34,0,0,0,.8-.86l-1.81,10.13a.45.45,0,0,1-.28.3,1.84,1.84,0,0,1-1.42,0,.55.55,0,0,1-.3-.31l-1.87-10.12A1.35,1.35,0,0,0,107.73,32.7Z" style="fill:#b5b5b5"/>
            <path d="M101.19,33v0h0s0-.07,0-.11l.05-.12c0-.08.09-.18.12-.26l.12-.24.14-.25.14-.23.16-.25.16-.22.36-.45c.12-.14.18-.2.41-.44-1.43,1.42-.92,3.19,1.51,4.34a12.51,12.51,0,0,0,5,1h.79l.45,0,.32,0,.44,0,.32,0,.43-.06.31-.06.42-.09.29-.07.42-.12.26-.08.44-.16.21-.08a5.46,5.46,0,0,0,.6-.27c2.31-1.17,2.75-2.9,1.35-4.28l0,0h0v0l.19.19.19.2.2.24.17.22.17.24.15.22.15.25.13.23.13.26.11.24.11.26.09.24a1.21,1.21,0,0,1,0,.18l0,0v0l0,.11a6.67,6.67,0,0,1-1.89,6.69l-.11.12-.44.39a8.58,8.58,0,0,1-1.19.83l-.49.27a9.93,9.93,0,0,1-5.26,1.06h0l-.41,0-.41,0-.44-.07-.43-.09-.48-.13-.46-.15-.56-.21-.48-.21-.26-.13-.1-.06-.3-.16-.48-.29c-.22-.16-.51-.37-.72-.54l-.23-.2-.1-.09-.11-.09-.08-.09a7.4,7.4,0,0,1-.65-.71h0a8.61,8.61,0,0,1-.54-.76l-.11-.21a5.39,5.39,0,0,1-.25-.48l-.06-.13,0-.06a1.19,1.19,0,0,1-.08-.2l-.12-.29a7.6,7.6,0,0,1-.33-1.51l0-.61A6.19,6.19,0,0,1,101.19,33Z" style="fill:#8dc5ef"/>
            <path d="M100.31,32.08c0,1.2,1,2.4,2.85,3.3a17,17,0,0,0,13.3-.11c1.78-.9,2.66-2.07,2.66-3.24l0-.53a6,6,0,0,0-.28-1.31l-.19-.49a5.84,5.84,0,0,0-.55-1v0a8.08,8.08,0,0,0-3.74-2.89c-.18-.07-.42-.17-.61-.23l-.51-.16-.55-.15-.51-.11-.52-.09h-.08l-.34,0H111a12.74,12.74,0,0,0-3.85.19h-.07l-.06,0-.38.09-.08,0h-.07l-.41.12H106a10.42,10.42,0,0,0-1.63.66l-.5.27a9.27,9.27,0,0,0-1.08.75l-.41.36-.06.06a6.52,6.52,0,0,0-1.42,1.91h0l-.21.48c0,.13-.1.29-.15.44v0l-.1.32-.09.52C100.35,31.52,100.32,31.84,100.31,32.08Zm8.48-5.26a2.3,2.3,0,0,1,1.8,0c.5.24.51.64,0,.89a2.27,2.27,0,0,1-1.79,0C108.31,27.46,108.3,27.07,108.79,26.82Z" style="fill:#d4d4d5"/>
            <path d="M108.45,26.05l0-.09,0-.13,0-.07,0-.07v0l0,0,.06-.06a.63.63,0,0,1,.11-.12l.06-.06.15-.1.07,0,.09,0h0l.09,0h0a1.42,1.42,0,0,1,1.41.35l.06.07,0,.07.08.15,0,.08a1.3,1.3,0,0,1,0,.21v1.17c0,.16-.12.32-.36.44a2.3,2.3,0,0,1-1.8,0c-.25-.12-.38-.28-.38-.44V26.05Z" style="fill:#e7e7e6"/>
            <g style="opacity:.66;mix-blend-mode:multiply">
                <path d="M105.47,55.12a11.12,11.12,0,0,1,8.73-.07c2.45,1.16,2.5,3.09.12,4.29a11.12,11.12,0,0,1-8.73.08C103.15,58.25,103.09,56.33,105.47,55.12Z" style="fill:#0096cb;mix-blend-mode:multiply"/>
                <path class="cls-17" d="M105.79,58.29a10.66,10.66,0,0,0,8.33-.07c1.12-.57,1.67-1.3,1.67-2v.66c0,.73-.55,1.46-1.67,2a10.66,10.66,0,0,1-8.33.07c-1.18-.57-1.78-1.32-1.78-2.07v-.66C104,57,104.6,57.72,105.79,58.29Z"/>
                <path class="cls-17" d="M105.67,54.19a10.57,10.57,0,0,1,8.33-.07c2.34,1.11,2.39,3,.12,4.1a10.66,10.66,0,0,1-8.33.07C103.46,57.18,103.4,55.34,105.67,54.19Z"/>
                <path class="cls-17" d="M106.92,52.37c0,.4.26.8.89,1.1a5.34,5.34,0,0,0,4.15,0c.59-.3.86-.69.83-1.07l1.15,3.75c0,.53-.34,1.06-1.14,1.48a7.28,7.28,0,0,1-5.72,0h0c-.86-.41-1.27-1-1.22-1.5Z"/>
                <path class="cls-17" d="M107.45,51.6l.88-.62c-.48.34-.44.79.09,1.11l.14.07a3.17,3.17,0,0,0,1.41.26,3,3,0,0,0,1.21-.28c.64-.32.69-.82.19-1.17l.88.62c.81.55.71,1.33-.29,1.84a4.8,4.8,0,0,1-1.92.44,5.13,5.13,0,0,1-2.23-.4l-.22-.12C106.74,52.85,106.69,52.13,107.45,51.6Z"/>
                <path class="cls-17" d="M108.75,41.9c0,.13.1.26.3.36a1.84,1.84,0,0,0,1.42,0c.19-.09.29-.22.28-.35l1,9.6c0,.23-.17.47-.53.65a3.36,3.36,0,0,1-2.62,0c-.38-.18-.57-.42-.56-.66Z"/>
                <path class="cls-17" d="M107.73,32.7a5.13,5.13,0,0,0,4,0,1.34,1.34,0,0,0,.8-.86l-1.81,10.13a.45.45,0,0,1-.28.3,1.84,1.84,0,0,1-1.42,0,.55.55,0,0,1-.3-.31l-1.87-10.12A1.35,1.35,0,0,0,107.73,32.7Z"/>
                <path class="cls-17" d="M101.19,33v0h0s0-.07,0-.11l.05-.12c0-.08.09-.18.12-.26l.12-.24.14-.25.14-.23.16-.25.16-.22.36-.45c.12-.14.18-.2.41-.44-1.43,1.42-.92,3.19,1.51,4.34a12.51,12.51,0,0,0,5,1h.79l.45,0,.32,0,.44,0,.32,0,.43-.06.31-.06.42-.09.29-.07.42-.12.26-.08.44-.16.21-.08a5.46,5.46,0,0,0,.6-.27c2.31-1.17,2.75-2.9,1.35-4.28l0,0h0v0l.19.19.19.2.2.24.17.22.17.24.15.22.15.25.13.23.13.26.11.24.11.26.09.24a1.21,1.21,0,0,1,0,.18l0,0v0l0,.11a6.67,6.67,0,0,1-1.89,6.69l-.11.12-.44.39a8.58,8.58,0,0,1-1.19.83l-.49.27a9.93,9.93,0,0,1-5.26,1.06h0l-.41,0-.41,0-.44-.07-.43-.09-.48-.13-.46-.15-.56-.21-.48-.21-.26-.13-.1-.06-.3-.16-.48-.29c-.22-.16-.51-.37-.72-.54l-.23-.2-.1-.09-.11-.09-.08-.09a7.4,7.4,0,0,1-.65-.71h0a8.61,8.61,0,0,1-.54-.76l-.11-.21a5.39,5.39,0,0,1-.25-.48l-.06-.13,0-.06a1.19,1.19,0,0,1-.08-.2l-.12-.29a7.6,7.6,0,0,1-.33-1.51l0-.61A6.19,6.19,0,0,1,101.19,33Z"/>
                <path class="cls-17" d="M100.31,32.08c0,1.2,1,2.4,2.85,3.3a17,17,0,0,0,13.3-.11c1.78-.9,2.66-2.07,2.66-3.24l0-.53a6,6,0,0,0-.28-1.31l-.19-.49a5.84,5.84,0,0,0-.55-1v0a8.08,8.08,0,0,0-3.74-2.89c-.18-.07-.42-.17-.61-.23l-.51-.16-.55-.15-.51-.11-.52-.09h-.08l-.34,0H111a12.74,12.74,0,0,0-3.85.19h-.07l-.06,0-.38.09-.08,0h-.07l-.41.12H106a10.42,10.42,0,0,0-1.63.66l-.5.27a9.27,9.27,0,0,0-1.08.75l-.41.36-.06.06a6.52,6.52,0,0,0-1.42,1.91h0l-.21.48c0,.13-.1.29-.15.44v0l-.1.32-.09.52C100.35,31.52,100.32,31.84,100.31,32.08Zm8.48-5.26a2.3,2.3,0,0,1,1.8,0c.5.24.51.64,0,.89a2.27,2.27,0,0,1-1.79,0C108.31,27.46,108.3,27.07,108.79,26.82Z"/>
                <path class="cls-17" d="M108.45,26.05l0-.09,0-.13,0-.07,0-.07v0l0,0,.06-.06a.63.63,0,0,1,.11-.12l.06-.06.15-.1.07,0,.09,0h0l.09,0h0a1.42,1.42,0,0,1,1.41.35l.06.07,0,.07.08.15,0,.08a1.3,1.3,0,0,1,0,.21v1.17c0,.16-.12.32-.36.44a2.3,2.3,0,0,1-1.8,0c-.25-.12-.38-.28-.38-.44V26.05Z"/>
            </g>
            <ellipse class="cls-7" cx="23.19" cy="57" rx="10.52" ry="5.18" transform="translate(-0.12 0.05) rotate(-0.12)"/>
            <path d="M20.06,58.75s-10-13-12.48-24.09a38.91,38.91,0,0,1,5.16,5.52,66.16,66.16,0,0,1-.35-18.79C22,31.67,23.94,44.7,24.2,51.9c.24-5.15,1-12.75,3.14-17.13,2,6.62.82,13.66-.28,17.77C28.93,47.14,33,37,38.79,32c.52,7-4,26.64-13.66,28.19H19.8s-14-7.07-14.95-8.73C11.35,49,20.06,58.75,20.06,58.75Z" style="fill:#84b451"/>
            <path d="M23.88,52.15c-1.45-6.33-2.41-15.24-.89-20.67,3.15,5.24,4.08,12.1,4.24,17.57.62-3.19,1.59-6.21,3.07-6.93,1.76,7.87-1.66,15.34-1.66,15.34a35.27,35.27,0,0,1,11.12-7.8A30.51,30.51,0,0,1,27.1,60.19H24.57C23.19,57.93,19.12,51,17.92,46.1A26.43,26.43,0,0,1,23.88,52.15Z" style="fill:#a1c268"/>
            <path class="cls-20" d="M21.39,42.05s-2-13.81-8.87-19.28A74.93,74.93,0,0,0,21.39,42.05Z"/>
            <path class="cls-20" d="M13.31,29.24a52.24,52.24,0,0,1,3.22,15.61C13.7,39.65,13.31,29.24,13.31,29.24Z"/>
            <path class="cls-20" d="M38.66,33.29S37.77,46,32.12,53.57C34.53,39.87,38.66,33.29,38.66,33.29Z"/>
            <path class="cls-20" d="M23.28,32.49A32.47,32.47,0,0,1,26.47,47.7C25.58,43.52,23.28,32.49,23.28,32.49Z"/>
            <path class="cls-20" d="M30,43.12s1.67,6-1.15,10.63A41.46,41.46,0,0,1,30,43.12Z"/>
            <g style="mix-blend-mode:hard-light">
                <ellipse cx="23.19" cy="57" rx="10.52" ry="5.18" transform="translate(-0.12 0.05) rotate(-0.12)" style="fill:url(#Nepojmenovaný_přechod_23-2);mix-blend-mode:multiply"/>
                <path d="M20.06,58.75s-10-13-12.48-24.09a38.91,38.91,0,0,1,5.16,5.52,66.16,66.16,0,0,1-.35-18.79C22,31.67,23.94,44.7,24.2,51.9c.24-5.15,1-12.75,3.14-17.13,2,6.62.82,13.66-.28,17.77C28.93,47.14,33,37,38.79,32c.52,7-4,26.64-13.66,28.19H19.8s-14-7.07-14.95-8.73C11.35,49,20.06,58.75,20.06,58.75Z" style="fill:url(#Nepojmenovaný_přechod_23-3)"/>
                <path d="M23.88,52.15c-1.45-6.33-2.41-15.24-.89-20.67,3.15,5.24,4.08,12.1,4.24,17.57.62-3.19,1.59-6.21,3.07-6.93,1.76,7.87-1.66,15.34-1.66,15.34a35.27,35.27,0,0,1,11.12-7.8A30.51,30.51,0,0,1,27.1,60.19H24.57C23.19,57.93,19.12,51,17.92,46.1A26.43,26.43,0,0,1,23.88,52.15Z" style="fill:url(#Nepojmenovaný_přechod_23-4)"/>
                <path d="M21.39,42.05s-2-13.81-8.87-19.28A74.93,74.93,0,0,0,21.39,42.05Z" style="fill:url(#Nepojmenovaný_přechod_23-5);opacity:.35;mix-blend-mode:overlay"/>
                <path d="M13.31,29.24a52.24,52.24,0,0,1,3.22,15.61C13.7,39.65,13.31,29.24,13.31,29.24Z" style="fill:url(#Nepojmenovaný_přechod_23-6);opacity:.35;mix-blend-mode:overlay"/>
                <path d="M38.66,33.29S37.77,46,32.12,53.57C34.53,39.87,38.66,33.29,38.66,33.29Z" style="fill:url(#Nepojmenovaný_přechod_23-7);opacity:.35;mix-blend-mode:overlay"/>
                <path d="M23.28,32.49A32.47,32.47,0,0,1,26.47,47.7C25.58,43.52,23.28,32.49,23.28,32.49Z" style="fill:url(#Nepojmenovaný_přechod_23-8);opacity:.35;mix-blend-mode:overlay"/>
                <path d="M30,43.12s1.67,6-1.15,10.63A41.46,41.46,0,0,1,30,43.12Z" style="fill:url(#Nepojmenovaný_přechod_23-9);opacity:.35;mix-blend-mode:overlay"/>
            </g>
        </g>
    </g>
</svg>
