<svg xmlns="http://www.w3.org/2000/svg" xmlns:xlink="http://www.w3.org/1999/xlink" viewBox="0 0 128 122.28"><defs><style>.cls-1{isolation:isolate;}.cls-2{fill:#a2c037;}.cls-3{fill:#b5b295;}.cls-4{fill:#d6d3ad;}.cls-5{fill:#f7e080;mix-blend-mode:color;}.cls-21,.cls-6{mix-blend-mode:hard-light;}.cls-6{fill:url(#Nepojmenovaný_přechod_23);}.cls-11,.cls-7{fill:#b5b5b5;}.cls-15,.cls-16,.cls-22,.cls-7{mix-blend-mode:multiply;}.cls-8{fill:#a2a1a1;}.cls-9{fill:#ebebeb;}.cls-10{fill:#c6c6c6;}.cls-12{fill:#8dc5ef;}.cls-13{fill:#d4d4d5;}.cls-14{fill:#e7e7e6;}.cls-15{opacity:0.66;}.cls-16,.cls-17{fill:#0096cb;}.cls-18{fill:#84b451;}.cls-19{fill:#a1c268;}.cls-20{fill:#fff;}.cls-20,.cls-25,.cls-26,.cls-27,.cls-28,.cls-29{opacity:0.35;mix-blend-mode:overlay;}.cls-22{fill:url(#Nepojmenovaný_přechod_23-2);}.cls-23{fill:url(#Nepojmenovaný_přechod_23-3);}.cls-24{fill:url(#Nepojmenovaný_přechod_23-4);}.cls-25{fill:url(#Nepojmenovaný_přechod_23-5);}.cls-26{fill:url(#Nepojmenovaný_přechod_23-6);}.cls-27{fill:url(#Nepojmenovaný_přechod_23-7);}.cls-28{fill:url(#Nepojmenovaný_přechod_23-8);}.cls-29{fill:url(#Nepojmenovaný_přechod_23-9);}</style><radialGradient id="Nepojmenovaný_přechod_23" cx="64" cy="58.18" r="50.6" gradientUnits="userSpaceOnUse"><stop offset="0" stop-color="#286992"/><stop offset="1" stop-color="#286992"/></radialGradient><radialGradient id="Nepojmenovaný_přechod_23-2" cx="97.75" cy="57.02" r="8.29" gradientTransform="translate(154.56 -40.84) rotate(89.88)" xlink:href="#Nepojmenovaný_přechod_23"/><radialGradient id="Nepojmenovaný_přechod_23-3" cx="99.1" cy="40.82" r="18.23" xlink:href="#Nepojmenovaný_přechod_23"/><radialGradient id="Nepojmenovaný_přechod_23-4" cx="92.1" cy="45.86" r="12.76" xlink:href="#Nepojmenovaný_přechod_23"/><radialGradient id="Nepojmenovaný_přechod_23-5" cx="103.98" cy="32.44" r="7.5" xlink:href="#Nepojmenovaný_přechod_23"/><radialGradient id="Nepojmenovaný_přechod_23-6" cx="106.02" cy="37.07" r="5.64" xlink:href="#Nepojmenovaný_přechod_23"/><radialGradient id="Nepojmenovaný_přechod_23-7" cx="85.55" cy="43.45" r="7.53" xlink:href="#Nepojmenovaný_přechod_23"/><radialGradient id="Nepojmenovaný_přechod_23-8" cx="96.04" cy="40.12" r="5.5" xlink:href="#Nepojmenovaný_přechod_23"/><radialGradient id="Nepojmenovaný_přechod_23-9" cx="91.25" cy="48.46" r="3.8" xlink:href="#Nepojmenovaný_přechod_23"/></defs><g class="cls-1"><g id="Vrstva_1" data-name="Vrstva 1"><g id="layer1"><path id="path10" class="cls-2" d="M0,58.28l64,32,64-32-64-32Z"/><path id="path837" class="cls-3" d="M0,90.28l64,32v-32l-64-32Z"/><path id="path839" class="cls-4" d="M64,122.28l64-32v-32l-64,32Z"/></g><polygon class="cls-5" points="84.23 58.19 63.58 69.18 43.28 79.59 22.12 69.22 43.09 58.05 22.8 47.02 43.52 36.65 63.74 47.05 84.23 58.19"/><polygon class="cls-6" points="128 58.2 64 90.2 0 58.2 64 26.16 128 58.2"/><path class="cls-7" d="M68.23,34.35a11.12,11.12,0,0,0-8.73-.07c-2.44,1.16-2.5,3.09-.12,4.29a11.16,11.16,0,0,0,8.73.08C70.55,37.48,70.61,35.56,68.23,34.35Z"/><path class="cls-8" d="M67.91,37.52a10.66,10.66,0,0,1-8.33-.07c-1.12-.57-1.67-1.3-1.67-2v.66c0,.73.55,1.46,1.67,2a10.66,10.66,0,0,0,8.33.07c1.19-.57,1.78-1.32,1.79-2.07v-.66C69.69,36.2,69.1,37,67.91,37.52Z"/><path class="cls-9" d="M68,33.42a10.61,10.61,0,0,0-8.33-.08c-2.34,1.12-2.39,2.95-.12,4.11a10.66,10.66,0,0,0,8.33.07C70.25,36.41,70.3,34.57,68,33.42Z"/><path class="cls-10" d="M66.78,31.6c0,.4-.26.8-.89,1.09a5.29,5.29,0,0,1-4.15,0c-.59-.3-.86-.69-.83-1.07l-1.14,3.75c-.05.53.33,1.06,1.14,1.47a7.22,7.22,0,0,0,5.71,0h0c.86-.41,1.27-1,1.22-1.5Z"/><path class="cls-9" d="M66.25,30.83l-.88-.62c.48.34.45.79-.09,1.11l-.14.07a3,3,0,0,1-1.41.25,2.87,2.87,0,0,1-1.21-.27c-.63-.32-.69-.82-.18-1.17l-.89.61c-.8.56-.71,1.34.29,1.85a4.8,4.8,0,0,0,1.92.44,5,5,0,0,0,2.23-.41l.22-.11C67,32.08,67,31.36,66.25,30.83Z"/><path class="cls-10" d="M65,21.13c0,.13-.1.26-.3.35a1.8,1.8,0,0,1-1.42,0c-.19-.1-.28-.22-.28-.35l-1,9.6c0,.23.17.47.53.65a3.36,3.36,0,0,0,2.62,0c.38-.18.57-.42.57-.67Z"/><path class="cls-11" d="M66,11.93a5.13,5.13,0,0,1-4,0,1.34,1.34,0,0,1-.8-.86L63,21.17a.47.47,0,0,0,.28.3,1.8,1.8,0,0,0,1.42,0,.46.46,0,0,0,.3-.3l1.87-10.12A1.35,1.35,0,0,1,66,11.93Z"/><path class="cls-12" d="M72.52,12.24v0h0s0-.07,0-.11l0-.12-.12-.26-.12-.24L72,11.22,71.89,11l-.16-.25-.16-.22c-.12-.16-.13-.17-.36-.45a5.92,5.92,0,0,0-.41-.44c1.43,1.42.92,3.18-1.51,4.34a12.34,12.34,0,0,1-5,1h-.79L63,15l-.32,0-.44,0-.32-.05-.43-.06-.31-.06-.42-.09-.29-.07-.42-.12-.26-.08-.44-.16-.21-.08a5.46,5.46,0,0,1-.6-.27C56.25,12.7,55.81,11,57.21,9.6l0,0h0l-.19.2-.19.2-.2.24-.16.22a2.15,2.15,0,0,0-.18.24l-.15.22c0,.08-.1.18-.15.25l-.13.23-.13.26-.11.24c0,.07-.07.18-.11.26l-.09.24a1.21,1.21,0,0,1,0,.18l0,.05v0l0,.11a6.67,6.67,0,0,0,1.88,6.69l.12.12.43.39a9.53,9.53,0,0,0,1.19.83l.49.27a9.93,9.93,0,0,0,5.26,1.06h0l.41,0,.41-.05L66,22l.43-.1.49-.12.45-.15.56-.21.48-.21.26-.13.1-.06.3-.16.48-.29.72-.54.23-.2.1-.09.11-.09.08-.09a7.3,7.3,0,0,0,.65-.71h0a8.61,8.61,0,0,0,.54-.76l.12-.21.24-.48.06-.13,0-.06c0-.06,0-.13.08-.2l.11-.29a7.6,7.6,0,0,0,.33-1.51l0-.61A6.34,6.34,0,0,0,72.52,12.24Z"/><path class="cls-13" d="M73.33,10.51,73.24,10c0-.09-.06-.21-.1-.32v0L73,9.21l-.22-.48h0a6.68,6.68,0,0,0-1.41-1.91l-.07-.06-.41-.36a9.27,9.27,0,0,0-1.08-.75l-.5-.27a10,10,0,0,0-1.63-.66H67.6l-.41-.12h-.06l-.09,0a2.34,2.34,0,0,0-.38-.09l-.06,0h-.07a12.74,12.74,0,0,0-3.85-.19H62.5l-.34,0h-.08l-.52.09-.51.11-.55.15L60,4.82c-.19.06-.43.16-.61.23a8,8,0,0,0-3.74,2.88V8a5.3,5.3,0,0,0-.54,1l-.2.49a6.6,6.6,0,0,0-.28,1.31l0,.53c0,1.17.88,2.34,2.66,3.24a17,17,0,0,0,13.3.11c1.89-.9,2.84-2.1,2.85-3.3C73.38,11.07,73.35,10.75,73.33,10.51ZM64.89,6.93a2.3,2.3,0,0,1-1.8,0c-.49-.25-.48-.65,0-.89a2.3,2.3,0,0,1,1.8,0C65.4,6.3,65.39,6.69,64.89,6.93Z"/><path class="cls-14" d="M65.25,5.27l0-.08,0-.13,0-.07,0-.07v0l0,0,0-.06-.11-.12-.07-.06-.15-.11-.07,0-.08,0h0l-.09,0h0A1.43,1.43,0,0,0,63,4.73l-.06.07,0,.06L62.8,5l0,.08a1.29,1.29,0,0,0-.05.21V6.48c0,.16.12.32.36.44a2.3,2.3,0,0,0,1.8,0c.25-.12.38-.28.38-.44V5.4S65.25,5.31,65.25,5.27Z"/><g class="cls-15"><path class="cls-16" d="M68.23,34.35a11.12,11.12,0,0,0-8.73-.07c-2.44,1.16-2.5,3.09-.12,4.29a11.16,11.16,0,0,0,8.73.08C70.55,37.48,70.61,35.56,68.23,34.35Z"/><path class="cls-17" d="M67.91,37.52a10.66,10.66,0,0,1-8.33-.07c-1.12-.57-1.67-1.3-1.67-2v.66c0,.73.55,1.46,1.67,2a10.66,10.66,0,0,0,8.33.07c1.19-.57,1.78-1.32,1.79-2.07v-.66C69.69,36.2,69.1,37,67.91,37.52Z"/><path class="cls-17" d="M68,33.42a10.61,10.61,0,0,0-8.33-.08c-2.34,1.12-2.39,2.95-.12,4.11a10.66,10.66,0,0,0,8.33.07C70.25,36.41,70.3,34.57,68,33.42Z"/><path class="cls-17" d="M66.78,31.6c0,.4-.26.8-.89,1.09a5.29,5.29,0,0,1-4.15,0c-.59-.3-.86-.69-.83-1.07l-1.14,3.75c-.05.53.33,1.06,1.14,1.47a7.22,7.22,0,0,0,5.71,0h0c.86-.41,1.27-1,1.22-1.5Z"/><path class="cls-17" d="M66.25,30.83l-.88-.62c.48.34.45.79-.09,1.11l-.14.07a3,3,0,0,1-1.41.25,2.87,2.87,0,0,1-1.21-.27c-.63-.32-.69-.82-.18-1.17l-.89.61c-.8.56-.71,1.34.29,1.85a4.8,4.8,0,0,0,1.92.44,5,5,0,0,0,2.23-.41l.22-.11C67,32.08,67,31.36,66.25,30.83Z"/><path class="cls-17" d="M65,21.13c0,.13-.1.26-.3.35a1.8,1.8,0,0,1-1.42,0c-.19-.1-.28-.22-.28-.35l-1,9.6c0,.23.17.47.53.65a3.36,3.36,0,0,0,2.62,0c.38-.18.57-.42.57-.67Z"/><path class="cls-17" d="M66,11.93a5.13,5.13,0,0,1-4,0,1.34,1.34,0,0,1-.8-.86L63,21.17a.47.47,0,0,0,.28.3,1.8,1.8,0,0,0,1.42,0,.46.46,0,0,0,.3-.3l1.87-10.12A1.35,1.35,0,0,1,66,11.93Z"/><path class="cls-17" d="M72.52,12.24v0h0s0-.07,0-.11l0-.12-.12-.26-.12-.24L72,11.22,71.89,11l-.16-.25-.16-.22c-.12-.16-.13-.17-.36-.45a5.92,5.92,0,0,0-.41-.44c1.43,1.42.92,3.18-1.51,4.34a12.34,12.34,0,0,1-5,1h-.79L63,15l-.32,0-.44,0-.32-.05-.43-.06-.31-.06-.42-.09-.29-.07-.42-.12-.26-.08-.44-.16-.21-.08a5.46,5.46,0,0,1-.6-.27C56.25,12.7,55.81,11,57.21,9.6l0,0h0l-.19.2-.19.2-.2.24-.16.22a2.15,2.15,0,0,0-.18.24l-.15.22c0,.08-.1.18-.15.25l-.13.23-.13.26-.11.24c0,.07-.07.18-.11.26l-.09.24a1.21,1.21,0,0,1,0,.18l0,.05v0l0,.11a6.67,6.67,0,0,0,1.88,6.69l.12.12.43.39a9.53,9.53,0,0,0,1.19.83l.49.27a9.93,9.93,0,0,0,5.26,1.06h0l.41,0,.41-.05L66,22l.43-.1.49-.12.45-.15.56-.21.48-.21.26-.13.1-.06.3-.16.48-.29.72-.54.23-.2.1-.09.11-.09.08-.09a7.3,7.3,0,0,0,.65-.71h0a8.61,8.61,0,0,0,.54-.76l.12-.21.24-.48.06-.13,0-.06c0-.06,0-.13.08-.2l.11-.29a7.6,7.6,0,0,0,.33-1.51l0-.61A6.34,6.34,0,0,0,72.52,12.24Z"/><path class="cls-17" d="M73.33,10.51,73.24,10c0-.09-.06-.21-.1-.32v0L73,9.21l-.22-.48h0a6.68,6.68,0,0,0-1.41-1.91l-.07-.06-.41-.36a9.27,9.27,0,0,0-1.08-.75l-.5-.27a10,10,0,0,0-1.63-.66H67.6l-.41-.12h-.06l-.09,0a2.34,2.34,0,0,0-.38-.09l-.06,0h-.07a12.74,12.74,0,0,0-3.85-.19H62.5l-.34,0h-.08l-.52.09-.51.11-.55.15L60,4.82c-.19.06-.43.16-.61.23a8,8,0,0,0-3.74,2.88V8a5.3,5.3,0,0,0-.54,1l-.2.49a6.6,6.6,0,0,0-.28,1.31l0,.53c0,1.17.88,2.34,2.66,3.24a17,17,0,0,0,13.3.11c1.89-.9,2.84-2.1,2.85-3.3C73.38,11.07,73.35,10.75,73.33,10.51ZM64.89,6.93a2.3,2.3,0,0,1-1.8,0c-.49-.25-.48-.65,0-.89a2.3,2.3,0,0,1,1.8,0C65.4,6.3,65.39,6.69,64.89,6.93Z"/><path class="cls-17" d="M65.25,5.27l0-.08,0-.13,0-.07,0-.07v0l0,0,0-.06-.11-.12-.07-.06-.15-.11-.07,0-.08,0h0l-.09,0h0A1.43,1.43,0,0,0,63,4.73l-.06.07,0,.06L62.8,5l0,.08a1.29,1.29,0,0,0-.05.21V6.48c0,.16.12.32.36.44a2.3,2.3,0,0,0,1.8,0c.25-.12.38-.28.38-.44V5.4S65.25,5.31,65.25,5.27Z"/></g><ellipse class="cls-7" cx="97.75" cy="57.02" rx="5.18" ry="10.52" transform="translate(40.52 154.65) rotate(-89.88)"/><path class="cls-18" d="M100.88,58.78s10-13,12.48-24.1a39.53,39.53,0,0,0-5.16,5.53,66.16,66.16,0,0,0,.35-18.79C98.94,31.7,97,44.72,96.74,51.93c-.24-5.16-1-12.76-3.15-17.14-2,6.63-.81,13.67.29,17.78C92,47.17,87.91,37,82.15,32c-.52,7,4,26.64,13.66,28.19h5.33s14-7.08,15-8.73C109.59,49.05,100.88,58.78,100.88,58.78Z"/><path class="cls-19" d="M97.06,52.18c1.44-6.33,2.41-15.25.89-20.67-3.15,5.24-4.08,12.1-4.24,17.56-.62-3.18-1.59-6.2-3.07-6.92C88.88,50,92.29,57.48,92.29,57.48a35,35,0,0,0-11.11-7.79A30.59,30.59,0,0,0,93.84,60.22h2.53c1.38-2.26,5.44-9.17,6.65-14.1A26.23,26.23,0,0,0,97.06,52.18Z"/><path class="cls-20" d="M99.55,42.08s2-13.81,8.87-19.28A74.93,74.93,0,0,1,99.55,42.08Z"/><path class="cls-20" d="M107.63,29.27a52.14,52.14,0,0,0-3.22,15.61C107.24,39.67,107.63,29.27,107.63,29.27Z"/><path class="cls-20" d="M82.28,33.31S83.17,46,88.82,53.6C86.41,39.9,82.28,33.31,82.28,33.31Z"/><path class="cls-20" d="M97.66,32.51a32.52,32.52,0,0,0-3.19,15.21C95.36,43.54,97.66,32.51,97.66,32.51Z"/><path class="cls-20" d="M90.91,43.14s-1.67,6,1.15,10.63A41.55,41.55,0,0,0,90.91,43.14Z"/><g class="cls-21"><ellipse class="cls-22" cx="97.75" cy="57.02" rx="5.18" ry="10.52" transform="translate(40.52 154.65) rotate(-89.88)"/><path class="cls-23" d="M100.88,58.78s10-13,12.48-24.1a39.53,39.53,0,0,0-5.16,5.53,66.16,66.16,0,0,0,.35-18.79C98.94,31.7,97,44.72,96.74,51.93c-.24-5.16-1-12.76-3.15-17.14-2,6.63-.81,13.67.29,17.78C92,47.17,87.91,37,82.15,32c-.52,7,4,26.64,13.66,28.19h5.33s14-7.08,15-8.73C109.59,49.05,100.88,58.78,100.88,58.78Z"/><path class="cls-24" d="M97.06,52.18c1.44-6.33,2.41-15.25.89-20.67-3.15,5.24-4.08,12.1-4.24,17.56-.62-3.18-1.59-6.2-3.07-6.92C88.88,50,92.29,57.48,92.29,57.48a35,35,0,0,0-11.11-7.79A30.59,30.59,0,0,0,93.84,60.22h2.53c1.38-2.26,5.44-9.17,6.65-14.1A26.23,26.23,0,0,0,97.06,52.18Z"/><path class="cls-25" d="M99.55,42.08s2-13.81,8.87-19.28A74.93,74.93,0,0,1,99.55,42.08Z"/><path class="cls-26" d="M107.63,29.27a52.14,52.14,0,0,0-3.22,15.61C107.24,39.67,107.63,29.27,107.63,29.27Z"/><path class="cls-27" d="M82.28,33.31S83.17,46,88.82,53.6C86.41,39.9,82.28,33.31,82.28,33.31Z"/><path class="cls-28" d="M97.66,32.51a32.52,32.52,0,0,0-3.19,15.21C95.36,43.54,97.66,32.51,97.66,32.51Z"/><path class="cls-29" d="M90.91,43.14s-1.67,6,1.15,10.63A41.55,41.55,0,0,0,90.91,43.14Z"/></g></g></g></svg>