<svg xmlns="http://www.w3.org/2000/svg" xmlns:xlink="http://www.w3.org/1999/xlink" viewBox="0 0 128 123.44" width="128" height="123.44">
    <defs>
        <radialGradient id="Nepojmenovaný_přechod_23" cx="64" cy="59.44" r="50.6" gradientUnits="userSpaceOnUse">
            <stop offset="0" stop-color="#286992"/>
            <stop offset="1" stop-color="#286992"/>
        </radialGradient>
        <radialGradient id="Nepojmenovaný_přechod_23-2" cx="106.33" cy="58.54" r="8.29" gradientTransform="translate(164.65 -47.92) rotate(89.88)" xlink:href="#Nepojmenovaný_přechod_23"/>
        <radialGradient id="Nepojmenovaný_přechod_23-3" cx="107.69" cy="42.33" r="18.23" xlink:href="#Nepojmenovaný_přechod_23"/>
        <radialGradient id="Nepojmenovaný_přechod_23-4" cx="100.69" cy="47.38" r="12.76" xlink:href="#Nepojmenovaný_přechod_23"/>
        <radialGradient id="Nepojmenovaný_přechod_23-5" cx="112.57" cy="33.95" r="7.5" xlink:href="#Nepojmenovaný_přechod_23"/>
        <radialGradient id="Nepojmenovaný_přechod_23-6" cx="114.61" cy="38.59" r="5.64" xlink:href="#Nepojmenovaný_přechod_23"/>
        <radialGradient id="Nepojmenovaný_přechod_23-7" cx="94.14" cy="44.97" r="7.53" xlink:href="#Nepojmenovaný_přechod_23"/>
        <radialGradient id="Nepojmenovaný_přechod_23-8" cx="104.63" cy="41.63" r="5.5" xlink:href="#Nepojmenovaný_přechod_23"/>
        <radialGradient id="Nepojmenovaný_přechod_23-9" cx="99.84" cy="49.97" r="3.8" xlink:href="#Nepojmenovaný_přechod_23"/>
        <style>
            .cls-7{fill:#b5b5b5;mix-blend-mode:multiply}.cls-9{fill:#ebebeb}.cls-10{fill:#c6c6c6}.cls-17{fill:#0096cb}.cls-20{fill:#fff;opacity:.35;mix-blend-mode:overlay}
        </style>
    </defs>
    <g style="isolation:isolate">
        <g id="Vrstva_1" data-name="Vrstva 1">
            <g id="layer1">
                <path id="path10" d="M0,59.44l64,32,64-32-64-32Z" style="fill:#a2c037"/>
                <path id="path837" d="M0,91.44l64,32v-32l-64-32Z" style="fill:#b5b295"/>
                <path id="path839" d="M64,123.44l64-32v-32l-64,32Z" style="fill:#d6d3ad"/>
            </g>
            <polygon points="22.8 48.27 43.52 37.9 63.74 48.3 84.05 37.9 105.2 48.27 63.78 71.36 22.8 48.27" style="fill:#f7e080;mix-blend-mode:color"/>
            <polygon points="128 59.47 64 91.47 0 59.47 64 27.42 128 59.47" style="fill:url(#Nepojmenovaný_přechod_23);mix-blend-mode:hard-light"/>
            <path class="cls-7" d="M68.23,35.61a11.16,11.16,0,0,0-8.73-.07c-2.44,1.17-2.5,3.09-.12,4.3a11.16,11.16,0,0,0,8.73.07C70.55,38.75,70.61,36.82,68.23,35.61Z"/>
            <path d="M67.91,38.78a10.61,10.61,0,0,1-8.33-.07c-1.12-.57-1.67-1.3-1.67-2v.66c0,.73.55,1.46,1.67,2a10.61,10.61,0,0,0,8.33.07c1.19-.56,1.78-1.32,1.79-2.07v-.66C69.69,37.46,69.1,38.22,67.91,38.78Z" style="fill:#a2a1a1"/>
            <path class="cls-9" d="M68,34.68a10.66,10.66,0,0,0-8.33-.07c-2.34,1.11-2.39,3-.12,4.1a10.61,10.61,0,0,0,8.33.07C70.25,37.67,70.3,35.83,68,34.68Z"/>
            <path class="cls-10" d="M66.78,32.86c0,.4-.26.8-.89,1.1a5.29,5.29,0,0,1-4.15,0c-.59-.3-.86-.69-.83-1.07L59.77,36.6c-.05.53.33,1.07,1.14,1.48a7.3,7.3,0,0,0,5.71.05h0c.86-.41,1.27-1,1.22-1.51Z"/>
            <path class="cls-9" d="M66.25,32.09l-.88-.62c.48.34.45.79-.09,1.11l-.14.07a3.17,3.17,0,0,1-1.41.26,3,3,0,0,1-1.21-.28c-.63-.32-.69-.81-.18-1.16l-.89.61c-.8.55-.71,1.33.29,1.84a4.64,4.64,0,0,0,1.92.44,5,5,0,0,0,2.23-.4l.22-.12C67,33.34,67,32.62,66.25,32.09Z"/>
            <path class="cls-10" d="M65,22.39c0,.13-.1.26-.3.36a1.84,1.84,0,0,1-1.42,0,.44.44,0,0,1-.28-.36L62,32c0,.23.17.47.53.65a3.36,3.36,0,0,0,2.62,0c.38-.18.57-.42.57-.66Z"/>
            <path d="M66,13.2a5.17,5.17,0,0,1-4,0,1.32,1.32,0,0,1-.8-.85L63,22.44a.52.52,0,0,0,.28.3,1.84,1.84,0,0,0,1.42,0c.18-.09.28-.2.3-.31l1.87-10.12A1.38,1.38,0,0,1,66,13.2Z" style="fill:#b5b5b5"/>
            <path d="M72.52,13.5v0h0s0-.08,0-.11l0-.13L72.29,13l-.12-.23L72,12.48l-.14-.23L71.73,12l-.16-.22a5.81,5.81,0,0,0-.36-.46c-.12-.14-.17-.19-.41-.44,1.43,1.42.92,3.19-1.51,4.35a12.5,12.5,0,0,1-5,1h-.79l-.45,0-.32,0-.44,0-.32,0-.43-.07L61.2,16l-.42-.09-.29-.07-.42-.12-.26-.08c-.15,0-.29-.1-.44-.15l-.21-.08c-.21-.09-.41-.18-.6-.28-2.31-1.17-2.75-2.9-1.35-4.28l0,0h0l-.19.19-.19.21-.2.23-.16.22-.18.24-.15.23-.15.24-.13.24L55.7,13l-.11.24c0,.08-.07.18-.11.26l-.09.25a1.54,1.54,0,0,1,0,.17l0,.05v0l0,.12a6.65,6.65,0,0,0,1.88,6.68l.12.12.43.4a9.53,9.53,0,0,0,1.19.83l.49.27a10,10,0,0,0,5.26,1.05h0l.41,0,.41-.06.44-.07.43-.09.49-.13.45-.14.56-.22.48-.21.26-.13.1-.06.3-.16.48-.29c.22-.15.51-.37.72-.54l.23-.2.1-.09.11-.09.08-.09a6.29,6.29,0,0,0,.65-.71h0a8.61,8.61,0,0,0,.54-.76l.12-.21q.12-.23.24-.48l.06-.12,0-.06a1.8,1.8,0,0,1,.08-.21l.11-.29a7.6,7.6,0,0,0,.33-1.51l0-.61A6.34,6.34,0,0,0,72.52,13.5Z" style="fill:#8dc5ef"/>
            <path d="M73.33,11.77l-.09-.51c0-.1-.06-.21-.1-.32v0L73,10.47,72.78,10h0a6.49,6.49,0,0,0-1.41-1.9L71.3,8l-.41-.36a9.36,9.36,0,0,0-1.08-.74l-.5-.27A9.21,9.21,0,0,0,67.68,6l0,0h0l-.41-.11-.06,0-.09,0-.38-.09H66.6l-.07,0a13.07,13.07,0,0,0-3.85-.19H62.5l-.34.05h-.08l-.52.09-.51.1-.55.15L60,6.08c-.19.06-.43.16-.61.23A8.08,8.08,0,0,0,55.64,9.2v0a5.47,5.47,0,0,0-.54,1l-.2.49A6.31,6.31,0,0,0,54.61,12l0,.53c0,1.16.88,2.33,2.66,3.23a17,17,0,0,0,13.3.12c1.89-.91,2.84-2.11,2.85-3.31C73.38,12.33,73.35,12,73.33,11.77ZM64.89,8.2a2.3,2.3,0,0,1-1.8,0c-.49-.25-.48-.64,0-.88a2.3,2.3,0,0,1,1.8,0C65.4,7.56,65.39,8,64.89,8.2Z" style="fill:#d4d4d5"/>
            <path d="M65.25,6.54l0-.09,0-.12,0-.08a.43.43,0,0,1,0-.07v0l0,0,0-.07-.11-.12-.07-.05-.15-.11-.07,0-.08,0h0l-.09,0h0A1.41,1.41,0,0,0,63,6l-.06.06,0,.07-.08.15,0,.08a1.19,1.19,0,0,0-.05.22V7.74c0,.16.12.32.36.44a2.3,2.3,0,0,0,1.8,0c.25-.13.38-.29.38-.45V6.67S65.25,6.58,65.25,6.54Z" style="fill:#e7e7e6"/>
            <g style="opacity:.66;mix-blend-mode:multiply">
                <path d="M68.23,35.61a11.16,11.16,0,0,0-8.73-.07c-2.44,1.17-2.5,3.09-.12,4.3a11.16,11.16,0,0,0,8.73.07C70.55,38.75,70.61,36.82,68.23,35.61Z" style="fill:#0096cb;mix-blend-mode:multiply"/>
                <path class="cls-17" d="M67.91,38.78a10.61,10.61,0,0,1-8.33-.07c-1.12-.57-1.67-1.3-1.67-2v.66c0,.73.55,1.46,1.67,2a10.61,10.61,0,0,0,8.33.07c1.19-.56,1.78-1.32,1.79-2.07v-.66C69.69,37.46,69.1,38.22,67.91,38.78Z"/>
                <path class="cls-17" d="M68,34.68a10.66,10.66,0,0,0-8.33-.07c-2.34,1.11-2.39,3-.12,4.1a10.61,10.61,0,0,0,8.33.07C70.25,37.67,70.3,35.83,68,34.68Z"/>
                <path class="cls-17" d="M66.78,32.86c0,.4-.26.8-.89,1.1a5.29,5.29,0,0,1-4.15,0c-.59-.3-.86-.69-.83-1.07L59.77,36.6c-.05.53.33,1.07,1.14,1.48a7.3,7.3,0,0,0,5.71.05h0c.86-.41,1.27-1,1.22-1.51Z"/>
                <path class="cls-17" d="M66.25,32.09l-.88-.62c.48.34.45.79-.09,1.11l-.14.07a3.17,3.17,0,0,1-1.41.26,3,3,0,0,1-1.21-.28c-.63-.32-.69-.81-.18-1.16l-.89.61c-.8.55-.71,1.33.29,1.84a4.64,4.64,0,0,0,1.92.44,5,5,0,0,0,2.23-.4l.22-.12C67,33.34,67,32.62,66.25,32.09Z"/>
                <path class="cls-17" d="M65,22.39c0,.13-.1.26-.3.36a1.84,1.84,0,0,1-1.42,0,.44.44,0,0,1-.28-.36L62,32c0,.23.17.47.53.65a3.36,3.36,0,0,0,2.62,0c.38-.18.57-.42.57-.66Z"/>
                <path class="cls-17" d="M66,13.2a5.17,5.17,0,0,1-4,0,1.32,1.32,0,0,1-.8-.85L63,22.44a.52.52,0,0,0,.28.3,1.84,1.84,0,0,0,1.42,0c.18-.09.28-.2.3-.31l1.87-10.12A1.38,1.38,0,0,1,66,13.2Z"/>
                <path class="cls-17" d="M72.52,13.5v0h0s0-.08,0-.11l0-.13L72.29,13l-.12-.23L72,12.48l-.14-.23L71.73,12l-.16-.22a5.81,5.81,0,0,0-.36-.46c-.12-.14-.17-.19-.41-.44,1.43,1.42.92,3.19-1.51,4.35a12.5,12.5,0,0,1-5,1h-.79l-.45,0-.32,0-.44,0-.32,0-.43-.07L61.2,16l-.42-.09-.29-.07-.42-.12-.26-.08c-.15,0-.29-.1-.44-.15l-.21-.08c-.21-.09-.41-.18-.6-.28-2.31-1.17-2.75-2.9-1.35-4.28l0,0h0l-.19.19-.19.21-.2.23-.16.22-.18.24-.15.23-.15.24-.13.24L55.7,13l-.11.24c0,.08-.07.18-.11.26l-.09.25a1.54,1.54,0,0,1,0,.17l0,.05v0l0,.12a6.65,6.65,0,0,0,1.88,6.68l.12.12.43.4a9.53,9.53,0,0,0,1.19.83l.49.27a10,10,0,0,0,5.26,1.05h0l.41,0,.41-.06.44-.07.43-.09.49-.13.45-.14.56-.22.48-.21.26-.13.1-.06.3-.16.48-.29c.22-.15.51-.37.72-.54l.23-.2.1-.09.11-.09.08-.09a6.29,6.29,0,0,0,.65-.71h0a8.61,8.61,0,0,0,.54-.76l.12-.21q.12-.23.24-.48l.06-.12,0-.06a1.8,1.8,0,0,1,.08-.21l.11-.29a7.6,7.6,0,0,0,.33-1.51l0-.61A6.34,6.34,0,0,0,72.52,13.5Z"/>
                <path class="cls-17" d="M73.33,11.77l-.09-.51c0-.1-.06-.21-.1-.32v0L73,10.47,72.78,10h0a6.49,6.49,0,0,0-1.41-1.9L71.3,8l-.41-.36a9.36,9.36,0,0,0-1.08-.74l-.5-.27A9.21,9.21,0,0,0,67.68,6l0,0h0l-.41-.11-.06,0-.09,0-.38-.09H66.6l-.07,0a13.07,13.07,0,0,0-3.85-.19H62.5l-.34.05h-.08l-.52.09-.51.1-.55.15L60,6.08c-.19.06-.43.16-.61.23A8.08,8.08,0,0,0,55.64,9.2v0a5.47,5.47,0,0,0-.54,1l-.2.49A6.31,6.31,0,0,0,54.61,12l0,.53c0,1.16.88,2.33,2.66,3.23a17,17,0,0,0,13.3.12c1.89-.91,2.84-2.11,2.85-3.31C73.38,12.33,73.35,12,73.33,11.77ZM64.89,8.2a2.3,2.3,0,0,1-1.8,0c-.49-.25-.48-.64,0-.88a2.3,2.3,0,0,1,1.8,0C65.4,7.56,65.39,8,64.89,8.2Z"/>
                <path class="cls-17" d="M65.25,6.54l0-.09,0-.12,0-.08a.43.43,0,0,1,0-.07v0l0,0,0-.07-.11-.12-.07-.05-.15-.11-.07,0-.08,0h0l-.09,0h0A1.41,1.41,0,0,0,63,6l-.06.06,0,.07-.08.15,0,.08a1.19,1.19,0,0,0-.05.22V7.74c0,.16.12.32.36.44a2.3,2.3,0,0,0,1.8,0c.25-.13.38-.29.38-.45V6.67S65.25,6.58,65.25,6.54Z"/>
            </g>
            <ellipse class="cls-7" cx="106.33" cy="58.54" rx="5.18" ry="10.52" transform="translate(47.57 164.75) rotate(-89.88)"/>
            <path d="M109.47,60.3s10-13,12.48-24.1a38.91,38.91,0,0,0-5.16,5.52,66.1,66.1,0,0,0,.35-18.78c-9.61,10.28-11.55,23.3-11.82,30.5-.24-5.15-1-12.75-3.14-17.13-2,6.62-.81,13.66.29,17.77-1.87-5.4-6-15.56-11.73-20.53-.52,7,4,26.64,13.65,28.18h5.34s14-7.07,15-8.73C118.18,50.57,109.47,60.3,109.47,60.3Z" style="fill:#84b451"/>
            <path d="M105.64,53.69c1.45-6.32,2.42-15.24.9-20.67-3.15,5.24-4.08,12.1-4.24,17.57-.62-3.19-1.59-6.21-3.08-6.93C97.47,51.54,100.88,59,100.88,59a35.12,35.12,0,0,0-11.12-7.8,30.58,30.58,0,0,0,12.67,10.53H105c1.39-2.25,5.45-9.16,6.66-14.09A26.71,26.71,0,0,0,105.64,53.69Z" style="fill:#a1c268"/>
            <path class="cls-20" d="M108.13,43.59s2-13.81,8.87-19.28A74.32,74.32,0,0,1,108.13,43.59Z"/>
            <path class="cls-20" d="M116.22,30.78A51.88,51.88,0,0,0,113,46.39C115.83,41.19,116.22,30.78,116.22,30.78Z"/>
            <path class="cls-20" d="M90.87,34.83s.89,12.72,6.54,20.28C95,41.41,90.87,34.83,90.87,34.83Z"/>
            <path class="cls-20" d="M106.25,34a32.47,32.47,0,0,0-3.19,15.21C104,45.06,106.25,34,106.25,34Z"/>
            <path class="cls-20" d="M99.5,44.66s-1.67,6,1.15,10.63A41.46,41.46,0,0,0,99.5,44.66Z"/>
            <g style="mix-blend-mode:hard-light">
                <ellipse cx="106.33" cy="58.54" rx="5.18" ry="10.52" transform="translate(47.57 164.75) rotate(-89.88)" style="fill:url(#Nepojmenovaný_přechod_23-2);mix-blend-mode:multiply"/>
                <path d="M109.47,60.3s10-13,12.48-24.1a38.91,38.91,0,0,0-5.16,5.52,66.1,66.1,0,0,0,.35-18.78c-9.61,10.28-11.55,23.3-11.82,30.5-.24-5.15-1-12.75-3.14-17.13-2,6.62-.81,13.66.29,17.77-1.87-5.4-6-15.56-11.73-20.53-.52,7,4,26.64,13.65,28.18h5.34s14-7.07,15-8.73C118.18,50.57,109.47,60.3,109.47,60.3Z" style="fill:url(#Nepojmenovaný_přechod_23-3)"/>
                <path d="M105.64,53.69c1.45-6.32,2.42-15.24.9-20.67-3.15,5.24-4.08,12.1-4.24,17.57-.62-3.19-1.59-6.21-3.08-6.93C97.47,51.54,100.88,59,100.88,59a35.12,35.12,0,0,0-11.12-7.8,30.58,30.58,0,0,0,12.67,10.53H105c1.39-2.25,5.45-9.16,6.66-14.09A26.71,26.71,0,0,0,105.64,53.69Z" style="fill:url(#Nepojmenovaný_přechod_23-4)"/>
                <path d="M108.13,43.59s2-13.81,8.87-19.28A74.32,74.32,0,0,1,108.13,43.59Z" style="fill:url(#Nepojmenovaný_přechod_23-5);opacity:.35;mix-blend-mode:overlay"/>
                <path d="M116.22,30.78A51.88,51.88,0,0,0,113,46.39C115.83,41.19,116.22,30.78,116.22,30.78Z" style="fill:url(#Nepojmenovaný_přechod_23-6);opacity:.35;mix-blend-mode:overlay"/>
                <path d="M90.87,34.83s.89,12.72,6.54,20.28C95,41.41,90.87,34.83,90.87,34.83Z" style="fill:url(#Nepojmenovaný_přechod_23-7);opacity:.35;mix-blend-mode:overlay"/>
                <path d="M106.25,34a32.47,32.47,0,0,0-3.19,15.21C104,45.06,106.25,34,106.25,34Z" style="fill:url(#Nepojmenovaný_přechod_23-8);opacity:.35;mix-blend-mode:overlay"/>
                <path d="M99.5,44.66s-1.67,6,1.15,10.63A41.46,41.46,0,0,0,99.5,44.66Z" style="fill:url(#Nepojmenovaný_přechod_23-9);opacity:.35;mix-blend-mode:overlay"/>
            </g>
        </g>
    </g>
</svg>
