<svg xmlns="http://www.w3.org/2000/svg" xmlns:xlink="http://www.w3.org/1999/xlink" viewBox="0 0 128 121.4" width="128" height="121.4">
    <defs>
        <radialGradient id="Nepojmenovaný_přechod_23" cx="64" cy="57.3" r="50.6" gradientUnits="userSpaceOnUse">
            <stop offset="0" stop-color="#286992"/>
            <stop offset="1" stop-color="#286992"/>
        </radialGradient>
        <style>
            .cls-5{fill:#f7e080;mix-blend-mode:color}.cls-9{fill:#ebebeb}.cls-10{fill:#c6c6c6}.cls-17{fill:#0096cb}
        </style>
    </defs>
    <g style="isolation:isolate">
        <g id="Vrstva_1" data-name="Vrstva 1">
            <g id="layer1">
                <path id="path10" d="M0,57.4l64,32,64-32-64-32Z" style="fill:#a2c037"/>
                <path id="path837" d="M0,89.4l64,32v-32L0,57.4Z" style="fill:#b5b295"/>
                <path id="path839" d="M64,121.4l64-32v-32l-64,32Z" style="fill:#d6d3ad"/>
            </g>
            <polygon class="cls-5" points="22.8 45.99 43.52 35.62 63.74 46.03 84.05 35.62 105.2 45.99 63.58 68.15 22.8 45.99"/>
            <polygon class="cls-5" points="105.2 68.8 84.48 79.17 63.68 68.77 43.38 78.94 22.23 68.57 63.84 46.64 105.2 68.8"/>
            <polygon points="128 57.32 64 89.32 0 57.32 64 25.27 128 57.32" style="mix-blend-mode:hard-light;fill:url(#Nepojmenovaný_přechod_23)"/>
            <path d="M68.23,33.47a11.12,11.12,0,0,0-8.73-.08c-2.44,1.17-2.5,3.09-.12,4.3a11.12,11.12,0,0,0,8.73.07C70.55,36.6,70.61,34.67,68.23,33.47Z" style="mix-blend-mode:multiply;fill:#b5b5b5"/>
            <path d="M67.91,36.63a10.57,10.57,0,0,1-8.33-.07c-1.12-.56-1.67-1.3-1.67-2v.66c0,.73.55,1.47,1.67,2a10.57,10.57,0,0,0,8.33.07c1.19-.56,1.78-1.31,1.79-2.07v-.66C69.69,35.32,69.1,36.07,67.91,36.63Z" style="fill:#a2a1a1"/>
            <path class="cls-9" d="M68,32.53a10.66,10.66,0,0,0-8.33-.07c-2.34,1.11-2.39,2.95-.12,4.1a10.57,10.57,0,0,0,8.33.07C70.25,35.52,70.3,33.68,68,32.53Z"/>
            <path class="cls-10" d="M66.78,30.71c0,.4-.26.8-.89,1.1a5.29,5.29,0,0,1-4.15,0c-.59-.29-.86-.68-.83-1.07l-1.14,3.75c-.05.53.33,1.07,1.14,1.48a7.3,7.3,0,0,0,5.71,0h0c.86-.41,1.27-1,1.22-1.51Z"/>
            <path class="cls-9" d="M66.25,29.94l-.88-.61c.48.33.45.79-.09,1.1l-.14.08a3.17,3.17,0,0,1-1.41.25,2.87,2.87,0,0,1-1.21-.28c-.63-.32-.69-.81-.18-1.16l-.89.61c-.8.56-.71,1.33.29,1.84a4.64,4.64,0,0,0,1.92.44,5,5,0,0,0,2.23-.4l.22-.12C67,31.19,67,30.47,66.25,29.94Z"/>
            <path class="cls-10" d="M65,20.24c0,.13-.1.26-.3.36a1.84,1.84,0,0,1-1.42,0c-.19-.1-.28-.23-.28-.35l-1,9.59c0,.24.17.47.53.65a3.31,3.31,0,0,0,2.62,0c.38-.19.57-.43.57-.67Z"/>
            <path d="M66,11.05a5.13,5.13,0,0,1-4,0,1.32,1.32,0,0,1-.8-.85L63,20.29c0,.11.12.21.28.3a1.84,1.84,0,0,0,1.42,0,.45.45,0,0,0,.3-.31l1.87-10.12A1.36,1.36,0,0,1,66,11.05Z" style="fill:#b5b5b5"/>
            <path d="M72.52,11.35v0h0s0-.07,0-.11l0-.13-.12-.26-.12-.23L72,10.33l-.14-.22a2.13,2.13,0,0,0-.16-.25l-.16-.22a5.81,5.81,0,0,0-.36-.46c-.12-.13-.17-.19-.41-.43,1.43,1.42.92,3.18-1.51,4.34a12.5,12.5,0,0,1-5,1h-.79l-.45,0-.32,0-.44,0-.32,0-.43-.07-.31-.05-.42-.1-.29-.07-.42-.11-.26-.08-.44-.16-.21-.08-.6-.27c-2.31-1.18-2.75-2.91-1.35-4.29l0,0h0L57,8.94l-.19.21-.2.23-.16.22-.18.24-.15.23c0,.07-.1.17-.15.25l-.13.23-.13.25-.11.24a2,2,0,0,1-.11.26l-.09.25a1.54,1.54,0,0,1,0,.17l0,0v.05l0,.11a6.67,6.67,0,0,0,1.88,6.69l.12.12.43.39A9.53,9.53,0,0,0,58.9,20l.49.27a10,10,0,0,0,5.26,1.06h0l.41,0,.41-.05.44-.08.43-.09.49-.13.45-.14.56-.21.48-.22.26-.13.1-.05L69,20l.48-.3c.22-.15.51-.37.72-.53l.23-.21.1-.09.11-.09.08-.09A5.54,5.54,0,0,0,71.4,18h0A8.61,8.61,0,0,0,72,17.2l.12-.21q.12-.22.24-.48l.06-.12,0-.06a1.8,1.8,0,0,1,.08-.21l.11-.29a7.6,7.6,0,0,0,.33-1.51l0-.61A6.34,6.34,0,0,0,72.52,11.35Z" style="fill:#8dc5ef"/>
            <path d="M73.33,9.62l-.09-.51c0-.1-.06-.21-.1-.32v0L73,8.33l-.22-.49h0a6.49,6.49,0,0,0-1.41-1.9l-.07-.07-.41-.36a9.36,9.36,0,0,0-1.08-.74l-.5-.27a9.21,9.21,0,0,0-1.63-.66l0,0h0l-.41-.11-.06,0-.09,0-.38-.09h-.13a12.43,12.43,0,0,0-3.85-.19H62.5l-.34,0h-.08l-.52.09-.51.11-.55.14L60,3.93l-.61.23a8.08,8.08,0,0,0-3.74,2.89v0a5.47,5.47,0,0,0-.54,1l-.2.49a6.31,6.31,0,0,0-.28,1.31l0,.53c0,1.16.88,2.33,2.66,3.24a17,17,0,0,0,13.3.11c1.89-.9,2.84-2.1,2.85-3.31C73.38,10.18,73.35,9.86,73.33,9.62ZM64.89,6.05a2.3,2.3,0,0,1-1.8,0c-.49-.25-.48-.64,0-.88a2.34,2.34,0,0,1,1.8,0C65.4,5.41,65.39,5.81,64.89,6.05Z" style="fill:#d4d4d5"/>
            <path d="M65.25,4.39l0-.08,0-.13,0-.08a.43.43,0,0,1,0-.07V4l0,0,0-.07-.11-.12-.07,0-.15-.11-.07,0-.08,0h0l-.09,0h0A1.41,1.41,0,0,0,63,3.85l-.06.06,0,.07-.08.16,0,.08a1.08,1.08,0,0,0-.05.21V5.6c0,.15.12.31.36.43a2.3,2.3,0,0,0,1.8,0c.25-.12.38-.29.38-.45V4.52S65.25,4.43,65.25,4.39Z" style="fill:#e7e7e6"/>
            <g style="opacity:.66;mix-blend-mode:multiply">
                <path d="M68.23,33.47a11.12,11.12,0,0,0-8.73-.08c-2.44,1.17-2.5,3.09-.12,4.3a11.12,11.12,0,0,0,8.73.07C70.55,36.6,70.61,34.67,68.23,33.47Z" style="fill:#0096cb;mix-blend-mode:multiply"/>
                <path class="cls-17" d="M67.91,36.63a10.57,10.57,0,0,1-8.33-.07c-1.12-.56-1.67-1.3-1.67-2v.66c0,.73.55,1.47,1.67,2a10.57,10.57,0,0,0,8.33.07c1.19-.56,1.78-1.31,1.79-2.07v-.66C69.69,35.32,69.1,36.07,67.91,36.63Z"/>
                <path class="cls-17" d="M68,32.53a10.66,10.66,0,0,0-8.33-.07c-2.34,1.11-2.39,2.95-.12,4.1a10.57,10.57,0,0,0,8.33.07C70.25,35.52,70.3,33.68,68,32.53Z"/>
                <path class="cls-17" d="M66.78,30.71c0,.4-.26.8-.89,1.1a5.29,5.29,0,0,1-4.15,0c-.59-.29-.86-.68-.83-1.07l-1.14,3.75c-.05.53.33,1.07,1.14,1.48a7.3,7.3,0,0,0,5.71,0h0c.86-.41,1.27-1,1.22-1.51Z"/>
                <path class="cls-17" d="M66.25,29.94l-.88-.61c.48.33.45.79-.09,1.1l-.14.08a3.17,3.17,0,0,1-1.41.25,2.87,2.87,0,0,1-1.21-.28c-.63-.32-.69-.81-.18-1.16l-.89.61c-.8.56-.71,1.33.29,1.84a4.64,4.64,0,0,0,1.92.44,5,5,0,0,0,2.23-.4l.22-.12C67,31.19,67,30.47,66.25,29.94Z"/>
                <path class="cls-17" d="M65,20.24c0,.13-.1.26-.3.36a1.84,1.84,0,0,1-1.42,0c-.19-.1-.28-.23-.28-.35l-1,9.59c0,.24.17.47.53.65a3.31,3.31,0,0,0,2.62,0c.38-.19.57-.43.57-.67Z"/>
                <path class="cls-17" d="M66,11.05a5.13,5.13,0,0,1-4,0,1.32,1.32,0,0,1-.8-.85L63,20.29c0,.11.12.21.28.3a1.84,1.84,0,0,0,1.42,0,.45.45,0,0,0,.3-.31l1.87-10.12A1.36,1.36,0,0,1,66,11.05Z"/>
                <path class="cls-17" d="M72.52,11.35v0h0s0-.07,0-.11l0-.13-.12-.26-.12-.23L72,10.33l-.14-.22a2.13,2.13,0,0,0-.16-.25l-.16-.22a5.81,5.81,0,0,0-.36-.46c-.12-.13-.17-.19-.41-.43,1.43,1.42.92,3.18-1.51,4.34a12.5,12.5,0,0,1-5,1h-.79l-.45,0-.32,0-.44,0-.32,0-.43-.07-.31-.05-.42-.1-.29-.07-.42-.11-.26-.08-.44-.16-.21-.08-.6-.27c-2.31-1.18-2.75-2.91-1.35-4.29l0,0h0L57,8.94l-.19.21-.2.23-.16.22-.18.24-.15.23c0,.07-.1.17-.15.25l-.13.23-.13.25-.11.24a2,2,0,0,1-.11.26l-.09.25a1.54,1.54,0,0,1,0,.17l0,0v.05l0,.11a6.67,6.67,0,0,0,1.88,6.69l.12.12.43.39A9.53,9.53,0,0,0,58.9,20l.49.27a10,10,0,0,0,5.26,1.06h0l.41,0,.41-.05.44-.08.43-.09.49-.13.45-.14.56-.21.48-.22.26-.13.1-.05L69,20l.48-.3c.22-.15.51-.37.72-.53l.23-.21.1-.09.11-.09.08-.09A5.54,5.54,0,0,0,71.4,18h0A8.61,8.61,0,0,0,72,17.2l.12-.21q.12-.22.24-.48l.06-.12,0-.06a1.8,1.8,0,0,1,.08-.21l.11-.29a7.6,7.6,0,0,0,.33-1.51l0-.61A6.34,6.34,0,0,0,72.52,11.35Z"/>
                <path class="cls-17" d="M73.33,9.62l-.09-.51c0-.1-.06-.21-.1-.32v0L73,8.33l-.22-.49h0a6.49,6.49,0,0,0-1.41-1.9l-.07-.07-.41-.36a9.36,9.36,0,0,0-1.08-.74l-.5-.27a9.21,9.21,0,0,0-1.63-.66l0,0h0l-.41-.11-.06,0-.09,0-.38-.09h-.13a12.43,12.43,0,0,0-3.85-.19H62.5l-.34,0h-.08l-.52.09-.51.11-.55.14L60,3.93l-.61.23a8.08,8.08,0,0,0-3.74,2.89v0a5.47,5.47,0,0,0-.54,1l-.2.49a6.31,6.31,0,0,0-.28,1.31l0,.53c0,1.16.88,2.33,2.66,3.24a17,17,0,0,0,13.3.11c1.89-.9,2.84-2.1,2.85-3.31C73.38,10.18,73.35,9.86,73.33,9.62ZM64.89,6.05a2.3,2.3,0,0,1-1.8,0c-.49-.25-.48-.64,0-.88a2.34,2.34,0,0,1,1.8,0C65.4,5.41,65.39,5.81,64.89,6.05Z"/>
                <path class="cls-17" d="M65.25,4.39l0-.08,0-.13,0-.08a.43.43,0,0,1,0-.07V4l0,0,0-.07-.11-.12-.07,0-.15-.11-.07,0-.08,0h0l-.09,0h0A1.41,1.41,0,0,0,63,3.85l-.06.06,0,.07-.08.16,0,.08a1.08,1.08,0,0,0-.05.21V5.6c0,.15.12.31.36.43a2.3,2.3,0,0,0,1.8,0c.25-.12.38-.29.38-.45V4.52S65.25,4.43,65.25,4.39Z"/>
            </g>
        </g>
    </g>
</svg>
