<svg xmlns="http://www.w3.org/2000/svg" xmlns:xlink="http://www.w3.org/1999/xlink" viewBox="0 0 128 123.26"><defs><style>.cls-1{isolation:isolate;}.cls-2{fill:#a2c037;}.cls-3{fill:#b5b295;}.cls-4{fill:#d6d3ad;}.cls-5{fill:#f7e080;mix-blend-mode:color;}.cls-6{mix-blend-mode:hard-light;fill:url(#Nepojmenovaný_přechod_23);}.cls-11,.cls-7{fill:#b5b5b5;}.cls-15,.cls-16,.cls-7{mix-blend-mode:multiply;}.cls-8{fill:#a2a1a1;}.cls-9{fill:#ebebeb;}.cls-10{fill:#c6c6c6;}.cls-12{fill:#8dc5ef;}.cls-13{fill:#d4d4d5;}.cls-14{fill:#e7e7e6;}.cls-15{opacity:0.66;}.cls-16,.cls-17{fill:#0096cb;}</style><radialGradient id="Nepojmenovaný_přechod_23" cx="64" cy="59.06" r="50.6" gradientUnits="userSpaceOnUse"><stop offset="0" stop-color="#286992"/><stop offset="1" stop-color="#286992"/></radialGradient></defs><g class="cls-1"><g id="Vrstva_1" data-name="Vrstva 1"><g id="layer1"><path id="path10" class="cls-2" d="M0,59.26l64,32,64-32-64-32Z"/><path id="path837" class="cls-3" d="M0,91.26l64,32v-32l-64-32Z"/><path id="path839" class="cls-4" d="M64,123.26l64-32v-32l-64,32Z"/></g><polygon class="cls-5" points="105.2 70.29 84.48 80.66 64.26 70.25 43.95 80.66 22.8 70.29 64.22 47.19 105.2 70.29"/><polygon class="cls-6" points="128 59.08 64 91.08 0 59.08 64 27.04 128 59.08"/><path class="cls-7" d="M68.23,35.23a11.12,11.12,0,0,0-8.73-.07c-2.44,1.16-2.5,3.09-.12,4.29a11.16,11.16,0,0,0,8.73.08C70.55,38.36,70.61,36.44,68.23,35.23Z"/><path class="cls-8" d="M67.91,38.4a10.66,10.66,0,0,1-8.33-.07c-1.12-.57-1.67-1.3-1.67-2V37c0,.73.55,1.46,1.67,2a10.66,10.66,0,0,0,8.33.07c1.19-.57,1.78-1.32,1.79-2.07v-.66C69.69,37.08,69.1,37.83,67.91,38.4Z"/><path class="cls-9" d="M68,34.3a10.61,10.61,0,0,0-8.33-.08c-2.34,1.12-2.39,3-.12,4.11a10.66,10.66,0,0,0,8.33.07C70.25,37.29,70.3,35.45,68,34.3Z"/><path class="cls-10" d="M66.78,32.48c0,.4-.26.8-.89,1.09a5.29,5.29,0,0,1-4.15,0c-.59-.3-.86-.69-.83-1.08l-1.14,3.76c-.05.53.33,1.06,1.14,1.47a7.26,7.26,0,0,0,5.71.05h0c.86-.41,1.27-1,1.22-1.5Z"/><path class="cls-9" d="M66.25,31.71l-.88-.62c.48.33.45.79-.09,1.11l-.14.07a3,3,0,0,1-1.41.25,2.87,2.87,0,0,1-1.21-.27c-.63-.32-.69-.82-.18-1.17l-.89.61c-.8.56-.71,1.34.29,1.85a4.8,4.8,0,0,0,1.92.44,5,5,0,0,0,2.23-.41l.22-.11C67,33,67,32.24,66.25,31.71Z"/><path class="cls-10" d="M65,22c0,.13-.1.26-.3.35a1.8,1.8,0,0,1-1.42,0C63,22.25,63,22.13,63,22l-1,9.6c0,.23.17.47.53.65a3.36,3.36,0,0,0,2.62,0c.38-.18.57-.42.57-.67Z"/><path class="cls-11" d="M66,12.81a5.17,5.17,0,0,1-4,0,1.34,1.34,0,0,1-.8-.86L63,22.05a.47.47,0,0,0,.28.3,1.8,1.8,0,0,0,1.42,0,.46.46,0,0,0,.3-.3l1.87-10.13A1.34,1.34,0,0,1,66,12.81Z"/><path class="cls-12" d="M72.52,13.11v0h0s0-.07,0-.11l0-.12-.12-.26-.12-.24L72,12.1l-.14-.23c0-.08-.11-.17-.16-.25l-.16-.22c-.12-.16-.13-.18-.36-.45a5.92,5.92,0,0,0-.41-.44c1.43,1.42.92,3.18-1.51,4.34a12.34,12.34,0,0,1-5,1h-.79l-.45,0-.32,0-.44-.05-.32,0-.43-.06-.31-.06-.42-.09-.29-.07-.42-.12-.26-.08-.44-.16L59.16,15a5.46,5.46,0,0,1-.6-.27c-2.31-1.18-2.75-2.9-1.35-4.28l0,0h0L57,10.7l-.19.21-.2.24-.16.21c-.06.08-.13.17-.18.25l-.15.22c0,.08-.1.18-.15.25l-.13.23-.13.26-.11.24c0,.07-.07.18-.11.26l-.09.24a1.21,1.21,0,0,1,0,.18l0,0v0l0,.11a6.67,6.67,0,0,0,1.88,6.69l.12.12.43.39a9.53,9.53,0,0,0,1.19.83l.49.27a9.93,9.93,0,0,0,5.26,1.06h0l.41,0,.41-.05.44-.07.43-.1.49-.12.45-.15.56-.21.48-.21.26-.13.1-.06.3-.16.48-.29.72-.54.23-.2.1-.09.11-.09.08-.09a7.3,7.3,0,0,0,.65-.71h0A7.19,7.19,0,0,0,72,19l.12-.21.24-.48.06-.13,0-.06c0-.06,0-.13.08-.2l.11-.3a7.34,7.34,0,0,0,.33-1.5l0-.61A6.41,6.41,0,0,0,72.52,13.11Z"/><path class="cls-13" d="M73.33,11.39l-.09-.52c0-.1-.06-.21-.1-.32v0L73,10.09l-.22-.48h0a6.63,6.63,0,0,0-1.41-1.9l-.07-.06-.41-.36a9.27,9.27,0,0,0-1.08-.75l-.5-.27a10,10,0,0,0-1.63-.66H67.6l-.41-.12-.06,0-.09,0-.38-.08-.06,0h-.07a12.74,12.74,0,0,0-3.85-.19H62.5l-.34,0h-.08l-.52.09-.51.11-.55.15L60,5.7c-.19.06-.43.16-.61.23a8,8,0,0,0-3.74,2.88v0a5.3,5.3,0,0,0-.54,1l-.2.49a6.45,6.45,0,0,0-.28,1.31l0,.53c0,1.17.88,2.33,2.66,3.24a17,17,0,0,0,13.3.11c1.89-.9,2.84-2.1,2.85-3.3C73.38,12,73.35,11.63,73.33,11.39ZM64.89,7.81a2.3,2.3,0,0,1-1.8,0c-.49-.25-.48-.65,0-.89a2.3,2.3,0,0,1,1.8,0C65.4,7.18,65.39,7.57,64.89,7.81Z"/><path class="cls-14" d="M65.25,6.15l0-.08,0-.13,0-.07a.43.43,0,0,0,0-.07v0l0,0,0-.07a1.14,1.14,0,0,1-.11-.11l-.07-.06-.15-.11-.07,0-.08,0,0,0-.09,0h0A1.43,1.43,0,0,0,63,5.61l-.06.07,0,.06-.08.16,0,.08a1.29,1.29,0,0,0-.05.21V7.36c0,.16.12.32.36.44a2.3,2.3,0,0,0,1.8,0c.25-.12.38-.28.38-.44V6.28S65.25,6.19,65.25,6.15Z"/><g class="cls-15"><path class="cls-16" d="M68.23,35.23a11.12,11.12,0,0,0-8.73-.07c-2.44,1.16-2.5,3.09-.12,4.29a11.16,11.16,0,0,0,8.73.08C70.55,38.36,70.61,36.44,68.23,35.23Z"/><path class="cls-17" d="M67.91,38.4a10.66,10.66,0,0,1-8.33-.07c-1.12-.57-1.67-1.3-1.67-2V37c0,.73.55,1.46,1.67,2a10.66,10.66,0,0,0,8.33.07c1.19-.57,1.78-1.32,1.79-2.07v-.66C69.69,37.08,69.1,37.83,67.91,38.4Z"/><path class="cls-17" d="M68,34.3a10.61,10.61,0,0,0-8.33-.08c-2.34,1.12-2.39,3-.12,4.11a10.66,10.66,0,0,0,8.33.07C70.25,37.29,70.3,35.45,68,34.3Z"/><path class="cls-17" d="M66.78,32.48c0,.4-.26.8-.89,1.09a5.29,5.29,0,0,1-4.15,0c-.59-.3-.86-.69-.83-1.08l-1.14,3.76c-.05.53.33,1.06,1.14,1.47a7.26,7.26,0,0,0,5.71.05h0c.86-.41,1.27-1,1.22-1.5Z"/><path class="cls-17" d="M66.25,31.71l-.88-.62c.48.33.45.79-.09,1.11l-.14.07a3,3,0,0,1-1.41.25,2.87,2.87,0,0,1-1.21-.27c-.63-.32-.69-.82-.18-1.17l-.89.61c-.8.56-.71,1.34.29,1.85a4.8,4.8,0,0,0,1.92.44,5,5,0,0,0,2.23-.41l.22-.11C67,33,67,32.24,66.25,31.71Z"/><path class="cls-17" d="M65,22c0,.13-.1.26-.3.35a1.8,1.8,0,0,1-1.42,0C63,22.25,63,22.13,63,22l-1,9.6c0,.23.17.47.53.65a3.36,3.36,0,0,0,2.62,0c.38-.18.57-.42.57-.67Z"/><path class="cls-17" d="M66,12.81a5.17,5.17,0,0,1-4,0,1.34,1.34,0,0,1-.8-.86L63,22.05a.47.47,0,0,0,.28.3,1.8,1.8,0,0,0,1.42,0,.46.46,0,0,0,.3-.3l1.87-10.13A1.34,1.34,0,0,1,66,12.81Z"/><path class="cls-17" d="M72.52,13.11v0h0s0-.07,0-.11l0-.12-.12-.26-.12-.24L72,12.1l-.14-.23c0-.08-.11-.17-.16-.25l-.16-.22c-.12-.16-.13-.18-.36-.45a5.92,5.92,0,0,0-.41-.44c1.43,1.42.92,3.18-1.51,4.34a12.34,12.34,0,0,1-5,1h-.79l-.45,0-.32,0-.44-.05-.32,0-.43-.06-.31-.06-.42-.09-.29-.07-.42-.12-.26-.08-.44-.16L59.16,15a5.46,5.46,0,0,1-.6-.27c-2.31-1.18-2.75-2.9-1.35-4.28l0,0h0L57,10.7l-.19.21-.2.24-.16.21c-.06.08-.13.17-.18.25l-.15.22c0,.08-.1.18-.15.25l-.13.23-.13.26-.11.24c0,.07-.07.18-.11.26l-.09.24a1.21,1.21,0,0,1,0,.18l0,0v0l0,.11a6.67,6.67,0,0,0,1.88,6.69l.12.12.43.39a9.53,9.53,0,0,0,1.19.83l.49.27a9.93,9.93,0,0,0,5.26,1.06h0l.41,0,.41-.05.44-.07.43-.1.49-.12.45-.15.56-.21.48-.21.26-.13.1-.06.3-.16.48-.29.72-.54.23-.2.1-.09.11-.09.08-.09a7.3,7.3,0,0,0,.65-.71h0A7.19,7.19,0,0,0,72,19l.12-.21.24-.48.06-.13,0-.06c0-.06,0-.13.08-.2l.11-.3a7.34,7.34,0,0,0,.33-1.5l0-.61A6.41,6.41,0,0,0,72.52,13.11Z"/><path class="cls-17" d="M73.33,11.39l-.09-.52c0-.1-.06-.21-.1-.32v0L73,10.09l-.22-.48h0a6.63,6.63,0,0,0-1.41-1.9l-.07-.06-.41-.36a9.27,9.27,0,0,0-1.08-.75l-.5-.27a10,10,0,0,0-1.63-.66H67.6l-.41-.12-.06,0-.09,0-.38-.08-.06,0h-.07a12.74,12.74,0,0,0-3.85-.19H62.5l-.34,0h-.08l-.52.09-.51.11-.55.15L60,5.7c-.19.06-.43.16-.61.23a8,8,0,0,0-3.74,2.88v0a5.3,5.3,0,0,0-.54,1l-.2.49a6.45,6.45,0,0,0-.28,1.31l0,.53c0,1.17.88,2.33,2.66,3.24a17,17,0,0,0,13.3.11c1.89-.9,2.84-2.1,2.85-3.3C73.38,12,73.35,11.63,73.33,11.39ZM64.89,7.81a2.3,2.3,0,0,1-1.8,0c-.49-.25-.48-.65,0-.89a2.3,2.3,0,0,1,1.8,0C65.4,7.18,65.39,7.57,64.89,7.81Z"/><path class="cls-17" d="M65.25,6.15l0-.08,0-.13,0-.07a.43.43,0,0,0,0-.07v0l0,0,0-.07a1.14,1.14,0,0,1-.11-.11l-.07-.06-.15-.11-.07,0-.08,0,0,0-.09,0h0A1.43,1.43,0,0,0,63,5.61l-.06.07,0,.06-.08.16,0,.08a1.29,1.29,0,0,0-.05.21V7.36c0,.16.12.32.36.44a2.3,2.3,0,0,0,1.8,0c.25-.12.38-.28.38-.44V6.28S65.25,6.19,65.25,6.15Z"/></g></g></g></svg>