<svg xmlns="http://www.w3.org/2000/svg" xmlns:xlink="http://www.w3.org/1999/xlink" viewBox="0 0 128 121.93" width="128" height="122">
    <defs>
        <radialGradient id="Nepojmenovaný_přechod_23" cx="64.02" cy="57.93" r="50.6" gradientUnits="userSpaceOnUse">
            <stop offset="0" stop-color="#286992"/>
            <stop offset="1" stop-color="#286992"/>
        </radialGradient>
        <radialGradient id="Nepojmenovaný_přechod_23-2" cx="104.81" cy="57" r="8.29" gradientTransform="translate(161.58 -47.93) rotate(89.88)" xlink:href="#Nepojmenovaný_přechod_23"/>
        <radialGradient id="Nepojmenovaný_přechod_23-3" cx="106.16" cy="40.79" r="18.23" xlink:href="#Nepojmenovaný_přechod_23"/>
        <radialGradient id="Nepojmenovaný_přechod_23-4" cx="99.16" cy="45.84" r="12.76" xlink:href="#Nepojmenovaný_přechod_23"/>
        <radialGradient id="Nepojmenovaný_přechod_23-5" cx="111.04" cy="32.41" r="7.5" xlink:href="#Nepojmenovaný_přechod_23"/>
        <radialGradient id="Nepojmenovaný_přechod_23-6" cx="113.08" cy="37.05" r="5.64" xlink:href="#Nepojmenovaný_přechod_23"/>
        <radialGradient id="Nepojmenovaný_přechod_23-7" cx="92.61" cy="43.43" r="7.53" xlink:href="#Nepojmenovaný_přechod_23"/>
        <radialGradient id="Nepojmenovaný_přechod_23-8" cx="103.11" cy="40.09" r="5.5" xlink:href="#Nepojmenovaný_přechod_23"/>
        <radialGradient id="Nepojmenovaný_přechod_23-9" cx="98.31" cy="48.43" r="3.8" xlink:href="#Nepojmenovaný_přechod_23"/>
        <style>
            .cls-7{fill:#b5b5b5;mix-blend-mode:multiply}.cls-9{fill:#ebebeb}.cls-10{fill:#c6c6c6}.cls-17{fill:#0096cb}.cls-20{fill:#fff;opacity:.35;mix-blend-mode:overlay}
        </style>
    </defs>
    <g style="isolation:isolate">
        <g id="Vrstva_1" data-name="Vrstva 1">
            <g id="layer1">
                <path id="path10" d="M0,57.93l64,32,64-32-64-32Z" style="fill:#a2c037"/>
                <path id="path837" d="M0,89.93l64,32v-32l-64-32Z" style="fill:#b5b295"/>
                <path id="path839" d="M64,121.93l64-32v-32l-64,32Z" style="fill:#d6d3ad"/>
            </g>
            <polygon points="105.36 46.83 84.38 58 63.74 68.99 43.43 79.4 22.28 69.03 43.26 57.86 63.9 46.87 84.21 36.46 105.36 46.83" style="fill:#f7e080;mix-blend-mode:color"/>
            <polygon points="128.02 57.95 64.02 89.95 0.02 57.95 64.02 25.91 128.02 57.95" style="fill:url(#Nepojmenovaný_přechod_23);mix-blend-mode:hard-light"/>
            <path class="cls-7" d="M22.53,55.12a11.12,11.12,0,0,0-8.73-.07c-2.45,1.16-2.5,3.09-.12,4.29a11.12,11.12,0,0,0,8.73.08C24.85,58.25,24.91,56.33,22.53,55.12Z"/>
            <path d="M22.21,58.29a10.66,10.66,0,0,1-8.33-.07c-1.12-.57-1.67-1.3-1.67-2v.66c0,.73.55,1.46,1.67,2a10.66,10.66,0,0,0,8.33.07c1.18-.57,1.78-1.32,1.78-2.07v-.66C24,57,23.4,57.72,22.21,58.29Z" style="fill:#a2a1a1"/>
            <path class="cls-9" d="M22.33,54.19A10.57,10.57,0,0,0,14,54.12c-2.34,1.11-2.39,3-.12,4.1a10.66,10.66,0,0,0,8.33.07C24.54,57.18,24.6,55.34,22.33,54.19Z"/>
            <path class="cls-10" d="M21.08,52.37c0,.4-.26.8-.89,1.1a5.34,5.34,0,0,1-4.15,0c-.59-.3-.86-.69-.83-1.07l-1.15,3.75c0,.53.34,1.06,1.14,1.48a7.28,7.28,0,0,0,5.72,0h0c.86-.41,1.27-1,1.22-1.5Z"/>
            <path class="cls-9" d="M20.55,51.6,19.67,51c.48.34.44.79-.09,1.11l-.14.07a3.17,3.17,0,0,1-1.41.26,3,3,0,0,1-1.21-.28c-.64-.32-.69-.82-.19-1.17l-.88.62c-.81.55-.71,1.33.29,1.84a4.8,4.8,0,0,0,1.92.44,5.13,5.13,0,0,0,2.23-.4l.22-.12C21.26,52.85,21.31,52.13,20.55,51.6Z"/>
            <path class="cls-10" d="M19.25,41.9c0,.13-.1.26-.3.36a1.84,1.84,0,0,1-1.42,0c-.19-.09-.29-.22-.28-.35l-1,9.6c0,.23.17.47.53.65a3.36,3.36,0,0,0,2.62,0c.38-.18.57-.42.56-.66Z"/>
            <path d="M20.27,32.7a5.13,5.13,0,0,1-4,0,1.34,1.34,0,0,1-.8-.86l1.81,10.13a.45.45,0,0,0,.28.3,1.84,1.84,0,0,0,1.42,0,.55.55,0,0,0,.3-.31l1.87-10.12A1.35,1.35,0,0,1,20.27,32.7Z" style="fill:#b5b5b5"/>
            <path d="M26.81,33v0h0s0-.07,0-.11l-.05-.12c0-.08-.09-.18-.12-.26l-.12-.24L26.33,32l-.14-.23L26,31.51l-.16-.22-.36-.45c-.12-.14-.18-.2-.41-.44,1.43,1.42.92,3.19-1.51,4.34a12.51,12.51,0,0,1-5,1h-.79l-.45,0-.32,0-.44,0-.32,0-.43-.06-.31-.06-.42-.09-.29-.07-.42-.12-.26-.08L13.67,35l-.21-.08a5.46,5.46,0,0,1-.6-.27c-2.31-1.17-2.75-2.9-1.35-4.28l0,0h0v0l-.19.19-.19.2-.2.24-.17.22-.17.24-.15.22-.15.25-.13.23-.13.26-.11.24L9.78,33l-.09.24a1.21,1.21,0,0,0,0,.18l0,0v0l0,.11a6.67,6.67,0,0,0,1.89,6.69l.11.12.44.39a8.58,8.58,0,0,0,1.19.83l.49.27A9.93,9.93,0,0,0,19,42.94H19l.41,0,.41,0,.44-.07.43-.09.48-.13.46-.15.56-.21.48-.21.26-.13.1-.06.3-.16.48-.29c.22-.16.51-.37.72-.54l.23-.2.1-.09.11-.09.08-.09a7.4,7.4,0,0,0,.65-.71h0a8.61,8.61,0,0,0,.54-.76l.11-.21a5.39,5.39,0,0,0,.25-.48l.06-.13,0-.06a1.19,1.19,0,0,0,.08-.2l.12-.29A7.6,7.6,0,0,0,27.22,36l0-.61A6.19,6.19,0,0,0,26.81,33Z" style="fill:#8dc5ef"/>
            <path d="M27.63,31.28l-.09-.52-.1-.32v0c-.05-.15-.1-.31-.15-.44l-.21-.48h0a6.52,6.52,0,0,0-1.42-1.91l-.06-.06-.41-.36a9.27,9.27,0,0,0-1.08-.75l-.5-.27A10.42,10.42,0,0,0,22,25.49H21.9l-.41-.12h-.07l-.08,0L21,25.23l-.06,0h-.07A12.74,12.74,0,0,0,17,25H16.8l-.34,0h-.08l-.52.09-.51.11-.55.15-.51.16c-.19.06-.43.16-.61.23a8.08,8.08,0,0,0-3.74,2.89v0a5.84,5.84,0,0,0-.55,1l-.19.49a6,6,0,0,0-.28,1.31l0,.53c0,1.17.88,2.34,2.66,3.24a17,17,0,0,0,13.3.11c1.89-.9,2.84-2.1,2.85-3.3C27.68,31.84,27.65,31.52,27.63,31.28ZM19.18,27.7a2.27,2.27,0,0,1-1.79,0c-.49-.25-.48-.65,0-.89a2.3,2.3,0,0,1,1.8,0C19.7,27.07,19.69,27.46,19.18,27.7Z" style="fill:#d4d4d5"/>
            <path d="M19.55,26.05l0-.09,0-.13,0-.07,0-.07v0l0,0-.06-.06a.63.63,0,0,0-.11-.12l-.06-.06-.15-.1-.07,0-.09,0h0l-.09,0h0a1.42,1.42,0,0,0-1.41.35l-.06.07-.05.07-.08.15,0,.08a1.3,1.3,0,0,0,0,.21v1.17c0,.16.12.32.36.44a2.3,2.3,0,0,0,1.8,0c.25-.12.38-.28.38-.44V26.05Z" style="fill:#e7e7e6"/>
            <g style="opacity:.66;mix-blend-mode:multiply">
                <path d="M22.53,55.12a11.12,11.12,0,0,0-8.73-.07c-2.45,1.16-2.5,3.09-.12,4.29a11.12,11.12,0,0,0,8.73.08C24.85,58.25,24.91,56.33,22.53,55.12Z" style="fill:#0096cb;mix-blend-mode:multiply"/>
                <path class="cls-17" d="M22.21,58.29a10.66,10.66,0,0,1-8.33-.07c-1.12-.57-1.67-1.3-1.67-2v.66c0,.73.55,1.46,1.67,2a10.66,10.66,0,0,0,8.33.07c1.18-.57,1.78-1.32,1.78-2.07v-.66C24,57,23.4,57.72,22.21,58.29Z"/>
                <path class="cls-17" d="M22.33,54.19A10.57,10.57,0,0,0,14,54.12c-2.34,1.11-2.39,3-.12,4.1a10.66,10.66,0,0,0,8.33.07C24.54,57.18,24.6,55.34,22.33,54.19Z"/>
                <path class="cls-17" d="M21.08,52.37c0,.4-.26.8-.89,1.1a5.34,5.34,0,0,1-4.15,0c-.59-.3-.86-.69-.83-1.07l-1.15,3.75c0,.53.34,1.06,1.14,1.48a7.28,7.28,0,0,0,5.72,0h0c.86-.41,1.27-1,1.22-1.5Z"/>
                <path class="cls-17" d="M20.55,51.6,19.67,51c.48.34.44.79-.09,1.11l-.14.07a3.17,3.17,0,0,1-1.41.26,3,3,0,0,1-1.21-.28c-.64-.32-.69-.82-.19-1.17l-.88.62c-.81.55-.71,1.33.29,1.84a4.8,4.8,0,0,0,1.92.44,5.13,5.13,0,0,0,2.23-.4l.22-.12C21.26,52.85,21.31,52.13,20.55,51.6Z"/>
                <path class="cls-17" d="M19.25,41.9c0,.13-.1.26-.3.36a1.84,1.84,0,0,1-1.42,0c-.19-.09-.29-.22-.28-.35l-1,9.6c0,.23.17.47.53.65a3.36,3.36,0,0,0,2.62,0c.38-.18.57-.42.56-.66Z"/>
                <path class="cls-17" d="M20.27,32.7a5.13,5.13,0,0,1-4,0,1.34,1.34,0,0,1-.8-.86l1.81,10.13a.45.45,0,0,0,.28.3,1.84,1.84,0,0,0,1.42,0,.55.55,0,0,0,.3-.31l1.87-10.12A1.35,1.35,0,0,1,20.27,32.7Z"/>
                <path class="cls-17" d="M26.81,33v0h0s0-.07,0-.11l-.05-.12c0-.08-.09-.18-.12-.26l-.12-.24L26.33,32l-.14-.23L26,31.51l-.16-.22-.36-.45c-.12-.14-.18-.2-.41-.44,1.43,1.42.92,3.19-1.51,4.34a12.51,12.51,0,0,1-5,1h-.79l-.45,0-.32,0-.44,0-.32,0-.43-.06-.31-.06-.42-.09-.29-.07-.42-.12-.26-.08L13.67,35l-.21-.08a5.46,5.46,0,0,1-.6-.27c-2.31-1.17-2.75-2.9-1.35-4.28l0,0h0v0l-.19.19-.19.2-.2.24-.17.22-.17.24-.15.22-.15.25-.13.23-.13.26-.11.24L9.78,33l-.09.24a1.21,1.21,0,0,0,0,.18l0,0v0l0,.11a6.67,6.67,0,0,0,1.89,6.69l.11.12.44.39a8.58,8.58,0,0,0,1.19.83l.49.27A9.93,9.93,0,0,0,19,42.94H19l.41,0,.41,0,.44-.07.43-.09.48-.13.46-.15.56-.21.48-.21.26-.13.1-.06.3-.16.48-.29c.22-.16.51-.37.72-.54l.23-.2.1-.09.11-.09.08-.09a7.4,7.4,0,0,0,.65-.71h0a8.61,8.61,0,0,0,.54-.76l.11-.21a5.39,5.39,0,0,0,.25-.48l.06-.13,0-.06a1.19,1.19,0,0,0,.08-.2l.12-.29A7.6,7.6,0,0,0,27.22,36l0-.61A6.19,6.19,0,0,0,26.81,33Z"/>
                <path class="cls-17" d="M27.63,31.28l-.09-.52-.1-.32v0c-.05-.15-.1-.31-.15-.44l-.21-.48h0a6.52,6.52,0,0,0-1.42-1.91l-.06-.06-.41-.36a9.27,9.27,0,0,0-1.08-.75l-.5-.27A10.42,10.42,0,0,0,22,25.49H21.9l-.41-.12h-.07l-.08,0L21,25.23l-.06,0h-.07A12.74,12.74,0,0,0,17,25H16.8l-.34,0h-.08l-.52.09-.51.11-.55.15-.51.16c-.19.06-.43.16-.61.23a8.08,8.08,0,0,0-3.74,2.89v0a5.84,5.84,0,0,0-.55,1l-.19.49a6,6,0,0,0-.28,1.31l0,.53c0,1.17.88,2.34,2.66,3.24a17,17,0,0,0,13.3.11c1.89-.9,2.84-2.1,2.85-3.3C27.68,31.84,27.65,31.52,27.63,31.28ZM19.18,27.7a2.27,2.27,0,0,1-1.79,0c-.49-.25-.48-.65,0-.89a2.3,2.3,0,0,1,1.8,0C19.7,27.07,19.69,27.46,19.18,27.7Z"/>
                <path class="cls-17" d="M19.55,26.05l0-.09,0-.13,0-.07,0-.07v0l0,0-.06-.06a.63.63,0,0,0-.11-.12l-.06-.06-.15-.1-.07,0-.09,0h0l-.09,0h0a1.42,1.42,0,0,0-1.41.35l-.06.07-.05.07-.08.15,0,.08a1.3,1.3,0,0,0,0,.21v1.17c0,.16.12.32.36.44a2.3,2.3,0,0,0,1.8,0c.25-.12.38-.28.38-.44V26.05Z"/>
            </g>
            <ellipse class="cls-7" cx="104.81" cy="57" rx="5.18" ry="10.52" transform="translate(47.59 161.68) rotate(-89.88)"/>
            <path d="M107.94,58.75s10-13,12.48-24.09a38.91,38.91,0,0,0-5.16,5.52,66.16,66.16,0,0,0,.35-18.79C106,31.67,104.06,44.7,103.8,51.9c-.24-5.15-1-12.75-3.14-17.13-2,6.62-.82,13.66.28,17.77C99.07,47.14,95,37,89.21,32c-.52,7,4,26.64,13.66,28.19h5.33s14-7.07,15-8.73C116.65,49,107.94,58.75,107.94,58.75Z" style="fill:#84b451"/>
            <path d="M104.12,52.15c1.45-6.33,2.41-15.24.89-20.67-3.15,5.24-4.08,12.1-4.24,17.57-.62-3.19-1.59-6.21-3.07-6.93C95.94,50,99.36,57.46,99.36,57.46a35.27,35.27,0,0,0-11.12-7.8A30.51,30.51,0,0,0,100.9,60.19h2.53c1.38-2.26,5.45-9.16,6.65-14.09A26.43,26.43,0,0,0,104.12,52.15Z" style="fill:#a1c268"/>
            <path class="cls-20" d="M106.61,42.05s2-13.81,8.87-19.28A74.93,74.93,0,0,1,106.61,42.05Z"/>
            <path class="cls-20" d="M114.69,29.24a52.24,52.24,0,0,0-3.22,15.61C114.3,39.65,114.69,29.24,114.69,29.24Z"/>
            <path class="cls-20" d="M89.34,33.29S90.23,46,95.88,53.57C93.47,39.87,89.34,33.29,89.34,33.29Z"/>
            <path class="cls-20" d="M104.72,32.49a32.47,32.47,0,0,0-3.19,15.21C102.42,43.52,104.72,32.49,104.72,32.49Z"/>
            <path class="cls-20" d="M98,43.12s-1.67,6,1.15,10.63A41.46,41.46,0,0,0,98,43.12Z"/>
            <g style="mix-blend-mode:hard-light">
                <ellipse cx="104.81" cy="57" rx="5.18" ry="10.52" transform="translate(47.59 161.68) rotate(-89.88)" style="fill:url(#Nepojmenovaný_přechod_23-2);mix-blend-mode:multiply"/>
                <path d="M107.94,58.75s10-13,12.48-24.09a38.91,38.91,0,0,0-5.16,5.52,66.16,66.16,0,0,0,.35-18.79C106,31.67,104.06,44.7,103.8,51.9c-.24-5.15-1-12.75-3.14-17.13-2,6.62-.82,13.66.28,17.77C99.07,47.14,95,37,89.21,32c-.52,7,4,26.64,13.66,28.19h5.33s14-7.07,15-8.73C116.65,49,107.94,58.75,107.94,58.75Z" style="fill:url(#Nepojmenovaný_přechod_23-3)"/>
                <path d="M104.12,52.15c1.45-6.33,2.41-15.24.89-20.67-3.15,5.24-4.08,12.1-4.24,17.57-.62-3.19-1.59-6.21-3.07-6.93C95.94,50,99.36,57.46,99.36,57.46a35.27,35.27,0,0,0-11.12-7.8A30.51,30.51,0,0,0,100.9,60.19h2.53c1.38-2.26,5.45-9.16,6.65-14.09A26.43,26.43,0,0,0,104.12,52.15Z" style="fill:url(#Nepojmenovaný_přechod_23-4)"/>
                <path d="M106.61,42.05s2-13.81,8.87-19.28A74.93,74.93,0,0,1,106.61,42.05Z" style="fill:url(#Nepojmenovaný_přechod_23-5);opacity:.35;mix-blend-mode:overlay"/>
                <path d="M114.69,29.24a52.24,52.24,0,0,0-3.22,15.61C114.3,39.65,114.69,29.24,114.69,29.24Z" style="fill:url(#Nepojmenovaný_přechod_23-6);opacity:.35;mix-blend-mode:overlay"/>
                <path d="M89.34,33.29S90.23,46,95.88,53.57C93.47,39.87,89.34,33.29,89.34,33.29Z" style="fill:url(#Nepojmenovaný_přechod_23-7);opacity:.35;mix-blend-mode:overlay"/>
                <path d="M104.72,32.49a32.47,32.47,0,0,0-3.19,15.21C102.42,43.52,104.72,32.49,104.72,32.49Z" style="fill:url(#Nepojmenovaný_přechod_23-8);opacity:.35;mix-blend-mode:overlay"/>
                <path d="M98,43.12s-1.67,6,1.15,10.63A41.46,41.46,0,0,0,98,43.12Z" style="fill:url(#Nepojmenovaný_přechod_23-9);opacity:.35;mix-blend-mode:overlay"/>
            </g>
        </g>
    </g>
</svg>
