<svg xmlns="http://www.w3.org/2000/svg" xmlns:xlink="http://www.w3.org/1999/xlink" viewBox="0 0 128 122.28"><defs><style>.cls-1{isolation:isolate;}.cls-2{fill:#a2c037;}.cls-3{fill:#b5b295;}.cls-4{fill:#d6d3ad;}.cls-5{fill:#f7e080;mix-blend-mode:color;}.cls-6{mix-blend-mode:hard-light;fill:url(#Nepojmenovaný_přechod_23);}.cls-11,.cls-7{fill:#b5b5b5;}.cls-15,.cls-16,.cls-7{mix-blend-mode:multiply;}.cls-8{fill:#a2a1a1;}.cls-9{fill:#ebebeb;}.cls-10{fill:#c6c6c6;}.cls-12{fill:#8dc5ef;}.cls-13{fill:#d4d4d5;}.cls-14{fill:#e7e7e6;}.cls-15{opacity:0.66;}.cls-16,.cls-17{fill:#0096cb;}</style><radialGradient id="Nepojmenovaný_přechod_23" cx="63.79" cy="58.18" r="50.6" gradientTransform="matrix(-1, 0, 0, 1, 127.79, 0)" gradientUnits="userSpaceOnUse"><stop offset="0" stop-color="#286992"/><stop offset="1" stop-color="#286992"/></radialGradient></defs><g class="cls-1"><g id="Vrstva_1" data-name="Vrstva 1"><g id="layer1"><path id="path10" class="cls-2" d="M128,58.28l-64,32-64-32,64-32Z"/><path id="path837" class="cls-3" d="M128,90.28l-64,32v-32l64-32Z"/><path id="path839" class="cls-4" d="M64,122.28l-64-32v-32l64,32Z"/></g><polygon class="cls-5" points="43.77 58.19 64.42 69.18 84.72 79.59 105.88 69.22 84.91 58.05 105.2 47.02 84.48 36.65 64.26 47.05 43.77 58.19"/><polygon class="cls-6" points="0 58.2 64 90.2 128 58.2 64 26.16 0 58.2"/><path class="cls-7" d="M59.77,34.35a11.12,11.12,0,0,1,8.73-.07c2.44,1.16,2.5,3.09.12,4.29a11.16,11.16,0,0,1-8.73.08C57.45,37.48,57.39,35.56,59.77,34.35Z"/><path class="cls-8" d="M60.09,37.52a10.66,10.66,0,0,0,8.33-.07c1.12-.57,1.67-1.3,1.67-2v.66c0,.73-.55,1.46-1.67,2a10.66,10.66,0,0,1-8.33.07c-1.19-.57-1.78-1.32-1.79-2.07v-.66C58.31,36.2,58.9,37,60.09,37.52Z"/><path class="cls-9" d="M60,33.42a10.61,10.61,0,0,1,8.33-.08c2.34,1.12,2.39,2.95.12,4.11a10.66,10.66,0,0,1-8.33.07C57.75,36.41,57.7,34.57,60,33.42Z"/><path class="cls-10" d="M61.22,31.6c0,.4.26.8.89,1.09a5.29,5.29,0,0,0,4.15,0c.59-.3.86-.69.83-1.07l1.14,3.75c0,.53-.33,1.06-1.14,1.47a7.22,7.22,0,0,1-5.71,0h0c-.86-.41-1.27-1-1.22-1.5Z"/><path class="cls-9" d="M61.75,30.83l.88-.62c-.48.34-.45.79.09,1.11l.14.07a3,3,0,0,0,1.41.25,2.87,2.87,0,0,0,1.21-.27c.63-.32.69-.82.18-1.17l.89.61c.8.56.71,1.34-.29,1.85a4.8,4.8,0,0,1-1.92.44,5,5,0,0,1-2.23-.41l-.22-.11C61,32.08,61,31.36,61.75,30.83Z"/><path class="cls-10" d="M63.05,21.13c0,.13.1.26.3.35a1.8,1.8,0,0,0,1.42,0c.19-.1.28-.22.28-.35l1,9.6c0,.23-.17.47-.53.65a3.36,3.36,0,0,1-2.62,0c-.38-.18-.57-.42-.57-.67Z"/><path class="cls-11" d="M62,11.93a5.13,5.13,0,0,0,4,0,1.34,1.34,0,0,0,.8-.86L65.05,21.17a.47.47,0,0,1-.28.3,1.8,1.8,0,0,1-1.42,0,.46.46,0,0,1-.3-.3L61.18,11.06A1.35,1.35,0,0,0,62,11.93Z"/><path class="cls-12" d="M55.48,12.24v0h0s0-.07,0-.11l.05-.12.12-.26.12-.24.14-.25.14-.23.16-.25.16-.22c.12-.16.13-.17.36-.45a5.92,5.92,0,0,1,.41-.44c-1.43,1.42-.92,3.18,1.51,4.34a12.34,12.34,0,0,0,5,1h.79L65,15l.32,0,.44,0,.32-.05.43-.06.31-.06.42-.09.29-.07.42-.12.26-.08.44-.16.21-.08a5.46,5.46,0,0,0,.6-.27c2.31-1.18,2.75-2.9,1.35-4.28l0,0h0l.19.2.19.2.2.24.16.22a2.15,2.15,0,0,1,.18.24l.15.22c0,.08.1.18.15.25l.13.23.13.26.11.24c0,.07.07.18.11.26l.09.24a1.21,1.21,0,0,0,0,.18l0,.05v0l0,.11a6.67,6.67,0,0,1-1.88,6.69l-.12.12-.43.39a9.53,9.53,0,0,1-1.19.83l-.49.27a9.93,9.93,0,0,1-5.26,1.06H63.3l-.41,0-.41-.05L62,22l-.43-.1-.49-.12-.45-.15-.56-.21-.48-.21-.26-.13-.1-.06-.3-.16-.48-.29L57.77,20l-.23-.2-.1-.09-.11-.09-.08-.09a7.3,7.3,0,0,1-.65-.71h0a8.61,8.61,0,0,1-.54-.76l-.12-.21-.24-.48-.06-.13,0-.06-.08-.2-.11-.29a7.6,7.6,0,0,1-.33-1.51l0-.61A6.34,6.34,0,0,1,55.48,12.24Z"/><path class="cls-13" d="M54.61,11.31c0,1.2,1,2.4,2.85,3.3a17,17,0,0,0,13.3-.11c1.78-.9,2.66-2.07,2.66-3.24l0-.53a6.6,6.6,0,0,0-.28-1.31l-.2-.49a5.3,5.3,0,0,0-.54-1v0a8,8,0,0,0-3.74-2.88c-.18-.07-.42-.17-.61-.23l-.51-.16L67,4.51l-.51-.11-.52-.09h-.08l-.34,0h-.18a12.74,12.74,0,0,0-3.85.19H61.4l-.06,0a2.34,2.34,0,0,0-.38.09l-.09,0h-.06l-.41.12h-.08a10,10,0,0,0-1.63.66l-.5.27a9.27,9.27,0,0,0-1.08.75l-.41.36-.07.06a6.68,6.68,0,0,0-1.41,1.91h0L55,9.21l-.14.44v0c0,.11-.07.23-.1.32l-.09.52C54.65,10.75,54.62,11.07,54.61,11.31Zm8.48-5.26a2.3,2.3,0,0,1,1.8,0c.5.24.51.64,0,.89a2.3,2.3,0,0,1-1.8,0C62.61,6.69,62.6,6.3,63.09,6.05Z"/><path class="cls-14" d="M62.75,5.27l0-.08,0-.13,0-.07,0-.07v0l0,0L63,4.8l.11-.12.07-.06.15-.11.07,0,.08,0h0l.09,0h0A1.43,1.43,0,0,1,65,4.73l.06.07.05.06L65.2,5l0,.08a1.29,1.29,0,0,1,0,.21V6.48c0,.16-.12.32-.36.44a2.3,2.3,0,0,1-1.8,0c-.25-.12-.38-.28-.38-.44V5.4S62.75,5.31,62.75,5.27Z"/><g class="cls-15"><path class="cls-16" d="M59.77,34.35a11.12,11.12,0,0,1,8.73-.07c2.44,1.16,2.5,3.09.12,4.29a11.16,11.16,0,0,1-8.73.08C57.45,37.48,57.39,35.56,59.77,34.35Z"/><path class="cls-17" d="M60.09,37.52a10.66,10.66,0,0,0,8.33-.07c1.12-.57,1.67-1.3,1.67-2v.66c0,.73-.55,1.46-1.67,2a10.66,10.66,0,0,1-8.33.07c-1.19-.57-1.78-1.32-1.79-2.07v-.66C58.31,36.2,58.9,37,60.09,37.52Z"/><path class="cls-17" d="M60,33.42a10.61,10.61,0,0,1,8.33-.08c2.34,1.12,2.39,2.95.12,4.11a10.66,10.66,0,0,1-8.33.07C57.75,36.41,57.7,34.57,60,33.42Z"/><path class="cls-17" d="M61.22,31.6c0,.4.26.8.89,1.09a5.29,5.29,0,0,0,4.15,0c.59-.3.86-.69.83-1.07l1.14,3.75c0,.53-.33,1.06-1.14,1.47a7.22,7.22,0,0,1-5.71,0h0c-.86-.41-1.27-1-1.22-1.5Z"/><path class="cls-17" d="M61.75,30.83l.88-.62c-.48.34-.45.79.09,1.11l.14.07a3,3,0,0,0,1.41.25,2.87,2.87,0,0,0,1.21-.27c.63-.32.69-.82.18-1.17l.89.61c.8.56.71,1.34-.29,1.85a4.8,4.8,0,0,1-1.92.44,5,5,0,0,1-2.23-.41l-.22-.11C61,32.08,61,31.36,61.75,30.83Z"/><path class="cls-17" d="M63.05,21.13c0,.13.1.26.3.35a1.8,1.8,0,0,0,1.42,0c.19-.1.28-.22.28-.35l1,9.6c0,.23-.17.47-.53.65a3.36,3.36,0,0,1-2.62,0c-.38-.18-.57-.42-.57-.67Z"/><path class="cls-17" d="M62,11.93a5.13,5.13,0,0,0,4,0,1.34,1.34,0,0,0,.8-.86L65.05,21.17a.47.47,0,0,1-.28.3,1.8,1.8,0,0,1-1.42,0,.46.46,0,0,1-.3-.3L61.18,11.06A1.35,1.35,0,0,0,62,11.93Z"/><path class="cls-17" d="M55.48,12.24v0h0s0-.07,0-.11l.05-.12.12-.26.12-.24.14-.25.14-.23.16-.25.16-.22c.12-.16.13-.17.36-.45a5.92,5.92,0,0,1,.41-.44c-1.43,1.42-.92,3.18,1.51,4.34a12.34,12.34,0,0,0,5,1h.79L65,15l.32,0,.44,0,.32-.05.43-.06.31-.06.42-.09.29-.07.42-.12.26-.08.44-.16.21-.08a5.46,5.46,0,0,0,.6-.27c2.31-1.18,2.75-2.9,1.35-4.28l0,0h0l.19.2.19.2.2.24.16.22a2.15,2.15,0,0,1,.18.24l.15.22c0,.08.1.18.15.25l.13.23.13.26.11.24c0,.07.07.18.11.26l.09.24a1.21,1.21,0,0,0,0,.18l0,.05v0l0,.11a6.67,6.67,0,0,1-1.88,6.69l-.12.12-.43.39a9.53,9.53,0,0,1-1.19.83l-.49.27a9.93,9.93,0,0,1-5.26,1.06H63.3l-.41,0-.41-.05L62,22l-.43-.1-.49-.12-.45-.15-.56-.21-.48-.21-.26-.13-.1-.06-.3-.16-.48-.29L57.77,20l-.23-.2-.1-.09-.11-.09-.08-.09a7.3,7.3,0,0,1-.65-.71h0a8.61,8.61,0,0,1-.54-.76l-.12-.21-.24-.48-.06-.13,0-.06-.08-.2-.11-.29a7.6,7.6,0,0,1-.33-1.51l0-.61A6.34,6.34,0,0,1,55.48,12.24Z"/><path class="cls-17" d="M54.61,11.31c0,1.2,1,2.4,2.85,3.3a17,17,0,0,0,13.3-.11c1.78-.9,2.66-2.07,2.66-3.24l0-.53a6.6,6.6,0,0,0-.28-1.31l-.2-.49a5.3,5.3,0,0,0-.54-1v0a8,8,0,0,0-3.74-2.88c-.18-.07-.42-.17-.61-.23l-.51-.16L67,4.51l-.51-.11-.52-.09h-.08l-.34,0h-.18a12.74,12.74,0,0,0-3.85.19H61.4l-.06,0a2.34,2.34,0,0,0-.38.09l-.09,0h-.06l-.41.12h-.08a10,10,0,0,0-1.63.66l-.5.27a9.27,9.27,0,0,0-1.08.75l-.41.36-.07.06a6.68,6.68,0,0,0-1.41,1.91h0L55,9.21l-.14.44v0c0,.11-.07.23-.1.32l-.09.52C54.65,10.75,54.62,11.07,54.61,11.31Zm8.48-5.26a2.3,2.3,0,0,1,1.8,0c.5.24.51.64,0,.89a2.3,2.3,0,0,1-1.8,0C62.61,6.69,62.6,6.3,63.09,6.05Z"/><path class="cls-17" d="M62.75,5.27l0-.08,0-.13,0-.07,0-.07v0l0,0L63,4.8l.11-.12.07-.06.15-.11.07,0,.08,0h0l.09,0h0A1.43,1.43,0,0,1,65,4.73l.06.07.05.06L65.2,5l0,.08a1.29,1.29,0,0,1,0,.21V6.48c0,.16-.12.32-.36.44a2.3,2.3,0,0,1-1.8,0c-.25-.12-.38-.28-.38-.44V5.4S62.75,5.31,62.75,5.27Z"/></g></g></g></svg>