<svg xmlns="http://www.w3.org/2000/svg" viewBox="0 0 18.81 35.33" width="18.81" height="35.33">
    <defs>
        <style>
            .cls-4{fill:#ebebeb}.cls-5{fill:#c6c6c6}.cls-12{fill:#0096cb}
        </style>
    </defs>
    <g style="isolation:isolate">
        <g id="Vrstva_1" data-name="Vrstva 1">
            <path d="M13.65,30.18a11.12,11.12,0,0,0-8.73-.08c-2.45,1.17-2.5,3.09-.12,4.3a11.12,11.12,0,0,0,8.73.07C16,33.31,16,31.38,13.65,30.18Z" style="mix-blend-mode:multiply;fill:#b5b5b5"/>
            <path d="M13.33,33.34A10.57,10.57,0,0,1,5,33.27c-1.12-.56-1.67-1.3-1.67-2v.66c0,.73.55,1.47,1.67,2a10.57,10.57,0,0,0,8.33.07c1.18-.56,1.78-1.31,1.78-2.07v-.66C15.11,32,14.52,32.78,13.33,33.34Z" style="fill:#a2a1a1"/>
            <path class="cls-4" d="M13.45,29.24a10.66,10.66,0,0,0-8.33-.07c-2.34,1.11-2.39,2.95-.12,4.1a10.57,10.57,0,0,0,8.33.07C15.66,32.23,15.72,30.39,13.45,29.24Z"/>
            <path class="cls-5" d="M12.2,27.42c0,.4-.26.8-.89,1.1a5.29,5.29,0,0,1-4.15,0c-.59-.29-.86-.68-.83-1.07L5.18,31.16c0,.53.34,1.07,1.14,1.48a7.33,7.33,0,0,0,5.72,0h0c.86-.41,1.27-1,1.22-1.51Z"/>
            <path class="cls-4" d="M11.67,26.65,10.79,26c.48.33.44.79-.09,1.1l-.14.08a3.17,3.17,0,0,1-1.41.25,2.87,2.87,0,0,1-1.21-.28c-.64-.32-.69-.81-.19-1.16l-.88.61c-.8.56-.71,1.33.29,1.84a4.64,4.64,0,0,0,1.92.44,5,5,0,0,0,2.23-.4l.22-.12C12.38,27.9,12.43,27.18,11.67,26.65Z"/>
            <path class="cls-5" d="M10.37,17c0,.13-.1.26-.3.36a1.84,1.84,0,0,1-1.42,0c-.19-.1-.29-.23-.28-.35l-1,9.59c0,.24.17.47.53.65a3.31,3.31,0,0,0,2.62,0c.38-.19.57-.43.56-.67Z"/>
            <path d="M11.39,7.76a5.13,5.13,0,0,1-4,0,1.32,1.32,0,0,1-.8-.85L8.37,17c0,.11.11.21.28.3a1.84,1.84,0,0,0,1.42,0,.48.48,0,0,0,.3-.31L12.24,6.88A1.36,1.36,0,0,1,11.39,7.76Z" style="fill:#b5b5b5"/>
            <path d="M17.93,8.06V8h0s0-.07,0-.11l-.05-.13c0-.08-.09-.18-.12-.26l-.12-.23L17.45,7l-.14-.22a2.13,2.13,0,0,0-.16-.25L17,6.35a5.81,5.81,0,0,0-.36-.46l-.41-.43c1.43,1.42.92,3.18-1.51,4.34a12.5,12.5,0,0,1-5,1H8.89l-.45,0-.32,0-.44,0-.32,0-.43-.07-.31-.05-.42-.1-.29-.07-.42-.11-.26-.08-.44-.16L4.58,10,4,9.71C1.67,8.53,1.23,6.8,2.63,5.42l0,0h0l-.19.19-.19.21L2,6.09l-.17.22-.17.24-.15.23A2.07,2.07,0,0,0,1.38,7l-.13.23-.13.25L1,7.75.9,8l-.09.25a.84.84,0,0,0-.05.17l0,.05v0l0,.11a6.68,6.68,0,0,0,1.89,6.69l.11.12.44.39a9.53,9.53,0,0,0,1.19.83l.49.27A10,10,0,0,0,10.07,18h0l.41,0,.41-.05.44-.08.43-.09.48-.13.46-.14.56-.21.48-.22.26-.13.1-.05.3-.16.48-.3c.22-.15.51-.37.72-.53l.23-.21.1-.09.11-.09.08-.09a6.37,6.37,0,0,0,.65-.71h0a8.61,8.61,0,0,0,.54-.76,2,2,0,0,0,.11-.21,5.39,5.39,0,0,0,.25-.48l.06-.12,0-.06c0-.07.06-.14.08-.2l.12-.3A7.6,7.6,0,0,0,18.34,11l0-.61A6.19,6.19,0,0,0,17.93,8.06Z" style="fill:#8dc5ef"/>
            <path d="M18.75,6.33l-.09-.51c0-.1-.06-.21-.1-.32v0c0-.15-.1-.3-.15-.43l-.21-.49h0a6.35,6.35,0,0,0-1.42-1.9l-.06-.07-.41-.36a9.36,9.36,0,0,0-1.08-.74l-.5-.27A9.53,9.53,0,0,0,13.1.55l0,0h0L12.61.41l-.07,0-.08,0L12.08.28H12A12.74,12.74,0,0,0,8.1.07H7.92l-.34,0H7.5L7,.23,6.47.34,5.92.48,5.41.64,4.8.87A8.08,8.08,0,0,0,1.06,3.76v0a6,6,0,0,0-.55,1l-.19.49A5.72,5.72,0,0,0,0,6.56l0,.53c0,1.16.88,2.33,2.66,3.24a17,17,0,0,0,13.3.11c1.89-.9,2.84-2.1,2.85-3.31C18.8,6.89,18.77,6.57,18.75,6.33ZM10.3,2.76a2.27,2.27,0,0,1-1.79,0C8,2.49,8,2.1,8.53,1.86a2.34,2.34,0,0,1,1.8,0C10.82,2.12,10.81,2.52,10.3,2.76Z" style="fill:#d4d4d5"/>
            <path d="M10.67,1.1l0-.08,0-.13,0-.08a.43.43,0,0,1,0-.07v0l0,0,0-.07L10.34.5l-.06,0L10.13.34l-.07,0L10,.26h0l-.09,0h0A1.4,1.4,0,0,0,8.41.56L8.35.62l0,.07c0,.05,0,.06-.08.16l0,.08a1.12,1.12,0,0,0,0,.21V2.31c0,.15.12.31.36.43a2.3,2.3,0,0,0,1.8,0c.25-.12.38-.29.38-.45V1.1Z" style="fill:#e7e7e6"/>
            <g style="mix-blend-mode:multiply">
                <path d="M13.65,30.18a11.12,11.12,0,0,0-8.73-.08c-2.45,1.17-2.5,3.09-.12,4.3a11.12,11.12,0,0,0,8.73.07C16,33.31,16,31.38,13.65,30.18Z" style="fill:#0096cb;mix-blend-mode:multiply"/>
                <path class="cls-12" d="M13.33,33.34A10.57,10.57,0,0,1,5,33.27c-1.12-.56-1.67-1.3-1.67-2v.66c0,.73.55,1.47,1.67,2a10.57,10.57,0,0,0,8.33.07c1.18-.56,1.78-1.31,1.78-2.07v-.66C15.11,32,14.52,32.78,13.33,33.34Z"/>
                <path class="cls-12" d="M13.45,29.24a10.66,10.66,0,0,0-8.33-.07c-2.34,1.11-2.39,2.95-.12,4.1a10.57,10.57,0,0,0,8.33.07C15.66,32.23,15.72,30.39,13.45,29.24Z"/>
                <path class="cls-12" d="M12.2,27.42c0,.4-.26.8-.89,1.1a5.29,5.29,0,0,1-4.15,0c-.59-.29-.86-.68-.83-1.07L5.18,31.16c0,.53.34,1.07,1.14,1.48a7.33,7.33,0,0,0,5.72,0h0c.86-.41,1.27-1,1.22-1.51Z"/>
                <path class="cls-12" d="M11.67,26.65,10.79,26c.48.33.44.79-.09,1.1l-.14.08a3.17,3.17,0,0,1-1.41.25,2.87,2.87,0,0,1-1.21-.28c-.64-.32-.69-.81-.19-1.16l-.88.61c-.8.56-.71,1.33.29,1.84a4.64,4.64,0,0,0,1.92.44,5,5,0,0,0,2.23-.4l.22-.12C12.38,27.9,12.43,27.18,11.67,26.65Z"/>
                <path class="cls-12" d="M10.37,17c0,.13-.1.26-.3.36a1.84,1.84,0,0,1-1.42,0c-.19-.1-.29-.23-.28-.35l-1,9.59c0,.24.17.47.53.65a3.31,3.31,0,0,0,2.62,0c.38-.19.57-.43.56-.67Z"/>
                <path class="cls-12" d="M11.39,7.76a5.13,5.13,0,0,1-4,0,1.32,1.32,0,0,1-.8-.85L8.37,17c0,.11.11.21.28.3a1.84,1.84,0,0,0,1.42,0,.48.48,0,0,0,.3-.31L12.24,6.88A1.36,1.36,0,0,1,11.39,7.76Z"/>
                <path class="cls-12" d="M17.93,8.06V8h0s0-.07,0-.11l-.05-.13c0-.08-.09-.18-.12-.26l-.12-.23L17.45,7l-.14-.22a2.13,2.13,0,0,0-.16-.25L17,6.35a5.81,5.81,0,0,0-.36-.46l-.41-.43c1.43,1.42.92,3.18-1.51,4.34a12.5,12.5,0,0,1-5,1H8.89l-.45,0-.32,0-.44,0-.32,0-.43-.07-.31-.05-.42-.1-.29-.07-.42-.11-.26-.08-.44-.16L4.58,10,4,9.71C1.67,8.53,1.23,6.8,2.63,5.42l0,0h0l-.19.19-.19.21L2,6.09l-.17.22-.17.24-.15.23A2.07,2.07,0,0,0,1.38,7l-.13.23-.13.25L1,7.75.9,8l-.09.25a.84.84,0,0,0-.05.17l0,.05v0l0,.11a6.68,6.68,0,0,0,1.89,6.69l.11.12.44.39a9.53,9.53,0,0,0,1.19.83l.49.27A10,10,0,0,0,10.07,18h0l.41,0,.41-.05.44-.08.43-.09.48-.13.46-.14.56-.21.48-.22.26-.13.1-.05.3-.16.48-.3c.22-.15.51-.37.72-.53l.23-.21.1-.09.11-.09.08-.09a6.37,6.37,0,0,0,.65-.71h0a8.61,8.61,0,0,0,.54-.76,2,2,0,0,0,.11-.21,5.39,5.39,0,0,0,.25-.48l.06-.12,0-.06c0-.07.06-.14.08-.2l.12-.3A7.6,7.6,0,0,0,18.34,11l0-.61A6.19,6.19,0,0,0,17.93,8.06Z"/>
                <path class="cls-12" d="M18.75,6.33l-.09-.51c0-.1-.06-.21-.1-.32v0c0-.15-.1-.3-.15-.43l-.21-.49h0a6.35,6.35,0,0,0-1.42-1.9l-.06-.07-.41-.36a9.36,9.36,0,0,0-1.08-.74l-.5-.27A9.53,9.53,0,0,0,13.1.55l0,0h0L12.61.41l-.07,0-.08,0L12.08.28H12A12.74,12.74,0,0,0,8.1.07H7.92l-.34,0H7.5L7,.23,6.47.34,5.92.48,5.41.64,4.8.87A8.08,8.08,0,0,0,1.06,3.76v0a6,6,0,0,0-.55,1l-.19.49A5.72,5.72,0,0,0,0,6.56l0,.53c0,1.16.88,2.33,2.66,3.24a17,17,0,0,0,13.3.11c1.89-.9,2.84-2.1,2.85-3.31C18.8,6.89,18.77,6.57,18.75,6.33ZM10.3,2.76a2.27,2.27,0,0,1-1.79,0C8,2.49,8,2.1,8.53,1.86a2.34,2.34,0,0,1,1.8,0C10.82,2.12,10.81,2.52,10.3,2.76Z"/>
                <path class="cls-12" d="M10.67,1.1l0-.08,0-.13,0-.08a.43.43,0,0,1,0-.07v0l0,0,0-.07L10.34.5l-.06,0L10.13.34l-.07,0L10,.26h0l-.09,0h0A1.4,1.4,0,0,0,8.41.56L8.35.62l0,.07c0,.05,0,.06-.08.16l0,.08a1.12,1.12,0,0,0,0,.21V2.31c0,.15.12.31.36.43a2.3,2.3,0,0,0,1.8,0c.25-.12.38-.29.38-.45V1.1Z"/>
            </g>
        </g>
    </g>
</svg>
