<svg xmlns="http://www.w3.org/2000/svg" viewBox="0 0 128 120.36"><defs><style>.cls-1{isolation:isolate;}.cls-2{fill:#a2c037;}.cls-3{fill:#b5b295;}.cls-4{fill:#d6d3ad;}.cls-5{fill:#f7e080;mix-blend-mode:color;}.cls-10,.cls-6{fill:#b5b5b5;}.cls-6{mix-blend-mode:multiply;}.cls-7{fill:#a2a1a1;}.cls-8{fill:#ebebeb;}.cls-9{fill:#c6c6c6;}.cls-11{fill:#8dc5ef;}.cls-12{fill:#d4d4d5;}.cls-13{fill:#e7e7e6;}.cls-14{fill:#84b451;}.cls-15{fill:#a1c268;}.cls-16{fill:#fff;opacity:0.35;mix-blend-mode:overlay;}</style></defs><g class="cls-1"><g id="Vrstva_1" data-name="Vrstva 1"><g id="layer1"><path id="path10" class="cls-2" d="M0,56.36l64,32,64-32-64-32Z"/><path id="path837" class="cls-3" d="M0,88.36l64,32v-32l-64-32Z"/><path id="path839" class="cls-4" d="M64,120.36l64-32v-32l-64,32Z"/></g><polygon class="cls-5" points="104.86 45.26 83.88 56.43 63.24 67.42 42.93 77.83 21.78 67.46 42.76 56.29 63.4 45.3 83.71 34.89 104.86 45.26"/><path class="cls-6" d="M22.42,55.12a11.12,11.12,0,0,0-8.73-.07c-2.44,1.16-2.5,3.09-.12,4.29a11.12,11.12,0,0,0,8.73.08C24.74,58.25,24.8,56.33,22.42,55.12Z"/><path class="cls-7" d="M22.1,58.29a10.66,10.66,0,0,1-8.33-.07c-1.12-.57-1.67-1.3-1.67-2v.66c0,.73.55,1.46,1.67,2A10.66,10.66,0,0,0,22.1,59c1.19-.57,1.78-1.32,1.79-2.07v-.66C23.89,57,23.29,57.72,22.1,58.29Z"/><path class="cls-8" d="M22.22,54.19a10.57,10.57,0,0,0-8.33-.07c-2.34,1.11-2.39,3-.12,4.1a10.66,10.66,0,0,0,8.33.07C24.44,57.18,24.49,55.34,22.22,54.19Z"/><path class="cls-9" d="M21,52.37c0,.4-.26.8-.89,1.09a5.29,5.29,0,0,1-4.15,0c-.59-.3-.86-.69-.83-1.07L14,56.11c-.05.53.33,1.06,1.14,1.47a7.22,7.22,0,0,0,5.71.05h0c.86-.41,1.27-1,1.22-1.5Z"/><path class="cls-8" d="M20.44,51.6,19.56,51c.48.34.45.79-.09,1.11l-.14.07a3.17,3.17,0,0,1-1.41.26,3,3,0,0,1-1.21-.28c-.63-.32-.69-.82-.18-1.17l-.89.62c-.8.55-.71,1.33.29,1.84a4.8,4.8,0,0,0,1.92.44,5,5,0,0,0,2.23-.41l.22-.11C21.15,52.85,21.2,52.13,20.44,51.6Z"/><path class="cls-9" d="M19.14,41.9c0,.13-.1.26-.3.36a1.84,1.84,0,0,1-1.42,0c-.19-.1-.28-.22-.28-.35l-1,9.6c0,.23.17.47.53.65a3.36,3.36,0,0,0,2.62,0c.38-.18.57-.42.57-.66Z"/><path class="cls-10" d="M20.16,32.7a5.13,5.13,0,0,1-4,0,1.34,1.34,0,0,1-.8-.86l1.81,10.13a.47.47,0,0,0,.28.3,1.84,1.84,0,0,0,1.42,0c.18-.09.28-.2.3-.31L21,31.83A1.35,1.35,0,0,1,20.16,32.7Z"/><path class="cls-11" d="M26.71,33v0h0s0-.07,0-.11l0-.12-.12-.26-.12-.24L26.22,32l-.14-.23-.16-.25-.16-.22c-.12-.16-.13-.17-.36-.45A5.92,5.92,0,0,0,25,30.4c1.43,1.42.92,3.19-1.51,4.34a12.51,12.51,0,0,1-5,1h-.79l-.45,0-.32,0-.44,0-.32,0-.43-.06-.31-.06L15,35.43l-.29-.07-.42-.12L14,35.16,13.57,35l-.22-.08a5.46,5.46,0,0,1-.6-.27c-2.31-1.17-2.75-2.9-1.35-4.28l0,0h0l-.19.2-.19.2L10.8,31l-.17.22a2.15,2.15,0,0,0-.18.24l-.15.22a2.07,2.07,0,0,1-.15.25L10,32.2l-.13.26-.11.24c0,.08-.07.18-.11.26l-.09.24a1.21,1.21,0,0,1-.05.18l0,0v0l0,.11a6.67,6.67,0,0,0,1.88,6.69l.12.12.43.39a8.58,8.58,0,0,0,1.19.83l.49.27a9.93,9.93,0,0,0,5.26,1.06h.05l.41,0,.41,0,.44-.07.43-.09.49-.13.45-.15c.17-.06.4-.14.56-.21l.48-.21.26-.13.1-.06.3-.16.48-.29c.22-.16.51-.37.72-.54l.23-.2.1-.09.11-.09.09-.09a7.32,7.32,0,0,0,.64-.71h0a8.61,8.61,0,0,0,.54-.76l.12-.21.24-.48.06-.13,0-.06.08-.2.11-.29A7,7,0,0,0,27.11,36l0-.61A6.34,6.34,0,0,0,26.71,33Z"/><path class="cls-12" d="M27.52,31.28l-.09-.52c0-.09-.06-.2-.09-.32v0L27.19,30,27,29.5h0a6.68,6.68,0,0,0-1.41-1.91l-.07-.06-.41-.36A9.27,9.27,0,0,0,24,26.42l-.5-.27a10,10,0,0,0-1.63-.66h-.08l-.41-.12h-.06l-.09,0a2.34,2.34,0,0,0-.38-.09l-.06,0h-.07A12.74,12.74,0,0,0,16.87,25h-.18l-.34,0h-.07l-.53.09-.5.11-.56.15-.51.16c-.19.06-.43.16-.61.23a8.08,8.08,0,0,0-3.74,2.89v0a5.3,5.3,0,0,0-.54,1l-.2.49A6.6,6.6,0,0,0,8.8,31.5l0,.53c0,1.17.88,2.34,2.66,3.24a17,17,0,0,0,13.3.11c1.89-.9,2.84-2.1,2.85-3.3C27.57,31.84,27.55,31.52,27.52,31.28ZM19.08,27.7a2.3,2.3,0,0,1-1.8,0c-.49-.25-.48-.65,0-.89a2.27,2.27,0,0,1,1.79,0C19.59,27.07,19.58,27.46,19.08,27.7Z"/><path class="cls-13" d="M19.44,26l0-.08a.65.65,0,0,0,0-.13l0-.07,0-.07v0l0,0-.05-.06-.11-.12-.07-.06-.15-.11-.07,0-.08,0h0l-.09,0h0a1.43,1.43,0,0,0-1.42.35l-.06.07-.05.07-.08.15,0,.08a1.29,1.29,0,0,0-.05.21v1.17c0,.16.12.32.36.44a2.3,2.3,0,0,0,1.8,0c.25-.12.38-.28.38-.44V26.18S19.44,26.08,19.44,26Z"/><ellipse class="cls-6" cx="104.79" cy="56.26" rx="5.18" ry="10.52" transform="translate(48.32 160.93) rotate(-89.88)"/><path class="cls-14" d="M107.92,58s10-13,12.49-24.09a38.91,38.91,0,0,0-5.16,5.52,66.16,66.16,0,0,0,.35-18.79C106,30.93,104.05,44,103.78,51.16c-.24-5.16-1-12.75-3.14-17.13-2,6.62-.81,13.66.29,17.77-1.88-5.4-6-15.56-11.73-20.54-.52,7,4,26.64,13.65,28.19h5.33s14-7.07,15-8.73C116.64,48.29,107.92,58,107.92,58Z"/><path class="cls-15" d="M104.1,51.41c1.45-6.33,2.41-15.25.9-20.67-3.15,5.24-4.09,12.1-4.25,17.57-.62-3.19-1.58-6.21-3.07-6.93-1.75,7.87,1.66,15.33,1.66,15.33a35,35,0,0,0-11.12-7.79,30.55,30.55,0,0,0,12.67,10.53h2.52c1.38-2.26,5.45-9.16,6.66-14.09A26.3,26.3,0,0,0,104.1,51.41Z"/><path class="cls-16" d="M106.59,41.31s2-13.81,8.87-19.28A74.93,74.93,0,0,1,106.59,41.31Z"/><path class="cls-16" d="M114.68,28.5a51.78,51.78,0,0,0-3.22,15.61C114.28,38.91,114.68,28.5,114.68,28.5Z"/><path class="cls-16" d="M89.32,32.55s.89,12.72,6.54,20.28C93.46,39.13,89.32,32.55,89.32,32.55Z"/><path class="cls-16" d="M104.71,31.75A32.33,32.33,0,0,0,101.52,47C102.41,42.78,104.71,31.75,104.71,31.75Z"/><path class="cls-16" d="M98,42.38s-1.68,6,1.15,10.63A41.46,41.46,0,0,0,98,42.38Z"/></g></g></svg>