<svg xmlns="http://www.w3.org/2000/svg" viewBox="0 0 128 126.61"><defs><style>.cls-1{isolation:isolate;}.cls-2{fill:#286992;fill-opacity:0.31;}.cls-3{fill:#a2c037;}.cls-4{fill:#b5b295;}.cls-5{fill:#d6d3ad;}.cls-6{fill:#f7e080;mix-blend-mode:color;}.cls-11,.cls-7{fill:#b5b5b5;}.cls-7{mix-blend-mode:multiply;}.cls-8{fill:#a2a1a1;}.cls-9{fill:#ebebeb;}.cls-10{fill:#c6c6c6;}.cls-12{fill:#8dc5ef;}.cls-13{fill:#d4d4d5;}.cls-14{fill:#e7e7e6;}.cls-15{fill:#84b451;}.cls-16{fill:#a1c268;}.cls-17{fill:#fff;opacity:0.35;mix-blend-mode:overlay;}</style></defs><g class="cls-1"><g id="Vrstva_1" data-name="Vrstva 1"><g id="layer1"><path id="path839" class="cls-2" d="M87.66,72.81l64-32v-2l-64,32Z"/></g><g id="layer1-2" data-name="layer1"><path id="path10" class="cls-3" d="M0,62.61l64,32,64-32-64-32Z"/><path id="path837" class="cls-4" d="M0,94.61l64,32v-32l-64-32Z"/><path id="path839-2" data-name="path839" class="cls-5" d="M64,126.61l64-32v-32l-64,32Z"/></g><polygon class="cls-6" points="22.8 51.44 43.52 41.06 63.74 51.47 84.05 41.06 105.2 51.44 63.78 74.53 22.8 51.44"/><path class="cls-7" d="M68.25,38.78a11.12,11.12,0,0,0-8.73-.07c-2.45,1.16-2.5,3.09-.13,4.3a11.16,11.16,0,0,0,8.73.07C70.57,41.91,70.62,40,68.25,38.78Z"/><path class="cls-8" d="M67.93,42a10.68,10.68,0,0,1-8.34-.07c-1.11-.57-1.67-1.3-1.66-2v.66c0,.73.55,1.46,1.66,2a10.68,10.68,0,0,0,8.34.07c1.18-.57,1.78-1.32,1.78-2.07v-.66C69.71,40.63,69.11,41.39,67.93,42Z"/><path class="cls-9" d="M68.05,37.85a10.64,10.64,0,0,0-8.34-.07c-2.33,1.11-2.38,2.95-.12,4.1a10.68,10.68,0,0,0,8.34.07C70.26,40.84,70.31,39,68.05,37.85Z"/><path class="cls-10" d="M66.8,36c0,.4-.27.8-.89,1.1a5.34,5.34,0,0,1-4.15,0c-.59-.3-.86-.69-.83-1.07l-1.15,3.75c-.05.53.33,1.07,1.14,1.48a7.33,7.33,0,0,0,5.72,0h0c.86-.41,1.26-1,1.22-1.51Z"/><path class="cls-9" d="M66.27,35.26l-.89-.62c.48.34.45.79-.08,1.11l-.14.07a3.2,3.2,0,0,1-1.41.26,3,3,0,0,1-1.21-.28c-.64-.32-.7-.81-.19-1.17l-.88.62c-.81.55-.72,1.33.29,1.84a4.64,4.64,0,0,0,1.92.44,5.13,5.13,0,0,0,2.23-.4l.22-.12C67,36.51,67,35.79,66.27,35.26Z"/><path class="cls-10" d="M65,25.56c0,.13-.1.26-.31.36a1.77,1.77,0,0,1-1.41,0c-.19-.09-.29-.22-.28-.35l-1,9.6c0,.23.17.47.53.65a3.35,3.35,0,0,0,2.62,0c.38-.18.57-.42.56-.66Z"/><path class="cls-11" d="M66,16.36a5.13,5.13,0,0,1-4,0,1.34,1.34,0,0,1-.8-.86L63,25.6a.45.45,0,0,0,.28.3,1.77,1.77,0,0,0,1.41,0c.18-.09.28-.2.3-.31l1.88-10.12A1.35,1.35,0,0,1,66,16.36Z"/><path class="cls-12" d="M72.53,16.67v0h0s0-.08,0-.11l-.06-.13-.11-.26-.12-.24-.14-.25-.14-.23-.16-.25L71.59,15l-.36-.45c-.12-.14-.18-.2-.41-.44,1.43,1.42.91,3.19-1.51,4.34a12.34,12.34,0,0,1-5,1.05h-.79l-.45,0-.33,0-.43,0-.32,0-.43-.07-.31-.06-.42-.09L60.5,19l-.41-.12-.27-.08-.43-.15-.21-.08-.61-.28c-2.31-1.17-2.75-2.9-1.34-4.28l0,0h0l-.18.19-.19.21-.2.23-.17.22-.17.24-.15.22-.15.25-.13.24-.13.25-.11.24c0,.08-.08.18-.11.26l-.09.25-.06.17v.05l0,0,0,.12a6.66,6.66,0,0,0,1.89,6.68l.11.12.44.39a8.58,8.58,0,0,0,1.19.83l.49.27a9.9,9.9,0,0,0,5.26,1.06h0l.41,0,.41,0,.43-.07.43-.09.49-.13.46-.14.56-.22.48-.21.25-.13.11-.06.3-.16.47-.29c.23-.16.52-.37.73-.54l.23-.2.1-.09.1-.09.09-.09a9,9,0,0,0,.65-.71h0a6.86,6.86,0,0,0,.53-.76c0-.07.08-.13.12-.21a5.39,5.39,0,0,0,.25-.48l.06-.13,0-.06a1.19,1.19,0,0,0,.08-.2l.12-.29a7,7,0,0,0,.32-1.51L73,19A6,6,0,0,0,72.53,16.67Z"/><path class="cls-13" d="M73.35,14.94l-.1-.52a3.29,3.29,0,0,0-.09-.32v0a4.56,4.56,0,0,0-.14-.44l-.21-.48h0a6.52,6.52,0,0,0-1.42-1.91l-.06-.06-.41-.36a9.6,9.6,0,0,0-1.09-.74l-.49-.27a9.53,9.53,0,0,0-1.63-.66l0,0h0L67.2,9h-.06l-.08,0-.39-.09h0l-.08,0a13,13,0,0,0-3.84-.19h-.18l-.34.05H62.1l-.52.08-.51.11-.56.15L60,9.25l-.61.23a8.06,8.06,0,0,0-3.73,2.89l0,0a6.88,6.88,0,0,0-.54,1l-.19.49a6,6,0,0,0-.29,1.31l0,.53c0,1.17.88,2.34,2.66,3.24a17,17,0,0,0,13.29.12c1.9-.91,2.85-2.11,2.85-3.31C73.4,15.5,73.37,15.18,73.35,14.94ZM64.9,11.37a2.27,2.27,0,0,1-1.79,0c-.49-.25-.48-.64,0-.88a2.3,2.3,0,0,1,1.8,0C65.42,10.73,65.4,11.13,64.9,11.37Z"/><path class="cls-14" d="M65.26,9.71V9.62l0-.12,0-.08,0-.07,0,0,0,0,0-.07a.63.63,0,0,0-.11-.12l-.06-.06L64.72,9l-.07,0-.08,0h0l-.09,0h0A1.39,1.39,0,0,0,63,9.16L63,9.23l-.05.07a.57.57,0,0,0-.09.15l0,.08a.71.71,0,0,0,0,.21v1.17c0,.16.12.32.36.44a2.27,2.27,0,0,0,1.79,0c.26-.13.39-.29.39-.45V9.84A.57.57,0,0,0,65.26,9.71Z"/><ellipse class="cls-7" cx="106.28" cy="62.35" rx="5.18" ry="10.52" transform="translate(43.7 168.5) rotate(-89.88)"/><path class="cls-15" d="M109.41,64.11s10-13,12.48-24.09a38.91,38.91,0,0,0-5.16,5.52,66.16,66.16,0,0,0,.35-18.79c-9.6,10.28-11.55,23.3-11.81,30.51-.24-5.16-1-12.75-3.14-17.13-2,6.62-.82,13.66.28,17.77-1.87-5.4-6-15.56-11.73-20.54-.52,7,4,26.64,13.66,28.19h5.33s14-7.08,15-8.73C118.12,54.39,109.41,64.11,109.41,64.11Z"/><path class="cls-16" d="M105.59,57.51c1.45-6.33,2.41-15.25.89-20.67-3.15,5.24-4.08,12.1-4.24,17.57-.62-3.19-1.59-6.21-3.07-6.93-1.76,7.87,1.66,15.33,1.66,15.33A35.15,35.15,0,0,0,89.71,55a30.59,30.59,0,0,0,12.66,10.53h2.53c1.38-2.26,5.45-9.17,6.65-14.09A26.43,26.43,0,0,0,105.59,57.51Z"/><path class="cls-17" d="M108.08,47.41s2-13.81,8.87-19.28A74.93,74.93,0,0,1,108.08,47.41Z"/><path class="cls-17" d="M116.16,34.6a52.14,52.14,0,0,0-3.22,15.61C115.77,45,116.16,34.6,116.16,34.6Z"/><path class="cls-17" d="M90.81,38.65s.89,12.72,6.54,20.28C94.94,45.23,90.81,38.65,90.81,38.65Z"/><path class="cls-17" d="M106.19,37.84A32.53,32.53,0,0,0,103,53.06C103.89,48.88,106.19,37.84,106.19,37.84Z"/><path class="cls-17" d="M99.44,48.47s-1.67,6,1.15,10.64A41.58,41.58,0,0,0,99.44,48.47Z"/></g></g></svg>