<svg xmlns="http://www.w3.org/2000/svg" viewBox="0 0 128 124.11" width="128" height="124.11">
    <defs>
        <style>
            .cls-8{fill:#ebebeb}
        </style>
    </defs>
    <g style="isolation:isolate">
        <g id="Vrstva_1" data-name="Vrstva 1">
            <g id="layer1">
                <path id="path10" d="M0,60.11l64,32,64-32-64-32Z" style="fill:#a2c037"/>
                <path id="path837" d="M0,92.11l64,32v-32l-64-32Z" style="fill:#b5b295"/>
                <path id="path839" d="M64,124.11l64-32v-32l-64,32Z" style="fill:#d6d3ad"/>
            </g>
            <polygon points="105.2 71.13 84.48 81.5 64.26 71.09 43.95 81.5 22.8 71.13 64.22 48.04 105.2 71.13" style="fill:#f7e080;mix-blend-mode:color"/>
            <path d="M68.25,36.28a11.12,11.12,0,0,0-8.73-.08c-2.45,1.17-2.5,3.09-.13,4.3a11.12,11.12,0,0,0,8.73.07C70.57,39.41,70.62,37.48,68.25,36.28Z" style="mix-blend-mode:multiply;fill:#b5b5b5"/>
            <path d="M67.93,39.44a10.59,10.59,0,0,1-8.34-.07c-1.11-.56-1.67-1.3-1.66-2V38c0,.73.55,1.47,1.66,2a10.59,10.59,0,0,0,8.34.07c1.18-.56,1.78-1.31,1.78-2.07v-.66C69.71,38.13,69.11,38.88,67.93,39.44Z" style="fill:#a2a1a1"/>
            <path class="cls-8" d="M68.05,35.34a10.68,10.68,0,0,0-8.34-.07c-2.33,1.11-2.38,2.95-.12,4.1a10.59,10.59,0,0,0,8.34.07C70.26,38.33,70.31,36.49,68.05,35.34Z"/>
            <path d="M66.8,33.52c0,.4-.27.8-.89,1.1a5.29,5.29,0,0,1-4.15,0c-.59-.29-.86-.69-.83-1.07l-1.15,3.75c-.05.53.33,1.07,1.14,1.48a7.33,7.33,0,0,0,5.72,0h0c.86-.41,1.26-1,1.22-1.51Z" style="fill:#c6c6c6"/>
            <path class="cls-8" d="M66.27,32.75l-.89-.61c.48.33.45.79-.08,1.1l-.14.08a3.2,3.2,0,0,1-1.41.25,2.87,2.87,0,0,1-1.21-.28c-.64-.32-.7-.81-.19-1.16l-.88.61c-.81.56-.72,1.33.29,1.84a4.64,4.64,0,0,0,1.92.44,5,5,0,0,0,2.23-.4l.22-.12C67,34,67,33.28,66.27,32.75Z"/>
            <path d="M66,13.86a5.13,5.13,0,0,1-4,0,1.32,1.32,0,0,1-.8-.85L63,23.1c0,.11.11.21.28.3a1.81,1.81,0,0,0,1.41,0c.18-.09.28-.2.3-.31L66.84,13A1.36,1.36,0,0,1,66,13.86Z" style="fill:#b5b5b5"/>
            <path d="M68.39,23.14l.25-.13.11-.05.3-.16.47-.3c.23-.15.52-.37.73-.53l.23-.21.1-.09.1-.09.09-.09a7.51,7.51,0,0,0,.65-.71h0A6.86,6.86,0,0,0,72,20a2,2,0,0,0,.12-.21,5.39,5.39,0,0,0,.25-.48l.06-.12,0-.06a1.8,1.8,0,0,0,.08-.21l.12-.29a7,7,0,0,0,.32-1.51l0-.61a6,6,0,0,0-.43-2.36v0h0s0-.07,0-.11l-.06-.13-.11-.26-.12-.23-.14-.26-.14-.22-.16-.25-.16-.22a5.81,5.81,0,0,0-.36-.46l-.41-.43c1.43,1.41.91,3.18-1.51,4.34a12.5,12.5,0,0,1-5,1h-.79l-.45,0-.33,0-.43,0-.32,0-.43-.07-.31-.05-.42-.1-.3-.07-.41-.11-.27-.08-.43-.16-.21-.08c-.21-.09-.41-.18-.6-.28-2.32-1.17-2.76-2.9-1.35-4.28l0,0h0l-.18.19-.19.21-.2.23-.17.22-.17.24-.15.23a2.07,2.07,0,0,0-.15.25l-.13.23-.13.25-.11.24c0,.08-.08.19-.11.26l-.09.25-.06.17v.05l0,.05,0,.11a6.68,6.68,0,0,0,1.89,6.69l.11.12.44.39a9.53,9.53,0,0,0,1.19.83l.49.27a10,10,0,0,0,5.26,1.06h0l.41,0,.41,0,.43-.08.43-.09.49-.13.46-.14" style="fill:#8dc5ef"/>
            <path d="M73.35,12.43l-.1-.51a2.23,2.23,0,0,0-.09-.32v0a4.34,4.34,0,0,0-.14-.43l-.21-.49h0a6.35,6.35,0,0,0-1.42-1.9l-.06-.07-.41-.36a9.6,9.6,0,0,0-1.09-.74l-.49-.27a9.53,9.53,0,0,0-1.63-.66l0,0h0l-.42-.11-.06,0-.08,0-.39-.09h-.13a12.35,12.35,0,0,0-3.84-.19h-.18l-.34,0H62.1l-.52.09-.51.1-.56.15L60,6.74,59.39,7a8.06,8.06,0,0,0-3.73,2.89l0,0a7.15,7.15,0,0,0-.54,1l-.19.49a5.72,5.72,0,0,0-.29,1.31l0,.53c0,1.16.88,2.33,2.66,3.23a16.94,16.94,0,0,0,13.29.12c1.9-.9,2.85-2.1,2.85-3.31C73.4,13,73.37,12.67,73.35,12.43ZM64.9,8.86a2.27,2.27,0,0,1-1.79,0c-.49-.25-.48-.64,0-.88a2.34,2.34,0,0,1,1.8,0C65.42,8.22,65.4,8.62,64.9,8.86Z" style="fill:#d4d4d5"/>
            <path d="M65.26,7.2V7.12l0-.13,0-.08,0-.07,0,0,0,0,0-.07-.11-.12-.06,0a.74.74,0,0,0-.16-.11l-.07,0-.08,0h0l-.09,0h0A1.39,1.39,0,0,0,63,6.66L63,6.72l-.05.07a.69.69,0,0,0-.09.16l0,.08a.65.65,0,0,0,0,.21V8.41c0,.15.12.31.36.43a2.27,2.27,0,0,0,1.79,0c.26-.12.39-.29.39-.45V7.33A.57.57,0,0,0,65.26,7.2Z" style="fill:#e7e7e6"/>
        </g>
    </g>
</svg>
