<svg xmlns="http://www.w3.org/2000/svg" viewBox="0 0 128 118.1"><defs><style>.cls-1{isolation:isolate;}.cls-2{fill:#a2c037;}.cls-3{fill:#b5b295;}.cls-4{fill:#d6d3ad;}.cls-5{fill:#f7e080;mix-blend-mode:color;}.cls-10,.cls-6{fill:#b5b5b5;}.cls-6{mix-blend-mode:multiply;}.cls-7{fill:#a2a1a1;}.cls-8{fill:#ebebeb;}.cls-9{fill:#c6c6c6;}.cls-11{fill:#8dc5ef;}.cls-12{fill:#d4d4d5;}.cls-13{fill:#e7e7e6;}.cls-14{fill:#84b451;}.cls-15{fill:#a1c268;}.cls-16{fill:#fff;opacity:0.35;mix-blend-mode:overlay;}</style></defs><g class="cls-1"><g id="Vrstva_1" data-name="Vrstva 1"><g id="layer1"><path id="path10" class="cls-2" d="M128,54.1l-64,32L0,54.1l64-32Z"/><path id="path837" class="cls-3" d="M128,86.1l-64,32v-32l64-32Z"/><path id="path839" class="cls-4" d="M64,118.1,0,86.1v-32l64,32Z"/></g><polygon class="cls-5" points="23.14 43 44.12 54.17 64.76 65.16 85.07 75.57 106.22 65.2 85.24 54.03 64.6 43.04 44.29 32.63 23.14 43"/><path class="cls-6" d="M105.58,52.86a11.16,11.16,0,0,1,8.73-.08c2.44,1.17,2.5,3.09.12,4.3a11.16,11.16,0,0,1-8.73.08C103.26,56,103.2,54.07,105.58,52.86Z"/><path class="cls-7" d="M105.9,56a10.66,10.66,0,0,0,8.33-.07c1.12-.57,1.67-1.3,1.67-2v.66c0,.73-.55,1.46-1.67,2a10.66,10.66,0,0,1-8.33.07c-1.19-.57-1.78-1.32-1.79-2.08V54C104.11,54.71,104.71,55.46,105.9,56Z"/><path class="cls-8" d="M105.78,51.92a10.66,10.66,0,0,1,8.33-.07c2.34,1.12,2.39,2.95.12,4.11a10.66,10.66,0,0,1-8.33.07C103.56,54.91,103.51,53.08,105.78,51.92Z"/><path class="cls-9" d="M107,50.11c0,.39.26.79.89,1.09a5.29,5.29,0,0,0,4.15,0c.59-.3.86-.69.83-1.08L114,53.84c0,.53-.33,1.07-1.14,1.48a7.3,7.3,0,0,1-5.71,0h0c-.86-.41-1.27-1-1.22-1.51Z"/><path class="cls-8" d="M107.56,49.33l.88-.61c-.48.33-.45.79.09,1.11l.14.07a3.17,3.17,0,0,0,1.41.25,2.87,2.87,0,0,0,1.21-.27c.63-.33.69-.82.18-1.17l.89.61c.8.56.71,1.34-.29,1.85a4.64,4.64,0,0,1-1.92.43,4.83,4.83,0,0,1-2.23-.4l-.22-.11C106.85,50.59,106.8,49.86,107.56,49.33Z"/><path class="cls-9" d="M108.86,39.63c0,.13.1.26.3.36a1.8,1.8,0,0,0,1.42,0c.19-.1.28-.22.28-.35l1,9.59c0,.24-.17.47-.53.66a3.36,3.36,0,0,1-2.62,0c-.38-.18-.57-.43-.57-.67Z"/><path class="cls-10" d="M107.84,30.44a5.17,5.17,0,0,0,4,0,1.36,1.36,0,0,0,.8-.86l-1.81,10.13a.47.47,0,0,1-.28.3,1.8,1.8,0,0,1-1.42,0,.45.45,0,0,1-.3-.31L107,29.56A1.36,1.36,0,0,0,107.84,30.44Z"/><path class="cls-11" d="M101.29,30.74v0h0s0-.07,0-.11l.05-.12c0-.08.08-.19.12-.26l.12-.24.14-.25.14-.23a2.13,2.13,0,0,1,.16-.25l.16-.22a4.56,4.56,0,0,1,.36-.45,5.92,5.92,0,0,1,.41-.44c-1.43,1.42-.92,3.18,1.51,4.34a12.5,12.5,0,0,0,5,1h.79l.45,0,.32,0,.44,0,.32,0,.43-.07.31-.05.42-.09.29-.07.42-.12.26-.08.43-.16.22-.08a5.46,5.46,0,0,0,.6-.27c2.31-1.18,2.75-2.9,1.35-4.28l0,0h0l.19.19.19.21.19.24.17.21c.06.07.13.17.18.24l.15.23.15.25.13.23.13.26.11.24c0,.07.07.18.11.26l.09.24a1.67,1.67,0,0,0,0,.18l0,.05v0l0,.11A6.67,6.67,0,0,1,116.65,38l-.12.12-.43.39a9.53,9.53,0,0,1-1.19.83l-.49.27a9.93,9.93,0,0,1-5.26,1.06h0l-.41,0-.41,0-.44-.08-.43-.09-.49-.13-.45-.14-.56-.21-.48-.22-.26-.12-.1-.06-.3-.16-.48-.29-.72-.54-.23-.21-.1-.08-.11-.1a.76.76,0,0,1-.09-.09,7.19,7.19,0,0,1-.64-.7h0a6.41,6.41,0,0,1-.54-.76c0-.06-.07-.13-.12-.2l-.24-.48-.06-.13,0-.06a1.67,1.67,0,0,0-.08-.2l-.11-.3a6.74,6.74,0,0,1-.33-1.5l0-.61A6.41,6.41,0,0,1,101.29,30.74Z"/><path class="cls-12" d="M100.42,29.81c0,1.21,1,2.41,2.85,3.31a17,17,0,0,0,13.3-.11c1.78-.91,2.66-2.08,2.66-3.24l0-.53a6.45,6.45,0,0,0-.28-1.31l-.2-.49a5.47,5.47,0,0,0-.54-1v0a8.08,8.08,0,0,0-3.74-2.89l-.61-.23-.51-.16-.56-.14-.5-.11-.53-.09h-.07l-.34,0h-.18a12.74,12.74,0,0,0-3.85.19h-.13l-.38.09-.09,0-.06,0-.41.12h-.08a10,10,0,0,0-1.63.66l-.5.27a8.19,8.19,0,0,0-1.08.75l-.41.36-.07.06a6.49,6.49,0,0,0-1.41,1.9h0l-.22.48-.14.44v0l-.09.32-.09.52C100.45,29.26,100.43,29.57,100.42,29.81Zm8.48-5.25a2.27,2.27,0,0,1,1.79,0c.51.24.52.64,0,.89a2.34,2.34,0,0,1-1.8,0C108.42,25.2,108.41,24.81,108.9,24.56Z"/><path class="cls-13" d="M108.56,23.78l0-.08a.65.65,0,0,1,0-.13l0-.08,0-.06v0l0,0,0-.07.11-.12.07-.05.15-.11.07,0,.08,0,0,0,.09,0h0a1.41,1.41,0,0,1,1.42.35l.06.06.05.07.08.16,0,.08a1.29,1.29,0,0,1,0,.21V25c0,.16-.12.31-.36.44a2.34,2.34,0,0,1-1.8,0c-.25-.12-.38-.28-.38-.45V23.91S108.56,23.82,108.56,23.78Z"/><ellipse class="cls-6" cx="23.21" cy="53.99" rx="10.52" ry="5.18" transform="translate(-0.11 0.05) rotate(-0.12)"/><path class="cls-14" d="M20.08,55.75s-10-13-12.49-24.1a39.53,39.53,0,0,1,5.16,5.53,66.17,66.17,0,0,1-.35-18.79C22,28.67,24,41.69,24.22,48.9c.24-5.16,1-12.76,3.14-17.14,2,6.63.81,13.67-.29,17.78C29,44.13,33.05,34,38.8,29c.52,7-4,26.64-13.65,28.19H19.82s-14-7.08-15-8.74C11.36,46,20.08,55.75,20.08,55.75Z"/><path class="cls-15" d="M23.9,49.15c-1.45-6.33-2.41-15.25-.9-20.67,3.15,5.23,4.09,12.09,4.25,17.56.62-3.18,1.58-6.21,3.07-6.93,1.75,7.88-1.66,15.34-1.66,15.34a35,35,0,0,1,11.12-7.79A30.55,30.55,0,0,1,27.11,57.19H24.59c-1.38-2.26-5.45-9.17-6.66-14.1A26.31,26.31,0,0,1,23.9,49.15Z"/><path class="cls-16" d="M21.41,39.05s-2-13.82-8.87-19.29A74.91,74.91,0,0,0,21.41,39.05Z"/><path class="cls-16" d="M13.32,26.24a51.78,51.78,0,0,1,3.22,15.61C13.72,36.64,13.32,26.24,13.32,26.24Z"/><path class="cls-16" d="M38.68,30.28S37.79,43,32.14,50.56C34.54,36.87,38.68,30.28,38.68,30.28Z"/><path class="cls-16" d="M23.29,29.48a32.38,32.38,0,0,1,3.19,15.21C25.59,40.51,23.29,29.48,23.29,29.48Z"/><path class="cls-16" d="M30,40.11s1.68,6-1.15,10.63A41.55,41.55,0,0,1,30,40.11Z"/></g></g></svg>