<svg xmlns="http://www.w3.org/2000/svg" viewBox="0 0 128 120" width="128" height="120">
    <defs>
        <style>
            .cls-8{fill:#ebebeb}.cls-9{fill:#c6c6c6}
        </style>
    </defs>
    <g style="isolation:isolate">
        <g id="Vrstva_1" data-name="Vrstva 1">
            <g id="layer1">
                <path id="path10" d="M128,55.86l-64,32-64-32,64-32Z" style="fill:#a2c037"/>
                <path id="path837" d="M128,87.86l-64,32v-32l64-32Z" style="fill:#b5b295"/>
                <path id="path839" d="M64,119.86l-64-32v-32l64,32Z" style="fill:#d6d3ad"/>
            </g>
            <polygon points="43.77 55.93 64.42 66.92 84.72 77.33 105.88 66.96 84.91 55.79 105.2 44.76 84.48 34.39 64.26 44.79 43.77 55.93" style="fill:#f7e080;mix-blend-mode:color"/>
            <path d="M59.55,32.55a11.16,11.16,0,0,1,8.73-.08c2.44,1.17,2.5,3.09.12,4.3a11.16,11.16,0,0,1-8.73.08C57.22,35.68,57.17,33.76,59.55,32.55Z" style="mix-blend-mode:multiply;fill:#b5b5b5"/>
            <path d="M59.86,35.72a10.68,10.68,0,0,0,8.34-.07c1.11-.57,1.67-1.3,1.67-2v.66c0,.73-.55,1.46-1.67,2a10.61,10.61,0,0,1-8.33.08c-1.19-.57-1.79-1.32-1.79-2.08v-.66C58.08,34.4,58.68,35.15,59.86,35.72Z" style="fill:#a2a1a1"/>
            <path class="cls-8" d="M59.75,31.61a10.66,10.66,0,0,1,8.33-.07c2.33,1.12,2.39,3,.12,4.11a10.68,10.68,0,0,1-8.34.07C57.53,34.6,57.48,32.77,59.75,31.61Z"/>
            <path class="cls-9" d="M61,29.8c0,.39.26.79.88,1.09a5.32,5.32,0,0,0,4.16,0c.58-.3.86-.69.82-1.08L68,33.53c0,.53-.33,1.07-1.14,1.48a7.33,7.33,0,0,1-5.72.05h0c-.85-.41-1.26-1-1.22-1.51Z"/>
            <path class="cls-8" d="M61.53,29l.88-.61c-.48.33-.45.79.09,1.11l.13.07a3.2,3.2,0,0,0,1.41.25,2.92,2.92,0,0,0,1.22-.27c.63-.33.69-.82.18-1.17l.89.61c.8.56.71,1.34-.29,1.85a4.65,4.65,0,0,1-1.93.43,4.88,4.88,0,0,1-2.23-.4l-.21-.11C60.82,30.28,60.77,29.55,61.53,29Z"/>
            <path class="cls-9" d="M62.83,19.32c0,.13.09.26.3.36a1.77,1.77,0,0,0,1.41,0c.2-.1.29-.23.29-.35l1,9.59c0,.24-.16.47-.52.66a3.38,3.38,0,0,1-2.63,0c-.38-.18-.57-.43-.56-.67Z"/>
            <path d="M61.8,10.13a5.2,5.2,0,0,0,4,0,1.34,1.34,0,0,0,.79-.86L64.82,19.37a.45.45,0,0,1-.28.3,1.77,1.77,0,0,1-1.41,0,.45.45,0,0,1-.3-.31L61,9.25A1.38,1.38,0,0,0,61.8,10.13Z" style="fill:#b5b5b5"/>
            <path d="M55.26,10.43v0h0l0-.11,0-.12a2.06,2.06,0,0,1,.12-.26l.11-.24.14-.25.14-.23.17-.25.15-.22c.13-.17.14-.18.37-.45A5.92,5.92,0,0,1,57,7.83c-1.43,1.42-.92,3.18,1.5,4.34a12.5,12.5,0,0,0,5,1h.79l.46,0,.32,0,.44-.05.32,0,.42-.07.31-.05.42-.09.3-.07.41-.12.27-.08.43-.16.22-.08.6-.27C71.53,10.9,72,9.18,70.56,7.8l0,0h0l.18.19.19.21c.07.07.14.17.2.24l.17.21c0,.07.12.17.18.24l.14.23.16.25.13.23.13.26.11.24.1.26.09.24s0,.12.06.18l0,0v.05l0,.11a6.65,6.65,0,0,1-1.89,6.69l-.11.12-.44.39a9.39,9.39,0,0,1-1.18.83l-.5.27a9.86,9.86,0,0,1-5.25,1.06h-.05l-.41,0-.41,0-.44-.08-.43-.09L60.9,20l-.45-.14-.57-.21-.48-.22-.25-.12L59,19.23l-.3-.16-.47-.29-.73-.54L57.31,18l-.1-.08-.1-.1L57,17.76a8.81,8.81,0,0,1-.65-.7h0a5.39,5.39,0,0,1-.53-.76l-.12-.2q-.14-.24-.24-.48l-.07-.13,0-.06-.08-.2-.11-.3a6.22,6.22,0,0,1-.33-1.5l0-.61A6,6,0,0,1,55.26,10.43Z" style="fill:#8dc5ef"/>
            <path d="M54.39,9.5c0,1.21,1,2.41,2.85,3.31a16.94,16.94,0,0,0,13.29-.11c1.78-.91,2.67-2.08,2.67-3.24l0-.53a5.84,5.84,0,0,0-.29-1.31l-.19-.49a7.15,7.15,0,0,0-.54-1l0,0A8,8,0,0,0,68.4,3.24L67.79,3l-.51-.16-.56-.14-.5-.11-.53-.09h-.07l-.34,0h-.19a12.69,12.69,0,0,0-3.84.19h-.13l-.38.09-.09,0-.06,0-.41.12H60.1a10.17,10.17,0,0,0-1.64.66L58,3.85a7.57,7.57,0,0,0-1.08.75L56.47,5,56.41,5A6.7,6.7,0,0,0,55,6.92h0l-.21.48-.14.44v0c0,.11-.07.22-.09.32l-.1.52C54.42,9,54.39,9.26,54.39,9.5Zm8.48-5.25a2.27,2.27,0,0,1,1.79,0c.5.24.52.64,0,.89a2.34,2.34,0,0,1-1.8,0C62.39,4.89,62.38,4.5,62.87,4.25Z" style="fill:#d4d4d5"/>
            <path d="M62.53,3.47l0-.08,0-.13,0-.08,0-.06v0l0,0L62.74,3l.11-.12.06-.05.16-.11.07,0,.08,0,0,0,.1,0h0a1.39,1.39,0,0,1,1.41.35l.06.06,0,.07a1,1,0,0,1,.09.16l0,.08a1.08,1.08,0,0,1,0,.21V4.68c0,.16-.11.31-.35.44a2.34,2.34,0,0,1-1.8,0c-.26-.12-.39-.28-.39-.45V3.6S62.53,3.51,62.53,3.47Z" style="fill:#e7e7e6"/>
        </g>
    </g>
</svg>
