<svg xmlns="http://www.w3.org/2000/svg" viewBox="0 0 128 123.25"><defs><style>.cls-1{isolation:isolate;}.cls-2{fill:#a2c037;}.cls-3{fill:#b5b295;}.cls-4{fill:#d6d3ad;}.cls-5{fill:#f7e080;mix-blend-mode:color;}.cls-10,.cls-6{fill:#b5b5b5;}.cls-6{mix-blend-mode:multiply;}.cls-7{fill:#a2a1a1;}.cls-8{fill:#ebebeb;}.cls-9{fill:#c6c6c6;}.cls-11{fill:#8dc5ef;}.cls-12{fill:#d4d4d5;}.cls-13{fill:#e7e7e6;}</style></defs><g class="cls-1"><g id="Vrstva_1" data-name="Vrstva 1"><g id="layer1"><path id="path10" class="cls-2" d="M0,59.25l64,32,64-32-64-32Z"/><path id="path837" class="cls-3" d="M0,91.25l64,32v-32l-64-32Z"/><path id="path839" class="cls-4" d="M64,123.25l64-32v-32l-64,32Z"/></g><polygon class="cls-5" points="22.8 48.15 43.52 37.77 63.74 48.18 84.05 37.77 105.2 48.15 63.58 70.31 22.8 48.15"/><polygon class="cls-5" points="104.52 70.35 83.81 80.72 63.58 70.31 43.28 80.72 22.12 70.35 63.74 48.18 104.52 70.35"/><path class="cls-6" d="M68.26,35.94a11.16,11.16,0,0,0-8.73-.08C57.09,37,57,39,59.41,40.16a11.16,11.16,0,0,0,8.73.08C70.58,39.07,70.64,37.15,68.26,35.94Z"/><path class="cls-7" d="M67.94,39.11A10.66,10.66,0,0,1,59.61,39c-1.11-.57-1.67-1.3-1.67-2v.66c0,.73.55,1.46,1.67,2a10.66,10.66,0,0,0,8.33.07c1.19-.57,1.78-1.32,1.79-2.08V37C69.73,37.79,69.13,38.54,67.94,39.11Z"/><path class="cls-8" d="M68.06,35a10.66,10.66,0,0,0-8.33-.07c-2.33,1.12-2.39,3-.12,4.11a10.66,10.66,0,0,0,8.33.07C70.28,38,70.33,36.16,68.06,35Z"/><path class="cls-9" d="M66.81,33.19c0,.39-.26.79-.88,1.09a5.32,5.32,0,0,1-4.16,0c-.58-.3-.86-.69-.82-1.08L59.8,36.92c0,.53.33,1.07,1.14,1.48a7.26,7.26,0,0,0,5.71.05h0c.86-.41,1.27-1,1.23-1.51Z"/><path class="cls-8" d="M66.28,32.41l-.88-.61c.48.33.45.79-.09,1.11l-.13.07a3.23,3.23,0,0,1-1.41.25A2.92,2.92,0,0,1,62.55,33c-.63-.33-.69-.82-.18-1.17l-.89.61c-.8.56-.71,1.34.29,1.85a4.65,4.65,0,0,0,1.93.43,4.88,4.88,0,0,0,2.23-.4l.21-.11C67,33.67,67,32.94,66.28,32.41Z"/><path class="cls-9" d="M65,22.71c0,.13-.09.26-.3.36a1.8,1.8,0,0,1-1.42,0c-.19-.1-.28-.22-.28-.35L62,32.3c0,.24.16.47.52.66a3.38,3.38,0,0,0,2.63,0c.38-.18.56-.43.56-.67Z"/><path class="cls-10" d="M66,13.52a5.17,5.17,0,0,1-4,0,1.34,1.34,0,0,1-.79-.86L63,22.76a.43.43,0,0,0,.27.3,1.8,1.8,0,0,0,1.42,0,.45.45,0,0,0,.3-.31l1.88-10.12A1.38,1.38,0,0,1,66,13.52Z"/><path class="cls-11" d="M72.55,13.82v0h0l-.05-.11,0-.12a2.06,2.06,0,0,0-.12-.26l-.12-.24a2,2,0,0,0-.14-.25l-.13-.23-.17-.25-.15-.22c-.13-.17-.14-.18-.37-.45a5.92,5.92,0,0,0-.41-.44c1.43,1.42.92,3.18-1.51,4.34a12.46,12.46,0,0,1-5,1h-.8l-.45,0-.32,0-.44-.05-.32,0-.43-.07-.31-.05-.41-.09-.3-.07-.41-.12L59.84,16l-.43-.16-.22-.08a6.46,6.46,0,0,1-.6-.27c-2.31-1.18-2.75-2.9-1.34-4.28l0,0h0l-.19.19-.19.21-.19.24-.17.21c-.06.07-.12.17-.18.24l-.15.23-.15.25-.13.23-.13.26-.11.24-.1.26-.09.24c0,.05,0,.12-.06.18l0,.05v0l0,.11a6.67,6.67,0,0,0,1.88,6.69l.12.12.44.39a9.39,9.39,0,0,0,1.18.83l.5.27a9.86,9.86,0,0,0,5.25,1.06h0l.41,0,.41,0,.44-.08.43-.09.49-.13.45-.14.57-.21.48-.21.25-.13.11-.06.29-.16.48-.29.73-.54.23-.21.1-.08.1-.1a.76.76,0,0,0,.09-.09,7.19,7.19,0,0,0,.64-.7h0a6.41,6.41,0,0,0,.54-.76l.12-.2c.08-.16.17-.32.24-.48l.06-.13,0-.06.08-.2.11-.3A6.22,6.22,0,0,0,73,16.8l0-.61A6,6,0,0,0,72.55,13.82Z"/><path class="cls-12" d="M73.37,12.1l-.1-.52-.09-.32v0L73,10.8l-.21-.48h0a6.49,6.49,0,0,0-1.41-1.9l-.07-.06L70.92,8a8.19,8.19,0,0,0-1.08-.75L69.35,7a10.17,10.17,0,0,0-1.64-.66h-.08l-.41-.12-.06,0-.09,0L66.69,6h-.13a12.74,12.74,0,0,0-3.85-.19h-.18l-.34,0h-.07L61.59,6l-.5.11-.56.14L60,6.4l-.61.23a8,8,0,0,0-3.73,2.89l0,0a6.2,6.2,0,0,0-.54,1l-.2.49a6.45,6.45,0,0,0-.28,1.31l0,.53c0,1.16.88,2.33,2.66,3.24a17,17,0,0,0,13.3.11c1.89-.9,2.84-2.1,2.85-3.31C73.41,12.65,73.39,12.34,73.37,12.1ZM64.92,8.52a2.34,2.34,0,0,1-1.8,0c-.49-.25-.48-.65,0-.89a2.27,2.27,0,0,1,1.79,0C65.43,7.89,65.42,8.28,64.92,8.52Z"/><path class="cls-13" d="M65.28,6.86l0-.08a.65.65,0,0,0,0-.13l0-.08,0-.06v0l0,0-.05-.07L65,6.26l-.06,0-.16-.11-.07,0-.08,0,0,0-.1,0h0A1.41,1.41,0,0,0,63,6.32L63,6.38l0,.07a1,1,0,0,0-.09.16l0,.08a1.29,1.29,0,0,0,0,.21V8.07c0,.16.12.31.36.44a2.34,2.34,0,0,0,1.8,0c.26-.12.38-.28.38-.45V7S65.28,6.9,65.28,6.86Z"/></g></g></svg>