<svg xmlns="http://www.w3.org/2000/svg" viewBox="0 0 128 123.25"><defs><style>.cls-1{isolation:isolate;}.cls-2{fill:#a2c037;}.cls-3{fill:#b5b295;}.cls-4{fill:#d6d3ad;}.cls-5{fill:#f7e080;mix-blend-mode:color;}.cls-10,.cls-6{fill:#b5b5b5;}.cls-6{mix-blend-mode:multiply;}.cls-7{fill:#a2a1a1;}.cls-8{fill:#ebebeb;}.cls-9{fill:#c6c6c6;}.cls-11{fill:#8dc5ef;}.cls-12{fill:#d4d4d5;}.cls-13{fill:#e7e7e6;}.cls-14{fill:#84b451;}.cls-15{fill:#a1c268;}.cls-16{fill:#fff;opacity:0.35;mix-blend-mode:overlay;}</style></defs><g class="cls-1"><g id="Vrstva_1" data-name="Vrstva 1"><g id="layer1"><path id="path10" class="cls-2" d="M0,59.25l64,32,64-32-64-32Z"/><path id="path837" class="cls-3" d="M0,91.25l64,32v-32l-64-32Z"/><path id="path839" class="cls-4" d="M64,123.25l64-32v-32l-64,32Z"/></g><polygon class="cls-5" points="84.23 59.32 63.58 70.31 43.28 80.72 22.12 70.35 43.09 59.18 22.8 48.15 43.52 37.78 63.74 48.18 84.23 59.32"/><path class="cls-6" d="M68.45,35.94a11.16,11.16,0,0,0-8.73-.08c-2.44,1.17-2.5,3.09-.12,4.3a11.16,11.16,0,0,0,8.73.08C70.78,39.07,70.83,37.15,68.45,35.94Z"/><path class="cls-7" d="M68.14,39.11A10.68,10.68,0,0,1,59.8,39c-1.11-.57-1.67-1.3-1.67-2v.66c0,.73.55,1.46,1.67,2a10.66,10.66,0,0,0,8.33.07c1.19-.57,1.79-1.32,1.79-2.08V37C69.92,37.79,69.32,38.54,68.14,39.11Z"/><path class="cls-8" d="M68.25,35a10.66,10.66,0,0,0-8.33-.07c-2.33,1.12-2.39,3-.12,4.11a10.68,10.68,0,0,0,8.34.07C70.47,38,70.52,36.16,68.25,35Z"/><path class="cls-9" d="M67,33.19c0,.39-.26.79-.88,1.09a5.32,5.32,0,0,1-4.16,0c-.58-.3-.86-.69-.82-1.08L60,36.92c-.05.53.33,1.07,1.14,1.48a7.28,7.28,0,0,0,5.72.05h0c.85-.41,1.26-1,1.22-1.51Z"/><path class="cls-8" d="M66.47,32.41l-.88-.61c.48.33.45.79-.09,1.11l-.13.07a3.2,3.2,0,0,1-1.41.25A2.92,2.92,0,0,1,62.74,33c-.63-.33-.69-.82-.18-1.17l-.89.61c-.8.56-.71,1.34.29,1.85a4.65,4.65,0,0,0,1.93.43,4.88,4.88,0,0,0,2.23-.4l.21-.11C67.18,33.67,67.23,32.94,66.47,32.41Z"/><path class="cls-9" d="M65.17,22.71c0,.13-.09.26-.3.36a1.77,1.77,0,0,1-1.41,0c-.2-.1-.29-.22-.29-.35l-1,9.59c0,.24.17.47.52.66a3.38,3.38,0,0,0,2.63,0c.38-.18.57-.43.56-.67Z"/><path class="cls-10" d="M66.2,13.52a5.2,5.2,0,0,1-4,0,1.34,1.34,0,0,1-.79-.86l1.81,10.13a.45.45,0,0,0,.28.3,1.77,1.77,0,0,0,1.41,0,.45.45,0,0,0,.3-.31l1.88-10.12A1.38,1.38,0,0,1,66.2,13.52Z"/><path class="cls-11" d="M72.74,13.82v0h0l0-.11-.05-.12a2.06,2.06,0,0,0-.12-.26l-.11-.24-.14-.25-.14-.23L72,12.33l-.15-.22c-.13-.17-.14-.18-.37-.45a5.92,5.92,0,0,0-.41-.44c1.43,1.42.92,3.18-1.5,4.34a12.5,12.5,0,0,1-5,1H63.7l-.46,0-.32,0-.44-.05-.32,0-.42-.07-.31-.05L61,16.25l-.3-.07-.41-.12L60,16l-.43-.16-.22-.08q-.3-.12-.6-.27c-2.31-1.18-2.75-2.9-1.34-4.28l0,0h0l-.18.19-.19.21-.2.24-.17.21c0,.07-.12.17-.18.24l-.14.23-.16.25-.13.23-.13.26-.11.24-.1.26-.09.24-.06.18,0,.05v0l0,.11a6.65,6.65,0,0,0,1.89,6.69l.11.12.44.39a9.39,9.39,0,0,0,1.18.83l.5.27a9.86,9.86,0,0,0,5.25,1.06h0l.41,0,.41,0,.44-.08.43-.09.49-.13.45-.14.57-.21.48-.21.25-.13.11-.06.3-.16.47-.29.73-.54.23-.21.1-.08.1-.1a.76.76,0,0,0,.09-.09,8.81,8.81,0,0,0,.65-.7h0a5.39,5.39,0,0,0,.53-.76l.12-.2q.13-.24.24-.48l.07-.13,0-.06.08-.2.11-.3a6.22,6.22,0,0,0,.33-1.5l0-.61A6,6,0,0,0,72.74,13.82Z"/><path class="cls-12" d="M73.56,12.1l-.1-.52c0-.1-.06-.21-.09-.32v0l-.14-.44L73,10.32h0a6.7,6.7,0,0,0-1.42-1.9l-.06-.06L71.11,8A7.57,7.57,0,0,0,70,7.24L69.54,7a10.17,10.17,0,0,0-1.64-.66h-.08l-.41-.12-.06,0-.09,0L66.88,6h-.13a12.69,12.69,0,0,0-3.84-.19h-.19l-.34,0h-.07L61.78,6l-.5.11-.56.14-.51.16-.61.23a8,8,0,0,0-3.73,2.89l0,0a7.15,7.15,0,0,0-.54,1l-.19.49a5.84,5.84,0,0,0-.29,1.31l0,.53c0,1.16.89,2.33,2.67,3.24a16.94,16.94,0,0,0,13.29.11c1.89-.9,2.85-2.1,2.85-3.31C73.61,12.65,73.58,12.34,73.56,12.1ZM65.11,8.52a2.34,2.34,0,0,1-1.8,0c-.49-.25-.47-.65,0-.89a2.27,2.27,0,0,1,1.79,0C65.62,7.89,65.61,8.28,65.11,8.52Z"/><path class="cls-13" d="M65.47,6.86l0-.08,0-.13,0-.08,0-.06v0l0,0,0-.07-.11-.12-.06,0-.16-.11-.07,0-.08,0,0,0-.1,0h0a1.39,1.39,0,0,0-1.41.35l-.06.06,0,.07a1,1,0,0,0-.09.16l0,.08a1.29,1.29,0,0,0-.05.21V8.07c0,.16.11.31.35.44a2.34,2.34,0,0,0,1.8,0c.26-.12.39-.28.39-.45V7S65.47,6.9,65.47,6.86Z"/><ellipse class="cls-6" cx="97.69" cy="59.03" rx="5.18" ry="10.52" transform="translate(38.45 156.59) rotate(-89.88)"/><path class="cls-14" d="M100.82,60.79s10-13,12.48-24.1a39.57,39.57,0,0,0-5.16,5.53,66.17,66.17,0,0,0,.35-18.79C98.89,33.71,97,46.73,96.68,53.93c-.24-5.15-1-12.75-3.14-17.13-2,6.62-.81,13.66.29,17.77C92,49.17,87.85,39,82.09,34c-.52,7,4,26.64,13.66,28.18h5.33s14-7.07,15-8.73C109.53,51.06,100.82,60.79,100.82,60.79Z"/><path class="cls-15" d="M97,54.18c1.45-6.32,2.41-15.24.89-20.67-3.14,5.24-4.08,12.1-4.24,17.57-.62-3.19-1.59-6.21-3.07-6.93C88.82,52,92.24,59.49,92.24,59.49A35,35,0,0,0,81.12,51.7,30.55,30.55,0,0,0,93.78,62.22h2.53c1.38-2.25,5.45-9.16,6.66-14.09A26.5,26.5,0,0,0,97,54.18Z"/><path class="cls-16" d="M99.49,44.08s2-13.81,8.87-19.28A74.72,74.72,0,0,1,99.49,44.08Z"/><path class="cls-16" d="M107.57,31.27a52.05,52.05,0,0,0-3.21,15.61C107.18,41.68,107.57,31.27,107.57,31.27Z"/><path class="cls-16" d="M82.22,35.32S83.11,48,88.76,55.6C86.35,41.9,82.22,35.32,82.22,35.32Z"/><path class="cls-16" d="M97.61,34.52a32.41,32.41,0,0,0-3.2,15.21C95.3,45.55,97.61,34.52,97.61,34.52Z"/><path class="cls-16" d="M90.86,45.15s-1.68,6,1.15,10.63A42,42,0,0,0,90.86,45.15Z"/></g></g></svg>